<svg width="250" height="256" viewBox="0 0 250 256" fill="none" xmlns="http://www.w3.org/2000/svg">
<mask id="path-1-inside-1_2106_378" fill="white">
<path d="M125 0C194.036 0 250 55.9644 250 125C250 194.036 194.036 250 125 250C55.9644 250 0 194.036 0 125C0 55.9644 55.9644 0 125 0Z"/>
</mask>
<path d="M125 0C194.036 0 250 55.9644 250 125C250 194.036 194.036 250 125 250C55.9644 250 0 194.036 0 125C0 55.9644 55.9644 0 125 0Z" fill="url(#paint0_linear_2106_378)"/>
<path d="M250 0V250V0ZM0 250V0V250ZM0 0H250H0ZM250 131.482C250 200.518 194.036 256.482 125 256.482C55.9644 256.482 0 200.518 0 131.482V125C0 190.456 55.9644 243.518 125 243.518C194.036 243.518 250 190.456 250 125V131.482Z" fill="#45A6D2" mask="url(#path-1-inside-1_2106_378)"/>
<g clip-path="url(#clip0_2106_378)">
<path d="M91.1023 190.682C89.8933 195.751 89.4825 200.305 89.4155 204.019C87.0644 204.876 85.1503 205.223 83.7926 205.38C83.7926 205.38 80.7598 205.73 78.2105 206.566C78.0561 206.615 77.8056 206.703 77.4997 206.848C77.252 206.968 76.0779 207.74 75.4312 208.5C73.6977 210.54 73.2374 213.704 73.2374 213.704C72.5003 218.764 74.7552 226.336 80.212 229.153C80.9695 229.544 82.6156 230.395 84.7715 230.33C85.2755 230.316 85.8495 230.199 89.7068 228.938C91.3908 228.387 92.7164 227.892 94.2168 227.33C96.0959 226.627 97.6458 226.013 98.7413 225.57C103.041 226.094 106.619 226.426 109.174 226.636C110.803 226.77 124.411 227.866 134.824 227.289C136.656 227.187 138.635 227.038 138.635 227.038C141.19 226.846 144.141 226.575 147.416 226.188C150.638 227.866 153.493 228.687 155.506 229.121C158.714 229.812 160.974 230.298 163.605 229.416C166.766 228.355 168.544 225.96 169.231 225.011C172.497 220.483 173.508 212.961 169.913 208.975C168.514 207.425 166.254 206.685 161.764 205.173C159.494 204.41 157.548 203.932 156.164 203.638C156.301 199.087 155.955 192.698 153.775 185.473C152.415 180.963 150.667 177.205 149.018 174.247C146.238 175.215 142.573 176.287 138.192 177.041C136.971 177.251 131.596 178.143 124.583 178.006C113.952 177.799 104.679 175.325 98.2664 173.091C95.8162 177.196 92.9057 183.122 91.1053 190.679H91.1023V190.682Z" fill="#C0B4DF"/>
<path d="M90.216 214.056C90.6909 214.758 91.1891 215.62 91.6261 216.646C92.5089 218.729 92.7594 220.634 92.8177 221.974C93.6684 221.622 94.6561 221.284 95.7777 221.016C97.9511 220.494 99.8827 220.425 101.366 220.492C108.935 221.776 115.464 222.254 120.542 222.409C128.422 222.647 132.361 222.767 135.385 222.027C138.814 221.188 142.013 219.807 146.64 220.401C149.067 220.713 150.998 221.453 152.266 222.041C152.225 221.08 152.274 219.845 152.592 218.455C153.178 215.897 154.387 214.065 155.202 213.033C155.322 213.38 155.625 214.102 156.356 214.656C156.665 214.892 156.971 215.035 157.218 215.125C156.962 215.702 156.642 216.497 156.342 217.467C156.056 218.388 155.741 219.425 155.61 220.838C155.575 221.202 155.497 222.202 155.61 223.492C155.674 224.227 155.715 224.669 155.881 225.281C156.339 226.956 157.239 227.999 157.513 228.299C157.72 228.527 157.903 228.699 158.025 228.806C156.997 228.556 156.135 228.337 155.488 228.165C154.209 227.83 153.789 227.699 153.492 227.6C152.741 227.353 152.557 227.248 151.505 226.84C149.673 226.129 148.732 225.771 147.476 225.54C146.71 225.401 146.028 225.345 145.874 225.331C145.609 225.31 145.043 225.272 144.321 225.284C143.176 225.304 142.337 225.438 141.058 225.639C139.403 225.899 138.576 226.027 137.961 226.117C137.57 226.173 135.849 226.417 133.763 226.581C132.093 226.712 130.692 226.752 129.194 226.77C127.053 226.796 124.912 226.77 120.364 226.615C112.437 226.347 109.864 226.117 108.573 225.972C105.948 225.68 105.115 225.567 105.115 225.567C103.72 225.38 103.318 225.296 102.49 225.24C101.899 225.2 100.594 225.141 99.2039 225.31C97.7909 225.482 96.4886 225.977 93.8811 226.974C92.2816 227.583 91.6611 227.889 89.98 228.454C89.074 228.76 88.3194 228.987 87.8066 229.133C88.8584 227.88 89.377 226.715 89.6508 225.925C90.9735 222.111 89.61 218.301 88.9574 216.474C88.8059 216.051 88.669 215.711 88.57 215.48C88.7681 215.387 88.9895 215.265 89.2196 215.099C89.7062 214.752 90.0267 214.359 90.2277 214.059H90.216V214.056Z" fill="#A394C5"/>
<path d="M90.2207 201.715C90.2207 201.715 110.655 205.036 116.969 186.956C116.969 186.956 123.64 191.058 129.808 189.149C130.828 191.279 132.698 194.37 136.022 196.972C144.308 203.457 154.505 201.33 156.166 200.958C156.119 199.361 156.011 197.68 155.828 195.929C155.749 195.192 155.662 194.469 155.565 193.764C155.166 191.096 154.519 188.013 153.459 184.672C152.142 180.517 150.528 177.03 149.01 174.247C146.391 175.2 142.732 176.339 138.266 177.129C125.811 179.328 115.529 177.318 109.184 176.016C104.56 175.066 100.811 173.939 98.2646 173.091C96.4175 176.398 94.3898 180.721 92.8195 185.986C90.9986 192.104 90.3809 197.546 90.2207 201.712V201.715Z" fill="#A394C5"/>
<path d="M167.118 206.854C162.185 207.819 159.234 212.468 157.911 216.978C157.058 220.04 156.717 224.332 158.15 227.222C158.66 228.242 159.444 229.136 160.437 229.867C160.472 229.893 160.478 229.94 160.452 229.978C160.432 230.004 160.399 230.016 160.367 230.007C159.155 229.66 158.022 228.874 157.236 227.802C154.829 224.547 155.435 220.166 156.74 216.603C157.579 214.219 158.835 211.982 160.542 210.111C162.742 207.705 165.553 206.56 167.089 206.706C167.141 206.712 168.041 206.799 168.038 206.84C168.038 206.872 167.523 206.866 167.115 206.854H167.118Z" fill="#5E5573"/>
<path d="M165.51 206.423C165.32 206.277 163.272 204.742 161.306 205.555C160.973 205.692 159.718 206.213 159.616 207.352C159.546 208.145 160.053 208.961 160.904 209.421C161.606 208.809 162.462 208.145 163.491 207.51C164.201 207.073 164.88 206.714 165.51 206.423Z" fill="white" stroke="#5E5573" stroke-width="1.74804" stroke-linecap="round" stroke-linejoin="round"/>
<path d="M160.416 209.916C159.107 208.943 157.383 209.092 156.442 210.042C155.474 211.018 155.713 212.451 155.728 212.536C156.008 214.071 157.479 214.566 157.578 214.595C157.954 213.739 158.443 212.78 159.081 211.775C159.527 211.076 159.979 210.458 160.416 209.914V209.916Z" fill="white" stroke="#5E5573" stroke-width="1.74804" stroke-linecap="round" stroke-linejoin="round"/>
<path d="M98.2623 173.094C95.5965 177.56 92.4238 184.141 90.7836 192.567C89.9795 196.704 89.6998 200.474 89.6823 203.714C88.2431 204.177 86.0755 204.835 83.3835 205.488C79.7127 206.379 78.5415 206.231 77.0323 207.425C75.0833 208.972 74.3637 211.23 74.1189 211.996C73.5916 213.651 73.612 214.997 73.6411 216.072C73.6586 216.766 73.7781 219.717 75.4853 223.143C76.3185 224.815 77.28 226.741 79.4038 228.288C80.0943 228.792 82.0521 230.156 84.7674 230.328C85.3414 230.362 86.5592 230.383 90.7341 228.941C95.0896 227.435 95.547 226.794 97.8428 226.281C100.543 225.678 102.632 225.955 104.651 226.191C104.651 226.191 113.316 227.193 122.822 227.429C127.527 227.545 131.667 227.65 137.203 226.945C142.231 226.301 144.486 225.497 148.233 226.461C150.706 227.099 151.583 227.93 155.403 228.915C158.919 229.821 160.676 230.275 162.389 229.969C167.91 228.993 172.312 221.567 171.998 215.064C171.928 213.637 171.788 210.723 169.748 208.436C167.575 205.995 164.12 205.252 160.676 204.512C160.676 204.512 160.56 204.486 156.157 203.641C156.23 200.905 156.117 197.837 155.674 194.516C154.52 185.863 151.586 178.985 149.011 174.247" stroke="#5E5573" stroke-width="1.74804" stroke-linecap="round" stroke-linejoin="round"/>
<path d="M170.784 220.724C172.989 214.558 171.869 208.519 168.281 207.236C164.694 205.953 159.997 209.911 157.792 216.077C155.587 222.243 156.707 228.282 160.295 229.566C163.882 230.849 168.579 226.89 170.784 220.724Z" fill="#DACFF3"/>
<path d="M77.6807 207.181C77.6807 207.14 78.578 207.049 78.6304 207.047C80.1658 206.901 82.9772 208.043 85.1768 210.452C86.887 212.323 88.1427 214.56 88.9788 216.943C90.284 220.506 90.89 224.888 88.4835 228.142C87.694 229.215 86.5607 230.001 85.3516 230.348C85.3196 230.36 85.2875 230.348 85.2671 230.319C85.2409 230.284 85.2468 230.234 85.2817 230.208C86.2781 229.474 87.0618 228.582 87.5687 227.563C89.0021 224.673 88.6613 220.381 87.8076 217.319C86.485 212.809 83.5337 208.159 78.6013 207.195C78.1934 207.204 77.6806 207.21 77.6777 207.181H77.6807Z" fill="#5E5573"/>
<path d="M82.226 207.851C83.2545 208.486 84.1139 209.147 84.8131 209.762C85.6638 209.302 86.1708 208.486 86.1008 207.693C85.9989 206.554 84.7432 206.033 84.4111 205.896C82.4445 205.083 80.3964 206.618 80.207 206.764C80.8363 207.055 81.5181 207.414 82.226 207.851Z" fill="white" stroke="#5E5573" stroke-width="1.74804" stroke-linecap="round" stroke-linejoin="round"/>
<path d="M86.6351 212.119C87.2732 213.124 87.7626 214.082 88.1384 214.939C88.2346 214.91 89.7088 214.415 89.9884 212.879C90.0059 212.792 90.2419 211.361 89.2747 210.385C88.3336 209.436 86.6118 209.29 85.3008 210.26C85.7378 210.802 86.1894 211.422 86.6351 212.122V212.119Z" fill="white" stroke="#5E5573" stroke-width="1.74804" stroke-linecap="round" stroke-linejoin="round"/>
<path d="M85.4199 229.919C89.0075 228.636 90.128 222.597 87.9226 216.431C85.7172 210.265 81.0211 206.306 77.4335 207.589C73.8458 208.872 72.7253 214.911 74.9307 221.078C77.1361 227.244 81.8323 231.202 85.4199 229.919Z" fill="#DACFF3"/>
<path d="M91.5488 169.825C89.9465 171.372 86.4708 175.159 85.2763 181.056C84.7227 183.789 83.8196 188.374 86.3542 192.095C89.3871 196.549 96.4812 198.222 103.686 195.812C105.003 195.369 106.853 194.603 108.817 193.251C111.124 191.664 114.635 189.243 115.453 185.044C116.211 181.164 114.256 177.883 113.501 176.756C111.415 174.07 109.58 173.359 108.237 173.242C106.509 173.094 103.704 173.767 103.704 173.767C103.704 173.767 99.5345 172.887 95.5548 171.468C94.5526 171.11 93.1687 170.579 91.5459 169.825H91.5488Z" fill="#BBB3D3"/>
<path d="M91.153 170.355C90.5995 170.909 89.9672 171.625 89.3583 172.523C88.7174 173.466 88.2687 174.361 87.9512 175.107C88.362 175.392 88.8194 175.672 89.3263 175.931C91.7881 177.193 94.2062 177.362 95.8407 177.295C98.084 176.345 100.33 175.392 102.574 174.442C99.6951 173.644 96.6622 172.639 93.5274 171.363C92.7175 171.034 91.928 170.696 91.1559 170.355H91.153Z" fill="#A394C5"/>
<path d="M85.0146 188.858C85.8741 189.816 87.3104 191.168 89.408 192.074C95.3863 194.653 101.644 191.422 104.584 189.904C110.128 187.043 113.397 182.807 115.087 180.132C115.372 181.344 115.652 183.302 115.087 185.519C114.029 189.674 110.731 191.911 108.421 193.479C103.663 196.707 98.7309 197.38 95.8641 197.511C95.0047 197.502 90.9026 197.365 87.7853 194.105C85.9003 192.133 85.2535 189.939 85.0117 188.858H85.0146Z" fill="#A394C5"/>
<path d="M91.5481 169.825C89.5961 171.628 87.4256 174.239 86.0009 177.793C85.2143 179.759 82.5078 186.524 85.829 191.9C86.0825 192.307 87.1925 194.041 89.3251 195.425C92.1511 197.257 94.98 197.324 97.0107 197.336C98.8694 197.345 104.425 197.289 109.463 193.251C111.356 191.734 115.776 188.191 115.668 182.853C115.61 180.045 114.322 177.889 113.503 176.756" stroke="#5E5573" stroke-width="1.74804" stroke-linecap="round" stroke-linejoin="round"/>
<path d="M101.833 176.747C101.833 176.747 101.664 179.8 103.36 181.032C103.36 181.032 103.477 182.061 102.326 181.032C102.326 181.032 100.391 179.36 101.394 176.747C101.394 176.747 101.831 176.173 101.833 176.747Z" fill="#A394C5"/>
<path d="M101.103 181.49C101.103 181.49 100.051 180.438 99.8964 177.697C99.8964 177.697 99.608 176.68 99.2176 177.697C99.2176 177.697 98.8534 180.19 100.444 181.49C100.444 181.49 101.971 182.699 101.103 181.49Z" fill="#A394C5"/>
<path d="M90.0605 179.713C92.7729 178.387 95.765 176.933 98.5269 175.68C101.094 174.608 103.652 173.23 106.495 172.989C108.622 172.954 110.728 173.46 112.602 174.623C117.077 177.37 117.747 184.214 114.481 188.112L114.303 188.013C114.787 186.521 115.046 185.021 114.985 183.567C114.886 180.782 113.723 177.973 111.454 176.286C110.116 175.246 108.293 174.608 106.536 174.553C103.925 174.658 101.391 175.803 98.9115 176.627C97.816 177.012 95.6106 177.831 94.5268 178.253C93.0701 178.809 91.6105 179.36 90.145 179.902L90.0605 179.716V179.713Z" fill="#5E5573"/>
<path d="M114.822 186.583C114.822 186.583 109.258 184.52 114.758 181.516C114.758 181.516 116.413 184.491 114.822 186.583Z" fill="white" stroke="#5E5573" stroke-width="1.74804" stroke-linecap="round" stroke-linejoin="round"/>
<path d="M114.406 181.251C114.406 181.251 108.497 181.799 112.156 176.712C112.156 176.712 114.936 178.678 114.406 181.251Z" fill="white" stroke="#5E5573" stroke-width="1.74804" stroke-linecap="round" stroke-linejoin="round"/>
<path d="M107.742 174.349C107.742 174.349 107.832 180.281 112.497 176.097C112.497 176.097 110.242 173.545 107.742 174.349Z" fill="white" stroke="#5E5573" stroke-width="1.74804" stroke-linecap="round" stroke-linejoin="round"/>
<path d="M154.377 170.154C155.979 171.701 159.455 175.488 160.649 181.385C161.203 184.118 162.106 188.703 159.571 192.424C156.538 196.878 149.444 198.551 142.239 196.141C140.922 195.699 139.072 194.932 137.109 193.58C134.801 191.993 131.291 189.572 130.472 185.373C129.715 181.493 131.67 178.212 132.424 177.085C134.51 174.399 136.346 173.688 137.689 173.571C139.416 173.423 142.222 174.096 142.222 174.096C142.222 174.096 146.391 173.216 150.371 171.797C151.373 171.439 152.757 170.908 154.38 170.154H154.377Z" fill="#BBB3D3"/>
<path d="M154.77 170.681C155.324 171.235 155.956 171.951 156.565 172.849C157.206 173.793 157.654 174.687 157.972 175.433C157.561 175.718 157.104 175.998 156.597 176.257C154.135 177.519 151.717 177.688 150.082 177.621C147.839 176.671 145.593 175.718 143.35 174.769C146.228 173.97 149.261 172.965 152.396 171.689C153.206 171.36 153.995 171.022 154.767 170.681H154.77Z" fill="#A394C5"/>
<path d="M160.915 189.187C160.056 190.146 158.619 191.497 156.522 192.403C150.543 194.982 144.285 191.751 141.346 190.233C135.801 187.372 132.533 183.136 130.843 180.461C130.557 181.673 130.278 183.631 130.843 185.848C131.9 190.003 135.198 192.24 137.509 193.808C142.266 197.036 147.199 197.709 150.065 197.84C150.925 197.831 155.027 197.694 158.144 194.434C160.029 192.462 160.676 190.268 160.918 189.187H160.915Z" fill="#A394C5"/>
<path d="M154.376 170.154C156.328 171.957 158.498 174.568 159.923 178.122C160.71 180.089 163.416 186.853 160.095 192.229C159.841 192.637 158.731 194.37 156.599 195.754C153.773 197.586 150.944 197.653 148.913 197.665C147.055 197.674 141.499 197.618 136.461 193.58C134.568 192.063 130.148 188.52 130.256 183.183C130.314 180.374 131.602 178.218 132.42 177.085" stroke="#5E5573" stroke-width="1.74804" stroke-linecap="round" stroke-linejoin="round"/>
<path d="M144.098 177.076C144.098 177.076 144.267 180.129 142.572 181.361C142.572 181.361 142.455 182.39 143.606 181.361C143.606 181.361 145.54 179.689 144.538 177.076C144.538 177.076 144.101 176.502 144.098 177.076Z" fill="#A394C5"/>
<path d="M144.826 181.819C144.826 181.819 145.877 180.767 146.032 178.026C146.032 178.026 146.32 177.009 146.711 178.026C146.711 178.026 147.075 180.52 145.484 181.819C145.484 181.819 143.957 183.028 144.826 181.819Z" fill="#A394C5"/>
<path d="M155.787 180.228C152.953 179.188 149.879 177.964 147.024 176.954C144.542 176.129 142.007 174.984 139.4 174.879C137.643 174.932 135.819 175.573 134.482 176.613C132.212 178.3 131.05 181.108 130.951 183.893C130.89 185.35 131.149 186.847 131.632 188.339L131.455 188.438C128.192 184.54 128.859 177.699 133.334 174.949C135.207 173.787 137.311 173.28 139.44 173.315C142.284 173.556 144.842 174.935 147.409 176.007C148.472 176.484 150.607 177.487 151.656 177.999C153.066 178.672 154.474 179.354 155.875 180.042L155.79 180.228H155.787Z" fill="#5E5573"/>
<path d="M131.005 181.909C136.776 184.351 131.445 186.955 131.445 186.955C129.653 185.032 131.005 181.909 131.005 181.909Z" fill="white" stroke="#5E5573" stroke-width="1.74804" stroke-linecap="round" stroke-linejoin="round"/>
<path d="M133.773 177.041C137.436 182.128 131.524 181.58 131.524 181.58C130.994 179.008 133.773 177.041 133.773 177.041Z" fill="white" stroke="#5E5573" stroke-width="1.74804" stroke-linecap="round" stroke-linejoin="round"/>
<path d="M133.434 176.426C138.098 180.61 138.188 174.678 138.188 174.678C135.686 173.874 133.434 176.426 133.434 176.426Z" fill="white" stroke="#5E5573" stroke-width="1.74804" stroke-linecap="round" stroke-linejoin="round"/>
<path d="M147.363 204.122C148.432 203.615 149.388 202.726 150.548 202.304C151.73 201.916 152.966 201.412 154.227 201.494C155.09 201.581 155.894 201.794 156.654 202.272V202.446C155.85 202.921 155.058 203.099 154.291 203.242C153.152 203.408 152.001 203.148 150.874 203.422C149.679 203.562 148.651 204.162 147.41 204.29L147.366 204.122H147.363Z" fill="#5E5573"/>
<path d="M151.616 209.316C152.243 208.425 152.983 207.481 153.658 206.624C154.454 205.759 155.118 204.623 156.286 204.191C157.102 203.903 158.11 203.874 158.833 204.427L158.818 204.602C158.069 205.03 157.583 205.386 157.061 205.759C156.537 206.161 155.887 206.379 155.34 206.787C155.051 206.997 154.763 207.224 154.468 207.454C153.597 208.113 152.639 208.832 151.736 209.441L151.613 209.316H151.616Z" fill="#5E5573"/>
<path d="M98.4864 204.11C97.6532 204.043 96.8695 203.687 96.1353 203.483C95.4011 203.279 94.6553 203.157 93.8978 203.104C93.1345 203.046 92.3683 203.212 91.605 203.061C90.8387 202.918 90.0463 202.737 89.2422 202.265V202.091C90.0026 201.613 90.8067 201.4 91.669 201.313C92.511 201.217 93.3355 201.511 94.1396 201.726C94.9583 201.939 95.7566 202.257 96.4878 202.682C97.2133 203.119 97.8076 203.611 98.5301 203.941L98.4864 204.11Z" fill="#5E5573"/>
<path d="M94.1586 209.261C93.2554 208.652 92.294 207.935 91.4258 207.274C90.8635 206.828 90.2954 206.371 89.6574 206.073C88.6756 205.561 88.1745 205.022 87.079 204.419L87.0645 204.244C87.787 203.69 88.795 203.719 89.6108 204.008C90.782 204.439 91.4433 205.575 92.2387 206.44C92.9146 207.297 93.6546 208.241 94.281 209.132L94.1586 209.258V209.261Z" fill="#5E5573"/>
<path d="M64.1101 100.815C62.5485 107.137 62.0999 110.298 61.9134 114.007C61.6512 119.213 62.2921 120.751 61.558 125.436C60.7772 130.424 59.7779 130.433 58.7174 135.904C57.957 139.852 57.1616 143.954 58.2775 148.904C59.3642 153.728 61.7269 156.977 63.1953 158.952C67.0701 164.173 71.5539 166.841 74.2517 168.412C78.3013 170.769 83.1375 172.263 92.8013 175.247C94.2347 175.689 95.9216 176.185 97.9522 176.715C98.7242 176.913 101.492 177.624 105.271 178.364C106.258 178.556 108.475 178.979 111.427 179.418C115.899 180.086 121.309 180.893 128.039 181.105C132.31 181.242 137.432 181.376 144.133 180.389C151.221 179.343 156.398 177.583 158.198 176.942C160.861 175.992 162.95 175.016 167.131 173.056C176.996 168.435 180.556 165.691 183.385 162.774C183.563 162.591 183.801 162.343 184.116 161.996C191.14 154.314 192.116 145.055 192.242 143.723C193.002 135.648 190.359 129.439 189.04 126.797C189.06 125.191 189.069 122.858 188.993 120.046C188.839 114.345 188.44 109.377 188.154 107.198C187.405 101.453 184.923 88.8262 175.728 76.8201C170.487 69.9765 165.106 66.0056 163.381 64.779C152.637 57.143 141.58 55.092 139.876 55.0191C138.749 54.9667 138.227 54.8385 137.175 54.5821C136.077 54.3141 135.521 54.1713 135.153 53.7751C134.207 52.7554 134.76 50.8384 134.944 50.2033C135.73 47.4734 137.624 46.5149 137.301 45.9526C136.928 45.3 133.912 45.7749 131.474 47.453C131.474 47.453 130.48 48.1377 127.104 52.0562C127.739 41.9816 126.716 41.6291 126.716 41.6291C126.215 41.4572 125.6 41.9875 124.697 42.7683C123.418 43.8666 122.78 45.1339 122.436 45.938C121.006 49.2972 121.589 52.1057 121.073 52.1815C120.516 52.266 120.324 48.9214 117.746 46.8616C116.647 45.9817 114.824 45.099 114.087 45.6962C112.907 46.6577 116.059 50.212 114.905 52.9856C113.787 55.6834 109.559 55.3279 103.278 56.9332C95.6856 58.8736 90.4327 62.3347 87.4872 64.2517C81.5119 68.1411 77.7099 72.3888 76.2794 74.0786C68.4365 83.3345 65.9951 93.208 64.1159 100.809H64.1101V100.815Z" fill="#C0B4DF"/>
<path d="M159.71 95.8069C155.433 96.579 151.891 93.1179 151.078 91.1921C150.83 90.6036 150.443 89.6859 150.731 88.7594C150.731 88.7594 150.763 88.6545 151.256 87.4746C151.256 87.4746 152.811 89.5577 154.492 90.892C156.634 92.5935 158.947 93.0538 159.888 93.2286C161.61 93.552 163.067 93.4704 164.031 93.348C163.34 94.0909 161.884 95.4136 159.71 95.8069Z" fill="#5E5573"/>
<path d="M87.3918 146.545C88.1317 144.143 84.6426 140.936 79.5989 139.382C74.5551 137.829 69.8666 138.517 69.1267 140.918C68.3869 143.32 71.8759 146.527 76.9196 148.081C81.9634 149.634 86.652 148.946 87.3918 146.545Z" fill="#FAC0D8"/>
<path d="M173.116 148.058C178.16 146.505 181.649 143.298 180.909 140.896C180.17 138.494 175.481 137.807 170.437 139.36C165.393 140.914 161.904 144.12 162.644 146.522C163.384 148.924 168.073 149.612 173.116 148.058Z" fill="#FAC0D8"/>
<path d="M76.2801 74.0844C74.972 73.5775 73.0025 72.7996 70.6223 71.8032C61.3955 67.9342 59.9534 66.6494 55.4201 65.3413C52.1979 64.4119 48.2619 63.2757 43.5043 64.1497C37.2667 65.2947 33.1617 69.2365 31.3467 71.2467C27.4631 75.5498 24.8003 79.0925 22.2452 83.5209C20.4826 86.5712 18.685 89.6915 17.1584 94.1577C15.0957 100.2 12.2115 108.646 15.8911 115.548C17.3303 118.249 19.731 120.629 22.0122 122.893C24.5293 125.389 26.0589 126.368 28.3255 129.017C30.3124 131.336 31.6293 133.492 32.4305 134.951C33.1851 137.063 33.928 139.304 34.6272 141.675C35.2652 143.831 35.8188 145.917 36.3024 147.919C36.5617 148.927 36.9958 150.366 37.727 152.009C38.9623 154.78 41.06 159.488 45.8147 161.958C49.8876 164.071 54.0304 163.567 56.0086 163.165C56.0086 163.165 60.2243 161.801 63.1989 158.949C62.4036 158.022 61.2848 156.557 60.2826 154.582C56.2912 146.713 58.0917 138.348 58.721 135.901C59.595 132.51 60.3642 132.157 61.1333 128.233C61.8879 124.37 61.7568 121.57 61.7364 119.478C61.6315 108.637 64.3497 99.463 65.4597 95.7222C66.9893 90.5655 68.6266 86.9849 69.0228 86.1313C71.4351 80.928 74.1387 76.9017 76.2801 74.0815H76.2859L76.2801 74.0844Z" fill="#C0B4DF"/>
<path d="M22.0099 122.887C23.4754 124.845 25.3487 125.538 28.3233 129.011C30.3102 131.33 31.6271 133.486 32.4283 134.945C33.1828 137.058 33.9258 139.298 34.625 141.669C35.263 143.825 35.8166 145.911 36.3002 147.913C36.5595 148.921 36.9936 150.36 37.7248 152.003C38.9601 154.774 41.0578 159.482 45.8124 161.953C49.8854 164.065 54.0282 163.561 56.0064 163.159C56.0064 163.159 60.2221 161.795 63.1967 158.943C62.4013 158.017 61.2826 156.551 60.2804 154.576C56.289 146.707 58.0895 138.342 58.7188 135.895C59.5928 132.504 60.362 132.151 61.1311 128.227C61.3263 127.222 61.4632 126.295 61.5565 125.427C61.8769 122.476 61.7458 119.743 61.7342 119.472C61.5565 115.329 62.2324 110.959 62.8063 107.221C63.255 104.305 64.0329 100.355 65.4575 95.7193C65.4575 95.7193 57.6059 85.132 46.1737 82.6935C44.6063 82.3584 43.709 82.1691 42.3892 82.2128C31.3328 82.574 23.5599 98.3967 21.2437 108.99C20.2735 113.427 19.0645 118.957 22.0129 122.887H22.0158H22.0099Z" fill="#ACECC7"/>
<path d="M22.5374 106.682C23.1725 107.081 25.4537 102.295 31.0707 99.2648C35.2981 96.9807 39.3098 96.8263 40.9675 96.7622C52.8222 96.3077 61.4575 105.712 62.8093 107.227C63.1531 105.191 63.5814 103.052 64.1087 100.818C64.5311 99.0347 64.9856 97.3361 65.4576 95.725C62.2412 93.2661 59.4764 91.2384 57.3467 89.7089C53.6059 87.0227 52.1958 86.1137 50.1797 85.2747C47.9247 84.3336 45.8067 83.448 43.0331 83.6286C40.0149 83.8267 37.8968 85.1756 36.0555 86.3788C34.7882 87.2062 31.7525 89.3651 27.8835 95.2152C24.4602 100.392 21.8381 106.248 22.5374 106.691V106.685V106.682Z" fill="#8EC2A7"/>
<path d="M61.513 158.285C58.62 160.26 55.4414 162.489 51.7676 162.302C49.0145 162.162 46.5119 160.677 44.49 158.894C40.2684 155.173 37.6202 150.532 36.2421 145.093C34.867 139.653 34.3688 133.972 30.7474 129.544C29.2441 127.708 27.2339 126.386 25.48 124.807C22.8346 122.426 20.4136 119.752 18.348 116.85C12.5037 108.637 17.5905 97.3217 21.4012 89.2486C25.4363 80.7036 30.4852 70.4951 39.8984 66.8999C45.1222 64.9043 51.2665 65.248 56.4436 67.2204C62.8269 69.6531 68.98 72.7005 75.3575 75.1769C76.9831 75.8091 77.6882 73.19 76.0771 72.5636C69.8773 70.1542 63.8787 67.2845 57.711 64.8227C52.8281 62.8707 47.3655 62.3929 42.2088 63.4184C31.0796 65.6384 24.5244 76.5025 19.9882 85.9419C17.9751 90.1314 16.0348 94.3733 14.6888 98.8279C13.0893 104.119 11.9764 110.374 14.412 115.589C15.589 118.109 17.5585 120.381 19.3735 122.456C21.5323 124.923 23.9301 127.088 26.4706 129.145C31.2981 133.052 32.0264 138.878 33.3404 144.58C34.8495 151.115 37.8707 156.924 43.0915 161.248C45.5737 163.302 48.4959 164.854 51.7705 165.009C55.9425 165.204 59.5814 162.879 62.8852 160.621C64.3157 159.642 62.9638 157.294 61.5188 158.282H61.513V158.285Z" fill="#5E5573"/>
<path d="M23.1828 122.837C20.9512 113.328 23.4246 104.625 28.4066 96.465C30.6149 92.8523 33.202 89.1902 36.7622 86.7983C41.1789 83.8295 46.0093 84.1588 50.6737 86.4458C55.338 88.7328 59.7577 92.6368 63.5626 96.4358C64.7979 97.6711 66.7149 95.7541 65.4767 94.5217C58.5981 87.6519 47.9875 78.3727 37.5663 83.2235C33.1991 85.2571 29.939 89.1815 27.3286 93.1116C24.4589 97.4322 21.9796 102.076 20.6569 107.116C19.2468 112.483 19.308 118.176 20.5695 123.563C20.9657 125.261 23.579 124.541 23.1828 122.843V122.837Z" fill="#5E5573"/>
<path d="M75.7106 75.2177C75.8009 74.8594 73.543 74.2039 67.6784 71.8265C61.4408 69.2977 60.2026 68.5024 55.8587 67.0923C51.608 65.7142 49.7406 65.4841 48.1673 65.4433C44.7412 65.353 42.1715 66.1338 41.6529 66.2969C36.9187 67.7886 34.0111 70.8535 31.0161 74.0087C28.6854 76.4647 27.1588 78.6206 26.4945 79.5937C18.7653 90.8918 16.2568 104.451 16.2539 104.46C16.2539 104.46 18.2438 97.2547 20.7755 91.693C24.9941 82.4255 30.9637 77.1552 32.4757 75.8703C36.1058 72.7851 39.0775 71.3662 40.7207 70.6845C42.5328 69.9299 45.0441 68.9102 48.4324 68.8228C49.0559 68.8083 50.9904 68.7879 54.8099 69.7726C60.459 71.2264 61.3738 72.5899 66.2508 74.0116C70.9268 75.3722 75.5883 75.7188 75.7135 75.2177V75.2119H75.7164L75.7106 75.2177Z" fill="#DACFF3"/>
<path d="M173.199 73.2773C174.507 72.7703 176.477 71.9925 178.857 70.9961C188.084 67.1271 189.526 65.8423 194.059 64.5341C197.281 63.6048 201.217 62.4685 205.975 63.3426C212.213 64.4875 216.318 68.4294 218.133 70.4396C222.016 74.7427 224.679 78.2854 227.234 82.7138C228.997 85.7641 230.794 88.8844 232.321 93.3506C234.384 99.393 237.268 107.839 233.588 114.741C232.149 117.442 229.748 119.822 227.467 122.085C224.95 124.582 223.42 125.561 221.154 128.209C219.167 130.529 217.85 132.684 217.049 134.144C216.294 136.256 215.551 138.497 214.852 140.868C214.214 143.024 213.661 145.11 213.177 147.112C212.918 148.12 212.484 149.559 211.752 151.202C210.517 153.973 208.419 158.681 203.665 161.151C199.592 163.264 195.449 162.759 193.471 162.357C193.471 162.357 189.255 160.994 186.28 158.142C187.076 157.215 188.194 155.75 189.197 153.775C193.188 145.905 191.388 137.541 190.758 135.094C189.884 131.703 189.115 131.35 188.346 127.426C187.591 123.563 187.722 120.763 187.743 118.671C187.848 107.83 185.13 98.6559 184.02 94.9151C182.49 89.7584 180.853 86.1778 180.456 85.3242C178.044 80.1208 175.341 76.0945 173.199 73.2744H173.193L173.199 73.2773Z" fill="#C0B4DF"/>
<path d="M227.467 122.083C226.002 124.041 224.128 124.734 221.154 128.207C219.167 130.526 217.85 132.682 217.049 134.142C216.294 136.254 215.551 138.494 214.852 140.866C214.214 143.022 213.66 145.108 213.177 147.109C212.918 148.117 212.483 149.556 211.752 151.2C210.517 153.97 208.419 158.678 203.665 161.149C199.592 163.261 195.449 162.757 193.471 162.355C193.471 162.355 189.255 160.992 186.28 158.139C187.076 157.213 188.194 155.747 189.197 153.772C193.188 145.903 191.388 137.539 190.758 135.091C189.884 131.7 189.115 131.348 188.346 127.423C188.151 126.418 188.014 125.492 187.921 124.624C187.6 121.672 187.731 118.939 187.743 118.669C187.921 114.526 187.245 110.156 186.671 106.418C186.222 103.501 185.444 99.5508 184.02 94.9156C184.02 94.9156 191.871 84.3283 203.303 81.8898C204.871 81.5547 205.768 81.3654 207.088 81.4091C218.144 81.7703 225.917 97.593 228.233 108.186C229.203 112.623 230.413 118.153 227.464 122.083H227.461H227.467Z" fill="#ACECC7"/>
<path d="M226.936 105.876C226.301 106.275 224.02 101.488 218.403 98.4582C214.175 96.1741 210.163 96.0197 208.506 95.9556C196.651 95.5011 188.016 104.906 186.664 106.42C186.32 104.384 185.892 102.246 185.365 100.011C184.942 98.228 184.488 96.5295 184.016 94.9184C187.232 92.4595 189.997 90.4317 192.127 88.9022C195.867 86.2161 197.277 85.3071 199.294 84.468C201.548 83.527 203.667 82.6413 206.44 82.8219C209.458 83.0201 211.576 84.369 213.418 85.5722C214.685 86.3996 217.721 88.5584 221.59 94.4085C225.013 99.5857 227.635 105.442 226.936 105.884V105.879V105.876Z" fill="#8EC2A7"/>
<path d="M186.592 159.817C189.68 161.926 192.984 164.05 196.841 164.208C199.769 164.324 202.621 163.203 204.978 161.527C209.529 158.293 213.022 153.568 214.863 148.315C216.801 142.788 216.754 136.277 220.145 131.33C221.736 129.008 224.207 127.478 226.255 125.599C228.938 123.14 231.356 120.373 233.465 117.407C239.823 108.474 234.794 96.4012 230.648 87.5677C226.366 78.4488 221.101 68.1179 211.338 63.8993C205.721 61.4695 198.846 61.4928 193.103 63.503C190.158 64.5315 187.338 65.9328 184.48 67.1827C180.817 68.785 177.12 70.3029 173.397 71.7509C171.789 72.3744 172.488 74.9964 174.117 74.3642C180.037 72.0626 185.799 69.4376 191.646 66.9671C196.203 65.0413 201.159 64.2751 206.071 65.1316C216.547 66.9554 222.625 77.1756 226.887 85.9625C228.757 89.8169 230.561 93.7092 231.875 97.7909C233.433 102.63 234.922 108.716 232.65 113.573C231.551 115.915 229.696 118.022 228 119.939C225.946 122.261 223.685 124.341 221.27 126.272C216.83 129.832 215.283 134.841 214.138 140.21C213.445 143.441 212.777 146.73 211.379 149.746C210.097 152.513 208.253 154.879 206.103 157.02C204.128 158.987 201.773 160.744 198.991 161.323C194.854 162.183 191.195 159.692 187.949 157.472C186.507 156.484 185.15 158.832 186.583 159.811H186.586L186.592 159.817Z" fill="#5E5573"/>
<path d="M228.904 122.753C230.054 117.847 230.215 112.693 229.163 107.755C228.088 102.709 225.778 98.0909 223.068 93.7412C220.592 89.7673 217.617 85.8517 213.597 83.3345C208.74 80.2988 203.368 80.6134 198.272 82.9034C192.856 85.339 188.163 89.5517 183.996 93.7092C182.761 94.9445 184.678 96.8586 185.911 95.6233C191.918 89.6246 202.019 80.223 211.225 85.0942C215.106 87.1482 217.946 90.7637 220.277 94.3938C222.835 98.3794 225.058 102.572 226.244 107.184C227.491 112.029 227.427 117.168 226.29 122.027C225.894 123.723 228.505 124.448 228.904 122.747V122.753Z" fill="#5E5573"/>
<path d="M173.762 74.4135C173.671 74.0552 175.929 73.3997 181.794 71.0223C188.032 68.4935 189.27 67.6982 193.614 66.2881C197.864 64.91 199.732 64.6799 201.305 64.6391C204.731 64.5488 207.301 65.3296 207.819 65.4927C212.554 66.9844 215.461 70.0493 218.456 73.2045C220.787 75.6605 222.314 77.8164 222.978 78.7895C230.707 90.0877 233.215 103.647 233.218 103.655C233.218 103.655 231.229 96.4505 228.697 90.8888C224.478 81.6213 218.509 76.351 216.997 75.0661C213.366 71.9809 210.395 70.562 208.752 69.8803C206.94 69.1257 204.428 68.106 201.04 68.0186C200.416 68.0041 198.482 67.9837 194.662 68.9684C189.013 70.4222 188.099 71.7857 183.222 73.2074C178.545 74.568 173.884 74.9147 173.759 74.4135V74.4077H173.756L173.762 74.4135Z" fill="#DACFF3"/>
<path d="M82.8692 70.2798C88.8154 66.3438 91.7871 64.3743 94.8316 62.8914C106.101 57.3938 116.295 58.5941 117.341 54.0143C117.536 53.1635 117.588 51.3514 117.847 51.3485C118.15 51.3427 118.037 53.8307 119.479 54.6377C120.027 54.9436 120.595 54.897 120.72 54.8825C121.684 54.7776 122.267 54.0113 122.413 53.8074C123.106 52.8285 122.596 52.1031 122.955 50.6231C123.342 49.0178 124.461 47.7184 124.796 47.8437C125.408 48.0709 123.246 52.8751 125.046 54.4192C125.65 54.9349 126.559 54.9728 127.156 54.8271C128.245 54.5591 128.476 53.6413 130.037 52.0069C130.815 51.1941 132.135 49.8131 132.648 50.0841C133.344 50.4541 131.532 53.3413 132.557 55.4564C133.423 57.2336 135.975 57.7959 138.116 57.9823C140.502 58.3028 144.155 58.9583 148.412 60.4471C149.732 60.9074 153.508 62.2883 162.996 67.952C165.875 69.668 169.823 72.1036 174.446 75.2209C172.788 73.1349 170.458 70.5216 167.352 67.8617C165.219 66.0379 161.318 62.9846 155.795 60.2985C155.795 60.2985 149.994 57.4812 143.305 56.0099C141.268 55.5613 140.252 55.3399 139.471 55.3165C138.649 55.2962 137.985 55.3632 137.085 55.0456C136.359 54.7892 135.541 54.3056 135.141 53.7812C134.151 52.4643 134.862 49.6092 137.225 47.0862C137.225 47.0862 131.229 46.4685 127.048 52.9975C127.47 45.1866 126.617 43.2871 125.731 43.0482C124.51 42.7219 122.203 45.2857 121.39 47.7534C120.968 49.0323 120.572 51.4359 120.572 51.4359C120.572 51.4359 120.003 49.9122 119.179 48.7381C118.966 48.4351 118.433 47.6718 117.635 47.1037C116.032 45.9587 114.115 46.1102 113.305 46.2238C113.757 46.588 114.931 47.6339 115.339 49.3965C115.458 49.9122 115.861 51.6486 114.896 52.9917C114.319 53.8016 113.512 54.0667 111.925 54.5649C109.949 55.1884 109.017 55.1068 106.002 55.6953C106.002 55.6953 105.128 55.8643 103.662 56.2051C99.0589 57.2714 94.7471 59.5177 92.6757 60.6131C88.5299 62.8011 85.7243 64.8754 84.9726 65.4406C83.3994 66.6205 81.6659 67.9316 79.7023 70.0292C77.8756 71.9812 76.5762 73.8283 75.7109 75.2238C77.4357 73.9827 79.8829 72.2609 82.8692 70.2856H82.8663L82.8692 70.2798Z" fill="#DACFF3"/>
<path d="M76.2715 74.0846C77.9088 71.8704 80.1084 69.362 83.0131 66.9584C85.5944 64.82 87.7882 63.5497 90.2092 62.1484C93.9267 59.9925 96.8721 58.7543 99.1213 57.8191C101.085 57.0004 102.344 56.5663 103.669 56.208C104.989 55.8496 105.385 55.8321 107.87 55.3427C113.84 54.1686 114.559 53.6733 115.005 52.9828C115.873 51.6397 115.468 49.9179 115.346 49.3964C114.915 47.5668 113.7 46.5267 113.312 46.2237C113.863 46.1392 115.78 45.9207 117.642 47.1036C120.366 48.8341 120.541 52.0447 120.549 52.3477C120.546 51.2027 120.692 48.7555 122.155 46.1509C123.454 43.8377 125.176 42.5004 126.114 41.874C126.536 43.0627 126.965 44.6476 127.142 46.5471C127.358 48.8778 127.119 50.8473 126.836 52.2428C127.445 51.2435 128.914 49.1342 131.661 47.6571C133.983 46.4073 136.136 46.1888 137.281 46.1509C134.309 50.7133 134.411 52.7964 135.105 53.8539C136.028 55.264 138.1 54.9902 142.272 55.7331C145.581 56.3245 147.819 57.1257 151.271 58.3668C152.37 58.7601 157.835 60.7733 164.026 65.1521C166.639 67.005 169.899 69.6446 173.212 73.2747" stroke="#5E5573" stroke-width="1.74804" stroke-linecap="round" stroke-linejoin="round"/>
<path d="M73.2915 78.5126C73.6877 77.6328 74.1742 76.6859 74.62 75.8265C74.9055 75.3108 75.2988 74.5883 75.5348 74.0551C76.0271 73.1258 76.7468 72.4644 77.7664 71.9866C77.8131 71.9691 77.8626 71.9866 77.883 72.0332C77.8422 73.1607 77.4518 74.0959 76.7671 74.8971C76.1204 75.5555 75.4124 76.4529 74.786 77.1346C74.3374 77.6241 73.8916 78.1193 73.4196 78.5942C73.3614 78.6554 73.2594 78.5855 73.2973 78.5097H73.2944L73.2915 78.5126Z" fill="#5E5573"/>
<path d="M175.937 77.6681C175.258 76.9805 174.55 76.1881 173.906 75.4597C173.528 75.0081 172.997 74.3818 172.586 73.9651C171.893 73.1698 171.541 72.2608 171.459 71.1421C171.459 71.0925 171.494 71.0517 171.543 71.0488C172.581 71.4946 173.315 72.1938 173.81 73.1232C174.192 73.9622 174.774 74.947 175.182 75.7802C175.479 76.3774 175.78 76.9689 176.053 77.5807C176.088 77.6535 175.984 77.7293 175.931 77.6652H175.934L175.937 77.6681Z" fill="#5E5573"/>
<path d="M167.919 165.227C169.553 164.077 171.08 163.523 171.246 163.459C172.758 162.903 177.303 160.432 190.331 152.274C189.574 153.69 188.834 154.888 188.199 155.849C187.313 157.189 186.244 158.652 184.962 160.167C184.356 160.881 183.791 161.507 183.278 162.046C176.732 168.965 169.594 172.118 164.015 174.515C160.824 175.888 157.57 176.925 156.74 177.187C156.717 177.196 156.603 177.26 156.583 177.236C156.489 177.12 159.007 175.331 161.573 172.619C163.298 170.798 164.283 169.755 165.043 168.406C165.189 168.147 165.533 167.512 166.165 166.783C166.707 166.157 167.281 165.676 167.913 165.23L167.919 165.227Z" fill="#A394C5"/>
<path d="M59.3438 148.679C63.1224 152.117 68.8589 156.7 76.6406 160.744C82.2402 163.654 86.8288 165.21 89.7131 166.171C91.5339 166.707 93.3898 167.208 95.2806 167.672C121.411 174.081 146.454 171.328 167.918 165.224C166.467 169.018 163.638 174.279 158.195 176.939C156.785 177.63 155.32 177.991 152.395 178.711C146.32 180.208 141.423 180.45 137.81 180.61C135.704 180.703 132.826 180.762 129.388 180.61C126.233 180.782 123.66 180.756 121.941 180.7C111.234 180.365 102.943 178.105 97.9463 176.712C97.3753 176.552 94.9717 175.876 91.8253 174.827C88.2651 173.641 82.8811 171.669 76.3668 168.505C72.8066 166.777 71.2916 165.83 69.9048 164.814C67.7955 163.264 63.7168 160.19 61.1763 154.687C60.0692 152.286 59.5797 150.136 59.3438 148.673V148.679Z" fill="#A394C5"/>
<path d="M68.5282 88.0512C65.4749 96.0426 63.3743 104.471 62.9082 113.031C62.7363 116.713 63.4647 120.407 62.9373 124.087C62.6518 126.546 62.2148 128.999 61.4311 131.356C61.0378 132.533 60.6124 133.669 60.3182 134.837C60.0152 136.006 59.8083 137.2 59.6568 138.406C59.1761 142.031 58.7857 145.667 59.3101 149.282C60.222 155.925 63.992 159.817 69.1516 163.695C83.4186 174.122 107.113 179.075 124.614 179.902C129.482 180.115 134.368 180.322 139.222 179.966C148.889 179.249 158.34 176.403 166.972 172.033C171.223 169.81 175.631 167.622 179.316 164.54C182.02 162.197 184.624 159.645 186.728 156.761C188.773 153.917 190.209 150.622 190.466 147.106C190.786 142.657 189.965 138.098 188.779 133.794L188.662 133.355L188.601 133.136L188.572 133.028C188.572 133.008 188.52 132.891 188.598 133.063L188.537 132.903C187.433 129.159 186.407 125.13 186.722 121.168C187.424 112.862 186.3 104.483 184.458 96.3747L184.388 96.0921C184.368 95.9931 184.339 95.9348 184.307 95.7309L184.324 95.827C183.68 93.91 182.396 89.9827 181.766 88.0541C181.749 87.9987 181.778 87.9404 181.833 87.923C181.889 87.9055 181.944 87.9317 181.964 87.9871C182.704 89.8983 184.152 93.7206 184.875 95.6347L184.892 95.7309C184.91 95.7134 184.933 95.8474 184.965 95.9348L185.047 96.2174C186.474 101.313 187.474 106.537 187.966 111.804C188.167 114.161 188.31 116.512 188.252 118.89C188.219 120.439 188.059 121.96 188.19 123.493C188.319 124.993 188.566 126.52 188.916 127.982C189.292 129.474 189.965 131.659 190.265 132.658C190.757 134.363 191.241 136.099 191.628 137.83C192.517 142.159 192.951 146.733 191.8 151.062C190.46 156.03 187.109 160.137 183.479 163.642C182.608 164.505 181.65 165.411 180.715 166.192C176.869 169.455 172.388 171.669 167.942 173.941C159.05 178.384 149.288 181.172 139.353 181.799C134.406 182.105 129.462 181.837 124.532 181.568C106.767 180.566 82.8621 175.334 68.4641 164.601C63.1209 160.51 59.2373 156.382 58.3633 149.402C57.8651 145.699 58.3108 141.929 58.8411 138.278C59.013 137.052 59.2373 135.828 59.5665 134.622C59.8899 133.416 60.3415 132.25 60.7377 131.105C61.5331 128.807 61.9905 126.406 62.2964 123.997C62.8587 120.343 62.1798 116.67 62.3954 112.996C62.9665 104.404 65.1777 95.9523 68.3417 87.9638C68.3621 87.9084 68.4262 87.8822 68.4815 87.9055C68.5369 87.9259 68.5602 87.9871 68.5427 88.0424L68.5194 88.0541L68.5282 88.0512Z" fill="#5E5573"/>
<path d="M181.717 87.9725C185.012 96.1242 187.007 104.78 187.832 113.529C188.117 116.436 187.922 119.396 188.047 122.298C188.342 126.633 189.277 130.936 190.786 135.012C191.305 136.393 191.832 137.809 192.059 139.283C192.289 140.778 192.278 142.273 192.187 143.758C191.8 149.74 189.07 155.281 185.597 160.059C182.955 163.642 179.575 166.681 175.814 169.055C172.082 171.462 168.088 173.312 164.099 175.203C157.387 178.291 150.188 180.243 142.881 181.26C137.045 182.107 131.079 181.965 125.226 181.63C119.355 181.344 113.488 180.744 107.687 179.756C97.5134 178.104 87.5379 175.048 78.1626 170.734C74.11 168.892 70.0983 166.736 66.6867 163.838C64.6531 162.244 62.6138 160.272 61.2561 157.993C57.6581 152.108 56.988 144.819 58.3485 138.165C58.9458 135.665 59.6071 133.151 60.3675 130.703C61.2182 127.968 61.8446 125.165 61.9087 122.324C61.3989 113.514 62.6254 104.661 65.0057 96.1796C65.8156 93.3798 66.5556 90.4606 68.0939 87.9492C68.123 87.8997 68.19 87.8851 68.2395 87.9172C68.2891 87.9492 68.3007 88.0104 68.2716 88.0599C67.9132 88.6863 67.6277 89.3535 67.3713 90.0352C65.7136 94.8423 64.7347 99.8942 63.9831 104.92C63.3625 109.229 63.0071 113.584 63.1236 117.931C63.1615 119.405 63.3363 120.824 63.3771 122.322C63.4004 123.854 63.2256 125.343 63.0071 126.82C62.369 130.47 61.1046 133.894 60.3763 137.506C58.8322 144.277 59.5722 151.974 63.6276 157.737C64.8338 159.502 66.34 160.811 68.0473 162.174C70.2498 164.027 72.6446 165.516 75.1938 166.847C88.0652 173.536 102.227 177.545 116.634 179.185C125.275 180.056 134.039 180.843 142.689 179.742C149.858 178.812 156.944 176.96 163.549 173.991C167.496 172.167 171.502 170.349 175.17 168.03C178.838 165.757 182.127 162.853 184.723 159.403C188.129 154.794 190.859 149.474 191.299 143.683C191.404 142.252 191.427 140.807 191.229 139.403C191.019 137.978 190.535 136.629 190.046 135.272C188.557 131.114 187.66 126.73 187.418 122.319C187.325 119.379 187.558 116.483 187.307 113.558C187.08 110.656 186.69 107.76 186.194 104.888C185.204 99.1367 183.642 93.4847 181.524 88.0395C181.504 87.9842 181.53 87.9259 181.585 87.9026C181.641 87.8793 181.699 87.9084 181.722 87.9638L181.714 87.9696L181.717 87.9725Z" fill="#5E5573"/>
<path d="M85.5371 93.348C86.5014 93.4704 87.9581 93.552 89.68 93.2286C90.621 93.0509 92.9313 92.5905 95.0756 90.892C96.7566 89.5577 98.3124 87.4746 98.3124 87.4746C98.8047 88.6545 98.8368 88.7594 98.8368 88.7594C99.1252 89.6859 98.7377 90.6065 98.4901 91.1921C97.6773 93.1208 94.1346 96.579 89.8577 95.8069C87.6843 95.4136 86.2276 94.0909 85.5371 93.348Z" fill="#5E5573"/>
<path d="M94.9138 133.39C93.4804 133.527 91.441 133.71 88.9879 133.882C83.4146 134.27 80.6003 134.453 79.3009 133.827C74.3685 131.446 74.249 122.983 74.2461 122.368C74.2316 115.673 78.4269 111.134 79.5951 109.951C80.0438 109.605 85.8269 105.267 92.8191 107.265C98.9576 109.022 101.163 114.272 101.449 114.994C101.67 115.551 104.863 122.639 100.761 128.699C98.8411 131.534 96.2044 132.854 94.9109 133.396L94.9138 133.39Z" fill="#FDFEFD"/>
<path d="M78.4425 132.14C77.752 130.954 76.7178 128.807 76.4876 125.955C76.4876 125.955 76.1904 122.129 77.8394 118.52C78.0201 118.126 78.1803 117.815 78.2939 117.602C78.3901 117.424 78.5299 117.159 78.7251 116.836C80.5139 113.841 83.3312 111.732 85.5599 110.718C92.1442 107.72 99.3433 111.758 99.6812 111.956C99.387 111.568 98.9995 111.102 98.51 110.613C98.2332 110.336 97.6156 109.742 96.7183 109.118C96.0482 108.649 95.0955 108.075 93.8631 107.589C92.8901 107.239 91.413 106.822 89.5746 106.75C89.3008 106.738 88.6074 106.718 87.7275 106.796C84.0508 107.12 81.3268 108.777 80.4586 109.34C79.7594 109.794 78.5532 110.592 77.3238 112.005C75.3601 114.26 74.6696 116.565 74.2443 118.004C73.3907 120.9 73.4868 123.274 73.5422 124.096C73.6266 125.363 73.8597 128.379 75.6719 131.289C75.6719 131.289 75.8467 131.572 78.1162 134.712C78.2764 134.634 78.4483 134.552 78.629 134.476C78.7164 134.439 78.8038 134.404 78.8883 134.372C78.8883 134.372 79.3427 134.2 79.9225 134.039C79.7652 133.885 79.6049 133.716 79.4418 133.535C79.0194 133.052 78.6901 132.574 78.4367 132.14H78.4425Z" fill="#5E5573"/>
<path d="M84.2802 111.341C83.0449 112.833 81.4716 115.204 80.7841 118.4C79.3827 124.932 82.1009 133.04 86.2554 134.016C87.0654 134.205 87.348 133.99 88.9824 133.882C92.6037 133.646 95.5987 134.424 97.6352 135.164C97.6352 135.164 99.9076 132.501 100.802 131.231C102.57 128.722 103.815 122.129 102.655 117.984C101.962 115.499 100.552 113.223 100.552 113.223C100.479 113.107 100.42 113.013 100.383 112.955C100.266 112.766 100.135 112.571 99.9921 112.372C99.8785 112.215 99.7678 112.067 99.6571 111.924C98.9171 111.49 97.8974 110.962 96.6242 110.52C94.413 109.747 92.5892 109.625 91.9453 109.596C90.7916 109.544 88.6794 109.468 86.2321 110.397C85.396 110.715 84.7346 111.07 84.2802 111.338V111.341Z" fill="#5E5573"/>
<path d="M94.4355 119.131C96.243 118.42 97.0645 116.207 96.2703 114.187C95.4762 112.167 93.3673 111.105 91.5598 111.816C89.7523 112.526 88.9309 114.74 89.725 116.76C90.5191 118.78 92.6281 119.841 94.4355 119.131Z" fill="#F9FCFE"/>
<path d="M90.7829 128.181C91.8087 127.777 92.3329 126.669 91.9538 125.704C91.5747 124.74 90.4358 124.285 89.4101 124.688C88.3843 125.092 87.8601 126.2 88.2392 127.165C88.6183 128.129 89.7571 128.584 90.7829 128.181Z" fill="#F9FCFE"/>
<path d="M76.4638 135.656C78.9606 135.263 81.7633 134.977 84.8195 134.905C90.5181 134.768 95.4825 135.417 99.4681 136.254C99.0602 135.974 98.4338 135.572 97.6326 135.167C96.7033 134.698 94.3026 133.605 87.3949 133.468C81.4429 133.352 79.4413 134.092 78.2935 134.625C77.4952 134.998 76.8717 135.382 76.4609 135.653L76.4638 135.656Z" fill="#5E5573"/>
<path d="M95.9414 134.173C97.6166 133.812 98.7441 132.58 98.747 131.365C98.7499 129.643 96.4891 128.78 96.1628 128.658C93.6893 127.717 90.1845 128.83 89.529 131.012C89.4037 131.432 89.3017 132.154 89.7067 133.165C90.7147 133.215 91.8393 133.322 93.0542 133.526C94.1089 133.704 95.0761 133.928 95.9414 134.17V134.173Z" fill="#95D9F2"/>
<path d="M148.268 128.696C144.169 122.636 147.359 115.548 147.58 114.992C147.869 114.269 150.071 109.019 156.21 107.262C163.199 105.264 168.985 109.602 169.434 109.948C170.602 111.134 174.797 115.673 174.783 122.365C174.783 122.98 174.663 131.444 169.728 133.824C168.429 134.45 165.617 134.27 160.041 133.879C157.588 133.707 155.549 133.527 154.115 133.387C152.822 132.845 150.185 131.528 148.265 128.69L148.268 128.696Z" fill="#FDFEFD"/>
<path d="M169.583 133.538C169.423 133.722 169.263 133.891 169.102 134.042C169.682 134.203 170.137 134.375 170.137 134.375C170.221 134.407 170.309 134.442 170.396 134.479C170.577 134.555 170.749 134.634 170.909 134.715C173.178 131.575 173.353 131.292 173.353 131.292C175.165 128.382 175.398 125.366 175.483 124.099C175.538 123.28 175.634 120.906 174.781 118.007C174.355 116.568 173.665 114.263 171.701 112.008C170.472 110.598 169.266 109.797 168.566 109.343C167.698 108.777 164.974 107.123 161.297 106.799C160.418 106.72 159.721 106.741 159.45 106.753C157.612 106.825 156.135 107.242 155.162 107.592C153.929 108.078 152.977 108.652 152.307 109.121C151.412 109.748 150.792 110.342 150.515 110.616C150.025 111.105 149.638 111.568 149.344 111.959C149.685 111.761 156.881 107.723 163.465 110.721C165.697 111.737 168.511 113.847 170.3 116.839C170.492 117.162 170.635 117.424 170.731 117.605C170.845 117.818 171.005 118.126 171.186 118.523C172.835 122.132 172.537 125.958 172.537 125.958C172.307 128.813 171.276 130.957 170.582 132.143C170.329 132.577 170 133.055 169.577 133.538H169.583Z" fill="#5E5573"/>
<path d="M162.797 110.403C160.35 109.47 158.238 109.546 157.084 109.602C156.437 109.631 154.616 109.756 152.405 110.525C151.132 110.968 150.112 111.495 149.372 111.929C149.262 112.069 149.148 112.218 149.037 112.378C148.894 112.579 148.763 112.774 148.647 112.961C148.609 113.019 148.551 113.112 148.478 113.229C148.478 113.229 147.068 115.504 146.374 117.989C145.215 122.138 146.459 128.728 148.227 131.236C149.122 132.504 151.394 135.17 151.394 135.17C153.431 134.43 156.423 133.652 160.047 133.888C161.681 133.995 161.967 134.211 162.774 134.022C166.928 133.046 169.647 124.941 168.245 118.406C167.561 115.21 165.984 112.838 164.749 111.347C164.295 111.076 163.633 110.723 162.797 110.406V110.403Z" fill="#5E5573"/>
<path d="M159.304 116.754C160.098 114.734 159.276 112.52 157.469 111.809C155.661 111.099 153.552 112.161 152.758 114.181C151.964 116.201 152.786 118.414 154.593 119.125C156.4 119.835 158.509 118.774 159.304 116.754Z" fill="#F9FCFE"/>
<path d="M160.78 127.155C161.159 126.191 160.635 125.082 159.609 124.679C158.583 124.276 157.444 124.731 157.065 125.695C156.686 126.66 157.21 127.768 158.236 128.172C159.262 128.575 160.401 128.12 160.78 127.155Z" fill="#F9FCFE"/>
<path d="M172.563 135.656C170.066 135.263 167.263 134.977 164.207 134.905C158.509 134.768 153.544 135.417 149.559 136.254C149.966 135.974 150.593 135.572 151.394 135.167C152.323 134.698 154.724 133.605 161.632 133.468C167.584 133.352 169.585 134.092 170.733 134.625C171.531 134.998 172.155 135.382 172.566 135.653L172.563 135.656Z" fill="#5E5573"/>
<path d="M153.085 134.176C151.41 133.815 150.282 132.582 150.279 131.368C150.276 129.646 152.537 128.783 152.863 128.661C155.337 127.72 158.842 128.833 159.497 131.015C159.623 131.435 159.725 132.157 159.32 133.168C158.312 133.218 157.187 133.325 155.972 133.529C154.917 133.707 153.95 133.931 153.085 134.173V134.176Z" fill="#95D9F2"/>
<path d="M103.29 164.222C99.5548 165.889 96.0412 165.752 94.6224 164.001C92.819 161.775 94.9254 157.588 95.3828 156.674C100.644 146.211 118.728 145.236 122.518 145.032C137.379 144.23 148.101 149.728 152.168 154.159C153.351 155.447 156.019 158.355 155.521 161.787C155.466 162.174 155.218 163.873 154.067 164.907C151.422 167.284 146.359 164.036 139.11 162.028C127.311 158.76 116.884 160.752 112.819 161.53C108.653 162.326 105.358 163.441 103.296 164.225L103.29 164.222Z" fill="#8F1916" stroke="#5E5573" stroke-width="1.74804" stroke-miterlimit="10"/>
<path d="M96.2646 165.09C97.6106 163.494 99.9821 160.968 103.481 158.681C115.782 150.643 132.417 151.802 144.243 158.083C148.313 160.245 151.421 162.806 153.685 165.035C152.616 165.696 151.73 165.851 151.139 165.874C149.694 165.932 148.889 165.466 145.303 164.036C143.462 163.301 142.267 163.4 137.868 163.473C137.868 163.473 132.909 163.555 124.973 163.476C120.877 163.435 114.537 163.246 108.69 163.523C106.322 163.636 105.529 163.861 105.226 163.934C102.292 164.627 101.113 165.839 98.8313 165.743C97.6864 165.693 96.7832 165.338 96.2617 165.093L96.2646 165.09Z" fill="#F38373" stroke="#5E5573" stroke-width="1.74804" stroke-miterlimit="10"/>
<path d="M105.139 138.666C104.527 139.552 103.621 141.049 103.024 143.065C101.966 146.637 102.462 149.874 103.286 153.067C107.65 169.936 119.884 180.406 121.74 181.723C122.293 182.116 122.858 182.487 122.858 182.487C122.858 182.487 125.07 183.932 127.467 185.027C135.267 188.587 143.64 188.063 143.64 188.063C148.426 187.763 151.882 187.547 153.784 184.852C155.876 181.892 154.731 177.877 154.352 176.709C155.34 173.353 154.749 170.259 152.971 169.137C151.774 168.383 150.049 168.525 149.828 168.549C147.922 168.729 147.442 169.758 145.944 169.691C144.225 169.615 143.01 168.164 142.859 167.978C141.015 165.705 142.029 162.186 142.594 160.222C143.378 157.501 144.118 157.443 145.277 154.127C145.723 152.854 146.507 150.608 146.635 148.018C146.716 146.352 146.611 142.853 144.219 138.672H105.142L105.139 138.666Z" fill="#C0B4DF"/>
<path d="M103.487 147.435C103.953 152.164 105.667 162.582 113.553 172.24C121.428 181.886 130.891 185.181 132.942 185.854C134.063 186.221 149.936 191.279 153.968 185.149C155.305 183.118 154.944 180.461 154.39 178.477C154.038 177.379 153.723 177.12 153.487 177.111C152.869 177.091 152.727 178.807 151.328 180.15C150.565 180.881 149.775 181.169 148.872 181.49C146.99 182.154 145.327 182.148 142.897 181.985C139.485 181.755 137.778 181.641 135.64 181.181C135.64 181.181 130.372 180.048 125.262 177.23C119.042 173.801 109.853 163.386 103.484 147.438L103.487 147.435Z" fill="#A394C5"/>
<path d="M153.409 175.949C153.884 176.936 156.2 181.968 153.966 185.146C151.926 188.048 147.3 187.692 141.983 187.282C137.91 186.967 131.375 186.387 124.196 182.148C116.61 177.67 112.741 171.727 110.853 168.752C108.473 165.006 107.066 161.53 106.215 158.972" stroke="#5E5573" stroke-width="2.33072" stroke-miterlimit="10"/>
<path d="M147.236 174.582C145.684 172.811 146.214 169.6 148.317 168.385C150.016 167.328 152.332 167.529 153.853 168.843C155.353 170.145 155.837 172.374 155.35 174.2C155.085 175.354 154.421 176.316 153.675 177.198C152.492 178.737 151.583 180.508 150.834 182.486C150.607 180.377 151.105 178.168 152.125 176.222C152.347 175.785 152.641 175.369 152.833 174.926C153.626 173.248 153.366 170.707 151.42 169.999C149.873 169.399 148.145 170.107 147.475 171.715C147.105 172.54 147.012 173.545 147.242 174.582H147.236Z" fill="#5E5573"/>
<path d="M146.792 147.435C146.6 149.093 146.256 151.001 145.647 153.072C144.624 156.551 143.194 159.33 141.927 161.373C141.324 162.346 140.726 167.06 143.334 169.341C144.639 170.483 146.332 170.608 147.276 170.594" stroke="#5E5573" stroke-width="2.33072" stroke-miterlimit="10"/>
<path d="M105.14 138.686C103.171 143.648 103.453 148.114 105.163 153.084C106.748 157.801 108.823 162.352 111.127 166.783C112.45 169.326 113.976 172.018 115.424 174.506C115.634 174.876 115.85 175.243 116.054 175.619C114.815 174.439 113.673 173.169 112.584 171.852C108.266 166.512 104.948 160.341 103.051 153.722C101.539 148.548 101.717 143.085 105.137 138.689L105.14 138.686Z" fill="#5E5573"/>
<path d="M144.338 138.686C148.711 142.605 149.192 150.34 145.349 154.777C145.436 153.305 145.576 151.957 145.62 150.619C145.847 146.52 145.215 142.724 144.338 138.689V138.686Z" fill="#5E5573"/>
<path d="M112.821 132.953C115.918 130.336 119.933 128.859 123.977 128.702C125.337 128.673 126.724 128.708 128.073 128.88C130.241 129.148 132.332 129.943 134.214 131.033C135.153 131.581 136.044 132.204 136.839 132.95L136.752 133.101C134.255 132.326 131.782 131.546 129.253 130.942C127.531 130.503 125.766 130.098 123.98 130.045C123.534 130.036 122.896 130.051 122.444 130.051C121.996 130.083 121.363 130.147 120.912 130.179C120.181 130.299 119.353 130.409 118.639 130.622C116.617 131.077 114.703 131.974 112.92 133.098L112.818 132.959L112.821 132.953Z" fill="#5E5573"/>
<path d="M113.287 137.899C116.352 135.382 120.279 133.981 124.233 133.826C125.561 133.797 126.919 133.826 128.239 133.984C130.36 134.231 132.408 134.995 134.258 136.044C135.178 136.571 136.058 137.174 136.842 137.896L136.757 138.048C133.809 137.18 130.928 136.347 127.944 135.688C126.75 135.394 125.471 135.219 124.239 135.164C123.804 135.152 123.178 135.167 122.738 135.164C122.301 135.193 121.681 135.251 121.238 135.28C120.521 135.391 119.711 135.493 119.012 135.691C117.031 136.116 115.146 136.964 113.389 138.036L113.287 137.894V137.899Z" fill="#5E5573"/>
<path d="M114.819 143.292C116.331 141.765 118.184 140.58 120.197 139.808C120.547 139.7 121.24 139.481 121.59 139.376C121.998 139.28 122.607 139.172 123.026 139.088C123.46 139.05 124.061 138.98 124.489 138.951C124.923 138.96 125.532 138.928 125.96 138.951C126.674 138.983 127.458 139.041 128.16 139.149C131.035 139.618 133.754 141.145 135.703 143.289L135.604 143.435C132.574 142.339 129.625 141.224 126.493 140.533C125.879 140.396 125.121 140.338 124.495 140.294C124.104 140.291 123.545 140.303 123.149 140.306C122.525 140.376 121.756 140.428 121.144 140.58L120.477 140.714L119.827 140.918C118.065 141.398 116.433 142.325 114.93 143.429L114.816 143.298L114.819 143.292Z" fill="#5E5573"/>
<path d="M117.656 152.921C119.13 150.989 121.225 149.349 123.643 148.72C125.301 148.286 127.064 148.332 128.739 148.656C130.414 148.994 131.92 149.891 133.176 151.013C133.791 151.578 134.353 152.199 134.799 152.912L134.685 153.043C133.214 152.4 131.839 151.695 130.376 151.124C128.978 150.59 127.611 149.955 126.114 149.798C122.991 149.457 120.037 150.902 117.784 153.035L117.656 152.918V152.921Z" fill="#5E5573"/>
<path d="M123.065 164.656C123.922 163.054 125.277 161.667 126.937 160.889C128.076 160.345 129.358 160.094 130.608 159.998C132.487 159.913 134.384 160.706 135.678 162.075L135.602 162.232C134.97 162.212 134.39 162.145 133.819 162.087C132.854 161.988 131.494 161.86 130.553 161.728C129.766 161.609 128.927 161.606 128.143 161.775C127.756 161.836 127.339 161.973 126.966 162.09C126.611 162.235 126.171 162.404 125.845 162.608C124.843 163.109 123.986 163.89 123.205 164.755L123.062 164.656H123.065Z" fill="#5E5573"/>
<path d="M128.708 168.45C129.422 166.97 130.742 165.764 132.227 165.053C132.979 164.68 133.766 164.257 134.628 164.257C135.476 164.254 136.335 164.409 137.102 164.936L137.093 165.111C136.35 165.525 135.642 165.761 134.873 165.991C134.174 166.221 133.431 166.166 132.726 166.361C131.26 166.751 129.94 167.474 128.848 168.555L128.705 168.453L128.708 168.45Z" fill="#5E5573"/>
<path d="M118.85 126.843C120.571 125.701 122.678 125.133 124.738 125.043C125.781 124.987 126.864 124.897 127.878 125.229C128.88 125.553 129.845 126.03 130.617 126.84L130.556 127.003C129.507 127.1 128.54 127.033 127.529 126.942C126.567 126.881 125.661 126.534 124.706 126.441C122.756 126.24 120.807 126.38 118.928 127.001L118.853 126.843H118.85Z" fill="#5E5573"/>
</g>
<g filter="url(#filter0_dd_2106_378)">
<rect x="210.504" y="212.5" width="37.2472" height="171.337" rx="18.6236" transform="rotate(90 210.504 212.5)" fill="#5E5573" shape-rendering="crispEdges"/>
<path d="M94.102 234.799C93.5958 234.385 93.5267 233.626 93.9179 233.119C94.3322 232.613 95.0916 232.544 95.5979 232.958C96.6104 233.787 98.3594 234.753 99.9933 234.73C101.144 234.73 102.179 234.385 102.87 233.879C103.56 233.372 103.859 232.797 103.859 232.222C103.859 231.923 103.79 231.716 103.652 231.485C103.514 231.255 103.307 231.025 102.962 230.795C102.295 230.358 101.167 229.967 99.8092 229.713H99.7631C98.6815 229.506 97.669 229.23 96.7945 228.816C95.92 228.402 95.1606 227.826 94.6543 227.021C94.3092 226.469 94.1251 225.824 94.1251 225.134C94.1251 223.753 94.9075 222.557 95.9661 221.774C97.0477 220.992 98.4514 220.554 99.9472 220.554C102.156 220.554 103.79 221.636 104.964 222.396C105.493 222.764 105.654 223.5 105.286 224.029C104.941 224.582 104.205 224.743 103.652 224.375C102.479 223.592 101.351 222.902 99.9472 222.902C98.9117 222.902 97.9912 223.224 97.3698 223.684C96.7485 224.144 96.4953 224.651 96.4953 225.134C96.4953 225.41 96.5414 225.594 96.6564 225.778C96.7715 225.962 96.9786 226.17 97.2778 226.377C97.8761 226.791 98.9117 227.159 100.154 227.389H100.2C101.374 227.619 102.456 227.919 103.376 228.356C104.32 228.816 105.148 229.414 105.677 230.266C106.023 230.818 106.23 231.508 106.23 232.222C106.23 233.695 105.401 234.96 104.251 235.789C103.123 236.617 101.627 237.101 99.9933 237.101C97.5079 237.078 95.4138 235.835 94.102 234.799ZM114.445 237.124C111.292 237.101 108.853 234.5 108.83 231.37C108.853 228.241 111.292 225.617 114.445 225.617C117.437 225.617 119.807 227.849 119.991 230.956C119.991 230.979 119.991 231.025 119.991 231.071C119.991 231.117 119.991 231.232 119.968 231.278C119.899 231.831 119.416 232.199 118.771 232.199H111.453C111.568 232.728 111.822 233.326 112.236 233.718C112.719 234.27 113.64 234.684 114.445 234.753C115.273 234.822 116.263 234.615 116.838 234.178C117.322 233.672 118.265 233.741 118.564 234.109C118.863 234.431 119.093 235.121 118.564 235.605C117.437 236.64 116.079 237.124 114.445 237.124ZM114.445 227.803C112.489 227.896 111.522 229.299 111.338 230.243H117.851C117.621 229.322 116.447 227.965 114.445 227.803ZM134.198 231.393V235.881C134.198 236.548 133.646 237.124 132.956 237.124C132.334 237.124 131.851 236.686 131.736 236.134C130.862 236.732 129.757 237.124 128.606 237.124C125.5 237.124 123.014 234.5 123.014 231.393C123.014 228.241 125.5 225.617 128.606 225.617C129.734 225.617 130.839 225.985 131.69 226.584V222.257C131.69 221.59 132.242 221.015 132.956 221.015C133.646 221.015 134.198 221.59 134.198 222.257V231.37C134.198 231.37 134.198 231.37 134.198 231.393ZM130.769 229.069C130.194 228.471 129.458 228.126 128.606 228.126C127.778 228.126 127.018 228.471 126.443 229.069C125.868 229.644 125.523 230.473 125.523 231.393C125.523 232.268 125.868 233.096 126.443 233.672C127.018 234.27 127.778 234.615 128.606 234.615C129.458 234.615 130.194 234.27 130.769 233.672C131.345 233.096 131.69 232.268 131.69 231.393C131.69 230.473 131.345 229.644 130.769 229.069ZM140.346 225.64C141.06 225.64 141.589 226.17 141.589 226.906V235.881C141.589 236.571 141.06 237.124 140.346 237.124C139.656 237.124 139.104 236.571 139.104 235.881V226.906C139.104 226.17 139.656 225.64 140.346 225.64ZM141.589 222.257V222.741C141.589 223.431 141.06 224.006 140.346 224.006C139.656 224.006 139.104 223.431 139.104 222.741V222.257C139.104 221.567 139.656 221.015 140.346 221.015C141.06 221.015 141.589 221.567 141.589 222.257ZM148.222 230.657V235.858C148.222 236.571 147.647 237.124 146.934 237.124C146.358 237.124 145.875 236.709 145.714 236.18C145.691 236.088 145.668 235.973 145.668 235.858V222.28C145.668 221.567 146.243 221.015 146.934 221.015C147.647 221.015 148.222 221.567 148.222 222.28V226.285C148.959 225.893 149.787 225.617 150.685 225.617C153.469 225.617 155.701 227.896 155.701 230.657V235.858C155.701 236.571 155.149 237.124 154.436 237.124C153.722 237.124 153.17 236.571 153.17 235.858V230.657C153.17 229.299 152.065 228.195 150.685 228.172C149.327 228.195 148.245 229.299 148.222 230.657Z" fill="white"/>
</g>
<defs>
<filter id="filter0_dd_2106_378" x="36.1862" y="212.5" width="177.297" height="43.2066" filterUnits="userSpaceOnUse" color-interpolation-filters="sRGB">
<feFlood flood-opacity="0" result="BackgroundImageFix"/>
<feColorMatrix in="SourceAlpha" type="matrix" values="0 0 0 0 0 0 0 0 0 0 0 0 0 0 0 0 0 0 127 0" result="hardAlpha"/>
<feOffset dy="2.97977"/>
<feGaussianBlur stdDeviation="1.48989"/>
<feComposite in2="hardAlpha" operator="out"/>
<feColorMatrix type="matrix" values="0 0 0 0 0 0 0 0 0 0 0 0 0 0 0 0 0 0 0.25 0"/>
<feBlend mode="normal" in2="BackgroundImageFix" result="effect1_dropShadow_2106_378"/>
<feColorMatrix in="SourceAlpha" type="matrix" values="0 0 0 0 0 0 0 0 0 0 0 0 0 0 0 0 0 0 127 0" result="hardAlpha"/>
<feOffset dy="2.97977"/>
<feGaussianBlur stdDeviation="1.48989"/>
<feComposite in2="hardAlpha" operator="out"/>
<feColorMatrix type="matrix" values="0 0 0 0 0 0 0 0 0 0 0 0 0 0 0 0 0 0 0.25 0"/>
<feBlend mode="normal" in2="effect1_dropShadow_2106_378" result="effect2_dropShadow_2106_378"/>
<feBlend mode="normal" in="SourceGraphic" in2="effect2_dropShadow_2106_378" result="shape"/>
</filter>
<linearGradient id="paint0_linear_2106_378" x1="125" y1="0" x2="125" y2="250" gradientUnits="userSpaceOnUse">
<stop stop-color="#45A6D2"/>
<stop offset="0.74" stop-color="#CDF0FF"/>
</linearGradient>
<clipPath id="clip0_2106_378">
<rect width="223.49" height="190.213" fill="white" transform="translate(13 41)"/>
</clipPath>
</defs>
</svg>
