<svg width="503" height="477" viewBox="0 0 503 477" fill="none" xmlns="http://www.w3.org/2000/svg">
<path d="M111.444 199.332C113.012 214.613 114.531 221.993 117.07 230.364C120.637 242.125 123.284 245.036 125.381 256.024C127.626 267.717 125.411 268.53 127.42 281.527C128.87 290.897 130.38 300.64 136.8 310.735C143.053 320.576 150.885 325.908 155.717 329.123C168.478 337.631 180.553 339.973 187.797 341.316C198.667 343.325 210.585 342.786 234.422 341.718C237.961 341.561 242.097 341.316 247.027 340.875C248.899 340.698 255.613 340.071 264.591 338.709C266.934 338.346 272.197 337.523 279.097 336.141C289.555 334.063 302.209 331.544 317.313 326.653C326.909 323.546 338.386 319.772 352.471 312.245C367.369 304.276 377.464 296.249 380.954 293.387C386.109 289.162 389.971 285.32 397.685 277.646C415.896 259.533 421.62 250.604 425.58 241.871C425.825 241.322 426.158 240.587 426.589 239.567C436.067 216.916 430.853 195.588 430.079 192.53C425.335 173.996 414.524 162.322 409.486 157.5C408.251 153.922 406.418 148.737 404.007 142.553C399.126 130.016 394.284 119.313 391.912 114.697C385.668 102.543 370.104 76.481 340.131 57.1623C323.047 46.1455 307.933 41.6172 303.13 40.2646C273.197 31.8746 247.017 36.1284 243.175 37.3144C240.636 38.0985 239.372 38.2259 236.833 38.5004C234.177 38.7846 232.834 38.912 231.697 38.324C228.786 36.8145 228.483 32.1196 228.385 30.5612C227.953 23.8766 231.394 20.2403 230.227 19.2504C228.875 18.0938 222.562 21.5537 218.485 27.2189C218.485 27.2189 216.829 29.5321 212.457 40.9213C205.841 18.0546 203.293 18.084 203.293 18.084C202.048 18.1036 201.097 19.7698 199.715 22.2202C197.745 25.6801 197.343 29.0028 197.226 31.0611C196.726 39.657 200.254 45.43 199.176 46.0083C198.01 46.6356 194.913 39.3629 187.552 36.8439C184.415 35.7658 179.662 35.2659 178.505 37.1674C176.653 40.2352 186.483 45.626 186.131 52.6929C185.797 59.5735 176.123 62.1513 163.46 70.7177C148.15 81.0681 139.25 92.9376 134.232 99.5438C124.058 112.942 119.01 125.4 117.177 130.291C107.141 157.088 109.581 180.945 111.463 199.322H111.453V199.332H111.444Z" fill="#C0B4DF"/>
<path d="M161.746 184.532C161.746 184.532 162.766 180.651 178.605 175.848C178.605 175.848 184.829 170.546 175.949 168.458C175.949 168.458 163.824 169.517 160.904 182.2C160.904 182.2 160.139 185.395 161.737 184.532H161.746Z" fill="#5E5573"/>
<path d="M199.813 267.217C199.813 267.217 177.133 275.969 159.177 258.101C159.177 258.101 141.76 235.793 166.146 210.643C167.155 209.878 180.162 200.41 195.726 205.879C209.389 210.692 214.192 223.218 214.819 224.943C215.339 226.109 222.641 243.056 212.977 256.905C208.713 263.022 202.97 265.933 199.804 267.217H199.813Z" fill="#FDFEFD"/>
<path d="M166.352 263.787C164.862 260.827 162.99 256.406 161.902 250.81C160.765 244.899 159.206 236.852 163.068 228.384C167.822 217.945 177.623 213.838 179.446 213.123C195.295 206.83 209.792 216.838 210.938 217.651C209.292 215.25 205.714 210.731 199.529 207.546C197.991 206.762 193.923 204.831 188.503 204.302C179.162 203.4 168.371 206.919 161.039 215.181C153.472 223.709 152.933 233.51 152.816 236.617C152.678 239.92 152.237 251.133 160.118 259.19C162.382 261.513 164.724 262.934 166.361 263.777H166.352V263.787Z" fill="#5E5573"/>
<path d="M176.585 214.436C174.096 217.259 170.008 222.738 168.626 230.54C166.441 242.88 171.4 258.836 184.083 264.717C191.317 268.069 198.54 266.981 202.422 266.021C208.087 263.12 211.282 259.366 212.86 257.2C219.702 247.741 218.535 236.734 217.467 232.088C216.359 227.246 213.703 221.983 212.674 220.366C212.635 220.307 210.949 217.661 210.949 217.661C207.803 215.514 201.765 212.044 193.747 211.25C191.14 210.986 186.455 210.574 180.976 212.466C179.114 213.113 177.634 213.858 176.605 214.446H176.585V214.436Z" fill="#5E5573"/>
<path d="M199.114 233.78C203.165 232.326 205.048 227.245 203.32 222.43C201.593 217.615 196.908 214.89 192.858 216.344C188.807 217.797 186.924 222.879 188.652 227.694C190.38 232.508 195.064 235.233 199.114 233.78Z" fill="#F9FCFE"/>
<path d="M189.227 254.799C191.668 254.799 193.648 252.82 193.648 250.379C193.648 247.938 191.668 245.958 189.227 245.958C186.786 245.958 184.807 247.938 184.807 250.379C184.807 252.82 186.786 254.799 189.227 254.799Z" fill="#F9FCFE"/>
<path d="M334.879 131.978C334.879 131.978 331.625 129.635 316.345 135.996C316.345 135.996 308.17 135.859 313.688 128.606C313.688 128.606 323.725 121.715 334.036 129.645C334.036 129.645 336.653 131.625 334.869 131.978H334.879Z" fill="#5E5573"/>
<path d="M356.884 211.389C356.884 211.389 379.957 203.724 382.456 178.515C382.456 178.515 381.721 150.218 346.906 146.317C345.642 146.366 329.577 147.327 321.05 161.451C313.562 173.85 317.825 186.582 318.433 188.307C318.766 189.532 323.912 207.253 340.173 211.811C347.357 213.82 353.64 212.409 356.894 211.399H356.884V211.389Z" fill="#FDFEFD"/>
<path d="M380.534 187.463C379.798 184.229 378.436 179.632 375.711 174.614C372.839 169.331 368.919 162.126 360.558 158.049C350.247 153.011 340.073 156.079 338.221 156.677C321.99 161.901 317.157 178.838 316.795 180.191C316.54 177.289 316.422 171.526 319.177 165.136C319.863 163.557 321.774 159.47 325.626 155.628C332.261 148.993 342.827 144.856 353.746 146.562C365.008 148.336 371.653 155.56 373.722 157.873C375.927 160.343 383.396 168.703 382.435 179.936C382.161 183.16 381.259 185.748 380.524 187.444H380.534V187.463Z" fill="#5E5573"/>
<path d="M341.257 155.874C344.972 156.471 351.608 158.108 357.636 163.244C367.172 171.37 373.485 186.846 367.437 199.451C363.987 206.635 357.724 210.389 354.117 212.114C347.903 213.477 343.051 212.614 340.454 211.938C329.162 208.988 323.066 199.745 320.929 195.481C318.704 191.041 317.41 185.288 317.175 183.386C317.165 183.318 316.783 180.201 316.783 180.201C317.852 176.545 320.312 170.027 325.987 164.313C327.829 162.45 331.182 159.147 336.621 157.128C338.464 156.442 340.081 156.079 341.257 155.874Z" fill="#5E5573"/>
<path d="M336.257 185.081C340.308 183.628 342.191 178.546 340.463 173.731C338.735 168.916 334.051 166.192 330 167.645C325.95 169.099 324.067 174.18 325.794 178.995C327.522 183.81 332.206 186.535 336.257 185.081Z" fill="#F9FCFE"/>
<path d="M354.391 196.04C356.832 196.04 358.812 194.061 358.812 191.62C358.812 189.178 356.832 187.199 354.391 187.199C351.95 187.199 349.971 189.178 349.971 191.62C349.971 194.061 351.95 196.04 354.391 196.04Z" fill="#F9FCFE"/>
<path d="M177.606 294.028C190.044 293.459 199.907 288.198 199.636 282.277C199.365 276.355 189.063 272.017 176.625 272.586C164.188 273.155 154.325 278.416 154.596 284.338C154.867 290.259 165.169 294.598 177.606 294.028Z" fill="#FAC0D8"/>
<path d="M391.073 217.327C401.035 209.859 406.228 199.96 402.672 195.217C399.117 190.475 388.159 192.684 378.197 200.153C368.236 207.621 363.043 217.52 366.598 222.263C370.154 227.006 381.112 224.796 391.073 217.327Z" fill="#FAC0D8"/>
<path d="M117.168 130.301C113.865 130.223 108.866 130.056 102.789 129.743C79.2263 128.498 75.0019 126.792 63.8969 127.508C56.0067 128.008 46.3621 128.625 36.492 134.349C23.5541 141.857 17.585 153.874 15.1543 159.784C9.95952 172.428 6.87207 182.415 4.72555 194.285C3.24554 202.459 1.73612 210.82 1.91254 221.954C2.14778 237.009 2.47122 258.063 16.1344 270.452C21.4762 275.304 28.7097 278.675 35.5707 281.88C43.1472 285.419 47.3226 286.37 54.4679 290.447C60.7212 294.015 65.3671 297.749 68.3075 300.356C71.6694 304.443 75.0999 308.825 78.5402 313.529C81.6767 317.803 84.5681 321.998 87.2341 326.056C88.6161 328.084 90.7234 330.937 93.654 334.005C98.6038 339.17 107.013 347.952 119.53 349.648C130.253 351.098 139.054 346.668 143.122 344.208C143.122 344.208 151.394 337.827 155.727 329.123C153.227 327.702 149.571 325.34 145.768 321.753C130.635 307.462 127.969 287.458 127.42 281.528C126.655 273.304 128.087 271.912 126.665 262.581C125.264 253.407 122.745 247.291 121.029 242.665C112.159 218.681 110.885 196.147 110.375 186.963C109.66 174.3 110.444 165.047 110.64 162.842C111.846 149.375 114.649 138.28 117.148 130.311H117.168V130.301Z" fill="#C0B4DF"/>
<path d="M35.5711 281.861C40.3836 285.036 45.0981 285.085 54.4683 290.427C60.7216 293.995 65.3675 297.729 68.308 300.336C71.6699 304.424 75.1004 308.805 78.5407 313.509C81.6771 317.783 84.5686 321.978 87.2345 326.036C88.6165 328.065 90.7239 330.917 93.6545 333.985C98.6042 339.15 107.014 347.932 119.53 349.628C130.253 351.078 139.055 346.648 143.122 344.188C143.122 344.188 151.395 337.807 155.727 329.104C153.228 327.682 149.572 325.32 145.769 321.733C130.635 307.442 127.969 287.438 127.42 281.508C126.656 273.284 128.087 271.893 126.666 262.562C126.303 260.17 125.862 258.004 125.382 256.004C123.735 249.202 121.275 243.233 121.03 242.645C117.335 233.589 115.355 223.356 113.649 214.593C112.326 207.762 110.895 198.372 110.376 186.943C110.376 186.943 84.5097 169.693 57.1931 173.388C53.449 173.898 51.3025 174.192 48.411 175.329C24.1525 184.934 19.4968 226.257 22.7999 251.613C24.1819 262.238 25.8971 275.47 35.5711 281.851V281.861Z" fill="#ACECC7"/>
<path d="M23.8399 245.468C25.5649 245.85 26.8195 233.402 36.8758 222.199C44.4425 213.76 53.2246 210.222 56.8511 208.762C82.8053 198.313 109.465 212.31 113.67 214.603C112.808 209.81 112.053 204.723 111.455 199.333C110.975 195.04 110.632 190.903 110.396 186.953C101.301 184.052 93.5379 181.759 87.5982 180.063C77.1597 177.083 73.2979 176.182 68.162 175.927C62.4085 175.633 56.9981 175.348 50.9801 177.965C44.4425 180.808 40.8062 185.493 37.6795 189.629C35.5232 192.481 30.5048 199.685 26.5745 215.76C23.095 229.972 21.9384 245.066 23.8399 245.488V245.468Z" fill="#8EC2A7"/>
<path d="M151.463 328.976C146.611 335.66 141.328 343.149 133.026 345.658C126.803 347.54 120.059 346.236 114.159 343.884C101.819 338.983 92.2426 330.799 84.8622 319.812C77.4719 308.834 71.8458 296.621 60.2801 289.672C55.4774 286.79 49.969 285.457 44.8135 283.35C37.0409 280.175 29.533 276.166 22.6426 271.363C3.12794 257.788 5.40187 228.619 7.43077 207.663C9.57729 185.483 12.6549 158.793 30.6896 143.317C40.6969 134.721 54.6149 130.595 67.6704 130.85C83.7742 131.163 99.8682 133.025 116.001 133.447C120.118 133.555 119.589 127.184 115.521 127.076C99.8388 126.664 84.2447 125.077 68.582 124.518C56.1831 124.077 43.6765 127.36 33.0517 133.751C10.1164 147.541 4.2159 176.887 1.66753 201.449C0.530558 212.349 -0.390778 223.316 0.167905 234.274C0.834403 247.291 3.34357 262.071 12.9 271.706C17.5165 276.362 23.7012 279.841 29.386 282.997C36.149 286.761 43.1864 289.652 50.4689 292.201C64.2987 297.033 70.5521 309.383 78.011 320.988C86.5676 334.288 97.9079 344.786 112.933 350.225C120.079 352.803 127.802 353.93 135.202 351.656C144.622 348.765 150.845 340.708 156.383 333.063C158.775 329.75 153.904 325.614 151.483 328.956H151.473V328.976H151.463Z" fill="#5E5573"/>
<path d="M38.1392 280.812C25.613 261.484 24.1624 240.185 28.7298 218.102C30.7489 208.321 33.5815 198.137 39.58 189.982C47.0193 179.877 58.0067 176.76 70.1801 178.122C82.3535 179.485 95.2718 184.631 106.749 190.031C110.474 191.786 113.208 186.013 109.474 184.258C88.7245 174.486 57.7813 162.332 38.5117 181.416C30.4353 189.404 26.3285 200.715 23.6625 211.516C20.7319 223.395 18.9284 235.676 20.0065 247.918C21.1533 260.954 25.8188 273.539 32.915 284.497C35.1498 287.948 40.3739 284.272 38.1392 280.822V280.812Z" fill="#5E5573"/>
<path d="M116.816 133.262C116.728 132.399 111.2 132.733 96.282 132.135C80.4135 131.488 77.0418 130.714 66.27 131.047C55.7334 131.37 51.411 132.35 47.8825 133.507C40.2079 136.036 35.121 139.809 34.1016 140.593C24.7805 147.67 20.7619 156.795 16.6257 166.185C13.4108 173.497 11.7347 179.495 11.0388 182.191C2.87423 213.428 8.1082 245.528 8.11801 245.547C8.11801 245.547 6.79481 227.964 7.99059 213.604C9.97048 189.669 19.027 173.222 21.3598 169.165C26.9662 159.422 32.4256 153.904 35.5326 151.091C38.9533 147.974 43.7169 143.71 51.1659 140.819C52.5381 140.29 56.8214 138.702 66.0739 137.849C79.7764 136.575 82.8932 138.878 94.851 138.143C106.319 137.437 116.934 134.497 116.816 133.282V133.262Z" fill="#DACFF3"/>
<path d="M331.68 51.3011C334.179 49.135 337.933 45.8319 342.422 41.7251C359.82 25.7879 361.996 21.7889 371.023 15.271C377.433 10.6349 385.264 4.98927 396.526 3.1368C411.287 0.706045 423.539 6.18505 429.165 9.2039C441.211 15.663 449.944 21.4067 459.147 29.2086C465.489 34.5798 471.958 40.0686 478.907 48.7723C488.297 60.5438 501.431 77.0005 498.755 95.2508C497.716 102.396 494.286 109.59 491.012 116.432C487.415 123.979 484.798 127.37 481.877 135.054C479.309 141.788 478.113 147.62 477.496 151.501C477.496 156.794 477.643 162.361 477.976 168.173C478.28 173.466 478.711 178.543 479.231 183.366C479.456 185.806 479.642 189.354 479.329 193.579C478.799 200.714 477.888 212.839 469.302 222.101C461.941 230.04 452.345 232.216 447.631 232.902C447.631 232.902 437.182 233.235 428.312 229.276C429.341 226.58 430.655 222.444 431.311 217.259C433.909 196.607 423.245 179.475 419.902 174.544C415.266 167.713 413.277 167.546 408.445 159.44C403.691 151.462 401.75 145.15 400.133 140.484C391.733 116.334 378.384 98.1324 372.944 90.7127C365.436 80.48 358.957 73.8346 357.399 72.2566C347.901 62.6316 338.688 55.849 331.689 51.2913H331.68V51.3011Z" fill="#C0B4DF"/>
<path d="M491.033 116.432C489.337 121.94 485.73 124.979 481.898 135.055C479.33 141.788 478.134 147.62 477.517 151.502C477.517 156.794 477.664 162.362 477.997 168.174C478.301 173.467 478.732 178.544 479.252 183.366C479.477 185.807 479.663 189.355 479.35 193.579C478.82 200.715 477.909 212.839 469.323 222.101C461.962 230.041 452.366 232.216 447.652 232.903C447.652 232.903 437.203 233.236 428.333 229.276C429.362 226.581 430.676 222.444 431.332 217.259C433.93 196.608 423.266 179.475 419.924 174.545C415.287 167.713 413.298 167.547 408.466 159.441C407.231 157.363 406.192 155.412 405.29 153.56C402.232 147.267 400.34 141.092 400.154 140.485C397.253 131.144 392.274 121.989 388.02 114.138C384.697 108.022 379.826 99.8676 372.975 90.7228C372.975 90.7228 381.972 60.9657 405.408 46.4497C408.622 44.46 410.465 43.3231 413.425 42.3625C438.252 34.3547 468.117 63.2886 481.692 84.9596C487.377 94.0357 494.473 105.347 491.062 116.422H491.033V116.432Z" fill="#ACECC7"/>
<path d="M476.946 80.8719C475.859 82.2637 466.978 73.462 452.09 71.1979C440.887 69.4924 431.86 72.3447 428.126 73.5306C401.446 81.9599 389.772 109.718 387.979 114.158C385.597 109.914 382.941 105.503 379.981 100.965C377.628 97.3481 375.266 93.9372 372.934 90.7322C378.109 82.7146 382.637 76.0104 386.146 70.9137C392.311 61.9747 394.722 58.8285 398.525 55.3588C402.779 51.4676 406.778 47.8215 413.08 46.0082C419.931 44.0479 425.714 45.3515 430.752 46.5571C434.222 47.3902 442.681 49.7621 455.932 59.6616C467.655 68.4241 478.142 79.3331 476.946 80.8719Z" fill="#8EC2A7"/>
<path d="M430.353 232.746C438.89 234.971 447.917 237.049 456.601 234.324C463.188 232.256 468.637 227.482 472.538 221.896C480.066 211.094 484.055 197.814 483.957 184.689C483.849 170.879 478.566 156.461 482.154 142.778C483.83 136.358 488.103 130.997 491.151 125.195C495.15 117.599 498.306 109.532 500.629 101.26C507.628 76.3639 486.849 53.5657 470.608 37.2659C453.837 20.427 433.921 1.69647 408.888 0.0988366C394.48 -0.822499 379.239 4.70551 368.094 13.7424C362.38 18.3785 357.234 23.7301 351.883 28.7779C345.031 35.2468 338.033 41.5589 330.917 47.7436C327.84 50.4096 331.486 55.673 334.593 52.9678C345.904 43.1468 356.607 32.7278 367.614 22.5833C376.19 14.6736 386.59 9.02795 398.175 7.01865C422.884 2.72562 444.516 20.574 460.983 36.6876C468.206 43.7545 475.312 50.9585 481.477 58.9761C488.789 68.4737 496.944 80.8039 495.768 93.3988C495.19 99.4757 492.759 105.631 490.514 111.228C487.809 118.02 484.437 124.44 480.625 130.654C473.597 142.092 474.165 154.442 475.891 167.272C476.929 174.996 478.066 182.837 477.361 190.639C476.714 197.804 474.509 204.527 471.441 210.987C468.618 216.926 464.795 222.699 459.081 226.199C450.583 231.403 440.478 228.786 431.5 226.444C427.511 225.405 426.364 231.697 430.333 232.726L430.353 232.746Z" fill="#5E5573"/>
<path d="M494.755 116.764C493.403 104.964 489.649 93.388 483.386 83.2631C476.975 72.9128 468.174 64.5032 458.696 57.0051C450.031 50.1539 440.318 43.8319 429.38 41.4502C416.177 38.5784 404.504 43.5575 395.016 52.7022C384.93 62.4253 377.863 75.5102 371.933 88.0658C370.179 91.7904 375.952 94.5152 377.706 90.7906C386.263 72.6874 401.201 43.7731 425.518 47.2526C435.77 48.7229 444.954 54.4861 453.021 60.6904C461.881 67.5024 470.144 75.0397 476.456 84.3315C483.082 94.0937 487.032 105.552 488.384 117.245C488.855 121.322 495.226 120.852 494.755 116.764Z" fill="#5E5573"/>
<path d="M333.846 53.3785C333.356 52.6532 337.855 49.3991 348.98 39.4507C360.81 28.8651 362.927 26.1207 371.455 19.5243C379.796 13.075 383.755 11.0853 387.215 9.73268C394.753 6.80205 401.075 6.4884 402.359 6.4394C414.052 5.97873 422.951 10.4678 432.116 15.0843C439.241 18.6814 444.348 22.2491 446.602 23.8762C472.762 42.8027 489.131 70.9035 489.141 70.9231C489.141 70.9231 478.986 56.515 468.93 46.1842C452.179 28.9729 434.733 22.0335 430.351 20.377C419.835 16.4173 412.101 15.6332 407.916 15.4371C403.29 15.2019 396.909 14.947 389.313 17.4464C387.921 17.9071 383.599 19.4067 375.914 24.6309C364.535 32.3544 363.584 36.1182 353.89 43.1556C344.599 49.899 334.523 54.3783 333.846 53.3687V53.3785Z" fill="#DACFF3"/>
<path d="M128.774 116.598C138.84 103.121 143.868 96.3878 149.445 90.6638C170.087 69.4829 193.669 64.0333 192.346 53.0263C192.101 50.9778 190.778 46.92 191.347 46.7043C192.013 46.4495 193.748 52.0657 197.59 52.7028C199.05 52.9478 200.276 52.3892 200.54 52.2519C202.599 51.2522 203.285 49.0861 203.442 48.5176C204.196 45.7928 202.491 44.5872 202.109 41.0097C201.697 37.1381 203.138 33.3646 203.99 33.3744C205.529 33.3842 204.559 45.783 209.783 47.7727C211.528 48.4392 213.576 47.8021 214.792 46.9984C216.997 45.538 216.771 43.313 218.938 38.4417C220.016 36.0208 221.849 31.8944 223.201 32.0904C225.044 32.355 223.319 40.2158 227.279 44.0873C230.611 47.3414 236.727 46.5573 241.628 45.2635C247.176 44.0677 255.811 42.6171 266.455 42.5387C269.748 42.5093 279.236 42.5681 304.808 47.5865C312.561 49.1057 323.264 51.3698 336.016 54.6043C330.674 51.2914 323.411 47.3512 314.404 43.9207C308.219 41.5684 297.124 37.9026 282.716 36.3344C282.716 36.3344 267.592 34.6976 251.576 36.7657C246.705 37.393 244.265 37.7066 242.52 38.2849C240.677 38.8926 239.256 39.5689 237.011 39.5787C235.198 39.5885 232.993 39.167 231.689 38.3143C228.445 36.1776 227.739 29.2774 230.984 21.7891C230.984 21.7891 217.183 25.1902 213.096 43.019C207.813 25.347 204.402 21.8087 202.256 21.9851C199.286 22.2301 196.208 29.7576 196.365 35.8933C196.453 39.069 197.482 44.7244 197.482 44.7244C197.482 44.7244 195.002 41.7938 192.238 39.8433C191.523 39.3336 189.729 38.0693 187.504 37.442C183.035 36.1776 178.899 38.0399 177.193 38.9416C178.487 39.3925 181.927 40.7745 184.231 44.3716C184.907 45.4203 187.181 48.9587 186.113 52.7028C185.475 54.9571 183.897 56.1921 180.771 58.5641C176.88 61.5241 174.743 62.0828 168.519 65.7877C168.519 65.7877 166.716 66.8561 163.726 68.7772C154.356 74.8149 146.574 83.2343 142.849 87.3117C135.39 95.4763 130.813 102.318 129.597 104.16C127.039 108.032 124.246 112.325 121.55 118.539C119.051 124.322 117.64 129.468 116.826 133.251C119.669 129.125 123.726 123.352 128.784 116.589H128.774V116.598Z" fill="#DACFF3"/>
<path d="M117.156 130.3C119.028 124.086 121.91 116.755 126.448 109.11C130.476 102.308 134.338 97.7401 138.592 92.6923C145.13 84.9492 150.677 79.8524 154.931 75.9809C158.636 72.5994 161.086 70.6391 163.743 68.7866C166.389 66.9439 167.251 66.5813 172.378 63.5232C184.698 56.1624 185.904 54.4961 186.335 52.5946C187.188 48.9191 184.923 45.42 184.237 44.3614C181.826 40.6369 178.298 39.3039 177.2 38.9314C178.356 38.3041 182.434 36.285 187.511 37.4318C194.94 39.1078 197.881 46.0865 198.146 46.7628C197.224 44.2242 195.597 38.6766 196.773 31.7274C197.822 25.5622 200.567 21.2202 202.154 19.0835C204.036 21.3868 206.251 24.5625 208.163 28.6399C210.495 33.6386 211.534 38.2061 212.015 41.5288C212.573 38.8236 214.151 32.9721 219.072 27.5029C223.227 22.8767 227.834 20.6811 230.353 19.6814C227.393 32.1782 229.275 36.7163 231.657 38.51C234.832 40.9015 239.214 38.6472 249.064 36.9711C256.876 35.6479 262.482 35.6479 271.137 35.6479C273.891 35.6479 287.623 35.7558 304.854 40.5585C312.127 42.5874 321.477 45.8512 331.72 51.2714" stroke="#5E5573" stroke-width="5.88087" stroke-linecap="round" stroke-linejoin="round"/>
<path d="M114.06 142.513C114.246 140.249 114.559 137.75 114.863 135.496C115.089 134.123 115.383 132.212 115.481 130.84C115.834 128.38 116.912 126.341 118.784 124.469C118.872 124.391 119 124.391 119.078 124.469C119.882 126.998 119.764 129.389 118.882 131.712C117.97 133.692 117.118 136.25 116.265 138.26C115.657 139.71 115.059 141.161 114.393 142.592C114.314 142.768 114.03 142.7 114.05 142.504H114.06V142.513Z" fill="#5E5573"/>
<path d="M341.259 58.8681C339.211 57.8879 336.996 56.6823 334.996 55.5846C333.791 54.8887 332.115 53.9183 330.88 53.3204C328.714 52.1051 327.204 50.3702 326.126 47.9492C326.087 47.8414 326.126 47.7238 326.244 47.6748C328.9 47.8414 331.086 48.802 332.928 50.478C334.447 52.0364 336.516 53.7615 338.094 55.2807C339.231 56.3687 340.368 57.4468 341.456 58.5838C341.593 58.7112 341.416 58.9661 341.25 58.8681H341.259Z" fill="#5E5573"/>
<path d="M393.207 259.631C395.922 255.779 398.873 253.329 399.186 253.054C402.097 250.614 410.223 241.508 432.648 213.025C432.09 216.77 431.404 220.024 430.767 222.66C429.865 226.336 428.659 230.443 427.022 234.824C426.248 236.892 425.493 238.735 424.778 240.332C415.761 260.905 402.421 273.589 391.943 283.351C385.954 288.938 379.554 293.828 377.917 295.073C377.868 295.112 377.672 295.338 377.604 295.309C377.3 295.122 381.465 289.143 385.004 281.077C387.385 275.657 388.738 272.559 389.346 268.962C389.463 268.276 389.718 266.59 390.541 264.463C391.247 262.64 392.139 261.111 393.188 259.621H393.207V259.631Z" fill="#A394C5"/>
<path d="M138.996 309.383C150.121 314.009 166.509 319.616 187.004 322.389C201.755 324.389 213.183 324.183 220.348 324.026C220.348 324.026 235.795 323.693 282.46 316.224C282.46 316.224 286.204 317.685 286.331 317.743C298.093 322.321 336.583 321.978 323.959 321.84C323.959 321.84 310.149 326.624 306.091 327.996C295.8 331.465 274.521 338.66 247.018 340.875C240.97 341.365 236.413 341.463 231.924 341.571C223.083 341.777 209.547 341.688 192.571 339.846C183.289 338.846 179.172 337.954 175.291 336.797C169.371 335.033 157.874 331.465 147.847 321.272C143.475 316.832 140.682 312.441 138.986 309.393L138.996 309.383Z" fill="#A394C5"/>
<path d="M232.914 290.495C232.914 290.495 243.588 290.456 243.911 281.095" stroke="#5E5573" stroke-width="5.88087" stroke-linecap="round" stroke-linejoin="round"/>
<path d="M241.109 273.264C262.682 336.729 376.026 337.395 390.572 264.473C399.618 251.299 391.336 233.373 376.634 245.36C371.89 246.467 364.637 238.773 360.54 242.968C354.502 246.467 357.119 256.21 360.912 262.944C346.269 275.499 331.096 256.955 329.019 241.723" stroke="#5E5573" stroke-width="5.88087" stroke-linecap="round" stroke-linejoin="round"/>
<path d="M251.588 233.118C259.449 221.346 275.22 212.701 289.53 215.485C291.608 215.877 293.636 216.465 295.538 217.347C295.607 217.377 295.646 217.465 295.607 217.543C291.519 217.622 287.579 217.259 283.345 217.779C270.681 218.563 260.067 223.503 251.804 233.294C251.706 233.431 251.471 233.275 251.578 233.128L251.588 233.118Z" fill="#5E5573"/>
<path d="M256.312 248.232C262.408 239.038 266.809 235.294 277.16 231.227C283.55 228.551 290.637 226.855 297.556 228.306C299.85 228.747 302.085 229.462 304.123 230.57C304.212 230.619 304.251 230.727 304.192 230.815C304.153 230.884 304.094 230.913 304.025 230.903C301.732 230.786 299.536 230.727 297.351 230.795C295.175 230.844 293.018 231.07 290.882 231.364C284.393 232.197 277.924 233.53 271.896 236.196C269.858 237.039 267.897 237.96 266.123 239.205C262.506 241.646 259.556 245.086 256.577 248.438C256.518 248.516 256.4 248.516 256.322 248.458C256.253 248.399 256.243 248.301 256.292 248.222H256.312V248.232Z" fill="#5E5573"/>
<path d="M269.737 265.462C271.119 264.07 271.776 262.169 272.864 260.522C273.932 258.807 275.158 257.17 276.5 255.621C280.627 250.927 286.057 247.545 291.879 245.291C297.779 243.154 304.748 243.615 310.188 246.79C310.394 246.918 310.325 247.251 310.08 247.271C306.728 247.712 301.867 248.28 298.642 248.956L293.232 250.015C285.792 251.397 279.098 255.798 274.089 261.414C272.756 262.884 271.727 264.698 270.032 265.835C269.796 265.991 269.492 265.648 269.718 265.452H269.737V265.462Z" fill="#5E5573"/>
<path d="M288.144 282.222C288.997 274.783 293.467 267.883 299.426 263.374C300.945 262.217 302.523 261.1 304.209 260.13C307.551 258.209 311.472 257.454 315.294 257.552C317.206 257.611 319.097 257.895 320.93 258.552C321.156 258.63 321.165 258.963 320.94 259.051C315.971 261.022 311.217 262.766 306.267 264.589C298.093 267.402 291.467 274.116 288.615 282.32C288.536 282.585 288.086 282.506 288.135 282.212L288.144 282.222Z" fill="#5E5573"/>
<path d="M329.714 284.849C326.098 281.154 330.293 270.039 334.204 267.599C336.115 266.413 338.35 265.746 340.633 266.276C340.8 266.315 340.898 266.472 340.859 266.638C339.8 268.491 338.653 269.873 337.409 271.402C336.36 272.774 334.782 273.587 333.674 274.92C331.881 277.224 328.989 281.605 330.107 284.585C330.224 284.83 329.881 285.055 329.705 284.869V284.849H329.714Z" fill="#5E5573"/>
<path d="M357.451 279.507C356.383 277.763 355.001 276.341 354.09 274.479C353.56 273.421 352.845 272.264 353.227 271C353.57 269.667 354.629 268.343 356.158 268.304C356.315 268.304 356.442 268.402 356.481 268.549C356.854 269.98 357.285 270.568 357.481 271.254C357.589 271.588 357.598 271.911 357.5 272.284C357.246 273.117 357.373 273.969 357.52 274.852C357.549 275.302 358.461 280.34 357.442 279.507H357.451Z" fill="#5E5573"/>
<path d="M111.092 167.478C110.68 187.649 112.729 208.036 118.511 227.404C121.06 235.716 125.627 243.331 127.382 251.927C128.705 257.612 129.685 263.405 129.832 269.266C129.891 272.197 129.852 275.049 130.136 277.881C130.391 280.714 130.891 283.537 131.508 286.33C133.321 294.76 135.36 303.14 139.398 310.746C146.71 324.762 158.188 330.407 172.733 334.906C212.703 346.688 269.258 338.807 308.767 326.712C319.745 323.311 330.762 319.871 341.249 315.215C362.136 305.923 380.857 292.084 396.539 275.5C404.204 267.178 412.251 258.808 417.975 249.026C422.111 241.675 425.855 233.932 428.237 225.846C430.511 217.906 431.07 209.448 428.845 201.43C426.012 191.296 420.562 181.827 414.495 173.222L413.888 172.34L413.574 171.899L413.417 171.683C413.417 171.683 413.192 171.418 413.505 171.742L413.241 171.438C407.811 164.008 402.322 155.873 399.862 146.826C394.804 127.831 385.64 110.12 375.084 93.5948L374.701 93.0263C374.574 92.8205 374.466 92.7127 374.231 92.2912L374.349 92.4872C371.389 88.7431 365.41 81.0489 362.479 77.2656C362.401 77.1578 362.41 77.001 362.518 76.9225C362.626 76.8441 362.773 76.8539 362.861 76.9617C366.027 80.6177 372.29 87.9492 375.417 91.6247L375.535 91.8207C375.564 91.7619 375.721 92.0462 375.858 92.2128L376.26 92.7715C383.484 102.945 389.864 113.747 395.157 125.048C397.48 130.125 399.666 135.231 401.44 140.544C402.606 144.013 403.459 147.513 404.968 150.816C406.448 154.04 408.213 157.236 410.153 160.205C412.172 163.214 415.407 167.537 416.867 169.507C419.318 172.898 421.778 176.368 424.012 179.906C429.433 188.806 434.039 198.617 434.931 209.144C435.911 221.239 431.746 233.03 426.473 243.694C425.228 246.301 423.816 249.075 422.366 251.555C416.426 261.866 408.242 270.344 400.185 278.93C383.983 295.877 364.528 309.844 342.984 319.146C332.251 323.772 321.058 327.114 309.904 330.437C269.659 342.365 212.429 349.785 171.919 337.435C156.796 332.613 144.897 326.536 137.389 311.736C133.341 303.914 131.322 295.191 129.597 286.664C128.999 283.811 128.528 280.91 128.293 277.97C128.048 275.029 128.117 272.089 128.087 269.227C128.019 263.493 127.127 257.798 125.892 252.202C124.235 243.645 119.795 236.029 117.345 227.698C111.768 208.164 109.945 187.64 110.611 167.39C110.611 167.253 110.729 167.145 110.876 167.155C111.013 167.155 111.111 167.272 111.121 167.409L111.082 167.458V167.478H111.092Z" fill="#5E5573"/>
<path d="M362.301 77.1476C376.101 92.6143 387.432 110.247 396.233 129.007C399.184 135.241 401.105 141.965 403.702 148.306C407.809 157.696 413.307 166.507 419.914 174.349C422.168 177.005 424.461 179.729 426.147 182.817C427.843 185.953 429.019 189.276 429.999 192.648C433.9 206.242 432.263 220.709 428.353 234.088C425.334 244.145 420.257 253.583 413.797 261.856C407.427 270.167 400.036 277.46 392.685 284.84C380.247 297.043 365.819 307.109 350.412 315.185C338.13 321.723 324.771 326.153 311.51 330.074C298.248 334.112 284.742 337.464 271.079 339.885C247.173 344.315 222.601 345.482 198.352 343.374C187.884 342.512 177.269 340.924 167.389 337.209C161.606 335.288 155.51 332.544 150.678 328.564C138.005 318.361 130.702 302.718 128.429 286.859C127.762 280.841 127.233 274.725 126.968 268.687C126.684 261.934 125.841 255.22 123.714 248.859C115.569 229.707 111.237 209.075 109.767 188.355C109.335 181.494 108.659 174.427 110.07 167.625C110.1 167.497 110.237 167.409 110.364 167.438C110.492 167.468 110.57 167.595 110.551 167.723C110.257 169.399 110.149 171.114 110.129 172.829C110.276 184.826 112.129 196.813 114.471 208.575C116.53 218.631 119.205 228.59 122.93 238.136C124.194 241.381 125.714 244.39 126.988 247.683C128.262 251.064 129.056 254.505 129.752 257.965C131.242 266.57 131.163 275.186 132.418 283.782C134.378 300.042 142.151 316.528 155.755 326.104C159.842 329.054 164.223 330.77 169.104 332.436C175.475 334.788 181.974 336.19 188.698 337.121C222.601 341.718 257.239 339.336 290.515 331.505C310.392 326.555 330.475 321.321 348.794 311.99C363.967 304.218 378.228 294.455 390.519 282.605C397.831 275.411 405.28 268.178 411.573 260.111C417.904 252.143 422.893 243.076 425.912 233.353C429.803 220.405 431.626 206.419 427.99 193.216C427.088 189.962 425.99 186.728 424.432 183.777C422.834 180.788 420.688 178.171 418.512 175.554C411.896 167.507 406.417 158.49 402.359 148.894C399.811 142.445 398.017 135.829 395.136 129.536C392.323 123.273 389.147 117.157 385.756 111.178C378.973 99.2008 371.004 87.8998 361.967 77.4906C361.879 77.3828 361.889 77.2358 361.997 77.1378C362.105 77.0398 362.252 77.0594 362.35 77.1672L362.33 77.1868L362.301 77.1476Z" fill="#5E5573"/>
<path d="M198.825 343.307L169.626 364.88C169.626 364.88 155.894 373.466 162.246 390.118C164.226 394.784 167.803 401.184 174.262 406.712C178.369 410.231 184.779 415.71 193.522 415.661C198.452 415.631 202 413.848 207.871 410.897C215.085 407.271 220.29 403.115 223.534 400.204C226.651 417.719 229.768 435.234 232.875 452.75C232.973 454.092 233.649 461.924 240.363 467.207C244.833 470.725 249.626 471.235 251.527 471.343C251.527 471.343 298.574 476.841 296.173 458.297L294.281 438.381C299.946 439.9 307.052 441.184 315.276 441.282C333.849 441.488 348.287 435.45 356.265 431.304C359.96 432.51 363.891 434.019 367.968 435.92C380.514 441.782 389.943 449.27 396.618 455.719C396.618 455.719 415.162 470.49 432.501 449.535C435.157 447.3 438.852 443.654 441.881 438.292C444.282 434.039 449.271 425.227 446.272 416.719C444.87 412.76 442.361 410.623 437.451 406.447C433.981 403.497 429.364 400.243 417.426 394.754C412.183 392.343 405.214 389.364 396.794 386.355C397.804 382.003 398.676 377.112 399.215 371.731C400.117 362.792 399.882 354.833 399.215 348.237C409.134 343.022 417.152 338.229 422.876 334.652C422.876 334.652 449.016 318.313 469.031 294.927C470.168 293.603 472.344 290.967 473.53 286.948C475.392 280.607 473.608 274.736 472.344 271.56C469.501 265.738 466.414 261.435 464.12 258.612C459.622 253.055 456.397 249.183 450.908 247.664C446.968 246.576 443.439 247.135 441.312 247.664C421.651 258.72 409.958 265.297 409.958 265.297C409.958 265.297 404.283 271.462 395.461 281.058C386.816 289.654 373.643 301.082 355.511 311.128C341.014 319.166 329.537 322.88 314.541 327.644C292.987 334.495 262.789 341.738 226.112 343.267C214.928 343.738 205.539 343.571 198.825 343.316V343.307Z" fill="#C0B4DF"/>
<path d="M200.449 343.364C212.015 349.754 248.476 367.956 294.661 359.575C364.721 346.853 395.929 284.085 399.213 277.204C394.557 282.115 387.431 289.103 377.924 296.435C346.579 320.605 315.479 328.377 289.525 334.582C268.746 339.551 238.155 344.697 200.449 343.364Z" fill="#A394C5"/>
<path d="M225.658 412.014C225.403 413.072 222.835 423.109 213.063 427.157C205.183 430.421 195.832 428.461 189.402 422.168C193.303 431.038 201.762 436.772 210.809 436.733C221.12 436.684 227.501 429.156 228.412 428.039L225.648 412.023H225.658V412.014Z" fill="#C0B4DF"/>
<path d="M226.406 396.401C226.406 396.401 241.02 383.041 241.902 376.435C241.902 376.435 242.598 447.172 250.469 471.205C250.469 471.205 237.394 473.313 234.375 452.024L226.406 396.401Z" fill="#A394C5"/>
<path d="M204.106 340.885C192.923 350.471 183.308 357.292 176.584 361.752C167.468 367.809 163.979 369.319 162.332 374.063C158.177 386.06 171.84 401.115 174.045 403.536C177.27 407.084 179.799 409.867 183.935 411.661C199.245 418.297 217.387 402.957 218.74 401.781" stroke="#5E5573" stroke-width="5.88087" stroke-linecap="round" stroke-linejoin="round"/>
<path d="M246.917 368.132C243.252 377.561 237.969 386.402 231.235 393.988C228.696 396.86 226.148 399.82 223.149 402.251C218.033 406.181 212.103 409.083 205.624 410.073C205.34 410.122 205.144 409.749 205.359 409.543C207.212 407.691 209.103 406.074 210.966 404.447C212.965 402.79 217.346 398.958 219.336 397.448C224.217 393.851 228.991 390.107 233.029 385.549C238.116 380.159 242.497 374.239 246.378 367.877C246.545 367.583 247.045 367.809 246.908 368.142H246.917V368.132Z" fill="#5E5573"/>
<path d="M280.439 432.783C280.439 432.783 268.56 425.637 284.605 426.843C284.605 426.843 352.206 431.871 370.662 414.434C370.662 414.434 375.906 409.975 381.718 416.973C383.423 419.257 385.521 421.727 388.089 424.216C392.97 428.95 397.89 432.136 401.879 434.263C400.507 437.017 399.86 439.409 399.537 441.153C398.263 447.995 399.831 455.375 399.831 455.375C388.314 447.573 383.884 444.584 383.884 444.584C378.356 440.859 379.316 441.516 378.356 440.859C369.584 434.851 365.477 431.607 359.233 430.989C358.675 430.93 358.224 430.911 357.959 430.901C349.118 435.704 341.248 438.115 335.729 439.399C328.594 441.065 309.197 445.319 288.692 436.87C285.115 435.4 282.302 433.861 280.449 432.773H280.439V432.783Z" fill="#A394C5"/>
<path d="M405.084 429.294C406.789 425.736 410.583 418.062 419.365 413.641C425.824 410.387 437.693 407.515 443.231 413.043C450.22 420.012 444.211 437.361 435.459 447.29C427.098 456.777 411.514 464.824 404.31 459.394C397.292 454.102 400.909 438.027 405.074 429.304L405.084 429.294Z" fill="#C0B4DF"/>
<path d="M403.448 435.185C406.712 436.224 410.368 437.174 414.387 437.88C424.688 439.683 433.735 439.262 440.625 438.301C439.302 441.154 437.214 444.731 433.901 448.172C425.452 456.944 414.887 458.816 410.888 459.316C409.809 459.414 404.34 459.806 401.88 456.424C400.91 455.091 400.812 453.347 400.625 449.848C400.518 447.779 400.371 444.653 401.38 440.703C401.988 438.35 402.801 436.478 403.458 435.175H403.448V435.185Z" fill="#A394C5"/>
<path d="M405.976 269.119C410.661 266.139 416.826 262.238 424.148 257.661C426.186 256.387 430.901 253.946 436.997 250.584C441.447 248.134 446.485 245.605 451.396 246.928C454.287 247.713 456.669 249.751 458.619 252.025C460.864 254.642 462.638 257.612 464.373 260.592C466.314 263.924 468.195 267.276 470.087 270.638C472.704 275.284 473.606 277.823 473.792 280.361C474.145 285.193 471.714 289.212 469.675 292.074C452.366 316.391 411.71 339.856 411.71 339.856C406.231 343.012 401.771 345.462 399.213 346.844" stroke="#5E5573" stroke-width="4.90072" stroke-linecap="round" stroke-linejoin="round"/>
<path d="M395.45 335.984C399.518 345.011 401.419 355.136 401.027 365.065C400.841 370.113 400.635 375.317 398.655 380.061C396.724 384.776 393.98 389.196 390.069 392.568C389.853 392.754 389.491 392.548 389.559 392.264C390.069 389.745 390.726 387.412 391.314 385.089C392.892 378.316 395.156 371.367 396.332 364.653C397.008 359.958 397.195 355.205 396.979 350.461C396.793 345.678 396.018 340.904 394.881 336.17C394.793 335.847 395.303 335.651 395.44 335.974H395.45V335.984Z" fill="#5E5573"/>
<path d="M225.141 397.458C227.709 415.012 229.365 428.744 230.365 437.497C232.207 453.61 232.786 461.569 239.304 467.254C244.391 471.684 250.272 472.282 257.985 473.057C271.56 474.419 291.271 471.959 294.378 462.716C294.75 461.599 294.545 461.403 294.27 452.709C294.084 446.945 294.025 442.251 294.006 439.202" stroke="#5E5573" stroke-width="5.88087" stroke-linecap="round" stroke-linejoin="round"/>
<path d="M276.45 428.607C292.25 438.771 313.598 440.928 332.652 436.831C337.396 435.625 346.247 432.557 352.49 429.744C358.851 426.951 364.82 423.51 370.799 419.845L371.201 420.276C366.888 426.098 361.213 430.832 355.009 434.566C347.717 439.056 338.797 441.712 331.123 442.408C316.95 443.829 302.169 442.741 289.055 436.821C284.164 434.606 280.489 432.489 276.117 429.087L276.46 428.607H276.45Z" fill="#5E5573"/>
<path d="M358.293 430.558C360.596 431.323 363.762 432.45 367.418 434.057C370.633 435.469 374.946 437.38 379.503 440.428C383.541 443.124 385.541 445.221 388.129 447.505C391.686 450.641 400.704 458.6 407.78 460.109C424.11 463.579 449.897 436.909 445.163 419.326C443.752 414.092 439.743 410.044 436.832 407.093C432.715 402.938 428.883 400.801 417.405 395.185C410.878 391.989 403.919 388.667 396.558 385.266" stroke="#5E5573" stroke-width="5.88087" stroke-linecap="round" stroke-linejoin="round"/>
<path d="M416.984 459.385C413.24 460.983 408.839 461.297 404.84 460.356C395.94 458.484 397.293 445.526 398.508 438.773C400.282 429.236 405.634 420.239 413.456 414.397C418.268 410.614 424.355 407.781 430.638 407.81C434.431 407.722 438.724 408.379 441.635 411.221C447.173 416.465 447.212 425.159 445.173 431.736C445.399 423.934 443.311 412.848 433.95 412.603C427.697 412.368 421.797 414.936 417.023 418.984C408.516 425.551 403.664 435.715 402.253 446.271C401.89 449.31 401.606 452.485 402.762 455.259C403.478 457.161 405.173 457.807 407.114 458.454C410.28 459.532 413.593 459.768 416.984 459.376V459.385Z" fill="#5E5573"/>
<path d="M226.481 406.897C226.266 409.622 225.462 414.523 222.149 419.365C220.894 421.198 218.718 424.266 214.612 426.422C209.015 429.362 203.703 428.608 202.115 428.363C201.644 428.284 196.94 427.51 193.048 424.785C193.048 424.785 192.5 424.403 189.402 422.158C190.128 423.815 191.363 426.187 193.46 428.588C195.411 430.813 200.507 435.792 208.054 436.723C219.708 438.154 227.814 428.755 228.412 428.029" stroke="#5E5573" stroke-width="3.92058" stroke-linecap="round" stroke-linejoin="round"/>
<path d="M164.225 371.151C164.225 371.151 182.26 376.287 165.666 387.098C165.666 387.098 159.726 378.13 164.225 371.151Z" fill="white" stroke="#5E5573" stroke-width="5.88087" stroke-linecap="round" stroke-linejoin="round"/>
<path d="M167.382 388.833C167.382 388.833 185.74 384.991 176.066 402.281C176.066 402.281 166.637 397.106 167.382 388.833Z" fill="white" stroke="#5E5573" stroke-width="5.88087" stroke-linecap="round" stroke-linejoin="round"/>
<path d="M189.443 410.592C189.443 410.592 192.344 392.068 175.574 402.594C175.574 402.594 181.22 411.749 189.443 410.592Z" fill="white" stroke="#5E5573" stroke-width="5.88087" stroke-linecap="round" stroke-linejoin="round"/>
<path d="M245.213 467.882C245.213 467.882 255.681 452.327 260.827 471.449C260.827 471.449 250.457 474.321 245.213 467.882Z" fill="white" stroke="#5E5573" stroke-width="5.88087" stroke-linecap="round" stroke-linejoin="round"/>
<path d="M262.514 469.705C262.514 469.705 268.62 451.964 278.51 469.136C278.51 469.136 269.237 474.586 262.514 469.705Z" fill="white" stroke="#5E5573" stroke-width="5.88087" stroke-linecap="round" stroke-linejoin="round"/>
<path d="M293.446 462.56C293.446 462.56 280.047 449.436 278.881 469.205C278.881 469.205 289.613 469.921 293.446 462.56Z" fill="white" stroke="#5E5573" stroke-width="5.88087" stroke-linecap="round" stroke-linejoin="round"/>
<path d="M407.641 423.128C403.564 419.276 403.495 413.484 406.044 410.798C408.867 407.828 415.61 407.916 419.433 413.033C417.463 414.229 415.198 415.787 412.866 417.816C410.749 419.659 409.023 421.491 407.641 423.128Z" fill="white" stroke="#5E5573" stroke-width="5.88087" stroke-linecap="round" stroke-linejoin="round"/>
<path d="M422.119 400.262C420.315 401.32 419.502 403.849 419.433 405.633C419.326 408.436 420.806 410.475 421.374 411.19C422.805 410.622 425.01 409.838 427.784 409.299C432.851 408.309 435.018 409.034 435.41 408.113C436.292 405.996 426.833 397.478 422.119 400.262Z" fill="white" stroke="#5E5573" stroke-width="5.88087" stroke-linecap="round" stroke-linejoin="round"/>
<path d="M457.64 255.681C441.076 266.531 443.614 247.958 443.614 247.958C451.808 246.644 457.64 255.681 457.64 255.681Z" fill="white" stroke="#5E5573" stroke-width="5.88087" stroke-linecap="round" stroke-linejoin="round"/>
<path d="M467.371 271.305C447.65 273.216 458.549 257.945 458.549 257.945C466.42 260.582 467.371 271.305 467.371 271.305Z" fill="white" stroke="#5E5573" stroke-width="5.88087" stroke-linecap="round" stroke-linejoin="round"/>
<path d="M467.853 270.981C451.474 282.115 469.607 286.898 469.607 286.898C473.969 279.832 467.853 270.981 467.853 270.981Z" fill="white" stroke="#5E5573" stroke-width="5.88087" stroke-linecap="round" stroke-linejoin="round"/>
</svg>
