<svg width="65" height="65" viewBox="0 0 65 65" fill="none" xmlns="http://www.w3.org/2000/svg">
<g filter="url(#filter0_i_1561_6178)">
<rect x="65" width="65" height="65" rx="32.5" transform="rotate(90 65 0)" fill="#FAC0D8" fill-opacity="0.7"/>
<path fill-rule="evenodd" clip-rule="evenodd" d="M34.0466 39.8534V35.5928H27.5744C26.8869 35.5913 26.2063 35.7308 25.5748 36.0027C24.9433 36.2746 24.3742 36.6732 23.9029 37.1737C23.4315 37.6743 23.0678 38.2662 22.8342 38.9129C22.6006 39.5595 22.5021 40.2472 22.5449 40.9335C22.5876 41.6197 22.7706 42.2899 23.0826 42.9026C23.3946 43.5153 23.8289 44.0575 24.3588 44.4957C24.8886 44.9339 25.5027 45.2588 26.1631 45.4503C26.8234 45.6418 27.5161 45.6958 28.1981 45.609L29.0601 45.5006C30.4362 45.328 31.7019 44.6593 32.62 43.6199C33.5381 42.5804 34.0453 41.2402 34.0466 39.8534Z" fill="#4C4C4C"/>
<path d="M34.0461 26.3092V25.3636C34.0461 22.858 34.0461 21.606 34.7797 20.7409C35.5133 19.8757 36.7483 19.6684 39.2183 19.2552L42.8675 18.6485C43.078 18.6144 43.1833 18.5959 43.239 18.6578C43.2947 18.7197 43.2699 18.8218 43.2188 19.0292L41.8337 24.5712C41.8105 24.6641 41.7981 24.7105 41.7656 24.7415C41.7331 24.7724 41.6883 24.7817 41.5938 24.8003L34.0461 26.3092ZM34.0461 26.3092V35.5949M34.0461 35.5949V39.8555C34.0456 41.2429 33.5387 42.5823 32.6206 43.6224C31.7024 44.6625 30.4362 45.3317 29.0597 45.5043L28.1977 45.6127C27.5164 45.6977 26.825 45.6423 26.1659 45.4499C25.5069 45.2574 24.8943 44.9321 24.3658 44.4939C23.8372 44.0557 23.4041 43.514 23.0929 42.902C22.7818 42.29 22.5993 41.6208 22.5566 40.9356C22.5139 40.2504 22.612 39.5637 22.8449 38.9178C23.0777 38.272 23.4403 37.6807 23.9104 37.1803C24.3805 36.6799 24.9481 36.2811 25.5781 36.0085C26.2082 35.7358 26.8874 35.5951 27.574 35.5949H34.0461Z" stroke="#4C4C4C" stroke-width="3.09524"/>
</g>
<defs>
<filter id="filter0_i_1561_6178" x="0" y="0" width="65" height="69" filterUnits="userSpaceOnUse" color-interpolation-filters="sRGB">
<feFlood flood-opacity="0" result="BackgroundImageFix"/>
<feBlend mode="normal" in="SourceGraphic" in2="BackgroundImageFix" result="shape"/>
<feColorMatrix in="SourceAlpha" type="matrix" values="0 0 0 0 0 0 0 0 0 0 0 0 0 0 0 0 0 0 127 0" result="hardAlpha"/>
<feOffset dy="4"/>
<feGaussianBlur stdDeviation="12.5"/>
<feComposite in2="hardAlpha" operator="arithmetic" k2="-1" k3="1"/>
<feColorMatrix type="matrix" values="0 0 0 0 0.921569 0 0 0 0 0.647059 0 0 0 0 0.8 0 0 0 0.5 0"/>
<feBlend mode="normal" in2="shape" result="effect1_innerShadow_1561_6178"/>
</filter>
</defs>
</svg>
