<svg width="65" height="65" viewBox="0 0 65 65" fill="none" xmlns="http://www.w3.org/2000/svg">
<circle cx="32.5" cy="32.5" r="32.5" fill="#AEAEAE"/>
<path fill-rule="evenodd" clip-rule="evenodd" d="M34.0483 39.8544V35.5938H27.5761C26.8886 35.5922 26.208 35.7318 25.5765 36.0037C24.945 36.2756 24.376 36.6742 23.9046 37.1747C23.4332 37.6753 23.0695 38.2672 22.8359 38.9138C22.6023 39.5605 22.5039 40.2482 22.5466 40.9345C22.5893 41.6207 22.7723 42.2909 23.0843 42.9036C23.3963 43.5163 23.8307 44.0585 24.3605 44.4967C24.8903 44.9349 25.5044 45.2598 26.1648 45.4513C26.8251 45.6427 27.5178 45.6967 28.1998 45.61L29.0619 45.5016C30.4379 45.329 31.7037 44.6603 32.6217 43.6208C33.5398 42.5814 34.047 41.2412 34.0483 39.8544Z" fill="#4C4C4C"/>
<path d="M34.0481 26.3093V25.3637C34.0481 22.8581 34.0481 21.6061 34.7816 20.741C35.5152 19.8759 36.7502 19.6685 39.2202 19.2553L42.8695 18.6486C43.08 18.6146 43.1852 18.596 43.2409 18.6579C43.2966 18.7198 43.2719 18.8219 43.2208 19.0293L41.8357 24.5713C41.8125 24.6642 41.8001 24.7106 41.7676 24.7416C41.7351 24.7725 41.6902 24.7818 41.5958 24.8004L34.0481 26.3093ZM34.0481 26.3093V35.595M34.0481 35.595V39.8556C34.0475 41.243 33.5406 42.5824 32.6225 43.6225C31.7044 44.6626 30.4382 45.3318 29.0616 45.5044L28.1996 45.6128C27.5184 45.6978 26.8269 45.6424 26.1679 45.45C25.5089 45.2576 24.8962 44.9323 24.3677 44.4941C23.8392 44.0559 23.406 43.5141 23.0949 42.9021C22.7837 42.2901 22.6012 41.6209 22.5585 40.9357C22.5159 40.2505 22.614 39.5638 22.8468 38.918C23.0797 38.2721 23.4423 37.6808 23.9124 37.1804C24.3824 36.6801 24.95 36.2813 25.5801 36.0086C26.2101 35.7359 26.8894 35.5952 27.5759 35.595H34.0481Z" stroke="#4C4C4C" stroke-width="3.09524"/>
</svg>
