<svg width="234" height="399" viewBox="0 0 234 399" fill="none" xmlns="http://www.w3.org/2000/svg">
<path d="M119.432 385.766C132.639 382.557 144.293 374.149 151.103 362.322C153.099 358.862 154.637 355.157 155.761 351.33C156.126 350.1 154.173 349.667 153.809 350.897C149.645 365.021 139.097 376.429 125.405 381.784C123.253 382.619 121.05 383.318 118.81 383.857C117.554 384.162 118.178 386.062 119.422 385.764L119.432 385.766Z" fill="#231F20"/>
<path d="M125.346 392.55C138.553 389.341 150.207 380.933 157.017 369.106C159.013 365.645 160.551 361.94 161.675 358.113C162.04 356.883 160.087 356.45 159.723 357.68C155.559 371.804 145.011 383.213 131.319 388.567C129.167 389.402 126.964 390.102 124.724 390.64C123.468 390.945 124.092 392.845 125.336 392.547L125.346 392.55Z" fill="#231F20"/>
<path d="M97.1367 193.522C97.1367 193.522 102.817 210.372 121.197 198.932C117.477 198.452 113.447 197.772 109.167 196.812C104.787 195.832 100.767 194.702 97.1367 193.522Z" fill="#F4D4BC" stroke="#DD886D" stroke-miterlimit="10"/>
<path d="M51.9648 289.303L61.3849 241.203C61.3849 241.203 65.1548 237.773 69.4548 244.733C72.4948 249.043 77.6249 255.323 85.4849 261.053C95.1849 268.133 104.235 270.843 112.535 273.333C118.895 275.243 128.005 277.403 139.305 278.203C138.755 281.913 137.715 286.043 136.605 290.613C135.085 296.853 135.754 297.75 134.414 298.03C134.414 298.03 100.544 306.34 94.9141 299L90.3249 282.473L89.5549 278.843L83.7849 273.923C85.7049 275.563 87.6249 277.203 89.5549 278.843C89.8149 280.053 90.0649 281.263 90.3249 282.473C78.9141 280.5 83.4141 297.03 82.9141 298.03C83.2841 291.6 81.9741 311.42 73.4141 298.03C70.6041 293.63 64.2641 295.62 61.4141 293L51.9648 289.303Z" fill="#D6C2CE"/>
<path d="M90.3249 282.473L94.9141 299C100.544 306.34 134.414 298.03 134.414 298.03C135.754 297.75 135.085 296.853 136.605 290.613C137.715 286.043 138.755 281.913 139.305 278.203C128.005 277.403 118.895 275.243 112.535 273.333C104.235 270.843 95.1849 268.133 85.4849 261.053C77.6249 255.323 72.4948 249.043 69.4548 244.733C65.1548 237.773 61.3849 241.203 61.3849 241.203L51.9648 289.303L61.4141 293C64.2641 295.62 70.6041 293.63 73.4141 298.03C81.9741 311.42 83.2841 291.6 82.9141 298.03C83.4141 297.03 78.9141 280.5 90.3249 282.473ZM90.3249 282.473L89.5549 278.843M90.3249 282.473C90.0649 281.263 89.8149 280.053 89.5549 278.843M89.5549 278.843L83.7849 273.923C85.7049 275.563 87.6249 277.203 89.5549 278.843Z" stroke="#533C49" stroke-linecap="round" stroke-linejoin="round"/>
<path d="M96.868 189.302C96.378 187.072 95.248 185.432 94.398 184.412L64.048 179.952C64.048 179.952 56.918 207.522 57.018 211.012L73.088 215.122L77.088 202.912L69.598 228.232C69.598 228.232 62.2241 230.53 65.4141 235.5C65.4141 235.5 52.7372 248.52 58.4172 253.5C58.4172 253.5 65.348 256.5 68.9154 258.5C68.9154 258.5 87.178 266.372 98.368 269.122C98.368 269.122 148.388 287.882 144.838 271.952C144.838 271.952 150.748 257.642 149.668 229.152H146.328L163.798 225.992C163.798 225.992 165.758 226.582 165.478 221.092L161.318 194.002C161.318 194.002 161.128 191.942 156.708 192.812C153.668 192.472 135.348 190.432 128.248 190.942C126.828 191.042 126.008 191.232 125.208 191.642C122.088 193.242 122.458 196.462 118.878 199.572C117.368 200.892 115.718 201.682 115.538 201.782C114.988 202.072 114.328 202.352 113.478 202.582C112.998 202.712 106.268 204.432 101.258 200.242C100.648 199.732 97.668 197.242 97.158 193.512C96.948 191.962 97.278 191.122 96.878 189.292L96.868 189.302Z" fill="#FBFAF9" stroke="#231F20" stroke-miterlimit="10"/>
<path d="M90.875 191.652L97.135 193.522C97.135 193.522 103.065 210.892 121.195 198.932H129.115C127.945 200.762 125.065 204.732 119.765 207.222C118.205 207.952 110.955 211.132 102.895 207.982C101.145 207.292 95.495 204.992 92.575 198.942C91.175 196.052 90.905 193.342 90.875 191.662V191.652Z" fill="#D6C2CE" stroke="#533C49" stroke-miterlimit="10"/>
<path d="M160.566 193.042C160.566 193.042 167.486 189.662 168.236 193.522C168.236 193.522 174.626 216.312 171.536 224.042C171.536 224.042 169.656 227.412 164.976 225.202C164.406 218.632 163.606 211.742 162.526 204.572C161.926 200.612 161.266 196.762 160.566 193.032V193.042Z" fill="#D6C2CE" stroke="#533C49" stroke-miterlimit="10"/>
<path d="M64.0457 179.953C64.0457 179.953 61.6357 176.423 57.0157 177.693C57.0157 177.693 46.5757 205.433 50.8057 209.353C50.8057 209.353 53.7957 211.073 57.0157 211.013C58.0057 205.603 59.1557 199.993 60.4757 194.213C61.6057 189.283 62.8057 184.533 64.0357 179.953" fill="#D6C2CE"/>
<path d="M64.0457 179.953C64.0457 179.953 61.6357 176.423 57.0157 177.693C57.0157 177.693 46.5757 205.433 50.8057 209.353C50.8057 209.353 53.7957 211.073 57.0157 211.013C58.0057 205.603 59.1557 199.993 60.4757 194.213C61.6057 189.283 62.8057 184.533 64.0357 179.953" stroke="#533C49" stroke-miterlimit="10"/>
<path d="M48.8539 287C48.8539 287 44.1473 290 46.6446 295.5C46.6446 295.5 71.4743 311.457 83.0919 305.117C83.6445 302.5 83.7009 300.106 83.9141 297.5C84.4141 297 81.2993 296.883 80.5696 296.995C76.6104 296.73 72.0221 296.076 67.0143 294.708C59.6663 292.707 53.5597 289.767 48.8539 287Z" fill="#D6C2CE" stroke="#533C49" stroke-linecap="round" stroke-linejoin="round"/>
<path d="M26.407 338.88C29.3729 335.905 32.3062 333.628 33.9147 333.47C33.9147 333.47 42.2229 330.239 41.4253 324.97C41.4253 324.97 50.4141 295.5 50.9149 298.5C50.9149 298.5 62.9141 307 75.9144 307.501C75.9144 307.501 66.4316 335.375 68.7544 339.279C69.9264 343.512 68.8971 345.594 65.9702 349.97C57.5154 362.606 24.4919 359.781 21.0748 348.085C20.1045 344.745 23.1109 342.191 26.407 338.88Z" fill="#F4D4BC" stroke="#DD886D" stroke-miterlimit="10"/>
<path d="M15.9125 365.431C27.9761 371.691 42.2863 373.013 55.1912 368.573C58.9694 367.276 62.5634 365.494 65.9262 363.348C67.0096 362.661 65.8221 361.052 64.7387 361.739C52.3188 369.649 36.8713 371.316 23.0315 366.355C20.8615 365.57 18.7406 364.649 16.6989 363.583C15.5515 362.988 14.7731 364.83 15.9066 365.423L15.9125 365.431Z" fill="#231F20"/>
<path d="M15.9125 374.431C27.9761 380.691 42.2863 382.013 55.1912 377.573C58.9694 376.276 62.5634 374.494 65.9262 372.348C67.0096 371.661 65.8221 370.052 64.7387 370.739C52.3188 378.649 36.8713 380.316 23.0315 375.355C20.8615 374.57 18.7406 373.649 16.6989 372.583C15.5515 371.988 14.7731 373.83 15.9066 374.423L15.9125 374.431Z" fill="#231F20"/>
<path d="M168.237 193.523L194.787 187.223C194.787 187.223 198.667 186.913 197.167 179.953C196.367 175.683 198.087 172.323 200.187 171.823C201.947 171.403 204.127 172.963 205.187 174.713C206.827 177.433 205.457 180.133 206.527 180.763C207.287 181.223 209.077 180.473 213.317 176.023C213.937 175.183 216.527 171.853 220.547 171.653C221.337 171.613 223.527 171.513 224.397 172.773C225.407 174.243 224.427 177.253 221.507 179.943C218.557 182.413 217.227 183.893 217.517 184.373C217.757 184.763 219.037 184.503 221.367 183.603C226.127 181.643 230.297 181.823 231.917 183.943C232.017 184.073 232.717 185.023 232.597 186.153C232.287 189.023 226.827 191.333 219.297 192.243C220.487 192.143 228.357 191.533 231.307 194.613C231.737 195.063 232.657 196.013 232.567 197.233C232.477 198.503 231.327 199.343 230.807 199.733C227.337 202.293 220.357 200.083 219.277 199.733C221.617 201.063 223.957 202.393 226.297 203.723C227.587 204.483 228.347 205.733 228.137 206.723C227.857 208.043 225.737 209.243 223.337 208.363C219.997 207.493 216.667 206.623 213.327 205.743C213.327 205.743 181.587 221.773 172.377 219.913C172.227 215.223 171.747 209.893 170.697 204.093C170.007 200.263 169.147 196.723 168.227 193.523H168.237Z" fill="#F4D4BC" stroke="#DD886D" stroke-linecap="round" stroke-linejoin="round"/>
<path d="M206.456 184.223C207.936 185.673 209.356 187.263 210.476 189.013C211.086 189.973 211.286 190.903 211.276 192.043C211.276 193.123 211.236 194.193 211.216 195.273C211.206 195.913 212.206 195.913 212.216 195.273C212.266 193.063 212.636 190.663 211.436 188.683C210.236 186.703 208.736 185.063 207.156 183.513C206.696 183.063 205.986 183.773 206.446 184.223H206.456Z" fill="#DD886D"/>
<path d="M56.5457 178.962C50.7757 175.012 45.0157 171.052 39.2457 167.102C39.2457 167.102 35.8257 165.252 40.0157 159.492C42.4757 155.912 42.2657 152.142 40.5457 150.832C39.1057 149.742 36.4757 150.282 34.8057 151.452C32.2057 153.272 32.3657 156.292 31.1257 156.442C30.2457 156.552 28.9057 155.142 26.8357 149.362C26.6157 148.342 25.5857 144.242 21.9857 142.442C21.2757 142.092 19.3157 141.102 18.0057 141.912C16.4857 142.842 16.1657 146.002 17.7457 149.632C19.4457 153.092 20.0657 154.972 19.5957 155.292C19.2257 155.552 18.1557 154.792 16.3857 153.022C12.8257 149.302 8.9357 147.772 6.6057 149.062C6.4657 149.142 5.43569 149.722 5.09569 150.802C4.21569 153.552 8.27569 157.872 14.7857 161.762C13.7357 161.182 6.78569 157.442 2.84569 159.062C2.27569 159.292 1.04573 159.802 0.635727 160.942C0.205727 162.142 0.905702 163.372 1.2357 163.942C3.3757 167.692 10.6557 168.492 11.7757 168.602C9.09568 168.872 6.42571 169.142 3.74571 169.412C2.25571 169.592 1.05569 170.422 0.845687 171.412C0.565687 172.732 2.01573 174.692 4.57573 174.862C7.97573 175.412 11.3857 175.972 14.7857 176.522C17.6057 180.642 21.6257 185.642 27.1957 190.532C35.5657 197.872 43.9857 201.922 49.8457 204.172C50.3857 200.072 51.1057 196.702 51.7257 194.222C52.4757 191.212 53.2357 188.822 54.1257 186.042C55.0457 183.152 55.8957 180.742 56.5357 178.972L56.5457 178.962Z" fill="#F4D4BC" stroke="#DD886D" stroke-linecap="round" stroke-linejoin="round"/>
<path d="M29.4852 158.692C27.3752 159.482 25.1852 160.432 23.3552 161.752C22.4852 162.382 21.8852 163.152 21.4352 164.142C20.9452 165.242 20.4952 166.362 20.0252 167.472C19.7752 168.062 20.7452 168.322 20.9852 167.742C21.4052 166.732 21.8152 165.722 22.2652 164.722C22.7152 163.722 23.2252 163.032 24.1052 162.452C25.8352 161.292 27.7952 160.392 29.7452 159.662C30.3452 159.442 30.0852 158.472 29.4752 158.702L29.4852 158.692Z" fill="#DD886D"/>
<path d="M56.0139 94.4624C52.4239 109.892 50.084 122.682 48.504 132.722C48.454 133.052 48.3939 133.412 48.3339 133.842C48.3339 133.842 48.274 134.242 48.224 134.642C48.164 135.072 47.1439 146.032 49.6539 154.802C53.7439 169.052 68.254 180.102 70.694 181.912C82.944 191.012 94.884 193.562 107.044 196.152C119.444 198.792 130.694 201.202 144.914 198.122C150.694 196.872 166.224 193.512 176.654 180.832C181.984 174.352 184.384 167.372 186.994 159.802C189.244 153.272 190.434 147.372 192.094 139.362C193.464 132.742 194.364 127.192 194.934 123.292C195.814 117.282 198.684 94.2325 185.624 74.9424C171.644 54.2924 146.954 49.2724 138.044 47.4624C129.784 45.7824 103.994 40.5524 82.474 54.7324C63.724 67.0924 57.5839 87.7524 56.0239 94.4524L56.0139 94.4624Z" fill="#F4D4BC" stroke="#DD886D" stroke-miterlimit="10"/>
<path d="M48.6847 143.303C46.6047 142.143 41.9347 139.153 39.3547 133.323C38.7047 131.873 34.9947 123.033 39.7647 116.413C40.2047 115.803 44.4147 110.123 49.3647 111.403C53.0647 112.363 55.9347 116.873 55.4447 122.333" fill="#F4D4BC"/>
<path d="M48.6847 143.303C46.6047 142.143 41.9347 139.153 39.3547 133.323C38.7047 131.873 34.9947 123.033 39.7647 116.413C40.2047 115.803 44.4147 110.123 49.3647 111.403C53.0647 112.363 55.9347 116.873 55.4447 122.333" stroke="#DD886D" stroke-miterlimit="10"/>
<path d="M48.606 129.692C50.336 126.302 42.496 119.892 44.106 117.512C44.446 117.012 45.0861 116.852 45.5661 116.792C45.5661 116.792 47.056 116.182 48.666 116.832C52.446 118.362 52.5061 124.852 52.5061 125.232C52.4561 130.302 49.206 135.552 46.916 135.332C45.816 135.232 44.7361 133.832 44.8761 132.752C45.0761 131.172 47.7561 131.392 48.6261 129.692H48.606Z" fill="url(#paint0_radial_2788_2601)"/>
<path d="M51.3151 134.923C52.6751 132.053 52.8251 128.783 51.9151 125.763C51.0051 122.743 49.1951 120.183 47.1351 117.873C46.2751 116.913 44.8651 118.333 45.7251 119.283C49.2251 123.193 52.065 128.703 49.595 133.913C49.045 135.073 50.7651 136.083 51.3251 134.923H51.3151Z" fill="#DD886D"/>
<path d="M184.094 165.793C186.474 165.863 192.014 165.673 197.214 161.983C198.514 161.063 206.214 155.363 205.504 147.243C205.434 146.493 204.724 139.463 199.814 138.033C196.144 136.963 191.374 139.383 189.004 144.313" fill="#F4D4BC"/>
<path d="M184.094 165.793C186.474 165.863 192.014 165.673 197.214 161.983C198.514 161.063 206.214 155.363 205.504 147.243C205.434 146.493 204.724 139.463 199.814 138.033C196.144 136.963 191.374 139.383 189.004 144.313" stroke="#DD886D" stroke-miterlimit="10"/>
<path d="M191.115 154.133C191.355 150.333 201.375 148.833 201.205 145.963C201.165 145.363 200.705 144.903 200.315 144.603C200.315 144.603 199.345 143.313 197.635 143.053C193.605 142.433 190.235 147.983 190.045 148.313C187.495 152.693 187.615 158.873 189.695 159.853C190.695 160.323 192.335 159.683 192.775 158.683C193.405 157.223 190.995 156.043 191.115 154.143V154.133Z" fill="url(#paint1_radial_2788_2601)"/>
<path d="M188.113 157.243C188.343 154.663 189.733 152.293 191.603 150.543C193.653 148.623 196.283 147.473 198.933 146.643C200.153 146.263 199.633 144.333 198.403 144.713C195.363 145.663 192.383 147.023 190.063 149.253C187.743 151.483 186.393 154.183 186.113 157.243C186.063 157.783 186.603 158.243 187.113 158.243C187.693 158.243 188.063 157.783 188.113 157.243Z" fill="#DD886D"/>
<path d="M38.745 117.142C38.555 117.022 39.315 115.232 43.015 108.652C43.015 108.652 32.265 107.472 30.625 101.892C30.625 101.892 40.245 99.8424 41.885 93.5124C41.885 93.5124 36.705 85.5124 43.385 77.8824C43.385 77.8824 36.875 76.2924 34.915 92.3624C34.915 92.3624 26.265 80.9824 47.105 70.4624C47.105 70.4624 33.845 69.2524 35.575 58.8824C35.575 58.8824 42.935 68.3424 50.665 56.1024C50.665 56.1024 53.705 51.9724 59.785 50.2924C59.785 50.2924 78.475 -8.80756 150.635 5.82244C150.635 5.82244 210.965 15.3424 202.835 83.3724C202.835 83.3724 213.825 85.0624 215.595 92.3824C215.595 92.3824 218.095 96.8624 226.035 95.0424C226.035 95.0424 223.815 102.962 211.305 101.702C211.305 101.702 224.445 111.612 215.525 125.612C215.525 125.612 215.325 105.802 206.385 106.582C206.385 106.582 216.715 103.512 209.355 126.072C209.355 126.072 207.005 136.472 217.995 133.812C217.995 133.812 214.895 140.882 204.675 136.002C204.675 136.002 203.045 140.442 212.565 140.612C212.565 140.612 212.425 144.082 205.295 144.312C205.165 143.822 203.795 139.142 199.815 138.002C197.205 137.252 194.875 138.432 193.505 139.142C189.045 141.472 187.735 145.142 184.805 149.332C182.855 152.132 179.655 155.902 174.385 159.602C177.815 145.512 178.765 137.632 179.085 133.522C179.195 132.102 179.545 126.862 178.395 126.582C177.965 126.482 177.625 127.132 176.725 127.822C174.735 129.332 171.445 129.902 170.565 128.912C169.285 127.472 173.905 123.672 174.945 116.432C175.475 112.742 175.075 108.172 173.515 107.732C171.395 107.132 167.805 114.342 167.105 113.952C166.595 113.672 169.035 110.142 169.035 105.492C169.035 99.6224 165.145 94.6424 164.105 94.9624C163.395 95.1824 164.465 97.7524 163.125 101.272C161.935 104.402 159.415 106.772 158.695 106.392C157.935 106.002 159.905 103.002 159.295 99.0624C158.515 93.9924 153.905 90.2324 152.915 90.8024C151.475 91.6324 157.795 101.472 154.145 105.602C153.385 106.462 151.955 107.342 151.205 106.932C150.325 106.452 150.925 104.532 150.585 102.812C150.205 100.932 148.535 98.5324 142.755 96.3424C141.045 95.7324 138.665 94.7924 135.945 93.4124C129.455 90.1124 125.745 86.6924 125.435 87.0324C124.825 87.7024 139.385 100.512 138.065 102.282C137.265 103.352 130.855 100.122 126.845 97.6524C120.595 93.8124 116.815 89.7924 116.535 90.0824C116.075 90.5324 126.325 100.212 125.215 101.612C124.365 102.692 116.185 99.7624 110.995 93.2024C107.765 89.1124 106.445 84.5724 104.955 84.8824C103.885 85.1024 103.585 87.6324 103.485 88.4124C102.625 95.5824 107.655 100.782 106.795 101.512C106.045 102.142 100.845 99.3024 98.365 93.8824C95.515 87.6424 98.165 82.1524 96.375 81.4624C94.775 80.8424 90.955 84.5224 90.185 88.7924C89.495 92.6424 91.545 95.5324 90.955 95.8424C90.245 96.2124 86.685 92.3424 84.675 87.1424C83.215 83.3524 82.355 78.3024 82.355 78.3024C83.755 75.3024 80.105 84.9225 77.485 86.9425C74.945 88.9025 73.255 87.9224 71.605 90.0724C69.895 92.2924 70.365 95.0624 69.765 95.0924C69.255 95.1224 68.515 93.1424 68.355 90.9624C67.965 85.6924 71.235 82.2124 70.575 81.6724C69.955 81.1724 65.985 83.3624 63.985 87.4924C61.265 93.1124 63.635 99.3424 61.995 99.8724C61.055 100.182 60.145 98.1924 59.225 98.5124C59.225 98.5124 57.975 98.9424 58.875 110.552C58.875 110.552 57.835 110.032 56.215 109.232C56.855 112.872 57.345 117.532 57.105 122.922C56.855 128.662 55.845 133.512 54.805 137.222C53.695 134.712 52.655 131.202 53.535 127.412C54.195 124.572 55.385 123.912 55.565 121.252C55.785 118.002 54.395 113.442 50.815 111.922C47.895 110.682 44.875 112.052 44.105 112.402C40.555 114.012 39.035 117.252 38.765 117.082L38.745 117.142Z" fill="#261607"/>
<path d="M102.996 178.906C106.246 178.663 108.598 174.693 108.249 170.039C107.901 165.385 104.985 161.81 101.735 162.053C98.4857 162.296 96.1339 166.266 96.4822 170.92C96.8305 175.573 99.747 179.149 102.996 178.906Z" fill="#3C2415"/>
<path d="M96.8254 149.773C98.2554 151.053 99.7854 152.243 101.385 153.303C101.805 153.583 102.455 153.633 102.925 153.503C103.395 153.373 103.895 153.013 104.125 152.583C104.375 152.123 104.495 151.553 104.325 151.043C104.155 150.533 103.855 150.153 103.405 149.843C102.695 149.373 102.005 148.873 101.325 148.353L101.725 148.663C101.015 148.113 100.315 147.533 99.6454 146.933C99.2454 146.583 98.7754 146.343 98.2354 146.343C97.7454 146.343 97.1554 146.563 96.8254 146.933C96.4954 147.303 96.2154 147.813 96.2354 148.343C96.2554 148.873 96.4254 149.403 96.8254 149.753V149.773Z" fill="#EE978B"/>
<path d="M80.3659 95.3726C73.5959 95.8026 70.2559 96.1026 66.4259 98.7126C64.9959 99.6926 62.8259 101.483 60.6659 104.823C60.6359 105.103 60.6259 105.483 60.7959 105.693C61.2859 106.283 62.7259 104.823 64.4759 103.843C64.4759 103.843 65.6858 103.163 68.9058 102.493C75.9758 101.043 89.4159 106.353 91.0459 101.883C91.5659 100.463 90.7458 98.4626 90.2158 97.5726C89.3858 96.1626 87.7359 94.9026 80.3559 95.3726H80.3659Z" fill="#261607"/>
<path d="M76.3749 143.532C84.8856 143.532 91.7849 136.633 91.7849 128.122C91.7849 119.612 84.8856 112.712 76.3749 112.712C67.8642 112.712 60.9648 119.612 60.9648 128.122C60.9648 136.633 67.8642 143.532 76.3749 143.532Z" fill="#F7F6F3"/>
<path d="M61.574 126.902C62.944 119.212 70.224 113.632 78.064 115.022C85.904 116.412 91.304 124.082 89.714 131.992C89.334 133.882 92.224 134.682 92.604 132.792C94.034 125.702 90.984 118.102 84.724 114.332C78.464 110.562 70.104 111.162 64.484 115.992C61.474 118.572 59.374 122.212 58.684 126.112C58.344 128.002 61.234 128.812 61.574 126.912V126.902Z" fill="#3C2415"/>
<path d="M73.3353 142.163C79.6258 142.163 84.7253 137.063 84.7253 130.773C84.7253 124.482 79.6258 119.383 73.3353 119.383C67.0447 119.383 61.9453 124.482 61.9453 130.773C61.9453 137.063 67.0447 142.163 73.3353 142.163Z" fill="#3C2415"/>
<path d="M73.5655 139.372C78.0155 139.039 81.344 135.041 80.9998 130.442C80.6556 125.843 76.7692 122.385 72.3192 122.718C67.8692 123.051 64.5407 127.049 64.8849 131.648C65.229 136.247 69.1155 139.705 73.5655 139.372Z" fill="black"/>
<path d="M68.6453 130.523C70.8268 130.523 72.5953 128.754 72.5953 126.573C72.5953 124.391 70.8268 122.623 68.6453 122.623C66.4637 122.623 64.6953 124.391 64.6953 126.573C64.6953 128.754 66.4637 130.523 68.6453 130.523Z" fill="#F7F6F3"/>
<path d="M156.945 106.053C149.675 104.033 146.045 103.123 141.065 104.473C139.205 104.973 136.265 106.073 132.775 108.803C132.645 109.083 132.495 109.483 132.595 109.763C132.895 110.563 134.945 109.563 137.145 109.163C137.145 109.163 138.675 108.883 142.295 109.363C150.255 110.413 162.455 120.923 165.815 116.813C166.885 115.503 166.745 113.103 166.515 111.973C166.155 110.183 164.885 108.253 156.945 106.053Z" fill="#261607"/>
<path d="M140.777 156.203C150.254 156.203 157.937 148.52 157.937 139.043C157.937 129.566 150.254 121.883 140.777 121.883C131.3 121.883 123.617 129.566 123.617 139.043C123.617 148.52 131.3 156.203 140.777 156.203Z" fill="#F7F6F3"/>
<path d="M125.566 132.163C128.756 126.453 135.396 122.873 141.946 123.873C148.496 124.873 154.176 130.023 155.486 136.703C156.256 140.623 155.506 144.753 153.476 148.183C152.496 149.853 155.086 151.363 156.066 149.693C160.266 142.573 159.486 133.173 153.886 127.033C148.286 120.893 139.936 119.133 132.626 122.143C128.556 123.823 125.126 126.793 122.976 130.643C122.036 132.333 124.626 133.843 125.566 132.153V132.163Z" fill="#3C2415"/>
<path d="M136.594 153.402C143.597 153.402 149.274 147.725 149.274 140.723C149.274 133.72 143.597 128.042 136.594 128.042C129.591 128.042 123.914 133.72 123.914 140.723C123.914 147.725 129.591 153.402 136.594 153.402Z" fill="#3C2415"/>
<path d="M144.845 143.229C146.162 138.27 143.336 133.216 138.532 131.939C133.728 130.663 128.766 133.648 127.448 138.607C126.131 143.565 128.957 148.62 133.761 149.896C138.565 151.173 143.527 148.188 144.845 143.229Z" fill="black"/>
<path d="M133.205 138.992C135.635 138.992 137.605 137.022 137.605 134.592C137.605 132.162 135.635 130.192 133.205 130.192C130.775 130.192 128.805 132.162 128.805 134.592C128.805 137.022 130.775 138.992 133.205 138.992Z" fill="#F7F6F3"/>
<path d="M200.915 45.6925C188.975 14.4225 155.575 5.38252 148.945 3.58252C140.995 1.43252 111.805 -6.47748 86.4252 11.5525C69.5052 23.5725 63.3152 40.6925 61.2852 47.4125C75.5252 44.2325 99.4952 40.8325 128.195 46.2925C165.905 53.4625 191.565 72.0825 203.515 82.0625C204.975 74.8925 206.725 60.9125 200.915 45.6925ZM140.035 38.0825C131.315 35.8725 123.325 34.6725 116.415 34.0425C117.745 31.7525 120.885 27.1025 126.775 23.9125C135.935 18.9525 144.955 21.1725 147.065 21.7525C148.895 22.2425 159.485 25.2525 164.515 35.5825C166.885 40.4425 167.085 45.0125 166.975 47.6925C159.705 44.3025 150.665 40.7825 140.035 38.0925V38.0825Z" fill="#355B66"/>
<path d="M61.5663 45.3126C61.5663 45.3126 89.8862 38.7426 110.216 41.9526C110.216 41.9526 116.096 12.2026 148.216 19.9226C151.126 20.7026 158.636 23.1626 164.286 30.3926C173.686 42.4326 169.616 57.0926 169.136 58.6826C172.296 60.0326 175.556 61.5626 178.886 63.2826C188.966 68.5026 197.396 74.3426 204.296 79.9426L203.576 82.2726C201.486 80.5426 199.286 78.8226 196.996 77.1126C184.526 67.8326 174.136 62.6926 170.396 60.9126C168.016 59.7826 166.056 58.9326 164.856 58.4226C165.956 55.6326 167.756 49.9026 166.606 42.8226C166.246 40.5826 165.436 35.9426 161.996 31.3126C157.596 25.3826 151.676 23.3126 149.466 22.4826C148.266 22.0326 135.866 17.6026 124.526 25.2726C114.796 31.8526 113.136 42.4026 112.896 44.1026C103.706 43.2926 92.8062 43.0626 80.6462 44.2826C73.4462 45.0026 66.8463 46.1226 60.9062 47.4226L61.5563 45.3126H61.5663Z" fill="#243E46"/>
<path d="M113.225 42.2925C121.545 43.3425 131.085 45.0925 141.455 48.0125C150.535 50.5725 158.585 53.5525 165.525 56.5425L164.855 58.4325C157.965 55.5725 150.155 52.7525 141.495 50.2725C131.095 47.2925 121.455 45.3625 112.895 44.1225C113.005 43.5225 113.115 42.9125 113.225 42.3125V42.2925Z" fill="#243E46"/>
<path d="M121.975 40.3724C122.721 40.3724 123.325 39.768 123.325 39.0224C123.325 38.2768 122.721 37.6724 121.975 37.6724C121.229 37.6724 120.625 38.2768 120.625 39.0224C120.625 39.768 121.229 40.3724 121.975 40.3724Z" stroke="#243E46" stroke-miterlimit="10"/>
<path d="M131.006 42.0623C131.752 42.0623 132.356 41.4579 132.356 40.7123C132.356 39.9667 131.752 39.3623 131.006 39.3623C130.261 39.3623 129.656 39.9667 129.656 40.7123C129.656 41.4579 130.261 42.0623 131.006 42.0623Z" stroke="#243E46" stroke-miterlimit="10"/>
<path d="M140.416 44.2425C141.162 44.2425 141.766 43.6381 141.766 42.8925C141.766 42.1469 141.162 41.5425 140.416 41.5425C139.671 41.5425 139.066 42.1469 139.066 42.8925C139.066 43.6381 139.671 44.2425 140.416 44.2425Z" stroke="#243E46" stroke-miterlimit="10"/>
<path d="M149.846 46.8323C150.592 46.8323 151.196 46.2279 151.196 45.4823C151.196 44.7367 150.592 44.1323 149.846 44.1323C149.1 44.1323 148.496 44.7367 148.496 45.4823C148.496 46.2279 149.1 46.8323 149.846 46.8323Z" stroke="#243E46" stroke-miterlimit="10"/>
<path d="M158.936 50.1824C159.682 50.1824 160.286 49.578 160.286 48.8324C160.286 48.0868 159.682 47.4824 158.936 47.4824C158.19 47.4824 157.586 48.0868 157.586 48.8324C157.586 49.578 158.19 50.1824 158.936 50.1824Z" stroke="#243E46" stroke-miterlimit="10"/>
<path d="M77.9846 42.0325C78.9346 38.7725 80.0546 35.5625 81.3346 32.4225C81.7346 31.4525 80.9046 30.1825 79.9346 29.9625C78.7746 29.7025 77.8946 30.3225 77.4746 31.3625C76.1946 34.5125 75.0746 37.7125 74.1246 40.9725C73.8346 41.9725 74.4746 43.1925 75.5246 43.4325C76.5746 43.6725 77.6746 43.1125 77.9846 42.0325Z" fill="#243E46"/>
<path d="M82.8864 29.1527C89.1264 18.0627 99.1664 9.36274 111.106 4.93274C113.496 4.04274 112.466 0.172742 110.046 1.07274C97.1264 5.87274 86.1964 15.1027 79.4364 27.1327C78.1764 29.3827 81.6264 31.4027 82.8864 29.1527Z" fill="#243E46"/>
<path d="M196.735 72.5225C200.695 60.0425 199.915 46.4625 194.725 34.4725C193.675 32.0525 192.445 29.7125 191.045 27.4725C189.645 25.2325 186.225 27.3025 187.595 29.4925C195.405 41.9825 197.345 57.4125 192.885 71.4625C192.105 73.9225 195.965 74.9725 196.745 72.5225H196.735Z" fill="#243E46"/>
<path d="M150.587 18.7124C151.027 14.9724 151.467 11.2324 151.907 7.49237C152.027 6.45237 150.897 5.45237 149.907 5.49237C148.717 5.54237 148.037 6.37237 147.907 7.49237C147.467 11.2324 147.027 14.9724 146.587 18.7124C146.467 19.7524 147.597 20.7524 148.587 20.7124C149.777 20.6624 150.457 19.8324 150.587 18.7124Z" fill="#243E46"/>
<path d="M96.5951 169.152C96.4151 170.182 96.1951 172.292 97.1551 174.612C97.5451 175.552 98.4751 177.812 100.745 178.802C101.175 178.992 102.125 179.392 103.345 179.232C104.795 179.042 105.725 178.182 106.165 177.772C108.475 175.642 108.415 172.352 108.385 171.672C104.455 170.832 100.515 169.992 96.5851 169.152H96.5951Z" fill="#EE978B"/>
<path d="M40.5395 328.525C40.5395 328.525 42.001 318.6 53.2137 325.741C53.2137 325.741 64.1264 329.927 56.0393 337.664L68.9989 339.301C68.9989 339.301 71.4853 341.617 66.4815 352.603C66.4815 352.603 25.1102 364.036 15.1683 343.64C15.1683 343.64 14.6161 335.841 29.2067 335.363L40.5536 328.524L40.5395 328.525Z" fill="#363736" stroke="#231F20" stroke-miterlimit="10"/>
<path d="M15.1647 343.649C16.6039 339.13 20.1926 335.833 24.3507 335.348C30.8762 334.59 34.9337 341.248 35.5737 342.317C39.1677 348.228 37.2189 354.508 36.8799 355.533C36.8799 355.533 22.119 355.681 15.1584 343.657L15.1647 343.649Z" fill="#FBFAF9" stroke="#231F20" stroke-miterlimit="10"/>
<path d="M48.5511 331.293C48.8156 331.507 54.265 335.741 53.1995 338.158C53.1774 338.218 52.8525 338.906 52.155 339.101C50.5052 339.568 49.4747 336.5 45.8744 333.939C42.7737 331.73 40.0946 331.545 39.9976 329.899C39.9671 329.411 40.1712 328.856 40.5554 328.524C42.1173 327.163 46.3585 329.599 48.5652 331.291L48.5511 331.293Z" fill="#FBFAF9" stroke="#231F20" stroke-miterlimit="10"/>
<path d="M43.1302 333.676C45.5164 335.385 48.9253 337.817 48.3571 339.762C48.2332 340.202 47.881 340.701 47.3538 340.892C45.8598 341.421 44.535 338.86 41.0316 336.274C37.3959 333.582 34.2333 332.93 34.4323 331.793C34.5254 331.264 35.2716 330.992 35.6141 330.87C37.942 330.025 40.5293 331.82 43.138 333.682L43.1302 333.676Z" fill="#FBFAF9" stroke="#231F20" stroke-miterlimit="10"/>
<path d="M38.9701 336.551C41.3563 338.26 44.7652 340.692 44.197 342.637C44.0731 343.077 43.7209 343.576 43.1937 343.767C41.6998 344.296 40.3749 341.735 36.8715 339.149C33.2358 336.457 30.0732 335.805 30.2721 334.668C30.3652 334.139 31.1115 333.867 31.4541 333.745C33.7819 332.9 36.3691 334.695 38.9779 336.557L38.9701 336.551Z" fill="#FBFAF9" stroke="#231F20" stroke-miterlimit="10"/>
<path d="M15.5426 344.013C14.8861 346.527 14.5566 349.763 16.0157 352.713C19.7119 360.191 32.3229 360.482 40.6089 360.674C46.3075 360.811 54.8524 360.294 64.9677 356.882L67.0377 351.921C58.6082 354.577 51.3863 355.296 46.3515 355.445C37.7086 355.697 27.7511 355.981 20.119 349.39C17.9159 347.482 16.4563 345.479 15.5443 344.027L15.5426 344.013Z" fill="#FBFAF9"/>
<path d="M15.5426 344.013C14.8861 346.527 14.5566 349.763 16.0157 352.713C19.7119 360.191 32.3229 360.482 40.6089 360.674C46.3075 360.811 54.8524 360.294 64.9677 356.882L67.0377 351.921C58.6082 354.577 51.3863 355.296 46.3515 355.445C37.7086 355.697 27.7511 355.981 20.119 349.39C17.9159 347.482 16.4563 345.479 15.5443 344.027L15.5426 344.013Z" fill="#FBFAF9"/>
<path d="M15.5426 344.013C14.8861 346.527 14.5566 349.763 16.0157 352.713C19.7119 360.191 32.3229 360.482 40.6089 360.674C46.3075 360.811 54.8524 360.294 64.9677 356.882L67.0377 351.921C58.6082 354.577 51.3863 355.296 46.3515 355.445C37.7086 355.697 27.7511 355.981 20.119 349.39C17.9159 347.482 16.4563 345.479 15.5443 344.027L15.5426 344.013Z" stroke="#231F20" stroke-miterlimit="10"/>
<path d="M52.2876 302.046C52.8056 301.982 53.2509 302.124 53.5571 302.273C53.5571 302.273 54.7467 302.765 56.2989 303.534C59.4207 305.087 64.0225 307.79 63.4271 310.008C63.1104 311.001 62.4985 312.265 61.3499 312.684C60.2695 313.084 59.3035 312.504 54.9784 309.636C50.5753 306.714 49.7851 306.111 49.7769 305.077C49.7572 303.818 50.9001 302.221 52.2785 302.05L52.2876 302.046Z" fill="#CCA17A" stroke="#754C29" stroke-miterlimit="10"/>
<path d="M57.2122 310.169L59.4193 306.103C58.9374 305.605 58.2468 304.98 57.3072 304.411C56.4325 303.89 55.6151 303.572 54.9841 303.381C54.2532 304.697 53.5356 306.019 52.8047 307.336C52.8047 307.336 54.3539 310.205 57.2082 310.16L57.2122 310.169Z" fill="#AE9B77" stroke="#754C29" stroke-miterlimit="10"/>
<path d="M61.8231 310.213C62.4087 309.954 62.0053 309.039 61.4197 309.298C60.8341 309.556 61.2375 310.471 61.8231 310.213Z" fill="#754C29"/>
<path d="M60.7411 308.352C61.3267 308.094 60.9232 307.179 60.3376 307.437C59.752 307.695 60.1555 308.61 60.7411 308.352Z" fill="#754C29"/>
<path d="M59.4794 310.404C60.065 310.146 59.6615 309.231 59.0759 309.489C58.4903 309.747 58.8938 310.662 59.4794 310.404Z" fill="#754C29"/>
<path d="M60.6005 311.484C61.1861 311.226 60.7826 310.311 60.197 310.569C59.6114 310.827 60.0149 311.742 60.6005 311.484Z" fill="#754C29"/>
<path d="M53.163 305.201C53.7486 304.943 53.3451 304.028 52.7595 304.286C52.1739 304.544 52.5774 305.459 53.163 305.201Z" fill="#754C29"/>
<path d="M52.5145 303.924C53.1001 303.666 52.6967 302.751 52.1111 303.009C51.5255 303.268 51.9289 304.183 52.5145 303.924Z" fill="#754C29"/>
<path d="M51.3739 305.105C51.9595 304.847 51.556 303.932 50.9704 304.19C50.3849 304.448 50.7883 305.363 51.3739 305.105Z" fill="#754C29"/>
<path d="M52.1474 306.36C52.7329 306.102 52.3295 305.187 51.7439 305.445C51.1583 305.703 51.5618 306.618 52.1474 306.36Z" fill="#754C29"/>
<path d="M98.7625 305.627C98.4797 307.829 98.7016 309.151 98.7575 311.72C98.95 321.992 102.287 330.229 105.133 335.556C107.027 338.066 107.712 340.342 107.999 341.743C109.247 347.799 106.236 353.019 104.314 356.352C102.775 359.03 101.136 360.973 99.9999 362.188C99.7583 364.221 99.6697 367.353 100.758 371C101.073 372.041 101.21 372.241 101.326 372.383C103.965 375.492 116.538 371.067 124.554 363.819C128.014 360.692 132.149 356.32 135.977 350.488C138.548 346.574 140.421 342.853 141.798 339.595C139.836 337.158 137.705 334.05 135.836 330.236C131.763 321.916 131.123 312.007 130.995 307.065C125.086 308.104 123.289 309.436 114.977 308.359C111.752 307.688 101.601 306.468 98.7625 305.627Z" fill="#F4D4BC" stroke="#DD886D" stroke-miterlimit="10"/>
<path d="M106.956 343.403C106.956 343.403 100.437 335.777 113.189 332.021C113.189 332.021 123.517 326.549 124.031 337.729L133.783 329.038C133.783 329.038 137.163 328.687 142.153 339.679C142.153 339.679 123.576 378.372 101.67 372.458C101.67 372.458 95.4297 367.748 104.66 356.438L106.964 343.391L106.956 343.403Z" fill="#363736" stroke="#231F20" stroke-miterlimit="10"/>
<path d="M101.673 372.468C99.2136 368.412 99.0876 363.541 101.455 360.088C105.173 354.672 112.858 355.991 114.085 356.211C120.902 357.388 124.353 362.985 124.903 363.914C124.903 363.914 115.312 375.135 101.675 372.477L101.673 372.468Z" fill="#FBFAF9" stroke="#231F20" stroke-miterlimit="10"/>
<path d="M114.305 339.186C114.64 339.128 121.413 337.804 122.534 340.196C122.564 340.252 122.87 340.949 122.558 341.603C121.826 343.153 118.836 341.913 114.539 342.943C110.836 343.828 108.936 345.725 107.632 344.716C107.244 344.419 106.96 343.9 106.962 343.392C106.963 341.321 111.587 339.725 114.313 339.175L114.305 339.186Z" fill="#FBFAF9" stroke="#231F20" stroke-miterlimit="10"/>
<path d="M112.542 344.837C115.398 344.162 119.472 343.192 120.564 344.898C120.814 345.281 120.959 345.875 120.756 346.398C120.173 347.871 117.372 347.186 113.12 348.127C108.702 349.097 106.132 351.052 105.405 350.154C105.068 349.736 105.354 348.996 105.487 348.657C106.38 346.348 109.433 345.577 112.552 344.836L112.542 344.837Z" fill="#FBFAF9" stroke="#231F20" stroke-miterlimit="10"/>
<path d="M111.972 349.862C114.828 349.187 118.901 348.216 119.993 349.923C120.243 350.305 120.389 350.899 120.186 351.422C119.603 352.896 116.801 352.21 112.55 353.151C108.131 354.121 105.561 356.076 104.835 355.179C104.497 354.761 104.783 354.02 104.917 353.682C105.81 351.372 108.863 350.602 111.981 349.86L111.972 349.862Z" fill="#FBFAF9" stroke="#231F20" stroke-miterlimit="10"/>
<path d="M101.671 372.468C103.09 374.645 105.262 377.065 108.426 377.971C116.445 380.266 125.144 371.131 130.861 365.13C134.796 361.006 140.162 354.335 144.442 344.556L142.164 339.687C138.458 347.71 134.132 353.538 130.855 357.363C125.228 363.928 118.739 371.486 108.728 372.699C105.834 373.045 103.37 372.778 101.683 372.476L101.671 372.468Z" fill="#FBFAF9"/>
<path d="M101.671 372.468C103.09 374.645 105.262 377.065 108.426 377.971C116.445 380.266 125.144 371.131 130.861 365.13C134.796 361.006 140.162 354.335 144.442 344.556L142.164 339.687C138.458 347.71 134.132 353.538 130.855 357.363C125.228 363.928 118.739 371.486 108.728 372.699C105.834 373.045 103.37 372.778 101.683 372.476L101.671 372.468Z" fill="#FBFAF9"/>
<path d="M101.671 372.468C103.09 374.645 105.262 377.065 108.426 377.971C116.445 380.266 125.144 371.131 130.861 365.13C134.796 361.006 140.162 354.335 144.442 344.556L142.164 339.687C138.458 347.71 134.132 353.538 130.855 357.363C125.228 363.928 118.739 371.486 108.728 372.699C105.834 373.045 103.37 372.778 101.683 372.476L101.671 372.468Z" stroke="#231F20" stroke-miterlimit="10"/>
<path d="M93.1718 298.645C93.1718 298.645 85.8636 303.481 94.0116 309.489C94.0116 309.489 126.726 316.575 138.394 306.867C139.925 302.649 138.615 298.779 136.234 297.689C134.72 296.991 133.03 297.557 132.222 297.897C127.606 298.917 122.165 299.773 116.055 300.089C107.091 300.559 99.3042 299.745 93.1718 298.645Z" fill="#D6C2CE" stroke="#533C49" stroke-linecap="round" stroke-linejoin="round"/>
<defs>
<radialGradient id="paint0_radial_2788_2601" cx="0" cy="0" r="1" gradientTransform="matrix(-7.02593 -2.73646 -2.73647 7.02591 47.0522 125.737)" gradientUnits="userSpaceOnUse">
<stop offset="0.6" stop-color="#EB9A88" stop-opacity="0.65"/>
<stop offset="0.61" stop-color="#EB9C8A" stop-opacity="0.66"/>
<stop offset="0.79" stop-color="#F0BAA5" stop-opacity="0.82"/>
<stop offset="0.93" stop-color="#F2CCB5" stop-opacity="0.91"/>
<stop offset="1" stop-color="#F4D4BC" stop-opacity="0.95"/>
</radialGradient>
<radialGradient id="paint1_radial_2788_2601" cx="0" cy="0" r="1" gradientUnits="userSpaceOnUse" gradientTransform="translate(194.469 151.44) rotate(9.45002) scale(7.53998 7.53999)">
<stop offset="0.6" stop-color="#EB9A88" stop-opacity="0.65"/>
<stop offset="0.61" stop-color="#EB9C8A" stop-opacity="0.66"/>
<stop offset="0.79" stop-color="#F0BAA5" stop-opacity="0.82"/>
<stop offset="0.93" stop-color="#F2CCB5" stop-opacity="0.91"/>
<stop offset="1" stop-color="#F4D4BC" stop-opacity="0.95"/>
</radialGradient>
</defs>
</svg>
