<svg width="336" height="336" viewBox="0 0 336 336" fill="none" xmlns="http://www.w3.org/2000/svg">
<g filter="url(#filter0_d_2225_1045)">
<mask id="path-1-inside-1_2225_1045" fill="white">
<path d="M169.576 12.4258C252.419 12.4258 319.576 79.5831 319.576 162.426C319.576 245.268 252.419 312.426 169.576 312.426C86.7335 312.426 19.5762 245.268 19.5762 162.426C19.5762 79.5831 86.7335 12.4258 169.576 12.4258Z"/>
</mask>
<path d="M169.576 12.4258C252.419 12.4258 319.576 79.5831 319.576 162.426C319.576 245.268 252.419 312.426 169.576 312.426C86.7335 312.426 19.5762 245.268 19.5762 162.426C19.5762 79.5831 86.7335 12.4258 169.576 12.4258Z" fill="url(#paint0_linear_2225_1045)" shape-rendering="crispEdges"/>
<path d="M319.576 12.4258V312.426V12.4258ZM19.5762 312.426V12.4258V312.426ZM19.5762 12.4258H319.576H19.5762ZM319.576 170.205C319.576 253.047 252.419 320.205 169.576 320.205C86.7335 320.205 19.5762 253.047 19.5762 170.205V162.426C19.5762 240.972 86.7335 304.647 169.576 304.647C252.419 304.647 319.576 240.972 319.576 162.426V170.205Z" fill="#CF4F52" mask="url(#path-1-inside-1_2225_1045)"/>
<path d="M128.467 238.383C126.984 244.602 126.48 250.188 126.397 254.745C123.513 255.795 121.165 256.221 119.5 256.414C119.5 256.414 115.779 256.843 112.652 257.868C112.463 257.929 112.155 258.036 111.78 258.215C111.476 258.361 110.036 259.309 109.243 260.241C107.116 262.743 106.551 266.624 106.551 266.624C105.647 272.832 108.413 282.121 115.107 285.577C116.037 286.056 118.056 287.1 120.701 287.021C121.319 287.003 122.023 286.86 126.755 285.313C128.821 284.637 130.447 284.029 132.287 283.34C134.592 282.478 136.494 281.724 137.838 281.181C143.113 281.824 147.502 282.232 150.636 282.489C152.634 282.654 169.328 283.997 182.101 283.29C184.349 283.165 186.776 282.982 186.776 282.982C189.91 282.746 193.53 282.414 197.547 281.939C201.5 283.997 205.003 285.005 207.472 285.538C211.407 286.385 214.181 286.982 217.408 285.899C221.286 284.598 223.466 281.66 224.309 280.495C228.315 274.941 229.556 265.713 225.145 260.824C223.43 258.923 220.657 258.015 215.149 256.16C212.365 255.224 209.978 254.637 208.28 254.276C208.448 248.694 208.023 240.856 205.349 231.993C203.68 226.46 201.536 221.85 199.513 218.223C196.104 219.409 191.608 220.724 186.232 221.65C184.735 221.907 178.141 223.001 169.538 222.833C156.497 222.579 145.121 219.545 137.255 216.804C134.249 221.839 130.679 229.109 128.47 238.38H128.467V238.383Z" fill="#C0B4DF"/>
<path d="M127.387 267.058C127.97 267.919 128.581 268.977 129.117 270.235C130.2 272.79 130.507 275.128 130.579 276.772C131.622 276.339 132.834 275.925 134.21 275.596C136.876 274.956 139.246 274.87 141.065 274.952C150.35 276.529 158.359 277.115 164.588 277.304C174.256 277.597 179.088 277.744 182.798 276.836C187.004 275.807 190.928 274.113 196.604 274.842C199.581 275.224 201.95 276.132 203.505 276.854C203.455 275.674 203.516 274.159 203.905 272.454C204.624 269.316 206.107 267.068 207.108 265.803C207.254 266.229 207.626 267.115 208.523 267.794C208.902 268.083 209.277 268.259 209.581 268.369C209.266 269.077 208.873 270.053 208.505 271.243C208.155 272.372 207.769 273.644 207.608 275.378C207.565 275.825 207.469 277.05 207.608 278.634C207.687 279.534 207.737 280.078 207.94 280.828C208.501 282.883 209.606 284.163 209.942 284.531C210.195 284.809 210.421 285.02 210.571 285.153C209.309 284.845 208.251 284.577 207.458 284.366C205.889 283.955 205.374 283.794 205.01 283.673C204.088 283.369 203.862 283.24 202.572 282.74C200.324 281.868 199.17 281.428 197.629 281.146C196.69 280.975 195.853 280.907 195.664 280.889C195.339 280.864 194.645 280.817 193.759 280.832C192.354 280.857 191.325 281.021 189.756 281.268C187.726 281.586 186.711 281.743 185.957 281.854C185.478 281.922 183.366 282.222 180.807 282.422C178.759 282.583 177.04 282.633 175.203 282.654C172.576 282.686 169.949 282.654 164.37 282.465C154.646 282.136 151.49 281.854 149.907 281.675C146.687 281.318 145.664 281.178 145.664 281.178C143.952 280.95 143.459 280.846 142.444 280.778C141.719 280.728 140.118 280.656 138.413 280.864C136.68 281.075 135.082 281.682 131.883 282.905C129.921 283.651 129.16 284.027 127.098 284.72C125.986 285.095 125.061 285.374 124.432 285.553C125.722 284.016 126.358 282.586 126.694 281.618C128.317 276.94 126.644 272.265 125.843 270.024C125.658 269.506 125.49 269.088 125.368 268.805C125.611 268.691 125.883 268.541 126.165 268.337C126.762 267.912 127.155 267.429 127.402 267.061H127.387V267.058Z" fill="#A394C5"/>
<path d="M127.393 251.918C127.393 251.918 152.46 255.992 160.205 233.812C160.205 233.812 168.389 238.844 175.955 236.503C177.206 239.116 179.501 242.908 183.578 246.099C193.743 254.055 206.252 251.446 208.289 250.988C208.231 249.03 208.099 246.968 207.874 244.82C207.778 243.916 207.67 243.029 207.552 242.164C207.063 238.891 206.269 235.109 204.968 231.01C203.353 225.914 201.373 221.636 199.511 218.223C196.298 219.391 191.809 220.789 186.33 221.757C171.052 224.456 158.439 221.989 150.655 220.392C144.984 219.227 140.384 217.844 137.26 216.804C134.994 220.86 132.507 226.164 130.581 232.622C128.347 240.127 127.589 246.803 127.393 251.914V251.918Z" fill="#A394C5"/>
<path d="M221.73 258.222C215.679 259.405 212.059 265.109 210.436 270.641C209.389 274.397 208.971 279.662 210.73 283.207C211.355 284.458 212.316 285.555 213.535 286.452C213.578 286.485 213.585 286.542 213.553 286.588C213.528 286.62 213.489 286.635 213.449 286.624C211.963 286.199 210.572 285.234 209.607 283.918C206.655 279.926 207.399 274.551 209 270.18C210.029 267.257 211.569 264.512 213.664 262.217C216.362 259.265 219.811 257.861 221.694 258.04C221.759 258.047 222.863 258.154 222.859 258.204C222.859 258.243 222.227 258.236 221.727 258.222H221.73Z" fill="#5E5573" stroke="#5E5573" stroke-width="0.357394" stroke-miterlimit="10"/>
<path d="M219.752 257.694C219.519 257.515 217.007 255.631 214.594 256.628C214.187 256.796 212.647 257.436 212.522 258.834C212.436 259.806 213.058 260.806 214.101 261.371C214.963 260.621 216.013 259.806 217.275 259.027C218.147 258.49 218.98 258.051 219.752 257.694Z" fill="#FFD4D4" stroke="#5E5573" stroke-width="2.14436" stroke-miterlimit="10"/>
<path d="M213.504 261.979C211.899 260.785 209.784 260.967 208.629 262.132C207.443 263.33 207.736 265.088 207.754 265.192C208.097 267.075 209.902 267.683 210.023 267.718C210.484 266.668 211.085 265.492 211.867 264.259C212.414 263.401 212.968 262.643 213.504 261.975V261.979Z" fill="#FFD4D4" stroke="#5E5573" stroke-width="2.14436" stroke-miterlimit="10"/>
<path d="M137.254 216.808C133.983 222.286 130.091 230.36 128.079 240.696C127.093 245.771 126.75 250.395 126.728 254.37C124.963 254.938 122.304 255.746 119.001 256.546C114.498 257.64 113.062 257.458 111.21 258.923C108.819 260.821 107.936 263.59 107.636 264.53C106.989 266.56 107.014 268.212 107.05 269.53C107.072 270.381 107.218 274.001 109.312 278.204C110.335 280.256 111.514 282.618 114.119 284.516C114.966 285.134 117.368 286.807 120.699 287.018C121.403 287.061 122.897 287.086 128.018 285.316C133.361 283.469 133.923 282.682 136.739 282.053C140.052 281.314 142.614 281.653 145.091 281.943C145.091 281.943 155.72 283.172 167.382 283.462C173.154 283.605 178.232 283.733 185.023 282.868C191.191 282.078 193.958 281.092 198.554 282.275C201.588 283.058 202.664 284.076 207.349 285.284C211.663 286.396 213.818 286.953 215.919 286.578C222.692 285.381 228.092 276.271 227.706 268.294C227.621 266.543 227.449 262.969 224.947 260.163C222.281 257.168 218.042 256.257 213.818 255.349C213.818 255.349 213.675 255.317 208.275 254.28C208.364 250.924 208.225 247.161 207.682 243.087C206.266 232.472 202.667 224.034 199.508 218.223" stroke="#5E5573" stroke-width="2.50176" stroke-linecap="round" stroke-linejoin="round"/>
<path d="M226.225 275.232C228.93 267.668 227.556 260.26 223.155 258.686C218.754 257.112 212.993 261.968 210.287 269.532C207.582 277.096 208.956 284.504 213.357 286.078C217.758 287.652 223.519 282.796 226.225 275.232Z" fill="#DACFF3"/>
<path d="M112.007 258.622C112.007 258.572 113.108 258.462 113.173 258.458C115.056 258.279 118.505 259.68 121.203 262.636C123.301 264.93 124.841 267.675 125.867 270.599C127.468 274.97 128.212 280.345 125.26 284.337C124.291 285.652 122.901 286.617 121.418 287.042C121.378 287.057 121.339 287.042 121.314 287.007C121.282 286.964 121.289 286.903 121.332 286.871C122.554 285.97 123.516 284.877 124.137 283.626C125.896 280.08 125.478 274.816 124.43 271.06C122.808 265.527 119.188 259.823 113.137 258.64C112.636 258.651 112.007 258.658 112.004 258.622H112.007Z" fill="#5E5573" stroke="#5E5573" stroke-width="0.357394" stroke-miterlimit="10"/>
<path d="M117.592 259.445C118.854 260.224 119.908 261.035 120.766 261.79C121.809 261.225 122.431 260.224 122.345 259.252C122.22 257.855 120.68 257.215 120.272 257.047C117.86 256.05 115.348 257.933 115.115 258.112C115.887 258.469 116.724 258.909 117.592 259.445Z" fill="#FFD4D4" stroke="#5E5573" stroke-width="2.14436" stroke-miterlimit="10"/>
<path d="M122.998 264.681C123.781 265.914 124.381 267.09 124.842 268.141C124.96 268.105 126.769 267.498 127.112 265.614C127.133 265.507 127.423 263.752 126.236 262.555C125.082 261.39 122.97 261.211 121.361 262.401C121.897 263.066 122.451 263.827 122.998 264.685V264.681Z" fill="#FFD4D4" stroke="#5E5573" stroke-width="2.14436" stroke-miterlimit="10"/>
<path d="M121.504 286.511C125.905 284.937 127.28 277.529 124.574 269.964C121.869 262.4 116.108 257.544 111.707 259.118C107.306 260.692 105.931 268.1 108.637 275.665C111.342 283.229 117.103 288.085 121.504 286.511Z" fill="#DACFF3"/>
<path d="M129.018 212.797C127.052 214.695 122.788 219.341 121.323 226.574C120.644 229.927 119.536 235.552 122.645 240.116C126.366 245.581 135.068 247.632 143.907 244.676C145.522 244.133 147.792 243.193 150.201 241.535C153.031 239.587 157.338 236.617 158.342 231.467C159.271 226.707 156.873 222.682 155.947 221.299C153.388 218.004 151.137 217.132 149.489 216.989C147.37 216.807 143.928 217.632 143.928 217.632C143.928 217.632 138.814 216.553 133.932 214.813C132.703 214.373 131.005 213.723 129.014 212.797H129.018Z" fill="#BBB3D3"/>
<path d="M128.541 213.447C127.862 214.126 127.086 215.005 126.339 216.106C125.553 217.264 125.003 218.361 124.613 219.276C125.117 219.626 125.678 219.969 126.3 220.287C129.32 221.835 132.287 222.042 134.292 221.96C137.043 220.795 139.799 219.626 142.551 218.461C139.02 217.482 135.299 216.249 131.454 214.683C130.46 214.28 129.492 213.865 128.545 213.447H128.541Z" fill="#A394C5"/>
<path d="M121.004 236.145C122.058 237.321 123.82 238.979 126.393 240.091C133.727 243.254 141.404 239.29 145.01 237.428C151.811 233.919 155.821 228.722 157.894 225.441C158.244 226.928 158.587 229.33 157.894 232.05C156.596 237.146 152.551 239.891 149.717 241.814C143.88 245.774 137.83 246.599 134.313 246.76C133.259 246.749 128.227 246.581 124.402 242.582C122.09 240.162 121.297 237.471 121 236.145H121.004Z" fill="#A394C5"/>
<path d="M129.017 212.797C126.623 215.009 123.96 218.211 122.213 222.572C121.248 224.984 117.927 233.283 122.002 239.877C122.313 240.377 123.674 242.503 126.29 244.201C129.757 246.449 133.227 246.531 135.718 246.546C137.999 246.556 144.814 246.488 150.993 241.535C153.317 239.673 158.738 235.327 158.606 228.78C158.534 225.334 156.955 222.69 155.951 221.299" stroke="#5E5573" stroke-width="2.50176" stroke-miterlimit="10"/>
<path d="M141.625 221.288C141.625 221.288 141.418 225.034 143.498 226.545C143.498 226.545 143.641 227.807 142.229 226.545C142.229 226.545 139.856 224.494 141.086 221.288C141.086 221.288 141.622 220.584 141.625 221.288Z" fill="#A394C5"/>
<path d="M140.735 227.107C140.735 227.107 139.445 225.817 139.256 222.454C139.256 222.454 138.902 221.206 138.423 222.454C138.423 222.454 137.976 225.513 139.928 227.107C139.928 227.107 141.8 228.59 140.735 227.107Z" fill="#A394C5"/>
<path d="M127.189 224.927C130.517 223.3 134.187 221.517 137.575 219.98C140.724 218.665 143.862 216.974 147.35 216.678C149.959 216.635 152.543 217.257 154.841 218.683C160.331 222.053 161.153 230.448 157.146 235.23L156.928 235.109C157.521 233.279 157.84 231.438 157.765 229.655C157.643 226.238 156.217 222.793 153.433 220.724C151.792 219.448 149.555 218.665 147.4 218.597C144.198 218.726 141.088 220.13 138.047 221.142C136.703 221.613 133.998 222.618 132.668 223.136C130.881 223.819 129.091 224.494 127.293 225.159L127.189 224.93V224.927Z" fill="#5E5573"/>
<path d="M157.567 233.354C157.567 233.354 150.741 230.824 157.488 227.139C157.488 227.139 159.518 230.788 157.567 233.354Z" fill="#FFD4D4" stroke="#5E5573" stroke-width="2.14436" stroke-miterlimit="10"/>
<path d="M157.056 226.814C157.056 226.814 149.808 227.486 154.297 221.246C154.297 221.246 157.706 223.659 157.056 226.814Z" fill="#FFD4D4" stroke="#5E5573" stroke-width="2.14436" stroke-miterlimit="10"/>
<path d="M148.885 218.347C148.885 218.347 148.996 225.624 154.717 220.491C154.717 220.491 151.951 217.361 148.885 218.347Z" fill="#FFD4D4" stroke="#5E5573" stroke-width="2.14436" stroke-miterlimit="10"/>
<path d="M206.085 213.201C208.051 215.099 212.315 219.745 213.78 226.979C214.459 230.331 215.567 235.956 212.457 240.52C208.737 245.985 200.034 248.036 191.196 245.081C189.581 244.537 187.311 243.598 184.902 241.939C182.072 239.991 177.765 237.021 176.761 231.871C175.832 227.111 178.23 223.087 179.156 221.704C181.714 218.408 183.966 217.536 185.614 217.393C187.733 217.211 191.175 218.037 191.175 218.037C191.175 218.037 196.289 216.957 201.171 215.217C202.4 214.777 204.098 214.127 206.089 213.201H206.085Z" fill="#BBB3D3"/>
<path d="M206.578 213.848C207.257 214.527 208.033 215.406 208.78 216.507C209.566 217.665 210.116 218.762 210.506 219.677C210.002 220.027 209.441 220.37 208.819 220.688C205.799 222.236 202.833 222.443 200.828 222.361C198.076 221.196 195.32 220.027 192.568 218.862C196.099 217.883 199.82 216.65 203.665 215.084C204.659 214.68 205.628 214.266 206.575 213.848H206.578Z" fill="#A394C5"/>
<path d="M214.108 236.55C213.054 237.725 211.292 239.384 208.719 240.495C201.385 243.658 193.708 239.695 190.102 237.833C183.301 234.323 179.291 229.127 177.218 225.846C176.868 227.332 176.524 229.734 177.218 232.454C178.515 237.55 182.561 240.295 185.395 242.218C191.231 246.178 197.282 247.003 200.799 247.164C201.853 247.154 206.885 246.986 210.709 242.986C213.022 240.567 213.815 237.876 214.112 236.55H214.108Z" fill="#A394C5"/>
<path d="M206.085 213.201C208.48 215.413 211.142 218.616 212.89 222.976C213.855 225.388 217.175 233.687 213.101 240.281C212.79 240.781 211.428 242.908 208.812 244.605C205.345 246.853 201.875 246.936 199.384 246.95C197.104 246.961 190.288 246.893 184.109 241.939C181.786 240.077 176.364 235.731 176.497 229.184C176.568 225.739 178.148 223.094 179.152 221.704" stroke="#5E5573" stroke-width="2.50176" stroke-miterlimit="10"/>
<path d="M193.48 221.693C193.48 221.693 193.688 225.438 191.608 226.95C191.608 226.95 191.465 228.212 192.876 226.95C192.876 226.95 195.249 224.899 194.02 221.693C194.02 221.693 193.484 220.989 193.48 221.693Z" fill="#A394C5"/>
<path d="M194.373 227.511C194.373 227.511 195.663 226.221 195.852 222.858C195.852 222.858 196.206 221.61 196.685 222.858C196.685 222.858 197.132 225.917 195.18 227.511C195.18 227.511 193.307 228.994 194.373 227.511Z" fill="#A394C5"/>
<path d="M207.82 225.56C204.342 224.284 200.572 222.783 197.069 221.543C194.024 220.531 190.915 219.127 187.716 218.998C185.561 219.062 183.324 219.849 181.683 221.124C178.899 223.194 177.473 226.639 177.352 230.056C177.277 231.843 177.595 233.68 178.188 235.51L177.97 235.631C173.967 230.849 174.786 222.458 180.275 219.084C182.573 217.658 185.154 217.036 187.766 217.079C191.254 217.375 194.392 219.066 197.541 220.381C198.846 220.967 201.465 222.197 202.752 222.826C204.482 223.651 206.208 224.488 207.927 225.331L207.823 225.56H207.82Z" fill="#5E5573"/>
<path d="M177.416 227.622C184.496 230.617 177.956 233.812 177.956 233.812C175.758 231.453 177.416 227.622 177.416 227.622Z" fill="#FFD4D4" stroke="#5E5573" stroke-width="2.14436" stroke-miterlimit="10"/>
<path d="M180.812 221.65C185.305 227.89 178.053 227.218 178.053 227.218C177.403 224.062 180.812 221.65 180.812 221.65Z" fill="#FFD4D4" stroke="#5E5573" stroke-width="2.14436" stroke-miterlimit="10"/>
<path d="M180.395 220.895C186.116 226.027 186.227 218.751 186.227 218.751C183.157 217.764 180.395 220.895 180.395 220.895Z" fill="#FFD4D4" stroke="#5E5573" stroke-width="2.14436" stroke-miterlimit="10"/>
<path d="M197.49 254.87C198.802 254.248 199.974 253.158 201.397 252.64C202.848 252.164 204.363 251.546 205.91 251.646C206.968 251.753 207.955 252.014 208.888 252.6V252.815C207.901 253.397 206.929 253.615 205.989 253.79C204.592 253.994 203.18 253.676 201.797 254.012C200.332 254.184 199.07 254.92 197.547 255.077L197.494 254.87H197.49Z" fill="#5E5573"/>
<path d="M202.711 261.242C203.479 260.148 204.387 258.99 205.216 257.939C206.192 256.878 207.006 255.484 208.44 254.955C209.44 254.601 210.677 254.566 211.563 255.245L211.545 255.459C210.627 255.984 210.03 256.42 209.39 256.878C208.747 257.371 207.95 257.639 207.278 258.139C206.924 258.397 206.57 258.676 206.209 258.958C205.141 259.766 203.965 260.648 202.857 261.395L202.707 261.242H202.711Z" fill="#5E5573"/>
<path d="M137.532 254.855C136.509 254.773 135.548 254.337 134.647 254.087C133.747 253.837 132.832 253.687 131.903 253.622C130.966 253.551 130.026 253.755 129.09 253.569C128.15 253.394 127.178 253.172 126.191 252.593V252.379C127.124 251.792 128.111 251.532 129.168 251.424C130.201 251.306 131.213 251.667 132.199 251.932C133.203 252.193 134.183 252.582 135.08 253.104C135.97 253.64 136.699 254.244 137.585 254.648L137.532 254.855Z" fill="#5E5573"/>
<path d="M132.22 261.174C131.112 260.427 129.933 259.548 128.868 258.737C128.178 258.19 127.481 257.629 126.698 257.264C125.494 256.635 124.879 255.974 123.535 255.234L123.518 255.02C124.404 254.341 125.64 254.377 126.641 254.73C128.078 255.259 128.889 256.653 129.865 257.715C130.694 258.765 131.602 259.923 132.37 261.017L132.22 261.171V261.174Z" fill="#5E5573"/>
<path d="M97.4768 128.569C95.7545 136.105 95.2883 139.867 95.1443 144.27C94.9424 150.453 95.7357 152.266 94.9619 157.842C94.1408 163.779 92.9546 163.807 91.8114 170.326C90.9899 175.026 90.1325 179.914 91.5618 185.765C92.9528 191.467 95.8259 195.273 97.6075 197.586C102.316 203.701 107.692 206.774 110.927 208.582C115.783 211.296 121.553 212.967 133.086 216.306C134.796 216.801 136.807 217.355 139.23 217.942C140.149 218.161 143.452 218.947 147.952 219.747C149.128 219.955 151.767 220.408 155.282 220.868C160.602 221.568 167.04 222.412 175.031 222.522C180.105 222.593 186.186 222.647 194.116 221.334C202.506 219.946 208.615 217.747 210.739 216.948C213.878 215.767 216.337 214.562 221.259 212.148C232.869 206.457 237.039 203.127 240.333 199.605C240.54 199.383 240.817 199.085 241.185 198.668C249.361 189.401 250.325 178.393 250.447 176.811C251.182 167.211 247.915 159.898 246.295 156.788C246.286 154.883 246.248 152.113 246.1 148.777C245.798 142.013 245.219 136.129 244.834 133.547C243.824 126.745 240.615 111.81 229.451 97.7557C223.086 89.7431 216.617 85.1425 214.544 83.7242C201.631 74.887 188.466 72.685 186.442 72.6314C185.105 72.5942 184.48 72.4515 183.228 72.1698C181.918 71.8747 181.254 71.7184 180.81 71.2544C179.666 70.0629 180.28 67.7786 180.485 67.0208C181.36 63.7633 183.588 62.5873 183.194 61.9258C182.737 61.1582 179.17 61.7859 176.311 63.8274C176.311 63.8274 175.146 64.6593 171.222 69.3825C171.765 57.4127 170.543 57.016 170.543 57.016C169.946 56.8228 169.225 57.4646 168.169 58.409C166.673 59.7401 165.942 61.2579 165.552 62.2191C163.925 66.237 164.673 69.5552 164.064 69.6589C163.404 69.7706 163.106 65.8046 160.004 63.4144C158.681 62.394 156.497 61.3851 155.638 62.1081C154.257 63.2727 158.073 67.4268 156.762 70.7421C155.489 73.9673 150.465 73.6341 143.044 75.6702C134.073 78.1304 127.913 82.3497 124.455 84.6877C117.443 89.4296 113.023 94.5512 111.361 96.5858C102.246 107.735 99.5545 119.503 97.4838 128.565L97.4767 128.565L97.4768 128.569Z" fill="url(#paint1_linear_2225_1045)"/>
<path d="M111.365 96.5885C109.803 96.0155 107.446 95.1313 104.603 93.9983C93.5728 89.5996 91.8342 88.104 86.4253 86.648C82.5824 85.6113 77.8882 84.3465 72.2569 85.4824C64.8768 86.9709 60.0888 91.7344 57.9762 94.1594C53.4566 99.3471 50.3719 103.609 47.4308 108.919C45.4042 112.575 43.3362 116.315 41.618 121.65C39.2968 128.865 36.0503 138.949 40.5614 147.062C42.326 150.237 45.2238 153.013 47.9798 155.649C51.0194 158.559 52.8552 159.688 55.6014 162.785C58.0084 165.495 59.6151 168.026 60.5961 169.742C61.5373 172.235 62.4632 174.878 63.3454 177.676C64.1481 180.221 64.8493 182.686 65.463 185.052C65.7914 186.244 66.3361 187.943 67.2388 189.878C68.7619 193.14 71.3511 198.685 77.0452 201.515C81.9242 203.939 86.8306 203.252 89.1699 202.735C89.1699 202.735 94.1441 201.028 97.6149 197.582C96.6521 196.498 95.2922 194.785 94.0609 192.461C89.1579 183.204 91.1197 173.24 91.8153 170.325C92.7806 166.283 93.688 165.849 94.5171 161.173C95.3331 156.572 95.1173 153.252 95.0485 150.769C94.6964 137.903 97.7311 126.958 98.9714 122.497C100.679 116.344 102.548 112.061 102.998 111.041C105.751 104.816 108.876 99.9817 111.358 96.5886L111.365 96.5885Z" fill="#C0B4DF"/>
<path d="M47.9755 155.646C49.7567 157.938 51.9939 158.724 55.5971 162.782C58.0041 165.492 59.6108 168.023 60.5918 169.739C61.533 172.232 62.459 174.875 63.3412 177.673C64.1438 180.218 64.845 182.683 65.4587 185.049C65.7871 186.24 66.3318 187.939 67.2345 189.875C68.7576 193.137 71.3468 198.682 77.0409 201.512C81.9199 203.936 86.8263 203.249 89.1656 202.732C89.1656 202.732 94.1398 201.025 97.6106 197.579C96.6479 196.495 95.2879 194.781 94.0566 192.458C89.1536 183.201 91.1154 173.236 91.811 170.322C92.7763 166.28 93.6838 165.846 94.5128 161.17C94.724 159.972 94.8654 158.869 94.958 157.838C95.275 154.329 95.0641 151.087 95.0442 150.766C94.7466 145.853 95.4556 140.653 96.0598 136.203C96.5312 132.731 97.3704 128.027 98.9672 122.497C98.9672 122.497 89.4262 110.098 75.807 107.443C73.9383 107.079 72.8695 106.873 71.3052 106.95C58.1913 107.61 49.2961 126.551 46.7699 139.171C45.7121 144.458 44.3913 151.044 47.972 155.65L47.9756 155.649L47.9755 155.646Z" fill="#ACECC7"/>
<path d="M48.268 136.403C49.0303 136.865 51.6388 131.135 58.2396 127.419C63.2088 124.619 67.9654 124.352 69.933 124.243C83.9919 123.455 94.4372 134.437 96.0734 136.206C96.4381 133.784 96.9007 131.234 97.4829 128.572C97.9459 126.447 98.4499 124.422 98.9772 122.501C95.1093 119.649 91.783 117.302 89.2246 115.531C84.7302 112.422 83.0353 111.372 80.6271 110.417C77.9309 109.346 75.4003 108.34 72.1094 108.612C68.533 108.911 66.0456 110.556 63.8874 112.021C62.4003 113.03 58.8436 115.656 54.3742 122.68C50.4196 128.894 47.4298 135.899 48.2681 136.41L48.268 136.403Z" fill="#8EC2A7"/>
<path d="M95.6068 196.828C92.2141 199.232 88.4873 201.943 84.1238 201.799C80.8549 201.692 77.8507 199.979 75.4156 197.906C70.3278 193.578 67.0861 188.126 65.3392 181.698C63.5923 175.27 62.8838 168.541 58.4923 163.36C56.6707 161.212 54.256 159.685 52.1433 157.85C48.9524 155.078 46.0235 151.956 43.5114 148.554C36.4035 138.929 42.2021 125.393 46.557 115.733C51.1665 105.508 56.9453 93.2845 68.0404 88.8209C74.1985 86.3424 81.4989 86.6211 87.6829 88.8533C95.3094 91.607 102.677 95.0944 110.297 97.9018C112.24 98.6182 113.022 95.4946 111.097 94.7851C103.689 92.0561 96.5105 88.7763 89.1371 85.9824C83.3002 83.7691 76.8081 83.3152 70.7084 84.6417C57.5476 87.5082 49.9958 100.542 44.8083 111.839C42.5054 116.852 40.2929 121.928 38.7889 127.244C37.0022 133.556 35.811 141.005 38.811 147.143C40.261 150.109 42.6456 152.766 44.8437 155.19C47.4575 158.075 50.3473 160.594 53.4063 162.982C59.2162 167.519 60.2029 174.418 61.8838 181.155C63.8108 188.878 67.5202 195.711 73.8069 200.733C76.7944 203.118 80.2966 204.901 84.1877 205.015C89.1445 205.159 93.4125 202.325 97.2852 199.576C98.9621 198.384 97.3085 195.625 95.6139 196.828L95.6068 196.828Z" fill="#5E5573"/>
<path d="M49.3734 155.561C46.5264 144.323 49.278 133.94 55.0211 124.152C57.5648 119.818 60.5613 115.418 64.7349 112.503C69.9149 108.887 75.6535 109.176 81.2365 111.794C86.8196 114.412 92.147 118.951 96.7433 123.381C98.2343 124.82 100.47 122.507 98.9759 121.068C90.6669 113.057 77.88 102.266 65.6142 108.245C60.4753 110.748 56.6875 115.476 53.6716 120.194C50.3567 125.382 47.5094 130.944 46.0462 136.953C44.4861 143.351 44.6768 150.107 46.2868 156.473C46.794 158.48 49.8807 157.571 49.3734 155.564L49.3734 155.561Z" fill="#5E5573"/>
<path d="M110.715 97.9441C110.815 97.517 108.121 96.7853 101.11 94.0887C93.6532 91.2176 92.1679 90.3001 86.982 88.7187C81.9075 87.1711 79.6872 86.9386 77.8175 86.9216C73.7491 86.8861 70.7173 87.8654 70.1026 88.0728C64.5164 89.9407 61.1287 93.6393 57.6392 97.4469C54.9248 100.412 53.1583 103.002 52.3889 104.17C43.4525 117.739 40.7598 133.886 40.7564 133.897C40.7564 133.897 42.9676 125.304 45.8564 118.651C50.6687 107.564 57.6444 101.186 59.4113 99.6283C63.6562 95.8895 67.1535 94.1443 69.0867 93.3023C71.2221 92.3675 74.181 91.1071 78.1992 90.9326C78.9386 90.9017 81.2358 90.8361 85.7875 91.9247C92.5216 93.5324 93.6364 95.132 99.4551 96.7165C105.033 98.2338 110.572 98.5472 110.711 97.9513L110.711 97.9442L110.715 97.9441Z" fill="#DACFF3"/>
<path d="M226.379 93.603C227.919 92.9753 230.243 92.0085 233.045 90.7759C243.913 85.991 245.598 84.435 250.952 82.7892C254.756 81.6176 259.403 80.1881 265.07 81.1247C272.498 82.352 277.451 86.9437 279.648 89.2927C284.348 94.3177 287.581 98.4679 290.708 103.671C292.862 107.254 295.061 110.918 296.966 116.189C299.54 123.318 303.14 133.281 298.918 141.548C297.266 144.783 294.468 147.66 291.807 150.392C288.872 153.407 287.077 154.6 284.442 157.792C282.132 160.585 280.615 163.171 279.695 164.921C278.843 167.445 278.011 170.119 277.228 172.946C276.515 175.518 275.901 178.006 275.372 180.393C275.085 181.595 274.601 183.312 273.767 185.279C272.36 188.592 269.968 194.225 264.377 197.254C259.587 199.848 254.659 199.335 252.303 198.901C252.303 198.901 247.272 197.37 243.681 194.049C244.605 192.931 245.904 191.171 247.053 188.806C251.626 179.382 249.314 169.492 248.516 166.604C247.409 162.599 246.487 162.197 245.493 157.553C244.516 152.984 244.614 149.658 244.595 147.174C244.494 134.304 241.075 123.473 239.678 119.058C237.755 112.969 235.736 108.755 235.25 107.752C232.279 101.627 228.985 96.9063 226.386 93.6029L226.379 93.603Z" fill="#C0B4DF"/>
<path d="M291.806 150.391C290.107 152.745 287.899 153.609 284.441 157.792C282.131 160.585 280.615 163.171 279.695 164.921C278.842 167.445 278.01 170.119 277.227 172.946C276.515 175.518 275.901 178.006 275.371 180.392C275.085 181.595 274.6 183.312 273.766 185.278C272.359 188.592 269.967 194.224 264.377 197.254C259.586 199.848 254.658 199.334 252.302 198.9C252.302 198.9 247.271 197.37 243.681 194.048C244.605 192.931 245.903 191.171 247.052 188.806C251.626 179.381 249.314 169.492 248.516 166.604C247.408 162.598 246.486 162.196 245.493 157.553C245.24 156.363 245.059 155.266 244.93 154.238C244.49 150.743 244.586 147.496 244.595 147.174C244.719 142.253 243.827 137.082 243.066 132.656C242.473 129.203 241.468 124.531 239.677 119.062C239.677 119.062 248.775 106.333 262.292 103.199C264.147 102.77 265.208 102.526 266.774 102.548C279.903 102.746 289.461 121.361 292.43 133.884C293.674 139.131 295.226 145.666 291.81 150.395L291.806 150.395L291.806 150.391Z" fill="#ACECC7"/>
<path d="M290.834 131.167C290.088 131.656 287.279 126.022 280.552 122.541C275.487 119.917 270.724 119.819 268.753 119.779C254.675 119.487 244.624 130.831 243.051 132.657C242.601 130.249 242.049 127.717 241.373 125.077C240.836 122.97 240.261 120.964 239.666 119.062C243.431 116.075 246.672 113.613 249.167 111.753C253.549 108.487 255.205 107.378 257.578 106.339C260.235 105.173 262.729 104.079 266.027 104.235C269.612 104.408 272.156 105.964 274.364 107.351C275.886 108.307 279.533 110.806 284.247 117.668C288.419 123.739 291.654 130.634 290.834 131.174L290.834 131.167Z" fill="#8EC2A7"/>
<path d="M244.083 196.029C247.793 198.469 251.758 200.919 256.339 201.024C259.814 201.102 263.178 199.71 265.941 197.674C271.273 193.741 275.323 188.057 277.396 181.787C279.578 175.185 279.388 167.461 283.308 161.519C285.147 158.73 288.048 156.863 290.439 154.591C293.571 151.615 296.383 148.281 298.826 144.717C306.182 133.981 299.962 119.757 294.856 109.363C289.584 98.6292 283.118 86.4791 271.445 81.6771C264.726 78.911 256.568 79.0835 249.796 81.5871C246.323 82.8709 243.004 84.5916 239.639 86.1343C235.327 88.112 230.971 89.9904 226.581 91.7872C224.686 92.5605 225.57 95.6583 227.49 94.8738C234.467 92.0198 241.251 88.7832 248.139 85.727C253.505 83.3447 259.371 82.3333 265.221 83.2453C277.694 85.1914 285.119 97.1923 290.363 107.534C292.663 112.069 294.885 116.651 296.532 121.469C298.484 127.179 300.377 134.373 297.781 140.185C296.525 142.988 294.368 145.528 292.397 147.836C290.008 150.634 287.368 153.151 284.543 155.495C279.346 159.812 277.618 165.79 276.369 172.186C275.615 176.035 274.89 179.954 273.295 183.56C271.831 186.871 269.694 189.719 267.187 192.304C264.884 194.679 262.127 196.815 258.837 197.559C253.945 198.664 249.551 195.786 245.653 193.22C243.92 192.078 242.358 194.894 244.079 196.025L244.083 196.025L244.083 196.029Z" fill="#5E5573"/>
<path d="M293.526 151.155C294.789 145.31 294.87 139.189 293.52 133.351C292.138 127.384 289.301 121.951 285.994 116.848C282.973 112.183 279.361 107.6 274.534 104.697C268.707 101.196 262.338 101.68 256.337 104.506C249.959 107.511 244.476 112.608 239.621 117.63C238.182 119.121 240.495 121.354 241.934 119.863C248.937 112.619 260.729 101.248 271.759 106.837C276.408 109.192 279.853 113.425 282.695 117.685C285.816 122.363 288.541 127.291 290.045 132.74C291.626 138.464 291.659 144.565 290.41 150.356C289.973 152.376 293.087 153.183 293.526 151.155Z" fill="#5E5573"/>
<path d="M227.073 94.9383C226.958 94.515 229.625 93.6887 236.536 90.7465C243.887 87.6143 245.339 86.645 250.466 84.8817C255.483 83.1561 257.693 82.8455 259.561 82.7625C263.626 82.5836 266.69 83.4553 267.312 83.6409C272.961 85.3107 276.477 88.8875 280.098 92.5697C282.915 95.4368 284.772 97.9634 285.582 99.1036C294.992 112.349 298.252 128.391 298.256 128.402C298.256 128.402 295.743 119.892 292.622 113.345C287.421 102.435 280.225 96.3064 278.404 94.8122C274.03 91.2255 270.473 89.6046 268.512 88.8314C266.345 87.9724 263.343 86.8172 259.321 86.7844C258.581 86.7796 256.283 86.7951 251.773 88.0436C245.1 89.8877 244.042 91.5256 238.283 93.3144C232.762 95.0274 227.237 95.5359 227.077 94.9454L227.077 94.9383L227.073 94.9383Z" fill="#DACFF3"/>
<path d="M119.102 91.9347C126.077 87.1398 129.563 84.7406 133.144 82.9152C146.405 76.1543 158.526 77.3668 159.673 71.9097C159.888 70.8944 159.911 68.7457 160.218 68.7367C160.579 68.7232 160.495 71.6772 162.223 72.6047C162.88 72.9577 163.555 72.8886 163.701 72.8681C164.842 72.7229 165.519 71.803 165.686 71.557C166.488 70.3812 165.869 69.5306 166.263 67.765C166.69 65.8523 167.989 64.2852 168.392 64.4282C169.122 64.6834 166.657 70.4318 168.826 72.2273C169.551 72.8257 170.631 72.8531 171.339 72.6655C172.627 72.3246 172.88 71.23 174.7 69.2569C175.605 68.2758 177.145 66.608 177.758 66.9189C178.591 67.3438 176.5 70.8087 177.763 73.2957C178.826 75.3859 181.868 76.0007 184.413 76.1774C187.249 76.5063 191.601 77.2087 196.685 78.8884C198.26 79.4076 202.77 80.9687 214.152 87.4916C217.604 89.4681 222.339 92.2764 227.893 95.878C225.881 93.4364 223.06 90.3835 219.321 87.2932C216.752 85.1723 212.057 81.6306 205.444 78.5588C205.444 78.5588 198.499 75.3356 190.532 73.7317C188.107 73.2419 186.894 72.9988 185.968 72.9901C184.992 72.9823 184.208 73.0748 183.133 72.7184C182.266 72.4299 181.284 71.8717 180.801 71.2582C179.598 69.7174 180.382 66.3114 183.134 63.2674C183.134 63.2674 176.006 62.6604 171.18 70.495C171.516 61.2168 170.465 58.9799 169.41 58.7161C167.956 58.3557 165.269 61.445 164.355 64.3922C163.882 65.9197 163.461 68.7796 163.461 68.7796C163.461 68.7796 162.753 66.9833 161.75 65.607C161.49 65.2506 160.841 64.3577 159.882 63.699C157.957 62.3746 155.684 62.5934 154.725 62.7462C155.269 63.1691 156.684 64.3845 157.204 66.47C157.358 67.0785 157.869 69.132 156.754 70.7459C156.085 71.7192 155.133 72.0506 153.26 72.677C150.929 73.458 149.819 73.3811 146.255 74.141C146.255 74.141 145.222 74.3593 143.489 74.7938C138.047 76.1552 132.977 78.9112 130.542 80.2553C125.667 82.9399 122.38 85.4607 121.502 86.1446C119.658 87.5783 117.631 89.169 115.345 91.7007C113.217 94.0546 111.715 96.2758 110.715 97.9484C112.737 96.4401 115.606 94.3448 119.106 91.9382L119.102 91.9383L119.102 91.9347Z" fill="#A394C5"/>
<path d="M111.356 96.5899C113.254 93.9291 115.81 90.9029 119.208 87.9906C122.225 85.3994 124.804 83.8455 127.647 82.1297C132.015 79.4933 135.484 77.963 138.134 76.8046C140.446 75.7915 141.931 75.2506 143.496 74.7976C145.054 74.3448 145.525 74.315 148.463 73.6841C155.524 72.1655 156.368 71.5644 156.882 70.7332C157.883 69.1214 157.368 67.0858 157.211 66.4702C156.662 64.3066 155.196 63.0993 154.732 62.7464C155.385 62.6348 157.656 62.3338 159.889 63.6992C163.159 65.6969 163.434 69.5024 163.451 69.8632C163.423 68.5053 163.544 65.5971 165.226 62.4755C166.721 59.704 168.734 58.0814 169.835 57.3185C170.361 58.7211 170.905 60.5917 171.155 62.8428C171.461 65.6041 171.217 67.9461 170.91 69.6101C171.611 68.411 173.311 65.8788 176.539 64.0668C179.268 62.5353 181.818 62.2294 183.179 62.1625C179.747 67.6383 179.912 70.109 180.756 71.3487C181.883 73.0017 184.336 72.6332 189.3 73.4285C193.24 74.0596 195.912 74.9669 200.036 76.3669C201.349 76.812 207.877 79.0846 215.315 84.1543C218.456 86.2972 222.381 89.3628 226.388 93.603" stroke="#5E5573" stroke-width="2.14436" stroke-linecap="round" stroke-linejoin="round"/>
<path d="M107.908 101.909C108.361 100.857 108.916 99.7214 109.427 98.6936C109.756 98.0766 110.205 97.2108 110.477 96.5733C111.043 95.4588 111.883 94.6612 113.081 94.0717C113.134 94.0493 113.196 94.0697 113.222 94.1228C113.195 95.4602 112.754 96.5796 111.956 97.5445C111.201 98.3406 110.38 99.4203 109.651 100.241C109.129 100.833 108.611 101.428 108.06 102.003C107.993 102.075 107.87 101.995 107.911 101.905L107.908 101.905L107.908 101.909Z" fill="#5E5573"/>
<path d="M229.714 98.7558C228.896 97.9552 228.036 97.0267 227.26 96.1789C226.8 95.6509 226.158 94.9187 225.663 94.4342C224.825 93.5053 224.388 92.4335 224.268 91.1059C224.267 91.0487 224.309 90.9979 224.366 90.9934C225.604 91.5005 226.491 92.3142 227.1 93.408C227.571 94.3969 228.282 95.5533 228.785 96.5309C229.151 97.2322 229.517 97.9299 229.855 98.6496C229.9 98.7346 229.776 98.8262 229.711 98.7522L229.714 98.7558Z" fill="#5E5573"/>
<path d="M102.457 113.329C99.0009 122.877 96.6832 132.926 96.3085 143.091C96.1819 147.465 97.1239 151.834 96.5756 156.212C96.2876 159.138 95.8208 162.055 94.9411 164.87C94.4976 166.275 94.0175 167.631 93.6918 169.024C93.3553 170.417 93.1374 171.84 92.9803 173.272C92.4845 177.585 92.0996 181.906 92.7971 186.187C94.0188 194.05 98.5742 198.592 104.78 203.086C121.929 215.162 150.155 220.545 170.945 221.161C176.727 221.313 182.531 221.453 188.284 220.93C199.743 219.877 210.901 216.302 221.054 210.933C226.053 208.207 231.239 205.517 235.548 201.781C238.708 198.944 241.745 195.859 244.183 192.392C246.55 188.976 248.185 185.033 248.415 180.854C248.701 175.566 247.633 170.173 246.135 165.091L245.987 164.572L245.911 164.312L245.873 164.184C245.872 164.159 245.809 164.025 245.906 164.227L245.831 164.039C244.441 159.62 243.142 154.857 243.43 150.147C244.089 140.274 242.581 130.353 240.224 120.772L240.136 120.437C240.109 120.32 240.076 120.252 240.032 120.01L240.056 120.124C239.251 117.861 237.643 113.229 236.855 110.951C236.833 110.887 236.867 110.815 236.931 110.793C236.995 110.77 237.064 110.801 237.09 110.865C238.009 113.118 239.808 117.623 240.705 119.88L240.729 119.994C240.75 119.972 240.781 120.133 240.819 120.236L240.921 120.57C242.722 126.586 244.017 132.765 244.714 139.008C245.003 141.802 245.22 144.59 245.202 147.41C245.195 149.251 245.037 151.059 245.226 152.875C245.412 154.652 245.736 156.459 246.182 158.188C246.66 159.949 247.502 162.529 247.88 163.709C248.502 165.721 249.11 167.773 249.607 169.82C250.752 174.94 251.363 180.359 250.088 185.521C248.602 191.445 244.711 196.39 240.475 200.625C239.46 201.665 238.339 202.761 237.248 203.71C232.753 207.664 227.482 210.384 222.252 213.175C211.792 218.635 200.262 222.149 188.487 223.1C182.622 223.568 176.749 223.353 170.894 223.138C149.786 222.32 121.308 216.61 103.995 204.176C97.5667 199.432 92.8742 194.614 91.6882 186.349C91.0211 181.964 91.4711 177.481 92.0236 173.139C92.2016 171.681 92.444 170.222 92.8083 168.786C93.1653 167.346 93.677 165.954 94.1247 164.587C95.02 161.844 95.5128 158.983 95.8269 156.118C96.4187 151.772 95.5341 147.423 95.7145 143.059C96.2136 132.848 98.6595 122.772 102.248 113.225C102.272 113.161 102.346 113.127 102.411 113.154C102.476 113.178 102.506 113.249 102.485 113.314L102.457 113.329Z" fill="#5E5573"/>
<path d="M236.792 110.867C240.872 120.471 243.423 130.703 244.585 141.07C244.985 144.516 244.815 148.032 245.026 151.475C245.467 156.614 246.665 161.701 248.544 166.508C249.187 168.137 249.842 169.805 250.145 171.552C250.448 173.319 250.468 175.095 250.392 176.859C250.056 183.967 246.935 190.599 242.911 196.343C239.849 200.651 235.903 204.327 231.49 207.225C227.109 210.159 222.409 212.44 217.714 214.767C209.814 218.574 201.311 221.04 192.659 222.401C185.752 223.531 178.667 223.484 171.713 223.21C164.739 222.994 157.762 222.405 150.859 221.355C138.75 219.606 126.847 216.188 115.629 211.263C110.781 209.161 105.976 206.687 101.867 203.321C99.4214 201.473 96.9573 199.175 95.298 196.498C90.9046 189.588 89.9552 180.951 91.431 173.025C92.0863 170.046 92.8198 167.049 93.6726 164.128C94.6266 160.862 95.3112 157.525 95.3268 154.151C94.5384 143.706 95.8074 133.171 98.4565 123.058C99.3591 119.718 100.177 116.24 101.95 113.224C101.985 113.166 102.064 113.147 102.121 113.182C102.179 113.216 102.195 113.291 102.164 113.349C101.751 114.1 101.426 114.899 101.136 115.712C99.2682 121.453 98.2125 127.466 97.428 133.45C96.7821 138.576 96.4517 143.754 96.682 148.908C96.7593 150.658 96.9962 152.338 97.074 154.113C97.1347 155.931 96.9586 157.7 96.7287 159.459C96.0475 163.803 94.6183 167.893 93.8292 172.196C92.1378 180.265 93.178 189.383 98.1119 196.138C99.5818 198.206 101.396 199.729 103.451 201.312C106.105 203.464 108.977 205.183 112.032 206.709C127.448 214.379 144.341 218.839 161.47 220.485C171.744 221.337 182.163 222.089 192.403 220.601C200.891 219.346 209.264 217 217.039 213.339C221.685 211.091 226.403 208.848 230.707 206.02C235.012 203.245 238.857 199.732 241.865 195.582C245.81 190.04 248.939 183.669 249.34 176.788C249.435 175.089 249.433 173.373 249.168 171.712C248.888 170.026 248.288 168.435 247.677 166.834C245.825 161.93 244.668 156.746 244.287 151.516C244.114 148.031 244.329 144.588 243.971 141.12C243.642 137.68 243.117 134.251 242.467 130.852C241.171 124.048 239.198 117.373 236.572 110.953C236.546 110.889 236.577 110.817 236.641 110.791C236.705 110.765 236.777 110.796 236.803 110.86L236.792 110.867Z" fill="#5E5573"/>
<path d="M221.182 63.9221C218.452 68.5503 215.725 73.175 212.994 77.8033L223.991 69.4724L215.957 80.523C220.021 77.9748 224.088 75.423 228.151 72.8748C228.326 73.3823 228.634 74.1078 229.173 74.8726C229.541 75.3944 231.686 78.4323 235.231 78.3215C237.15 78.2607 239.649 77.2743 240.681 74.9584C241.414 73.3144 241.082 71.7419 240.921 71.145C241.357 71.1629 243.998 71.2201 245.867 69.2008C247.472 67.471 248.287 64.4546 246.786 62.2102C245.385 60.1123 242.794 59.9229 242.436 59.9014C242.837 59.1759 243.469 57.7892 243.501 55.9772C243.573 51.8315 240.431 49.3225 240.26 49.1867C239.541 48.6328 237.158 46.9816 234.03 47.5392C229.802 48.2933 228.123 52.3854 228.026 52.6392C227.751 52.3926 225.263 50.2411 221.825 50.9165C218.662 51.5384 217.172 54.0723 216.961 54.4476C216.79 54.8193 215.664 57.3603 216.925 60.1695C218.18 62.9571 220.792 63.8077 221.189 63.9292L221.182 63.9221Z" fill="white" stroke="#5E5573" stroke-width="2.21069" stroke-linecap="round" stroke-linejoin="round"/>
<path d="M114.886 63.9221C117.617 68.5503 120.344 73.175 123.074 77.8033C119.407 75.0263 115.744 72.2494 112.077 69.4724L120.111 80.523C116.048 77.9748 111.981 75.423 107.917 72.8748C107.742 73.3823 107.435 74.1078 106.895 74.8726C106.527 75.3944 104.382 78.4323 100.837 78.3215C98.9179 78.2607 96.4197 77.2743 95.3869 74.9584C94.6542 73.3144 94.9866 71.7419 95.1474 71.145C94.7114 71.1629 92.0702 71.2201 90.2011 69.2008C88.5964 67.471 87.7815 64.4546 89.2826 62.2102C90.6836 60.1123 93.2747 59.9229 93.632 59.9014C93.2318 59.1759 92.5992 57.7892 92.567 55.9772C92.4955 51.8315 95.637 49.3225 95.8086 49.1867C96.5269 48.6328 98.9108 46.9816 102.038 47.5392C106.266 48.2933 107.946 52.3854 108.042 52.6392C108.317 52.3926 110.805 50.2411 114.243 50.9165C117.406 51.5384 118.896 54.0723 119.107 54.4476C119.279 54.8193 120.404 57.3603 119.143 60.1695C117.888 62.9571 115.276 63.8077 114.879 63.9292L114.886 63.9221Z" fill="white" stroke="#5E5573" stroke-width="2.21069" stroke-linecap="round" stroke-linejoin="round"/>
<path d="M201.59 105.437C202.119 105.479 203.47 105.662 204.717 106.687C206.3 107.992 206.608 109.75 206.69 110.258C207.119 112.938 205.532 114.929 205.264 115.254" stroke="#5E5573" stroke-width="2.14436" stroke-linecap="round" stroke-linejoin="round"/>
<path d="M205.451 100.026C207.16 101.041 208.51 102.006 209.486 102.749C211.445 104.247 211.895 104.872 212.188 105.433C212.467 105.969 212.506 106.27 212.849 108.803C213.389 112.796 213.442 113.174 213.232 113.9C213.006 114.683 212.47 115.433 211.409 116.898C210.351 118.357 209.397 119.49 208.718 120.254" stroke="#5E5573" stroke-width="2.14436" stroke-linecap="round" stroke-linejoin="round"/>
<path d="M213.57 113.964C217.598 114.421 221.601 115.065 225.568 115.894" stroke="#5E5573" stroke-width="2.14436" stroke-linecap="round" stroke-linejoin="round"/>
<path d="M221.133 100C220.554 100.665 219.657 101.877 219.189 103.617C218.957 104.475 218.692 105.461 218.978 106.423C219.5 108.156 221.694 109.339 224.378 109.561" stroke="#5E5573" stroke-width="2.14436" stroke-linecap="round" stroke-linejoin="round"/>
<path d="M209.045 98.1966C209.163 98.3539 210.407 99.9729 212.376 99.905C214.166 99.8406 215.793 98.4111 216.196 96.3989" stroke="#5E5573" stroke-width="2.14436" stroke-linecap="round" stroke-linejoin="round"/>
<path d="M213.482 123.442C214.705 121.437 216.874 120.294 219.047 120.519C221.356 120.758 222.7 122.442 222.957 122.774" stroke="#5E5573" stroke-width="2.14436" stroke-linecap="round" stroke-linejoin="round"/>
<path d="M114.327 162.784C113.916 162.184 108.755 154.418 112.168 146.365C115.657 138.138 126.068 134.393 133.773 137.466C140.202 140.032 142.415 146.408 142.561 146.859C145.163 154.782 139.942 161.287 139.566 161.737C134.087 168.324 125.753 167.459 125.16 167.387L114.32 162.788H114.327V162.784Z" fill="white"/>
<path d="M130.776 166.427C138.047 166.427 143.942 159.849 143.942 151.734C143.942 143.62 138.047 137.042 130.776 137.042C123.504 137.042 117.609 143.62 117.609 151.734C117.609 159.849 123.504 166.427 130.776 166.427Z" fill="#5E5573" stroke="#5E5573" stroke-width="2.14436" stroke-linecap="round" stroke-linejoin="round"/>
<path d="M133.752 151.93C136.545 151.93 138.81 149.666 138.81 146.873C138.81 144.08 136.545 141.816 133.752 141.816C130.959 141.816 128.695 144.08 128.695 146.873C128.695 149.666 130.959 151.93 133.752 151.93Z" fill="white"/>
<path d="M123.822 158.978C125.217 158.978 126.348 157.847 126.348 156.452C126.348 155.056 125.217 153.925 123.822 153.925C122.426 153.925 121.295 155.056 121.295 156.452C121.295 157.847 122.426 158.978 123.822 158.978Z" fill="white"/>
<path d="M128.277 154.636C129.079 154.636 129.728 153.986 129.728 153.185C129.728 152.384 129.079 151.734 128.277 151.734C127.476 151.734 126.826 152.384 126.826 153.185C126.826 153.986 127.476 154.636 128.277 154.636Z" fill="white"/>
<path d="M134.65 137.109C123.617 133.464 111.616 140.973 111.476 152.874C111.387 156.501 112.438 160.107 114.167 163.32L114.053 163.403C111.608 160.536 110.15 156.762 110.05 152.874C109.836 145.004 116.144 138.045 123.585 136.223C127.284 135.333 131.212 135.612 134.7 136.97L134.65 137.106V137.109Z" fill="#5E5573"/>
<path d="M110.492 163.414C111.536 162.771 112.78 162.367 114.077 162.392C114.72 162.399 115.381 162.524 115.992 162.75C116.593 162.975 117.14 163.2 117.712 163.439C118.837 163.918 119.942 164.444 121.064 164.944C121.625 165.194 122.186 165.444 122.722 165.741C122.994 165.884 123.255 166.045 123.516 166.206L123.902 166.459L124.095 166.592L124.191 166.659L124.238 166.695C124.28 166.724 124.173 166.652 124.091 166.631C124.005 166.602 123.912 166.595 123.83 166.599L124.288 166.727C124.884 167.171 125.471 167.628 126.032 168.132C126.318 168.375 126.589 168.639 126.861 168.9C127.129 169.168 127.393 169.44 127.64 169.744L127.543 169.894C127.165 169.805 126.804 169.683 126.443 169.562C126.089 169.433 125.731 169.304 125.388 169.154C124.695 168.872 124.027 168.55 123.369 168.207L123.827 168.336C123.726 168.332 123.619 168.311 123.516 168.275C123.419 168.243 123.294 168.164 123.319 168.182L123.269 168.157L123.169 168.107L122.972 168.003L122.576 167.792C122.315 167.646 122.05 167.503 121.797 167.342C121.282 167.035 120.785 166.692 120.281 166.363C119.273 165.698 118.226 165.108 117.175 164.519C116.657 164.226 116.114 163.918 115.606 163.654C115.103 163.4 114.574 163.214 114.013 163.125C112.887 162.935 111.686 163.139 110.571 163.579L110.492 163.418V163.414Z" fill="#5E5573"/>
<path d="M121.298 127.32C122.885 127.27 124.747 127.366 126.788 127.77C132.617 128.924 136.681 131.962 138.811 133.856C139.586 134.407 140.769 135.272 142.177 136.398C144.368 138.152 145.222 139.035 146.984 139.946C148.607 140.786 149.987 141.498 151.091 140.886C152.442 140.143 152.453 137.931 152.449 137.598C152.713 138.056 153.064 138.785 153.232 139.739C153.353 140.429 153.6 141.798 152.906 143.142C151.977 144.95 150.012 145.436 149.672 145.515C148.868 145.633 147.638 145.733 146.187 145.515C142.253 144.918 140.819 142.58 133.75 136.347C129.637 132.72 126.888 130.661 123.822 128.781C122.775 128.142 121.892 127.641 121.295 127.316H121.298V127.32Z" fill="#5E5573"/>
<path d="M153.164 219.538C153.714 220.614 154.494 222.029 155.523 223.634C155.523 223.634 155.973 224.334 156.427 224.996C159.125 228.898 166.509 238.173 179.172 241.153C186.713 242.93 193.21 241.786 196.959 240.8C201.023 244.027 206.251 242.762 207.813 239.881C209.018 237.658 208.213 234.149 205.537 231.765C204.414 226.94 207.878 223.73 205.862 220.228C202.123 215.185 196.398 220.149 194.129 224.513C190.651 225.846 188.843 225.428 187.828 224.738C187.803 224.72 187.778 224.703 187.763 224.692C186.323 223.652 185.587 222.383 185.194 221.272C183.6 221.279 181.616 221.275 179.336 221.236C178.203 221.218 174.872 221.154 170.373 220.939C165.723 220.714 163.4 220.603 160.323 220.271C158.318 220.053 154.311 219.567 154.311 219.567C154.311 219.567 153.929 219.56 153.168 219.542H153.164V219.538Z" fill="url(#paint2_linear_2225_1045)"/>
<path d="M139.819 183.32C144.33 184.568 146.596 189.621 146.378 194.014C146.346 197.437 145.356 201.029 142.632 203.317C141.739 204.074 140.634 204.646 139.491 204.757L139.391 204.528C141.692 202.409 142.561 199.564 143.626 196.748C145.441 192.194 144.534 185.886 139.734 183.556L139.816 183.32H139.819Z" fill="#5E5573"/>
<path d="M192.111 183.556C187.311 185.886 186.404 192.194 188.219 196.748C189.284 199.567 190.153 202.409 192.454 204.528L192.354 204.757C191.21 204.646 190.106 204.074 189.213 203.317C186.489 201.033 185.499 197.441 185.467 194.014C185.335 190.633 186.493 187.087 189.123 184.861C189.967 184.142 190.957 183.596 192.025 183.32L192.108 183.556H192.111Z" fill="#5E5573"/>
<path d="M145.634 189.031C143.572 217.04 167.435 249.316 196.963 240.8C199.179 241.69 203.028 243.237 204.722 242.544C207.52 241.654 209.518 237.826 208.124 234.906C207.61 233.92 206.834 233.609 206.198 232.841C203.818 229.728 206.784 225.089 206.498 221.779C205.783 219.063 203.096 217.376 200.365 218.43C195.215 219.853 195.709 227.451 189.368 224.22C183.318 221.704 181.045 213.741 181.284 207.616C181.742 202.23 185.162 192.505 187.002 187.623" stroke="#5E5573" stroke-width="2.14436" stroke-linecap="round" stroke-linejoin="round"/>
<path d="M156.016 161.144C158.585 159.307 161.841 158.292 164.997 158.12C165.705 158.088 166.73 158.063 167.449 158.081C169.908 158.242 172.338 159.332 173.943 161.241L173.835 161.426C171.444 160.997 169.429 160.679 167.173 160.186L166.091 159.968C165.454 159.865 164.525 159.804 163.871 159.793C163.314 159.793 162.188 159.847 161.63 159.9L160.512 160.054C159.014 160.279 157.545 160.729 156.119 161.337L156.016 161.151V161.144Z" fill="#5E5573"/>
<path d="M149.867 170.714C153.999 166.604 159.753 164.249 165.575 164.145C170.078 163.985 174.499 164.857 178.169 167.594C179.363 168.456 180.453 169.453 181.354 170.603L181.218 170.768C178.727 169.449 176.236 168.266 173.577 167.469C170.964 166.719 168.302 165.993 165.564 165.861C162.812 165.761 160.031 166.09 157.405 166.958C154.738 167.759 152.251 169.149 150.01 170.879L149.867 170.718V170.714Z" fill="#5E5573"/>
<path d="M154.729 181.326C155.45 180.64 156.24 180.018 157.091 179.475C157.941 178.935 158.839 178.449 159.789 178.081C160.729 177.684 161.719 177.409 162.72 177.177C163.728 176.98 164.753 176.855 165.783 176.812C166.812 176.78 167.852 176.776 168.888 176.869C169.925 176.962 170.947 177.198 171.926 177.573C172.913 177.959 173.831 178.463 174.671 179.074C175.507 179.693 176.272 180.404 176.873 181.254L176.744 181.426C175.779 181.076 174.875 180.722 173.967 180.418C173.066 180.111 172.159 179.839 171.272 179.618L168.556 178.967C167.645 178.749 166.712 178.588 165.772 178.531C163.892 178.435 161.98 178.592 160.136 179.099C158.27 179.553 156.501 180.404 154.868 181.494L154.732 181.326H154.729Z" fill="#5E5573"/>
<path d="M156.009 194.567C158.576 192.319 162.035 191.119 165.441 190.972C167.178 190.897 168.972 190.858 170.634 191.483C172.296 192.094 173.836 193.074 174.894 194.514L174.773 194.693C173.918 194.485 173.136 194.26 172.353 194.067C170.806 193.667 169.312 193.424 167.764 193.066C166.999 192.888 166.217 192.748 165.427 192.691C162.221 192.487 158.954 193.109 156.131 194.746L156.006 194.571H156.009V194.567Z" fill="#5E5573"/>
<path d="M159.438 213.373C160.849 210.728 163.365 208.734 166.217 207.823C167.672 207.355 169.205 206.919 170.756 207.169C172.297 207.408 173.783 208.034 174.877 209.167L174.791 209.363C174.019 209.363 173.315 209.32 172.622 209.309C171.257 209.263 169.995 209.352 168.648 209.342C167.983 209.335 167.311 209.37 166.65 209.488C163.948 209.996 161.446 211.39 159.613 213.502L159.438 213.38V213.373Z" fill="#5E5573"/>
<path d="M166.049 223.609C166.32 220.968 167.821 218.405 170.034 216.879C171.167 216.086 172.403 215.314 173.829 215.207C175.237 215.096 176.667 215.375 177.825 216.207L177.786 216.418C176.538 216.747 175.38 216.965 174.208 217.315C173.125 217.673 171.96 217.823 170.927 218.341C168.765 219.424 167.132 221.365 166.256 223.656L166.049 223.606V223.609Z" fill="#5E5573"/>
<path d="M174.236 231.783C173.729 230.278 173.668 228.491 174.276 226.965C175.466 224.156 178.282 222.269 181.259 223.695V223.874C180.223 224.338 179.322 224.66 178.522 225.075L177.331 225.675C175.08 226.719 174.254 229.37 174.412 231.747L174.236 231.779V231.783Z" fill="#5E5573"/>
<path d="M182.428 233.316C182.303 232.376 182.057 231.443 182.089 230.467C182.185 228.663 183.161 226.933 185.145 226.815L185.227 226.933C184.805 227.887 184.412 228.502 183.808 229.202C182.736 230.264 182.882 231.911 182.571 233.32L182.428 233.312V233.316Z" fill="#5E5573"/>
<path d="M202.632 226.771C203.38 224.817 203.195 222.93 202.219 222.556C201.242 222.181 199.843 223.461 199.094 225.415C198.345 227.369 198.53 229.256 199.507 229.631C200.484 230.005 201.883 228.725 202.632 226.771Z" fill="#5E5573"/>
<path d="M204.893 238.746C205.762 238.164 205.524 236.283 204.361 234.544C203.197 232.805 201.549 231.867 200.68 232.448C199.81 233.03 200.049 234.911 201.212 236.65C202.375 238.389 204.023 239.328 204.893 238.746Z" fill="#5E5573"/>
<path d="M122.705 174.779C122.974 170.496 117.663 166.678 110.843 166.25C104.023 165.822 98.2767 168.947 98.008 173.229C97.7393 177.512 103.05 181.331 109.87 181.759C116.69 182.187 122.437 179.062 122.705 174.779Z" fill="#E9ADB8"/>
<path d="M104.218 173.37C104.962 171.812 104.9 170.231 104.079 169.838C103.258 169.446 101.989 170.392 101.244 171.95C100.5 173.509 100.562 175.09 101.383 175.482C102.204 175.874 103.473 174.929 104.218 173.37Z" fill="#E68B9B"/>
<path d="M110.099 174.761C111.036 172.8 111.129 170.892 110.308 170.5C109.487 170.108 108.062 171.379 107.126 173.34C106.189 175.301 106.095 177.209 106.916 177.601C107.737 177.993 109.162 176.722 110.099 174.761Z" fill="#E68B9B"/>
<path d="M115.817 175.929C116.811 174.208 116.978 172.444 116.19 171.989C115.402 171.534 113.957 172.56 112.964 174.282C111.97 176.003 111.803 177.767 112.591 178.222C113.379 178.677 114.823 177.651 115.817 175.929Z" fill="#E68B9B"/>
<path d="M220.755 162.784C221.166 162.184 226.326 154.418 222.913 146.365C219.425 138.138 209.014 134.393 201.309 137.466C194.879 140.032 192.667 146.408 192.521 146.859C189.919 154.782 195.14 161.287 195.512 161.737C200.991 168.324 209.325 167.459 209.919 167.387L220.758 162.788L220.755 162.784Z" fill="white"/>
<path d="M204.303 166.427C211.575 166.427 217.469 159.849 217.469 151.734C217.469 143.62 211.575 137.042 204.303 137.042C197.032 137.042 191.137 143.62 191.137 151.734C191.137 159.849 197.032 166.427 204.303 166.427Z" fill="#5E5573" stroke="#5E5573" stroke-width="2.14436" stroke-linecap="round" stroke-linejoin="round"/>
<path d="M201.327 151.93C204.12 151.93 206.384 149.666 206.384 146.873C206.384 144.08 204.12 141.816 201.327 141.816C198.534 141.816 196.27 144.08 196.27 146.873C196.27 149.666 198.534 151.93 201.327 151.93Z" fill="white"/>
<path d="M211.255 158.978C212.651 158.978 213.782 157.847 213.782 156.452C213.782 155.056 212.651 153.925 211.255 153.925C209.86 153.925 208.729 155.056 208.729 156.452C208.729 157.847 209.86 158.978 211.255 158.978Z" fill="white"/>
<path d="M206.797 154.636C207.598 154.636 208.248 153.986 208.248 153.185C208.248 152.384 207.598 151.734 206.797 151.734C205.995 151.734 205.346 152.384 205.346 153.185C205.346 153.986 205.995 154.636 206.797 154.636Z" fill="white"/>
<path d="M200.383 136.973C205.626 134.907 211.941 135.368 216.734 138.467C221.651 141.48 225.2 147.005 225.036 152.873C224.936 156.762 223.478 160.536 221.033 163.402L220.919 163.32C222.645 160.107 223.696 156.501 223.61 152.873C223.503 145.29 218.538 139.071 211.319 136.916C207.817 135.876 203.971 135.976 200.44 137.109L200.39 136.973H200.383Z" fill="#5E5573"/>
<path d="M224.509 163.57C221.914 162.541 220.138 163.113 217.901 164.51C215.831 165.582 213.977 167.023 211.907 168.098C211.746 168.184 211.489 168.331 211.253 168.327L211.711 168.198C210.381 168.885 208.998 169.507 207.54 169.885L207.443 169.735C208.423 168.588 209.591 167.616 210.796 166.722L211.253 166.594C211.171 166.587 211.078 166.597 210.992 166.626C210.91 166.647 210.803 166.715 210.846 166.69L210.892 166.655C212.872 165.264 215.188 164.453 217.368 163.438C219.909 162.23 222.093 161.898 224.588 163.417L224.509 163.577V163.57Z" fill="#5E5573"/>
<path d="M213.778 127.32C212.191 127.27 210.329 127.366 208.288 127.77C202.459 128.924 198.396 131.962 196.266 133.856C195.49 134.407 194.307 135.272 192.899 136.398C190.708 138.152 189.854 139.035 188.092 139.946C186.47 140.786 185.09 141.498 183.986 140.886C182.635 140.143 182.624 137.931 182.628 137.598C182.363 138.056 182.013 138.785 181.845 139.739C181.723 140.429 181.477 141.798 182.17 143.142C183.099 144.95 185.065 145.436 185.405 145.515C186.209 145.633 187.438 145.733 188.889 145.515C192.824 144.918 194.257 142.58 201.326 136.347C205.44 132.72 208.188 130.661 211.255 128.781C212.302 128.142 213.185 127.641 213.782 127.316H213.778V127.32Z" fill="#5E5573"/>
<path d="M225.191 181.789C232.011 181.362 237.322 177.543 237.053 173.26C236.784 168.977 231.038 165.853 224.218 166.28C217.398 166.708 212.087 170.527 212.356 174.81C212.624 179.092 218.371 182.217 225.191 181.789Z" fill="#E9ADB8"/>
<path d="M233.692 175.465C234.513 175.073 234.575 173.492 233.831 171.933C233.087 170.375 231.818 169.429 230.996 169.822C230.175 170.214 230.113 171.795 230.858 173.354C231.602 174.912 232.871 175.858 233.692 175.465Z" fill="#E68B9B"/>
<path d="M228.166 177.584C228.987 177.192 228.893 175.284 227.956 173.323C227.02 171.362 225.595 170.09 224.774 170.482C223.953 170.874 224.046 172.782 224.983 174.743C225.92 176.704 227.344 177.976 228.166 177.584Z" fill="#E68B9B"/>
<path d="M222.487 178.224C223.275 177.769 223.108 176.005 222.114 174.283C221.12 172.562 219.676 171.535 218.888 171.99C218.1 172.445 218.267 174.209 219.26 175.931C220.254 177.652 221.699 178.679 222.487 178.224Z" fill="#E68B9B"/>
</g>
<defs>
<filter id="filter0_d_2225_1045" x="-0.000948071" y="0.000121117" width="335.579" height="335.579" filterUnits="userSpaceOnUse" color-interpolation-filters="sRGB">
<feFlood flood-opacity="0" result="BackgroundImageFix"/>
<feColorMatrix in="SourceAlpha" type="matrix" values="0 0 0 0 0 0 0 0 0 0 0 0 0 0 0 0 0 0 127 0" result="hardAlpha"/>
<feOffset dx="-1.78786" dy="5.3636"/>
<feGaussianBlur stdDeviation="8.89463"/>
<feComposite in2="hardAlpha" operator="out"/>
<feColorMatrix type="matrix" values="0 0 0 0 0.811765 0 0 0 0 0.309804 0 0 0 0 0.321569 0 0 0 0.43 0"/>
<feBlend mode="normal" in2="BackgroundImageFix" result="effect1_dropShadow_2225_1045"/>
<feBlend mode="normal" in="SourceGraphic" in2="effect1_dropShadow_2225_1045" result="shape"/>
</filter>
<linearGradient id="paint0_linear_2225_1045" x1="169.576" y1="12.4258" x2="169.576" y2="312.426" gradientUnits="userSpaceOnUse">
<stop offset="0.245192" stop-color="#CF4F52"/>
<stop offset="1" stop-color="#FF9E9E"/>
</linearGradient>
<linearGradient id="paint1_linear_2225_1045" x1="90.1192" y1="141.263" x2="249.932" y2="138.444" gradientUnits="userSpaceOnUse">
<stop stop-color="#C0B4DF"/>
<stop offset="0.5" stop-color="#FF5F64"/>
<stop offset="1" stop-color="#C0B4DF"/>
</linearGradient>
<linearGradient id="paint2_linear_2225_1045" x1="180.762" y1="218.102" x2="180.762" y2="242.701" gradientUnits="userSpaceOnUse">
<stop stop-color="#FF5F64"/>
<stop offset="1" stop-color="#C0B4DF"/>
</linearGradient>
</defs>
</svg>
