<svg width="65" height="65" viewBox="0 0 65 65" fill="none" xmlns="http://www.w3.org/2000/svg">
<rect x="65" width="65" height="65" rx="32.5" transform="rotate(90 65 0)" fill="#D9D9D9"/>
<path fill-rule="evenodd" clip-rule="evenodd" d="M34.0478 39.8544V35.5938H27.5757C26.8881 35.5922 26.2075 35.7318 25.576 36.0037C24.9445 36.2756 24.3755 36.6742 23.9041 37.1747C23.4327 37.6753 23.069 38.2672 22.8354 38.9138C22.6018 39.5605 22.5034 40.2482 22.5461 40.9345C22.5888 41.6207 22.7718 42.2909 23.0838 42.9036C23.3958 43.5163 23.8302 44.0585 24.36 44.4967C24.8898 44.9349 25.5039 45.2598 26.1643 45.4513C26.8247 45.6427 27.5173 45.6967 28.1993 45.61L29.0614 45.5016C30.4374 45.329 31.7032 44.6603 32.6212 43.6208C33.5393 42.5814 34.0465 41.2412 34.0478 39.8544Z" fill="#4C4C4C"/>
<path d="M34.0471 26.3093V25.3637C34.0471 22.8581 34.0471 21.6061 34.7807 20.741C35.5142 19.8759 36.7492 19.6685 39.2192 19.2553L42.8685 18.6486C43.079 18.6146 43.1842 18.596 43.2399 18.6579C43.2957 18.7198 43.2709 18.8219 43.2198 19.0293L41.8347 24.5713C41.8115 24.6642 41.7991 24.7106 41.7666 24.7416C41.7341 24.7725 41.6892 24.7818 41.5948 24.8004L34.0471 26.3093ZM34.0471 26.3093V35.595M34.0471 35.595V39.8556C34.0466 41.243 33.5397 42.5824 32.6215 43.6225C31.7034 44.6626 30.4372 45.3318 29.0607 45.5044L28.1986 45.6128C27.5174 45.6978 26.8259 45.6424 26.1669 45.45C25.5079 45.2576 24.8952 44.9323 24.3667 44.4941C23.8382 44.0559 23.4051 43.5141 23.0939 42.9021C22.7828 42.2901 22.6002 41.6209 22.5576 40.9357C22.5149 40.2505 22.613 39.5638 22.8459 38.918C23.0787 38.2721 23.4413 37.6808 23.9114 37.1804C24.3815 36.6801 24.949 36.2813 25.5791 36.0086C26.2092 35.7359 26.8884 35.5952 27.5749 35.595H34.0471Z" stroke="#4C4C4C" stroke-width="3.09524"/>
<line x1="21.3844" y1="18.6803" x2="46.0783" y2="48.3741" stroke="black"/>
</svg>
