<svg width="178" height="186" viewBox="0 0 178 186" fill="none" xmlns="http://www.w3.org/2000/svg">
<g clip-path="url(#clip0_1684_11993)">
<path d="M45.4889 57.9017C40.4701 65.3589 37.2957 72.2768 35.2699 77.6007C32.5033 84.866 31.3368 90.5851 30.5227 94.6565C28.9846 102.349 28.2365 106.294 29.1387 111.177C29.7275 114.361 30.899 120.707 36.3416 124.39C39.0687 126.235 41.8879 126.75 43.6694 126.907C44.796 128.215 46.6455 130.027 49.3611 131.49C53.5935 133.767 57.588 133.933 59.5594 133.881C60.5209 135.174 61.8589 136.596 63.6951 137.782C70.6115 142.248 78.7549 139.589 80.1909 139.094C80.1197 143.248 80.5567 149.082 82.9254 155.511C84.6303 160.141 85.7993 163.175 88.9103 165.129C94.0478 168.354 102.045 167.079 105.687 162.727C108.448 159.427 107.896 155.322 107.224 148.385C106.264 138.499 106.061 128.547 105.278 118.645C103.55 96.7836 104.566 90.5095 108.607 88.1753C109.352 87.7445 109.975 87.5791 110.552 87.4309C117.288 85.694 121.309 92.5652 133.675 97.7367C139.022 99.9727 142.17 100.317 145.105 99.8112C148.037 99.3067 150.274 98.0298 151.688 97.0496C152.597 96.1925 154.732 93.9346 155.129 90.5327C155.358 88.5757 154.97 86.6273 153.727 84.0777C150.756 77.9921 145.816 74.4494 144.501 73.4961C129.831 62.8654 132.183 59.9646 118.654 51.7726C115.131 49.6405 110.113 46.8966 103.71 44.3242C103.084 42.4909 102.188 39.5419 101.56 35.818C100.468 29.3478 101.368 27.5613 100.162 25.5027C97.4393 20.8514 88.0099 21.7275 78.9463 22.5746C78.9463 22.5746 66.0599 23.7752 47.4034 33.2165C45.9848 33.9364 43.3478 35.3494 42.5396 38.0305C41.9968 39.842 42.5169 41.4578 42.7528 42.2228C43.6677 45.2213 44.6861 49.9341 45.4854 57.9033L45.4889 57.9017Z" fill="#F6D1BB" stroke="#9C7487" stroke-width="2.26584" stroke-miterlimit="10"/>
<path d="M40.654 106.999C39.9853 110.82 40.1819 113.949 40.4576 115.979C40.8608 118.97 41.4873 123.62 45.0453 127.702C47.1257 130.091 49.4448 131.409 50.9177 132.102" stroke="#9C7487" stroke-width="2.26584" stroke-miterlimit="10"/>
<path d="M55.7955 111.897C55.6131 113.687 55.4611 116.22 55.6268 119.247C55.9038 124.318 56.185 129.425 59.5606 133.876C60.5 135.113 62.08 136.83 64.669 138.352" stroke="#9C7487" stroke-width="2.26584" stroke-miterlimit="10"/>
<path d="M81.0564 112.785C79.5009 126.374 80.0577 137.406 80.8959 145.065C82.1737 156.732 84.3045 162.347 88.9069 165.122C91.1108 166.453 93.3631 166.815 94.9368 166.911" stroke="#9C7487" stroke-width="2.26584" stroke-miterlimit="10"/>
</g>
<defs>
<clipPath id="clip0_1684_11993">
<rect width="127.744" height="145.316" fill="white" transform="translate(0 53.9872) rotate(-25)"/>
</clipPath>
</defs>
</svg>
