<svg width="104" height="130" viewBox="0 0 104 130" fill="none" xmlns="http://www.w3.org/2000/svg">
<circle cx="50.0002" cy="79.7227" r="50" fill="#D9D9D9"/>
<path d="M14.2863 114.295L86.0006 45.1523" stroke="black" stroke-width="0.285714"/>
<path d="M86.0002 114.295L14.2859 45.1523" stroke="black" stroke-width="0.285714"/>
<path d="M14.6471 74.5067C14.7964 74.5067 14.9138 74.5493 14.9991 74.6347C15.0951 74.72 15.1431 74.8267 15.1431 74.9547C15.1431 75.0293 15.1271 75.1093 15.0951 75.1947L10.8231 85.4027C10.7698 85.5093 10.7004 85.5893 10.6151 85.6427C10.5298 85.696 10.4444 85.7227 10.3591 85.7227C10.2631 85.7227 10.1724 85.696 10.0871 85.6427C10.0018 85.5893 9.94309 85.5147 9.91109 85.4187L5.65509 75.2267C5.64442 75.1947 5.63376 75.1573 5.62309 75.1147C5.61242 75.072 5.60709 75.024 5.60709 74.9707C5.60709 74.832 5.65509 74.72 5.75109 74.6347C5.85776 74.5493 5.96442 74.5067 6.07109 74.5067C6.29509 74.5067 6.45509 74.624 6.55109 74.8587L10.5511 84.4267H10.2631L14.1991 74.8267C14.3058 74.6133 14.4551 74.5067 14.6471 74.5067ZM17.8797 85.2427C17.8797 85.3707 17.8317 85.4827 17.7357 85.5787C17.6397 85.6747 17.5277 85.7227 17.3997 85.7227C17.261 85.7227 17.1437 85.6747 17.0477 85.5787C16.9624 85.4827 16.9197 85.3707 16.9197 85.2427V77.8827C16.9197 77.7547 16.9624 77.6427 17.0477 77.5467C17.1437 77.4507 17.261 77.4027 17.3997 77.4027C17.5384 77.4027 17.6504 77.4507 17.7357 77.5467C17.8317 77.6427 17.8797 77.7547 17.8797 77.8827V85.2427ZM17.3997 76.3307C17.1757 76.3307 17.005 76.2827 16.8877 76.1867C16.781 76.08 16.7277 75.9307 16.7277 75.7387V75.5787C16.7277 75.3867 16.7864 75.2427 16.9037 75.1467C17.0317 75.04 17.2024 74.9867 17.4157 74.9867C17.6184 74.9867 17.773 75.04 17.8797 75.1467C17.997 75.2427 18.0557 75.3867 18.0557 75.5787V75.7387C18.0557 75.9307 17.997 76.08 17.8797 76.1867C17.773 76.2827 17.613 76.3307 17.3997 76.3307ZM19.9096 84.4267C19.8243 84.2987 19.7816 84.176 19.7816 84.0587C19.7923 83.9307 19.8616 83.8293 19.9896 83.7547C20.0749 83.68 20.1709 83.648 20.2776 83.6587C20.3949 83.6693 20.5016 83.7227 20.5976 83.8187C20.8856 84.192 21.2323 84.496 21.6376 84.7307C22.0536 84.9547 22.5443 85.0667 23.1096 85.0667C23.4083 85.0667 23.7016 85.0187 23.9896 84.9227C24.2883 84.816 24.5336 84.6613 24.7256 84.4587C24.9176 84.2453 25.0136 83.9787 25.0136 83.6587C25.0136 83.328 24.9176 83.0613 24.7256 82.8587C24.5336 82.656 24.2829 82.496 23.9736 82.3787C23.6749 82.2613 23.3549 82.16 23.0136 82.0747C22.6509 81.9787 22.2989 81.872 21.9576 81.7547C21.6163 81.6267 21.3123 81.472 21.0456 81.2907C20.7896 81.0987 20.5816 80.8693 20.4216 80.6027C20.2616 80.336 20.1816 80.0107 20.1816 79.6267C20.1816 79.1787 20.3043 78.784 20.5496 78.4427C20.7949 78.1013 21.1256 77.8347 21.5416 77.6427C21.9683 77.4507 22.4483 77.3547 22.9816 77.3547C23.2483 77.3547 23.5363 77.392 23.8456 77.4667C24.1549 77.5307 24.4589 77.6427 24.7576 77.8027C25.0563 77.9627 25.3229 78.1813 25.5576 78.4587C25.6536 78.5547 25.7016 78.6667 25.7016 78.7947C25.7016 78.912 25.6483 79.0187 25.5416 79.1147C25.4563 79.1787 25.3549 79.2107 25.2376 79.2107C25.1309 79.2107 25.0403 79.168 24.9656 79.0827C24.7096 78.7947 24.4056 78.576 24.0536 78.4267C23.7016 78.2773 23.3229 78.2027 22.9176 78.2027C22.6083 78.2027 22.3149 78.256 22.0376 78.3627C21.7709 78.4587 21.5469 78.608 21.3656 78.8107C21.1843 79.0133 21.0936 79.28 21.0936 79.6107C21.1149 79.92 21.2216 80.1707 21.4136 80.3627C21.6163 80.5547 21.8776 80.7147 22.1976 80.8427C22.5283 80.9707 22.8963 81.088 23.3016 81.1947C23.6429 81.28 23.9683 81.3813 24.2776 81.4987C24.5976 81.616 24.8749 81.7653 25.1096 81.9467C25.3549 82.1173 25.5469 82.336 25.6856 82.6027C25.8349 82.8693 25.9096 83.2053 25.9096 83.6107C25.9096 84.08 25.7763 84.4853 25.5096 84.8267C25.2536 85.168 24.9069 85.4293 24.4696 85.6107C24.0323 85.792 23.5469 85.8827 23.0136 85.8827C22.4376 85.8827 21.8776 85.7707 21.3336 85.5467C20.8003 85.3227 20.3256 84.9493 19.9096 84.4267ZM33.9856 77.5947C34.1243 77.5947 34.2363 77.6427 34.3216 77.7387C34.4176 77.8347 34.4656 77.9467 34.4656 78.0747V82.5867C34.4656 83.6427 34.1669 84.448 33.5696 85.0027C32.9723 85.5573 32.1669 85.8347 31.1536 85.8347C30.1509 85.8347 29.3509 85.5573 28.7536 85.0027C28.1669 84.448 27.8736 83.6427 27.8736 82.5867V78.0747C27.8736 77.9467 27.9163 77.8347 28.0016 77.7387C28.0976 77.6427 28.2149 77.5947 28.3536 77.5947C28.4923 77.5947 28.6043 77.6427 28.6896 77.7387C28.7856 77.8347 28.8336 77.9467 28.8336 78.0747V82.5867C28.8336 83.3547 29.0363 83.9413 29.4416 84.3467C29.8576 84.7413 30.4283 84.9387 31.1536 84.9387C31.8896 84.9387 32.4656 84.7413 32.8816 84.3467C33.2976 83.9413 33.5056 83.3547 33.5056 82.5867V78.0747C33.5056 77.9467 33.5483 77.8347 33.6336 77.7387C33.7189 77.6427 33.8363 77.5947 33.9856 77.5947ZM43.687 77.5467C43.8256 77.5467 43.9376 77.5947 44.023 77.6907C44.119 77.7867 44.167 77.904 44.167 78.0427V85.2427C44.167 85.3707 44.119 85.4827 44.023 85.5787C43.927 85.6747 43.815 85.7227 43.687 85.7227C43.5483 85.7227 43.431 85.6747 43.335 85.5787C43.2496 85.4827 43.207 85.3707 43.207 85.2427V83.3387L43.479 83.2107C43.479 83.5093 43.3936 83.8133 43.223 84.1227C43.063 84.432 42.839 84.72 42.551 84.9867C42.263 85.2533 41.9216 85.472 41.527 85.6427C41.143 85.8027 40.727 85.8827 40.279 85.8827C39.5536 85.8827 38.903 85.696 38.327 85.3227C37.7616 84.9493 37.3136 84.4373 36.983 83.7867C36.663 83.136 36.503 82.4053 36.503 81.5947C36.503 80.7627 36.6683 80.032 36.999 79.4027C37.3296 78.7627 37.7776 78.2613 38.343 77.8987C38.9083 77.536 39.5483 77.3547 40.263 77.3547C40.7216 77.3547 41.1483 77.4347 41.543 77.5947C41.9483 77.7547 42.3003 77.9733 42.599 78.2507C42.8976 78.528 43.127 78.848 43.287 79.2107C43.4576 79.5627 43.543 79.9307 43.543 80.3147L43.207 80.0747V78.0427C43.207 77.904 43.2496 77.7867 43.335 77.6907C43.431 77.5947 43.5483 77.5467 43.687 77.5467ZM40.359 84.9867C40.9243 84.9867 41.4256 84.8427 41.863 84.5547C42.3003 84.256 42.6416 83.8507 42.887 83.3387C43.143 82.816 43.271 82.2347 43.271 81.5947C43.271 80.9653 43.143 80.4 42.887 79.8987C42.6416 79.3973 42.3003 78.9973 41.863 78.6987C41.4256 78.4 40.9243 78.2507 40.359 78.2507C39.8043 78.2507 39.303 78.3947 38.855 78.6827C38.4176 78.9707 38.071 79.3653 37.815 79.8667C37.5696 80.368 37.447 80.944 37.447 81.5947C37.447 82.2347 37.5696 82.816 37.815 83.3387C38.071 83.8507 38.4176 84.256 38.855 84.5547C39.2923 84.8427 39.7936 84.9867 40.359 84.9867ZM47.7421 85.2427C47.7421 85.3707 47.6941 85.4827 47.5981 85.5787C47.5021 85.6747 47.3901 85.7227 47.2621 85.7227C47.1234 85.7227 47.0061 85.6747 46.9101 85.5787C46.8248 85.4827 46.7821 85.3707 46.7821 85.2427V74.3627C46.7821 74.2347 46.8301 74.1227 46.9261 74.0267C47.0221 73.9307 47.1341 73.8827 47.2621 73.8827C47.4008 73.8827 47.5128 73.9307 47.5981 74.0267C47.6941 74.1227 47.7421 74.2347 47.7421 74.3627V85.2427ZM62.9886 85.7867C62.8499 85.7867 62.7326 85.728 62.6366 85.6107L58.0926 79.8987L58.8446 79.1467L63.4206 84.9387C63.4953 85.0453 63.5326 85.1573 63.5326 85.2747C63.5326 85.4453 63.4686 85.5733 63.3406 85.6587C63.2233 85.744 63.1059 85.7867 62.9886 85.7867ZM62.8126 74.5547C62.9406 74.5547 63.0473 74.6027 63.1326 74.6987C63.2286 74.7947 63.2766 74.9013 63.2766 75.0187C63.2766 75.1467 63.2286 75.2587 63.1326 75.3547L55.8686 82.1547L55.7406 81.0667L62.4606 74.7147C62.5673 74.608 62.6846 74.5547 62.8126 74.5547ZM55.4846 85.7227C55.3353 85.7227 55.2126 85.6747 55.1166 85.5787C55.0313 85.4827 54.9886 85.3653 54.9886 85.2267V75.0187C54.9886 74.88 55.0366 74.7627 55.1326 74.6667C55.2286 74.5707 55.3513 74.5227 55.5006 74.5227C55.6393 74.5227 55.7566 74.5707 55.8526 74.6667C55.9486 74.7627 55.9966 74.88 55.9966 75.0187V85.2267C55.9859 85.3653 55.9326 85.4827 55.8366 85.5787C55.7406 85.6747 55.6233 85.7227 55.4846 85.7227ZM66.4735 85.2427C66.4735 85.3707 66.4255 85.4827 66.3295 85.5787C66.2335 85.6747 66.1215 85.7227 65.9935 85.7227C65.8548 85.7227 65.7375 85.6747 65.6415 85.5787C65.5561 85.4827 65.5135 85.3707 65.5135 85.2427V77.8827C65.5135 77.7547 65.5561 77.6427 65.6415 77.5467C65.7375 77.4507 65.8548 77.4027 65.9935 77.4027C66.1321 77.4027 66.2441 77.4507 66.3295 77.5467C66.4255 77.6427 66.4735 77.7547 66.4735 77.8827V85.2427ZM65.9935 76.3307C65.7695 76.3307 65.5988 76.2827 65.4815 76.1867C65.3748 76.08 65.3215 75.9307 65.3215 75.7387V75.5787C65.3215 75.3867 65.3801 75.2427 65.4975 75.1467C65.6255 75.04 65.7961 74.9867 66.0095 74.9867C66.2121 74.9867 66.3668 75.04 66.4735 75.1467C66.5908 75.2427 66.6495 75.3867 66.6495 75.5787V75.7387C66.6495 75.9307 66.5908 76.08 66.4735 76.1867C66.3668 76.2827 66.2068 76.3307 65.9935 76.3307ZM72.6473 77.4827C73.3087 77.4827 73.874 77.6587 74.3433 78.0107C74.8127 78.352 75.1327 78.864 75.3033 79.5467L75.0793 79.6107L75.1753 79.3227C75.314 79.0027 75.5433 78.704 75.8633 78.4267C76.194 78.1387 76.5673 77.9093 76.9833 77.7387C77.3993 77.568 77.8207 77.4827 78.2473 77.4827C78.9193 77.4827 79.458 77.6267 79.8633 77.9147C80.2793 78.2027 80.578 78.592 80.7593 79.0827C80.9513 79.5627 81.0473 80.1067 81.0473 80.7147V85.2427C81.0473 85.3707 80.9993 85.4827 80.9033 85.5787C80.818 85.6747 80.706 85.7227 80.5673 85.7227C80.4287 85.7227 80.3113 85.6747 80.2153 85.5787C80.13 85.4827 80.0873 85.3707 80.0873 85.2427V80.7627C80.0873 80.3253 80.018 79.9253 79.8793 79.5627C79.7407 79.2 79.522 78.912 79.2233 78.6987C78.9247 78.4853 78.5247 78.3787 78.0233 78.3787C77.586 78.3787 77.1647 78.4853 76.7593 78.6987C76.3647 78.912 76.0393 79.2 75.7833 79.5627C75.538 79.9253 75.4153 80.3253 75.4153 80.7627V85.2427C75.4153 85.3707 75.3673 85.4827 75.2713 85.5787C75.186 85.6747 75.074 85.7227 74.9353 85.7227C74.7967 85.7227 74.6793 85.6747 74.5833 85.5787C74.498 85.4827 74.4553 85.3707 74.4553 85.2427V80.7147C74.4553 80.2773 74.3913 79.8827 74.2633 79.5307C74.1353 79.1787 73.9273 78.9013 73.6393 78.6987C73.3513 78.4853 72.962 78.3787 72.4713 78.3787C72.034 78.3787 71.618 78.4853 71.2233 78.6987C70.8393 78.9013 70.5247 79.1787 70.2793 79.5307C70.0447 79.8827 69.9273 80.2773 69.9273 80.7147V85.2427C69.9273 85.3707 69.8793 85.4827 69.7833 85.5787C69.6873 85.6747 69.5753 85.7227 69.4473 85.7227C69.298 85.7227 69.1807 85.6747 69.0953 85.5787C69.01 85.4827 68.9673 85.3707 68.9673 85.2427V78.0747C68.9673 77.9467 69.01 77.8347 69.0953 77.7387C69.1913 77.6427 69.3087 77.5947 69.4473 77.5947C69.586 77.5947 69.698 77.6427 69.7833 77.7387C69.8793 77.8347 69.9273 77.9467 69.9273 78.0747V79.5627L69.4953 80.1547C69.5273 79.8347 69.6287 79.5147 69.7993 79.1947C69.9807 78.8747 70.2153 78.5867 70.5033 78.3307C70.7913 78.0747 71.1167 77.872 71.4793 77.7227C71.8527 77.5627 72.242 77.4827 72.6473 77.4827ZM91.1771 81.6267C91.1771 82.4373 91.0011 83.168 90.6491 83.8187C90.2971 84.4587 89.8171 84.9653 89.2091 85.3387C88.6011 85.7013 87.9078 85.8827 87.1291 85.8827C86.3718 85.8827 85.6838 85.7013 85.0651 85.3387C84.4571 84.9653 83.9718 84.4587 83.6091 83.8187C83.2571 83.168 83.0811 82.4373 83.0811 81.6267C83.0811 80.8053 83.2571 80.0747 83.6091 79.4347C83.9718 78.7947 84.4571 78.288 85.0651 77.9147C85.6838 77.5413 86.3718 77.3547 87.1291 77.3547C87.9078 77.3547 88.6011 77.5413 89.2091 77.9147C89.8171 78.288 90.2971 78.7947 90.6491 79.4347C91.0011 80.0747 91.1771 80.8053 91.1771 81.6267ZM90.2171 81.6267C90.2171 80.976 90.0838 80.4 89.8171 79.8987C89.5504 79.3867 89.1824 78.9867 88.7131 78.6987C88.2544 78.4 87.7264 78.2507 87.1291 78.2507C86.5531 78.2507 86.0304 78.4 85.5611 78.6987C85.0918 78.9867 84.7184 79.3867 84.4411 79.8987C84.1744 80.4 84.0411 80.976 84.0411 81.6267C84.0411 82.2773 84.1744 82.8533 84.4411 83.3547C84.7184 83.856 85.0918 84.256 85.5611 84.5547C86.0304 84.8427 86.5531 84.9867 87.1291 84.9867C87.7264 84.9867 88.2544 84.8427 88.7131 84.5547C89.1824 84.256 89.5504 83.856 89.8171 83.3547C90.0838 82.8533 90.2171 82.2773 90.2171 81.6267Z" fill="black"/>
<path d="M80.4058 60.8238C78.7033 60.4514 77.9851 59.2973 78.2511 57.3617L82.1195 29.2451C82.3589 27.6709 83.0443 26.4567 84.1756 25.6023C85.357 24.7589 86.6988 24.5015 88.201 24.8301C89.7032 25.1587 90.815 25.9529 91.5363 27.2125C92.2577 28.4722 92.3734 29.8617 91.8837 31.3811L83.7341 58.5612C83.1676 60.4311 82.0582 61.1853 80.4058 60.8238ZM76.2488 77.3079C74.7967 76.9902 73.7523 76.3682 73.1154 75.4419C72.5396 74.4764 72.4105 73.2676 72.7281 71.8155L73.0075 70.5386C73.3251 69.0865 73.9417 68.0671 74.8571 67.4803C75.8335 66.8544 77.0477 66.7003 78.4999 67.0179L79.4763 67.2315C80.9284 67.5492 81.9423 68.1908 82.5182 69.1562C83.155 70.0826 83.3146 71.2718 82.997 72.7239L82.7176 74.0008C82.4 75.4529 81.7529 76.4919 80.7765 77.1178C79.8611 77.7046 78.6774 77.8391 77.2253 77.5215L76.2488 77.3079Z" fill="#898989"/>
</svg>
