<svg width="92" height="92" viewBox="0 0 92 92" fill="none" xmlns="http://www.w3.org/2000/svg">
<g filter="url(#filter0_di_1822_289)">
<g filter="url(#filter1_d_1822_289)">
<mask id="path-1-inside-1_1822_289" fill="white">
<path d="M5.67969 43.2798C5.67969 21.1884 23.5883 3.27979 45.6797 3.27979V3.27979C67.7711 3.27979 85.6797 21.1884 85.6797 43.2798V43.2798C85.6797 65.3712 67.7711 83.2798 45.6797 83.2798V83.2798C23.5883 83.2798 5.67969 65.3712 5.67969 43.2798V43.2798Z"/>
</mask>
<path d="M5.67969 43.2798C5.67969 21.1884 23.5883 3.27979 45.6797 3.27979V3.27979C67.7711 3.27979 85.6797 21.1884 85.6797 43.2798V43.2798C85.6797 65.3712 67.7711 83.2798 45.6797 83.2798V83.2798C23.5883 83.2798 5.67969 65.3712 5.67969 43.2798V43.2798Z" fill="white"/>
<path d="M5.67969 3.27979H85.6797H5.67969ZM85.6797 49.2798C85.6797 71.3712 67.7711 89.2798 45.6797 89.2798C23.5883 89.2798 5.67969 71.3712 5.67969 49.2798V43.2798C5.67969 62.0575 23.5883 77.2798 45.6797 77.2798C67.7711 77.2798 85.6797 62.0575 85.6797 43.2798V49.2798ZM5.67969 83.2798V3.27979V83.2798ZM85.6797 3.27979V83.2798V3.27979Z" fill="#FFA4C9" mask="url(#path-1-inside-1_1822_289)"/>
</g>
<path d="M39.002 48.522H46.6982V53.23C46.6966 54.8481 46.105 56.4121 45.0342 57.6245C43.9629 58.8374 42.4855 59.6175 40.8799 59.8188L39.7158 59.9653H39.7139C38.9347 60.0645 38.1431 60.0034 37.3887 59.7847C36.6343 59.5659 35.9324 59.1944 35.3271 58.6938C34.7219 58.1932 34.2256 57.5735 33.8691 56.8735C33.5127 56.1736 33.3037 55.4075 33.2549 54.6235C33.2061 53.8396 33.3191 53.0537 33.5859 52.3149C33.8528 51.5763 34.2683 50.9004 34.8066 50.3286C35.3451 49.7568 35.9954 49.3014 36.7168 48.9907C37.4383 48.68 38.2164 48.5202 39.002 48.522Z" fill="#EBA5CC" stroke="#EBA5CC" stroke-width="2.08978"/>
<path d="M47.7424 34.9415V33.6647C47.7424 30.2813 47.7424 28.5907 48.733 27.4225C49.7236 26.2543 51.3912 25.9743 54.7265 25.4163L59.6542 24.5971C59.9384 24.5511 60.0805 24.5261 60.1557 24.6097C60.2309 24.6932 60.1975 24.8312 60.1285 25.1112L58.2582 32.5947C58.2269 32.7201 58.2101 32.7828 58.1663 32.8246C58.1224 32.8664 58.0618 32.8789 57.9343 32.904L47.7424 34.9415ZM47.7424 34.9415V47.4802ZM47.7424 47.4802V53.2333C47.7417 55.1067 47.0573 56.9153 45.8175 58.3198C44.5777 59.7242 42.868 60.6278 41.0092 60.861L39.8452 61.0073C38.9253 61.1221 37.9916 61.0472 37.1017 60.7874C36.2118 60.5276 35.3846 60.0884 34.6709 59.4967C33.9573 58.905 33.3723 58.1734 32.9522 57.347C32.532 56.5206 32.2856 55.617 32.228 54.6917C32.1704 53.7665 32.3028 52.8392 32.6172 51.9671C32.9316 51.095 33.4213 50.2966 34.0561 49.6209C34.6908 48.9453 35.4572 48.4068 36.308 48.0386C37.1588 47.6704 38.076 47.4804 39.003 47.4802H47.7424Z" fill="#EBA5CC"/>
<path d="M47.7424 34.9415V33.6647C47.7424 30.2813 47.7424 28.5907 48.733 27.4225C49.7236 26.2543 51.3912 25.9743 54.7265 25.4163L59.6542 24.5971C59.9384 24.5511 60.0805 24.5261 60.1557 24.6097C60.2309 24.6932 60.1975 24.8312 60.1285 25.1112L58.2582 32.5947C58.2269 32.7201 58.2101 32.7828 58.1663 32.8246C58.1224 32.8664 58.0618 32.8789 57.9343 32.904L47.7424 34.9415ZM47.7424 34.9415V47.4802M47.7424 47.4802V53.2333C47.7417 55.1067 47.0573 56.9153 45.8175 58.3198C44.5777 59.7242 42.868 60.6278 41.0092 60.861L39.8452 61.0073C38.9253 61.1221 37.9916 61.0472 37.1017 60.7874C36.2118 60.5276 35.3846 60.0884 34.6709 59.4967C33.9573 58.905 33.3723 58.1734 32.9522 57.347C32.532 56.5206 32.2856 55.617 32.228 54.6917C32.1704 53.7665 32.3028 52.8392 32.6172 51.9671C32.9316 51.095 33.4213 50.2966 34.0561 49.6209C34.6908 48.9453 35.4572 48.4068 36.308 48.0386C37.1588 47.6704 38.076 47.4804 39.003 47.4802H47.7424Z" stroke="#EBA5CC" stroke-width="4.17955"/>
<line x1="34.0825" y1="25.9836" x2="59.0825" y2="59.9836" stroke="#F89ABF"/>
</g>
<defs>
<filter id="filter0_di_1822_289" x="2.47969" y="0.879785" width="86.4" height="88.8" filterUnits="userSpaceOnUse" color-interpolation-filters="sRGB">
<feFlood flood-opacity="0" result="BackgroundImageFix"/>
<feColorMatrix in="SourceAlpha" type="matrix" values="0 0 0 0 0 0 0 0 0 0 0 0 0 0 0 0 0 0 127 0" result="hardAlpha"/>
<feOffset dy="3.2"/>
<feGaussianBlur stdDeviation="1.6"/>
<feComposite in2="hardAlpha" operator="out"/>
<feColorMatrix type="matrix" values="0 0 0 0 0.858824 0 0 0 0 0.45098 0 0 0 0 0.588235 0 0 0 0.5 0"/>
<feBlend mode="normal" in2="BackgroundImageFix" result="effect1_dropShadow_1822_289"/>
<feBlend mode="normal" in="SourceGraphic" in2="effect1_dropShadow_1822_289" result="shape"/>
<feColorMatrix in="SourceAlpha" type="matrix" values="0 0 0 0 0 0 0 0 0 0 0 0 0 0 0 0 0 0 127 0" result="hardAlpha"/>
<feOffset dx="2.4" dy="-2.4"/>
<feGaussianBlur stdDeviation="5.96"/>
<feComposite in2="hardAlpha" operator="arithmetic" k2="-1" k3="1"/>
<feColorMatrix type="matrix" values="0 0 0 0 0.858824 0 0 0 0 0.45098 0 0 0 0 0.588235 0 0 0 0.5 0"/>
<feBlend mode="normal" in2="shape" result="effect2_innerShadow_1822_289"/>
</filter>
<filter id="filter1_d_1822_289" x="-0.000312328" y="-0.000214577" width="91.36" height="91.36" filterUnits="userSpaceOnUse" color-interpolation-filters="sRGB">
<feFlood flood-opacity="0" result="BackgroundImageFix"/>
<feColorMatrix in="SourceAlpha" type="matrix" values="0 0 0 0 0 0 0 0 0 0 0 0 0 0 0 0 0 0 127 0" result="hardAlpha"/>
<feOffset dy="2.4"/>
<feGaussianBlur stdDeviation="2.84"/>
<feComposite in2="hardAlpha" operator="out"/>
<feColorMatrix type="matrix" values="0 0 0 0 0.980392 0 0 0 0 0.752941 0 0 0 0 0.847059 0 0 0 0.5 0"/>
<feBlend mode="normal" in2="BackgroundImageFix" result="effect1_dropShadow_1822_289"/>
<feBlend mode="normal" in="SourceGraphic" in2="effect1_dropShadow_1822_289" result="shape"/>
</filter>
</defs>
</svg>
