<svg width="280" height="280" viewBox="0 0 280 280" fill="none" xmlns="http://www.w3.org/2000/svg">
<g filter="url(#filter0_d_2225_960)">
<mask id="path-1-inside-1_2225_960" fill="white">
<path d="M141.314 10.3545C210.35 10.3545 266.314 66.3189 266.314 135.354C266.314 204.39 210.35 260.354 141.314 260.354C72.2789 260.354 16.3145 204.39 16.3145 135.354C16.3145 66.3189 72.2789 10.3545 141.314 10.3545Z"/>
</mask>
<path d="M141.314 10.3545C210.35 10.3545 266.314 66.3189 266.314 135.354C266.314 204.39 210.35 260.354 141.314 260.354C72.2789 260.354 16.3145 204.39 16.3145 135.354C16.3145 66.3189 72.2789 10.3545 141.314 10.3545Z" fill="url(#paint0_linear_2225_960)" shape-rendering="crispEdges"/>
<path d="M266.314 10.3545V260.354V10.3545ZM16.3145 260.354V10.3545V260.354ZM16.3145 10.3545H266.314H16.3145ZM266.314 141.837C266.314 210.872 210.35 266.837 141.314 266.837C72.2789 266.837 16.3145 210.872 16.3145 141.837V135.354C16.3145 200.81 72.2789 253.872 141.314 253.872C210.35 253.872 266.314 200.81 266.314 135.354V141.837Z" fill="#FADB5C" mask="url(#path-1-inside-1_2225_960)"/>
<g clip-path="url(#clip0_2225_960)">
<path d="M81.3267 113.764C79.78 120.023 79.3359 123.152 79.1512 126.821C78.8919 131.974 79.5267 133.496 78.7995 138.134C78.0276 143.072 77.0382 143.078 75.9892 148.496C75.2352 152.403 74.4484 156.465 75.554 161.364C76.6299 166.139 78.9694 169.354 80.4207 171.309C84.2563 176.477 88.6938 179.117 91.3641 180.673C95.3724 183.007 100.159 184.485 109.725 187.438C111.144 187.876 112.813 188.368 114.824 188.893C115.587 189.089 118.329 189.793 122.069 190.526C123.047 190.716 125.24 191.134 128.164 191.569C132.589 192.23 137.945 193.029 144.606 193.238C148.834 193.372 153.904 193.506 160.535 192.528C167.55 191.494 172.676 189.751 174.458 189.116C177.093 188.177 179.161 187.209 183.301 185.269C193.064 180.694 196.589 177.979 199.388 175.091C199.564 174.909 199.799 174.665 200.112 174.322C207.065 166.717 208.03 157.553 208.156 156.235C208.91 148.242 206.293 142.097 204.988 139.481C205.008 137.892 205.017 135.583 204.943 132.799C204.791 127.155 204.395 122.24 204.111 120.082C203.369 114.396 200.914 101.897 191.812 90.0151C186.624 83.2411 181.298 79.3102 179.59 78.0973C168.954 70.5395 158.011 68.5099 156.324 68.4354C155.209 68.3848 154.691 68.2566 153.65 68.0033C152.563 67.7381 152.011 67.598 151.648 67.2046C150.712 66.1943 151.257 64.2989 151.439 63.6701C152.217 60.967 154.092 60.0193 153.773 59.462C153.403 58.8153 150.42 59.2862 148.006 60.9462C148.006 60.9462 147.022 61.6227 143.682 65.5029C144.31 55.5311 143.297 55.1824 143.297 55.1824C142.802 55.0126 142.192 55.5371 141.297 56.3089C140.031 57.3967 139.399 58.6514 139.059 59.4471C137.644 62.773 138.219 65.5506 137.709 65.6281C137.158 65.7115 136.967 62.4005 134.416 60.362C133.328 59.4918 131.522 58.6186 130.795 59.2087C129.627 60.1594 132.747 63.679 131.606 66.4238C130.497 69.0941 126.313 68.7424 120.096 70.3308C112.58 72.2501 107.383 75.6773 104.465 77.5757C98.5493 81.4262 94.7883 85.6312 93.3727 87.3031C85.6093 96.4643 83.1923 106.236 81.3327 113.761H81.3267V113.764Z" fill="#C0B4DF"/>
<path d="M98.6373 106.66C98.6373 106.66 99.8442 104.868 109.551 104.597C109.551 104.597 113.92 102.794 109.262 100.577C109.262 100.577 102.255 99.4892 98.5449 105.39C98.5449 105.39 97.5942 106.871 98.6373 106.66Z" fill="#5E5573"/>
<path d="M104.334 146.376C104.334 146.376 94.1327 146.65 89.573 135.731C89.573 135.731 85.8537 122.901 99.0531 115.534C99.5597 115.355 106.042 113.195 111.412 118.166C116.127 122.532 116.249 128.933 116.252 129.809C116.294 130.417 116.773 139.206 110.995 143.873C108.444 145.932 105.762 146.314 104.331 146.382H104.334V146.376Z" fill="#FDFEFD"/>
<path d="M91.599 139.441C91.4291 137.868 91.3159 135.585 91.6825 132.894C92.0699 130.057 92.5944 126.188 95.3213 123.006C98.68 119.081 103.132 118.818 103.952 118.789C111.104 118.517 115.414 125.348 115.751 125.899C115.441 124.552 114.669 121.948 112.675 119.522C112.18 118.923 110.845 117.397 108.78 116.288C105.219 114.378 100.456 114.22 96.3882 116.75C92.1921 119.361 90.5887 123.679 90.1 125.053C89.5784 126.516 87.8142 131.478 89.7871 136.372C90.3533 137.779 91.0745 138.795 91.605 139.439H91.599V139.441Z" fill="#5E5573"/>
<path d="M102.635 118.92C101.252 119.787 98.8617 121.59 97.2076 124.871C94.594 130.06 94.293 138.029 98.4683 142.717C100.849 145.387 103.856 146.066 105.525 146.257C108.175 145.867 109.969 144.699 110.899 143.977C114.943 140.833 116.04 135.698 116.278 133.436C116.528 131.085 116.224 128.292 116.046 127.395C116.04 127.363 115.748 125.899 115.748 125.899C114.809 124.427 112.913 121.897 109.862 120.246C108.869 119.706 107.078 118.765 104.643 118.735C103.818 118.726 103.126 118.824 102.635 118.917V118.92Z" fill="#5E5573"/>
<path d="M108.775 131.246C110.581 131.246 112.044 129.267 112.044 126.826C112.044 124.385 110.581 122.407 108.775 122.407C106.97 122.407 105.506 124.385 105.506 126.826C105.506 129.267 106.97 131.246 108.775 131.246Z" fill="#F9FCFE"/>
<path d="M102.536 139.221C103.562 139.221 104.393 138.275 104.393 137.108C104.393 135.941 103.562 134.995 102.536 134.995C101.511 134.995 100.68 135.941 100.68 137.108C100.68 138.275 101.511 139.221 102.536 139.221Z" fill="#F9FCFE"/>
<path d="M186.026 106.227C186.026 106.227 184.923 104.457 175.801 104.073C175.801 104.073 171.724 102.252 176.149 100.136C176.149 100.136 182.76 99.1554 186.136 104.985C186.136 104.985 187.003 106.451 186.026 106.227Z" fill="#5E5573"/>
<path d="M178.919 146.502C178.919 146.502 189.356 146.779 194.023 135.791C194.023 135.791 197.828 122.884 184.322 115.469C183.803 115.287 177.173 113.115 171.677 118.116C166.852 122.508 166.727 128.949 166.724 129.831C166.682 130.442 166.19 139.284 172.103 143.981C174.714 146.055 177.459 146.437 178.922 146.505H178.919V146.502Z" fill="#FDFEFD"/>
<path d="M191.95 139.519C192.123 137.937 192.239 135.639 191.864 132.93C191.467 130.075 190.931 126.186 188.141 122.982C184.705 119.033 180.149 118.771 179.311 118.741C171.995 118.467 167.584 125.34 167.238 125.897C167.554 124.544 168.344 121.921 170.385 119.477C170.892 118.872 172.257 117.341 174.37 116.223C178.015 114.301 182.887 114.143 187.048 116.688C191.342 119.314 192.981 123.659 193.482 125.042C194.015 126.514 195.821 131.509 193.801 136.429C193.223 137.845 192.484 138.867 191.941 139.516H191.947L191.95 139.519Z" fill="#5E5573"/>
<path d="M180.657 118.872C182.073 119.746 184.517 121.56 186.209 124.86C188.883 130.081 189.193 138.098 184.919 142.815C182.484 145.504 179.406 146.186 177.698 146.38C174.986 145.986 173.153 144.812 172.199 144.085C168.063 140.92 166.939 135.755 166.695 133.478C166.439 131.112 166.749 128.302 166.933 127.402C166.939 127.369 167.237 125.897 167.237 125.897C168.197 124.416 170.137 121.87 173.26 120.207C174.277 119.665 176.11 118.717 178.598 118.688C179.441 118.679 180.151 118.777 180.654 118.872H180.657Z" fill="#5E5573"/>
<path d="M174.375 131.273C176.222 131.273 177.719 129.283 177.719 126.827C177.719 124.371 176.222 122.38 174.375 122.38C172.528 122.38 171.031 124.371 171.031 126.827C171.031 129.283 172.528 131.273 174.375 131.273Z" fill="#F9FCFE"/>
<path d="M180.76 139.296C181.808 139.296 182.658 138.345 182.658 137.171C182.658 135.998 181.808 135.046 180.76 135.046C179.711 135.046 178.861 135.998 178.861 137.171C178.861 138.345 179.711 139.296 180.76 139.296Z" fill="#F9FCFE"/>
<path d="M105.427 156.404C106.159 154.027 102.705 150.854 97.7127 149.316C92.72 147.778 88.0792 148.458 87.3471 150.835C86.615 153.212 90.0689 156.385 95.0615 157.923C100.054 159.461 104.695 158.781 105.427 156.404Z" fill="#FAC0D8"/>
<path d="M190.281 157.898C195.274 156.36 198.728 153.187 197.996 150.81C197.263 148.433 192.623 147.753 187.63 149.291C182.637 150.829 179.183 154.002 179.915 156.379C180.648 158.756 185.288 159.436 190.281 157.898Z" fill="#FAC0D8"/>
<path d="M99.8954 83.5389C105.781 79.6438 108.723 77.6947 111.736 76.2255C122.891 70.7836 132.979 71.9727 134.016 67.4398C134.21 66.5964 134.26 64.8053 134.517 64.8023C134.818 64.7964 134.704 67.258 136.132 68.0567C136.674 68.3607 137.237 68.313 137.36 68.2981C138.313 68.1938 138.891 67.4368 139.035 67.2342C139.72 66.2656 139.216 65.5474 139.571 64.0811C139.955 62.4927 141.061 61.2052 141.395 61.3304C142 61.5539 139.86 66.3103 141.642 67.8392C142.238 68.3488 143.138 68.3875 143.731 68.2415C144.81 67.9763 145.037 67.0673 146.583 65.449C147.352 64.6444 148.661 63.2765 149.167 63.5447C149.856 63.9112 148.062 66.7693 149.078 68.8614C149.933 70.6197 152.46 71.177 154.579 71.3618C156.94 71.6777 160.558 72.3274 164.772 73.8026C166.077 74.2585 169.814 75.6265 179.208 81.2322C182.057 82.931 185.964 85.3419 190.542 88.4265C188.899 86.3612 186.593 83.7743 183.52 81.1428C181.41 79.3368 177.548 76.3149 172.079 73.6565C172.079 73.6565 166.336 70.8671 159.717 69.4127C157.703 68.9687 156.695 68.7481 155.923 68.7273C155.11 68.7064 154.454 68.772 153.563 68.4591C152.845 68.2057 152.034 67.7259 151.641 67.2074C150.66 65.905 151.364 63.0768 153.703 60.5794C153.703 60.5794 147.77 59.9684 143.63 66.4295C144.047 58.6989 143.204 56.8183 142.328 56.5829C141.121 56.261 138.835 58.7972 138.03 61.241C137.613 62.5076 137.22 64.8858 137.22 64.8858C137.22 64.8858 136.656 63.3778 135.84 62.2155C135.628 61.9145 135.101 61.1605 134.311 60.5973C132.725 59.4648 130.827 59.6138 130.025 59.727C130.472 60.0876 131.635 61.1218 132.037 62.8682C132.156 63.3778 132.553 65.0974 131.599 66.4265C131.027 67.2282 130.228 67.4905 128.657 67.9852C126.702 68.6021 125.779 68.5216 122.795 69.1028C122.795 69.1028 121.931 69.2697 120.48 69.6064C115.923 70.6614 111.655 72.8847 109.605 73.9695C105.501 76.1361 102.724 78.1894 101.982 78.7467C100.423 79.915 98.7093 81.2114 96.7662 83.2886C94.9572 85.2198 93.6728 87.0496 92.8145 88.4294C94.5221 87.2016 96.945 85.4969 99.8984 83.5419H99.8954V83.5389Z" fill="#DACFF3"/>
<path d="M93.3672 87.3061C94.9884 85.1157 97.164 82.6302 100.04 80.252C102.594 78.136 104.766 76.8784 107.163 75.4896C110.843 73.3558 113.758 72.1309 115.984 71.204C117.927 70.3934 119.173 69.9643 120.484 69.6096C121.789 69.255 122.183 69.2371 124.642 68.7543C130.551 67.592 131.264 67.1033 131.705 66.4178C132.563 65.0886 132.164 63.384 132.041 62.8684C131.615 61.0564 130.411 60.0283 130.03 59.7273C130.575 59.6438 132.474 59.4262 134.315 60.5975C137.012 62.3111 137.185 65.488 137.194 65.789C137.191 64.6565 137.334 62.2336 138.783 59.6557C140.07 57.3669 141.772 56.0437 142.702 55.4238C143.119 56.601 143.545 58.1686 143.721 60.0491C143.935 62.3558 143.697 64.3049 143.417 65.6877C144.019 64.6982 145.473 62.6121 148.191 61.1488C150.489 59.912 152.62 59.6945 153.755 59.6587C150.814 64.1737 150.915 66.236 151.6 67.2821C152.515 68.6768 154.566 68.4056 158.693 69.1417C161.969 69.7259 164.183 70.5216 167.601 71.7494C168.689 72.1398 174.098 74.1306 180.225 78.4668C182.812 80.2996 186.04 82.9133 189.318 86.5074" stroke="#5E5573" stroke-width="1.78813" stroke-linecap="round" stroke-linejoin="round"/>
<path d="M90.4127 91.6896C90.8061 90.8194 91.2859 89.8806 91.727 89.0312C92.0101 88.5216 92.3975 87.8064 92.6329 87.2789C93.1217 86.358 93.834 85.7053 94.8413 85.2315C94.886 85.2136 94.9366 85.2315 94.9575 85.2762C94.9158 86.3908 94.5313 87.3176 93.8518 88.1103C93.2111 88.763 92.5108 89.6511 91.8909 90.3246C91.4468 90.8104 91.0058 91.2992 90.5379 91.77C90.4812 91.8296 90.3799 91.7611 90.4157 91.6866H90.4127V91.6896Z" fill="#5E5573"/>
<path d="M192.015 90.8523C191.344 90.1728 190.641 89.386 190.006 88.6678C189.63 88.2207 189.106 87.6009 188.701 87.1896C188.015 86.4028 187.666 85.5028 187.586 84.3941C187.586 84.3465 187.622 84.3047 187.669 84.3018C188.695 84.7428 189.422 85.4342 189.913 86.3551C190.292 87.1866 190.867 88.1611 191.272 88.9837C191.567 89.5738 191.863 90.1609 192.134 90.7658C192.17 90.8374 192.065 90.9119 192.012 90.8493L192.015 90.8523Z" fill="#5E5573"/>
<path d="M125.543 165.563C125.543 165.563 120.167 154.188 131.239 157.582C131.239 157.582 142.23 159.868 154.764 156.39C154.764 156.39 160.498 155.559 157.652 163.805C157.652 163.805 154.133 176.003 142.212 176.477C142.212 176.477 130.291 178.059 125.546 165.563H125.543Z" fill="#8F1916" stroke="#5E5573" stroke-width="1.78813" stroke-miterlimit="10"/>
<path d="M128.238 169.786C128.238 169.786 141.685 158.366 154.443 169.786C154.443 169.786 142.233 186.079 128.238 169.786Z" fill="#F38373" stroke="#5E5573" stroke-width="1.78813" stroke-miterlimit="10"/>
<path d="M125.688 136.664C125.688 136.664 129.291 126.454 134.896 125.655C135.418 123.223 136.401 119.385 138.3 114.944C141.495 107.47 144.677 104.377 149.237 96.6042C150.712 94.0889 154.3 87.9706 156.369 81.9148C158.246 76.4163 160.383 66.5369 156.92 52.3869C152.334 49.8745 150.268 45.5681 151.371 42.5909C151.946 41.0382 153.415 39.7627 155.016 39.2352C158.211 38.1832 159.525 40.8952 163.795 41.0442C168.808 41.22 170.653 37.611 174.441 38.9491C174.685 39.0355 176.828 39.8283 177.814 41.8578C179.185 44.68 177.808 48.8494 174.134 51.9845C174.956 54.9647 175.925 59.2384 176.36 64.4448C176.554 66.7455 177.305 77.1614 173.082 92.6465C169.616 105.36 166.817 106.743 164.824 117.594C163.488 124.875 163.503 131.026 163.724 135.061C163.724 135.061 164.526 145.271 160.72 147.271L125.688 136.661V136.664Z" fill="#C0B4DF"/>
<path d="M125.857 137.514C125.995 134.661 126.969 131.795 128.623 129.443C129.44 128.26 130.307 127.008 131.496 126.195C132.703 125.339 134.041 124.678 135.546 124.502L135.674 124.705C135.272 125.36 134.837 125.915 134.402 126.454C133.537 127.5 132.652 128.528 131.591 129.336C131.067 129.738 130.56 130.158 130.11 130.635C128.251 132.602 126.933 134.962 126.093 137.555L125.857 137.514Z" fill="#5E5573"/>
<path d="M135.607 121.584C136.734 118.276 138.68 113.171 141.875 107.312C146.911 98.0704 149.629 96.8992 153.527 87.9705C154.666 85.3658 157.026 79.5276 157.974 72.4525C158.203 70.733 158.32 69.1832 158.379 68.3398C158.692 64.0126 158.907 60.7492 158.105 56.8631C157.882 55.7812 157.476 54.1511 156.704 52.2139C155.733 51.6477 153.65 50.241 152.502 47.5827C152.061 46.5575 150.714 43.4312 152.338 41.065C153.751 39.0056 156.508 38.8477 156.961 38.8209C160.117 38.6391 160.591 40.7848 163.663 41.1216C167.886 41.5835 169.4 37.7957 173.259 38.6838C173.382 38.7106 176.257 39.4199 177.372 41.9054C178.424 44.2508 177.262 46.7303 176.88 47.5439C175.787 49.8774 173.504 51.9248 173.504 51.9219C173.504 51.9219 177.214 64.4268 176.15 77.4652C175.772 82.0995 175.188 85.3062 173.429 91.0461C170.89 99.3281 168.175 102.588 165.833 111.234C164.647 115.612 164.122 119.281 163.869 121.584" stroke="#5E5573" stroke-width="2.38417" stroke-miterlimit="10"/>
<path d="M160.857 147.169C163.373 142.079 163.665 136.774 162.574 131.285C162.264 128.874 162.213 126.43 162.294 124.007C162.425 120.792 163.152 117.638 164.171 114.599C164.681 113.085 165.28 111.598 166.013 110.161L166.243 110.224C166.123 112.957 165.569 116.864 165.253 119.617C164.824 123.441 164.002 127.244 164.311 131.103C165.068 136.649 164.151 142.583 161.066 147.283L160.857 147.166V147.169Z" fill="#5E5573"/>
<path d="M133.561 132.867C132.303 125.178 135.098 115.928 140.37 110.197C139.828 112.176 139.175 114.038 138.576 115.91C136.66 121.536 135.256 127.148 133.561 132.867Z" fill="#5E5573"/>
<path d="M162.818 47.1826C163.225 46.4785 162.257 45.1584 160.656 44.2343C159.055 43.3101 157.428 43.1317 157.021 43.8359C156.615 44.54 157.583 45.86 159.184 46.7842C160.784 47.7084 162.412 47.8868 162.818 47.1826Z" fill="#5E5573" stroke="#5E5573" stroke-width="0.298021" stroke-miterlimit="10"/>
<path d="M170.476 46.7819C172.077 45.8577 173.045 44.5376 172.638 43.8335C172.232 43.1293 170.605 43.3077 169.004 44.2319C167.403 45.1561 166.435 46.4761 166.842 47.1803C167.248 47.8844 168.875 47.706 170.476 46.7819Z" fill="#5E5573" stroke="#5E5573" stroke-width="0.298021" stroke-miterlimit="10"/>
<path d="M189.293 86.7484C190.521 86.2478 192.375 85.4759 194.607 84.4894C203.273 80.6599 204.629 79.3873 208.888 78.0939C211.916 77.173 215.611 76.0495 220.082 76.9137C225.944 78.0462 229.797 81.9473 231.502 83.9381C235.149 88.1968 237.65 91.7045 240.052 96.0884C241.998 99.6438 243.369 102.812 244.829 106.617C247.064 112.441 249.508 118.902 251.135 127.39C251.681 130.242 251.979 132.507 251.812 135.284C251.675 137.579 251.448 141.283 249.672 144.287C245.75 150.915 238.088 147.637 234.023 153.833C231.278 158.02 233.719 161.126 229.746 166.24C228.077 168.385 226.11 169.816 224.68 170.856C222.546 172.406 220.093 174.191 216.464 175.004C214.875 175.362 211.987 175.77 208.334 174.921C208.334 174.921 204.373 173.571 201.58 170.749C202.328 169.831 203.38 168.382 204.322 166.427C208.071 158.637 206.381 150.358 205.791 147.938C204.972 144.582 204.248 144.234 203.526 140.348C202.817 136.524 202.942 133.752 202.96 131.681C203.059 120.949 200.505 111.869 199.461 108.167C198.025 103.062 196.487 99.5186 196.115 98.6752C195.238 96.6815 193.689 93.3973 191.239 89.5975C190.786 88.8942 190.13 87.9077 189.293 86.7484Z" fill="#C0B4DF"/>
<path d="M248.722 145.652C248.722 145.652 247.145 147.101 247.011 147.223C246.159 147.998 244.29 148.94 239.882 149.723C238.428 150.281 236.703 151.214 235.29 152.85C232.465 156.125 233.621 159.063 230.7 163.707C229.365 165.828 227.923 167.122 226.48 168.415C224.871 169.858 222.162 172.239 217.915 173.729C214.071 175.076 210.617 175.115 208.337 174.924C208.337 174.924 204.376 173.574 201.584 170.752C202.332 169.834 203.384 168.385 204.326 166.43C208.075 158.64 206.385 150.361 205.795 147.941C204.975 144.586 204.251 144.237 203.53 140.351C203.345 139.355 203.22 138.437 203.13 137.579C202.829 134.658 202.952 131.952 202.964 131.684C203.13 127.583 202.496 123.259 201.956 119.558C201.536 116.67 200.806 112.76 199.465 108.173C199.465 108.173 206.841 97.6949 217.582 95.2809C219.054 94.9501 219.897 94.7624 221.137 94.8041C228.042 95.0366 232.447 103.962 241 121.307C244.323 128.045 245.384 131.082 246.12 133.717C247.488 138.616 248.722 145.655 248.722 145.655V145.652Z" fill="#ACECC7"/>
<path d="M240.684 118.959C239.272 117.132 236.417 113.946 231.759 111.675C230.951 111.282 227.044 109.383 222.46 109.198C211.323 108.748 203.211 118.059 201.942 119.558C201.62 117.543 201.217 115.424 200.72 113.213C200.323 111.448 199.897 109.768 199.453 108.173C202.475 105.738 205.074 103.733 207.074 102.219C210.587 99.5603 211.913 98.6603 213.806 97.8288C215.925 96.896 217.913 96.0199 220.52 96.1987C223.354 96.3954 225.345 97.7305 227.074 98.9196C228.448 99.8643 230.981 101.858 234.751 107.667C236.473 110.319 238.664 114.098 240.684 118.959Z" fill="#8EC2A7"/>
<path d="M244.513 125.497C243.768 123.352 242.654 120.344 241.104 116.819C239.766 113.782 238.407 110.721 236.145 107.005C233.442 102.562 231.239 99.334 227.246 96.7055C222.683 93.7014 217.638 94.0114 212.848 96.2793C205.049 99.9718 199.446 106.969 199.438 106.975C199.438 106.975 199.81 109.136 200.543 109.255C200.865 109.309 201.163 108.948 201.238 108.871C206.879 102.934 216.371 93.6269 225.02 98.4489C227.499 99.8317 229.657 102.091 233.522 107.655C235.331 110.259 236.589 112.599 237.405 114.271C240.192 119.325 242.832 125.122 244.963 131.669C245.389 132.975 245.777 134.265 246.134 135.535C246.996 139.138 247.86 142.744 248.721 146.347L249.016 145.843C249.016 145.843 248.587 137.91 246.048 129.857C245.687 128.71 245.258 127.652 244.513 125.494V125.497Z" fill="#5E5573"/>
<path d="M189.317 87.3059C192.274 86.081 194.637 85.023 196.205 84.3018C199.468 82.8057 201.56 81.7358 205.488 80.0639C208.385 78.8301 209.44 78.4785 210.48 78.1894C212.197 77.7155 214.283 77.1582 217.039 77.2685C218.014 77.3073 219.745 77.3907 221.817 78.1238C223.974 78.8897 225.312 79.9388 227.619 81.7507C228.114 82.1412 229.848 83.524 231.872 85.6489C232.319 86.1197 233.368 87.2552 234.617 88.8317C236.828 91.6242 238.401 94.2647 239.883 97.1048C243.76 104.543 246.624 112.626 247.777 116.02C245.545 110.969 243.372 106.871 241.671 103.879C235.755 93.4689 231.768 89.7139 230.444 88.5188C229.92 88.045 226.847 85.2078 222.699 83.3869C220.997 82.6389 218.637 81.6315 215.454 81.5451C214.87 81.5302 213.049 81.5093 209.464 82.4839C208.117 82.8504 207.056 83.2081 206.15 83.5657C202.001 85.1929 200.449 86.0393 198.717 86.68C196.699 87.4251 193.654 88.0509 189.314 87.3029L189.317 87.3059Z" fill="#DACFF3"/>
<path d="M202.736 171.041C203.77 172.138 206.473 174.698 210.685 175.425C214.782 176.131 217.971 174.698 220.242 173.675C225.684 171.229 228.724 167.202 229.695 165.811C234.103 159.501 231.48 156.542 235.212 152.674C239.593 148.132 244.558 150.805 248.718 146.505C252.017 143.095 251.981 138.226 251.859 132.537C251.799 129.792 251.421 122.517 244.832 106.624C238.275 90.8076 233.719 86.1168 231.814 84.3078C227.034 79.7689 222.996 78.3295 220.847 77.7543C217.59 76.8871 214.893 76.9675 213.888 77.0241C209.272 77.2864 206.772 78.9285 199.825 82.0935C197.411 83.1932 193.822 84.7667 189.316 86.5102" stroke="#5E5573" stroke-width="1.78813" stroke-miterlimit="10"/>
<path d="M197.737 101.054C200.997 109.121 202.973 117.689 203.79 126.35C204.073 129.229 203.879 132.158 204.004 135.031C204.297 139.323 205.22 143.581 206.716 147.617C207.229 148.985 207.751 150.385 207.977 151.846C208.204 153.324 208.195 154.805 208.105 156.274C207.721 162.196 205.021 167.679 201.582 172.409C198.965 175.955 195.621 178.962 191.899 181.314C188.203 183.695 184.252 185.528 180.303 187.399C173.66 190.457 166.534 192.388 159.301 193.396C153.526 194.236 147.619 194.093 141.825 193.762C136.014 193.479 130.206 192.886 124.466 191.908C114.396 190.272 104.522 187.247 95.2417 182.977C91.2303 181.153 87.2607 179.019 83.8841 176.152C81.8725 174.576 79.8519 172.624 78.5078 170.368C74.9465 164.541 74.2819 157.326 75.6289 150.74C76.219 148.266 76.8747 145.778 77.6286 143.355C78.472 140.646 79.0919 137.874 79.1545 135.061C78.6509 126.341 79.8638 117.576 82.2212 109.184C83.0228 106.412 83.756 103.524 85.2788 101.036C85.3236 100.964 85.4219 101.003 85.4219 101.003C85.5649 101.009 85.702 101.131 85.702 101.131C81.8218 114.247 81.5655 115.621 81.2109 117.832C80.7608 120.64 80.2453 126.38 80.3615 130.71C80.4002 132.17 80.5731 133.574 80.6118 135.055C80.6357 136.572 80.4628 138.044 80.2453 139.507C79.6135 143.119 78.3618 146.508 77.6406 150.084C76.1117 156.787 76.8449 164.404 80.8592 170.108C82.0543 171.855 83.5444 173.151 85.2341 174.501C87.4157 176.334 89.7849 177.809 92.3092 179.126C105.05 185.748 119.068 189.715 133.326 191.339C141.879 192.201 150.554 192.981 159.114 191.891C166.209 190.97 173.225 189.137 179.76 186.198C183.668 184.392 187.634 182.592 191.264 180.298C194.894 178.048 198.151 175.175 200.72 171.759C204.091 167.197 206.794 161.931 207.229 156.2C207.333 154.784 207.357 153.354 207.161 151.965C206.952 150.555 206.475 149.22 205.989 147.876C204.517 143.76 203.629 139.421 203.388 135.055C203.295 132.146 203.525 129.279 203.277 126.383C202.958 122.651 202.544 119.868 202.175 117.8C201.453 113.755 200.166 108.004 197.737 101.054Z" fill="#5E5573"/>
<path d="M90.8674 90.4144C88.4176 94.2172 86.8649 97.5013 85.9917 99.4921C85.6222 100.336 84.0814 103.879 82.645 108.984C81.6019 112.686 79.0478 121.766 79.1462 132.498C79.167 134.569 79.2892 137.341 78.5799 141.164C77.8587 145.051 77.1345 145.399 76.315 148.755C75.7249 151.175 74.0321 159.454 77.7842 167.244C78.726 169.199 79.778 170.648 80.526 171.566C77.7306 174.388 73.7729 175.738 73.7729 175.738C70.1191 176.587 67.2343 176.179 65.6429 175.821C62.013 175.008 59.5602 173.223 57.4264 171.673C55.9959 170.633 54.029 169.202 52.3601 167.056C48.3874 161.945 50.8282 158.837 48.0835 154.65C44.0214 148.454 36.3593 151.732 32.4344 145.104C30.6582 142.103 30.4347 138.396 30.2946 136.101C30.1277 133.323 30.4227 131.059 30.9711 128.206C32.5953 119.719 35.0421 113.258 37.2772 107.434C38.7375 103.629 40.1084 100.461 42.0545 96.9053C44.4565 92.5214 46.9569 89.0137 50.6047 84.755C52.3094 82.7642 56.1658 78.8631 62.0249 77.7306C66.4982 76.8664 70.1936 77.9899 73.2185 78.9108C77.4773 80.2042 78.8333 81.4768 87.4997 85.3063C89.7349 86.2928 91.5856 87.0647 92.8134 87.5653C91.976 88.7246 91.3203 89.7111 90.8674 90.4144Z" fill="#C0B4DF"/>
<path d="M35.9865 134.531C36.7226 131.896 37.7836 128.859 41.1065 122.121C49.6597 104.776 54.0644 95.8505 60.9696 95.6181C62.2094 95.5763 63.0528 95.7641 64.525 96.0949C75.2657 98.5089 82.6417 108.987 82.6417 108.987C81.3006 113.574 80.5704 117.484 80.1502 120.372C79.6108 124.073 78.976 128.397 79.1429 132.498C79.1548 132.766 79.277 135.472 78.976 138.393C78.8896 139.251 78.7614 140.169 78.5767 141.165C77.8555 145.051 77.1313 145.399 76.3117 148.755C75.7216 151.175 74.0289 159.454 77.781 167.244C78.7227 169.199 79.7747 170.648 80.5228 171.566C77.7273 174.388 73.7696 175.738 73.7696 175.738C71.4897 175.929 68.0387 175.89 64.1912 174.543C59.9444 173.053 57.2354 170.672 55.6261 169.229C54.1837 167.936 52.7412 166.642 51.4061 164.521C48.4825 159.88 49.6388 156.939 46.8166 153.664C45.404 152.024 43.6784 151.095 42.2241 150.537C37.8163 149.754 35.9477 148.812 35.0954 148.037C34.9613 147.915 33.3848 146.466 33.3848 146.466C33.3848 146.466 34.6186 139.427 35.9865 134.528V134.531Z" fill="#ACECC7"/>
<path d="M47.3535 108.48C51.1235 102.672 53.6537 100.678 55.0305 99.7336C56.7591 98.5445 58.7498 97.2093 61.584 97.0126C64.1917 96.8338 66.1795 97.71 68.2984 98.6428C70.1909 99.4743 71.5171 100.374 75.0307 103.033C77.0305 104.547 79.6292 106.552 82.6511 108.987C82.2071 110.582 81.7809 112.262 81.3845 114.027C80.8868 116.238 80.4845 118.357 80.1627 120.372C78.8931 118.872 70.781 109.562 59.6439 110.012C55.0633 110.197 51.1533 112.095 50.3457 112.489C45.6876 114.76 42.8325 117.946 41.4199 119.772C43.4405 114.912 45.631 111.133 47.3535 108.48Z" fill="#8EC2A7"/>
<path d="M36.0542 130.674C33.5151 138.727 33.0859 146.66 33.0859 146.66L33.381 147.164C34.2423 143.561 35.1065 139.955 35.9678 136.351C36.3254 135.082 36.7129 133.791 37.139 132.486C39.2699 125.939 41.9103 120.142 44.6968 115.088C45.5134 113.416 46.7711 111.079 48.5801 108.472C52.2606 103.173 54.1113 100.529 57.0826 99.2657C66.4762 95.2723 80.2805 107.324 81.4667 109.694C81.4667 109.694 82.0478 110.859 82.3905 110.763C82.5485 110.722 82.6826 110.281 82.9478 109.404C82.9925 109.258 83.0194 109.169 83.2608 108.323C83.2518 108.314 77.5656 100.684 69.2538 97.0962C63.6927 94.6941 60.0568 95.4421 59.0495 95.6835C57.622 96.0263 56.2183 96.6283 54.8564 97.5223C50.8629 100.151 48.6605 103.378 45.9575 107.822C43.6985 111.538 42.3365 114.599 40.9984 117.636C39.4457 121.158 38.3311 124.168 37.589 126.314C36.841 128.472 36.4148 129.53 36.0542 130.677V130.674Z" fill="#5E5573"/>
<path d="M83.3864 87.4998C81.6549 86.8591 80.1022 86.0127 75.9537 84.3855C75.0478 84.0279 73.9868 83.6703 72.6398 83.3037C69.0546 82.3292 67.2337 82.35 66.6495 82.3649C63.4667 82.4514 61.1093 83.4587 59.4046 84.2067C55.2562 86.0276 52.1866 88.8648 51.6591 89.3386C50.3359 90.5337 46.3483 94.2858 40.4326 104.699C38.7309 107.691 36.5583 111.786 34.3262 116.84C35.4795 113.446 38.3435 105.363 42.2207 97.9246C43.7019 95.0845 45.2755 92.441 47.4868 89.6516C48.7355 88.078 49.7815 86.9396 50.2316 86.4687C52.2551 84.3438 53.9896 82.961 54.4843 82.5706C56.794 80.7586 58.1291 79.7066 60.2868 78.9437C62.358 78.2105 64.0925 78.1271 65.0641 78.0883C67.8208 77.9781 69.9069 78.5354 71.6235 79.0092C72.6636 79.2953 73.7186 79.65 76.6154 80.8838C80.5433 82.5557 82.6354 83.6256 85.8987 85.1216C87.4693 85.8428 89.8296 86.9008 92.786 88.1257C88.4498 88.8737 85.401 88.2479 83.3834 87.5028L83.3864 87.4998Z" fill="#DACFF3"/>
<path d="M79.3687 171.858C78.3346 172.954 75.6315 175.514 71.4205 176.242C67.3227 176.948 64.1339 175.514 61.8629 174.492C56.4211 172.045 53.3813 168.019 52.4097 166.627C48.002 160.318 50.6246 157.359 46.8934 153.491C42.5124 148.949 37.5474 151.622 33.387 147.322C30.0879 143.912 30.1237 139.043 30.2459 133.353C30.3055 130.609 30.684 123.334 37.2732 107.44C43.8297 91.6245 48.3864 86.9337 50.2908 85.1247C55.071 80.5858 59.1092 79.1464 61.258 78.5712C64.5153 77.704 67.2124 77.7844 68.2168 77.841C72.8331 78.1033 75.3335 79.7454 82.2804 82.9104C84.6943 84.0101 88.2825 85.5836 92.7886 87.327" stroke="#5E5573" stroke-width="1.78813" stroke-miterlimit="10"/>
<path d="M85.7015 101.131C82.6796 109.04 80.5994 117.385 80.1375 125.855C79.9676 129.5 80.6888 133.156 80.1673 136.798C79.8841 139.233 79.452 141.659 78.6772 143.992C78.2867 145.158 77.8665 146.281 77.5745 147.437C77.2735 148.594 77.0708 149.777 76.9188 150.969C76.442 154.557 76.0576 158.154 76.5761 161.733C77.4791 168.308 81.2103 172.161 86.3184 176C100.439 186.32 123.893 191.223 141.217 192.042C146.036 192.254 150.873 192.456 155.677 192.105C165.246 191.396 174.601 188.579 183.145 184.252C187.354 182.053 191.717 179.886 195.364 176.834C198.041 174.516 200.618 171.988 202.702 169.133C204.725 166.32 206.147 163.057 206.4 159.576C206.716 155.171 205.905 150.659 204.731 146.4L204.615 145.965L204.555 145.748L204.525 145.64C204.525 145.619 204.475 145.506 204.552 145.676L204.493 145.518C203.515 140.604 202.991 136.586 202.696 133.901C201.945 127.089 202.123 123.852 201.176 117.251C200.609 113.299 199.924 110.131 199.462 108.167C198.926 105.983 197.769 101.277 197.79 101.125C197.805 101.018 197.856 100.994 197.856 100.994C197.909 100.976 197.966 101.003 197.987 101.056C198.72 102.949 200.154 106.731 200.869 108.626L200.887 108.721C200.905 108.704 200.928 108.838 200.958 108.924L201.039 109.204C202.094 113.797 202.722 117.766 203.116 120.878C203.694 125.458 203.98 127.747 203.956 130.674C203.947 131.833 203.888 133.657 204.153 136.205C204.388 138.461 204.746 140.151 204.871 140.648C205.244 142.124 205.908 144.287 206.206 145.277C206.695 146.964 207.172 148.683 207.556 150.397C208.436 154.682 208.865 159.209 207.726 163.495C206.4 168.412 203.083 172.477 199.489 175.946C198.628 176.798 197.677 177.695 196.753 178.47C192.947 181.701 188.513 183.891 184.111 186.141C175.31 190.54 165.646 193.3 155.814 193.92C150.917 194.224 146.024 193.958 141.145 193.693C123.559 192.701 99.8992 187.521 85.6479 176.9C80.358 172.85 76.5165 168.764 75.6493 161.856C75.1575 158.19 75.5986 154.459 76.1231 150.847C76.293 149.634 76.5165 148.421 76.8413 147.229C77.1602 146.034 77.6073 144.88 78.0006 143.748C78.7874 141.474 79.2404 139.096 79.5444 136.712C80.212 131.487 79.753 126.951 79.6427 125.822C79.1957 121.292 80.0302 113.859 85.7015 101.134V101.131Z" fill="#5E5573"/>
<path d="M184.083 177.52C185.702 176.381 187.213 175.833 187.376 175.77C188.872 175.219 193.373 172.775 206.268 164.699C205.517 166.099 204.787 167.286 204.158 168.236C203.282 169.562 202.224 171.011 200.954 172.51C200.355 173.216 199.795 173.836 199.288 174.37C192.809 181.218 185.743 184.338 180.221 186.711C177.062 188.07 173.843 189.095 173.021 189.354C172.997 189.363 172.887 189.426 172.866 189.402C172.773 189.285 175.265 187.515 177.807 184.83C179.515 183.027 180.489 181.996 181.24 180.661C181.383 180.404 181.726 179.776 182.352 179.054C182.888 178.435 183.457 177.958 184.083 177.517V177.52Z" fill="#A394C5"/>
<path d="M76.6152 161.14C83.428 166.978 89.5911 170.781 93.7365 173.082C104.9 180.19 115.114 183.313 121.739 184.806C139.119 188.719 153.388 186.257 160.964 184.872C167.723 183.638 173.222 181.975 177.027 180.661C180.07 179.489 182.496 178.327 184.085 177.519C184.085 177.519 182.067 180.821 179.82 183.414C178.723 184.681 177.179 186.436 174.724 187.992C172.632 189.318 170.891 189.857 167.875 190.79C164.242 191.914 161.36 192.397 160.538 192.528C157.266 193.049 152.372 193.499 146.313 192.841C142.99 192.644 140.258 192.429 138.371 192.274C128.113 191.419 122.272 190.903 114.825 188.895C112.393 188.239 110.622 187.649 108.766 187.029C105.243 185.855 99.9115 183.903 93.4653 180.771C89.9427 179.06 88.4407 178.124 87.0698 177.117C84.9807 175.582 80.9455 172.542 78.4302 167.095C77.3335 164.719 76.8507 162.589 76.6152 161.143V161.14Z" fill="#A394C5"/>
<path d="M72.0495 185.179C72.0495 185.179 78.4659 191.491 104.68 203.254C104.68 203.254 104.173 205.56 103.214 209.918C100.463 210.919 98.2247 211.324 96.6363 211.509C96.6363 211.509 93.0898 211.917 90.1066 212.895C89.9248 212.951 89.6328 213.056 89.2752 213.226C88.9861 213.366 87.6122 214.269 86.8552 215.157C84.8287 217.541 84.2893 221.242 84.2893 221.242C83.428 227.161 86.0655 236.018 92.4461 239.314C93.3312 239.77 95.2564 240.766 97.7807 240.691C98.3708 240.673 99.0413 240.539 103.553 239.061C105.523 238.417 107.073 237.839 108.828 237.181C111.028 236.358 112.84 235.64 114.121 235.121C119.152 235.735 123.336 236.123 126.325 236.37C128.229 236.528 144.147 237.809 156.327 237.133C158.47 237.014 160.785 236.841 160.785 236.841C163.774 236.617 167.226 236.298 171.055 235.845C174.825 237.809 178.163 238.769 180.517 239.276C184.269 240.083 186.913 240.652 189.991 239.618C193.69 238.379 195.767 235.577 196.572 234.466C200.392 229.17 201.575 220.372 197.37 215.708C195.734 213.896 193.091 213.029 187.84 211.262C185.184 210.368 182.907 209.81 181.289 209.465C180.276 204.967 179.728 202.53 179.728 202.53C179.728 202.53 191.583 198.456 202.094 191.878C207.169 188.704 212.712 185.161 217.43 178.458C220.455 174.164 224.994 167.715 222.541 162.27C220.857 158.533 216.155 155.883 211.798 156.101C205.414 156.42 202.556 162.759 193.463 172.176C187.473 178.384 181.727 182.866 177.385 185.915C172.161 187.247 165.375 188.666 157.364 189.536C145.258 190.853 136.05 190.302 129.904 189.905C117.265 189.092 110.947 188.675 106.241 186.341C99.9056 183.197 95.2117 178.017 85.8211 167.655C78.7312 159.829 76.2338 155.833 71.6025 155.824C67.3676 155.815 62.9897 159.141 61.5115 163.122C58.3316 171.678 68.9471 182.118 72.0495 185.17V185.179Z" fill="#C0B4DF"/>
<path d="M97.4209 200.277C98.5087 199.865 99.8379 199.159 100.994 197.925C104.976 193.675 103.17 187.173 103.012 186.633C102.452 185.224 101.891 183.814 101.331 182.404C118.166 187.959 132.495 189.259 142.118 189.426C162.875 189.789 174.117 185.116 176.772 183.963C180.84 182.196 184.053 180.315 186.264 178.894C185.346 179.665 184.088 180.899 182.986 182.681C182.002 184.273 179.88 187.703 180.739 191.652C181.88 196.9 187.417 199.073 187.921 199.263C184.947 200.473 181.97 201.683 178.995 202.893C178.14 200.101 177.285 197.308 176.429 194.516C169.78 196.256 162.014 197.746 153.291 198.447C134.495 199.955 118.64 197.195 107.42 194.188C106.505 197.21 105.593 200.232 104.678 203.254L97.418 200.28L97.4209 200.277Z" fill="#A394C5"/>
<path d="M104.148 221.654C104.703 222.476 105.287 223.483 105.796 224.684C106.828 227.122 107.123 229.349 107.191 230.916C108.187 230.505 109.343 230.108 110.654 229.796C113.196 229.185 115.455 229.104 117.19 229.182C126.044 230.684 133.679 231.244 139.619 231.423C148.837 231.703 153.444 231.843 156.982 230.976C160.993 229.995 164.733 228.38 170.145 229.074C172.985 229.438 175.244 230.305 176.725 230.994C176.678 229.87 176.734 228.425 177.107 226.797C177.792 223.805 179.205 221.663 180.162 220.456C180.302 220.861 180.656 221.707 181.512 222.354C181.872 222.631 182.23 222.798 182.519 222.902C182.218 223.576 181.845 224.509 181.494 225.641C181.16 226.717 180.79 227.93 180.639 229.584C180.597 230.01 180.504 231.178 180.639 232.689C180.713 233.548 180.761 234.066 180.954 234.781C181.491 236.739 182.543 237.961 182.862 238.313C183.103 238.578 183.318 238.781 183.461 238.906C182.257 238.614 181.249 238.358 180.492 238.155C178.996 237.762 178.505 237.61 178.159 237.493C177.28 237.204 177.065 237.082 175.834 236.605C173.692 235.774 172.589 235.354 171.123 235.085C170.226 234.921 169.43 234.856 169.248 234.841C168.938 234.817 168.277 234.772 167.433 234.787C166.095 234.811 165.112 234.969 163.616 235.202C161.681 235.506 160.713 235.655 159.992 235.762C159.536 235.827 157.521 236.114 155.08 236.304C153.128 236.456 151.489 236.504 149.737 236.525C147.233 236.555 144.727 236.525 139.407 236.343C130.136 236.03 127.126 235.759 125.615 235.589C122.545 235.249 121.571 235.115 121.571 235.115C119.938 234.898 119.467 234.799 118.501 234.734C117.81 234.686 116.284 234.618 114.657 234.814C113.003 235.014 111.48 235.595 108.431 236.76C106.559 237.473 105.835 237.83 103.868 238.492C102.807 238.849 101.925 239.115 101.326 239.285C102.557 237.818 103.162 236.456 103.484 235.532C105.031 231.071 103.436 226.616 102.673 224.479C102.497 223.984 102.336 223.585 102.22 223.317C102.453 223.206 102.712 223.063 102.98 222.87C103.549 222.464 103.925 222.005 104.16 221.654H104.145H104.148Z" fill="#A394C5"/>
<path d="M194.102 213.231C188.332 214.358 184.881 219.797 183.335 225.075C182.336 228.657 181.937 233.676 183.615 237.055C184.211 238.247 185.129 239.293 186.291 240.149C186.333 240.178 186.339 240.235 186.309 240.277C186.285 240.306 186.246 240.321 186.21 240.309C184.792 239.904 183.469 238.983 182.548 237.729C179.731 233.923 180.441 228.797 181.97 224.631C182.95 221.844 184.419 219.224 186.416 217.037C188.988 214.221 192.278 212.883 194.072 213.052C194.135 213.058 195.187 213.163 195.184 213.21C195.184 213.249 194.582 213.24 194.105 213.228H194.108L194.102 213.231Z" fill="#5E5573"/>
<path d="M192.225 212.725C192.004 212.555 189.608 210.758 187.307 211.709C186.92 211.87 185.451 212.477 185.331 213.813C185.251 214.739 185.844 215.693 186.836 216.233C187.659 215.517 188.66 214.739 189.861 213.997C190.693 213.485 191.486 213.068 192.222 212.725H192.225Z" fill="white" stroke="#5E5573" stroke-width="1.78813" stroke-linecap="round" stroke-linejoin="round"/>
<path d="M186.267 216.814C184.738 215.675 182.721 215.848 181.618 216.96C180.486 218.101 180.766 219.779 180.784 219.877C181.111 221.674 182.831 222.252 182.947 222.285C183.388 221.284 183.961 220.163 184.706 218.986C185.227 218.17 185.755 217.445 186.267 216.808V216.814Z" fill="white" stroke="#5E5573" stroke-width="1.78813" stroke-linecap="round" stroke-linejoin="round"/>
<path d="M107.42 194.185C106.422 196.831 105.459 199.862 104.678 203.25C104.166 205.477 103.793 207.587 103.525 209.556C101.841 210.099 99.3051 210.868 96.158 211.631C91.8635 212.674 90.4956 212.501 88.7283 213.896C86.4485 215.705 85.608 218.345 85.3219 219.242C84.705 221.176 84.7289 222.753 84.7617 224.011C84.7825 224.821 84.9226 228.272 86.9193 232.281C87.8939 234.236 89.0174 236.489 91.5029 238.298C92.3105 238.888 94.5993 240.482 97.7763 240.682C98.4468 240.724 99.8713 240.747 104.756 239.061C109.849 237.299 110.386 236.548 113.071 235.949C116.23 235.243 118.673 235.568 121.034 235.845C121.034 235.845 131.169 237.016 142.289 237.293C147.793 237.43 152.636 237.553 159.109 236.727C164.992 235.973 167.629 235.034 172.01 236.161C174.904 236.906 175.929 237.877 180.397 239.031C184.509 240.092 186.566 240.622 188.568 240.265C195.026 239.123 200.176 230.436 199.807 222.83C199.726 221.161 199.562 217.752 197.175 215.079C194.633 212.224 190.592 211.354 186.563 210.489C186.563 210.489 186.426 210.46 181.276 209.47C180.656 207.831 180.048 206.141 179.458 204.404C178.296 200.997 177.294 197.692 176.427 194.512" stroke="#5E5573" stroke-width="1.78813" stroke-linecap="round" stroke-linejoin="round"/>
<path d="M198.392 229.453C200.972 222.24 199.661 215.176 195.464 213.675C191.267 212.174 185.774 216.804 183.194 224.017C180.615 231.23 181.926 238.293 186.122 239.795C190.319 241.296 195.813 236.665 198.392 229.453Z" fill="#DACFF3"/>
<path d="M89.4883 213.613C89.4883 213.565 90.5373 213.461 90.5999 213.455C92.397 213.285 95.6841 214.62 98.2561 217.439C100.256 219.627 101.725 222.243 102.703 225.033C104.228 229.199 104.938 234.325 102.124 238.131C101.201 239.386 99.8743 240.306 98.4617 240.712C98.423 240.727 98.3872 240.712 98.3633 240.679C98.3335 240.637 98.3395 240.581 98.3812 240.551C99.5465 239.693 100.464 238.65 101.057 237.457C102.735 234.078 102.336 229.056 101.338 225.477C99.7909 220.202 96.3398 214.763 90.5701 213.634C90.0933 213.643 89.4942 213.652 89.4913 213.616H89.4942L89.4883 213.613Z" fill="#5E5573"/>
<path d="M94.8067 214.397C96.0107 215.139 97.015 215.914 97.8316 216.632C98.827 216.093 99.42 215.139 99.3366 214.212C99.2174 212.88 97.7481 212.269 97.3607 212.108C95.06 211.157 92.6639 212.954 92.4434 213.124C93.1795 213.464 93.9782 213.884 94.8037 214.397H94.8067Z" fill="white" stroke="#5E5573" stroke-width="1.78813" stroke-linecap="round" stroke-linejoin="round"/>
<path d="M99.962 219.389C100.707 220.563 101.282 221.686 101.72 222.688C101.834 222.655 103.556 222.074 103.884 220.28C103.905 220.178 104.179 218.504 103.05 217.362C101.95 216.251 99.9352 216.081 98.4004 217.216C98.913 217.851 99.4405 218.575 99.962 219.395V219.389Z" fill="white" stroke="#5E5573" stroke-width="1.78813" stroke-linecap="round" stroke-linejoin="round"/>
<path d="M98.5405 240.207C102.737 238.706 104.048 231.642 101.469 224.429C98.8889 217.217 93.3954 212.586 89.1986 214.087C85.0018 215.588 83.6909 222.652 86.2705 229.865C88.8502 237.078 94.3436 241.708 98.5405 240.207Z" fill="#DACFF3"/>
<path d="M170.998 210.034C172.25 209.441 173.367 208.4 174.723 207.906C176.106 207.453 177.552 206.863 179.027 206.958C180.034 207.059 180.976 207.31 181.867 207.867V208.073C180.925 208.627 179.998 208.836 179.104 209.002C177.772 209.196 176.425 208.892 175.108 209.214C173.71 209.378 172.509 210.078 171.055 210.23L171.004 210.034H171.001H170.998Z" fill="#5E5573"/>
<path d="M175.972 216.11C176.705 215.067 177.569 213.964 178.362 212.96C179.292 211.947 180.07 210.618 181.435 210.114C182.388 209.777 183.568 209.741 184.412 210.391L184.394 210.597C183.518 211.097 182.949 211.515 182.338 211.95C181.724 212.421 180.964 212.677 180.323 213.154C179.986 213.398 179.649 213.666 179.304 213.935C178.284 214.703 177.164 215.547 176.106 216.259L175.963 216.113H175.966L175.972 216.11Z" fill="#5E5573"/>
<path d="M113.824 210.021C112.849 209.944 111.931 209.527 111.073 209.288C110.215 209.05 109.342 208.907 108.457 208.844C107.563 208.776 106.668 208.969 105.774 208.794C104.877 208.627 103.95 208.415 103.012 207.864V207.658C103.9 207.098 104.842 206.851 105.852 206.749C106.835 206.636 107.801 206.982 108.743 207.232C109.699 207.479 110.635 207.852 111.49 208.35C112.34 208.862 113.034 209.437 113.881 209.822L113.83 210.018L113.824 210.021Z" fill="#5E5573"/>
<path d="M108.757 216.045C107.702 215.333 106.575 214.495 105.559 213.72C104.901 213.199 104.236 212.665 103.491 212.317C102.344 211.718 101.756 211.086 100.475 210.382L100.457 210.177C101.303 209.53 102.481 209.563 103.434 209.9C104.805 210.403 105.577 211.732 106.507 212.746C107.297 213.747 108.164 214.853 108.897 215.896L108.754 216.042L108.757 216.045Z" fill="#5E5573"/>
<path d="M92.5099 174.363C95.0938 176.631 97.7521 178.789 100.518 180.83C103.268 182.887 105.983 184.988 109.098 186.177C111.446 187.136 113.929 187.494 116.426 187.864C118.941 188.272 121.433 188.597 123.984 188.785C125.683 188.916 127.39 188.981 129.122 189.071L129.14 189.249C127.453 189.673 125.721 189.926 123.981 190.045C117.025 190.504 109.637 189.065 103.99 184.806C99.883 181.629 96.0057 178.205 92.3848 174.497L92.507 174.369L92.5099 174.363Z" fill="#5E5573"/>
<path d="M191.589 174.411C187.968 178.118 184.091 181.546 179.984 184.72C174.339 188.975 166.949 190.418 159.993 189.959C158.252 189.84 156.524 189.586 154.834 189.163L154.852 188.984C156.583 188.898 158.291 188.829 159.99 188.698C162.538 188.513 165.032 188.185 167.548 187.777C170.045 187.411 172.53 187.05 174.876 186.09C177.99 184.901 180.702 182.8 183.453 180.744C184.833 179.719 186.192 178.682 187.527 177.6C188.859 176.518 190.17 175.409 191.464 174.277L191.586 174.405L191.589 174.411Z" fill="#5E5573"/>
<path d="M179.858 202.789C181.772 201.913 184.633 200.586 188.075 198.905C199.871 193.151 205.768 190.275 210.662 186.165C211.583 185.393 219.391 178.661 222.315 169.229C222.657 168.126 223.069 166.549 222.702 164.66C221.76 159.781 216.143 155.463 211.282 155.71C208.334 155.859 206.856 157.194 197.609 167.828C194.527 171.371 190.528 175.731 184.937 180.133C180.967 183.259 177.439 185.45 175.072 186.782" stroke="#5E5573" stroke-width="1.78813" stroke-miterlimit="10"/>
<path d="M216.326 158.103C210.207 164.24 210.127 156.539 210.127 156.539C213.399 155.12 216.326 158.103 216.326 158.103Z" fill="white" stroke="#5E5573" stroke-width="1.78813" stroke-linecap="round" stroke-linejoin="round"/>
<path d="M220.246 162.439C212.209 165.092 215.976 157.921 215.976 157.921C219.346 158.228 220.246 162.439 220.246 162.439Z" fill="white" stroke="#5E5573" stroke-width="1.78813" stroke-linecap="round" stroke-linejoin="round"/>
<path d="M220.815 161.555C214.592 167.587 222.293 167.774 222.293 167.774C223.757 164.523 220.815 161.555 220.815 161.555Z" fill="white" stroke="#5E5573" stroke-width="1.78813" stroke-linecap="round" stroke-linejoin="round"/>
<path d="M104.116 202.875C102.203 201.999 99.3421 200.673 95.9 198.992C84.1043 193.237 78.2065 190.361 73.3129 186.252C68.9618 182.598 62.5425 177.222 61.6603 169.315C61.252 165.664 62.2295 163.361 62.614 162.562C64.4319 158.756 68.6817 155.663 72.6931 155.8C76.0458 155.913 77.6313 157.874 86.3663 167.917C89.4478 171.461 93.4472 175.821 99.0381 180.223C103.008 183.349 106.536 185.539 108.903 186.871" stroke="#5E5573" stroke-width="1.78813" stroke-miterlimit="10"/>
<path d="M73.8434 156.28C73.8434 156.28 73.7629 163.983 67.6445 157.844C67.6445 157.844 70.5711 154.861 73.8434 156.28Z" fill="white" stroke="#5E5573" stroke-width="1.78813" stroke-linecap="round" stroke-linejoin="round"/>
<path d="M67.9953 158.398C67.9953 158.398 71.7622 165.569 63.7246 162.916C63.7246 162.916 64.6246 158.702 67.9953 158.398Z" fill="white" stroke="#5E5573" stroke-width="1.78813" stroke-linecap="round" stroke-linejoin="round"/>
<path d="M62.0234 168.251C62.0234 168.251 69.7243 168.063 63.5016 162.031C63.5016 162.031 60.5601 165 62.0234 168.251Z" fill="white" stroke="#5E5573" stroke-width="1.78813" stroke-linecap="round" stroke-linejoin="round"/>
</g>
</g>
<defs>
<filter id="filter0_d_2225_960" x="0.000186801" y="-0.00022459" width="279.649" height="279.649" filterUnits="userSpaceOnUse" color-interpolation-filters="sRGB">
<feFlood flood-opacity="0" result="BackgroundImageFix"/>
<feColorMatrix in="SourceAlpha" type="matrix" values="0 0 0 0 0 0 0 0 0 0 0 0 0 0 0 0 0 0 127 0" result="hardAlpha"/>
<feOffset dx="-1.48989" dy="4.46966"/>
<feGaussianBlur stdDeviation="7.41219"/>
<feComposite in2="hardAlpha" operator="out"/>
<feColorMatrix type="matrix" values="0 0 0 0 0.980392 0 0 0 0 0.858824 0 0 0 0 0.360784 0 0 0 0.5 0"/>
<feBlend mode="normal" in2="BackgroundImageFix" result="effect1_dropShadow_2225_960"/>
<feBlend mode="normal" in="SourceGraphic" in2="effect1_dropShadow_2225_960" result="shape"/>
</filter>
<linearGradient id="paint0_linear_2225_960" x1="141.314" y1="10.3545" x2="141.314" y2="260.354" gradientUnits="userSpaceOnUse">
<stop stop-color="#FADB5C"/>
<stop offset="0.74" stop-color="#FFEDA4"/>
</linearGradient>
<clipPath id="clip0_2225_960">
<rect width="223.48" height="204.237" fill="white" transform="translate(29.3145 37.3545)"/>
</clipPath>
</defs>
</svg>
