<svg width="250" height="256" viewBox="0 0 250 256" fill="none" xmlns="http://www.w3.org/2000/svg">
<mask id="path-1-inside-1_2106_259" fill="white">
<path d="M125 0C194.036 0 250 55.9644 250 125C250 194.036 194.036 250 125 250C55.9645 250 0.000106812 194.036 0.000106812 125C0.000106812 55.9644 55.9645 0 125 0Z"/>
</mask>
<path d="M125 0C194.036 0 250 55.9644 250 125C250 194.036 194.036 250 125 250C55.9645 250 0.000106812 194.036 0.000106812 125C0.000106812 55.9644 55.9645 0 125 0Z" fill="url(#paint0_linear_2106_259)"/>
<path d="M250 0V250V0ZM0.000106812 250V0V250ZM0.000106812 0H250H0.000106812ZM250 131.482C250 200.518 194.036 256.482 125 256.482H125C55.9645 256.482 0.000106812 200.518 0.000106812 131.482V125C0.000106812 190.455 55.9645 243.518 125 243.518H125C194.036 243.518 250 190.455 250 125V131.482Z" fill="#CF4F52" mask="url(#path-1-inside-1_2106_259)"/>
<path d="M90.7454 188.297C89.5094 193.48 89.0895 198.135 89.021 201.932C86.6175 202.808 84.6608 203.162 83.2729 203.323C83.2729 203.323 80.1725 203.68 77.5665 204.535C77.4086 204.586 77.1525 204.675 76.8398 204.824C76.5866 204.946 75.3864 205.735 74.7252 206.512C72.9531 208.597 72.4826 211.832 72.4826 211.832C71.7291 217.005 74.0343 224.746 79.6126 227.626C80.3869 228.025 82.0697 228.894 84.2736 228.829C84.7888 228.814 85.3756 228.695 89.3188 227.405C91.0402 226.842 92.3954 226.336 93.9292 225.761C95.8502 225.043 97.4346 224.415 98.5544 223.962C102.95 224.498 106.608 224.838 109.22 225.052C110.885 225.189 124.796 226.309 135.44 225.719C137.314 225.615 139.336 225.463 139.336 225.463C141.948 225.267 144.965 224.99 148.313 224.594C151.607 226.309 154.525 227.149 156.583 227.593C159.862 228.299 162.174 228.796 164.863 227.894C168.094 226.809 169.911 224.361 170.614 223.39C173.953 218.762 174.986 211.072 171.311 206.998C169.881 205.413 167.57 204.657 162.981 203.111C160.661 202.331 158.671 201.843 157.256 201.542C157.396 196.89 157.042 190.358 154.814 182.972C153.423 178.362 151.636 174.52 149.951 171.497C147.109 172.486 143.363 173.582 138.883 174.353C137.635 174.567 132.141 175.479 124.972 175.339C114.104 175.127 104.624 172.599 98.069 170.314C95.5642 174.511 92.5889 180.569 90.7484 188.294H90.7454V188.297Z" fill="#C0B4DF"/>
<path d="M89.8459 212.193C90.3313 212.911 90.8406 213.792 91.2873 214.841C92.1898 216.97 92.4459 218.918 92.5055 220.288C93.3751 219.927 94.3848 219.582 95.5314 219.308C97.7532 218.775 99.7278 218.703 101.244 218.772C108.981 220.085 115.656 220.574 120.847 220.732C128.903 220.976 132.93 221.098 136.021 220.341C139.527 219.484 142.797 218.072 147.526 218.68C150.007 218.998 151.982 219.755 153.277 220.356C153.236 219.373 153.286 218.111 153.611 216.69C154.209 214.075 155.445 212.202 156.279 211.147C156.402 211.502 156.711 212.24 157.459 212.806C157.774 213.048 158.087 213.194 158.34 213.286C158.078 213.876 157.751 214.689 157.444 215.68C157.152 216.622 156.83 217.682 156.696 219.126C156.661 219.499 156.58 220.52 156.696 221.839C156.762 222.59 156.804 223.043 156.973 223.668C157.441 225.381 158.361 226.447 158.641 226.754C158.853 226.986 159.04 227.162 159.165 227.272C158.114 227.016 157.232 226.792 156.571 226.617C155.264 226.274 154.835 226.14 154.531 226.039C153.763 225.786 153.575 225.678 152.5 225.262C150.627 224.535 149.665 224.169 148.381 223.933C147.598 223.79 146.901 223.734 146.743 223.719C146.472 223.698 145.894 223.659 145.156 223.671C143.985 223.692 143.127 223.829 141.82 224.034C140.128 224.3 139.282 224.431 138.654 224.523C138.255 224.58 136.495 224.83 134.362 224.996C132.656 225.13 131.223 225.172 129.692 225.19C127.503 225.217 125.314 225.19 120.665 225.032C112.561 224.758 109.931 224.523 108.612 224.374C105.929 224.076 105.077 223.96 105.077 223.96C103.65 223.769 103.239 223.683 102.393 223.626C101.789 223.585 100.454 223.525 99.0338 223.698C97.5894 223.874 96.2581 224.38 93.5925 225.399C91.9575 226.021 91.3231 226.334 89.6046 226.912C88.6784 227.224 87.907 227.457 87.3828 227.605C88.458 226.325 88.9881 225.133 89.2681 224.326C90.6202 220.428 89.2264 216.532 88.5592 214.665C88.4044 214.233 88.2644 213.884 88.1631 213.649C88.3656 213.554 88.592 213.429 88.8273 213.259C89.3247 212.905 89.6523 212.503 89.8578 212.196H89.8459V212.193Z" fill="#A394C5"/>
<path d="M89.8516 199.576C89.8516 199.576 110.741 202.971 117.195 184.488C117.195 184.488 124.015 188.682 130.32 186.731C131.363 188.908 133.275 192.068 136.673 194.727C145.143 201.357 155.567 199.183 157.265 198.802C157.217 197.17 157.107 195.451 156.919 193.661C156.839 192.908 156.75 192.169 156.651 191.448C156.243 188.72 155.582 185.569 154.498 182.153C153.152 177.906 151.502 174.341 149.95 171.497C147.273 172.471 143.532 173.635 138.966 174.442C126.234 176.691 115.724 174.636 109.237 173.305C104.511 172.334 100.678 171.181 98.0746 170.314C96.1864 173.695 94.1135 178.115 92.5082 183.496C90.6468 189.751 90.0154 195.314 89.8516 199.573V199.576Z" fill="#A394C5"/>
<path d="M168.466 204.83C163.424 205.815 160.407 210.569 159.055 215.179C158.182 218.309 157.834 222.696 159.299 225.651C159.82 226.693 160.621 227.607 161.637 228.355C161.673 228.382 161.679 228.429 161.652 228.468C161.631 228.495 161.598 228.507 161.565 228.498C160.327 228.144 159.168 227.339 158.364 226.243C155.904 222.917 156.523 218.437 157.858 214.795C158.715 212.359 159.999 210.071 161.744 208.159C163.993 205.699 166.867 204.529 168.436 204.678C168.49 204.684 169.41 204.773 169.407 204.815C169.407 204.847 168.88 204.841 168.463 204.83H168.466Z" fill="#5E5573" stroke="#5E5573" stroke-width="0.297828" stroke-miterlimit="10"/>
<path d="M166.817 204.389C166.623 204.24 164.529 202.671 162.519 203.502C162.18 203.642 160.896 204.175 160.792 205.339C160.72 206.149 161.238 206.983 162.108 207.454C162.826 206.828 163.701 206.149 164.753 205.5C165.48 205.053 166.173 204.687 166.817 204.389Z" fill="#FFD4D4" stroke="#5E5573" stroke-width="1.78697" stroke-miterlimit="10"/>
<path d="M161.611 207.96C160.273 206.965 158.51 207.117 157.548 208.088C156.559 209.086 156.804 210.551 156.819 210.637C157.104 212.207 158.608 212.713 158.71 212.743C159.094 211.868 159.594 210.888 160.247 209.86C160.702 209.145 161.164 208.514 161.611 207.957V207.96Z" fill="#FFD4D4" stroke="#5E5573" stroke-width="1.78697" stroke-miterlimit="10"/>
<path d="M98.0667 170.318C95.3416 174.884 92.0982 181.612 90.4215 190.225C89.5995 194.454 89.3135 198.308 89.2957 201.62C87.8244 202.093 85.6086 202.766 82.8566 203.433C79.104 204.345 77.9067 204.193 76.364 205.414C74.3715 206.995 73.6359 209.304 73.3857 210.087C72.8466 211.779 72.8675 213.154 72.8973 214.253C72.9151 214.962 73.0372 217.979 74.7825 221.482C75.6343 223.191 76.6171 225.16 78.7883 226.741C79.4942 227.257 81.4956 228.65 84.2713 228.826C84.858 228.862 86.103 228.883 90.3708 227.409C94.8234 225.869 95.291 225.214 97.6378 224.689C100.399 224.073 102.534 224.356 104.598 224.597C104.598 224.597 113.455 225.622 123.174 225.863C127.984 225.982 132.216 226.089 137.874 225.368C143.015 224.71 145.32 223.888 149.15 224.874C151.679 225.526 152.575 226.375 156.48 227.382C160.075 228.308 161.87 228.773 163.622 228.46C169.266 227.462 173.766 219.871 173.444 213.223C173.373 211.764 173.23 208.785 171.145 206.447C168.923 203.952 165.391 203.192 161.87 202.436C161.87 202.436 161.751 202.409 157.251 201.545C157.326 198.749 157.209 195.612 156.757 192.217C155.577 183.372 152.578 176.34 149.945 171.497" stroke="#5E5573" stroke-width="2.0848" stroke-linecap="round" stroke-linejoin="round"/>
<path d="M172.211 219.005C174.466 212.701 173.32 206.528 169.653 205.216C165.985 203.904 161.184 207.951 158.93 214.254C156.675 220.558 157.821 226.731 161.488 228.043C165.156 229.355 169.957 225.308 172.211 219.005Z" fill="#DACFF3"/>
<path d="M77.0284 205.164C77.0284 205.122 77.9457 205.03 77.9993 205.027C79.5688 204.878 82.4429 206.045 84.6915 208.508C86.4397 210.42 87.7234 212.708 88.5781 215.144C89.9124 218.786 90.5319 223.266 88.0718 226.593C87.2647 227.689 86.1062 228.493 84.8702 228.847C84.8374 228.859 84.8047 228.847 84.7838 228.817C84.757 228.782 84.763 228.731 84.7987 228.704C85.8173 227.954 86.6184 227.042 87.1367 226C88.602 223.045 88.2535 218.658 87.3809 215.528C86.0287 210.918 83.0117 206.165 77.9695 205.179C77.5525 205.188 77.0284 205.194 77.0254 205.164H77.0284Z" fill="#5E5573" stroke="#5E5573" stroke-width="0.297828" stroke-miterlimit="10"/>
<path d="M81.6811 205.849C82.7325 206.498 83.6111 207.174 84.3259 207.803C85.1955 207.332 85.7137 206.498 85.6423 205.688C85.538 204.524 84.2544 203.991 83.9148 203.851C81.9045 203.02 79.8108 204.589 79.6172 204.738C80.2605 205.036 80.9574 205.402 81.6811 205.849Z" fill="#FFD4D4" stroke="#5E5573" stroke-width="1.78697" stroke-miterlimit="10"/>
<path d="M86.1863 210.212C86.8386 211.24 87.3389 212.22 87.7231 213.095C87.8214 213.066 89.3284 212.559 89.6143 210.99C89.6322 210.9 89.8734 209.438 88.8846 208.44C87.9227 207.469 86.1625 207.321 84.8223 208.312C85.269 208.866 85.7306 209.501 86.1863 210.215V210.212Z" fill="#FFD4D4" stroke="#5E5573" stroke-width="1.78697" stroke-miterlimit="10"/>
<path d="M84.9455 228.404C88.6131 227.092 89.7585 220.919 87.504 214.615C85.2495 208.312 80.4488 204.265 76.7812 205.577C73.1137 206.888 71.9683 213.062 74.2228 219.365C76.4773 225.669 81.278 229.715 84.9455 228.404Z" fill="#DACFF3"/>
<path d="M91.2082 166.976C89.5701 168.557 86.017 172.429 84.796 178.457C84.2301 181.25 83.3068 185.938 85.8979 189.742C88.9983 194.295 96.2504 196.005 103.616 193.542C104.962 193.089 106.853 192.306 108.86 190.924C111.219 189.301 114.808 186.826 115.645 182.534C116.419 178.567 114.421 175.214 113.65 174.061C111.517 171.315 109.641 170.588 108.268 170.469C106.502 170.317 103.634 171.005 103.634 171.005C103.634 171.005 99.3717 170.106 95.3033 168.655C94.2788 168.289 92.8641 167.747 91.2052 166.976H91.2082Z" fill="#BBB3D3"/>
<path d="M90.8083 167.517C90.2424 168.083 89.5961 168.816 88.9737 169.733C88.3184 170.698 87.8598 171.612 87.5352 172.375C87.9551 172.667 88.4227 172.952 88.9409 173.218C91.4575 174.507 93.9295 174.68 95.6003 174.611C97.8936 173.64 100.19 172.667 102.483 171.696C99.5406 170.88 96.4402 169.852 93.2356 168.548C92.4076 168.211 91.6005 167.866 90.8113 167.517H90.8083Z" fill="#A394C5"/>
<path d="M84.5264 186.433C85.405 187.412 86.8733 188.794 89.0177 189.721C95.1291 192.356 101.526 189.054 104.532 187.502C110.199 184.577 113.541 180.247 115.268 177.513C115.56 178.752 115.846 180.753 115.268 183.02C114.187 187.267 110.816 189.554 108.454 191.156C103.59 194.456 98.5482 195.144 95.6175 195.278C94.7389 195.269 90.5455 195.129 87.3588 191.797C85.4318 189.78 84.7706 187.538 84.5234 186.433H84.5264Z" fill="#A394C5"/>
<path d="M91.2075 166.976C89.212 168.819 86.9932 171.488 85.5368 175.121C84.7327 177.132 81.9658 184.047 85.3611 189.542C85.6202 189.959 86.7549 191.731 88.935 193.146C91.824 195.019 94.7159 195.088 96.7917 195.1C98.6919 195.108 104.371 195.052 109.521 190.924C111.457 189.372 115.975 185.751 115.865 180.294C115.805 177.423 114.489 175.219 113.652 174.061" stroke="#5E5573" stroke-width="2.0848" stroke-miterlimit="10"/>
<path d="M101.713 174.051C101.713 174.051 101.54 177.173 103.274 178.432C103.274 178.432 103.393 179.484 102.216 178.432C102.216 178.432 100.239 176.723 101.263 174.051C101.263 174.051 101.71 173.465 101.713 174.051Z" fill="#A394C5"/>
<path d="M100.97 178.901C100.97 178.901 99.8944 177.826 99.7365 175.023C99.7365 175.023 99.4417 173.984 99.0426 175.023C99.0426 175.023 98.6703 177.572 100.296 178.901C100.296 178.901 101.857 180.137 100.97 178.901Z" fill="#A394C5"/>
<path d="M89.6836 177.084C92.4564 175.728 95.5151 174.242 98.3385 172.962C100.962 171.866 103.577 170.457 106.484 170.21C108.658 170.174 110.812 170.692 112.727 171.881C117.301 174.689 117.986 181.685 114.648 185.67L114.466 185.569C114.96 184.044 115.225 182.51 115.163 181.024C115.062 178.177 113.873 175.306 111.553 173.581C110.186 172.518 108.322 171.866 106.526 171.809C103.857 171.916 101.266 173.087 98.7316 173.93C97.6118 174.323 95.3572 175.16 94.2493 175.591C92.7602 176.16 91.268 176.723 89.77 177.277L89.6836 177.087V177.084Z" fill="#5E5573"/>
<path d="M114.995 184.107C114.995 184.107 109.307 181.998 114.929 178.928C114.929 178.928 116.621 181.969 114.995 184.107Z" fill="#FFD4D4" stroke="#5E5573" stroke-width="1.78697" stroke-miterlimit="10"/>
<path d="M114.568 178.657C114.568 178.657 108.528 179.217 112.269 174.017C112.269 174.017 115.11 176.027 114.568 178.657Z" fill="#FFD4D4" stroke="#5E5573" stroke-width="1.78697" stroke-miterlimit="10"/>
<path d="M107.76 171.601C107.76 171.601 107.852 177.664 112.62 173.388C112.62 173.388 110.315 170.779 107.76 171.601Z" fill="#FFD4D4" stroke="#5E5573" stroke-width="1.78697" stroke-miterlimit="10"/>
<path d="M155.428 167.312C157.066 168.894 160.62 172.766 161.841 178.794C162.406 181.587 163.33 186.275 160.739 190.078C157.638 194.632 150.386 196.342 143.021 193.879C141.675 193.426 139.783 192.643 137.776 191.261C135.417 189.638 131.828 187.163 130.992 182.871C130.217 178.904 132.216 175.55 132.987 174.398C135.119 171.652 136.996 170.925 138.369 170.806C140.135 170.654 143.003 171.342 143.003 171.342C143.003 171.342 147.265 170.443 151.333 168.992C152.358 168.626 153.772 168.084 155.431 167.312H155.428Z" fill="#BBB3D3"/>
<path d="M155.837 167.851C156.403 168.417 157.049 169.15 157.672 170.067C158.327 171.032 158.785 171.946 159.11 172.709C158.69 173.001 158.223 173.286 157.704 173.551C155.188 174.841 152.716 175.014 151.045 174.945C148.752 173.974 146.455 173.001 144.162 172.03C147.105 171.214 150.205 170.186 153.41 168.882C154.238 168.545 155.045 168.2 155.834 167.851H155.837Z" fill="#A394C5"/>
<path d="M162.113 186.77C161.235 187.75 159.767 189.132 157.622 190.058C151.511 192.694 145.113 189.391 142.108 187.839C136.441 184.915 133.099 180.584 131.372 177.85C131.08 179.089 130.794 181.09 131.372 183.357C132.453 187.604 135.824 189.891 138.186 191.494C143.049 194.794 148.092 195.482 151.022 195.616C151.901 195.607 156.094 195.467 159.281 192.134C161.208 190.118 161.869 187.875 162.116 186.77H162.113Z" fill="#A394C5"/>
<path d="M155.429 167.312C157.424 169.156 159.643 171.825 161.099 175.458C161.903 177.468 164.67 184.384 161.275 189.879C161.016 190.296 159.881 192.068 157.701 193.483C154.812 195.356 151.92 195.425 149.844 195.436C147.944 195.445 142.265 195.389 137.115 191.261C135.179 189.709 130.661 186.088 130.772 180.631C130.831 177.76 132.147 175.556 132.984 174.398" stroke="#5E5573" stroke-width="2.0848" stroke-miterlimit="10"/>
<path d="M144.925 174.389C144.925 174.389 145.098 177.51 143.365 178.77C143.365 178.77 143.246 179.821 144.422 178.77C144.422 178.77 146.4 177.06 145.375 174.389C145.375 174.389 144.928 173.802 144.925 174.389Z" fill="#A394C5"/>
<path d="M145.666 179.237C145.666 179.237 146.741 178.162 146.899 175.359C146.899 175.359 147.193 174.32 147.593 175.359C147.593 175.359 147.965 177.909 146.339 179.237C146.339 179.237 144.778 180.473 145.666 179.237Z" fill="#A394C5"/>
<path d="M156.875 177.612C153.977 176.548 150.835 175.298 147.916 174.264C145.379 173.421 142.788 172.251 140.122 172.144C138.326 172.197 136.462 172.852 135.095 173.916C132.775 175.64 131.586 178.511 131.485 181.358C131.422 182.847 131.687 184.378 132.182 185.903L132 186.004C128.664 182.02 129.347 175.027 133.921 172.215C135.836 171.027 137.987 170.508 140.164 170.544C143.07 170.791 145.685 172.2 148.309 173.296C149.396 173.785 151.579 174.809 152.652 175.333C154.093 176.021 155.532 176.718 156.964 177.421L156.878 177.612H156.875Z" fill="#5E5573"/>
<path d="M131.537 179.33C137.437 181.825 131.987 184.488 131.987 184.488C130.155 182.522 131.537 179.33 131.537 179.33Z" fill="#FFD4D4" stroke="#5E5573" stroke-width="1.78697" stroke-miterlimit="10"/>
<path d="M134.368 174.353C138.112 179.553 132.069 178.993 132.069 178.993C131.527 176.363 134.368 174.353 134.368 174.353Z" fill="#FFD4D4" stroke="#5E5573" stroke-width="1.78697" stroke-miterlimit="10"/>
<path d="M134.02 173.724C138.788 178.001 138.88 171.937 138.88 171.937C136.322 171.115 134.02 173.724 134.02 173.724Z" fill="#FFD4D4" stroke="#5E5573" stroke-width="1.78697" stroke-miterlimit="10"/>
<path d="M148.266 202.036C149.359 201.518 150.336 200.61 151.521 200.178C152.73 199.782 153.993 199.266 155.282 199.35C156.164 199.439 156.986 199.657 157.763 200.145V200.324C156.941 200.809 156.131 200.991 155.348 201.137C154.183 201.307 153.007 201.041 151.854 201.321C150.633 201.464 149.582 202.078 148.313 202.209L148.269 202.036H148.266Z" fill="#5E5573"/>
<path d="M152.614 207.346C153.255 206.435 154.011 205.47 154.702 204.594C155.515 203.71 156.194 202.548 157.388 202.107C158.222 201.813 159.253 201.783 159.992 202.349L159.977 202.527C159.211 202.965 158.714 203.329 158.181 203.71C157.645 204.121 156.98 204.344 156.421 204.761C156.126 204.976 155.831 205.208 155.53 205.443C154.64 206.116 153.66 206.852 152.736 207.474L152.611 207.346H152.614Z" fill="#5E5573"/>
<path d="M98.3016 202.024C97.4499 201.956 96.6487 201.592 95.8982 201.384C95.1476 201.176 94.3852 201.05 93.6109 200.997C92.8305 200.937 92.0473 201.107 91.2669 200.952C90.4837 200.806 89.6736 200.622 88.8516 200.139V199.96C89.6289 199.472 90.4509 199.255 91.3325 199.165C92.1932 199.067 93.036 199.368 93.858 199.588C94.6949 199.805 95.511 200.13 96.2585 200.565C97.0001 201.012 97.6077 201.515 98.3463 201.852L98.3016 202.024Z" fill="#5E5573"/>
<path d="M93.8732 207.29C92.9499 206.667 91.9671 205.935 91.0796 205.259C90.5048 204.803 89.924 204.335 89.2718 204.032C88.2681 203.507 87.7558 202.956 86.636 202.34L86.6211 202.161C87.3597 201.595 88.3902 201.625 89.2241 201.92C90.4214 202.361 91.0975 203.522 91.9105 204.407C92.6015 205.282 93.358 206.247 93.9983 207.159L93.8732 207.287V207.29Z" fill="#5E5573"/>
<path d="M64.9211 96.7847C63.4859 103.065 63.0973 106.2 62.9774 109.869C62.8091 115.022 63.4702 116.533 62.8254 121.179C62.1411 126.127 61.1526 126.15 60.1999 131.582C59.5154 135.499 58.8008 139.572 59.9919 144.448C61.1511 149.2 63.5453 152.371 65.03 154.299C68.9535 159.395 73.434 161.955 76.1295 163.463C80.1758 165.724 84.9843 167.116 94.5951 169.899C96.0203 170.312 97.6965 170.773 99.7158 171.262C100.482 171.445 103.234 172.1 106.984 172.766C107.964 172.94 110.163 173.318 113.092 173.701C117.525 174.284 122.891 174.988 129.55 175.079C133.778 175.138 138.845 175.183 145.454 174.089C152.445 172.933 157.536 171.1 159.306 170.434C161.922 169.45 163.971 168.446 168.073 166.434C177.748 161.691 181.223 158.916 183.968 155.982C184.141 155.797 184.372 155.548 184.678 155.2C191.491 147.479 192.295 138.305 192.397 136.986C193.009 128.987 190.286 122.892 188.936 120.301C188.929 118.713 188.897 116.405 188.773 113.625C188.522 107.988 188.039 103.085 187.719 100.934C186.877 95.2651 184.203 82.8194 174.899 71.1073C169.595 64.4301 164.205 60.5962 162.477 59.4144C151.716 52.0501 140.746 50.215 139.059 50.1703C137.944 50.1393 137.424 50.0204 136.38 49.7857C135.289 49.5398 134.735 49.4096 134.365 49.0229C133.412 48.0299 133.924 46.1264 134.094 45.4949C134.824 42.7803 136.68 41.8003 136.352 41.2491C135.971 40.6094 132.999 41.1325 130.616 42.8337C130.616 42.8337 129.645 43.527 126.375 47.463C126.828 37.4881 125.809 37.1576 125.809 37.1576C125.312 36.9965 124.711 37.5314 123.831 38.3184C122.585 39.4276 121.976 40.6924 121.65 41.4935C120.294 44.8417 120.918 47.6069 120.41 47.6933C119.861 47.7864 119.612 44.4814 117.027 42.4895C115.925 41.6392 114.105 40.7985 113.388 41.4009C112.238 42.3714 115.418 45.8332 114.326 48.5959C113.265 51.2836 109.078 51.006 102.894 52.7027C95.4178 54.7529 90.2849 58.269 87.4031 60.2172C81.5599 64.1688 77.876 68.4368 76.491 70.1323C68.8953 79.423 66.6525 89.2298 64.927 96.7816L64.921 96.7817L64.9211 96.7847Z" fill="url(#paint1_linear_2106_259)"/>
<path d="M76.495 70.135C75.1938 69.6575 73.2298 68.9207 70.8599 67.9765C61.6684 64.3109 60.2196 63.0646 55.7122 61.8513C52.5097 60.9874 48.5979 59.9334 43.9052 60.88C37.7551 62.1204 33.7651 66.0899 32.0046 68.1108C28.2382 72.4338 25.6677 75.9852 23.2167 80.4101C21.5279 83.4574 19.8046 86.5738 18.3728 91.0195C16.4384 97.0319 13.733 105.435 17.4922 112.196C18.9628 114.842 21.3776 117.156 23.6742 119.352C26.2072 121.777 27.737 122.718 30.0256 125.299C32.0314 127.557 33.3703 129.666 34.1879 131.097C34.9722 133.174 35.7438 135.376 36.4789 137.708C37.1478 139.829 37.7322 141.883 38.2435 143.854C38.5172 144.848 38.9711 146.263 39.7234 147.876C40.9927 150.595 43.1503 155.215 47.8954 157.574C51.9612 159.593 56.0499 159.021 57.9993 158.59C57.9993 158.59 62.1445 157.168 65.0368 154.296C64.2345 153.393 63.1012 151.965 62.0752 150.029C57.9893 142.315 59.6241 134.011 60.2038 131.582C61.0083 128.214 61.7644 127.852 62.4553 123.955C63.1353 120.122 62.9555 117.355 62.8981 115.285C62.6048 104.564 65.1337 95.4432 66.1673 91.7254C67.59 86.5977 69.1475 83.0285 69.5227 82.1789C71.8172 76.9912 74.4211 72.9627 76.4891 70.1351L76.495 70.135Z" fill="#C0B4DF"/>
<path d="M23.6707 119.35C25.155 121.26 27.0193 121.915 30.022 125.297C32.0278 127.555 33.3667 129.664 34.1843 131.094C34.9686 133.172 35.7402 135.374 36.4754 137.706C37.1443 139.827 37.7286 141.881 38.24 143.852C38.5137 144.845 38.9676 146.261 39.7199 147.874C40.9891 150.592 43.1468 155.213 47.8918 157.572C51.9577 159.591 56.0463 159.019 57.9958 158.588C57.9958 158.588 62.1409 157.166 65.0333 154.294C64.2309 153.391 63.0977 151.963 62.0716 150.027C57.9857 142.313 59.6205 134.009 60.2003 131.58C61.0047 128.212 61.7609 127.85 62.4517 123.953C62.6277 122.955 62.7456 122.036 62.8227 121.176C63.0869 118.253 62.9112 115.551 62.8945 115.283C62.6466 111.189 63.2374 106.856 63.7409 103.148C64.1337 100.254 64.8331 96.334 66.1637 91.7263C66.1637 91.7263 58.2129 81.3933 46.8636 79.1806C45.3063 78.8775 44.4156 78.7055 43.1121 78.7702C32.1838 79.3204 24.7711 95.1045 22.666 105.621C21.7845 110.027 20.6839 115.515 23.6677 119.353L23.6707 119.353L23.6707 119.35Z" fill="#ACECC7"/>
<path d="M23.915 103.314C24.5503 103.699 26.724 98.9242 32.2248 95.8275C36.3658 93.4936 40.3295 93.2718 41.9692 93.1803C53.6849 92.5239 62.3894 101.676 63.7529 103.15C64.0568 101.131 64.4423 99.0066 64.9275 96.7878C65.3133 95.0175 65.7333 93.3301 66.1727 91.7287C62.9495 89.352 60.1775 87.3962 58.0455 85.9206C54.3002 83.3296 52.8878 82.4549 50.881 81.6592C48.6341 80.7665 46.5253 79.928 43.7829 80.1551C40.8026 80.4042 38.7297 81.7753 36.9312 82.9955C35.692 83.8365 32.728 86.0246 29.0036 91.878C25.7081 97.0565 23.2166 102.894 23.9151 103.32L23.915 103.314Z" fill="#8EC2A7"/>
<path d="M63.364 153.668C60.5368 155.672 57.4311 157.931 53.7949 157.81C51.0708 157.721 48.5673 156.294 46.5381 154.566C42.2982 150.959 39.5968 146.417 38.141 141.06C36.6853 135.703 36.0949 130.095 32.4353 125.778C30.9173 123.988 28.9051 122.716 27.1445 121.186C24.4854 118.877 22.0446 116.275 19.9512 113.44C14.028 105.419 18.8601 94.1392 22.4892 86.0892C26.3304 77.5677 31.1461 67.3819 40.3921 63.6622C45.5238 61.5968 51.6075 61.829 56.7608 63.6892C63.1162 65.9839 69.256 68.8901 75.6062 71.2296C77.2253 71.8266 77.8764 69.2236 76.2724 68.6323C70.099 66.3582 64.1171 63.625 57.9726 61.2968C53.1086 59.4523 47.6985 59.0741 42.6154 60.1795C31.6481 62.5683 25.3549 73.4296 21.032 82.8442C19.1129 87.0215 17.2692 91.2511 16.0158 95.6817C14.5269 100.942 13.5342 107.149 16.0343 112.264C17.2426 114.736 19.2297 116.95 21.0615 118.97C23.2397 121.374 25.6478 123.473 28.1969 125.463C33.0386 129.244 33.8608 134.993 35.2616 140.607C36.8674 147.043 39.9585 152.737 45.1975 156.922C47.687 158.91 50.6056 160.395 53.8481 160.49C57.9788 160.611 61.5355 158.249 64.7627 155.958C66.1601 154.965 64.7821 152.666 63.37 153.668L63.364 153.668Z" fill="#5E5573"/>
<path d="M24.8365 119.278C22.4641 109.913 24.757 101.261 29.543 93.1047C31.6627 89.4928 34.1598 85.8266 37.6378 83.3971C41.9545 80.384 46.7366 80.6243 51.3892 82.8061C56.0417 84.9879 60.4812 88.77 64.3115 92.4616C65.5539 93.661 67.4174 91.7336 66.172 90.5343C59.2478 83.859 48.5921 74.8664 38.3705 79.8484C34.0881 81.9346 30.9316 85.8746 28.4184 89.8062C25.6559 94.1294 23.2832 98.7645 22.0639 103.772C20.7638 109.103 20.9227 114.733 22.2644 120.039C22.6871 121.711 25.2593 120.954 24.8366 119.281L24.8365 119.278Z" fill="#5E5573"/>
<path d="M75.9561 71.2648C76.0392 70.9089 73.7944 70.2991 67.9522 68.0519C61.738 65.6594 60.5002 64.8948 56.1787 63.577C51.9499 62.2873 50.0997 62.0936 48.5416 62.0793C45.1512 62.0498 42.6248 62.8658 42.1125 63.0387C37.4573 64.5953 34.6342 67.6774 31.7264 70.8505C29.4644 73.321 27.9922 75.4798 27.3511 76.4532C19.9041 87.7608 17.6602 101.217 17.6573 101.226C17.6573 101.226 19.5 94.065 21.9073 88.5208C25.9176 79.2815 31.7307 73.9661 33.2031 72.6682C36.7405 69.5526 39.6549 68.0983 41.2659 67.3966C43.0454 66.6176 45.5111 65.5673 48.8597 65.4218C49.4758 65.3961 51.3902 65.3415 55.1832 66.2486C60.795 67.5884 61.724 68.9213 66.5729 70.2418C71.2212 71.5062 75.8369 71.7673 75.9532 71.2708L75.9531 71.2649L75.9561 71.2648Z" fill="#DACFF3"/>
<path d="M172.339 67.647C173.622 67.124 175.559 66.3183 177.894 65.2912C186.951 61.3037 188.355 60.007 192.817 58.6356C195.987 57.6592 199.859 56.4679 204.582 57.2485C210.772 58.2712 214.9 62.0976 216.73 64.0551C220.647 68.2426 223.341 71.7011 225.946 76.0369C227.742 79.0227 229.574 82.0763 231.162 86.4688C233.307 92.4093 236.307 100.712 232.788 107.601C231.412 110.297 229.08 112.695 226.863 114.971C224.417 117.483 222.921 118.478 220.725 121.138C218.8 123.465 217.536 125.62 216.77 127.079C216.059 129.182 215.366 131.411 214.713 133.766C214.119 135.91 213.608 137.983 213.166 139.972C212.928 140.974 212.524 142.405 211.829 144.043C210.657 146.805 208.663 151.498 204.004 154.023C200.012 156.185 195.906 155.757 193.943 155.395C193.943 155.395 189.75 154.12 186.758 151.352C187.528 150.421 188.61 148.954 189.567 146.983C193.379 139.129 191.452 130.888 190.787 128.481C189.864 125.143 189.096 124.808 188.268 120.939C187.453 117.131 187.535 114.36 187.52 112.29C187.435 101.565 184.586 92.5389 183.422 88.8598C181.819 83.7855 180.137 80.2734 179.732 79.4376C177.256 74.334 174.511 70.3998 172.345 67.6469L172.339 67.647Z" fill="#C0B4DF"/>
<path d="M226.862 114.97C225.446 116.931 223.606 117.652 220.724 121.137C218.799 123.465 217.536 125.62 216.769 127.078C216.059 129.182 215.365 131.41 214.713 133.766C214.119 135.909 213.607 137.983 213.166 139.971C212.927 140.973 212.524 142.404 211.829 144.043C210.656 146.804 208.663 151.498 204.004 154.023C200.012 156.184 195.905 155.756 193.942 155.395C193.942 155.395 189.749 154.119 186.758 151.351C187.527 150.42 188.61 148.953 189.567 146.982C193.378 139.129 191.451 130.888 190.786 128.481C189.864 125.143 189.095 124.808 188.267 120.938C188.056 119.947 187.906 119.032 187.799 118.176C187.432 115.264 187.512 112.558 187.519 112.289C187.623 108.189 186.879 103.88 186.245 100.191C185.751 97.3136 184.914 93.4203 183.421 88.8623C183.421 88.8623 191.003 78.2553 202.267 75.6438C203.813 75.2859 204.697 75.0827 206.002 75.1014C216.943 75.2658 224.907 90.7787 227.382 101.214C228.418 105.587 229.712 111.033 226.865 114.973L226.862 114.973L226.862 114.97Z" fill="#ACECC7"/>
<path d="M226.055 98.9503C225.433 99.3574 223.092 94.6625 217.486 91.7618C213.265 89.5754 209.296 89.4935 207.654 89.4599C195.923 89.217 187.546 98.6704 186.236 100.192C185.861 98.1848 185.401 96.075 184.837 93.8747C184.389 92.1192 183.91 90.4476 183.415 88.8627C186.552 86.3738 189.253 84.3214 191.332 82.7716C194.983 80.0501 196.364 79.1262 198.342 78.2602C200.556 77.2888 202.634 76.3764 205.382 76.5067C208.37 76.6506 210.489 77.9477 212.33 79.1037C213.598 79.9005 216.637 81.9827 220.566 87.7011C224.042 92.7602 226.738 98.5063 226.055 98.9563L226.055 98.9503Z" fill="#8EC2A7"/>
<path d="M187.093 153.002C190.185 155.035 193.488 157.077 197.306 157.165C200.202 157.23 203.005 156.069 205.308 154.372C209.751 151.095 213.126 146.359 214.854 141.133C216.672 135.632 216.514 129.195 219.78 124.243C221.312 121.92 223.73 120.364 225.722 118.47C228.333 115.99 230.676 113.212 232.711 110.242C238.842 101.295 233.658 89.4421 229.404 80.7805C225.01 71.8354 219.622 61.7104 209.894 57.7087C204.295 55.4036 197.497 55.5474 191.853 57.6337C188.959 58.7035 186.193 60.1374 183.389 61.4231C179.796 63.0711 176.166 64.6364 172.507 66.1337C170.928 66.7782 171.665 69.3597 173.265 68.7059C179.079 66.3276 184.733 63.6304 190.473 61.0836C194.944 59.0984 199.833 58.2556 204.707 59.0155C215.102 60.6373 221.289 70.638 225.659 79.2559C227.576 83.0349 229.427 86.8538 230.8 90.8687C232.427 95.6269 234.004 101.622 231.841 106.465C230.795 108.801 228.997 110.918 227.354 112.841C225.363 115.173 223.163 117.27 220.809 119.224C216.479 122.821 215.039 127.803 213.998 133.133C213.369 136.34 212.765 139.606 211.436 142.611C210.216 145.37 208.435 147.743 206.346 149.898C204.427 151.877 202.129 153.657 199.387 154.277C195.311 155.198 191.649 152.799 188.401 150.661C186.957 149.71 185.655 152.056 187.09 152.999L187.092 152.999L187.093 153.002Z" fill="#5E5573"/>
<path d="M228.298 115.607C229.35 110.736 229.418 105.635 228.293 100.77C227.142 95.7978 224.777 91.2701 222.021 87.0174C219.504 83.1299 216.494 79.3106 212.471 76.8913C207.615 73.9744 202.308 74.3778 197.307 76.7328C191.992 79.2364 187.423 83.4842 183.378 87.6692C182.178 88.9117 184.105 90.7722 185.305 89.5297C191.141 83.4931 200.967 74.0172 210.159 78.6747C214.033 80.6379 216.904 84.1647 219.272 87.7153C221.873 91.6133 224.144 95.7196 225.397 100.261C226.715 105.031 226.742 110.115 225.701 114.941C225.337 116.624 227.932 117.296 228.298 115.607Z" fill="#5E5573"/>
<path d="M172.919 68.7596C172.824 68.4068 175.046 67.7182 180.805 65.2664C186.931 62.6562 188.141 61.8485 192.413 60.3791C196.594 58.9411 198.436 58.6822 199.993 58.613C203.38 58.4639 205.934 59.1904 206.452 59.3451C211.159 60.7365 214.089 63.7172 217.107 66.7857C219.455 69.1749 221.002 71.2804 221.677 72.2307C229.518 83.2686 232.235 96.6369 232.238 96.6458C232.238 96.6458 230.144 89.5546 227.543 84.0988C223.209 75.0066 217.212 69.8996 215.695 68.6544C212.05 65.6655 209.086 64.3148 207.451 63.6704C205.646 62.9546 203.144 61.9919 199.793 61.9647C199.176 61.9606 197.261 61.9736 193.502 63.0139C187.941 64.5507 187.06 65.9157 182.261 67.4063C177.66 68.8338 173.056 69.2576 172.922 68.7655L172.922 68.7595L172.919 68.7596Z" fill="#DACFF3"/>
<path d="M82.9454 66.2567C88.7579 62.261 91.6627 60.2616 94.6474 58.7405C105.697 53.1064 115.798 54.1167 116.755 49.5692C116.933 48.7231 116.952 46.9325 117.208 46.925C117.509 46.9138 117.439 49.3754 118.88 50.1483C119.427 50.4425 119.989 50.3849 120.111 50.3679C121.062 50.2469 121.626 49.4803 121.766 49.2753C122.434 48.2954 121.918 47.5866 122.246 46.1153C122.602 44.5214 123.684 43.2154 124.02 43.3346C124.629 43.5473 122.574 48.3376 124.382 49.8338C124.987 50.3325 125.887 50.3554 126.477 50.199C127.55 49.915 127.76 49.0027 129.277 47.3585C130.031 46.541 131.314 45.1511 131.825 45.4102C132.52 45.7643 130.777 48.6517 131.83 50.7242C132.715 52.466 135.25 52.9783 137.371 53.1256C139.735 53.3997 143.361 53.9851 147.598 55.3848C148.91 55.8174 152.669 57.1184 162.153 62.5541C165.03 64.2012 168.977 66.5414 173.605 69.5428C171.928 67.5081 169.577 64.964 166.461 62.3888C164.321 60.6214 160.408 57.6699 154.897 55.1101C154.897 55.1101 149.11 52.4241 142.47 51.0876C140.449 50.6794 139.439 50.4768 138.667 50.4695C137.854 50.463 137.2 50.5401 136.304 50.2431C135.582 50.0027 134.764 49.5375 134.361 49.0263C133.359 47.7423 134.012 44.9039 136.305 42.3673C136.305 42.3673 130.366 41.8614 126.343 48.3903C126.624 40.6585 125.748 38.7943 124.869 38.5745C123.657 38.2742 121.418 40.8486 120.657 43.3046C120.262 44.5775 119.911 46.9608 119.911 46.9608C119.911 46.9608 119.321 45.4639 118.485 44.3169C118.268 44.0199 117.728 43.2758 116.929 42.7269C115.325 41.6233 113.431 41.8057 112.631 41.9329C113.085 42.2854 114.264 43.2982 114.697 45.0361C114.825 45.5432 115.251 47.2544 114.322 48.5993C113.764 49.4105 112.971 49.6866 111.41 50.2086C109.468 50.8594 108.543 50.7953 105.573 51.4286C105.573 51.4286 104.712 51.6106 103.268 51.9726C98.7331 53.1071 94.5081 55.4038 92.4785 56.5238C88.4162 58.761 85.6771 60.8617 84.9454 61.4316C83.4086 62.6264 81.7192 63.9519 79.8143 66.0617C78.0408 68.0232 76.7896 69.8743 75.9563 71.2681C77.6409 70.0112 80.0319 68.2651 82.9484 66.2596L82.9454 66.2597L82.9454 66.2567Z" fill="#A394C5"/>
<path d="M76.4857 70.136C78.067 67.9187 80.1971 65.3969 83.0287 62.9699C85.5434 60.8106 87.6921 59.5157 90.0618 58.0858C93.7018 55.8888 96.5925 54.6136 98.8006 53.6482C100.728 52.804 101.965 52.3533 103.269 51.9758C104.567 51.5984 104.96 51.5736 107.408 51.0479C113.293 49.7824 113.996 49.2815 114.424 48.5888C115.258 47.2456 114.829 45.5493 114.698 45.0363C114.24 43.2333 113.019 42.2272 112.633 41.9331C113.176 41.8401 115.069 41.5893 116.93 42.7271C119.655 44.3918 119.884 47.5631 119.898 47.8637C119.875 46.7322 119.976 44.3087 121.377 41.7074C122.623 39.3977 124.3 38.0456 125.219 37.4098C125.656 38.5787 126.11 40.1375 126.319 42.0134C126.574 44.3145 126.37 46.2662 126.114 47.6528C126.698 46.6536 128.115 44.5435 130.805 43.0335C133.079 41.7572 135.204 41.5022 136.338 41.4465C133.478 46.0097 133.616 48.0686 134.319 49.1017C135.258 50.4792 137.302 50.1721 141.439 50.8349C144.722 51.3608 146.949 52.1169 150.386 53.2835C151.48 53.6544 156.92 55.5483 163.118 59.773C165.735 61.5588 169.007 64.1134 172.345 67.6469" stroke="#5E5573" stroke-width="1.78697" stroke-linecap="round" stroke-linejoin="round"/>
<path d="M73.6145 74.5686C73.9922 73.6921 74.4551 72.7457 74.8809 71.8892C75.1548 71.375 75.5293 70.6535 75.7553 70.1223C76.2274 69.1935 76.9276 68.5288 77.9257 68.0376C77.9701 68.019 78.021 68.0359 78.0427 68.0802C78.0206 69.1947 77.6528 70.1275 76.9878 70.9316C76.3591 71.5951 75.675 72.4948 75.0675 73.1787C74.6323 73.6719 74.2002 74.168 73.741 74.6468C73.6855 74.7073 73.583 74.6406 73.6174 74.5656L73.6145 74.5656L73.6145 74.5686Z" fill="#5E5573"/>
<path d="M175.121 71.9413C174.439 71.2742 173.722 70.5004 173.075 69.794C172.692 69.3539 172.157 68.7438 171.745 68.34C171.046 67.5659 170.682 66.6728 170.582 65.5664C170.581 65.5188 170.616 65.4765 170.663 65.4727C171.696 65.8953 172.434 66.5733 172.942 67.4848C173.335 68.309 173.927 69.2726 174.346 70.0873C174.651 70.6717 174.957 71.2531 175.238 71.8529C175.275 71.9237 175.172 72 175.118 71.9384L175.121 71.9413Z" fill="#5E5573"/>
<path d="M69.073 84.0856C66.1928 92.0419 64.2614 100.416 63.9491 108.888C63.8436 112.532 64.6287 116.174 64.1717 119.822C63.9318 122.259 63.5427 124.691 62.8096 127.036C62.4401 128.208 62.04 129.338 61.7685 130.498C61.4882 131.659 61.3065 132.845 61.1757 134.038C60.7625 137.632 60.4417 141.233 61.0229 144.8C62.0411 151.353 65.8372 155.138 71.0088 158.883C85.2996 168.947 108.821 173.432 126.146 173.945C130.965 174.072 135.801 174.189 140.595 173.753C150.145 172.876 159.442 169.897 167.904 165.423C172.07 163.151 176.391 160.909 179.982 157.795C182.615 155.431 185.146 152.861 187.178 149.971C189.15 147.125 190.513 143.839 190.705 140.356C190.943 135.95 190.053 131.455 188.805 127.221L188.681 126.788L188.618 126.572L188.586 126.465C188.586 126.444 188.533 126.332 188.613 126.5L188.551 126.344C187.393 122.661 186.31 118.692 186.551 114.768C187.1 106.54 185.843 98.272 183.879 90.2879L183.805 90.0092C183.783 89.9113 183.755 89.8552 183.719 89.6533L183.738 89.7482C183.068 87.8626 181.728 84.002 181.072 82.1041C181.053 82.0509 181.081 81.9908 181.135 81.972C181.188 81.9532 181.245 81.979 181.267 82.0322C182.033 83.9102 183.532 87.6638 184.28 89.5451L184.299 89.64C184.317 89.6219 184.343 89.7554 184.374 89.8413L184.46 90.1198C185.96 95.1333 187.04 100.282 187.62 105.485C187.861 107.813 188.042 110.136 188.027 112.487C188.021 114.021 187.89 115.528 188.047 117.041C188.202 118.522 188.472 120.027 188.843 121.468C189.242 122.936 189.944 125.086 190.259 126.069C190.777 127.746 191.284 129.456 191.698 131.161C192.652 135.428 193.161 139.944 192.099 144.246C190.86 149.183 187.618 153.303 184.088 156.832C183.242 157.699 182.308 158.612 181.398 159.403C177.653 162.698 173.26 164.965 168.902 167.29C160.186 171.841 150.577 174.769 140.764 175.561C135.877 175.951 130.983 175.773 126.104 175.593C108.514 174.912 84.7818 170.153 70.3546 159.792C64.9976 155.838 61.0872 151.823 60.0989 144.936C59.543 141.282 59.9179 137.546 60.3784 133.927C60.5267 132.712 60.7287 131.496 61.0323 130.3C61.3298 129.1 61.7562 127.94 62.1293 126.801C62.8754 124.515 63.2861 122.131 63.5478 119.743C64.0409 116.121 63.3038 112.497 63.4541 108.861C63.87 100.352 65.9083 91.9546 68.8987 83.9993C68.9186 83.9453 68.9806 83.9174 69.0346 83.9403C69.0886 83.9602 69.1135 84.0193 69.0966 84.0732L69.073 84.0856Z" fill="#5E5573"/>
<path d="M181.021 82.0337C184.421 90.0372 186.546 98.5636 187.514 107.203C187.848 110.074 187.706 113.005 187.882 115.873C188.249 120.156 189.248 124.395 190.813 128.401C191.35 129.759 191.896 131.149 192.148 132.604C192.4 134.077 192.417 135.557 192.354 137.027C192.074 142.951 189.473 148.477 186.12 153.264C183.568 156.854 180.28 159.917 176.602 162.332C172.951 164.777 169.035 166.678 165.122 168.617C158.539 171.79 151.453 173.845 144.243 174.979C138.487 175.92 132.582 175.881 126.788 175.653C120.976 175.473 115.162 174.982 109.409 174.107C99.3184 172.649 89.3996 169.801 80.0514 165.697C76.0111 163.946 72.007 161.883 68.5826 159.078C66.5448 157.538 64.4915 155.624 63.1087 153.393C59.4475 147.634 58.6563 140.437 59.8862 133.832C60.4322 131.35 61.0435 128.852 61.7542 126.418C62.5492 123.696 63.1197 120.916 63.1327 118.103C62.4757 109.399 63.5332 100.62 65.7408 92.193C66.493 89.4095 67.1746 86.5111 68.6524 83.9978C68.6813 83.9496 68.7466 83.9336 68.7948 83.9625C68.8429 83.9914 68.856 84.0538 68.83 84.1019C68.4866 84.7275 68.2153 85.3936 67.9741 86.071C66.4172 90.8555 65.5375 95.8664 64.8837 100.852C64.3454 105.125 64.0701 109.44 64.262 113.735C64.3264 115.193 64.5239 116.593 64.5887 118.072C64.6393 119.587 64.4925 121.061 64.3009 122.527C63.7333 126.147 62.5423 129.555 61.8847 133.141C60.4752 139.865 61.342 147.464 65.4536 153.093C66.6785 154.816 68.1903 156.086 69.9025 157.405C72.1146 159.198 74.5079 160.63 77.0533 161.902C89.9002 168.294 103.978 172.01 118.252 173.382C126.814 174.092 135.496 174.719 144.029 173.478C151.103 172.433 158.081 170.478 164.559 167.427C168.431 165.553 172.363 163.685 175.949 161.328C179.537 159.016 182.741 156.088 185.248 152.63C188.535 148.011 191.143 142.702 191.477 136.968C191.556 135.552 191.555 134.122 191.334 132.738C191.101 131.333 190.601 130.007 190.091 128.673C188.548 124.586 187.584 120.266 187.266 115.908C187.122 113.003 187.301 110.135 187.003 107.245C186.729 104.378 186.291 101.52 185.75 98.6878C184.67 93.0175 183.026 87.4554 180.837 82.1054C180.815 82.0522 180.841 81.9922 180.894 81.9704C180.948 81.9486 181.008 81.9743 181.03 82.0276L181.021 82.0337Z" fill="#5E5573"/>
<path d="M168.007 42.9134C165.731 46.7703 163.459 50.6242 161.184 54.4811L170.348 47.5387L163.653 56.7475C167.039 54.624 170.428 52.4975 173.814 50.374C173.96 50.7969 174.217 51.4015 174.666 52.0389C174.973 52.4737 176.76 55.0052 179.714 54.9129C181.314 54.8623 183.396 54.0403 184.256 52.1104C184.867 50.7403 184.59 49.4299 184.456 48.9325C184.819 48.9474 187.02 48.9951 188.578 47.3123C189.915 45.8709 190.594 43.3572 189.343 41.4868C188.176 39.7386 186.017 39.5807 185.719 39.5629C186.052 38.9583 186.579 37.8027 186.606 36.2927C186.666 32.8379 184.048 30.7471 183.905 30.634C183.306 30.1723 181.32 28.7964 178.714 29.261C175.19 29.8894 173.791 33.2995 173.71 33.511C173.481 33.3055 171.408 31.5126 168.543 32.0755C165.907 32.5937 164.665 34.7053 164.489 35.018C164.347 35.3277 163.408 37.4453 164.46 39.7862C165.505 42.1093 167.682 42.8181 168.013 42.9194L168.007 42.9134Z" fill="white" stroke="#5E5573" stroke-width="1.84224" stroke-linecap="round" stroke-linejoin="round"/>
<path d="M79.4264 42.9134C81.7018 46.7703 83.9742 50.6242 86.2496 54.4811C83.1939 52.1669 80.1412 49.8528 77.0854 47.5387L83.7806 56.7475C80.3943 54.624 77.005 52.4975 73.6187 50.374C73.4728 50.7969 73.2167 51.4015 72.7669 52.0389C72.4602 52.4737 70.6732 55.0052 67.7187 54.9129C66.1194 54.8623 64.0376 54.0403 63.1769 52.1104C62.5663 50.7403 62.8433 49.4299 62.9773 48.9325C62.614 48.9474 60.413 48.9951 58.8554 47.3123C57.5181 45.8709 56.8391 43.3572 58.09 41.4868C59.2575 39.7386 61.4167 39.5807 61.7145 39.5629C61.381 38.9583 60.8538 37.8027 60.827 36.2927C60.7674 32.8379 63.3853 30.7471 63.5283 30.634C64.1269 30.1723 66.1135 28.7964 68.7195 29.261C72.2428 29.8894 73.6426 33.2995 73.723 33.511C73.9523 33.3055 76.0252 31.5126 78.8903 32.0755C81.5261 32.5937 82.768 34.7053 82.9437 35.018C83.0867 35.3277 84.0248 37.4453 82.9735 39.7862C81.9281 42.1093 79.751 42.8181 79.4204 42.9194L79.4264 42.9134Z" fill="white" stroke="#5E5573" stroke-width="1.84224" stroke-linecap="round" stroke-linejoin="round"/>
<path d="M151.678 77.5088C152.119 77.5445 153.244 77.6964 154.284 78.5512C155.603 79.6383 155.859 81.1036 155.928 81.5265C156.285 83.7602 154.963 85.4191 154.739 85.6901" stroke="#5E5573" stroke-width="1.78697" stroke-linecap="round" stroke-linejoin="round"/>
<path d="M154.898 73C156.322 73.8458 157.448 74.65 158.261 75.2695C159.893 76.5174 160.268 77.0386 160.512 77.5061C160.745 77.9529 160.778 78.2031 161.063 80.3147C161.513 83.6414 161.558 83.9571 161.382 84.5617C161.195 85.2139 160.748 85.8394 159.863 87.0605C158.982 88.2756 158.186 89.2197 157.621 89.8571" stroke="#5E5573" stroke-width="1.78697" stroke-linecap="round" stroke-linejoin="round"/>
<path d="M161.662 84.6147C165.019 84.996 168.354 85.5321 171.66 86.223" stroke="#5E5573" stroke-width="1.78697" stroke-linecap="round" stroke-linejoin="round"/>
<path d="M167.966 72.9785C167.484 73.5325 166.736 74.5421 166.346 75.9925C166.152 76.7073 165.932 77.5293 166.17 78.3305C166.605 79.775 168.434 80.7608 170.67 80.9454" stroke="#5E5573" stroke-width="1.78697" stroke-linecap="round" stroke-linejoin="round"/>
<path d="M157.893 71.4751C157.991 71.6062 159.027 72.9553 160.668 72.8987C162.16 72.8451 163.516 71.6538 163.852 69.9771" stroke="#5E5573" stroke-width="1.78697" stroke-linecap="round" stroke-linejoin="round"/>
<path d="M161.59 92.5133C162.608 90.8425 164.416 89.8895 166.227 90.0771C168.151 90.2766 169.271 91.6794 169.485 91.9564" stroke="#5E5573" stroke-width="1.78697" stroke-linecap="round" stroke-linejoin="round"/>
<path d="M78.9634 125.298C78.6209 124.798 74.3202 118.326 77.1645 111.616C80.0713 104.76 88.747 101.639 95.1682 104.2C100.526 106.339 102.37 111.652 102.492 112.027C104.66 118.63 100.309 124.05 99.996 124.426C95.4303 129.915 88.4849 129.194 87.9905 129.134L78.9574 125.301H78.9634V125.298Z" fill="white"/>
<path d="M92.6673 128.334C98.727 128.334 103.639 122.852 103.639 116.09C103.639 109.328 98.727 103.846 92.6673 103.846C86.6076 103.846 81.6953 109.328 81.6953 116.09C81.6953 122.852 86.6076 128.334 92.6673 128.334Z" fill="#5E5573" stroke="#5E5573" stroke-width="1.78697" stroke-linecap="round" stroke-linejoin="round"/>
<path d="M95.1479 116.253C97.4753 116.253 99.3621 114.366 99.3621 112.039C99.3621 109.712 97.4753 107.825 95.1479 107.825C92.8204 107.825 90.9336 109.712 90.9336 112.039C90.9336 114.366 92.8204 116.253 95.1479 116.253Z" fill="white"/>
<path d="M86.8732 122.127C88.0361 122.127 88.9789 121.184 88.9789 120.021C88.9789 118.858 88.0361 117.916 86.8732 117.916C85.7103 117.916 84.7676 118.858 84.7676 120.021C84.7676 121.184 85.7103 122.127 86.8732 122.127Z" fill="white"/>
<path d="M90.5861 118.508C91.2539 118.508 91.7953 117.967 91.7953 117.299C91.7953 116.631 91.2539 116.09 90.5861 116.09C89.9183 116.09 89.377 116.631 89.377 117.299C89.377 117.967 89.9183 118.508 90.5861 118.508Z" fill="white"/>
<path d="M95.8965 103.903C86.7026 100.865 76.7015 107.122 76.5853 117.04C76.5109 120.063 77.3865 123.068 78.828 125.745L78.7327 125.814C76.6955 123.425 75.4804 120.28 75.397 117.04C75.2183 110.482 80.475 104.683 86.6758 103.164C89.7583 102.422 93.0314 102.655 95.9382 103.787L95.8965 103.9V103.903Z" fill="#5E5573"/>
<path d="M75.7637 125.823C76.6333 125.287 77.6698 124.951 78.7509 124.972C79.287 124.978 79.838 125.082 80.3472 125.269C80.8476 125.457 81.3033 125.645 81.7798 125.844C82.718 126.243 83.6382 126.681 84.5734 127.098C85.041 127.307 85.5086 127.515 85.9554 127.762C86.1817 127.881 86.3991 128.015 86.6165 128.149L86.9382 128.361L87.099 128.471L87.1794 128.528L87.2181 128.557C87.2539 128.581 87.1645 128.522 87.096 128.504C87.0246 128.48 86.9471 128.474 86.8786 128.477L87.2598 128.584C87.7572 128.954 88.2456 129.335 88.7132 129.755C88.9515 129.957 89.1779 130.178 89.4042 130.395C89.6276 130.618 89.848 130.845 90.0535 131.098L89.9731 131.223C89.6574 131.149 89.3565 131.047 89.0557 130.946C88.7609 130.839 88.4631 130.732 88.1771 130.607C87.5994 130.371 87.0424 130.103 86.4944 129.817L86.8756 129.925C86.7922 129.922 86.7029 129.904 86.6165 129.874C86.5361 129.847 86.4319 129.782 86.4527 129.796L86.411 129.776L86.3276 129.734L86.1638 129.648L85.8332 129.472C85.6158 129.35 85.3954 129.231 85.184 129.097C84.7551 128.84 84.3411 128.554 83.9212 128.28C83.0813 127.727 82.2087 127.235 81.3331 126.744C80.9012 126.499 80.4485 126.243 80.0256 126.023C79.6057 125.811 79.1649 125.657 78.6973 125.582C77.7591 125.424 76.7584 125.594 75.8292 125.96L75.7637 125.826V125.823Z" fill="#5E5573"/>
<path d="M84.7706 95.7445C86.0929 95.7028 87.6446 95.7832 89.3452 96.1197C94.2028 97.0817 97.5891 99.6133 99.3641 101.192C100.01 101.65 100.996 102.371 102.17 103.309C103.995 104.772 104.707 105.507 106.175 106.267C107.528 106.967 108.677 107.559 109.598 107.05C110.723 106.431 110.732 104.587 110.729 104.31C110.95 104.691 111.242 105.299 111.382 106.094C111.483 106.669 111.688 107.809 111.11 108.929C110.336 110.436 108.698 110.841 108.415 110.907C107.745 111.005 106.72 111.089 105.511 110.907C102.232 110.41 101.038 108.462 95.1469 103.268C91.7189 100.245 89.4286 98.5292 86.8732 96.9626C86.0006 96.4295 85.265 96.0125 84.7676 95.7415H84.7706V95.7445Z" fill="#5E5573"/>
<path d="M111.324 172.593C111.783 173.49 112.432 174.669 113.29 176.006C113.29 176.006 113.665 176.59 114.043 177.141C116.292 180.393 122.445 188.122 132.997 190.606C139.281 192.086 144.696 191.133 147.82 190.311C151.206 193.001 155.564 191.946 156.865 189.546C157.869 187.693 157.199 184.769 154.968 182.782C154.033 178.761 156.919 176.087 155.239 173.168C152.124 168.966 147.352 173.103 145.461 176.739C142.563 177.85 141.056 177.502 140.211 176.927C140.19 176.912 140.169 176.897 140.157 176.888C138.957 176.021 138.343 174.964 138.016 174.038C136.687 174.044 135.034 174.041 133.134 174.008C132.19 173.993 129.414 173.94 125.665 173.761C121.79 173.573 119.854 173.481 117.29 173.204C115.619 173.022 112.28 172.617 112.28 172.617C112.28 172.617 111.962 172.611 111.327 172.596H111.324V172.593Z" fill="url(#paint2_linear_2106_259)"/>
<path d="M100.207 142.412C103.966 143.451 105.854 147.662 105.672 151.323C105.645 154.176 104.82 157.169 102.551 159.075C101.806 159.707 100.886 160.183 99.933 160.275L99.8496 160.085C101.768 158.319 102.491 155.948 103.379 153.601C104.892 149.807 104.135 144.55 100.136 142.608L100.204 142.412H100.207Z" fill="#5E5573"/>
<path d="M143.779 142.608C139.78 144.55 139.023 149.807 140.536 153.601C141.424 155.951 142.147 158.319 144.065 160.085L143.982 160.275C143.029 160.183 142.109 159.707 141.364 159.075C139.095 157.172 138.27 154.179 138.243 151.323C138.133 148.505 139.098 145.551 141.29 143.695C141.992 143.097 142.817 142.641 143.708 142.412L143.776 142.608H143.779Z" fill="#5E5573"/>
<path d="M105.051 147.171C103.332 170.512 123.218 197.409 147.825 190.311C149.671 191.053 152.879 192.343 154.291 191.765C156.623 191.023 158.288 187.833 157.126 185.4C156.697 184.578 156.051 184.319 155.521 183.679C153.537 181.085 156.009 177.219 155.771 174.461C155.175 172.198 152.936 170.792 150.66 171.67C146.369 172.856 146.78 179.188 141.496 176.495C136.454 174.398 134.56 167.763 134.759 162.658C135.14 158.17 137.991 150.066 139.524 145.998" stroke="#5E5573" stroke-width="1.78697" stroke-linecap="round" stroke-linejoin="round"/>
<path d="M113.703 123.931C115.845 122.401 118.558 121.555 121.188 121.412C121.777 121.385 122.632 121.364 123.231 121.379C125.28 121.513 127.305 122.421 128.642 124.012L128.553 124.167C126.56 123.809 124.881 123.544 123.001 123.133L122.099 122.952C121.569 122.865 120.794 122.815 120.249 122.806C119.785 122.806 118.847 122.85 118.382 122.895L117.45 123.023C116.202 123.211 114.978 123.586 113.789 124.092L113.703 123.937V123.931Z" fill="#5E5573"/>
<path d="M108.576 131.907C112.019 128.482 116.814 126.519 121.666 126.433C125.418 126.299 129.102 127.025 132.161 129.307C133.156 130.025 134.064 130.856 134.815 131.815L134.702 131.952C132.626 130.853 130.55 129.867 128.334 129.203C126.157 128.577 123.938 127.973 121.657 127.862C119.364 127.779 117.046 128.053 114.857 128.777C112.636 129.444 110.563 130.602 108.695 132.044L108.576 131.91V131.907Z" fill="#5E5573"/>
<path d="M112.629 140.75C113.231 140.178 113.889 139.66 114.598 139.207C115.306 138.757 116.054 138.352 116.846 138.046C117.629 137.715 118.454 137.486 119.288 137.292C120.128 137.128 120.983 137.024 121.841 136.988C122.698 136.962 123.565 136.959 124.429 137.036C125.293 137.113 126.144 137.31 126.96 137.623C127.782 137.944 128.548 138.364 129.248 138.874C129.945 139.389 130.582 139.981 131.082 140.69L130.975 140.833C130.171 140.541 129.417 140.247 128.661 139.993C127.91 139.737 127.154 139.511 126.415 139.326L124.152 138.784C123.392 138.603 122.615 138.469 121.832 138.421C120.265 138.34 118.672 138.472 117.135 138.894C115.58 139.273 114.106 139.982 112.745 140.89L112.632 140.75H112.629Z" fill="#5E5573"/>
<path d="M113.696 151.785C115.835 149.911 118.718 148.911 121.556 148.789C123.003 148.726 124.499 148.693 125.883 149.214C127.268 149.724 128.552 150.54 129.434 151.74L129.332 151.889C128.62 151.716 127.968 151.529 127.316 151.368C126.026 151.034 124.781 150.832 123.492 150.534C122.855 150.385 122.202 150.269 121.544 150.221C118.873 150.051 116.15 150.57 113.798 151.934L113.693 151.788H113.696V151.785Z" fill="#5E5573"/>
<path d="M116.555 167.456C117.731 165.252 119.828 163.59 122.204 162.83C123.417 162.44 124.694 162.077 125.987 162.285C127.271 162.485 128.51 163.006 129.421 163.95L129.349 164.114C128.706 164.114 128.119 164.078 127.542 164.069C126.404 164.031 125.353 164.105 124.23 164.096C123.676 164.09 123.116 164.12 122.565 164.218C120.313 164.641 118.228 165.803 116.701 167.563L116.555 167.462V167.456Z" fill="#5E5573"/>
<path d="M122.062 175.986C122.289 173.785 123.54 171.649 125.383 170.378C126.327 169.716 127.358 169.073 128.546 168.984C129.72 168.891 130.911 169.124 131.876 169.818L131.843 169.993C130.804 170.267 129.839 170.449 128.862 170.741C127.959 171.039 126.989 171.164 126.128 171.596C124.326 172.498 122.965 174.115 122.235 176.024L122.062 175.983V175.986Z" fill="#5E5573"/>
<path d="M128.885 182.797C128.462 181.544 128.411 180.054 128.918 178.783C129.909 176.442 132.256 174.869 134.737 176.058V176.207C133.873 176.594 133.123 176.862 132.456 177.207L131.464 177.708C129.588 178.577 128.9 180.787 129.031 182.768L128.885 182.794V182.797Z" fill="#5E5573"/>
<path d="M135.713 184.075C135.609 183.291 135.403 182.514 135.43 181.701C135.511 180.197 136.324 178.756 137.977 178.657L138.045 178.756C137.694 179.551 137.366 180.063 136.863 180.647C135.969 181.531 136.091 182.904 135.832 184.078L135.713 184.072V184.075Z" fill="#5E5573"/>
<path d="M152.546 178.621C153.17 176.993 153.016 175.42 152.202 175.108C151.388 174.796 150.223 175.863 149.599 177.491C148.975 179.119 149.129 180.692 149.943 181.004C150.757 181.316 151.922 180.249 152.546 178.621Z" fill="#5E5573"/>
<path d="M154.434 188.6C155.159 188.115 154.96 186.547 153.991 185.098C153.021 183.649 151.648 182.867 150.923 183.352C150.199 183.837 150.397 185.404 151.367 186.854C152.336 188.303 153.709 189.085 154.434 188.6Z" fill="#5E5573"/>
<path d="M85.9378 135.295C86.1617 131.726 81.7359 128.543 76.0526 128.187C70.3693 127.83 65.5805 130.434 65.3566 134.003C65.1327 137.572 69.5584 140.754 75.2417 141.111C80.9251 141.468 85.7138 138.863 85.9378 135.295Z" fill="#E9ADB8"/>
<path d="M70.5307 134.121C71.151 132.822 71.0991 131.505 70.4149 131.178C69.7307 130.851 68.6731 131.639 68.0528 132.938C67.4325 134.236 67.4844 135.554 68.1686 135.881C68.8529 136.208 69.9104 135.42 70.5307 134.121Z" fill="#E68B9B"/>
<path d="M75.4341 135.279C76.2146 133.645 76.2926 132.055 75.6084 131.729C74.9241 131.402 73.7367 132.462 72.9562 134.096C72.1757 135.73 72.0977 137.32 72.7819 137.646C73.4661 137.973 74.6536 136.913 75.4341 135.279Z" fill="#E68B9B"/>
<path d="M80.1999 136.253C81.0281 134.819 81.1671 133.349 80.5104 132.969C79.8537 132.59 78.65 133.446 77.8218 134.88C76.9936 136.315 76.8546 137.785 77.5113 138.164C78.168 138.543 79.3717 137.688 80.1999 136.253Z" fill="#E68B9B"/>
<path d="M167.649 125.298C167.992 124.798 172.292 118.326 169.448 111.616C166.541 104.76 157.865 101.639 151.444 104.2C146.086 106.339 144.243 111.652 144.121 112.027C141.953 118.63 146.304 124.05 146.614 124.426C151.179 129.915 158.125 129.194 158.619 129.134L167.652 125.301L167.649 125.298Z" fill="white"/>
<path d="M153.939 128.334C159.998 128.334 164.911 122.852 164.911 116.09C164.911 109.328 159.998 103.846 153.939 103.846C147.879 103.846 142.967 109.328 142.967 116.09C142.967 122.852 147.879 128.334 153.939 128.334Z" fill="#5E5573" stroke="#5E5573" stroke-width="1.78697" stroke-linecap="round" stroke-linejoin="round"/>
<path d="M151.458 116.253C153.786 116.253 155.673 114.366 155.673 112.039C155.673 109.712 153.786 107.825 151.458 107.825C149.131 107.825 147.244 109.712 147.244 112.039C147.244 114.366 149.131 116.253 151.458 116.253Z" fill="white"/>
<path d="M159.735 122.127C160.897 122.127 161.84 121.184 161.84 120.021C161.84 118.858 160.897 117.916 159.735 117.916C158.572 117.916 157.629 118.858 157.629 120.021C157.629 121.184 158.572 122.127 159.735 122.127Z" fill="white"/>
<path d="M156.016 118.508C156.684 118.508 157.225 117.967 157.225 117.299C157.225 116.631 156.684 116.09 156.016 116.09C155.348 116.09 154.807 116.631 154.807 117.299C154.807 117.967 155.348 118.508 156.016 118.508Z" fill="white"/>
<path d="M150.672 103.789C155.041 102.068 160.304 102.452 164.298 105.034C168.396 107.545 171.353 112.149 171.216 117.039C171.133 120.28 169.918 123.425 167.88 125.813L167.785 125.745C169.224 123.067 170.099 120.062 170.028 117.039C169.938 110.719 165.802 105.537 159.785 103.741C156.867 102.875 153.662 102.958 150.72 103.902L150.678 103.789H150.672Z" fill="#5E5573"/>
<path d="M170.78 125.953C168.618 125.096 167.137 125.572 165.273 126.737C163.549 127.63 162.003 128.83 160.278 129.727C160.144 129.798 159.93 129.92 159.733 129.917L160.115 129.81C159.007 130.382 157.854 130.9 156.639 131.216L156.559 131.091C157.375 130.135 158.349 129.325 159.352 128.58L159.733 128.473C159.665 128.467 159.588 128.476 159.516 128.5C159.448 128.518 159.358 128.574 159.394 128.553L159.433 128.524C161.083 127.365 163.013 126.689 164.829 125.843C166.947 124.837 168.767 124.56 170.845 125.825L170.78 125.959V125.953Z" fill="#5E5573"/>
<path d="M161.834 95.7445C160.512 95.7028 158.96 95.7832 157.26 96.1197C152.402 97.0817 149.016 99.6133 147.241 101.192C146.594 101.65 145.609 102.371 144.435 103.309C142.609 104.772 141.898 105.507 140.429 106.267C139.077 106.967 137.928 107.559 137.007 107.05C135.881 106.431 135.873 104.587 135.875 104.31C135.655 104.691 135.363 105.299 135.223 106.094C135.122 106.669 134.916 107.809 135.494 108.929C136.269 110.436 137.907 110.841 138.19 110.907C138.86 111.005 139.884 111.089 141.093 110.907C144.373 110.41 145.567 108.462 151.458 103.268C154.886 100.245 157.176 98.5292 159.732 96.9626C160.604 96.4295 161.34 96.0125 161.837 95.7415H161.834V95.7445Z" fill="#5E5573"/>
<path d="M171.349 141.136C177.033 140.779 181.459 137.597 181.235 134.028C181.011 130.459 176.222 127.855 170.539 128.212C164.855 128.568 160.43 131.751 160.653 135.32C160.877 138.888 165.666 141.493 171.349 141.136Z" fill="#E9ADB8"/>
<path d="M178.434 135.866C179.119 135.539 179.171 134.222 178.55 132.923C177.93 131.624 176.872 130.836 176.188 131.163C175.504 131.49 175.452 132.808 176.072 134.106C176.693 135.405 177.75 136.193 178.434 135.866Z" fill="#E68B9B"/>
<path d="M173.829 137.631C174.513 137.304 174.435 135.715 173.655 134.081C172.874 132.446 171.687 131.387 171.003 131.713C170.318 132.04 170.396 133.63 171.177 135.264C171.957 136.898 173.145 137.958 173.829 137.631Z" fill="#E68B9B"/>
<path d="M169.094 138.165C169.751 137.786 169.612 136.316 168.784 134.881C167.956 133.447 166.752 132.591 166.095 132.97C165.439 133.349 165.578 134.82 166.406 136.254C167.234 137.689 168.438 138.544 169.094 138.165Z" fill="#E68B9B"/>
<g filter="url(#filter0_dd_2106_259)">
<rect x="210.504" y="212.5" width="37.2472" height="171.337" rx="18.6236" transform="rotate(90 210.504 212.5)" fill="#5E5573" shape-rendering="crispEdges"/>
<path d="M92.3076 222.992C92.5224 222.992 92.7449 223.053 92.975 223.176C93.2205 223.283 93.4046 223.429 93.5273 223.613L99.1193 232.22L97.9687 232.174L103.699 223.613C103.99 223.199 104.366 222.992 104.826 222.992C105.195 222.992 105.524 223.122 105.816 223.383C106.107 223.644 106.253 223.981 106.253 224.396V237.72C106.253 238.119 106.123 238.456 105.862 238.732C105.601 238.993 105.256 239.124 104.826 239.124C104.397 239.124 104.044 238.993 103.768 238.732C103.507 238.456 103.377 238.119 103.377 237.72V226.881L104.274 227.088L99.5796 234.245C99.4415 234.414 99.2651 234.559 99.0503 234.682C98.8509 234.805 98.6437 234.859 98.429 234.843C98.2295 234.859 98.0224 234.805 97.8076 234.682C97.6082 234.559 97.4394 234.414 97.3013 234.245L92.9059 227.295L93.5043 226.075V237.72C93.5043 238.119 93.3815 238.456 93.1361 238.732C92.8906 238.993 92.5684 239.124 92.1695 239.124C91.786 239.124 91.4715 238.993 91.226 238.732C90.9806 238.456 90.8578 238.119 90.8578 237.72V224.396C90.8578 224.012 90.9959 223.682 91.2721 223.406C91.5635 223.13 91.9087 222.992 92.3076 222.992ZM119.677 226.582C120.076 226.582 120.406 226.712 120.667 226.973C120.928 227.234 121.058 227.571 121.058 227.985V237.72C121.058 238.119 120.928 238.456 120.667 238.732C120.406 238.993 120.076 239.124 119.677 239.124C119.278 239.124 118.949 238.993 118.688 238.732C118.427 238.456 118.297 238.119 118.297 237.72V236.592L118.803 236.799C118.803 236.999 118.695 237.244 118.481 237.536C118.266 237.812 117.974 238.088 117.606 238.364C117.238 238.64 116.801 238.878 116.294 239.078C115.803 239.262 115.267 239.354 114.684 239.354C113.625 239.354 112.666 239.085 111.807 238.548C110.948 237.996 110.265 237.244 109.759 236.293C109.268 235.326 109.022 234.222 109.022 232.979C109.022 231.721 109.268 230.617 109.759 229.665C110.265 228.699 110.94 227.947 111.784 227.41C112.628 226.858 113.564 226.582 114.591 226.582C115.251 226.582 115.857 226.681 116.409 226.881C116.962 227.08 117.437 227.333 117.836 227.64C118.25 227.947 118.565 228.262 118.78 228.584C119.01 228.891 119.125 229.151 119.125 229.366L118.297 229.665V227.985C118.297 227.587 118.427 227.257 118.688 226.996C118.949 226.72 119.278 226.582 119.677 226.582ZM115.029 236.822C115.704 236.822 116.294 236.654 116.801 236.316C117.307 235.978 117.698 235.518 117.974 234.935C118.266 234.352 118.412 233.7 118.412 232.979C118.412 232.243 118.266 231.583 117.974 231C117.698 230.417 117.307 229.957 116.801 229.619C116.294 229.282 115.704 229.113 115.029 229.113C114.369 229.113 113.786 229.282 113.28 229.619C112.774 229.957 112.375 230.417 112.083 231C111.807 231.583 111.669 232.243 111.669 232.979C111.669 233.7 111.807 234.352 112.083 234.935C112.375 235.518 112.774 235.978 113.28 236.316C113.786 236.654 114.369 236.822 115.029 236.822ZM125.544 239.124C125.145 239.124 124.815 238.993 124.554 238.732C124.293 238.456 124.163 238.119 124.163 237.72V228.216C124.163 227.817 124.293 227.487 124.554 227.226C124.815 226.95 125.145 226.812 125.544 226.812C125.943 226.812 126.273 226.95 126.533 227.226C126.794 227.487 126.925 227.817 126.925 228.216V230.379L126.764 228.837C126.932 228.469 127.147 228.147 127.408 227.87C127.684 227.579 127.991 227.341 128.328 227.157C128.666 226.958 129.026 226.812 129.41 226.72C129.793 226.628 130.177 226.582 130.561 226.582C131.021 226.582 131.404 226.712 131.711 226.973C132.033 227.234 132.194 227.541 132.194 227.893C132.194 228.4 132.064 228.768 131.803 228.998C131.542 229.213 131.259 229.32 130.952 229.32C130.66 229.32 130.392 229.266 130.146 229.159C129.916 229.052 129.648 228.998 129.341 228.998C129.065 228.998 128.781 229.067 128.489 229.205C128.213 229.328 127.952 229.527 127.707 229.803C127.477 230.08 127.285 230.425 127.132 230.839C126.994 231.238 126.925 231.713 126.925 232.266V237.72C126.925 238.119 126.794 238.456 126.533 238.732C126.273 238.993 125.943 239.124 125.544 239.124ZM144.066 226.582C144.465 226.582 144.795 226.712 145.056 226.973C145.316 227.234 145.447 227.571 145.447 227.985V237.72C145.447 238.119 145.316 238.456 145.056 238.732C144.795 238.993 144.465 239.124 144.066 239.124C143.667 239.124 143.337 238.993 143.077 238.732C142.816 238.456 142.685 238.119 142.685 237.72V236.592L143.192 236.799C143.192 236.999 143.084 237.244 142.869 237.536C142.655 237.812 142.363 238.088 141.995 238.364C141.627 238.64 141.189 238.878 140.683 239.078C140.192 239.262 139.655 239.354 139.072 239.354C138.014 239.354 137.055 239.085 136.196 238.548C135.337 237.996 134.654 237.244 134.148 236.293C133.657 235.326 133.411 234.222 133.411 232.979C133.411 231.721 133.657 230.617 134.148 229.665C134.654 228.699 135.329 227.947 136.173 227.41C137.017 226.858 137.952 226.582 138.98 226.582C139.64 226.582 140.246 226.681 140.798 226.881C141.351 227.08 141.826 227.333 142.225 227.64C142.639 227.947 142.954 228.262 143.169 228.584C143.399 228.891 143.514 229.151 143.514 229.366L142.685 229.665V227.985C142.685 227.587 142.816 227.257 143.077 226.996C143.337 226.72 143.667 226.582 144.066 226.582ZM139.418 236.822C140.093 236.822 140.683 236.654 141.189 236.316C141.696 235.978 142.087 235.518 142.363 234.935C142.655 234.352 142.8 233.7 142.8 232.979C142.8 232.243 142.655 231.583 142.363 231C142.087 230.417 141.696 229.957 141.189 229.619C140.683 229.282 140.093 229.113 139.418 229.113C138.758 229.113 138.175 229.282 137.669 229.619C137.162 229.957 136.763 230.417 136.472 231C136.196 231.583 136.058 232.243 136.058 232.979C136.058 233.7 136.196 234.352 136.472 234.935C136.763 235.518 137.162 235.978 137.669 236.316C138.175 236.654 138.758 236.822 139.418 236.822ZM155.018 226.582C156.123 226.582 156.959 226.819 157.527 227.295C158.11 227.771 158.509 228.407 158.723 229.205C158.938 229.988 159.046 230.862 159.046 231.829V237.72C159.046 238.119 158.915 238.456 158.654 238.732C158.394 238.993 158.064 239.124 157.665 239.124C157.266 239.124 156.936 238.993 156.675 238.732C156.415 238.456 156.284 238.119 156.284 237.72V231.829C156.284 231.322 156.223 230.87 156.1 230.471C155.977 230.057 155.755 229.727 155.433 229.481C155.11 229.236 154.65 229.113 154.052 229.113C153.469 229.113 152.97 229.236 152.556 229.481C152.142 229.727 151.827 230.057 151.613 230.471C151.413 230.87 151.313 231.322 151.313 231.829V237.72C151.313 238.119 151.183 238.456 150.922 238.732C150.661 238.993 150.332 239.124 149.933 239.124C149.534 239.124 149.204 238.993 148.943 238.732C148.682 238.456 148.552 238.119 148.552 237.72V223.498C148.552 223.099 148.682 222.769 148.943 222.508C149.204 222.232 149.534 222.094 149.933 222.094C150.332 222.094 150.661 222.232 150.922 222.508C151.183 222.769 151.313 223.099 151.313 223.498V229.205L150.968 229.136C151.106 228.875 151.298 228.599 151.544 228.308C151.789 228.001 152.088 227.717 152.441 227.456C152.794 227.195 153.185 226.988 153.615 226.835C154.044 226.666 154.512 226.582 155.018 226.582Z" fill="white"/>
</g>
<defs>
<filter id="filter0_dd_2106_259" x="36.1862" y="212.5" width="177.297" height="43.2066" filterUnits="userSpaceOnUse" color-interpolation-filters="sRGB">
<feFlood flood-opacity="0" result="BackgroundImageFix"/>
<feColorMatrix in="SourceAlpha" type="matrix" values="0 0 0 0 0 0 0 0 0 0 0 0 0 0 0 0 0 0 127 0" result="hardAlpha"/>
<feOffset dy="2.97977"/>
<feGaussianBlur stdDeviation="1.48989"/>
<feComposite in2="hardAlpha" operator="out"/>
<feColorMatrix type="matrix" values="0 0 0 0 0 0 0 0 0 0 0 0 0 0 0 0 0 0 0.25 0"/>
<feBlend mode="normal" in2="BackgroundImageFix" result="effect1_dropShadow_2106_259"/>
<feColorMatrix in="SourceAlpha" type="matrix" values="0 0 0 0 0 0 0 0 0 0 0 0 0 0 0 0 0 0 127 0" result="hardAlpha"/>
<feOffset dy="2.97977"/>
<feGaussianBlur stdDeviation="1.48989"/>
<feComposite in2="hardAlpha" operator="out"/>
<feColorMatrix type="matrix" values="0 0 0 0 0 0 0 0 0 0 0 0 0 0 0 0 0 0 0.25 0"/>
<feBlend mode="normal" in2="effect1_dropShadow_2106_259" result="effect2_dropShadow_2106_259"/>
<feBlend mode="normal" in="SourceGraphic" in2="effect2_dropShadow_2106_259" result="shape"/>
</filter>
<linearGradient id="paint0_linear_2106_259" x1="125" y1="0" x2="125" y2="250" gradientUnits="userSpaceOnUse">
<stop offset="0.245192" stop-color="#CF4F52"/>
<stop offset="1" stop-color="#FF9E9E"/>
</linearGradient>
<linearGradient id="paint1_linear_2106_259" x1="58.7897" y1="107.363" x2="191.967" y2="105.014" gradientUnits="userSpaceOnUse">
<stop stop-color="#C0B4DF"/>
<stop offset="0.5" stop-color="#FF5F64"/>
<stop offset="1" stop-color="#C0B4DF"/>
</linearGradient>
<linearGradient id="paint2_linear_2106_259" x1="134.323" y1="171.396" x2="134.323" y2="191.896" gradientUnits="userSpaceOnUse">
<stop stop-color="#FF5F64"/>
<stop offset="1" stop-color="#C0B4DF"/>
</linearGradient>
</defs>
</svg>
