<svg width="169" height="118" viewBox="0 0 169 118" fill="none" xmlns="http://www.w3.org/2000/svg">
<rect width="169" height="117.599" rx="30" fill="white"/>
<rect x="27.1188" y="22.0465" width="115.762" height="73.4624" rx="1.95178" fill="white" stroke="#A394C5" stroke-width="2.23752"/>
<path d="M113.254 45.1729C113.778 45.2437 114.293 45.3448 114.796 45.4756C114.723 45.7372 114.873 46.0101 115.134 46.0889C115.93 46.329 116.694 46.6458 117.415 47.0303C117.656 47.1585 117.952 47.0697 118.085 46.833C118.539 47.0979 118.977 47.3884 119.395 47.7041C119.227 47.9177 119.259 48.2267 119.471 48.3994C120.11 48.9218 120.697 49.5057 121.222 50.1416C121.395 50.3518 121.704 50.3827 121.917 50.2139C122.235 50.6298 122.527 51.0656 122.794 51.5186C122.558 51.6521 122.471 51.9495 122.6 52.1895C122.987 52.9097 123.307 53.6723 123.549 54.4678C123.628 54.7284 123.901 54.8761 124.162 54.8027C124.294 55.3056 124.397 55.8201 124.469 56.3447C124.2 56.3769 124.004 56.6175 124.03 56.8887C124.07 57.2949 124.091 57.7071 124.091 58.124C124.091 58.5409 124.07 58.9532 124.03 59.3594C124.004 59.6304 124.2 59.8702 124.469 59.9023C124.397 60.4269 124.294 60.9415 124.162 61.4443C123.901 61.3711 123.628 61.5189 123.549 61.7793C123.307 62.5748 122.987 63.3373 122.6 64.0576C122.471 64.2973 122.558 64.5947 122.793 64.7285C122.526 65.1812 122.234 65.6165 121.916 66.0322C121.73 65.8856 121.471 65.8912 121.293 66.0352L121.222 66.1064C120.762 66.6628 120.256 67.1791 119.708 67.6494L119.471 67.8477C119.26 68.02 119.227 68.3284 119.394 68.542C118.976 68.8575 118.54 69.1493 118.086 69.4141C117.953 69.1774 117.656 69.0886 117.415 69.2168C116.694 69.6013 115.93 69.9181 115.134 70.1582C114.873 70.2368 114.724 70.5093 114.797 70.7705C114.294 70.9014 113.779 71.0033 113.254 71.0742C113.222 70.805 112.982 70.6096 112.711 70.6357C112.305 70.6751 111.892 70.6953 111.475 70.6953C111.058 70.6953 110.646 70.6751 110.239 70.6357C109.968 70.6095 109.727 70.8048 109.695 71.0742C109.17 71.0033 108.656 70.9015 108.152 70.7705C108.225 70.5092 108.077 70.2369 107.816 70.1582C107.02 69.918 106.256 69.6014 105.534 69.2168C105.294 69.0888 104.996 69.1772 104.863 69.4141C104.409 69.1493 103.973 68.8575 103.556 68.542C103.723 68.3284 103.69 68.0201 103.479 67.8477L103.242 67.6494C102.695 67.1791 102.188 66.6628 101.729 66.1064L101.656 66.0352C101.478 65.8914 101.219 65.8854 101.033 66.0322C100.716 65.6166 100.422 65.1821 100.155 64.7295C100.392 64.5962 100.48 64.2979 100.351 64.0576L100.208 63.7852C99.8839 63.146 99.6133 62.4752 99.4014 61.7793L99.3623 61.6865C99.253 61.4848 99.0155 61.3807 98.7871 61.4453C98.6549 60.9422 98.5521 60.4272 98.4805 59.9023C98.7499 59.8705 98.9462 59.6306 98.9199 59.3594L98.875 58.7451C98.87 58.6422 98.8658 58.5391 98.8633 58.4355L98.8594 58.124C98.8594 57.9155 98.8649 57.7079 98.875 57.502L98.9199 56.8887C98.9465 56.6172 98.7501 56.3765 98.4805 56.3447C98.5521 55.8198 98.6548 55.3049 98.7871 54.8018C99.0154 54.8664 99.2529 54.7631 99.3623 54.5615L99.4014 54.4678C99.6133 53.7718 99.8838 53.1011 100.208 52.4619L100.351 52.1895C100.48 51.9492 100.392 51.6508 100.155 51.5176C100.422 51.0649 100.715 50.6296 101.032 50.2139C101.218 50.3617 101.478 50.3568 101.656 50.2129L101.729 50.1416C102.188 49.5852 102.695 49.0689 103.242 48.5986L103.479 48.3994C103.691 48.2266 103.723 47.9177 103.555 47.7041C103.972 47.3885 104.409 47.0969 104.863 46.832C104.995 47.0698 105.293 47.1587 105.534 47.0303C106.256 46.6457 107.02 46.329 107.816 46.0889C108.078 46.0101 108.227 45.7372 108.153 45.4756C108.656 45.3448 109.171 45.2438 109.695 45.1729C109.727 45.4425 109.968 45.6386 110.239 45.6123C110.646 45.573 111.058 45.5527 111.475 45.5527C111.892 45.5527 112.305 45.573 112.711 45.6123C112.982 45.6384 113.222 45.4423 113.254 45.1729Z" stroke="#CF4F52" stroke-linecap="round" stroke-linejoin="round" stroke-dasharray="2.31 2.31"/>
<path d="M91.2966 94.1212C91.2966 91.4804 91.8185 88.8654 92.8326 86.4257C93.8466 83.9859 95.3329 81.7691 97.2066 79.9017C99.0803 78.0344 101.305 76.5532 103.753 75.5426C106.201 74.532 108.825 74.0119 111.474 74.0119C114.124 74.0119 116.748 74.532 119.196 75.5426C121.644 76.5532 123.869 78.0344 125.742 79.9017C127.616 81.7691 129.102 83.9859 130.116 86.4257C131.13 88.8654 131.652 91.4804 131.652 94.1212" stroke="#CF4F52" stroke-linecap="round" stroke-linejoin="round" stroke-dasharray="2.31 2.31"/>
<path d="M64.5 35.4922C65.1927 35.5815 65.871 35.7171 66.5322 35.8936C66.458 36.1554 66.6066 36.4298 66.8682 36.5088C67.8262 36.7976 68.7446 37.1782 69.6123 37.6406C69.8537 37.7692 70.1524 37.679 70.2842 37.4404C70.8849 37.7855 71.4598 38.17 72.0068 38.5889C71.8382 38.8024 71.8716 39.1132 72.083 39.2861C72.8512 39.9141 73.5571 40.6154 74.1885 41.3799C74.3623 41.5904 74.671 41.6213 74.8838 41.4521C75.3059 41.9977 75.6941 42.5706 76.042 43.1699C75.8039 43.3028 75.716 43.6019 75.8457 43.8428C76.3119 44.7088 76.695 45.6256 76.9863 46.582C77.0659 46.8433 77.34 46.9906 77.6016 46.916C77.7797 47.5769 77.9156 48.2549 78.0059 48.9473C77.7355 48.9784 77.5388 49.2213 77.5654 49.4932C77.6132 49.9814 77.6377 50.4765 77.6377 50.9775C77.6377 51.4787 77.6132 51.9745 77.5654 52.4629C77.539 52.7346 77.7357 52.9756 78.0059 53.0068C77.9156 53.6997 77.7789 54.3778 77.6006 55.0391C77.3393 54.9651 77.0658 55.1121 76.9863 55.373C76.7315 56.21 76.4064 57.0165 76.0166 57.7852L75.8457 58.1123C75.7161 58.353 75.8043 58.6512 76.042 58.7842C75.6942 59.3833 75.3067 59.9565 74.8848 60.502C74.6988 60.3541 74.4384 60.3596 74.2598 60.5039L74.1885 60.5752C73.5571 61.3397 72.8512 62.041 72.083 62.6689C71.8717 62.8417 71.8389 63.1516 72.0068 63.3652C71.4598 63.7841 70.8849 64.1685 70.2842 64.5137C70.1688 64.3058 69.9264 64.2112 69.7061 64.2764L69.6123 64.3154C68.853 64.72 68.055 65.0613 67.2256 65.334L66.8682 65.4473C66.6071 65.5262 66.4587 65.7991 66.5322 66.0605C65.8709 66.237 65.1927 66.3726 64.5 66.4619C64.4694 66.1913 64.2281 65.9943 63.9561 66.0205C63.4676 66.0678 62.9719 66.0918 62.4707 66.0918C61.9693 66.0918 61.473 66.0678 60.9844 66.0205C60.7124 65.9944 60.47 66.1913 60.4395 66.4619C59.7467 66.3726 59.0685 66.237 58.4072 66.0605C58.481 65.7989 58.3336 65.5262 58.0723 65.4473L57.7148 65.334C56.8855 65.0613 56.0874 64.72 55.3281 64.3154L55.2344 64.2764C55.0141 64.2113 54.7716 64.3058 54.6562 64.5137C54.0553 64.1684 53.4798 63.7843 52.9326 63.3652C53.1011 63.1516 53.0689 62.8418 52.8574 62.6689L52.5723 62.4307C51.914 61.8652 51.3054 61.2441 50.7529 60.5752L50.6807 60.5039C50.5018 60.3596 50.2416 60.3546 50.0557 60.5029C49.6336 59.9573 49.2463 59.3836 48.8984 58.7842C49.1362 58.6513 49.2252 58.3531 49.0957 58.1123L48.9248 57.7852C48.535 57.0164 48.209 56.2101 47.9541 55.373L47.915 55.2793C47.8054 55.0776 47.5673 54.9738 47.3389 55.0391C47.1606 54.3779 47.0238 53.6996 46.9336 53.0068C47.2044 52.9762 47.4015 52.735 47.375 52.4629L47.3438 52.0947C47.3167 51.726 47.3027 51.3533 47.3027 50.9775C47.3027 50.6017 47.3167 50.2292 47.3438 49.8604L47.375 49.4932C47.4016 49.2209 47.2045 48.9779 46.9336 48.9473C47.0238 48.2548 47.1607 47.5769 47.3389 46.916C47.5674 46.9813 47.8054 46.8776 47.915 46.6758L47.9541 46.582C48.209 45.745 48.5349 44.9387 48.9248 44.1699L49.0957 43.8428C49.2252 43.6019 49.1366 43.3026 48.8984 43.1699C49.2462 42.5708 49.6337 41.9975 50.0557 41.4521C50.2416 41.6006 50.5018 41.5956 50.6807 41.4512L50.7529 41.3799C51.3052 40.7111 51.9142 40.0907 52.5723 39.5254L52.8574 39.2861C53.0692 39.113 53.1018 38.8025 52.9326 38.5889C53.4798 38.1698 54.0554 37.7857 54.6562 37.4404C54.7714 37.649 55.0138 37.7439 55.2344 37.6787L55.3281 37.6406C56.0874 37.236 56.8854 36.8938 57.7148 36.6211L58.0723 36.5088C58.334 36.4299 58.4817 36.1556 58.4072 35.8936C59.0685 35.7171 59.7468 35.5815 60.4395 35.4922C60.4694 35.7634 60.712 35.9607 60.9844 35.9346C61.473 35.8873 61.9693 35.8633 62.4707 35.8633C62.9719 35.8633 63.4676 35.8873 63.9561 35.9346C64.2285 35.9609 64.47 35.7634 64.5 35.4922Z" stroke="#CF4F52" stroke-linecap="round" stroke-linejoin="round" stroke-dasharray="2.75 2.75"/>
<path d="M38.3662 93.9779C38.3662 90.8233 38.9897 87.6995 40.201 84.785C41.4123 81.8705 43.1878 79.2224 45.4261 76.9917C47.6644 74.761 50.3216 72.9916 53.246 71.7844C56.1704 70.5771 59.3048 69.9558 62.4702 69.9558C65.6356 69.9558 68.77 70.5771 71.6944 71.7844C74.6188 72.9916 77.2761 74.761 79.5143 76.9917C81.7526 79.2224 83.5281 81.8705 84.7394 84.785C85.9508 87.6995 86.5742 90.8233 86.5742 93.9779" stroke="#CF4F52" stroke-linecap="round" stroke-linejoin="round" stroke-dasharray="2.75 2.75"/>
</svg>
