<svg width="550" height="550" viewBox="0 0 550 550" fill="none" xmlns="http://www.w3.org/2000/svg">
<circle cx="275" cy="275" r="262.5" fill="#FAC0D8" stroke="#ACECC7" stroke-width="25"/>
<path d="M152.839 236.147C149.695 248.869 148.793 255.23 148.417 262.687C147.89 273.162 149.18 276.257 147.702 285.684C146.133 295.722 144.122 295.734 141.99 306.747C140.457 314.689 138.858 322.946 141.105 332.906C143.292 342.611 148.048 349.147 150.998 353.121C158.794 363.626 167.815 368.993 173.243 372.156C181.391 376.899 191.12 379.904 210.566 385.907C213.45 386.798 216.842 387.797 220.931 388.863C222.482 389.263 228.056 390.693 235.658 392.183C237.645 392.571 242.104 393.419 248.047 394.304C257.043 395.648 267.929 397.272 281.469 397.696C290.065 397.969 300.37 398.241 313.849 396.254C328.11 394.152 338.529 390.608 342.152 389.318C347.507 387.41 351.712 385.441 360.126 381.497C379.972 372.198 387.139 366.679 392.827 360.809C393.185 360.439 393.663 359.943 394.299 359.246C408.433 343.786 410.395 325.158 410.65 322.48C412.183 306.232 406.864 293.741 404.21 288.422C404.253 285.193 404.271 280.498 404.119 274.84C403.81 263.366 403.005 253.376 402.429 248.99C400.921 237.432 395.929 212.024 377.428 187.871C366.881 174.101 356.055 166.111 352.584 163.645C330.963 148.282 308.718 144.157 305.289 144.005C303.023 143.902 301.969 143.642 299.855 143.127C297.644 142.587 296.523 142.303 295.784 141.503C293.882 139.449 294.99 135.597 295.36 134.318C296.941 128.824 300.752 126.897 300.103 125.764C299.352 124.45 293.288 125.407 288.381 128.781C288.381 128.781 286.382 130.156 279.591 138.044C280.869 117.774 278.81 117.065 278.81 117.065C277.804 116.72 276.562 117.786 274.745 119.355C272.17 121.566 270.886 124.117 270.195 125.734C267.317 132.495 268.487 138.141 267.451 138.298C266.33 138.468 265.942 131.738 260.757 127.594C258.546 125.825 254.874 124.05 253.396 125.249C251.021 127.182 257.364 134.336 255.044 139.916C252.79 145.344 244.285 144.629 231.648 147.858C216.37 151.759 205.805 158.726 199.874 162.585C187.849 170.412 180.203 178.96 177.326 182.358C161.545 200.981 156.632 220.845 152.852 236.141H152.839V236.147Z" fill="#C0B4DF"/>
<path d="M197.493 238.758C197.493 238.758 199.432 235.935 213.535 236.644C213.535 236.644 220.059 234.178 213.535 229.944C213.535 229.944 203.491 227.303 197.493 236.644C197.493 236.644 195.961 238.989 197.493 238.758Z" fill="#5E5573"/>
<path d="M204.242 316.119C204.242 316.119 183.505 316.61 174.237 297.091C174.237 297.091 166.676 274.161 193.507 260.991C194.537 260.67 207.713 256.811 218.63 265.692C228.213 273.495 228.462 284.938 228.468 286.501C228.553 287.586 229.528 303.294 217.782 311.636C212.596 315.319 207.144 315.998 204.236 316.119H204.242Z" fill="white"/>
<path d="M178.356 303.724C178.01 300.914 177.78 296.83 178.525 292.02C179.313 286.95 180.379 280.038 185.922 274.349C192.749 267.334 201.8 266.868 203.466 266.813C218.005 266.328 226.765 278.535 227.45 279.523C226.82 277.118 225.251 272.459 221.198 268.122C220.192 267.049 217.478 264.323 213.28 262.342C206.041 258.926 196.36 258.647 188.091 263.166C179.561 267.831 176.302 275.549 175.308 278.008C174.248 280.625 170.662 289.494 174.672 298.236C175.823 300.75 177.289 302.567 178.368 303.718H178.356V303.724Z" fill="#5E5573"/>
<path d="M200.788 267.043C197.977 268.594 193.119 271.817 189.757 277.681C184.444 286.956 183.832 301.198 192.319 309.576C197.16 314.35 203.272 315.562 206.665 315.907C212.05 315.21 215.697 313.12 217.587 311.83C225.808 306.208 228.037 297.03 228.522 292.989C229.031 288.785 228.413 283.793 228.049 282.194C228.037 282.134 227.444 279.523 227.444 279.523C225.535 276.893 221.682 272.368 215.479 269.418C213.462 268.455 209.821 266.77 204.871 266.716C203.193 266.698 201.788 266.873 200.788 267.043Z" fill="#5E5573"/>
<path d="M213.268 289.076C216.938 289.076 219.913 285.539 219.913 281.176C219.913 276.814 216.938 273.277 213.268 273.277C209.597 273.277 206.622 276.814 206.622 281.176C206.622 285.539 209.597 289.076 213.268 289.076Z" fill="white"/>
<path d="M200.589 303.325C202.673 303.325 204.363 301.635 204.363 299.55C204.363 297.466 202.673 295.776 200.589 295.776C198.504 295.776 196.814 297.466 196.814 299.55C196.814 301.635 198.504 303.325 200.589 303.325Z" fill="white"/>
<path d="M351.651 246.434C351.651 246.434 349.713 243.61 335.61 244.319C335.61 244.319 329.085 241.854 335.61 237.619C335.61 237.619 345.654 234.978 351.651 244.319C351.651 244.319 353.184 246.664 351.651 246.434Z" fill="#5E5573"/>
<path d="M346.442 316.537C346.442 316.537 367.178 317.028 376.447 297.509C376.447 297.509 384.007 274.579 357.176 261.409C356.147 261.088 342.97 257.229 332.054 266.11C322.47 273.913 322.222 285.357 322.216 286.92C322.131 288.004 321.156 303.712 332.902 312.054C338.088 315.737 343.54 316.416 346.448 316.537H346.442Z" fill="white"/>
<path d="M372.327 304.143C372.672 301.332 372.902 297.249 372.157 292.438C371.37 287.368 370.304 280.456 364.761 274.767C357.933 267.752 348.882 267.286 347.217 267.231C332.677 266.746 323.917 278.953 323.233 279.941C323.863 277.536 325.432 272.877 329.485 268.54C330.49 267.467 333.204 264.741 337.403 262.76C344.642 259.344 354.323 259.065 362.592 263.584C371.121 268.249 374.381 275.967 375.374 278.426C376.434 281.043 380.021 289.912 376.01 298.654C374.859 301.168 373.393 302.985 372.315 304.136H372.327V304.143Z" fill="#5E5573"/>
<path d="M349.894 267.461C352.705 269.012 357.564 272.235 360.926 278.099C366.239 287.374 366.851 301.616 358.363 309.994C353.523 314.768 347.41 315.979 344.018 316.325C338.632 315.628 334.986 313.538 333.095 312.248C324.875 306.626 322.645 297.448 322.161 293.407C321.652 289.203 322.27 284.211 322.633 282.612C322.645 282.551 323.239 279.94 323.239 279.94C325.147 277.311 329 272.786 335.204 269.836C337.221 268.872 340.862 267.188 345.811 267.134C347.489 267.116 348.895 267.291 349.894 267.461Z" fill="#5E5573"/>
<path d="M337.409 289.494C341.079 289.494 344.054 285.957 344.054 281.594C344.054 277.231 341.079 273.695 337.409 273.695C333.739 273.695 330.763 277.231 330.763 281.594C330.763 285.957 333.739 289.494 337.409 289.494Z" fill="white"/>
<path d="M350.094 303.743C352.179 303.743 353.869 302.053 353.869 299.969C353.869 297.884 352.179 296.194 350.094 296.194C348.01 296.194 346.32 297.884 346.32 299.969C346.32 302.053 348.01 303.743 350.094 303.743Z" fill="white"/>
<path d="M199.693 328.161C201.182 323.33 194.161 316.879 184.012 313.753C173.863 310.627 164.429 312.009 162.941 316.84C161.453 321.672 168.474 328.123 178.623 331.249C188.772 334.375 198.205 332.992 199.693 328.161Z" fill="#FAC0D8"/>
<path d="M372.158 331.199C382.307 328.073 389.328 321.623 387.84 316.791C386.352 311.96 376.918 310.577 366.769 313.703C356.62 316.829 349.599 323.28 351.088 328.112C352.576 332.943 362.01 334.326 372.158 331.199Z" fill="#FAC0D8"/>
<path d="M177.326 182.364C174.697 181.346 170.729 179.777 165.943 177.772C147.381 169.988 144.479 167.401 135.356 164.772C128.874 162.9 120.956 160.616 111.378 162.373C98.8263 164.675 90.5692 172.605 86.9162 176.651C79.1014 185.308 73.7461 192.439 68.6029 201.35C65.059 207.487 61.4423 213.763 58.3709 222.753C54.2212 234.911 48.4176 251.904 55.8205 265.789C58.7162 271.223 63.5445 276.015 68.1364 280.564C73.2009 285.586 76.2784 287.555 80.8401 292.886C84.8383 297.551 87.4857 301.888 89.0971 304.827C90.6177 309.079 92.1079 313.586 93.5195 318.354C94.8038 322.692 95.9184 326.89 96.8877 330.918C97.4087 332.948 98.281 335.844 99.7531 339.151C102.237 344.725 106.459 354.199 116.025 359.167C124.221 363.42 132.557 362.402 136.537 361.596C136.537 361.596 145.019 358.852 151.004 353.115C149.405 351.249 147.151 348.305 145.134 344.331C137.101 328.495 140.723 311.666 141.99 306.747C143.746 299.926 145.297 299.217 146.842 291.317C148.363 283.545 148.096 277.911 148.054 273.701C147.842 251.886 153.312 233.427 155.547 225.903C158.625 215.526 161.92 208.323 162.714 206.608C167.566 196.14 173.007 188.04 177.314 182.364H177.326Z" fill="#C0B4DF"/>
<path d="M68.1363 280.559C71.0866 284.496 74.8546 285.896 80.8399 292.881C84.8382 297.545 87.4856 301.883 89.097 304.821C90.6176 309.074 92.1078 313.581 93.5193 318.348C94.8036 322.686 95.9183 326.884 96.8876 330.913C97.4086 332.942 98.2809 335.838 99.753 339.146C102.237 344.719 106.459 354.194 116.025 359.161C124.221 363.414 132.557 362.396 136.537 361.59C136.537 361.59 145.018 358.846 151.004 353.109C149.404 351.243 147.151 348.299 145.134 344.325C137.101 328.49 140.723 311.66 141.989 306.741C143.746 299.92 145.297 299.211 146.842 291.312C147.236 289.288 147.508 287.422 147.696 285.678C148.338 279.741 148.078 274.24 148.053 273.695C147.696 265.359 149.053 256.569 150.21 249.045C151.113 243.175 152.676 235.227 155.547 225.903C155.547 225.903 139.748 204.603 116.746 199.696C113.59 199.024 111.784 198.642 109.131 198.727C86.8858 199.454 71.2441 231.289 66.5855 252.601C64.6348 261.53 62.1995 272.653 68.1303 280.565L68.1363 280.559Z" fill="#ACECC7"/>
<path d="M69.2026 247.954C70.4808 248.76 75.0728 239.128 86.371 233.027C94.8764 228.429 102.946 228.12 106.284 227.993C130.134 227.078 147.508 246.004 150.228 249.051C150.919 244.956 151.779 240.648 152.845 236.153C153.694 232.567 154.608 229.15 155.559 225.909C149.089 220.96 143.522 216.883 139.239 213.805C131.715 208.402 128.874 206.572 124.821 204.882C120.284 202.986 116.025 201.205 110.439 201.568C104.369 201.968 100.104 204.682 96.403 207.099C93.8526 208.765 87.7462 213.109 79.9616 224.879C73.0737 235.293 67.7971 247.076 69.2026 247.966V247.954Z" fill="#8EC2A7"/>
<path d="M147.624 351.776C141.802 355.75 135.405 360.233 128.014 359.857C122.477 359.579 117.437 356.586 113.372 353C104.878 345.512 99.5474 336.177 96.7789 325.23C94.0104 314.283 93.0108 302.858 85.7231 293.946C82.7001 290.251 78.6534 287.591 75.1276 284.417C69.8026 279.625 64.932 274.246 60.7762 268.406C49.0176 251.879 59.2496 229.114 66.919 212.872C75.0367 195.679 85.196 175.137 104.133 167.903C114.644 163.887 127.008 164.578 137.422 168.546C150.265 173.44 162.648 179.571 175.478 184.557C178.75 185.829 180.167 180.559 176.926 179.299C164.453 174.452 152.385 168.679 139.972 163.723C130.146 159.798 119.157 158.835 108.78 160.9C86.3894 165.365 73.2012 187.228 64.0718 206.22C60.019 214.647 56.1176 223.183 53.4097 232.149C50.1929 242.792 47.9514 255.381 52.8523 265.873C55.221 270.944 59.183 275.518 62.8359 279.692C67.1795 284.659 72.0017 289.015 77.1146 293.153C86.8256 301.016 88.2917 312.738 90.939 324.206C93.9741 337.352 100.056 349.044 110.561 357.743C115.553 361.875 121.435 365.001 128.026 365.31C136.422 365.703 143.741 361.027 150.386 356.483C153.264 354.514 150.544 349.789 147.636 351.776H147.624Z" fill="#5E5573"/>
<path d="M70.4991 280.456C66.0101 261.324 70.9837 243.811 81.0097 227.393C85.4502 220.124 90.6601 212.757 97.8207 207.941C106.708 201.968 116.425 202.628 125.809 207.232C135.192 211.837 144.086 219.688 151.743 227.333C154.227 229.817 158.086 225.964 155.596 223.48C141.753 209.656 120.405 190.985 99.4382 200.75C90.6541 204.84 84.0932 212.739 78.8409 220.645C73.0677 229.338 68.0759 238.68 65.4164 248.821C62.5813 259.616 62.7024 271.072 65.2407 281.909C66.0404 285.326 71.2987 283.878 70.4991 280.462V280.456Z" fill="#5E5573"/>
<path d="M176.187 184.642C176.369 183.921 171.826 182.601 160.025 177.821C147.472 172.732 144.983 171.133 136.241 168.298C127.687 165.523 123.931 165.063 120.763 164.978C113.869 164.796 108.701 166.365 107.653 166.698C98.13 169.697 92.278 175.864 86.2502 182.213C81.5613 187.156 78.4899 191.494 77.1511 193.45C61.6002 216.18 56.5539 243.465 56.5479 243.484C56.5479 243.484 60.5522 228.987 65.647 217.798C74.1342 199.151 86.1473 188.55 89.1884 185.963C96.4943 179.753 102.474 176.9 105.775 175.531C109.422 174.01 114.474 171.963 121.29 171.787C122.544 171.757 126.439 171.714 134.121 173.695C145.485 176.621 147.327 179.366 157.141 182.225C166.549 184.963 175.927 185.66 176.181 184.654V184.642H176.187Z" fill="#DACFF3"/>
<path d="M372.333 180.741C374.963 179.724 378.931 178.155 383.716 176.149C402.278 168.365 405.18 165.778 414.303 163.149C420.785 161.277 428.703 158.993 438.281 160.75C450.833 163.052 459.09 170.982 462.743 175.029C470.558 183.685 475.913 190.816 481.057 199.727C484.6 205.864 488.217 212.14 491.288 221.13C495.438 233.288 501.242 250.281 493.839 264.166C490.943 269.6 486.115 274.392 481.523 278.941C476.458 283.964 473.381 285.932 468.819 291.263C464.821 295.928 462.174 300.266 460.562 303.204C459.042 307.457 457.551 311.964 456.14 316.731C454.856 321.069 453.741 325.267 452.772 329.296C452.251 331.325 451.378 334.221 449.906 337.528C447.422 343.102 443.2 352.577 433.634 357.544C425.438 361.797 417.102 360.779 413.122 359.973C413.122 359.973 404.641 357.229 398.656 351.492C400.255 349.626 402.508 346.682 404.526 342.708C412.559 326.872 408.936 310.043 407.67 305.124C405.913 298.303 404.362 297.594 402.817 289.694C401.297 281.922 401.563 276.288 401.606 272.078C401.818 250.263 396.347 231.804 394.112 224.28C391.035 213.903 387.739 206.7 386.945 204.985C382.093 194.517 376.653 186.418 372.346 180.741H372.333Z" fill="#C0B4DF"/>
<path d="M481.523 278.941C478.572 282.879 474.804 284.278 468.819 291.263C464.821 295.928 462.173 300.265 460.562 303.203C459.041 307.456 457.551 311.963 456.14 316.731C454.855 321.068 453.741 325.267 452.771 329.295C452.25 331.325 451.378 334.22 449.906 337.528C447.422 343.101 443.2 352.576 433.634 357.544C425.438 361.796 417.102 360.779 413.122 359.973C413.122 359.973 404.641 357.229 398.655 351.492C400.255 349.626 402.508 346.682 404.526 342.708C412.558 326.872 408.936 310.043 407.67 305.124C405.913 298.302 404.362 297.594 402.817 289.694C402.423 287.671 402.151 285.805 401.963 284.06C401.321 278.123 401.581 272.622 401.606 272.077C401.963 263.741 400.606 254.951 399.449 247.427C398.546 241.557 396.983 233.609 394.112 224.286C394.112 224.286 409.911 202.986 432.913 198.079C436.07 197.406 437.875 197.025 440.528 197.109C462.773 197.836 478.415 229.671 483.074 250.983C485.024 259.913 487.46 271.035 481.529 278.947H481.523V278.941Z" fill="#ACECC7"/>
<path d="M480.457 246.331C479.179 247.137 474.587 237.504 463.289 231.404C454.783 226.806 446.714 226.497 443.376 226.37C419.526 225.455 402.151 244.38 399.431 247.427C398.741 243.332 397.88 239.025 396.814 234.53C395.966 230.944 395.051 227.527 394.1 224.286C400.57 219.336 406.137 215.259 410.42 212.182C417.944 206.778 420.786 204.949 424.838 203.258C429.376 201.362 433.635 199.581 439.22 199.945C445.29 200.345 449.555 203.059 453.257 205.476C455.807 207.142 461.913 211.485 469.698 223.256C476.586 233.67 481.862 245.452 480.457 246.343V246.331Z" fill="#8EC2A7"/>
<path d="M399.285 354.86C405.501 359.107 412.147 363.377 419.907 363.693C425.795 363.929 431.538 361.669 436.282 358.301C445.435 351.795 452.469 342.284 456.17 331.718C460.065 320.596 459.974 307.498 466.796 297.545C469.994 292.874 474.968 289.797 479.088 286.017C484.485 281.067 489.35 275.5 493.596 269.533C506.385 251.559 496.268 227.266 487.926 209.498C479.312 191.148 468.716 170.363 449.076 161.876C437.772 156.987 423.941 157.036 412.389 161.077C406.464 163.148 400.788 165.965 395.039 168.479C387.672 171.702 380.233 174.756 372.739 177.669C369.504 178.923 370.91 184.2 374.187 182.928C386.097 178.299 397.692 173.017 409.457 168.043C418.623 164.166 428.594 162.627 438.481 164.348C459.563 168.019 471.788 188.58 480.366 206.263C484.128 214.017 487.757 221.85 490.404 230.065C493.542 239.8 496.535 252.05 491.961 261.821C489.75 266.534 486.018 270.775 482.607 274.628C478.476 279.298 473.926 283.485 469.068 287.374C460.132 294.534 457.024 304.615 454.716 315.416C453.323 321.917 451.978 328.538 449.167 334.602C446.586 340.169 442.879 344.931 438.553 349.238C434.579 353.194 429.842 356.732 424.244 357.895C415.921 359.622 408.56 354.612 402.03 350.147C399.128 348.16 396.396 352.885 399.279 354.854L399.285 354.86Z" fill="#5E5573"/>
<path d="M484.419 280.286C486.733 270.418 487.054 260.046 484.94 250.111C482.777 239.958 478.131 230.665 472.678 221.917C467.699 213.921 461.713 206.045 453.62 200.981C443.848 194.874 433.041 195.505 422.785 200.115C411.886 205.016 402.442 213.491 394.064 221.857C391.58 224.341 395.433 228.194 397.917 225.71C410.002 213.642 430.327 194.723 448.852 204.525C456.661 208.656 462.374 215.932 467.063 223.238C472.212 231.259 476.683 239.692 479.07 248.972C481.578 258.72 481.45 269.061 479.161 278.838C478.361 282.249 483.613 283.709 484.419 280.286Z" fill="#5E5573"/>
<path d="M373.473 183.025C373.291 182.304 377.834 180.983 389.635 176.203C402.187 171.114 404.677 169.515 413.419 166.68C421.973 163.905 425.729 163.445 428.897 163.36C435.791 163.178 440.959 164.748 442.007 165.081C451.53 168.079 457.382 174.246 463.41 180.595C468.099 185.539 471.17 189.876 472.509 191.833C488.06 214.562 493.106 241.848 493.112 241.866C493.112 241.866 489.108 227.369 484.013 216.18C475.526 197.533 463.513 186.932 460.471 184.345C453.166 178.136 447.186 175.282 443.885 173.913C440.238 172.393 435.185 170.345 428.37 170.169C427.116 170.139 423.221 170.097 415.539 172.078C404.174 175.004 402.333 177.748 392.519 180.607C383.111 183.346 373.733 184.042 373.479 183.037V183.025H373.473Z" fill="#DACFF3"/>
<path d="M210.56 385.901C210.56 385.901 197.748 400.095 196.809 417.04C196.809 417.04 156.184 418.978 159.57 444.628C159.637 446.094 160.945 469.017 175.89 475.651C182.718 478.686 190.163 477.329 197.493 475.99C207.125 474.233 214.425 470.629 218.866 468.024C224.07 469.114 232.072 470.617 241.929 471.755C265.082 474.427 283.638 473.246 304.235 472.095C311.899 471.665 322.058 470.913 334.022 469.49C341.643 473.458 348.398 475.402 353.166 476.432C360.756 478.068 366.106 479.219 372.327 477.129C379.809 474.621 384.013 468.951 385.637 466.709C393.367 455.999 395.754 438.2 387.248 428.774C382.789 423.837 376.047 421.989 367.965 419.778C362.962 418.409 358.66 417.839 355.625 417.579C355.359 413.768 354.711 409.158 353.287 404.063C351.373 397.212 348.677 391.723 346.314 387.725C341.74 389.494 335.313 391.723 327.45 393.631C308.724 398.175 293.888 397.957 281.457 397.69C261.024 397.254 245.551 394.183 235.653 392.171C225.421 390.093 216.879 387.779 210.566 385.901H210.56Z" fill="#A394C5"/>
<path d="M208.779 385.483C206.308 389.742 203.654 395.067 201.407 401.41C199.456 406.898 198.232 411.957 197.445 416.318C194.04 417.415 188.909 418.972 182.542 420.517C173.473 422.716 170.747 422.74 167.518 425.103C161.4 429.579 160.164 437.564 159.613 441.138C157.722 453.375 162.811 467.26 173.128 474.463C175.103 475.844 179.598 478.898 185.819 479.285C187.176 479.37 190.06 479.419 199.935 476.002C210.239 472.44 211.324 470.919 216.752 469.708C223.143 468.278 228.086 468.938 232.86 469.496C232.86 469.496 253.36 471.864 275.853 472.428C286.982 472.706 296.778 472.949 309.875 471.283C321.773 469.762 327.104 467.854 335.973 470.138C341.825 471.646 343.903 473.615 352.936 475.941C361.253 478.086 365.409 479.158 369.462 478.437C382.523 476.129 392.937 458.561 392.191 443.174C392.028 439.799 391.695 432.905 386.872 427.489C381.729 421.71 373.557 419.953 365.409 418.202C365.409 418.202 365.136 418.142 354.717 416.143C354.874 412.914 354.735 407.346 352.354 400.998C350.076 394.922 346.726 390.76 344.551 388.433" stroke="#5E5573" stroke-width="4.2406" stroke-linecap="round" stroke-linejoin="round"/>
<path d="M388.236 455.776C392.718 441.224 389.231 427.234 380.448 424.529C371.664 421.823 360.91 431.427 356.428 445.979C351.946 460.53 355.432 474.52 364.216 477.226C372.999 479.931 383.754 470.328 388.236 455.776Z" fill="#DACFF3"/>
<path d="M186.871 477.801C195.655 475.095 199.141 461.105 194.659 446.553C190.177 432.002 179.423 422.398 170.639 425.104C161.856 427.809 158.369 441.799 162.851 456.351C167.334 470.903 178.088 480.506 186.871 477.801Z" fill="#DACFF3"/>
<path d="M171.977 423.733C184.311 425.23 192.41 436.54 196.027 447.602C198.953 456.089 200.195 466.479 194.361 474.075C192.447 476.577 189.733 478.395 186.855 479.158C186.758 479.182 186.655 479.128 186.631 479.031C186.613 478.952 186.643 478.873 186.704 478.831C189.091 477.135 190.987 475.057 192.235 472.67C194.779 467.793 194.925 462.171 194.616 456.743C194.07 448.329 190.993 440.017 185.928 433.244C182.5 428.689 177.526 425.375 171.922 424.097C171.825 424.073 171.765 423.976 171.789 423.879C171.813 423.788 171.898 423.727 171.989 423.739H171.977V423.733Z" fill="#5E5573"/>
<path d="M379.961 423.739C368.293 426.023 361.314 437.031 358.188 447.699C356.171 454.944 355.371 465.097 358.764 471.937C359.969 474.348 361.823 476.462 364.179 478.195C364.264 478.255 364.276 478.37 364.216 478.455C364.167 478.516 364.089 478.546 364.016 478.522C361.15 477.704 358.467 475.844 356.601 473.306C350.906 465.606 352.336 455.241 355.42 446.808C357.401 441.168 360.369 435.873 364.41 431.445C368.444 427.065 373.957 424.03 379.894 423.382C379.991 423.37 380.082 423.442 380.094 423.539C380.106 423.636 380.039 423.721 379.948 423.739H379.961Z" fill="#5E5573"/>
<path d="M175.515 423.049C175.975 422.715 180.918 419.214 185.51 421.268C186.286 421.613 189.218 422.921 189.387 425.629C189.509 427.507 188.249 429.41 186.213 430.439C184.596 428.943 182.609 427.32 180.216 425.751C178.568 424.666 176.981 423.782 175.515 423.049Z" fill="white" stroke="#5E5573" stroke-width="3.6348" stroke-miterlimit="10"/>
<path d="M187.758 431.736C190.86 429.44 194.93 429.785 197.16 432.039C199.444 434.347 198.88 437.739 198.844 437.945C198.178 441.58 194.7 442.749 194.464 442.822C193.592 440.823 192.441 438.551 190.908 436.146C189.854 434.486 188.782 433.02 187.758 431.742V431.736Z" fill="white" stroke="#5E5573" stroke-width="3.6348" stroke-miterlimit="10"/>
<path d="M377.113 422.025C376.658 421.686 371.745 418.142 367.129 420.147C366.348 420.486 363.403 421.77 363.21 424.472C363.076 426.35 364.312 428.258 366.341 429.313C367.971 427.834 369.976 426.229 372.381 424.684C374.041 423.618 375.641 422.746 377.113 422.025Z" fill="white" stroke="#5E5573" stroke-width="3.6348" stroke-miterlimit="10"/>
<path d="M364.791 430.591C361.713 428.265 357.636 428.574 355.389 430.803C353.081 433.093 353.614 436.485 353.65 436.691C354.28 440.332 357.751 441.532 357.982 441.604C358.89 439.587 360.066 437.327 361.598 434.965C362.664 433.323 363.749 431.869 364.791 430.591Z" fill="white" stroke="#5E5573" stroke-width="3.6348" stroke-miterlimit="10"/>
<path d="M190.587 174.707C202.552 166.789 208.531 162.827 214.656 159.84C237.331 148.779 257.837 151.196 259.945 141.981C260.339 140.267 260.442 136.626 260.963 136.62C261.575 136.608 261.345 141.612 264.246 143.236C265.349 143.853 266.494 143.756 266.742 143.726C268.681 143.514 269.856 141.975 270.147 141.563C271.54 139.595 270.516 138.135 271.237 135.154C272.019 131.925 274.266 129.308 274.945 129.563C276.175 130.017 271.825 139.686 275.448 142.793C276.659 143.829 278.489 143.908 279.694 143.611C281.887 143.072 282.348 141.224 285.492 137.935C287.055 136.299 289.714 133.518 290.744 134.064C292.144 134.809 288.497 140.618 290.562 144.871C292.301 148.445 297.438 149.578 301.745 149.954C306.543 150.596 313.898 151.917 322.464 154.915C325.117 155.842 332.714 158.623 351.809 170.018C357.6 173.471 365.542 178.372 374.847 184.642C371.509 180.444 366.821 175.185 360.575 169.836C356.286 166.165 348.435 160.022 337.318 154.618C337.318 154.618 325.644 148.948 312.189 145.992C308.094 145.089 306.047 144.641 304.478 144.599C302.824 144.556 301.491 144.689 299.68 144.053C298.22 143.538 296.572 142.563 295.772 141.509C293.779 138.862 295.209 133.113 299.964 128.036C299.964 128.036 287.903 126.794 279.488 139.928C280.336 124.213 278.622 120.391 276.841 119.912C274.388 119.258 269.741 124.413 268.105 129.381C267.257 131.955 266.458 136.79 266.458 136.79C266.458 136.79 265.313 133.724 263.653 131.362C263.223 130.75 262.15 129.217 260.545 128.072C257.322 125.77 253.463 126.073 251.834 126.303C252.742 127.036 255.105 129.139 255.923 132.689C256.165 133.724 256.971 137.22 255.032 139.922C253.869 141.551 252.246 142.084 249.053 143.09C245.079 144.344 243.201 144.181 237.137 145.362C237.137 145.362 235.38 145.701 232.43 146.386C223.167 148.53 214.492 153.049 210.324 155.255C201.982 159.659 196.336 163.833 194.828 164.966C191.659 167.34 188.176 169.976 184.226 174.198C180.549 178.124 177.938 181.843 176.193 184.648C179.665 182.152 184.59 178.687 190.593 174.713H190.587V174.707Z" fill="#DACFF3"/>
<path d="M177.314 182.364C180.61 177.912 185.032 172.859 190.878 168.025C196.07 163.724 200.486 161.167 205.356 158.344C212.838 154.007 218.763 151.517 223.288 149.633C227.238 147.985 229.77 147.113 232.436 146.392C235.089 145.671 235.889 145.635 240.887 144.653C252.9 142.291 254.348 141.297 255.244 139.904C256.989 137.202 256.177 133.737 255.929 132.689C255.062 129.005 252.615 126.915 251.84 126.304C252.948 126.134 256.807 125.692 260.551 128.072C266.033 131.556 266.385 138.014 266.403 138.625C266.397 136.323 266.688 131.398 269.632 126.158C272.249 121.506 275.708 118.816 277.598 117.556C278.446 119.949 279.313 123.135 279.67 126.958C280.106 131.647 279.622 135.609 279.052 138.42C280.276 136.408 283.232 132.168 288.757 129.193C293.428 126.679 297.759 126.237 300.067 126.164C294.088 135.342 294.294 139.534 295.687 141.661C297.547 144.496 301.715 143.944 310.105 145.441C316.763 146.628 321.264 148.246 328.213 150.741C330.424 151.535 341.419 155.582 353.874 164.396C359.133 168.122 365.694 173.435 372.357 180.741" stroke="#5E5573" stroke-width="3.6348" stroke-linecap="round" stroke-linejoin="round"/>
<path d="M171.31 191.276C172.11 189.507 173.085 187.598 173.982 185.872C174.557 184.836 175.345 183.382 175.824 182.31C176.817 180.438 178.265 179.111 180.313 178.148C180.403 178.112 180.506 178.148 180.549 178.239C180.464 180.504 179.683 182.388 178.301 184C176.999 185.327 175.575 187.132 174.315 188.501C173.413 189.488 172.516 190.482 171.565 191.439C171.45 191.56 171.244 191.421 171.316 191.27H171.31V191.276Z" fill="#5E5573"/>
<path d="M377.84 189.573C376.477 188.192 375.047 186.593 373.756 185.133C372.993 184.224 371.927 182.964 371.103 182.128C369.71 180.529 369.001 178.699 368.837 176.445C368.837 176.348 368.91 176.264 369.007 176.258C371.091 177.154 372.569 178.56 373.569 180.432C374.338 182.122 375.507 184.103 376.331 185.775C376.931 186.974 377.531 188.168 378.082 189.397C378.155 189.543 377.943 189.694 377.834 189.567L377.84 189.573Z" fill="#5E5573"/>
<path d="M361.713 365.746C365.003 363.432 368.074 362.317 368.407 362.19C371.448 361.07 380.596 356.102 406.809 339.685C405.282 342.532 403.798 344.943 402.52 346.876C400.739 349.571 398.588 352.516 396.008 355.563C394.79 356.999 393.651 358.259 392.621 359.343C379.451 373.264 365.087 379.607 353.862 384.429C347.44 387.192 340.898 389.276 339.226 389.803C339.177 389.821 338.953 389.948 338.911 389.9C338.723 389.663 343.788 386.065 348.955 380.607C352.426 376.941 354.407 374.845 355.934 372.131C356.225 371.61 356.921 370.332 358.193 368.866C359.284 367.606 360.441 366.637 361.713 365.74V365.746Z" fill="#A394C5"/>
<path d="M143.256 332.451C150.859 339.369 162.399 348.59 178.059 356.726C189.327 362.584 198.559 365.71 204.363 367.648C204.363 367.648 216.867 371.828 256.48 379.279C256.48 379.279 259.067 381.533 259.152 381.612C267.275 388.675 298.28 399.489 288.188 395.745C288.188 395.745 275.72 395.606 272.067 395.539C262.804 395.363 243.643 395.006 220.926 388.863C215.928 387.512 212.238 386.283 208.61 385.071C201.449 382.684 190.611 378.716 177.508 372.349C170.347 368.872 167.294 366.97 164.507 364.922C160.261 361.796 152.058 355.623 146.945 344.549C144.716 339.721 143.734 335.395 143.256 332.457V332.451Z" fill="#A394C5"/>
<path d="M224.112 344.344C224.112 344.344 232.696 347.391 235.652 339.964" stroke="#5E5573" stroke-width="3.029" stroke-miterlimit="10" stroke-linecap="round"/>
<path d="M235.653 332.87C234.689 390.045 325.505 423.237 358.194 368.872C369.256 360.906 367.766 344.119 352.505 349.511C348.38 349.033 344.769 340.763 340.274 342.956C334.416 344.029 333.714 352.607 334.822 359.101C319.447 364.965 312.607 345.701 315.327 332.876" stroke="#5E5573" stroke-width="3.6348" stroke-linecap="round" stroke-linejoin="round"/>
<path d="M255.632 303.652C265.337 296.467 280.488 294.062 291.18 300.423C292.731 301.338 294.197 302.392 295.469 303.652C295.518 303.7 295.518 303.779 295.469 303.828C292.167 302.713 289.102 301.289 285.558 300.484C275.163 297.461 265.215 298.369 255.759 303.858C255.638 303.937 255.498 303.743 255.626 303.658L255.632 303.652Z" fill="#5E5573"/>
<path d="M255.068 317.149C262.61 311.521 267.227 309.789 276.707 309.504C282.614 309.195 288.787 309.874 293.93 313.036C295.645 314.047 297.232 315.271 298.553 316.743C298.607 316.81 298.607 316.907 298.54 316.961C298.492 317.004 298.431 317.01 298.377 316.986C296.572 316.234 294.821 315.55 293.052 314.974C291.289 314.387 289.496 313.951 287.697 313.569C282.244 312.363 276.671 311.576 271.061 311.982C269.177 312.073 267.342 312.248 265.561 312.739C261.956 313.654 258.594 315.568 255.238 317.404C255.165 317.446 255.074 317.416 255.032 317.343C254.995 317.276 255.014 317.192 255.074 317.149H255.068Z" fill="#5E5573"/>
<path d="M260.89 334.856C262.398 334.135 263.477 332.797 264.828 331.791C266.179 330.719 267.632 329.756 269.159 328.907C273.824 326.327 279.161 325.176 284.48 325.042C289.835 325.024 295.293 327.405 298.746 331.518C298.874 331.676 298.722 331.93 298.522 331.876C295.705 331.264 291.634 330.319 288.854 329.937L284.207 329.228C277.834 328.193 271.195 329.804 265.555 332.869C264.064 333.663 262.713 334.826 261.023 335.25C260.787 335.311 260.648 334.947 260.884 334.85L260.89 334.856Z" fill="#5E5573"/>
<path d="M270.844 353.618C273.673 347.894 279.252 343.635 285.334 341.733C286.891 341.242 288.478 340.8 290.108 340.509C293.349 339.927 296.711 340.454 299.752 341.63C301.267 342.229 302.709 342.999 303.993 344.059C304.15 344.186 304.066 344.459 303.86 344.465C299.298 344.616 294.979 344.646 290.484 344.689C283.111 344.592 275.854 348.075 271.201 353.843C271.062 354.036 270.722 353.843 270.844 353.618Z" fill="#5E5573"/>
<path d="M303.466 367.703C301.63 363.693 308.197 355.975 312.044 355.145C313.922 354.745 315.909 354.854 317.593 355.933C317.714 356.011 317.75 356.169 317.672 356.29C316.284 357.471 314.97 358.253 313.528 359.119C312.286 359.919 310.79 360.119 309.517 360.87C307.409 362.203 303.829 364.886 303.871 367.6C303.896 367.83 303.55 367.915 303.466 367.709V367.703Z" fill="#5E5573"/>
<path d="M327.274 371.405C326.916 369.696 326.22 368.158 326.026 366.401C325.905 365.401 325.668 364.262 326.335 363.354C326.989 362.384 328.225 361.627 329.461 362.033C329.588 362.075 329.661 362.196 329.648 362.324C329.533 363.584 329.709 364.177 329.673 364.783C329.667 365.08 329.576 365.341 329.394 365.619C328.952 366.219 328.806 366.94 328.673 367.685C328.564 368.055 327.849 372.368 327.268 371.405H327.274Z" fill="#5E5573"/>
<path d="M161.733 210.467C155.59 226.545 151.362 243.508 150.423 260.725C150.077 268.133 151.543 275.567 150.483 282.97C149.908 287.919 149.029 292.85 147.454 297.594C146.661 299.962 145.806 302.246 145.213 304.597C144.601 306.947 144.189 309.352 143.88 311.775C142.911 319.069 142.129 326.381 143.183 333.657C145.019 347.021 152.603 354.854 162.987 362.657C191.69 383.635 239.366 393.601 274.581 395.267C284.377 395.697 294.209 396.109 303.975 395.394C323.427 393.952 342.443 388.227 359.811 379.431C368.365 374.96 377.234 370.556 384.649 364.353C390.089 359.64 395.329 354.502 399.564 348.699C403.677 342.98 406.567 336.347 407.082 329.271C407.724 320.317 406.076 311.145 403.689 302.488L403.453 301.604L403.332 301.162L403.271 300.944C403.271 300.901 403.169 300.671 403.326 301.016L403.205 300.695C400.982 293.165 398.922 285.053 399.552 277.081C400.963 260.367 398.704 243.508 394.996 227.2L394.857 226.63C394.814 226.43 394.76 226.315 394.693 225.903L394.73 226.097C393.433 222.238 390.847 214.338 389.58 210.455C389.544 210.346 389.605 210.225 389.714 210.189C389.823 210.152 389.938 210.207 389.98 210.316C391.47 214.163 394.384 221.85 395.838 225.703L395.875 225.897C395.911 225.861 395.959 226.133 396.02 226.309L396.184 226.878C399.055 237.129 401.066 247.639 402.06 258.241C402.466 262.984 402.75 267.715 402.635 272.495C402.569 275.615 402.248 278.674 402.514 281.758C402.775 284.775 403.271 287.846 403.974 290.79C404.731 293.789 406.082 298.187 406.688 300.198C407.682 303.627 408.651 307.123 409.432 310.606C411.22 319.318 412.092 328.52 409.778 337.231C407.082 347.227 400.339 355.49 393.033 362.541C391.283 364.274 389.35 366.097 387.472 367.673C379.736 374.239 370.722 378.692 361.774 383.266C343.885 392.207 324.239 397.817 304.253 399.077C294.3 399.695 284.353 399.156 274.436 398.617C238.688 396.599 190.593 386.071 161.624 364.48C150.871 356.247 143.062 347.942 141.299 333.899C140.3 326.448 141.196 318.863 142.262 311.521C142.608 309.055 143.062 306.59 143.722 304.166C144.371 301.737 145.279 299.393 146.079 297.091C147.678 292.468 148.599 287.634 149.217 282.788C150.35 275.439 148.981 268.043 149.417 260.652C150.568 243.362 155.014 226.357 161.381 210.286C161.424 210.177 161.551 210.122 161.66 210.171C161.769 210.213 161.818 210.334 161.781 210.443L161.733 210.467Z" fill="#5E5573"/>
<path d="M389.471 210.31C396.099 226.709 400.115 244.125 401.775 261.73C402.35 267.582 401.957 273.537 402.211 279.377C402.805 288.1 404.683 296.757 407.724 304.96C408.766 307.741 409.826 310.588 410.286 313.556C410.747 316.561 410.735 319.572 410.547 322.558C409.766 334.596 404.277 345.742 397.286 355.356C391.967 362.565 385.17 368.678 377.604 373.458C370.092 378.298 362.059 382.024 354.032 385.828C340.529 392.044 326.044 395.969 311.341 398.017C299.601 399.725 287.594 399.434 275.817 398.762C264.004 398.186 252.197 396.981 240.529 394.994C220.059 391.668 199.989 385.519 181.124 376.838C172.97 373.131 164.901 368.793 158.037 362.965C153.948 359.761 149.841 355.793 147.109 351.207C139.869 339.363 138.518 324.697 141.257 311.309C142.456 306.281 143.789 301.222 145.321 296.297C147.036 290.79 148.296 285.156 148.423 279.438C147.399 261.712 149.865 243.895 154.657 226.836C156.286 221.202 157.777 215.332 160.872 210.273C160.933 210.176 161.066 210.146 161.163 210.207C161.26 210.267 161.284 210.394 161.23 210.491C160.509 211.751 159.933 213.096 159.418 214.465C156.081 224.14 154.112 234.299 152.603 244.416C151.355 253.085 150.64 261.851 150.877 270.593C150.955 273.561 151.307 276.415 151.386 279.425C151.434 282.509 151.083 285.502 150.64 288.476C149.356 295.818 146.812 302.706 145.346 309.976C142.238 323.6 143.728 339.079 151.888 350.68C154.318 354.224 157.347 356.865 160.782 359.609C165.216 363.335 170.032 366.334 175.163 369.011C201.061 382.472 229.558 390.535 258.54 393.837C275.926 395.588 293.561 397.175 310.959 394.958C325.384 393.086 339.644 389.36 352.929 383.387C360.871 379.716 368.935 376.057 376.313 371.392C383.692 366.818 390.313 360.978 395.535 354.036C402.387 344.761 407.881 334.056 408.766 322.407C408.978 319.529 409.026 316.622 408.627 313.799C408.203 310.933 407.233 308.219 406.246 305.487C403.253 297.121 401.448 288.3 400.957 279.425C400.769 273.513 401.236 267.685 400.733 261.797C400.279 255.957 399.491 250.129 398.492 244.35C396.498 232.779 393.354 221.408 389.096 210.449C389.053 210.34 389.108 210.219 389.217 210.176C389.326 210.134 389.447 210.188 389.489 210.298L389.471 210.31Z" fill="#5E5573"/>
<path d="M46 427.282C117.988 436.437 196.969 442.244 281.996 442.229C361.167 442.216 435.09 437.147 503.001 429.04C454.523 501.856 370.551 550 275.08 550C178.844 550 94.2906 501.081 46 427.282Z" fill="#ACECC7"/>
<path d="M208.597 405.941C207.864 414.313 207.58 424.151 208.367 435.122C209.839 455.55 211.087 472.385 222.367 479.303C227.807 482.641 234.332 482.829 239.015 482.968C247.72 483.223 254.608 480.951 258.564 479.303C259.291 478.825 260.284 478.037 261.114 476.819C263.81 472.845 262.247 467.926 261.132 461.499C261.132 461.499 260.617 458.512 259.793 447.396C259.418 442.319 259.363 434.91 261.084 425.587C262.629 426.859 267.124 430.197 273.775 430.597C282.045 431.094 287.769 426.677 289.114 425.587C289.871 428.658 290.532 432.305 290.829 436.431C291.029 439.223 291.029 441.804 290.92 444.124C290.229 451.364 289.684 457.44 289.29 461.965C288.363 472.609 288.206 475.39 290.144 478.001C292.816 481.593 297.426 482.138 304.877 483.011C308.821 483.471 316.048 484.234 324.329 480.963C327.728 479.618 330.339 477.976 332.096 476.704C332.635 475.535 333.392 473.845 334.228 471.791C335.282 469.198 339.735 457.997 342.031 442.259C344.109 428.004 343.648 415.282 342.516 405.408C338.487 405.196 333.84 405.238 328.74 405.807C319.459 406.843 311.783 409.273 306.065 411.623C293.046 417.336 282.105 418.008 275.496 417.814C265.809 417.53 257.946 415.167 254.487 414.101C240.559 409.812 237.143 404.717 226.705 403.542C219.09 402.688 212.656 404.444 208.597 405.941Z" fill="#C0B4DF"/>
<path d="M311.79 481.781C322.476 481.987 330.206 478.758 334.059 468.29C335.41 464.722 336.046 460.905 336.918 457.192C339.299 446.887 339.741 436.286 340.474 425.769C340.584 423.818 340.868 419.063 340.995 417.082C341.244 413.211 341.486 409.315 341.953 405.408L342.377 405.39C344.449 416.979 345.309 428.889 343.625 440.587C342.262 449.335 340.099 457.973 337.415 466.4C335.943 470.665 333.696 474.911 330.17 477.819C325.172 482.169 318.042 482.872 311.766 482.193L311.79 481.769V481.781Z" fill="#5E5573"/>
<path d="M289.109 424.127C292.428 437.315 291.047 451.006 290.205 464.407C290.084 467.096 289.69 469.853 289.89 472.44C291.792 477.431 298.723 479.055 303.593 479.491C306.798 479.794 310.051 479.788 313.292 479.685C318.532 479.643 323.991 479.17 328.286 476.153C331.708 473.821 334.313 470.216 335.961 466.061L336.373 466.164C335.701 473.288 330.709 479.842 323.906 482.235C320.58 483.495 316.975 483.865 313.48 484.059C310.015 484.259 306.537 484.186 303.072 483.659C298.341 482.865 293.495 481.49 289.854 478.055C288.436 476.614 287.049 474.972 286.764 472.852C286.613 469.853 287.206 467.024 287.461 464.152C288.363 455.302 289.702 446.402 289.781 437.509C289.751 433.069 289.381 428.616 288.691 424.206L289.109 424.127Z" fill="#5E5573"/>
<path d="M239.015 482.199C226.172 483.574 217.594 478.879 213.365 466.406C210.681 457.979 208.513 449.341 207.156 440.593C205.472 428.895 206.332 416.985 208.404 405.396L208.828 405.414C209.3 409.321 209.536 413.211 209.785 417.088C209.906 419.099 210.203 423.854 210.306 425.775C210.954 434.383 211.233 443.016 212.747 451.527C213.395 455.211 214.31 459.239 215.14 462.856C215.407 464.14 215.843 465.721 216.249 466.969C216.4 467.375 216.818 468.55 216.964 468.956C217.6 470.404 218.315 471.979 219.211 473.276C221.192 476.444 224.185 478.843 227.686 480.182C231.236 481.46 235.132 481.854 238.997 481.787L239.021 482.211V482.199H239.015Z" fill="#5E5573"/>
<path d="M262.09 424.206C261.399 428.616 261.03 433.075 260.999 437.509C261.078 446.402 262.423 455.302 263.32 464.152C263.574 467.024 264.168 469.853 264.016 472.852C263.731 474.972 262.344 476.614 260.927 478.055C257.292 481.49 252.439 482.865 247.708 483.659C244.243 484.186 240.766 484.265 237.3 484.059C233.805 483.865 230.2 483.495 226.875 482.235C220.071 479.843 215.074 473.288 214.407 466.164L214.819 466.061C216.467 470.216 219.072 473.821 222.495 476.153C226.79 479.176 232.248 479.643 237.488 479.685C240.729 479.788 243.982 479.794 247.187 479.491C252.058 479.055 258.994 477.425 260.89 472.44C261.09 469.853 260.696 467.096 260.575 464.407C259.733 451.012 258.358 437.315 261.672 424.127L262.09 424.206Z" fill="#5E5573"/>
<path d="M219.235 473.615C219.235 473.615 231.969 462.347 232.121 480.303C232.121 480.303 222.367 480.46 219.235 473.615Z" fill="white" stroke="#5E5573" stroke-width="3.6348" stroke-miterlimit="10"/>
<path d="M234.283 479.842C234.283 479.842 240.317 463.94 248.798 479.776C248.798 479.776 240.238 484.452 234.283 479.842Z" fill="white" stroke="#5E5573" stroke-width="3.6348" stroke-miterlimit="10"/>
<path d="M261.683 473.615C261.683 473.615 248.949 462.347 248.798 480.303C248.798 480.303 258.551 480.46 261.683 473.615Z" fill="white" stroke="#5E5573" stroke-width="3.6348" stroke-miterlimit="10"/>
<path d="M331.92 473.366C331.92 473.366 319.186 462.099 319.035 480.054C319.035 480.054 328.788 480.212 331.92 473.366Z" fill="white" stroke="#5E5573" stroke-width="3.6348" stroke-miterlimit="10"/>
<path d="M316.878 479.588C316.878 479.588 310.844 463.686 302.363 479.521C302.363 479.521 310.923 484.198 316.878 479.588Z" fill="white" stroke="#5E5573" stroke-width="3.6348" stroke-miterlimit="10"/>
<path d="M289.478 473.366C289.478 473.366 302.211 462.099 302.363 480.054C302.363 480.054 292.61 480.212 289.478 473.366Z" fill="white" stroke="#5E5573" stroke-width="3.6348" stroke-miterlimit="10"/>
</svg>
