<svg width="113" height="114" viewBox="0 0 113 114" fill="none" xmlns="http://www.w3.org/2000/svg">
<circle cx="50.0004" cy="64" r="50" fill="#D9D9D9"/>
<path d="M14.2865 98.5726L86.0008 29.4297" stroke="black" stroke-width="0.285714"/>
<path d="M86.0004 98.5726L14.2861 29.4297" stroke="black" stroke-width="0.285714"/>
<path d="M14.6473 58.784C14.7966 58.784 14.9139 58.8267 14.9993 58.912C15.0953 58.9973 15.1433 59.104 15.1433 59.232C15.1433 59.3067 15.1273 59.3867 15.0953 59.472L10.8233 69.68C10.7699 69.7867 10.7006 69.8667 10.6153 69.92C10.5299 69.9733 10.4446 70 10.3593 70C10.2633 70 10.1726 69.9733 10.0873 69.92C10.0019 69.8667 9.94328 69.792 9.91128 69.696L5.65528 59.504C5.64461 59.472 5.63395 59.4347 5.62328 59.392C5.61261 59.3493 5.60728 59.3013 5.60728 59.248C5.60728 59.1093 5.65528 58.9973 5.75128 58.912C5.85795 58.8267 5.96461 58.784 6.07128 58.784C6.29528 58.784 6.45528 58.9013 6.55128 59.136L10.5513 68.704H10.2633L14.1993 59.104C14.3059 58.8907 14.4553 58.784 14.6473 58.784ZM17.8799 69.52C17.8799 69.648 17.8319 69.76 17.7359 69.856C17.6399 69.952 17.5279 70 17.3999 70C17.2612 70 17.1439 69.952 17.0479 69.856C16.9626 69.76 16.9199 69.648 16.9199 69.52V62.16C16.9199 62.032 16.9626 61.92 17.0479 61.824C17.1439 61.728 17.2612 61.68 17.3999 61.68C17.5386 61.68 17.6506 61.728 17.7359 61.824C17.8319 61.92 17.8799 62.032 17.8799 62.16V69.52ZM17.3999 60.608C17.1759 60.608 17.0052 60.56 16.8879 60.464C16.7812 60.3573 16.7279 60.208 16.7279 60.016V59.856C16.7279 59.664 16.7866 59.52 16.9039 59.424C17.0319 59.3173 17.2026 59.264 17.4159 59.264C17.6186 59.264 17.7732 59.3173 17.8799 59.424C17.9972 59.52 18.0559 59.664 18.0559 59.856V60.016C18.0559 60.208 17.9972 60.3573 17.8799 60.464C17.7732 60.56 17.6132 60.608 17.3999 60.608ZM19.9098 68.704C19.8244 68.576 19.7818 68.4533 19.7818 68.336C19.7924 68.208 19.8618 68.1067 19.9898 68.032C20.0751 67.9573 20.1711 67.9253 20.2778 67.936C20.3951 67.9467 20.5018 68 20.5978 68.096C20.8858 68.4693 21.2324 68.7733 21.6378 69.008C22.0538 69.232 22.5444 69.344 23.1098 69.344C23.4084 69.344 23.7018 69.296 23.9898 69.2C24.2884 69.0933 24.5338 68.9387 24.7258 68.736C24.9178 68.5227 25.0138 68.256 25.0138 67.936C25.0138 67.6053 24.9178 67.3387 24.7258 67.136C24.5338 66.9333 24.2831 66.7733 23.9738 66.656C23.6751 66.5387 23.3551 66.4373 23.0138 66.352C22.6511 66.256 22.2991 66.1493 21.9578 66.032C21.6164 65.904 21.3124 65.7493 21.0458 65.568C20.7898 65.376 20.5818 65.1467 20.4218 64.88C20.2618 64.6133 20.1818 64.288 20.1818 63.904C20.1818 63.456 20.3044 63.0613 20.5498 62.72C20.7951 62.3787 21.1258 62.112 21.5418 61.92C21.9684 61.728 22.4484 61.632 22.9818 61.632C23.2484 61.632 23.5364 61.6693 23.8458 61.744C24.1551 61.808 24.4591 61.92 24.7578 62.08C25.0564 62.24 25.3231 62.4587 25.5578 62.736C25.6538 62.832 25.7018 62.944 25.7018 63.072C25.7018 63.1893 25.6484 63.296 25.5418 63.392C25.4564 63.456 25.3551 63.488 25.2378 63.488C25.1311 63.488 25.0404 63.4453 24.9658 63.36C24.7098 63.072 24.4058 62.8533 24.0538 62.704C23.7018 62.5547 23.3231 62.48 22.9178 62.48C22.6084 62.48 22.3151 62.5333 22.0378 62.64C21.7711 62.736 21.5471 62.8853 21.3658 63.088C21.1844 63.2907 21.0938 63.5573 21.0938 63.888C21.1151 64.1973 21.2218 64.448 21.4138 64.64C21.6164 64.832 21.8778 64.992 22.1978 65.12C22.5284 65.248 22.8964 65.3653 23.3018 65.472C23.6431 65.5573 23.9684 65.6587 24.2778 65.776C24.5978 65.8933 24.8751 66.0427 25.1098 66.224C25.3551 66.3947 25.5471 66.6133 25.6858 66.88C25.8351 67.1467 25.9098 67.4827 25.9098 67.888C25.9098 68.3573 25.7764 68.7627 25.5098 69.104C25.2538 69.4453 24.9071 69.7067 24.4698 69.888C24.0324 70.0693 23.5471 70.16 23.0138 70.16C22.4378 70.16 21.8778 70.048 21.3338 69.824C20.8004 69.6 20.3258 69.2267 19.9098 68.704ZM33.9858 61.872C34.1244 61.872 34.2364 61.92 34.3218 62.016C34.4178 62.112 34.4658 62.224 34.4658 62.352V66.864C34.4658 67.92 34.1671 68.7253 33.5698 69.28C32.9724 69.8347 32.1671 70.112 31.1538 70.112C30.1511 70.112 29.3511 69.8347 28.7538 69.28C28.1671 68.7253 27.8738 67.92 27.8738 66.864V62.352C27.8738 62.224 27.9164 62.112 28.0018 62.016C28.0978 61.92 28.2151 61.872 28.3538 61.872C28.4924 61.872 28.6044 61.92 28.6898 62.016C28.7858 62.112 28.8338 62.224 28.8338 62.352V66.864C28.8338 67.632 29.0364 68.2187 29.4418 68.624C29.8578 69.0187 30.4284 69.216 31.1538 69.216C31.8898 69.216 32.4658 69.0187 32.8818 68.624C33.2978 68.2187 33.5058 67.632 33.5058 66.864V62.352C33.5058 62.224 33.5484 62.112 33.6338 62.016C33.7191 61.92 33.8364 61.872 33.9858 61.872ZM43.6872 61.824C43.8258 61.824 43.9378 61.872 44.0232 61.968C44.1192 62.064 44.1672 62.1813 44.1672 62.32V69.52C44.1672 69.648 44.1192 69.76 44.0232 69.856C43.9272 69.952 43.8152 70 43.6872 70C43.5485 70 43.4312 69.952 43.3352 69.856C43.2498 69.76 43.2072 69.648 43.2072 69.52V67.616L43.4792 67.488C43.4792 67.7867 43.3938 68.0907 43.2232 68.4C43.0632 68.7093 42.8392 68.9973 42.5512 69.264C42.2632 69.5307 41.9218 69.7493 41.5272 69.92C41.1432 70.08 40.7272 70.16 40.2792 70.16C39.5538 70.16 38.9032 69.9733 38.3272 69.6C37.7618 69.2267 37.3138 68.7147 36.9832 68.064C36.6632 67.4133 36.5032 66.6827 36.5032 65.872C36.5032 65.04 36.6685 64.3093 36.9992 63.68C37.3298 63.04 37.7778 62.5387 38.3432 62.176C38.9085 61.8133 39.5485 61.632 40.2632 61.632C40.7218 61.632 41.1485 61.712 41.5432 61.872C41.9485 62.032 42.3005 62.2507 42.5992 62.528C42.8978 62.8053 43.1272 63.1253 43.2872 63.488C43.4578 63.84 43.5432 64.208 43.5432 64.592L43.2072 64.352V62.32C43.2072 62.1813 43.2498 62.064 43.3352 61.968C43.4312 61.872 43.5485 61.824 43.6872 61.824ZM40.3592 69.264C40.9245 69.264 41.4258 69.12 41.8632 68.832C42.3005 68.5333 42.6418 68.128 42.8872 67.616C43.1432 67.0933 43.2712 66.512 43.2712 65.872C43.2712 65.2427 43.1432 64.6773 42.8872 64.176C42.6418 63.6747 42.3005 63.2747 41.8632 62.976C41.4258 62.6773 40.9245 62.528 40.3592 62.528C39.8045 62.528 39.3032 62.672 38.8552 62.96C38.4178 63.248 38.0712 63.6427 37.8152 64.144C37.5698 64.6453 37.4472 65.2213 37.4472 65.872C37.4472 66.512 37.5698 67.0933 37.8152 67.616C38.0712 68.128 38.4178 68.5333 38.8552 68.832C39.2925 69.12 39.7938 69.264 40.3592 69.264ZM47.7423 69.52C47.7423 69.648 47.6943 69.76 47.5983 69.856C47.5023 69.952 47.3903 70 47.2623 70C47.1236 70 47.0063 69.952 46.9103 69.856C46.8249 69.76 46.7823 69.648 46.7823 69.52V58.64C46.7823 58.512 46.8303 58.4 46.9263 58.304C47.0223 58.208 47.1343 58.16 47.2623 58.16C47.4009 58.16 47.5129 58.208 47.5983 58.304C47.6943 58.4 47.7423 58.512 47.7423 58.64V69.52ZM62.9888 70.064C62.8501 70.064 62.7328 70.0053 62.6368 69.888L58.0928 64.176L58.8448 63.424L63.4208 69.216C63.4954 69.3227 63.5328 69.4347 63.5328 69.552C63.5328 69.7227 63.4688 69.8507 63.3408 69.936C63.2234 70.0213 63.1061 70.064 62.9888 70.064ZM62.8128 58.832C62.9408 58.832 63.0474 58.88 63.1328 58.976C63.2288 59.072 63.2768 59.1787 63.2768 59.296C63.2768 59.424 63.2288 59.536 63.1328 59.632L55.8688 66.432L55.7408 65.344L62.4608 58.992C62.5674 58.8853 62.6848 58.832 62.8128 58.832ZM55.4848 70C55.3354 70 55.2128 69.952 55.1168 69.856C55.0314 69.76 54.9888 69.6427 54.9888 69.504V59.296C54.9888 59.1573 55.0368 59.04 55.1328 58.944C55.2288 58.848 55.3514 58.8 55.5008 58.8C55.6394 58.8 55.7568 58.848 55.8528 58.944C55.9488 59.04 55.9968 59.1573 55.9968 59.296V69.504C55.9861 69.6427 55.9328 69.76 55.8368 69.856C55.7408 69.952 55.6234 70 55.4848 70ZM66.4737 69.52C66.4737 69.648 66.4257 69.76 66.3297 69.856C66.2337 69.952 66.1217 70 65.9937 70C65.855 70 65.7377 69.952 65.6417 69.856C65.5563 69.76 65.5137 69.648 65.5137 69.52V62.16C65.5137 62.032 65.5563 61.92 65.6417 61.824C65.7377 61.728 65.855 61.68 65.9937 61.68C66.1323 61.68 66.2443 61.728 66.3297 61.824C66.4257 61.92 66.4737 62.032 66.4737 62.16V69.52ZM65.9937 60.608C65.7697 60.608 65.599 60.56 65.4817 60.464C65.375 60.3573 65.3217 60.208 65.3217 60.016V59.856C65.3217 59.664 65.3803 59.52 65.4977 59.424C65.6257 59.3173 65.7963 59.264 66.0097 59.264C66.2123 59.264 66.367 59.3173 66.4737 59.424C66.591 59.52 66.6497 59.664 66.6497 59.856V60.016C66.6497 60.208 66.591 60.3573 66.4737 60.464C66.367 60.56 66.207 60.608 65.9937 60.608ZM72.6475 61.76C73.3089 61.76 73.8742 61.936 74.3435 62.288C74.8129 62.6293 75.1329 63.1413 75.3035 63.824L75.0795 63.888L75.1755 63.6C75.3142 63.28 75.5435 62.9813 75.8635 62.704C76.1942 62.416 76.5675 62.1867 76.9835 62.016C77.3995 61.8453 77.8209 61.76 78.2475 61.76C78.9195 61.76 79.4582 61.904 79.8635 62.192C80.2795 62.48 80.5782 62.8693 80.7595 63.36C80.9515 63.84 81.0475 64.384 81.0475 64.992V69.52C81.0475 69.648 80.9995 69.76 80.9035 69.856C80.8182 69.952 80.7062 70 80.5675 70C80.4289 70 80.3115 69.952 80.2155 69.856C80.1302 69.76 80.0875 69.648 80.0875 69.52V65.04C80.0875 64.6027 80.0182 64.2027 79.8795 63.84C79.7409 63.4773 79.5222 63.1893 79.2235 62.976C78.9249 62.7627 78.5249 62.656 78.0235 62.656C77.5862 62.656 77.1649 62.7627 76.7595 62.976C76.3649 63.1893 76.0395 63.4773 75.7835 63.84C75.5382 64.2027 75.4155 64.6027 75.4155 65.04V69.52C75.4155 69.648 75.3675 69.76 75.2715 69.856C75.1862 69.952 75.0742 70 74.9355 70C74.7969 70 74.6795 69.952 74.5835 69.856C74.4982 69.76 74.4555 69.648 74.4555 69.52V64.992C74.4555 64.5547 74.3915 64.16 74.2635 63.808C74.1355 63.456 73.9275 63.1787 73.6395 62.976C73.3515 62.7627 72.9622 62.656 72.4715 62.656C72.0342 62.656 71.6182 62.7627 71.2235 62.976C70.8395 63.1787 70.5249 63.456 70.2795 63.808C70.0449 64.16 69.9275 64.5547 69.9275 64.992V69.52C69.9275 69.648 69.8795 69.76 69.7835 69.856C69.6875 69.952 69.5755 70 69.4475 70C69.2982 70 69.1809 69.952 69.0955 69.856C69.0102 69.76 68.9675 69.648 68.9675 69.52V62.352C68.9675 62.224 69.0102 62.112 69.0955 62.016C69.1915 61.92 69.3089 61.872 69.4475 61.872C69.5862 61.872 69.6982 61.92 69.7835 62.016C69.8795 62.112 69.9275 62.224 69.9275 62.352V63.84L69.4955 64.432C69.5275 64.112 69.6289 63.792 69.7995 63.472C69.9809 63.152 70.2155 62.864 70.5035 62.608C70.7915 62.352 71.1169 62.1493 71.4795 62C71.8529 61.84 72.2422 61.76 72.6475 61.76ZM91.1773 65.904C91.1773 66.7147 91.0013 67.4453 90.6493 68.096C90.2973 68.736 89.8173 69.2427 89.2093 69.616C88.6013 69.9787 87.9079 70.16 87.1293 70.16C86.3719 70.16 85.6839 69.9787 85.0653 69.616C84.4573 69.2427 83.9719 68.736 83.6093 68.096C83.2573 67.4453 83.0813 66.7147 83.0813 65.904C83.0813 65.0827 83.2573 64.352 83.6093 63.712C83.9719 63.072 84.4573 62.5653 85.0653 62.192C85.6839 61.8187 86.3719 61.632 87.1293 61.632C87.9079 61.632 88.6013 61.8187 89.2093 62.192C89.8173 62.5653 90.2973 63.072 90.6493 63.712C91.0013 64.352 91.1773 65.0827 91.1773 65.904ZM90.2173 65.904C90.2173 65.2533 90.0839 64.6773 89.8173 64.176C89.5506 63.664 89.1826 63.264 88.7133 62.976C88.2546 62.6773 87.7266 62.528 87.1293 62.528C86.5533 62.528 86.0306 62.6773 85.5613 62.976C85.0919 63.264 84.7186 63.664 84.4413 64.176C84.1746 64.6773 84.0413 65.2533 84.0413 65.904C84.0413 66.5547 84.1746 67.1307 84.4413 67.632C84.7186 68.1333 85.0919 68.5333 85.5613 68.832C86.0306 69.12 86.5533 69.264 87.1293 69.264C87.7266 69.264 88.2546 69.12 88.7133 68.832C89.1826 68.5333 89.5506 68.1333 89.8173 67.632C90.0839 67.1307 90.2173 66.5547 90.2173 65.904Z" fill="black"/>
<path d="M88.1076 14.3821C87.4317 23.7629 91.829 32.4369 99.51 35.4069L100.338 35.7264L99.4531 35.6573C91.2434 35.0113 83.5259 40.928 80.0762 49.6772C80.7518 40.2967 76.3544 31.6233 68.6735 28.6534L67.8451 28.3327L68.7305 28.4029C76.9404 29.049 84.6579 23.1317 88.1076 14.3821Z" stroke="#949494" stroke-width="3" stroke-linejoin="round"/>
</svg>
