<svg width="250" height="256" viewBox="0 0 250 256" fill="none" xmlns="http://www.w3.org/2000/svg">
<mask id="path-1-inside-1_2106_598" fill="white">
<path d="M125 0C194.036 0 250 55.9644 250 125C250 194.036 194.036 250 125 250C55.9644 250 0 194.036 0 125C0 55.9644 55.9644 0 125 0Z"/>
</mask>
<path d="M125 0C194.036 0 250 55.9644 250 125C250 194.036 194.036 250 125 250C55.9644 250 0 194.036 0 125C0 55.9644 55.9644 0 125 0Z" fill="url(#paint0_linear_2106_598)"/>
<path d="M250 0V250V0ZM0 250V0V250ZM0 0H250H0ZM250 131.482C250 200.518 194.036 256.482 125 256.482C55.9644 256.482 0 200.518 0 131.482V125C0 190.456 55.9644 243.518 125 243.518C194.036 243.518 250 190.456 250 125V131.482Z" fill="#8EC2A7" mask="url(#path-1-inside-1_2106_598)"/>
<path d="M91.1024 189.085C89.8933 194.155 89.4825 198.708 89.4155 202.423C87.0644 203.279 85.1503 203.626 83.7926 203.783C83.7926 203.783 80.7598 204.133 78.2106 204.969C78.0561 205.019 77.8056 205.106 77.4997 205.252C77.252 205.371 76.0779 206.143 75.4312 206.904C73.6977 208.943 73.2374 212.107 73.2374 212.107C72.5003 217.168 74.7552 224.74 80.2121 227.557C80.9695 227.947 82.6156 228.798 84.7715 228.734C85.2756 228.719 85.8495 228.603 89.7069 227.341C91.3908 226.791 92.7164 226.295 94.2168 225.733C96.096 225.031 97.6459 224.416 98.7413 223.973C103.042 224.498 106.619 224.83 109.174 225.04C110.803 225.174 124.411 226.269 134.824 225.692C136.656 225.59 138.635 225.442 138.635 225.442C141.19 225.249 144.141 224.979 147.416 224.591C150.638 226.269 153.493 227.091 155.506 227.525C158.714 228.215 160.975 228.702 163.605 227.819C166.767 226.759 168.544 224.364 169.231 223.414C172.497 218.887 173.508 211.364 169.913 207.379C168.515 205.829 166.254 205.089 161.764 203.577C159.495 202.813 157.549 202.335 156.165 202.041C156.302 197.49 155.955 191.101 153.776 183.876C152.415 179.366 150.667 175.608 149.018 172.651C146.239 173.618 142.574 174.69 138.192 175.445C136.971 175.654 131.596 176.546 124.583 176.409C113.952 176.202 104.679 173.729 98.2665 171.494C95.8163 175.599 92.9058 181.525 91.1053 189.082L91.1024 189.085Z" fill="#C0B4DF"/>
<path d="M90.218 212.46C90.6929 213.162 91.1911 214.025 91.6281 215.05C92.5108 217.133 92.7614 219.039 92.8197 220.379C93.6704 220.026 94.658 219.688 95.7797 219.42C97.9531 218.899 99.8847 218.829 101.368 218.896C108.937 220.181 115.466 220.658 120.544 220.813C128.424 221.052 132.363 221.171 135.387 220.431C138.817 219.592 142.015 218.211 146.642 218.806C149.069 219.117 151 219.857 152.268 220.446C152.227 219.484 152.277 218.249 152.594 216.859C153.18 214.301 154.389 212.469 155.204 211.438C155.324 211.784 155.627 212.507 156.358 213.06C156.667 213.296 156.973 213.439 157.221 213.529C156.964 214.106 156.644 214.902 156.344 215.872C156.058 216.792 155.743 217.83 155.612 219.243C155.577 219.607 155.499 220.606 155.612 221.897C155.676 222.631 155.717 223.074 155.883 223.685C156.341 225.361 157.241 226.404 157.515 226.704C157.722 226.931 157.905 227.103 158.028 227.211C156.999 226.96 156.137 226.742 155.49 226.57C154.211 226.235 153.791 226.104 153.494 226.005C152.743 225.757 152.559 225.652 151.507 225.244C149.675 224.533 148.734 224.175 147.478 223.945C146.712 223.805 146.03 223.75 145.876 223.735C145.611 223.715 145.045 223.677 144.323 223.688C143.178 223.709 142.339 223.843 141.06 224.044C139.405 224.303 138.578 224.431 137.963 224.522C137.573 224.577 135.851 224.822 133.765 224.985C132.095 225.116 130.694 225.157 129.196 225.174C127.055 225.2 124.914 225.174 120.366 225.02C112.439 224.752 109.866 224.522 108.575 224.376C105.95 224.085 105.117 223.971 105.117 223.971C103.722 223.785 103.32 223.7 102.492 223.645C101.901 223.604 100.596 223.546 99.2059 223.715C97.7929 223.887 96.4906 224.382 93.8831 225.378C92.2836 225.987 91.663 226.293 89.982 226.858C89.0759 227.164 88.3214 227.391 87.8086 227.537C88.8603 226.284 89.3789 225.119 89.6528 224.329C90.9755 220.516 89.612 216.705 88.9594 214.878C88.8079 214.456 88.671 214.115 88.5719 213.885C88.77 213.792 88.9914 213.669 89.2216 213.503C89.7081 213.156 90.0286 212.763 90.2296 212.463H90.218V212.46Z" fill="#A394C5"/>
<path d="M90.2227 200.118C90.2227 200.118 110.657 203.44 116.971 185.359C116.971 185.359 123.642 189.461 129.81 187.553C130.83 189.683 132.7 192.774 136.024 195.375C144.31 201.861 154.507 199.734 156.168 199.361C156.121 197.764 156.013 196.083 155.83 194.332C155.751 193.595 155.664 192.873 155.568 192.168C155.168 189.499 154.522 186.417 153.461 183.075C152.144 178.92 150.53 175.433 149.012 172.651C146.393 173.603 142.734 174.743 138.268 175.532C125.813 177.732 115.531 175.721 109.186 174.419C104.562 173.469 100.813 172.342 98.2666 171.494C96.4195 174.801 94.3917 179.124 92.8214 184.389C91.0005 190.507 90.3829 195.949 90.2227 200.115V200.118Z" fill="#A394C5"/>
<path d="M167.12 205.258C162.187 206.222 159.236 210.872 157.913 215.382C157.06 218.444 156.719 222.735 158.152 225.625C158.662 226.645 159.446 227.539 160.439 228.271C160.474 228.297 160.48 228.343 160.454 228.381C160.433 228.408 160.401 228.419 160.369 228.41C159.157 228.064 158.024 227.277 157.237 226.205C154.831 222.951 155.437 218.569 156.742 215.006C157.581 212.623 158.837 210.385 160.544 208.515C162.744 206.108 165.555 204.963 167.091 205.109C167.143 205.115 168.043 205.202 168.04 205.243C168.04 205.275 167.525 205.269 167.117 205.258H167.12Z" fill="#5E5573"/>
<path d="M165.514 204.827C165.324 204.681 163.276 203.146 161.309 203.959C160.977 204.096 159.722 204.617 159.62 205.756C159.55 206.549 160.057 207.365 160.907 207.825C161.61 207.213 162.466 206.549 163.495 205.914C164.205 205.477 164.884 205.118 165.514 204.827Z" fill="white" stroke="#5E5573" stroke-width="1.74805" stroke-linecap="round" stroke-linejoin="round"/>
<path d="M160.419 208.32C159.111 207.347 157.387 207.496 156.446 208.446C155.478 209.422 155.717 210.855 155.732 210.939C156.011 212.475 157.483 212.97 157.582 212.999C157.958 212.143 158.447 211.184 159.085 210.179C159.531 209.48 159.982 208.862 160.419 208.317V208.32Z" fill="white" stroke="#5E5573" stroke-width="1.74805" stroke-linecap="round" stroke-linejoin="round"/>
<path d="M98.2624 171.497C95.5966 175.963 92.4239 182.545 90.7836 190.97C89.9795 195.107 89.6998 198.877 89.6824 202.117C88.2431 202.58 86.0756 203.239 83.3836 203.891C79.7127 204.783 78.5415 204.634 77.0323 205.829C75.0833 207.376 74.3637 209.634 74.1189 210.4C73.5916 212.055 73.612 213.401 73.6411 214.476C73.6586 215.169 73.7781 218.12 75.4853 221.547C76.3186 223.219 77.28 225.145 79.4039 226.692C80.0943 227.196 82.0521 228.559 84.7674 228.731C85.3414 228.766 86.5592 228.786 90.7341 227.344C95.0897 225.838 95.5471 225.197 97.8428 224.684C100.544 224.081 102.632 224.358 104.651 224.594C104.651 224.594 113.316 225.596 122.822 225.832C127.528 225.949 131.668 226.054 137.203 225.349C142.232 224.705 144.487 223.901 148.233 224.865C150.707 225.503 151.584 226.333 155.403 227.318C158.92 228.224 160.676 228.679 162.389 228.373C167.91 227.397 172.312 219.97 171.998 213.468C171.928 212.04 171.788 209.127 169.749 206.84C167.575 204.398 164.12 203.655 160.676 202.915C160.676 202.915 160.56 202.889 156.158 202.044C156.23 199.308 156.117 196.241 155.674 192.919C154.52 184.267 151.586 177.388 149.011 172.651" stroke="#5E5573" stroke-width="1.74805" stroke-linecap="round" stroke-linejoin="round"/>
<path d="M170.782 219.124C172.987 212.958 171.867 206.919 168.279 205.636C164.692 204.353 159.996 208.311 157.79 214.478C155.585 220.644 156.705 226.683 160.293 227.966C163.88 229.249 168.577 225.291 170.782 219.124Z" fill="#DACFF3"/>
<path d="M77.6826 205.584C77.6826 205.543 78.5799 205.453 78.6324 205.45C80.1677 205.304 82.9792 206.446 85.1788 208.856C86.889 210.726 88.1447 212.964 88.9808 215.347C90.286 218.91 90.892 223.292 88.4855 226.546C87.696 227.618 86.5627 228.405 85.3536 228.751C85.3216 228.763 85.2895 228.751 85.2691 228.722C85.2429 228.687 85.2487 228.638 85.2837 228.611C86.2801 227.877 87.0638 226.986 87.5707 225.966C89.0041 223.076 88.6632 218.785 87.8096 215.723C86.4869 211.213 83.5356 206.563 78.6032 205.598C78.1954 205.607 77.6826 205.613 77.6797 205.584H77.6826Z" fill="#5E5573"/>
<path d="M82.2299 206.254C83.2584 206.89 84.1178 207.551 84.817 208.166C85.6678 207.705 86.1747 206.89 86.1048 206.097C86.0028 204.958 84.7471 204.436 84.415 204.3C82.4484 203.487 80.4003 205.022 80.2109 205.168C80.8402 205.459 81.522 205.817 82.2299 206.254Z" fill="white" stroke="#5E5573" stroke-width="1.74805" stroke-linecap="round" stroke-linejoin="round"/>
<path d="M86.639 210.523C87.2771 211.528 87.7665 212.486 88.1424 213.343C88.2385 213.314 89.7127 212.818 89.9924 211.283C90.0098 211.196 90.2458 209.765 89.2786 208.789C88.3376 207.839 86.6157 207.694 85.3047 208.664C85.7417 209.206 86.1933 209.826 86.639 210.526V210.523Z" fill="white" stroke="#5E5573" stroke-width="1.74805" stroke-linecap="round" stroke-linejoin="round"/>
<path d="M85.416 228.321C89.0037 227.038 90.1242 220.999 87.9188 214.833C85.7134 208.667 81.0172 204.708 77.4296 205.991C73.8419 207.274 72.7214 213.313 74.9268 219.479C77.1322 225.646 81.8284 229.604 85.416 228.321Z" fill="#DACFF3"/>
<path d="M91.5489 168.229C89.9465 169.776 86.4708 173.563 85.2763 179.46C84.7227 182.192 83.8196 186.778 86.3542 190.499C89.3871 194.953 96.4813 196.626 103.686 194.216C105.003 193.773 106.853 193.007 108.817 191.655C111.124 190.067 114.635 187.646 115.453 183.448C116.211 179.568 114.256 176.287 113.501 175.16C111.415 172.473 109.58 171.762 108.237 171.646C106.509 171.497 103.704 172.17 103.704 172.17C103.704 172.17 99.5345 171.291 95.5548 169.872C94.5526 169.513 93.1687 168.983 91.5459 168.229H91.5489Z" fill="#BBB3D3"/>
<path d="M91.1589 168.759C90.6053 169.312 89.9731 170.029 89.3642 170.926C88.7233 171.87 88.2746 172.765 87.957 173.511C88.3678 173.796 88.8252 174.076 89.3322 174.335C91.794 175.597 94.2121 175.766 95.8465 175.699C98.0899 174.749 100.336 173.796 102.579 172.846C99.701 172.048 96.6681 171.043 93.5333 169.767C92.7234 169.438 91.9338 169.1 91.1618 168.759H91.1589Z" fill="#A394C5"/>
<path d="M85.0146 187.262C85.8741 188.22 87.3104 189.572 89.4081 190.478C95.3864 193.057 101.644 189.826 104.584 188.308C110.128 185.447 113.397 181.211 115.087 178.536C115.372 179.748 115.652 181.706 115.087 183.923C114.029 188.078 110.731 190.315 108.421 191.882C103.663 195.111 98.731 195.784 95.8642 195.915C95.0047 195.906 90.9026 195.769 87.7853 192.509C85.9003 190.536 85.2535 188.343 85.0117 187.262H85.0146Z" fill="#A394C5"/>
<path d="M91.552 168.229C89.6 170.032 87.4295 172.642 86.0048 176.197C85.2182 178.163 82.5117 184.928 85.833 190.303C86.0864 190.711 87.1964 192.445 89.329 193.829C92.155 195.661 94.984 195.728 97.0146 195.74C98.8734 195.749 104.429 195.693 109.467 191.655C111.36 190.137 115.78 186.595 115.672 181.257C115.614 178.449 114.326 176.293 113.507 175.16" stroke="#5E5573" stroke-width="1.74805" stroke-linecap="round" stroke-linejoin="round"/>
<path d="M101.833 175.151C101.833 175.151 101.664 178.204 103.36 179.436C103.36 179.436 103.477 180.465 102.326 179.436C102.326 179.436 100.391 177.764 101.394 175.151C101.394 175.151 101.831 174.577 101.833 175.151Z" fill="#A394C5"/>
<path d="M101.104 179.894C101.104 179.894 100.053 178.842 99.8983 176.1C99.8983 176.1 99.6099 175.084 99.2195 176.1C99.2195 176.1 98.8553 178.594 100.446 179.894C100.446 179.894 101.973 181.103 101.104 179.894Z" fill="#A394C5"/>
<path d="M90.0625 178.116C92.7749 176.791 95.767 175.337 98.5289 174.084C101.096 173.012 103.654 171.634 106.497 171.392C108.624 171.357 110.73 171.864 112.604 173.027C117.079 175.774 117.749 182.618 114.483 186.516L114.305 186.417C114.789 184.925 115.048 183.425 114.987 181.971C114.888 179.186 113.725 176.377 111.456 174.69C110.118 173.65 108.295 173.012 106.538 172.957C103.927 173.062 101.393 174.207 98.9134 175.031C97.818 175.416 95.6125 176.234 94.5288 176.657C93.072 177.213 91.6124 177.764 90.147 178.306L90.0625 178.119V178.116Z" fill="#5E5573"/>
<path d="M114.82 184.987C114.82 184.987 109.256 182.924 114.756 179.92C114.756 179.92 116.411 182.895 114.82 184.987Z" fill="white" stroke="#5E5573" stroke-width="1.74805" stroke-linecap="round" stroke-linejoin="round"/>
<path d="M114.406 179.655C114.406 179.655 108.497 180.203 112.156 175.116C112.156 175.116 114.936 177.083 114.406 179.655Z" fill="white" stroke="#5E5573" stroke-width="1.74805" stroke-linecap="round" stroke-linejoin="round"/>
<path d="M107.746 172.753C107.746 172.753 107.836 178.685 112.501 174.501C112.501 174.501 110.246 171.949 107.746 172.753Z" fill="white" stroke="#5E5573" stroke-width="1.74805" stroke-linecap="round" stroke-linejoin="round"/>
<path d="M154.377 168.558C155.979 170.105 159.455 173.892 160.649 179.789C161.203 182.522 162.106 187.107 159.571 190.828C156.538 195.282 149.444 196.955 142.239 194.545C140.923 194.102 139.073 193.336 137.109 191.984C134.801 190.397 131.291 187.975 130.472 183.777C129.715 179.897 131.67 176.616 132.424 175.489C134.51 172.802 136.346 172.092 137.689 171.975C139.416 171.826 142.222 172.499 142.222 172.499C142.222 172.499 146.391 171.62 150.371 170.201C151.373 169.842 152.757 169.312 154.38 168.558H154.377Z" fill="#BBB3D3"/>
<path d="M154.776 169.085C155.33 169.639 155.962 170.355 156.571 171.253C157.212 172.196 157.66 173.091 157.978 173.837C157.567 174.122 157.11 174.402 156.603 174.661C154.141 175.923 151.723 176.092 150.088 176.025C147.845 175.075 145.599 174.122 143.355 173.172C146.234 172.374 149.267 171.369 152.402 170.093C153.212 169.764 154.001 169.426 154.773 169.085H154.776Z" fill="#A394C5"/>
<path d="M160.915 187.591C160.056 188.549 158.619 189.901 156.522 190.807C150.543 193.386 144.285 190.155 141.346 188.637C135.801 185.776 132.533 181.54 130.843 178.865C130.557 180.077 130.278 182.035 130.843 184.252C131.9 188.407 135.198 190.644 137.509 192.212C142.266 195.44 147.199 196.113 150.066 196.244C150.925 196.235 155.027 196.098 158.144 192.838C160.029 190.866 160.676 188.672 160.918 187.591H160.915Z" fill="#A394C5"/>
<path d="M154.38 168.558C156.332 170.361 158.502 172.971 159.927 176.526C160.714 178.492 163.42 185.257 160.099 190.633C159.845 191.04 158.735 192.774 156.603 194.158C153.777 195.99 150.948 196.057 148.917 196.069C147.058 196.078 141.503 196.022 136.465 191.984C134.572 190.466 130.152 186.924 130.26 181.586C130.318 178.778 131.606 176.622 132.424 175.489" stroke="#5E5573" stroke-width="1.74805" stroke-linecap="round" stroke-linejoin="round"/>
<path d="M144.1 175.48C144.1 175.48 144.269 178.533 142.574 179.765C142.574 179.765 142.457 180.794 143.608 179.765C143.608 179.765 145.542 178.093 144.54 175.48C144.54 175.48 144.103 174.906 144.1 175.48Z" fill="#A394C5"/>
<path d="M144.83 180.223C144.83 180.223 145.881 179.171 146.036 176.429C146.036 176.429 146.324 175.413 146.715 176.429C146.715 176.429 147.079 178.923 145.488 180.223C145.488 180.223 143.961 181.432 144.83 180.223Z" fill="#A394C5"/>
<path d="M155.788 178.632C152.953 177.592 149.879 176.368 147.024 175.357C144.542 174.533 142.007 173.388 139.4 173.283C137.643 173.335 135.819 173.976 134.482 175.016C132.212 176.703 131.05 179.512 130.951 182.297C130.89 183.754 131.149 185.251 131.632 186.743L131.455 186.842C128.192 182.944 128.859 176.103 133.334 173.353C135.207 172.19 137.311 171.684 139.44 171.718C142.284 171.96 144.842 173.338 147.409 174.41C148.472 174.888 150.607 175.89 151.656 176.403C153.066 177.076 154.474 177.758 155.875 178.446L155.79 178.632H155.788Z" fill="#5E5573"/>
<path d="M131.009 180.313C136.78 182.755 131.448 185.36 131.448 185.36C129.657 183.437 131.009 180.313 131.009 180.313Z" fill="white" stroke="#5E5573" stroke-width="1.74805" stroke-linecap="round" stroke-linejoin="round"/>
<path d="M133.773 175.445C137.436 180.532 131.524 179.984 131.524 179.984C130.994 177.411 133.773 175.445 133.773 175.445Z" fill="white" stroke="#5E5573" stroke-width="1.74805" stroke-linecap="round" stroke-linejoin="round"/>
<path d="M133.434 174.83C138.098 179.014 138.188 173.082 138.188 173.082C135.686 172.278 133.434 174.83 133.434 174.83Z" fill="white" stroke="#5E5573" stroke-width="1.74805" stroke-linecap="round" stroke-linejoin="round"/>
<path d="M147.363 202.525C148.433 202.018 149.388 201.13 150.548 200.707C151.73 200.32 152.966 199.816 154.227 199.897C155.09 199.985 155.894 200.198 156.654 200.675V200.85C155.85 201.325 155.058 201.503 154.291 201.645C153.152 201.812 152.001 201.552 150.874 201.826C149.679 201.966 148.651 202.566 147.41 202.694L147.366 202.525H147.363Z" fill="#5E5573"/>
<path d="M151.62 207.72C152.246 206.828 152.986 205.884 153.662 205.028C154.458 204.163 155.122 203.026 156.29 202.595C157.106 202.307 158.114 202.278 158.837 202.831L158.822 203.006C158.073 203.434 157.587 203.79 157.065 204.163C156.541 204.565 155.891 204.783 155.343 205.191C155.055 205.401 154.767 205.628 154.472 205.858C153.601 206.517 152.643 207.236 151.74 207.845L151.617 207.72H151.62Z" fill="#5E5573"/>
<path d="M98.4864 202.513C97.6532 202.446 96.8695 202.091 96.1353 201.887C95.4011 201.683 94.6553 201.561 93.8978 201.508C93.1345 201.45 92.3683 201.616 91.605 201.465C90.8387 201.322 90.0463 201.141 89.2422 200.669V200.494C90.0026 200.017 90.8067 199.804 91.6691 199.717C92.511 199.62 93.3355 199.915 94.1396 200.13C94.9583 200.343 95.7566 200.66 96.4878 201.086C97.2133 201.523 97.8076 202.015 98.5301 202.344L98.4864 202.513Z" fill="#5E5573"/>
<path d="M94.1566 207.664C93.2535 207.056 92.2921 206.339 91.4239 205.677C90.8616 205.232 90.2935 204.774 89.6554 204.477C88.6736 203.964 88.1725 203.425 87.0771 202.822L87.0625 202.648C87.785 202.094 88.7931 202.123 89.6088 202.412C90.78 202.843 91.4414 203.979 92.2367 204.844C92.9126 205.701 93.6526 206.645 94.279 207.536L94.1566 207.662V207.664Z" fill="#5E5573"/>
<path d="M64.1082 99.2183C62.5466 105.54 62.0979 108.701 61.9115 112.41C61.6493 117.617 62.2902 119.155 61.556 123.84C60.7752 128.827 59.7759 128.836 58.7154 134.307C57.955 138.255 57.1597 142.357 58.2755 147.307C59.3622 152.132 61.725 155.38 63.1934 157.355C67.0682 162.576 71.5519 165.245 74.2497 166.815C78.2994 169.172 83.1356 170.667 92.7994 173.65C94.2328 174.093 95.9197 174.588 97.9503 175.118C98.7224 175.317 101.49 176.027 105.269 176.767C106.256 176.96 108.474 177.382 111.425 177.822C115.897 178.489 121.307 179.296 128.037 179.509C132.308 179.646 137.43 179.78 144.131 178.792C151.219 177.746 156.396 175.987 158.197 175.346C160.86 174.396 162.948 173.42 167.129 171.459C176.994 166.839 180.554 164.094 183.383 161.178C183.561 160.994 183.8 160.747 184.114 160.4C191.139 152.717 192.115 143.458 192.24 142.127C193 134.051 190.358 127.843 189.038 125.2C189.058 123.595 189.067 121.261 188.991 118.45C188.837 112.748 188.438 107.781 188.152 105.602C187.404 99.8564 184.921 87.2297 175.727 75.2235C170.485 68.3799 165.104 64.4089 163.38 63.1824C152.635 55.5463 141.579 53.4953 139.874 53.4225C138.747 53.37 138.225 53.2418 137.174 52.9855C136.075 52.7174 135.519 52.5747 135.152 52.1784C134.205 51.1588 134.758 49.2417 134.942 48.6066C135.728 45.8767 137.622 44.9182 137.299 44.3559C136.926 43.7033 133.911 44.1782 131.472 45.8563C131.472 45.8563 130.479 46.541 127.102 50.4595C127.737 40.385 126.714 40.0324 126.714 40.0324C126.213 39.8606 125.599 40.3908 124.695 41.1716C123.416 42.2699 122.778 43.5373 122.435 44.3414C121.004 47.7005 121.587 50.5091 121.071 50.5848C120.515 50.6693 120.322 47.3247 117.744 45.2649C116.646 44.3851 114.822 43.5023 114.085 44.0996C112.905 45.061 116.057 48.6153 114.903 51.3889C113.785 54.0867 109.557 53.7313 103.276 55.3366C95.6837 57.2769 90.4308 60.738 87.4854 62.6551C81.51 66.5445 77.708 70.7922 76.2775 72.482C68.4346 81.7379 65.9931 91.6114 64.114 99.2125H64.1082V99.2183Z" fill="#C0B4DF"/>
<path d="M76.2822 72.4877C74.9741 71.9808 73.0046 71.2029 70.6244 70.2065C61.3976 66.3375 59.9555 65.0527 55.4222 63.7446C52.2 62.8152 48.2639 61.679 43.5063 62.553C37.2687 63.698 33.1637 67.6398 31.3487 69.6501C27.4651 73.9532 24.8023 77.4959 22.2472 81.9243C20.4846 84.9746 18.687 88.0949 17.1604 92.5611C15.0977 98.6035 12.2134 107.05 15.8931 113.951C17.3323 116.652 19.7329 119.032 22.0141 121.296C24.5313 123.793 26.0609 124.772 28.3275 127.42C30.3144 129.739 31.6313 131.895 32.4325 133.355C33.187 135.467 33.93 137.707 34.6292 140.079C35.2672 142.235 35.8208 144.321 36.3044 146.322C36.5637 147.33 36.9978 148.77 37.7291 150.413C38.9643 153.183 41.062 157.891 45.8167 160.362C49.8896 162.474 54.0325 161.97 56.0107 161.568C56.0107 161.568 60.2264 160.205 63.201 157.352C62.4056 156.426 61.2869 154.961 60.2847 152.985C56.2933 145.116 58.0938 136.752 58.7231 134.304C59.5971 130.913 60.3662 130.561 61.1354 126.636C61.89 122.773 61.7589 119.973 61.7385 117.882C61.6336 107.041 64.3518 97.8664 65.4618 94.1256C66.9913 88.9689 68.6287 85.3883 69.0249 84.5347C71.4372 79.3313 74.1408 75.305 76.2822 72.4848V72.4877Z" fill="#C0B4DF"/>
<path d="M22.0119 121.29C23.4773 123.248 25.3507 123.941 28.3253 127.414C30.3122 129.733 31.6291 131.889 32.4302 133.349C33.1848 135.461 33.9277 137.701 34.627 140.073C35.265 142.229 35.8185 144.315 36.3022 146.316C36.5615 147.324 36.9956 148.764 37.7268 150.407C38.9621 153.177 41.0598 157.886 45.8144 160.356C49.8874 162.468 54.0303 161.964 56.0085 161.562C56.0085 161.562 60.2242 160.199 63.1988 157.347C62.4034 156.42 61.2847 154.955 60.2824 152.979C56.2911 145.11 58.0916 136.746 58.7209 134.299C59.5949 130.907 60.364 130.555 61.1332 126.63C61.3284 125.625 61.4653 124.699 61.5585 123.831C61.879 120.879 61.7479 118.147 61.7362 117.876C61.5585 113.733 62.2344 109.363 62.8084 105.625C63.257 102.708 64.0349 98.7579 65.4596 94.1226C65.4596 94.1226 57.6079 83.5353 46.1757 81.0968C44.6083 80.7618 43.711 80.5724 42.3912 80.6161C31.3348 80.9773 23.5618 96.8001 21.2457 107.393C20.2755 111.83 19.0664 117.36 22.0148 121.29H22.0177H22.0119Z" fill="#ACECC7"/>
<path d="M22.5393 105.086C23.1744 105.485 25.4556 100.699 31.0727 97.6687C35.3 95.3845 39.3118 95.2301 40.9695 95.166C52.8242 94.7115 61.4595 104.116 62.8114 105.631C63.1552 103.595 63.5834 101.456 64.1108 99.2215C64.5332 97.4385 64.9877 95.74 65.4597 94.1289C62.2433 91.6699 59.4784 89.6422 57.3487 88.1127C53.6079 85.4265 52.1978 84.5175 50.1817 83.6785C47.9268 82.7374 45.8087 81.8518 43.0351 82.0324C40.0169 82.2305 37.8988 83.5794 36.0575 84.7826C34.7902 85.6101 31.7544 87.7689 27.8854 93.619C24.4622 98.7961 21.8401 104.652 22.5393 105.095V105.089V105.086Z" fill="#8EC2A7"/>
<path d="M61.5189 156.688C58.6259 158.663 55.4474 160.892 51.7736 160.706C49.0204 160.566 46.5178 159.08 44.4959 157.297C40.2744 153.577 37.6261 148.936 36.248 143.496C34.8729 138.057 34.3747 132.376 30.7533 127.947C29.25 126.112 27.2398 124.789 25.4859 123.21C22.8405 120.83 20.4195 118.155 18.3539 115.254C12.5096 107.041 17.5964 95.7251 21.4071 87.652C25.4422 79.107 30.4911 68.8984 39.9044 65.3033C45.1281 63.3076 51.2725 63.6514 56.4496 65.6237C62.8329 68.0564 68.986 71.1039 75.3635 73.5803C76.9891 74.2125 77.6942 71.5933 76.0831 70.9669C69.8833 68.5575 63.8846 65.6878 57.7169 63.226C52.8341 61.274 47.3714 60.7962 42.2147 61.8217C31.0855 64.0418 24.5303 74.9059 19.9941 84.3453C17.981 88.5348 16.0406 92.7767 14.6946 97.2313C13.0952 102.522 11.9822 108.777 14.4179 113.992C15.5949 116.512 17.5643 118.785 19.3794 120.859C21.5382 123.327 23.936 125.491 26.4765 127.548C31.304 131.455 32.0323 137.282 33.3463 142.983C34.8554 149.518 37.8766 155.328 43.0974 159.651C45.5797 161.705 48.5018 163.258 51.7765 163.412C55.9485 163.608 59.5873 161.283 62.8912 159.025C64.3216 158.046 62.9698 155.698 61.5248 156.685H61.5189V156.688Z" fill="#5E5573"/>
<path d="M23.1848 121.24C20.9531 111.731 23.4266 103.029 28.4085 94.8683C30.6169 91.2557 33.204 87.5935 36.7642 85.2016C41.1809 82.2329 46.0113 82.5621 50.6757 84.8491C55.3401 87.1361 59.7597 91.0401 63.5646 94.8392C64.7999 96.0745 66.7169 94.1575 65.4787 92.9251C58.6002 86.0553 47.9895 76.776 37.5683 81.6269C33.2011 83.6604 29.941 87.5848 27.3306 91.515C24.4609 95.8356 21.9815 100.48 20.6589 105.52C19.2488 110.886 19.3099 116.579 20.5715 121.966C20.9677 123.664 23.581 122.945 23.1848 121.246V121.24Z" fill="#5E5573"/>
<path d="M75.7108 73.6186C75.8011 73.2603 73.5432 72.6048 67.6785 70.2274C61.4409 67.6986 60.2027 66.9032 55.8588 65.4932C51.6081 64.1151 49.7406 63.8849 48.1674 63.8442C44.7412 63.7538 42.1716 64.5346 41.653 64.6978C36.9187 66.1895 34.0111 69.2544 31.0161 72.4096C28.6854 74.8656 27.1588 77.0215 26.4945 77.9946C18.7653 89.2928 16.2568 102.852 16.2539 102.861C16.2539 102.861 18.2438 95.6557 20.7755 90.094C24.9941 80.8264 30.9637 75.5561 32.4758 74.2713C36.1059 71.186 39.0776 69.7671 40.7207 69.0854C42.5329 68.3308 45.0442 67.3111 48.4325 67.2237C49.056 67.2091 50.9905 67.1888 54.81 68.1735C60.4591 69.6273 61.3739 70.9908 66.2509 72.4125C70.9269 73.7731 75.5884 74.1198 75.7137 73.6186V73.6128L75.7078 73.6186H75.7108Z" fill="#DACFF3"/>
<path d="M173.201 71.6806C174.509 71.1737 176.479 70.3958 178.859 69.3994C188.086 65.5304 189.528 64.2456 194.061 62.9375C197.283 62.0081 201.219 60.8719 205.977 61.7459C212.215 62.8909 216.32 66.8327 218.135 68.8429C222.018 73.1461 224.681 76.6888 227.236 81.1171C228.999 84.1675 230.796 87.2877 232.323 91.754C234.386 97.7964 237.27 106.242 233.59 113.144C232.151 115.845 229.75 118.225 227.469 120.489C224.952 122.986 223.422 123.965 221.156 126.613C219.169 128.932 217.852 131.088 217.051 132.548C216.296 134.66 215.553 136.9 214.854 139.272C214.216 141.428 213.663 143.514 213.179 145.515C212.92 146.523 212.486 147.962 211.754 149.606C210.519 152.376 208.421 157.084 203.667 159.555C199.594 161.667 195.451 161.163 193.473 160.761C193.473 160.761 189.257 159.398 186.282 156.545C187.078 155.619 188.196 154.153 189.199 152.178C193.19 144.309 191.39 135.945 190.76 133.497C189.886 130.106 189.117 129.754 188.348 125.829C187.593 121.966 187.724 119.166 187.745 117.074C187.85 106.234 185.132 97.0593 184.022 93.3185C182.492 88.1618 180.855 84.5812 180.458 83.7276C178.046 78.5242 175.343 74.4979 173.201 71.6777V71.6806Z" fill="#C0B4DF"/>
<path d="M227.471 120.486C226.006 122.444 224.132 123.138 221.158 126.61C219.171 128.93 217.854 131.085 217.053 132.545C216.298 134.657 215.555 136.898 214.856 139.269C214.218 141.425 213.664 143.511 213.181 145.513C212.922 146.521 212.487 147.96 211.756 149.603C210.521 152.374 208.423 157.082 203.669 159.552C199.596 161.665 195.453 161.161 193.475 160.759C193.475 160.759 189.259 159.395 186.284 156.543C187.08 155.616 188.198 154.151 189.201 152.176C193.192 144.307 191.391 135.942 190.762 133.495C189.888 130.104 189.119 129.751 188.35 125.827C188.155 124.822 188.018 123.895 187.924 123.027C187.604 120.076 187.735 117.343 187.747 117.072C187.924 112.929 187.249 108.559 186.675 104.821C186.226 101.905 185.448 97.9542 184.023 93.3189C184.023 93.3189 191.875 82.7316 203.307 80.2931C204.875 79.958 205.772 79.7687 207.092 79.8124C218.148 80.1736 225.921 95.9964 228.237 106.59C229.208 111.027 230.417 116.556 227.468 120.486H227.465H227.471Z" fill="#ACECC7"/>
<path d="M226.94 104.279C226.305 104.678 224.024 99.8915 218.406 96.8615C214.179 94.5774 210.167 94.423 208.51 94.3589C196.655 93.9044 188.02 103.309 186.668 104.824C186.324 102.787 185.896 100.649 185.368 98.4144C184.946 96.6314 184.492 94.9329 184.02 93.3217C187.236 90.8628 190.001 88.8351 192.13 87.3055C195.871 84.6194 197.281 83.7104 199.297 82.8713C201.552 81.9303 203.67 81.0446 206.444 81.2253C209.462 81.4234 211.58 82.7723 213.422 83.9755C214.689 84.8029 217.725 86.9618 221.594 92.8119C225.017 97.989 227.639 103.845 226.94 104.288V104.282V104.279Z" fill="#8EC2A7"/>
<path d="M186.598 158.221C189.686 160.33 192.99 162.454 196.847 162.611C199.775 162.728 202.627 161.606 204.984 159.931C209.535 156.697 213.028 151.971 214.869 146.719C216.807 141.192 216.76 134.68 220.151 129.733C221.742 127.411 224.213 125.882 226.261 124.003C228.944 121.544 231.362 118.776 233.471 115.81C239.829 106.878 234.8 94.8046 230.654 85.9711C226.371 76.8522 221.107 66.5212 211.344 62.3026C205.727 59.8728 198.851 59.8961 193.109 61.9064C190.164 62.9348 187.343 64.3362 184.485 65.586C180.823 67.1884 177.126 68.7063 173.403 70.1542C171.795 70.7777 172.494 73.3998 174.122 72.7676C180.042 70.466 185.805 67.841 191.652 65.3704C196.209 63.4446 201.165 62.6784 206.077 63.535C216.553 65.3588 222.631 75.579 226.893 84.3658C228.763 88.2203 230.567 92.1126 231.881 96.1943C233.439 101.033 234.928 107.12 232.656 111.976C231.557 114.319 229.702 116.425 228.006 118.342C225.952 120.664 223.691 122.744 221.276 124.676C216.836 128.236 215.289 133.244 214.144 138.614C213.451 141.844 212.783 145.134 211.385 148.149C210.103 150.917 208.259 153.283 206.109 155.424C204.133 157.39 201.779 159.147 198.997 159.727C194.86 160.586 191.201 158.095 187.955 155.875C186.513 154.888 185.155 157.236 186.589 158.215H186.592L186.598 158.221Z" fill="#5E5573"/>
<path d="M228.912 121.156C230.062 116.25 230.223 111.096 229.171 106.158C228.096 101.112 225.785 96.4943 223.076 92.1446C220.6 88.1707 217.625 84.2551 213.605 81.7379C208.748 78.7021 203.376 79.0168 198.28 81.3067C192.864 83.7423 188.17 87.9551 184.004 92.1125C182.769 93.3478 184.686 95.2619 185.918 94.0266C191.926 88.0279 202.027 78.6264 211.233 83.4976C215.114 85.5515 217.954 89.1671 220.285 92.7972C222.843 96.7827 225.066 100.975 226.252 105.587C227.499 110.432 227.434 115.571 226.298 120.431C225.902 122.126 228.512 122.852 228.912 121.15V121.156Z" fill="#5E5573"/>
<path d="M173.768 72.8144C173.677 72.4561 175.935 71.8006 181.8 69.4232C188.037 66.8944 189.276 66.099 193.62 64.689C197.87 63.3109 199.738 63.0807 201.311 63.04C204.737 62.9496 207.307 63.7304 207.825 63.8936C212.56 65.3853 215.467 68.4502 218.462 71.6054C220.793 74.0614 222.32 76.2173 222.984 77.1904C230.713 88.4886 233.221 102.048 233.224 102.056C233.224 102.056 231.235 94.8515 228.703 89.2898C224.484 80.0222 218.515 74.7519 217.003 73.4671C213.372 70.3818 210.401 68.9629 208.758 68.2812C206.945 67.5266 204.434 66.5069 201.046 66.4195C200.422 66.4049 198.488 66.3846 194.668 67.3693C189.019 68.8231 188.104 70.1866 183.227 71.6083C178.551 72.9689 173.89 73.3156 173.765 72.8144V72.8086H173.762L173.768 72.8144Z" fill="#DACFF3"/>
<path d="M82.8692 68.6827C88.8155 64.7467 91.7871 62.7772 94.8316 61.2943C106.101 55.7967 116.295 56.997 117.341 52.4171C117.536 51.5664 117.588 49.7543 117.848 49.7513C118.151 49.7455 118.037 52.2336 119.479 53.0406C120.027 53.3465 120.595 53.2999 120.72 53.2853C121.685 53.1804 122.267 52.4142 122.413 52.2103C123.106 51.2314 122.596 50.5059 122.955 49.0259C123.342 47.4206 124.461 46.1212 124.796 46.2465C125.408 46.4738 123.246 51.278 125.047 52.8221C125.65 53.3378 126.559 53.3756 127.156 53.23C128.246 52.9619 128.476 52.0442 130.037 50.4098C130.815 49.5969 132.135 48.216 132.648 48.4869C133.344 48.8569 131.532 51.7441 132.557 53.8593C133.423 55.6364 135.975 56.1987 138.116 56.3852C140.502 56.7057 144.156 57.3612 148.412 58.8499C149.732 59.3102 153.508 60.6912 162.997 66.3549C165.875 68.0709 169.823 70.5065 174.446 73.6238C172.789 71.5378 170.458 68.9245 167.352 66.2645C165.22 64.4408 161.319 61.3875 155.795 58.7013C155.795 58.7013 149.994 55.8841 143.305 54.4128C141.268 53.9641 140.252 53.7427 139.471 53.7194C138.649 53.699 137.985 53.766 137.085 53.4485C136.359 53.1921 135.541 52.7085 135.142 52.184C134.151 50.8672 134.862 48.012 137.225 45.489C137.225 45.489 131.229 44.8714 127.048 51.4003C127.471 43.5895 126.617 41.6899 125.731 41.451C124.511 41.1247 122.203 43.6885 121.39 46.1562C120.968 47.4352 120.572 49.8387 120.572 49.8387C120.572 49.8387 120.003 48.315 119.179 47.1409C118.966 46.8379 118.433 46.0746 117.635 45.5065C116.033 44.3615 114.115 44.513 113.306 44.6267C113.757 44.9908 114.931 46.0367 115.339 47.7994C115.459 48.315 115.861 50.0514 114.896 51.3945C114.319 52.2044 113.512 52.4696 111.925 52.9677C109.949 53.5912 109.017 53.5096 106.002 54.0982C106.002 54.0982 105.128 54.2671 103.662 54.608C99.059 55.6743 94.7472 57.9205 92.6757 59.016C88.5299 61.204 85.7243 63.2783 84.9727 63.8435C83.3994 65.0234 81.6659 66.3345 79.7023 68.4321C77.8756 70.3841 76.5762 72.2312 75.7109 73.6267C77.4357 72.3856 79.8829 70.6638 82.8692 68.6885V68.6827Z" fill="#DACFF3"/>
<path d="M76.2773 72.488C77.9147 70.2738 80.1143 67.7654 83.019 65.3618C85.6003 63.2234 87.794 61.9531 90.2151 60.5518C93.9326 58.3958 96.8781 57.1576 99.1272 56.2224C101.091 55.4038 102.349 54.9697 103.675 54.6113C104.995 54.253 105.391 54.2355 107.876 53.746C113.846 52.5719 114.565 52.0767 115.011 51.3862C115.879 50.0431 115.474 48.3213 115.352 47.7998C114.921 45.9701 113.706 44.9301 113.318 44.6271C113.869 44.5426 115.786 44.3241 117.648 45.5069C120.372 47.2375 120.547 50.4481 120.555 50.751C120.552 49.6061 120.698 47.1588 122.161 44.5542C123.46 42.241 125.182 40.9037 126.12 40.2773C126.542 41.466 126.971 43.0509 127.148 44.9505C127.364 47.2812 127.125 49.2506 126.842 50.6462C127.451 49.6469 128.92 47.5376 131.667 46.0605C133.989 44.8106 136.142 44.5921 137.287 44.5542C134.315 49.1166 134.417 51.1997 135.111 52.2573C136.034 53.6674 138.106 53.3935 142.278 54.1364C145.587 54.7279 147.825 55.529 151.277 56.7702C152.376 57.1635 157.841 59.1766 164.032 63.5555C166.645 65.4084 169.906 68.048 173.218 71.6781" stroke="#5E5573" stroke-width="1.74805" stroke-linecap="round" stroke-linejoin="round"/>
<path d="M73.2915 76.9165C73.6877 76.0366 74.1742 75.0898 74.62 74.2303C74.9055 73.7146 75.2988 72.9921 75.5348 72.459C76.0271 71.5296 76.7468 70.8682 77.7665 70.3904C77.8131 70.373 77.8626 70.3904 77.883 70.4371C77.8422 71.5645 77.4518 72.4997 76.7672 73.3009C76.1204 73.9594 75.4124 74.8567 74.786 75.5384C74.3374 76.0279 73.8916 76.5232 73.4196 76.998C73.3614 77.0592 73.2594 76.9893 73.2973 76.9136H73.2915V76.9165Z" fill="#5E5573"/>
<path d="M175.939 76.0714C175.26 75.3838 174.552 74.5914 173.908 73.863C173.529 73.4115 172.999 72.7851 172.588 72.3685C171.895 71.5731 171.543 70.6641 171.461 69.5454C171.461 69.4958 171.496 69.4551 171.545 69.4521C172.583 69.8979 173.317 70.5971 173.812 71.5265C174.194 72.3656 174.776 73.3503 175.184 74.1835C175.481 74.7808 175.782 75.3722 176.055 75.984C176.09 76.0568 175.985 76.1326 175.933 76.0685H175.939V76.0714Z" fill="#5E5573"/>
<path d="M167.921 163.631C169.555 162.48 171.082 161.926 171.248 161.862C172.76 161.306 177.305 158.835 190.333 150.678C189.576 152.094 188.836 153.291 188.201 154.252C187.315 155.593 186.246 157.055 184.964 158.57C184.358 159.284 183.793 159.91 183.28 160.449C176.734 167.369 169.596 170.521 164.017 172.919C160.826 174.291 157.572 175.328 156.742 175.59C156.719 175.599 156.605 175.663 156.585 175.64C156.491 175.523 159.009 173.734 161.575 171.022C163.3 169.201 164.285 168.158 165.045 166.809C165.191 166.55 165.535 165.915 166.167 165.187C166.709 164.56 167.283 164.079 167.915 163.634H167.921V163.631Z" fill="#A394C5"/>
<path d="M59.3438 147.083C63.1224 150.521 68.8589 155.104 76.6407 159.147C82.2402 162.058 86.8289 163.614 89.7131 164.575C91.534 165.111 93.3898 165.612 95.2806 166.075C121.411 172.485 146.455 169.732 167.918 163.628C166.467 167.421 163.638 172.683 158.196 175.343C156.786 176.034 155.32 176.395 152.395 177.114C146.321 178.612 141.423 178.854 137.811 179.014C135.704 179.107 132.826 179.165 129.388 179.014C126.233 179.186 123.66 179.16 121.941 179.104C111.234 178.769 102.943 176.508 97.9464 175.116C97.3754 174.956 94.9718 174.28 91.8254 173.231C88.2652 172.045 82.8812 170.073 76.3668 166.909C72.8066 165.181 71.2916 164.234 69.9049 163.217C67.7956 161.668 63.7168 158.594 61.1763 153.09C60.0692 150.69 59.5797 148.54 59.3438 147.077V147.083Z" fill="#A394C5"/>
<path d="M68.5301 86.455C65.4769 94.4464 63.3763 102.875 62.9102 111.435C62.7383 115.117 63.4666 118.811 62.9393 122.491C62.6538 124.95 62.2168 127.403 61.4331 129.76C61.0398 130.937 60.6144 132.073 60.3201 133.241C60.0171 134.41 59.8103 135.604 59.6588 136.81C59.1781 140.435 58.7877 144.071 59.3121 147.686C60.224 154.329 63.994 158.221 69.1536 162.099C83.4206 172.526 107.115 177.479 124.616 178.306C129.484 178.519 134.37 178.726 139.224 178.37C148.891 177.653 158.342 174.807 166.974 170.437C171.225 168.214 175.633 166.026 179.318 162.944C182.022 160.601 184.627 158.049 186.73 155.165C188.775 152.321 190.212 149.026 190.468 145.51C190.788 141.061 189.967 136.502 188.781 132.198L188.665 131.758L188.603 131.54L188.574 131.432C188.574 131.412 188.522 131.295 188.6 131.467L188.539 131.307C187.435 127.563 186.41 123.534 186.724 119.572C187.426 111.266 186.302 102.887 184.461 94.7786L184.391 94.496C184.37 94.3969 184.341 94.3387 184.309 94.1347L184.326 94.2309C183.683 92.3138 182.398 88.3866 181.769 86.4579C181.751 86.4025 181.78 86.3443 181.836 86.3268C181.891 86.3093 181.946 86.3355 181.967 86.3909C182.707 88.3021 184.155 92.1245 184.877 94.0386L184.895 94.1347C184.912 94.1172 184.935 94.2512 184.967 94.3386L185.049 94.6213C186.477 99.7168 187.476 104.941 187.968 110.208C188.169 112.565 188.312 114.916 188.254 117.293C188.222 118.843 188.061 120.364 188.193 121.897C188.321 123.397 188.568 124.924 188.918 126.386C189.294 127.878 189.967 130.063 190.267 131.062C190.759 132.767 191.243 134.503 191.63 136.233C192.519 140.563 192.953 145.137 191.802 149.466C190.462 154.434 187.112 158.541 183.482 162.046C182.61 162.909 181.652 163.815 180.717 164.596C176.871 167.859 172.39 170.073 167.944 172.345C159.053 176.788 149.29 179.576 139.355 180.203C134.408 180.509 129.464 180.241 124.535 179.972C106.769 178.97 82.8641 173.738 68.466 163.005C63.1228 158.914 59.2393 154.786 58.3652 147.806C57.8671 144.103 58.3128 140.333 58.843 136.682C59.0149 135.456 59.2393 134.232 59.5685 133.026C59.8919 131.82 60.3434 130.654 60.7397 129.509C61.535 127.211 61.9924 124.81 62.2983 122.401C62.8606 118.747 62.1818 115.073 62.3974 111.4C62.9684 102.808 65.1797 94.3561 68.3437 86.3676C68.3641 86.3122 68.4282 86.286 68.4835 86.3093C68.5389 86.3297 68.5622 86.3909 68.5447 86.4462L68.5214 86.4579H68.5301V86.455Z" fill="#5E5573"/>
<path d="M181.717 86.3759C185.012 94.5276 187.008 103.183 187.832 111.932C188.118 114.84 187.922 117.8 188.048 120.702C188.342 125.037 189.277 129.34 190.786 133.416C191.305 134.797 191.832 136.213 192.059 137.687C192.29 139.181 192.278 140.676 192.188 142.162C191.8 148.143 189.07 153.684 185.598 158.462C182.955 162.046 179.575 165.085 175.814 167.459C172.082 169.865 168.088 171.715 164.099 173.606C157.387 176.694 150.188 178.646 142.881 179.663C137.046 180.511 131.079 180.368 125.226 180.033C119.355 179.748 113.488 179.148 107.687 178.16C97.5135 176.508 87.538 173.452 78.1626 169.137C74.1101 167.296 70.0983 165.14 66.6867 162.241C64.6532 160.647 62.6138 158.675 61.2561 156.397C57.6581 150.512 56.988 143.222 58.3485 136.568C58.9458 134.068 59.6071 131.554 60.3675 129.107C61.2182 126.371 61.8446 123.568 61.9087 120.728C61.3989 111.918 62.6254 103.064 65.0057 94.5829C65.8156 91.7831 66.5556 88.8639 68.0939 86.3525C68.123 86.303 68.19 86.2885 68.2396 86.3205C68.2891 86.3525 68.3007 86.4137 68.2716 86.4633C67.9133 87.0896 67.6278 87.7568 67.3714 88.4385C65.7136 93.2457 64.7347 98.2975 63.9831 103.323C63.3625 107.632 63.0071 111.988 63.1236 116.334C63.1615 117.809 63.3363 119.227 63.3771 120.725C63.4004 122.257 63.2256 123.746 63.0071 125.223C62.369 128.874 61.1046 132.297 60.3763 135.91C58.8322 142.68 59.5722 150.378 63.6276 156.14C64.8338 157.906 66.34 159.214 68.0473 160.577C70.2498 162.43 72.6446 163.919 75.1939 165.251C88.0653 171.94 102.227 175.949 116.634 177.589C125.275 178.46 134.039 179.247 142.689 178.145C149.859 177.216 156.944 175.363 163.549 172.394C167.496 170.57 171.502 168.752 175.17 166.433C178.838 164.161 182.128 161.256 184.723 157.807C188.129 153.198 190.859 147.878 191.299 142.086C191.404 140.656 191.427 139.211 191.229 137.806C191.019 136.382 190.536 135.033 190.046 133.675C188.558 129.518 187.66 125.133 187.418 120.722C187.325 117.782 187.558 114.886 187.308 111.961C187.08 109.06 186.69 106.164 186.195 103.291C185.204 97.54 183.643 91.888 181.525 86.4429C181.504 86.3875 181.53 86.3292 181.586 86.3059C181.641 86.2826 181.699 86.3118 181.723 86.3671L181.714 86.3729H181.717V86.3759Z" fill="#5E5573"/>
<path d="M106.62 153.757C109.315 162.492 115.751 167.354 118.851 169.696C121.298 171.544 126.723 175.544 134.971 176.907C137.47 177.321 143.207 178.204 150.085 176.024C157.337 173.729 161.389 169.446 165.285 165.332C168.122 162.334 171.257 158.943 170.293 156.024C169.961 155.019 168.982 153.585 167.379 153.294C165.25 152.909 163.633 154.844 163.563 154.931C162.593 152.015 160.058 150.401 157.975 150.823C156.818 151.059 155.466 151.989 155.062 153.297C154.566 154.902 155.828 156.015 155.123 157.597C154.823 158.273 154.24 158.856 153.619 159.141C151.388 160.164 147.49 157.877 145.98 154.826C144.94 152.723 145.054 150.284 145.141 148.423C145.226 146.634 145.497 146.209 145.404 145.789C144.955 143.782 136.433 142.905 105.426 146.433C105.469 148.169 105.697 150.774 106.617 153.757H106.62Z" fill="#C0B4DF"/>
<path d="M163.561 154.934C165.16 153.577 167.334 153.396 168.785 154.395C170.556 155.616 170.495 158.069 170.104 159.412C169.449 161.67 167.421 162.905 166.492 163.485C160.17 167.427 160.033 170.288 155.339 173.28C144.12 180.433 128.11 174.792 126.75 174.294C122.898 172.881 113.418 169.405 108.39 159.535C105.4 153.667 105.266 148.056 105.427 145.029" stroke="#5E5573" stroke-width="2.33073" stroke-linecap="round" stroke-linejoin="round"/>
<path d="M157.879 158.442C155.685 157.734 154.316 155.742 154.496 153.761C154.657 151.975 156.043 150.547 157.488 150.136C160.285 149.344 163.487 152.301 164.16 155.244C164.396 156.278 164.294 157.195 164.16 157.822C163.834 157.327 163.356 156.61 162.759 155.759C161.334 153.72 161.049 153.367 160.574 153.035C160.341 152.872 158.622 151.672 157.448 152.345C156.099 153.117 156.568 155.73 156.606 155.934C156.842 157.172 157.503 158.023 157.876 158.44L157.879 158.442Z" fill="#5E5573"/>
<path d="M145.407 145.789C145.226 146.634 145.034 147.86 145.066 149.338C145.101 150.992 145.156 153.769 146.971 156.213C147.467 156.88 149.815 160.039 152.685 159.468C154.401 159.124 155.412 157.629 155.747 157.076" stroke="#5E5573" stroke-width="2.33073" stroke-miterlimit="10" stroke-linecap="round"/>
<path d="M114.155 131.808C117.252 129.191 121.267 127.714 125.311 127.557C126.671 127.528 128.058 127.563 129.407 127.735C131.575 128.003 133.666 128.798 135.548 129.888C136.487 130.436 137.378 131.059 138.173 131.805L138.086 131.956C135.589 131.181 133.116 130.401 130.587 129.797C128.865 129.358 127.1 128.953 125.314 128.9C124.868 128.891 124.23 128.906 123.778 128.906C123.33 128.938 122.697 129.002 122.246 129.034C121.515 129.154 120.687 129.264 119.973 129.477C117.951 129.931 116.037 130.829 114.254 131.953L114.152 131.814V131.808H114.155Z" fill="#5E5573"/>
<path d="M114.383 138.896C117.448 136.379 121.375 134.978 125.328 134.823C126.657 134.794 128.015 134.824 129.334 134.981C131.455 135.228 133.504 135.992 135.354 137.041C136.274 137.568 137.154 138.171 137.938 138.894L137.853 139.045C134.905 138.177 132.024 137.344 129.04 136.685C127.846 136.391 126.567 136.216 125.334 136.161C124.9 136.149 124.274 136.164 123.834 136.161C123.397 136.19 122.776 136.248 122.334 136.277C121.617 136.388 120.807 136.49 120.108 136.688C118.127 137.113 116.242 137.961 114.485 139.033L114.383 138.891V138.896Z" fill="#5E5573"/>
<path d="M117.981 147.642C119.246 146.04 120.866 144.723 122.681 143.779C122.998 143.639 123.63 143.359 123.948 143.223C124.324 143.089 124.886 142.922 125.271 142.797C125.676 142.716 126.235 142.584 126.634 142.512C127.045 142.474 127.616 142.378 128.021 142.354C128.697 142.308 129.443 142.279 130.116 142.305C132.878 142.439 135.605 143.59 137.673 145.405L137.594 145.553C134.62 144.845 131.718 144.105 128.691 143.791C128.097 143.727 127.377 143.753 126.78 143.779C126.41 143.817 125.885 143.89 125.513 143.933C124.933 144.067 124.213 144.199 123.651 144.405L123.036 144.603L122.445 144.866C120.834 145.507 119.394 146.555 118.095 147.759L117.973 147.648V147.642H117.981Z" fill="#5E5573"/>
<path d="M123.68 156.764C124.478 154.599 125.92 152.525 127.936 151.278C129.32 150.421 130.931 149.97 132.542 149.795C134.156 149.635 135.773 150.028 137.227 150.692C137.944 151.033 138.625 151.438 139.231 151.963L139.164 152.114C137.649 151.942 136.204 151.686 134.719 151.575C133.3 151.482 131.884 151.287 130.482 151.563C127.555 152.126 125.276 154.264 123.831 156.828L123.683 156.758L123.68 156.764Z" fill="#5E5573"/>
<path d="M139.62 163.436C139.524 161.816 139.806 160.254 140.508 159.141C140.983 158.366 141.659 157.813 142.373 157.399C143.468 156.831 144.911 157.02 146.207 157.871L146.222 158.028C145.834 158.177 145.461 158.27 145.097 158.372C144.479 158.541 143.614 158.786 142.999 158.92C142.481 159.022 141.977 159.24 141.572 159.596C141.362 159.75 141.164 159.98 140.986 160.178C140.829 160.4 140.628 160.662 140.511 160.924C140.1 161.623 139.885 162.53 139.745 163.485L139.623 163.436H139.62Z" fill="#5E5573"/>
<path d="M152.261 166.101C151.402 164.922 150.953 163.643 150.93 162.582C150.909 162.037 150.863 161.449 151.157 161.076C151.445 160.706 151.853 160.426 152.506 160.403L152.634 160.511C152.689 161.076 152.622 161.522 152.532 161.988C152.465 162.425 152.171 162.713 152.075 163.136C151.865 163.998 151.955 164.994 152.386 166.104H152.261V166.101Z" fill="#5E5573"/>
<path d="M140.995 104.8C140.672 104.203 140.564 103.285 140.995 102.86C141.651 102.213 142.924 103.338 145.138 103.276C145.881 103.256 146.883 102.883 148.856 102.14C152.174 100.887 152.401 100.514 153.637 100.311C154.735 100.127 156.358 100.121 158.496 101.042C157.695 101.138 156.439 101.345 154.977 101.834C150.234 103.425 149.293 106.009 145.66 106.321C145.38 106.344 141.966 106.598 140.992 104.8H140.995Z" fill="#5E5573"/>
<path d="M146.661 111.277C146.218 111.816 145.513 112.646 145.143 113.208C144.756 113.756 144.24 114.723 143.905 115.329C142.97 113.538 144.663 111.076 146.664 111.277H146.661Z" fill="#5E5573"/>
<path d="M143.184 115.653C145.998 113.348 150.455 113.08 153.637 114.767C152.093 114.776 149.884 114.755 148.375 114.886C146.613 115.012 144.946 115.306 143.184 115.653Z" fill="#5E5573"/>
<path d="M157.024 140.463C152.436 142.106 146.877 138.636 146.355 133.789C146.938 134.794 147.573 135.709 148.307 136.516C150.536 139.018 153.697 140.28 157.021 140.46L157.024 140.463Z" fill="#5E5573"/>
<path d="M171.283 120.323C168.399 120.311 166.062 120.311 164.527 120.311C158.58 120.317 155.83 120.358 150.298 120.337C148.279 120.331 146.644 120.32 145.648 120.311C145.298 121.529 144.858 123.723 145.383 126.359C146.216 130.543 148.925 133.066 149.893 133.888C150.772 134.555 152.153 135.402 153.968 135.708C156.392 136.119 157.307 135.181 160.999 134.913C164.693 134.645 164.984 135.499 166.651 134.811C169.52 133.625 170.656 130.26 171.16 128.766C172.381 125.141 171.732 121.905 171.286 120.323H171.283Z" fill="white"/>
<path d="M173.671 119.25C169.805 119.25 166.655 119.25 164.526 119.25C158.367 119.256 155.436 119.268 149.959 119.262C147.238 119.262 145.02 119.253 143.613 119.25" stroke="#5E5573" stroke-width="2.33073" stroke-linecap="round" stroke-linejoin="round"/>
<path d="M170.03 135.851C167.411 135.656 164.85 135.484 162.248 135.673C159.728 135.851 157.272 136.291 154.822 136.996C153.176 137.456 151.556 138.045 149.828 138.651C154.644 133.077 163.885 131.746 170.03 135.854V135.851Z" fill="#5E5573"/>
<path d="M145.647 120.311C145.291 121.573 144.56 124.847 146.011 128.469C146.375 129.375 148.551 134.802 153.964 135.708C158.448 136.457 161.833 133.55 162.16 133.258C165.522 130.275 166.495 125.101 164.522 120.314H145.644L145.647 120.311Z" fill="#5E5573"/>
<path d="M159.842 128.401C160.232 129.389 159.728 130.496 158.715 130.878C157.701 131.259 156.562 130.767 156.171 129.779C155.781 128.792 156.285 127.685 157.299 127.303C158.313 126.921 159.452 127.414 159.842 128.401Z" fill="white"/>
<path d="M149.211 120.393C151.682 120.331 152.191 120.326 152.191 120.326C152.949 120.32 154.001 120.326 155.282 120.378C155.349 120.792 155.451 121.753 155.012 122.659C154.347 124.031 152.637 124.876 151.102 124.028C149.931 123.385 149.167 121.925 149.214 120.393H149.211Z" fill="white"/>
<path d="M140.578 99.6348C137.536 101.537 136.916 104.856 140.208 106.921C138.332 106.924 136.587 105.071 136.846 103.14C137.035 101.24 138.69 99.661 140.578 99.6348Z" fill="#5E5573"/>
<path d="M135.702 99.9229C134.371 102.309 134.292 105.091 136.101 107.221C136.658 107.891 137.354 108.465 138.173 108.984C133.619 108.611 131.912 102.548 135.702 99.9229Z" fill="#5E5573"/>
<path d="M104.571 106.321C100.941 106.009 99.9997 103.428 95.2538 101.834C93.7912 101.342 92.5356 101.138 91.7344 101.042C93.8728 100.121 95.4956 100.127 96.5939 100.311C97.8321 100.517 98.0565 100.89 101.375 102.14C103.347 102.883 104.349 103.256 105.092 103.276C107.307 103.338 108.58 102.213 109.235 102.86C109.666 103.282 109.559 104.203 109.235 104.8C108.259 106.598 104.848 106.344 104.568 106.321H104.571Z" fill="#5E5573"/>
<path d="M103.57 111.277C105.572 111.076 107.265 113.54 106.329 115.329C105.991 114.72 105.479 113.762 105.091 113.208C104.724 112.646 104.01 111.81 103.573 111.277H103.57Z" fill="#5E5573"/>
<path d="M107.048 115.653C105.288 115.306 103.619 115.012 101.859 114.886C100.359 114.755 98.1301 114.776 96.5977 114.767C99.7791 113.08 104.237 113.348 107.051 115.653H107.048Z" fill="#5E5573"/>
<path d="M93.207 140.463C97.8831 140.227 101.612 137.894 103.876 133.789C103.354 138.636 97.7957 142.106 93.207 140.463Z" fill="#5E5573"/>
<path d="M78.9509 120.323C81.8352 120.311 84.1717 120.311 85.7071 120.311C91.6533 120.317 94.4036 120.358 99.9362 120.337C101.955 120.331 103.59 120.32 104.586 120.311C104.936 121.529 105.375 123.723 104.851 126.359C104.018 130.543 101.308 133.066 100.341 133.888C99.4613 134.555 98.0803 135.402 96.2653 135.708C93.8413 136.119 92.9265 135.181 89.2352 134.913C85.541 134.645 85.2497 135.499 83.5832 134.811C80.7135 133.625 79.5773 130.26 79.0732 128.766C77.8525 125.141 78.5022 121.905 78.948 120.323H78.9509Z" fill="white"/>
<path d="M76.5625 119.25C80.4286 119.25 83.578 119.25 85.7077 119.25C91.8666 119.256 94.7975 119.268 100.275 119.262C102.996 119.262 105.213 119.253 106.62 119.25" stroke="#5E5573" stroke-width="2.33073" stroke-linecap="round" stroke-linejoin="round"/>
<path d="M80.1992 135.851C86.3436 131.743 95.5849 133.075 100.401 138.648C98.6731 138.042 97.0533 137.454 95.4072 136.993C92.957 136.288 90.501 135.848 87.9809 135.671C85.3793 135.484 82.8213 135.656 80.1992 135.848V135.851Z" fill="#5E5573"/>
<path d="M104.588 120.311C104.943 121.573 105.674 124.847 104.224 128.469C103.859 129.375 101.683 134.802 96.2699 135.708C91.7862 136.457 88.4008 133.55 88.0745 133.258C84.7124 130.275 83.7394 125.101 85.7117 120.314H104.591L104.588 120.311Z" fill="#5E5573"/>
<path d="M90.3899 128.401C89.9995 129.389 90.5035 130.496 91.5174 130.878C92.5313 131.259 93.6704 130.767 94.0608 129.779C94.4512 128.792 93.9472 127.685 92.9333 127.303C91.9195 126.921 90.7803 127.414 90.3899 128.401Z" fill="white"/>
<path d="M101.022 120.393C98.5519 120.331 98.042 120.326 98.042 120.326C97.2846 120.32 96.2328 120.326 94.9509 120.378C94.8839 120.792 94.7819 121.753 95.2219 122.659C95.8861 124.031 97.5963 124.876 99.1317 124.028C100.303 123.385 101.066 121.925 101.02 120.393H101.022Z" fill="white"/>
<path d="M109.656 99.6348C111.544 99.661 113.199 101.24 113.388 103.14C113.651 105.068 111.902 106.924 110.026 106.921C113.321 104.853 112.695 101.537 109.656 99.6348Z" fill="#5E5573"/>
<path d="M114.533 99.9229C118.326 102.548 116.613 108.611 112.062 108.984C112.881 108.465 113.577 107.894 114.134 107.221C115.943 105.091 115.865 102.309 114.533 99.9229Z" fill="#5E5573"/>
<path d="M96.3594 155.304C97.7462 155.616 99.5233 155.887 101.595 155.899C103.663 155.91 105.44 155.663 106.83 155.371" stroke="#5E5573" stroke-width="1.4567" stroke-linecap="round" stroke-linejoin="round"/>
<path d="M97.7287 152.103C97.5218 152.301 96.3623 153.457 96.3594 155.304C96.3594 157.224 97.6034 158.407 97.8073 158.594" stroke="#5E5573" stroke-width="1.4567" stroke-linecap="round" stroke-linejoin="round"/>
<path d="M93.2572 153.967C93.1872 155.316 93.129 156.738 93.732 157.947" stroke="#5E5573" stroke-width="0.582682" stroke-linecap="round" stroke-linejoin="round"/>
<path d="M108.343 164.263C109.735 166.477 111.553 168.211 114.056 168.98C114.86 169.245 115.711 169.426 116.649 169.577C113.016 171.442 108.13 168.365 108.343 164.26V164.263Z" fill="#5E5573"/>
<path d="M87.3899 144.947C88.1298 142.545 84.6407 139.338 79.597 137.785C74.5532 136.231 69.8646 136.919 69.1248 139.321C68.3849 141.723 71.8739 144.929 76.9177 146.483C81.9615 148.037 86.65 147.349 87.3899 144.947Z" fill="#FAC0D8"/>
<path d="M173.116 146.457C178.16 144.904 181.649 141.697 180.909 139.295C180.17 136.893 175.481 136.206 170.437 137.759C165.393 139.313 161.904 142.519 162.644 144.921C163.384 147.323 168.073 148.011 173.116 146.457Z" fill="#FAC0D8"/>
<path d="M164.734 149.637C166.663 147.852 168.589 146.066 170.517 144.28C168.633 141.733 168.076 138.916 169.209 137.177C169.824 136.23 170.783 135.845 170.867 135.813C172.904 135.035 174.995 136.679 175.214 136.853C175.462 134.403 177.192 132.457 179.357 132.07C181.519 131.682 184.347 132.804 184.747 135.059C185.018 136.591 184.106 138.296 182.46 139.289C184.604 138.61 186.873 139.126 188.321 140.548C189.111 141.323 189.664 142.5 189.699 144.277C189.577 144.757 189.219 145.879 188.167 146.765C186.952 147.785 185.557 147.866 185.052 147.863C183.817 147.86 182.349 147.347 182.349 147.347C182.471 147.487 183.718 148.935 183.269 150.887C182.865 152.653 181.396 153.434 181.186 153.538C180.971 153.64 179.561 154.284 178.057 153.614C176.767 153.043 175.913 151.729 175.852 150.243C173.227 150.785 170.605 151.33 167.98 151.872" fill="#8EC2A7"/>
<path d="M164.734 149.638C166.584 147.768 168.446 145.912 170.325 144.071L170.698 144.496C170.66 144.522 170.57 144.569 170.465 144.548C170.416 144.54 170.369 144.516 170.34 144.493C170.311 144.473 170.282 144.438 170.287 144.444C168.472 142.474 167.342 139.96 168.571 137.352C169.303 135.724 171.217 134.719 172.985 135.048C173.897 135.339 174.71 135.884 175.526 136.347L174.62 136.805C174.716 135.091 175.593 133.41 177.014 132.376C180.021 130.179 184.784 131.327 185.574 135.249C185.842 137.119 184.511 138.692 183.205 139.852L182.521 138.599C185.157 137.725 188.455 138.675 189.828 141.213C191.077 143.674 189.784 146.978 187.34 148.152C186.305 148.423 185.245 148.318 184.251 148.304C183.418 148.269 182.591 148.208 181.769 148.129L182.186 147.068C185.018 149.405 184.012 153.88 180.333 154.495C178.952 154.684 177.481 154.171 176.572 153.105C175.922 152.304 175.738 151.267 175.587 150.291L175.904 150.518C173.48 150.917 171.054 151.293 168.624 151.657C171.013 151.083 173.405 150.524 175.799 149.991C175.942 149.959 176.085 150.052 176.114 150.195C176.228 150.792 176.397 151.407 176.641 151.946C177.355 153.507 179.473 154.101 180.971 153.37C182.763 152.519 183.342 150.072 182.008 148.572C181.839 148.362 181.632 148.149 181.446 148.004C181.186 147.803 181.143 147.427 181.344 147.17C181.472 147.007 181.667 146.929 181.862 146.943C183.427 147.019 185.119 147.15 186.64 146.972C186.739 146.967 186.838 146.932 186.87 146.929C186.812 146.955 186.844 146.94 186.847 146.934C187.357 146.666 187.765 146.264 188.103 145.792C188.881 144.671 189.219 143.106 188.572 141.859C187.541 139.992 184.939 139.319 182.972 139.98C182.221 140.219 181.69 139.234 182.279 138.733C184.024 137.207 184.974 135.575 183.29 133.812C181.39 131.776 177.661 132.513 176.417 134.937C176.082 135.543 175.878 136.213 175.805 136.901C175.782 137.236 175.485 137.486 175.15 137.448C175.057 137.437 174.972 137.405 174.899 137.358C174.215 136.924 173.419 136.414 172.758 136.126C171.438 135.858 170.022 136.569 169.405 137.772C168.23 139.966 169.244 142.258 170.698 144.047C170.751 144.114 170.66 143.986 170.555 143.986C170.453 143.972 170.372 144.024 170.34 144.059L170.713 144.484C168.737 146.218 166.742 147.934 164.737 149.635L164.734 149.638Z" fill="#5E5573"/>
<path d="M166.332 150.757C168.616 147.497 172.969 146.317 176.78 146.762C174.991 147.421 173.179 147.867 171.401 148.461C169.613 149.035 168.022 149.877 166.332 150.757Z" fill="#5E5573"/>
<g filter="url(#filter0_dd_2106_598)">
<rect x="210.504" y="212.5" width="37.2472" height="171.337" rx="18.6236" transform="rotate(90 210.504 212.5)" fill="#5E5573" shape-rendering="crispEdges"/>
<path d="M103.64 231.578C104.331 231.347 105.044 231.716 105.251 232.383C105.665 233.649 106.862 234.569 108.266 234.569C110.015 234.569 111.442 233.142 111.442 231.416V222.28C111.442 221.567 112.017 221.015 112.73 221.015C113.421 221.015 113.996 221.567 113.996 222.28V231.416C113.996 234.569 111.419 237.124 108.266 237.124C105.734 237.124 103.571 235.467 102.835 233.165C102.605 232.475 102.996 231.762 103.64 231.578ZM119.542 225.64C120.255 225.64 120.785 226.17 120.785 226.906V235.881C120.785 236.571 120.255 237.124 119.542 237.124C118.852 237.124 118.299 236.571 118.299 235.881V226.906C118.299 226.17 118.852 225.64 119.542 225.64ZM120.785 222.257V222.741C120.785 223.431 120.255 224.006 119.542 224.006C118.852 224.006 118.299 223.431 118.299 222.741V222.257C118.299 221.567 118.852 221.015 119.542 221.015C120.255 221.015 120.785 221.567 120.785 222.257ZM125.163 224.029C124.472 224.029 123.897 223.431 123.897 222.764V222.303C123.897 221.567 124.472 221.038 125.163 221.038C125.853 221.038 126.405 221.567 126.405 222.303V222.764C126.405 223.431 125.853 224.029 125.163 224.029ZM123.874 241.197C123.138 241.197 122.608 240.667 122.608 239.931C122.608 239.264 123.138 238.711 123.874 238.711V226.883C123.874 226.17 124.449 225.617 125.117 225.617C125.83 225.617 126.359 226.17 126.359 226.883V238.711C126.359 240.069 125.255 241.197 123.874 241.197ZM131.975 225.64C132.688 225.64 133.218 226.17 133.218 226.906V235.881C133.218 236.571 132.688 237.124 131.975 237.124C131.285 237.124 130.732 236.571 130.732 235.881V226.906C130.732 226.17 131.285 225.64 131.975 225.64ZM133.218 222.257V222.741C133.218 223.431 132.688 224.006 131.975 224.006C131.285 224.006 130.732 223.431 130.732 222.741V222.257C130.732 221.567 131.285 221.015 131.975 221.015C132.688 221.015 133.218 221.567 133.218 222.257ZM138.562 237.124C137.849 237.124 137.297 236.548 137.297 235.858V222.28C137.297 221.59 137.849 221.015 138.562 221.015C139.276 221.015 139.851 221.59 139.851 222.28V230.243L144.569 225.525C145.052 225.042 145.88 225.042 146.364 225.525C146.87 226.031 146.87 226.837 146.364 227.32L142.912 230.772L146.456 235.029C146.893 235.582 146.824 236.387 146.272 236.824C146.041 237.031 145.742 237.124 145.466 237.124C145.098 237.124 144.73 236.962 144.5 236.663L141.117 232.567L139.851 233.833V235.858C139.851 236.548 139.276 237.124 138.562 237.124Z" fill="white"/>
</g>
<defs>
<filter id="filter0_dd_2106_598" x="36.1862" y="212.5" width="177.297" height="43.2066" filterUnits="userSpaceOnUse" color-interpolation-filters="sRGB">
<feFlood flood-opacity="0" result="BackgroundImageFix"/>
<feColorMatrix in="SourceAlpha" type="matrix" values="0 0 0 0 0 0 0 0 0 0 0 0 0 0 0 0 0 0 127 0" result="hardAlpha"/>
<feOffset dy="2.97977"/>
<feGaussianBlur stdDeviation="1.48989"/>
<feComposite in2="hardAlpha" operator="out"/>
<feColorMatrix type="matrix" values="0 0 0 0 0 0 0 0 0 0 0 0 0 0 0 0 0 0 0.25 0"/>
<feBlend mode="normal" in2="BackgroundImageFix" result="effect1_dropShadow_2106_598"/>
<feColorMatrix in="SourceAlpha" type="matrix" values="0 0 0 0 0 0 0 0 0 0 0 0 0 0 0 0 0 0 127 0" result="hardAlpha"/>
<feOffset dy="2.97977"/>
<feGaussianBlur stdDeviation="1.48989"/>
<feComposite in2="hardAlpha" operator="out"/>
<feColorMatrix type="matrix" values="0 0 0 0 0 0 0 0 0 0 0 0 0 0 0 0 0 0 0.25 0"/>
<feBlend mode="normal" in2="effect1_dropShadow_2106_598" result="effect2_dropShadow_2106_598"/>
<feBlend mode="normal" in="SourceGraphic" in2="effect2_dropShadow_2106_598" result="shape"/>
</filter>
<linearGradient id="paint0_linear_2106_598" x1="125" y1="0" x2="125" y2="250" gradientUnits="userSpaceOnUse">
<stop stop-color="#8EC2A7"/>
<stop offset="0.74" stop-color="#ACECC7"/>
</linearGradient>
</defs>
</svg>
