<svg width="513" height="497" viewBox="0 0 513 497" fill="none" xmlns="http://www.w3.org/2000/svg">
<g clip-path="url(#clip0_1561_767)">
<path d="M310.734 496.94C393.114 496.94 459.896 486.162 459.896 472.865C459.896 459.569 393.114 448.79 310.734 448.79C228.354 448.79 161.572 459.569 161.572 472.865C161.572 486.162 228.354 496.94 310.734 496.94Z" fill="#EEB5CD"/>
<path d="M115.254 202.571C116.848 218.099 118.392 225.6 120.972 234.106C124.597 246.059 127.287 249.017 129.418 260.183C131.699 272.066 129.448 272.893 131.49 286.101C132.964 295.624 134.498 305.524 141.022 315.784C147.377 325.785 155.336 331.203 160.247 334.47C173.215 343.116 185.487 345.497 192.848 346.861C203.894 348.903 216.007 348.356 240.231 347.27C243.827 347.11 248.03 346.861 253.041 346.413C254.943 346.234 261.766 345.596 270.89 344.212C273.271 343.843 278.62 343.007 285.632 341.602C296.26 339.491 309.119 336.931 324.469 331.96C334.22 328.803 345.884 324.968 360.198 317.318C375.338 309.22 385.598 301.062 389.144 298.154C394.383 293.86 398.308 289.956 406.147 282.157C424.654 263.749 430.471 254.675 434.495 245.8C434.744 245.242 435.083 244.495 435.521 243.459C445.153 220.44 439.854 198.766 439.067 195.658C434.246 176.822 423.259 164.959 418.14 160.058C416.884 156.423 415.022 151.153 412.572 144.868C407.611 132.128 402.69 121.251 400.28 116.56C393.935 104.208 378.117 77.7229 347.657 58.0903C330.296 46.8945 314.937 42.2926 310.056 40.9181C279.636 32.3917 253.031 36.7146 249.126 37.9199C246.546 38.7167 245.261 38.8462 242.682 39.1251C239.982 39.414 238.618 39.5435 237.462 38.9458C234.504 37.4119 234.195 32.6407 234.095 31.0569C233.657 24.2637 237.153 20.5683 235.968 19.5623C234.593 18.3869 228.179 21.903 224.035 27.6603C224.035 27.6603 222.352 30.0111 217.909 41.5854C211.186 18.3471 208.596 18.377 208.596 18.377C207.331 18.3969 206.365 20.0902 204.96 22.5804C202.958 26.0965 202.55 29.4732 202.43 31.5649C201.922 40.3005 205.508 46.1673 204.412 46.755C203.227 47.3925 200.08 40.0017 192.599 37.4418C189.412 36.3461 184.581 35.8381 183.405 37.7705C181.523 40.8882 191.513 46.3666 191.155 53.5482C190.816 60.5407 180.985 63.1603 168.116 71.866C152.557 82.3845 143.513 94.4469 138.413 101.16C128.074 114.777 122.944 127.437 121.081 132.407C110.881 159.64 113.362 183.884 115.274 202.561H115.264V202.571H115.254Z" fill="#C0B4DF"/>
<path d="M166.373 187.531C166.373 187.531 167.408 183.586 183.505 178.705C183.505 178.705 189.83 173.317 180.806 171.195C180.806 171.195 168.484 172.271 165.516 185.16C165.516 185.16 164.739 188.407 166.363 187.531H166.373Z" fill="#5E5573"/>
<path d="M205.06 271.559C205.06 271.559 182.011 280.454 163.763 262.295C163.763 262.295 146.063 239.625 170.845 214.066C171.871 213.289 185.089 203.667 200.906 209.225C214.792 214.115 219.672 226.845 220.31 228.598C220.838 229.784 228.259 247.006 218.437 261.08C214.104 267.296 208.267 270.254 205.05 271.559H205.06Z" fill="#FDFEFD"/>
<path d="M171.055 268.072C169.541 265.064 167.638 260.572 166.533 254.884C165.377 248.878 163.793 240.7 167.718 232.094C172.549 221.486 182.51 217.313 184.362 216.585C200.469 210.191 215.201 220.361 216.366 221.187C214.693 218.747 211.057 214.155 204.772 210.918C203.208 210.121 199.074 208.159 193.566 207.621C184.073 206.704 173.107 210.28 165.656 218.677C157.966 227.343 157.419 237.304 157.299 240.461C157.16 243.818 156.711 255.213 164.72 263.401C167.021 265.762 169.401 267.206 171.065 268.062H171.055V268.072Z" fill="#5E5573"/>
<path d="M181.453 217.92C178.923 220.789 174.769 226.357 173.365 234.286C171.144 246.826 176.184 263.042 189.073 269.019C196.424 272.425 203.765 271.32 207.709 270.343C213.467 267.395 216.714 263.58 218.318 261.379C225.27 251.767 224.085 240.581 222.999 235.859C221.874 230.939 219.174 225.59 218.128 223.946C218.089 223.887 216.375 221.197 216.375 221.197C213.178 219.016 207.042 215.49 198.894 214.683C196.245 214.414 191.483 213.996 185.915 215.918C184.023 216.575 182.519 217.332 181.473 217.93H181.453V217.92Z" fill="#5E5573"/>
<path d="M204.351 237.578C208.467 236.101 210.381 230.937 208.625 226.044C206.869 221.15 202.109 218.381 197.992 219.858C193.876 221.336 191.962 226.5 193.718 231.393C195.474 236.286 200.235 239.055 204.351 237.578Z" fill="#F9FCFE"/>
<path d="M194.303 258.939C196.784 258.939 198.795 256.928 198.795 254.447C198.795 251.966 196.784 249.955 194.303 249.955C191.822 249.955 189.811 251.966 189.811 254.447C189.811 256.928 191.822 258.939 194.303 258.939Z" fill="#F9FCFE"/>
<path d="M342.319 134.121C342.319 134.121 339.012 131.741 323.483 138.205C323.483 138.205 315.176 138.066 320.784 130.695C320.784 130.695 330.984 123.692 341.462 131.751C341.462 131.751 344.122 133.763 342.309 134.121H342.319Z" fill="#5E5573"/>
<path d="M364.682 214.822C364.682 214.822 388.129 207.033 390.669 181.414C390.669 181.414 389.922 152.657 354.542 148.693C353.257 148.743 336.931 149.719 328.265 164.072C320.656 176.673 324.988 189.612 325.606 191.365C325.945 192.61 331.174 210.619 347.699 215.251C355 217.293 361.385 215.858 364.692 214.832H364.682V214.822Z" fill="#FDFEFD"/>
<path d="M388.716 190.509C387.969 187.222 386.584 182.55 383.815 177.45C380.897 172.081 376.912 164.76 368.416 160.616C357.937 155.497 347.598 158.614 345.715 159.222C329.22 164.531 324.31 181.743 323.941 183.118C323.682 180.169 323.563 174.312 326.362 167.818C327.059 166.214 329.001 162.061 332.916 158.156C339.659 151.413 350.397 147.209 361.493 148.943C372.938 150.745 379.691 158.086 381.793 160.437C384.034 162.947 391.624 171.444 390.648 182.859C390.369 186.136 389.453 188.765 388.706 190.489H388.716V190.509Z" fill="#5E5573"/>
<path d="M348.804 158.405C352.579 159.012 359.322 160.676 365.448 165.895C375.14 174.152 381.554 189.88 375.409 202.69C371.902 209.991 365.538 213.806 361.872 215.559C355.557 216.944 350.626 216.067 347.987 215.38C336.512 212.382 330.316 202.989 328.145 198.656C325.884 194.144 324.569 188.297 324.33 186.364C324.32 186.295 323.932 183.127 323.932 183.127C325.017 179.412 327.518 172.788 333.285 166.981C335.157 165.088 338.564 161.731 344.092 159.68C345.965 158.982 347.608 158.614 348.804 158.405Z" fill="#5E5573"/>
<path d="M343.72 188.088C347.836 186.611 349.75 181.447 347.994 176.554C346.238 171.66 341.478 168.891 337.362 170.368C333.245 171.846 331.332 177.01 333.087 181.903C334.843 186.796 339.604 189.565 343.72 188.088Z" fill="#F9FCFE"/>
<path d="M362.15 199.225C364.631 199.225 366.643 197.213 366.643 194.732C366.643 192.251 364.631 190.24 362.15 190.24C359.669 190.24 357.658 192.251 357.658 194.732C357.658 197.213 359.669 199.225 362.15 199.225Z" fill="#F9FCFE"/>
<path d="M182.492 298.806C195.132 298.228 205.155 292.881 204.879 286.863C204.604 280.846 194.134 276.436 181.495 277.015C168.856 277.593 158.833 282.94 159.108 288.958C159.383 294.975 169.853 299.384 182.492 298.806Z" fill="#FAC0D8"/>
<path d="M399.427 220.858C409.551 213.268 414.828 203.208 411.215 198.389C407.601 193.569 396.465 195.815 386.342 203.405C376.218 210.994 370.941 221.054 374.554 225.874C378.168 230.694 389.304 228.448 399.427 220.858Z" fill="#FAC0D8"/>
<path d="M121.072 132.418C117.715 132.338 112.635 132.169 106.46 131.85C82.5141 130.585 78.2211 128.852 66.9356 129.579C58.9172 130.087 49.1159 130.715 39.0854 136.532C25.9373 144.162 19.8712 156.373 17.4009 162.38C12.1218 175.229 8.98414 185.379 6.80275 197.441C5.29868 205.749 3.76473 214.245 3.94402 225.561C4.18308 240.86 4.51178 262.256 18.397 274.846C23.8256 279.777 31.1766 283.203 38.1491 286.46C45.8488 290.056 50.092 291.022 57.3534 295.166C63.7083 298.792 68.4297 302.587 71.4179 305.236C74.8344 309.39 78.3207 313.842 81.8169 318.624C85.0043 322.966 87.9427 327.23 90.6521 331.353C92.0565 333.415 94.1981 336.314 97.1763 339.431C102.206 344.681 110.753 353.606 123.473 355.329C134.37 356.803 143.314 352.301 147.448 349.801C147.448 349.801 155.855 343.316 160.258 334.471C157.718 333.027 154.002 330.626 150.137 326.981C134.758 312.458 132.049 292.128 131.491 286.102C130.714 277.745 132.168 276.33 130.724 266.848C129.3 257.525 126.74 251.309 124.997 246.608C115.982 222.234 114.687 199.334 114.169 190.001C113.442 177.132 114.239 167.729 114.438 165.488C115.663 151.801 118.512 140.526 121.052 132.428H121.072V132.418Z" fill="#C0B4DF"/>
<path d="M38.1495 286.44C43.0402 289.668 47.8313 289.717 57.3537 295.146C63.7087 298.772 68.43 302.567 71.4182 305.216C74.8348 309.37 78.321 313.822 81.8172 318.603C85.0047 322.946 87.9431 327.21 90.6524 331.333C92.0569 333.395 94.1984 336.294 97.1767 339.411C102.207 344.661 110.753 353.586 123.473 355.309C134.37 356.783 143.315 352.281 147.448 349.781C147.448 349.781 155.855 343.296 160.258 334.451C157.718 333.007 154.003 330.606 150.138 326.961C134.758 312.438 132.049 292.108 131.491 286.082C130.714 277.725 132.169 276.31 130.724 266.828C130.356 264.397 129.908 262.196 129.419 260.164C127.746 253.251 125.246 247.185 124.997 246.588C121.242 237.384 119.23 226.985 117.497 218.08C116.152 211.137 114.698 201.595 114.17 189.981C114.17 189.981 87.8833 172.45 60.1228 176.205C56.3178 176.723 54.1364 177.022 51.198 178.177C26.5452 187.939 21.8139 229.933 25.1706 255.702C26.5751 266.499 28.3182 279.946 38.1495 286.43V286.44Z" fill="#ACECC7"/>
<path d="M26.2257 249.456C27.9788 249.845 29.2538 237.195 39.4735 225.81C47.1632 217.233 56.088 213.638 59.7734 212.153C86.1494 201.535 113.243 215.759 117.516 218.09C116.639 213.219 115.872 208.05 115.265 202.571C114.777 198.208 114.428 194.005 114.189 189.991C104.945 187.042 97.0564 184.712 91.0202 182.988C80.412 179.96 76.4875 179.044 71.2681 178.785C65.4212 178.486 59.9229 178.197 53.807 180.857C47.1632 183.745 43.4677 188.507 40.2903 192.71C38.0989 195.609 32.999 202.93 29.0048 219.265C25.4687 233.708 24.2934 249.048 26.2257 249.476V249.456Z" fill="#8EC2A7"/>
<path d="M155.924 334.321C150.994 341.114 145.625 348.724 137.188 351.274C130.863 353.187 124.01 351.862 118.014 349.471C105.473 344.491 95.7416 336.174 88.2412 325.008C80.7308 313.852 75.0133 301.441 63.2597 294.379C58.379 291.45 52.781 290.096 47.5417 287.954C39.6428 284.727 32.0129 280.653 25.0106 275.772C5.17877 261.977 7.48966 232.333 9.55152 211.037C11.7329 188.496 14.8606 161.373 33.1883 145.645C43.3582 136.91 57.5024 132.716 70.7701 132.975C87.1355 133.294 103.491 135.187 119.886 135.615C124.07 135.724 123.532 129.25 119.398 129.14C103.461 128.722 87.6137 127.108 71.6964 126.541C59.0961 126.092 46.3862 129.429 35.5888 135.924C12.2808 149.938 6.28441 179.761 3.69462 204.722C2.53918 215.799 1.60287 226.945 2.17063 238.081C2.84796 251.309 5.39791 266.329 15.1096 276.121C19.8011 280.852 26.0863 284.388 31.8635 287.596C38.7364 291.42 45.8882 294.359 53.289 296.949C67.3436 301.859 73.6985 314.41 81.2786 326.203C89.9743 339.72 101.499 350.388 116.769 355.916C124.03 358.536 131.879 359.681 139.399 357.37C148.972 354.432 155.297 346.244 160.925 338.475C163.355 335.108 158.404 330.905 155.944 334.301H155.934V334.321H155.924Z" fill="#5E5573"/>
<path d="M40.7593 285.375C28.0295 265.732 26.5553 244.088 31.197 221.646C33.2489 211.705 36.1276 201.356 42.2235 193.069C49.7837 182.799 60.9497 179.632 73.3209 181.016C85.6921 182.401 98.8203 187.63 110.484 193.119C114.269 194.902 117.048 189.035 113.253 187.252C92.1666 177.321 60.7206 164.97 41.1378 184.363C32.9302 192.481 28.7566 203.976 26.0473 214.953C23.0691 227.025 21.2363 239.506 22.332 251.947C23.4974 265.194 28.2387 277.984 35.4502 289.12C37.7213 292.626 43.0303 288.891 40.7593 285.385V285.375Z" fill="#5E5573"/>
<path d="M120.713 135.426C120.623 134.55 115.005 134.889 99.8452 134.281C83.7188 133.624 80.2923 132.837 69.3454 133.175C58.6377 133.504 54.245 134.5 50.6591 135.675C42.8599 138.245 37.6903 142.08 36.6544 142.877C27.1817 150.069 23.0978 159.342 18.8944 168.885C15.6273 176.315 13.924 182.411 13.2168 185.15C4.91953 216.895 10.2386 249.517 10.2485 249.536C10.2485 249.536 8.90382 231.667 10.119 217.074C12.1311 192.75 21.3348 176.036 23.7054 171.913C29.403 162.012 34.9511 156.404 38.1086 153.545C41.5849 150.377 46.4258 146.045 53.996 143.106C55.3905 142.568 59.7433 140.955 69.1462 140.088C83.0713 138.793 86.2388 141.134 98.3909 140.387C110.045 139.67 120.832 136.682 120.713 135.446V135.426Z" fill="#DACFF3"/>
<path d="M339.072 52.1344C341.612 49.933 345.427 46.5763 349.989 42.4027C367.669 26.2066 369.881 22.1426 379.055 15.5188C385.569 10.8074 393.528 5.06998 404.972 3.18741C419.973 0.717149 432.424 6.28519 438.142 9.35309C450.383 15.9172 459.258 21.7542 468.611 29.6829C475.056 35.1414 481.63 40.7194 488.692 49.5645C498.235 61.5273 511.582 78.2514 508.863 96.7982C507.807 104.06 504.321 111.371 500.994 118.323C497.338 125.993 494.679 129.439 491.71 137.249C489.101 144.092 487.885 150.018 487.258 153.963C487.258 159.342 487.407 164.999 487.746 170.906C488.055 176.285 488.493 181.444 489.021 186.345C489.25 188.825 489.439 192.431 489.12 196.724C488.583 203.976 487.656 216.297 478.931 225.71C471.45 233.778 461.699 235.989 456.908 236.687C456.908 236.687 446.289 237.025 437.275 233.001C438.321 230.262 439.656 226.058 440.323 220.789C442.963 199.802 432.125 182.391 428.729 177.38C424.017 170.438 421.995 170.268 417.085 162.031C412.254 153.923 410.281 147.508 408.638 142.767C400.102 118.224 386.535 99.7267 381.007 92.1864C373.377 81.7874 366.793 75.034 365.209 73.4304C355.557 63.649 346.194 56.7561 339.082 52.1244H339.072V52.1344Z" fill="#C0B4DF"/>
<path d="M501.014 118.323C499.291 123.921 495.625 127.009 491.731 137.249C489.121 144.092 487.906 150.018 487.278 153.963C487.278 159.342 487.428 164.999 487.766 170.906C488.075 176.285 488.513 181.444 489.041 186.345C489.27 188.825 489.46 192.431 489.141 196.724C488.603 203.976 487.677 216.297 478.951 225.71C471.47 233.778 461.719 235.989 456.928 236.687C456.928 236.687 446.31 237.025 437.295 233.001C438.341 230.262 439.676 226.058 440.343 220.789C442.983 199.802 432.146 182.391 428.749 177.38C424.038 170.438 422.015 170.268 417.105 162.031C415.85 159.919 414.794 157.937 413.878 156.055C410.77 149.66 408.847 143.385 408.658 142.767C405.71 133.274 400.65 123.971 396.327 115.993C392.95 109.777 388 101.49 381.037 92.1964C381.037 92.1964 390.181 61.9557 413.997 47.2038C417.264 45.1818 419.137 44.0264 422.145 43.0502C447.375 34.9123 477.726 64.3163 491.521 86.3395C497.299 95.5631 504.51 107.058 501.044 118.313H501.014V118.323Z" fill="#ACECC7"/>
<path d="M486.701 82.1853C485.596 83.5997 476.571 74.655 461.441 72.354C450.056 70.6209 440.882 73.5194 437.087 74.7247C409.974 83.2909 398.111 111.5 396.288 116.012C393.867 111.699 391.168 107.217 388.16 102.605C385.769 98.9292 383.369 95.4629 380.998 92.2057C386.257 84.0579 390.859 77.2448 394.425 72.0652C400.69 62.981 403.141 59.7836 407.005 56.2575C411.328 52.3031 415.392 48.5977 421.797 46.755C428.76 44.7629 434.636 46.0876 439.756 47.3128C443.282 48.1595 451.878 50.57 465.345 60.6303C477.258 69.5352 487.916 80.6214 486.701 82.1853Z" fill="#8EC2A7"/>
<path d="M439.347 236.527C448.023 238.788 457.197 240.9 466.022 238.131C472.716 236.029 478.254 231.178 482.218 225.501C489.868 214.524 493.922 201.027 493.822 187.69C493.713 173.655 488.344 159.003 491.99 145.098C493.693 138.573 498.036 133.125 501.133 127.228C505.197 119.509 508.405 111.311 510.766 102.904C517.877 77.6038 496.761 54.4352 480.256 37.8705C463.213 20.758 442.973 1.72308 417.533 0.099482C402.891 -0.836825 387.402 4.78102 376.077 13.9648C370.27 18.6762 365.04 24.1148 359.602 29.2445C352.639 35.8186 345.527 42.2333 338.296 48.5185C335.168 51.2278 338.873 56.5767 342.031 53.8276C353.526 43.8469 364.403 33.2587 375.589 22.9494C384.304 14.9111 394.873 9.17369 406.646 7.13175C431.757 2.76895 453.74 20.9074 470.474 37.2828C477.815 44.4645 485.037 51.7856 491.302 59.9335C498.733 69.5854 507.02 82.116 505.825 94.9155C505.237 101.091 502.767 107.347 500.486 113.034C497.737 119.937 494.31 126.461 490.436 132.776C483.294 144.4 483.872 156.951 485.625 169.989C486.681 177.839 487.836 185.807 487.119 193.736C486.461 201.017 484.22 207.85 481.102 214.414C478.234 220.45 474.349 226.317 468.542 229.873C459.906 235.162 449.637 232.503 440.513 230.122C436.459 229.066 435.293 235.461 439.327 236.507L439.347 236.527Z" fill="#5E5573"/>
<path d="M504.799 118.662C503.425 106.669 499.61 94.9054 493.245 84.616C486.731 74.0974 477.786 65.5511 468.154 57.9312C459.349 50.9687 449.478 44.544 438.361 42.1235C424.944 39.2051 413.081 44.2651 403.439 53.5584C393.19 63.4395 386.008 76.737 379.982 89.4967C378.199 93.2818 384.066 96.0509 385.849 92.2658C394.544 73.8683 409.724 44.4842 434.437 48.0203C444.856 49.5144 454.189 55.3713 462.387 61.6764C471.391 68.5991 479.788 76.2589 486.203 85.7017C492.936 95.6225 496.95 107.267 498.325 119.15C498.803 123.293 505.278 122.815 504.799 118.662Z" fill="#5E5573"/>
<path d="M341.273 54.2456C340.775 53.5085 345.347 50.2015 356.652 40.0914C368.675 29.3338 370.826 26.5448 379.492 19.8412C387.969 13.2871 391.993 11.2651 395.509 9.89049C403.169 6.91223 409.593 6.59349 410.898 6.54369C422.781 6.07553 431.826 10.6375 441.139 15.329C448.38 18.9846 453.57 22.6103 455.861 24.2638C482.446 43.4979 499.08 72.0553 499.09 72.0752C499.09 72.0752 488.771 57.433 478.551 46.9344C461.529 29.4434 443.798 22.3912 439.346 20.7078C428.658 16.6837 420.799 15.8868 416.546 15.6876C411.845 15.4486 405.36 15.1896 397.641 17.7296C396.226 18.1977 391.833 19.7217 384.024 25.0308C372.46 32.8798 371.494 36.7047 361.643 43.8565C352.2 50.7095 341.96 55.2616 341.273 54.2356V54.2456Z" fill="#DACFF3"/>
<path d="M132.865 118.493C143.094 104.797 148.204 97.9536 153.872 92.1365C174.849 70.6114 198.815 65.0733 197.47 53.8874C197.221 51.8056 195.876 47.6819 196.454 47.4627C197.131 47.2037 198.894 52.9112 202.799 53.5587C204.283 53.8077 205.528 53.2399 205.797 53.1005C207.889 52.0845 208.586 49.8832 208.746 49.3055C209.512 46.5364 207.779 45.3112 207.391 41.6755C206.973 37.7411 208.437 33.9062 209.303 33.9161C210.867 33.9261 209.881 46.5264 215.19 48.5484C216.963 49.2258 219.045 48.5783 220.28 47.7615C222.521 46.2774 222.292 44.0163 224.493 39.0658C225.589 36.6055 227.452 32.4121 228.826 32.6113C230.699 32.8802 228.946 40.8687 232.97 44.8032C236.357 48.1102 242.572 47.3133 247.552 45.9985C253.19 44.7833 261.966 43.3091 272.783 43.2294C276.13 43.1995 285.772 43.2593 311.759 48.3592C319.638 49.9031 330.515 52.204 343.474 55.4911C338.046 52.1243 330.665 48.1201 321.511 44.6339C315.226 42.2433 303.95 38.518 289.308 36.9243C289.308 36.9243 273.938 35.2608 257.663 37.3626C252.712 38 250.232 38.3188 248.459 38.9065C246.586 39.524 245.142 40.2113 242.861 40.2213C241.018 40.2312 238.777 39.8029 237.452 38.9363C234.155 36.7649 233.438 29.7526 236.735 22.1426C236.735 22.1426 222.71 25.5989 218.557 43.7175C213.188 25.7583 209.722 22.1625 207.54 22.3418C204.522 22.5908 201.395 30.2406 201.554 36.476C201.644 39.7033 202.689 45.4507 202.689 45.4507C202.689 45.4507 200.169 42.4724 197.36 40.4902C196.633 39.9723 194.81 38.6873 192.549 38.0498C188.007 36.7649 183.804 38.6574 182.071 39.5738C183.386 40.032 186.882 41.4365 189.223 45.0921C189.91 46.1579 192.221 49.7537 191.135 53.5587C190.488 55.8496 188.884 57.1047 185.706 59.5152C181.752 62.5233 179.581 63.0911 173.255 66.8562C173.255 66.8562 171.423 67.9419 168.385 69.8942C158.862 76.03 150.953 84.5863 147.168 88.73C139.588 97.0272 134.937 103.98 133.701 105.852C131.102 109.787 128.263 114.15 125.524 120.465C122.984 126.342 121.549 131.571 120.723 135.416C123.611 131.222 127.735 125.356 132.875 118.483H132.865V118.493Z" fill="#DACFF3"/>
<path d="M121.062 132.417C122.965 126.102 125.893 118.652 130.505 110.882C134.599 103.97 138.524 99.3278 142.847 94.198C149.49 86.3291 155.128 81.1495 159.451 77.215C163.216 73.7786 165.706 71.7864 168.406 69.9039C171.095 68.0312 171.972 67.6627 177.181 64.5549C189.702 57.0745 190.927 55.3811 191.365 53.4488C192.232 49.7135 189.931 46.1575 189.234 45.0818C186.783 41.2967 183.197 39.942 182.082 39.5635C183.257 38.926 187.401 36.8741 192.561 38.0395C200.111 39.7428 203.099 46.8348 203.368 47.5221C202.432 44.9423 200.778 39.3045 201.973 32.2424C203.039 25.9771 205.828 21.5645 207.442 19.3931C209.354 21.7338 211.605 24.9611 213.548 29.1048C215.918 34.1847 216.974 38.8264 217.462 42.2031C218.03 39.4539 219.634 33.5074 224.634 27.9493C228.857 23.2479 233.539 21.0167 236.099 20.0007C233.091 32.7006 235.003 37.3124 237.424 39.1352C240.651 41.5656 245.103 39.2747 255.114 37.5714C263.052 36.2267 268.75 36.2267 277.545 36.2267C280.344 36.2267 294.299 36.3362 311.81 41.217C319.201 43.2789 328.704 46.5958 339.113 52.1041" stroke="#5E5573" stroke-width="5.97643" stroke-linecap="round" stroke-linejoin="round"/>
<path d="M117.915 144.828C118.104 142.527 118.423 139.987 118.732 137.696C118.961 136.302 119.26 134.359 119.36 132.965C119.718 130.465 120.814 128.393 122.716 126.49C122.806 126.411 122.935 126.411 123.015 126.49C123.832 129.06 123.712 131.491 122.816 133.851C121.89 135.863 121.023 138.463 120.156 140.505C119.539 141.979 118.931 143.454 118.254 144.908C118.174 145.087 117.885 145.017 117.905 144.818H117.915V144.828Z" fill="#5E5573"/>
<path d="M348.804 59.8234C346.723 58.8273 344.472 57.6021 342.44 56.4865C341.214 55.7793 339.511 54.7932 338.256 54.1856C336.055 52.9505 334.521 51.1874 333.425 48.7271C333.385 48.6176 333.425 48.498 333.545 48.4482C336.244 48.6176 338.465 49.5937 340.338 51.297C341.882 52.8808 343.983 54.6338 345.587 56.1778C346.743 57.2834 347.898 58.3791 349.004 59.5345C349.143 59.664 348.964 59.923 348.795 59.8234H348.804Z" fill="#5E5573"/>
<path d="M401.594 263.85C404.353 259.935 407.351 257.445 407.67 257.166C410.628 254.686 418.886 245.432 441.676 216.486C441.108 220.291 440.411 223.598 439.764 226.278C438.847 230.013 437.622 234.187 435.959 238.639C435.172 240.741 434.405 242.613 433.678 244.237C424.514 265.144 410.957 278.034 400.309 287.954C394.223 293.632 387.719 298.602 386.055 299.867C386.006 299.907 385.806 300.136 385.737 300.107C385.428 299.917 389.661 293.841 393.257 285.644C395.677 280.135 397.052 276.988 397.67 273.332C397.789 272.635 398.048 270.922 398.885 268.76C399.602 266.907 400.508 265.354 401.574 263.84H401.594V263.85Z" fill="#A394C5"/>
<path d="M143.254 314.41C154.56 319.111 171.214 324.809 192.042 327.628C207.033 329.66 218.647 329.45 225.928 329.291C225.928 329.291 241.626 328.952 289.049 321.362C289.049 321.362 292.854 322.846 292.984 322.906C304.936 327.558 344.052 327.209 331.223 327.07C331.223 327.07 317.188 331.931 313.064 333.325C302.606 336.851 280.981 344.162 253.031 346.413C246.885 346.911 242.254 347.011 237.692 347.121C228.707 347.33 214.951 347.24 197.699 345.368C188.267 344.352 184.083 343.445 180.139 342.27C174.122 340.477 162.438 336.851 152.249 326.492C147.806 321.98 144.967 317.517 143.244 314.42L143.254 314.41Z" fill="#A394C5"/>
<path d="M238.697 295.215C238.697 295.215 249.544 295.175 249.873 285.663" stroke="#5E5573" stroke-width="5.97643" stroke-linecap="round" stroke-linejoin="round"/>
<path d="M247.023 277.704C268.947 342.2 384.133 342.877 398.914 268.769C408.108 255.382 399.691 237.164 384.75 249.346C379.929 250.472 372.558 242.652 368.395 246.916C362.259 250.472 364.918 260.373 368.773 267.216C353.892 279.975 338.473 261.13 336.361 245.651" stroke="#5E5573" stroke-width="5.97643" stroke-linecap="round" stroke-linejoin="round"/>
<path d="M257.673 236.905C265.661 224.942 281.688 216.157 296.231 218.986C298.342 219.384 300.404 219.982 302.337 220.878C302.406 220.908 302.446 220.998 302.406 221.077C298.253 221.157 294.249 220.789 289.946 221.317C277.076 222.113 266.289 227.134 257.892 237.084C257.792 237.224 257.553 237.064 257.663 236.915L257.673 236.905Z" fill="#5E5573"/>
<path d="M262.473 252.265C268.669 242.921 273.141 239.116 283.659 234.983C290.154 232.263 297.355 230.54 304.388 232.014C306.718 232.463 308.989 233.19 311.061 234.315C311.151 234.365 311.191 234.475 311.131 234.564C311.091 234.634 311.031 234.664 310.962 234.654C308.631 234.535 306.4 234.475 304.178 234.544C301.967 234.594 299.776 234.823 297.604 235.122C291.01 235.969 284.436 237.324 278.31 240.033C276.239 240.889 274.246 241.826 272.444 243.091C268.768 245.571 265.77 249.067 262.742 252.474C262.682 252.553 262.563 252.553 262.483 252.494C262.413 252.434 262.403 252.334 262.453 252.255H262.473V252.265Z" fill="#5E5573"/>
<path d="M276.12 269.776C277.524 268.361 278.192 266.429 279.297 264.756C280.383 263.012 281.628 261.349 282.993 259.775C287.186 255.004 292.705 251.568 298.621 249.277C304.618 247.105 311.7 247.573 317.228 250.801C317.437 250.93 317.367 251.269 317.118 251.289C313.712 251.737 308.771 252.315 305.494 253.002L299.996 254.078C292.436 255.482 285.632 259.954 280.542 265.662C279.188 267.156 278.142 268.999 276.419 270.154C276.18 270.314 275.871 269.965 276.1 269.766H276.12V269.776Z" fill="#5E5573"/>
<path d="M294.826 286.808C295.693 279.248 300.235 272.236 306.291 267.654C307.835 266.479 309.439 265.343 311.152 264.357C314.548 262.405 318.533 261.638 322.417 261.737C324.36 261.797 326.282 262.086 328.145 262.753C328.374 262.833 328.384 263.172 328.155 263.261C323.105 265.263 318.274 267.036 313.244 268.889C304.936 271.748 298.203 278.571 295.304 286.908C295.225 287.177 294.766 287.097 294.816 286.798L294.826 286.808Z" fill="#5E5573"/>
<path d="M337.069 289.478C333.393 285.723 337.657 274.427 341.631 271.947C343.573 270.742 345.844 270.064 348.165 270.602C348.335 270.642 348.434 270.802 348.394 270.971C347.319 272.853 346.153 274.258 344.888 275.812C343.822 277.206 342.219 278.033 341.093 279.388C339.27 281.728 336.332 286.181 337.467 289.209C337.587 289.458 337.238 289.687 337.059 289.498V289.478H337.069Z" fill="#5E5573"/>
<path d="M365.258 284.049C364.172 282.276 362.768 280.832 361.842 278.939C361.304 277.864 360.577 276.688 360.965 275.403C361.314 274.049 362.39 272.704 363.943 272.664C364.103 272.664 364.232 272.764 364.272 272.913C364.651 274.367 365.089 274.965 365.288 275.662C365.398 276.001 365.408 276.33 365.308 276.708C365.049 277.555 365.179 278.421 365.328 279.318C365.358 279.776 366.284 284.896 365.248 284.049H365.258Z" fill="#5E5573"/>
<path d="M114.897 170.198C114.478 190.698 116.56 211.416 122.437 231.098C125.027 239.545 129.668 247.284 131.451 256.02C132.796 261.797 133.792 267.684 133.941 273.641C134.001 276.619 133.961 279.517 134.25 282.396C134.509 285.275 135.017 288.143 135.645 290.982C137.487 299.548 139.559 308.065 143.663 315.794C151.094 330.038 162.758 335.775 177.539 340.347C218.159 352.32 275.633 344.312 315.784 332.02C326.94 328.564 338.136 325.068 348.794 320.336C370.02 310.894 389.045 296.829 404.982 279.975C412.772 271.519 420.95 263.012 426.767 253.072C430.97 245.601 434.775 237.732 437.195 229.515C439.506 221.446 440.074 212.85 437.813 204.702C434.934 194.403 429.396 184.781 423.23 176.035L422.613 175.139L422.294 174.691L422.135 174.472C422.135 174.472 421.906 174.203 422.224 174.531L421.956 174.223C416.437 166.672 410.859 158.405 408.359 149.211C403.219 129.907 393.906 111.908 383.178 95.1146L382.79 94.5369C382.66 94.3277 382.551 94.2181 382.312 93.7898L382.431 93.989C379.423 90.184 373.347 82.3649 370.369 78.52C370.289 78.4105 370.299 78.2511 370.409 78.1714C370.518 78.0917 370.668 78.1017 370.757 78.2113C373.975 81.9266 380.34 89.3772 383.517 93.1125L383.637 93.3117C383.667 93.2519 383.826 93.5408 383.965 93.7101L384.374 94.2779C391.715 104.617 398.199 115.594 403.578 127.079C405.939 132.238 408.16 137.428 409.963 142.826C411.148 146.353 412.015 149.908 413.549 153.265C415.053 156.542 416.846 159.79 418.818 162.808C420.87 165.866 424.157 170.258 425.641 172.26C428.131 175.707 430.631 179.233 432.902 182.829C438.411 191.873 443.092 201.844 443.999 212.541C444.995 224.833 440.761 236.816 435.402 247.653C434.137 250.303 432.703 253.121 431.229 255.641C425.193 266.12 416.876 274.736 408.688 283.462C392.223 300.684 372.451 314.878 350.557 324.331C339.65 329.032 328.275 332.429 316.94 335.805C276.041 347.928 217.88 355.468 176.713 342.917C161.343 338.017 149.251 331.841 141.621 316.8C137.507 308.852 135.455 299.987 133.702 291.321C133.095 288.422 132.617 285.474 132.378 282.486C132.129 279.497 132.198 276.509 132.168 273.601C132.099 267.774 131.192 261.986 129.937 256.299C128.254 247.603 123.742 239.864 121.251 231.397C115.584 211.545 113.731 190.688 114.408 170.109C114.408 169.969 114.528 169.86 114.677 169.87C114.817 169.87 114.916 169.989 114.926 170.129L114.887 170.179V170.198H114.897Z" fill="#5E5573"/>
<path d="M370.189 78.401C384.213 94.119 395.728 112.038 404.673 131.103C407.671 137.438 409.623 144.271 412.263 150.716C416.436 160.258 422.024 169.213 428.738 177.181C431.029 179.881 433.36 182.65 435.073 185.787C436.796 188.975 437.991 192.352 438.987 195.778C442.952 209.594 441.288 224.296 437.314 237.892C434.246 248.112 429.086 257.704 422.522 266.111C416.048 274.557 408.537 281.968 401.067 289.469C388.427 301.87 373.765 312.099 358.106 320.307C345.626 326.951 332.049 331.453 318.572 335.437C305.095 339.541 291.37 342.948 277.484 345.408C253.19 349.91 228.219 351.095 203.576 348.954C192.938 348.077 182.15 346.464 172.11 342.689C166.233 340.736 160.037 337.947 155.127 333.903C142.248 323.534 134.827 307.637 132.516 291.52C131.839 285.405 131.301 279.189 131.032 273.053C130.743 266.19 129.886 259.367 127.725 252.903C119.448 233.44 115.045 212.472 113.551 191.415C113.113 184.443 112.425 177.261 113.86 170.348C113.889 170.219 114.029 170.129 114.158 170.159C114.288 170.189 114.368 170.318 114.348 170.448C114.049 172.151 113.939 173.894 113.919 175.637C114.069 187.829 115.951 200.011 118.332 211.964C120.424 222.184 123.143 232.304 126.928 242.006C128.213 245.303 129.757 248.361 131.052 251.707C132.347 255.144 133.154 258.64 133.861 262.156C135.375 270.902 135.295 279.657 136.57 288.393C138.562 304.918 146.461 321.672 160.287 331.403C164.44 334.401 168.893 336.144 173.853 337.838C180.327 340.228 186.931 341.653 193.764 342.599C228.219 347.271 263.42 344.85 297.236 336.892C317.437 331.861 337.846 326.542 356.463 317.06C371.882 309.161 386.375 299.24 398.866 287.197C406.296 279.886 413.866 272.535 420.261 264.338C426.696 256.24 431.766 247.026 434.834 237.145C438.788 223.987 440.641 209.773 436.945 196.356C436.029 193.049 434.913 189.762 433.33 186.764C431.706 183.726 429.525 181.066 427.313 178.407C420.59 170.229 415.022 161.065 410.898 151.313C408.308 144.759 406.486 138.036 403.557 131.641C400.698 125.276 397.471 119.061 394.025 112.985C387.132 100.813 379.034 89.3279 369.85 78.7496C369.76 78.64 369.77 78.4906 369.88 78.391C369.989 78.2914 370.139 78.3113 370.238 78.4209L370.219 78.4408L370.189 78.401Z" fill="#5E5573"/>
<path d="M204.054 348.884L174.381 370.808C174.381 370.808 160.426 379.533 166.88 396.457C168.892 401.198 172.528 407.702 179.092 413.32C183.266 416.896 189.78 422.464 198.665 422.414C203.675 422.384 207.281 420.572 213.248 417.573C220.579 413.888 225.868 409.665 229.165 406.706C232.332 424.506 235.5 442.306 238.657 460.106C238.757 461.47 239.444 469.429 246.267 474.798C250.809 478.374 255.68 478.892 257.613 479.001C257.613 479.001 305.424 484.589 302.984 465.743L301.061 445.503C306.819 447.047 314.04 448.352 322.397 448.452C341.273 448.661 355.945 442.525 364.053 438.312C367.808 439.537 371.802 441.071 375.946 443.003C388.696 448.96 398.278 456.57 405.061 463.124C405.061 463.124 423.907 478.135 441.527 456.839C444.227 454.568 447.982 450.862 451.06 445.414C453.5 441.091 458.57 432.136 455.522 423.49C454.098 419.466 451.548 417.295 446.557 413.051C443.031 410.053 438.34 406.746 426.208 401.168C420.879 398.718 413.797 395.69 405.24 392.632C406.266 388.209 407.153 383.239 407.701 377.77C408.617 368.686 408.378 360.598 407.701 353.895C417.781 348.596 425.929 343.725 431.746 340.089C431.746 340.089 458.311 323.485 478.651 299.718C479.806 298.374 482.018 295.694 483.223 291.61C485.115 285.166 483.303 279.199 482.018 275.972C479.129 270.055 475.991 265.683 473.661 262.814C469.089 257.166 465.811 253.232 460.233 251.688C456.229 250.582 452.643 251.15 450.482 251.688C430.501 262.923 418.618 269.607 418.618 269.607C418.618 269.607 412.85 275.872 403.886 285.624C395.1 294.359 381.713 305.974 363.286 316.183C348.554 324.351 336.89 328.126 321.65 332.967C299.746 339.93 269.057 347.291 231.784 348.845C220.419 349.323 210.877 349.153 204.054 348.894V348.884Z" fill="#C0B4DF"/>
<path d="M205.707 348.944C217.461 355.438 254.515 373.935 301.449 365.419C372.649 352.49 404.364 288.701 407.7 281.709C402.969 286.699 395.728 293.801 386.066 301.252C354.211 325.815 322.606 333.714 296.23 340.019C275.113 345.069 244.026 350.298 205.707 348.944Z" fill="#A394C5"/>
<path d="M231.327 418.708C231.068 419.784 228.458 429.984 218.528 434.098C210.519 437.414 201.017 435.422 194.482 429.028C198.447 438.042 207.043 443.869 216.237 443.829C226.715 443.779 233.2 436.13 234.126 434.994L231.317 418.718H231.327V418.708Z" fill="#C0B4DF"/>
<path d="M232.084 402.841C232.084 402.841 246.935 389.265 247.832 382.551C247.832 382.551 248.539 454.438 256.538 478.861C256.538 478.861 243.25 481.003 240.182 459.368L232.084 402.841Z" fill="#A394C5"/>
<path d="M209.423 346.424C198.058 356.165 188.286 363.098 181.453 367.63C172.19 373.786 168.644 375.32 166.97 380.141C162.747 392.333 176.632 407.632 178.873 410.092C182.15 413.698 184.72 416.527 188.924 418.35C204.482 425.093 222.919 409.505 224.294 408.31" stroke="#5E5573" stroke-width="5.97643" stroke-linecap="round" stroke-linejoin="round"/>
<path d="M252.93 374.114C249.205 383.696 243.836 392.681 236.993 400.39C234.413 403.309 231.823 406.317 228.775 408.787C223.576 412.781 217.55 415.73 210.966 416.736C210.677 416.786 210.478 416.407 210.697 416.198C212.579 414.315 214.502 412.672 216.394 411.018C218.426 409.335 222.879 405.44 224.901 403.906C229.861 400.251 234.712 396.446 238.816 391.814C243.985 386.336 248.438 380.319 252.382 373.855C252.552 373.556 253.06 373.785 252.92 374.124H252.93V374.114Z" fill="#5E5573"/>
<path d="M286.997 439.815C286.997 439.815 274.924 432.554 291.23 433.779C291.23 433.779 359.929 438.889 378.685 421.169C378.685 421.169 384.014 416.637 389.921 423.749C391.654 426.07 393.785 428.58 396.395 431.11C401.356 435.921 406.356 439.158 410.41 441.319C409.015 444.118 408.358 446.549 408.029 448.322C406.734 455.274 408.328 462.775 408.328 462.775C396.624 454.846 392.122 451.808 392.122 451.808C386.504 448.023 387.48 448.69 386.504 448.023C377.589 441.917 373.416 438.62 367.071 437.993C366.503 437.933 366.045 437.913 365.776 437.903C356.791 442.784 348.793 445.234 343.185 446.539C335.934 448.232 316.221 452.555 295.383 443.969C291.748 442.475 288.889 440.911 287.007 439.805H286.997V439.815Z" fill="#A394C5"/>
<path d="M413.667 436.269C415.4 432.653 419.255 424.854 428.18 420.362C434.744 417.055 446.806 414.136 452.434 419.754C459.536 426.836 453.43 444.467 444.535 454.557C436.039 464.199 420.201 472.377 412.88 466.859C405.748 461.48 409.424 445.144 413.657 436.279L413.667 436.269Z" fill="#C0B4DF"/>
<path d="M412.003 442.256C415.32 443.311 419.035 444.278 423.119 444.995C433.588 446.828 442.782 446.399 449.784 445.423C448.439 448.322 446.318 451.957 442.951 455.454C434.365 464.368 423.627 466.271 419.563 466.779C418.468 466.878 412.91 467.277 410.409 463.84C409.423 462.486 409.324 460.713 409.134 457.157C409.025 455.055 408.875 451.878 409.901 447.863C410.519 445.473 411.346 443.57 412.013 442.246H412.003V442.256Z" fill="#A394C5"/>
<path d="M414.574 273.491C419.335 270.463 425.601 266.499 433.041 261.847C435.113 260.552 439.904 258.072 446.1 254.656C450.622 252.165 455.742 249.596 460.732 250.94C463.67 251.737 466.091 253.809 468.073 256.12C470.354 258.779 472.157 261.797 473.92 264.825C475.892 268.212 477.805 271.619 479.727 275.035C482.387 279.757 483.303 282.336 483.492 284.916C483.851 289.827 481.381 293.911 479.309 296.819C461.718 321.532 420.401 345.378 420.401 345.378C414.833 348.585 410.301 351.075 407.701 352.48" stroke="#5E5573" stroke-width="4.98036" stroke-linecap="round" stroke-linejoin="round"/>
<path d="M403.876 341.443C408.01 350.617 409.942 360.906 409.544 370.996C409.354 376.126 409.145 381.415 407.133 386.236C405.171 391.027 402.382 395.52 398.407 398.946C398.188 399.135 397.82 398.926 397.89 398.637C398.407 396.077 399.075 393.707 399.672 391.346C401.276 384.463 403.577 377.401 404.772 370.578C405.46 365.807 405.649 360.976 405.43 356.155C405.241 351.294 404.454 346.443 403.298 341.632C403.209 341.304 403.726 341.104 403.866 341.433H403.876V341.443Z" fill="#5E5573"/>
<path d="M230.799 403.917C233.409 421.756 235.092 435.711 236.108 444.606C237.98 460.981 238.568 469.07 245.192 474.847C250.362 479.349 256.338 479.957 264.177 480.744C277.973 482.128 298.004 479.628 301.161 470.235C301.54 469.099 301.331 468.9 301.052 460.065C300.862 454.208 300.803 449.437 300.783 446.339" stroke="#5E5573" stroke-width="5.97643" stroke-linecap="round" stroke-linejoin="round"/>
<path d="M282.942 435.572C298.999 445.901 320.693 448.092 340.057 443.929C344.878 442.704 353.872 439.586 360.217 436.727C366.682 433.889 372.748 430.392 378.824 426.667L379.232 427.105C374.85 433.022 369.082 437.833 362.777 441.628C355.367 446.19 346.302 448.889 338.503 449.597C324.1 451.041 309.079 449.935 295.752 443.919C290.781 441.668 287.046 439.516 282.604 436.06L282.952 435.572H282.942Z" fill="#5E5573"/>
<path d="M366.115 437.554C368.456 438.331 371.673 439.476 375.389 441.11C378.656 442.544 383.039 444.487 387.67 447.584C391.774 450.323 393.806 452.455 396.436 454.776C400.051 457.963 409.215 466.051 416.407 467.585C433.001 471.111 459.208 444.008 454.397 426.139C452.963 420.82 448.889 416.706 445.93 413.708C441.747 409.485 437.852 407.313 426.188 401.606C419.554 398.358 412.482 394.982 405.002 391.525" stroke="#5E5573" stroke-width="5.97643" stroke-linecap="round" stroke-linejoin="round"/>
<path d="M425.76 466.849C421.955 468.473 417.482 468.792 413.418 467.835C404.374 465.933 405.749 452.765 406.984 445.902C408.787 436.21 414.225 427.066 422.174 421.13C427.064 417.285 433.25 414.406 439.635 414.436C443.49 414.346 447.852 415.014 450.811 417.902C456.439 423.231 456.478 432.066 454.407 438.75C454.636 430.821 452.514 419.556 443.002 419.307C436.647 419.068 430.65 421.677 425.799 425.791C417.154 432.465 412.223 442.794 410.789 453.522C410.42 456.61 410.131 459.837 411.307 462.656C412.034 464.588 413.757 465.246 415.729 465.903C418.946 466.999 422.313 467.238 425.76 466.839V466.849Z" fill="#5E5573"/>
<path d="M232.164 413.509C231.945 416.278 231.128 421.259 227.761 426.179C226.486 428.042 224.275 431.16 220.101 433.351C214.414 436.339 209.015 435.572 207.401 435.323C206.923 435.244 202.142 434.457 198.188 431.688C198.188 431.688 197.63 431.299 194.482 429.018C195.22 430.701 196.475 433.112 198.606 435.552C200.588 437.813 205.768 442.873 213.438 443.82C225.281 445.274 233.518 435.722 234.126 434.985" stroke="#5E5573" stroke-width="3.98429" stroke-linecap="round" stroke-linejoin="round"/>
<path d="M168.893 377.182C168.893 377.182 187.221 382.402 170.357 393.388C170.357 393.388 164.321 384.274 168.893 377.182Z" fill="white" stroke="#5E5573" stroke-width="5.97643" stroke-linecap="round" stroke-linejoin="round"/>
<path d="M172.101 395.151C172.101 395.151 190.758 391.247 180.926 408.818C180.926 408.818 171.344 403.558 172.101 395.151Z" fill="white" stroke="#5E5573" stroke-width="5.97643" stroke-linecap="round" stroke-linejoin="round"/>
<path d="M194.522 417.264C194.522 417.264 197.471 398.438 180.428 409.136C180.428 409.136 186.165 418.439 194.522 417.264Z" fill="white" stroke="#5E5573" stroke-width="5.97643" stroke-linecap="round" stroke-linejoin="round"/>
<path d="M251.197 475.485C251.197 475.485 261.835 459.677 267.065 479.11C267.065 479.11 256.526 482.029 251.197 475.485Z" fill="white" stroke="#5E5573" stroke-width="5.97643" stroke-linecap="round" stroke-linejoin="round"/>
<path d="M268.777 477.338C268.777 477.338 274.983 459.309 285.033 476.76C285.033 476.76 275.61 482.298 268.777 477.338Z" fill="white" stroke="#5E5573" stroke-width="5.97643" stroke-linecap="round" stroke-linejoin="round"/>
<path d="M300.214 470.076C300.214 470.076 286.597 456.739 285.412 476.829C285.412 476.829 296.319 477.557 300.214 470.076Z" fill="white" stroke="#5E5573" stroke-width="5.97643" stroke-linecap="round" stroke-linejoin="round"/>
<path d="M416.266 430.004C412.122 426.089 412.052 420.203 414.642 417.473C417.511 414.455 424.364 414.545 428.249 419.744C426.246 420.96 423.945 422.543 421.575 424.605C419.423 426.478 417.67 428.34 416.266 430.004Z" fill="white" stroke="#5E5573" stroke-width="5.97643" stroke-linecap="round" stroke-linejoin="round"/>
<path d="M430.979 406.766C429.146 407.842 428.32 410.412 428.25 412.224C428.14 415.073 429.644 417.145 430.222 417.872C431.676 417.294 433.917 416.498 436.736 415.95C441.886 414.944 444.087 415.681 444.486 414.744C445.382 412.593 435.77 403.937 430.979 406.766Z" fill="white" stroke="#5E5573" stroke-width="5.97643" stroke-linecap="round" stroke-linejoin="round"/>
<path d="M467.077 259.835C450.244 270.862 452.824 251.986 452.824 251.986C461.151 250.651 467.077 259.835 467.077 259.835Z" fill="white" stroke="#5E5573" stroke-width="5.97643" stroke-linecap="round" stroke-linejoin="round"/>
<path d="M476.969 275.712C456.928 277.655 468.004 262.136 468.004 262.136C476.003 264.815 476.969 275.712 476.969 275.712Z" fill="white" stroke="#5E5573" stroke-width="5.97643" stroke-linecap="round" stroke-linejoin="round"/>
<path d="M477.456 275.384C460.812 286.699 479.239 291.56 479.239 291.56C483.672 284.378 477.456 275.384 477.456 275.384Z" fill="white" stroke="#5E5573" stroke-width="5.97643" stroke-linecap="round" stroke-linejoin="round"/>
</g>
<defs>
<clipPath id="clip0_1561_767">
<rect width="512.19" height="496.94" fill="white"/>
</clipPath>
</defs>
</svg>
