<svg width="250" height="256" viewBox="0 0 250 256" fill="none" xmlns="http://www.w3.org/2000/svg">
<mask id="path-1-inside-1_2106_487" fill="white">
<path d="M125 0C194.036 0 250 55.9644 250 125C250 194.036 194.036 250 125 250C55.9644 250 0 194.036 0 125C0 55.9644 55.9644 0 125 0Z"/>
</mask>
<path d="M125 0C194.036 0 250 55.9644 250 125C250 194.036 194.036 250 125 250C55.9644 250 0 194.036 0 125C0 55.9644 55.9644 0 125 0Z" fill="url(#paint0_linear_2106_487)"/>
<path d="M250 0V250V0ZM0 250V0V250ZM0 0H250H0ZM250 131.482C250 200.518 194.036 256.482 125 256.482C55.9644 256.482 0 200.518 0 131.482V125C0 190.456 55.9644 243.518 125 243.518C194.036 243.518 250 190.456 250 125V131.482Z" fill="#9B89E8" mask="url(#path-1-inside-1_2106_487)"/>
<path d="M91.1025 189.086C89.8934 194.156 89.4826 198.709 89.4156 202.424C87.0645 203.281 85.1504 203.627 83.7927 203.785C83.7927 203.785 80.7598 204.134 78.2106 204.97C78.0562 205.02 77.8056 205.107 77.4997 205.253C77.2521 205.372 76.078 206.145 75.4312 206.905C73.6977 208.944 73.2374 212.108 73.2374 212.108C72.5003 217.169 74.7553 224.741 80.2121 227.558C80.9696 227.949 82.6157 228.799 84.7716 228.735C85.2756 228.721 85.8496 228.604 89.707 227.343C91.3909 226.792 92.7165 226.297 94.217 225.734C96.0961 225.032 97.6461 224.418 98.7415 223.975C103.042 224.499 106.619 224.831 109.174 225.041C110.803 225.175 124.412 226.27 134.824 225.694C136.657 225.592 138.635 225.443 138.635 225.443C141.19 225.251 144.141 224.98 147.416 224.592C150.638 226.27 153.494 227.092 155.507 227.526C158.714 228.217 160.975 228.703 163.606 227.82C166.767 226.76 168.544 224.365 169.232 223.415C172.498 218.888 173.509 211.365 169.914 207.38C168.515 205.83 166.254 205.09 161.765 203.578C159.495 202.814 157.549 202.337 156.165 202.042C156.302 197.492 155.955 191.102 153.776 183.877C152.416 179.367 150.668 175.609 149.019 172.652C146.239 173.619 142.574 174.691 138.192 175.446C136.972 175.655 131.596 176.547 124.584 176.41C113.953 176.203 104.679 173.73 98.2666 171.495C95.8164 175.6 92.9059 181.526 91.1054 189.083L91.1025 189.086Z" fill="#C0B4DF"/>
<path d="M90.218 212.461C90.6929 213.163 91.1911 214.026 91.6281 215.051C92.5109 217.134 92.7614 219.04 92.8197 220.38C93.6704 220.027 94.6581 219.689 95.7797 219.421C97.9532 218.9 99.8848 218.83 101.368 218.897C108.937 220.182 115.466 220.659 120.544 220.814C128.425 221.053 132.364 221.172 135.388 220.432C138.817 219.593 142.016 218.212 146.642 218.807C149.069 219.118 151.001 219.858 152.268 220.447C152.227 219.485 152.277 218.25 152.594 216.86C153.18 214.302 154.389 212.47 155.205 211.438C155.324 211.785 155.627 212.508 156.359 213.061C156.667 213.297 156.973 213.44 157.221 213.53C156.965 214.107 156.644 214.903 156.344 215.873C156.059 216.793 155.744 217.831 155.613 219.244C155.578 219.608 155.499 220.607 155.613 221.898C155.677 222.632 155.718 223.075 155.884 223.687C156.341 225.362 157.241 226.405 157.515 226.705C157.722 226.932 157.906 227.104 158.028 227.212C157 226.961 156.137 226.743 155.49 226.571C154.211 226.236 153.792 226.105 153.495 226.006C152.743 225.758 152.56 225.653 151.508 225.245C149.675 224.534 148.734 224.176 147.479 223.946C146.712 223.806 146.031 223.751 145.876 223.736C145.611 223.716 145.046 223.678 144.323 223.689C143.178 223.71 142.339 223.844 141.06 224.045C139.405 224.304 138.578 224.432 137.963 224.523C137.573 224.578 135.851 224.823 133.765 224.986C132.096 225.117 130.694 225.158 129.197 225.175C127.055 225.202 124.914 225.175 120.366 225.021C112.439 224.753 109.866 224.523 108.576 224.377C105.951 224.086 105.117 223.972 105.117 223.972C103.722 223.786 103.32 223.701 102.492 223.646C101.901 223.605 100.596 223.547 99.2059 223.716C97.7929 223.888 96.4906 224.383 93.8831 225.379C92.2836 225.988 91.6631 226.294 89.982 226.859C89.0759 227.165 88.3214 227.392 87.8086 227.538C88.8603 226.285 89.3789 225.12 89.6528 224.33C90.9755 220.517 89.612 216.706 88.9594 214.879C88.8079 214.457 88.671 214.116 88.5719 213.886C88.77 213.793 88.9914 213.67 89.2216 213.504C89.7082 213.157 90.0286 212.764 90.2297 212.464H90.218V212.461Z" fill="#A394C5"/>
<path d="M90.2227 200.12C90.2227 200.12 110.657 203.441 116.971 185.36C116.971 185.36 123.643 189.462 129.81 187.554C130.83 189.684 132.7 192.775 136.025 195.376C144.31 201.862 154.507 199.735 156.168 199.362C156.121 197.765 156.014 196.084 155.83 194.333C155.751 193.596 155.664 192.874 155.568 192.169C155.169 189.5 154.522 186.418 153.462 183.076C152.145 178.921 150.531 175.434 149.013 172.652C146.394 173.604 142.734 174.744 138.268 175.533C125.813 177.733 115.532 175.722 109.186 174.42C104.563 173.47 100.813 172.343 98.2666 171.495C96.4195 174.802 94.3918 179.125 92.8214 184.39C91.0005 190.508 90.3829 195.95 90.2227 200.117V200.12Z" fill="#A394C5"/>
<path d="M167.124 205.259C162.191 206.223 159.24 210.873 157.917 215.383C157.064 218.445 156.723 222.736 158.156 225.626C158.666 226.646 159.45 227.54 160.443 228.272C160.478 228.298 160.484 228.345 160.458 228.382C160.437 228.409 160.405 228.42 160.373 228.412C159.161 228.065 158.028 227.278 157.241 226.206C154.835 222.952 155.441 218.57 156.746 215.007C157.585 212.624 158.841 210.386 160.548 208.516C162.748 206.109 165.559 204.964 167.095 205.11C167.147 205.116 168.047 205.203 168.044 205.244C168.044 205.276 167.529 205.27 167.121 205.259H167.124Z" fill="#5E5573"/>
<path d="M165.514 204.828C165.324 204.682 163.276 203.147 161.309 203.96C160.977 204.097 159.722 204.618 159.62 205.757C159.55 206.55 160.057 207.366 160.907 207.826C161.61 207.214 162.466 206.55 163.495 205.915C164.205 205.478 164.884 205.119 165.514 204.828Z" fill="white" stroke="#5E5573" stroke-width="1.74806" stroke-linecap="round" stroke-linejoin="round"/>
<path d="M160.419 208.321C159.111 207.348 157.387 207.497 156.446 208.447C155.478 209.423 155.717 210.856 155.732 210.94C156.011 212.476 157.483 212.971 157.582 213C157.958 212.144 158.447 211.185 159.085 210.18C159.531 209.481 159.982 208.863 160.419 208.318V208.321Z" fill="white" stroke="#5E5573" stroke-width="1.74806" stroke-linecap="round" stroke-linejoin="round"/>
<path d="M98.2625 171.498C95.5967 175.964 92.424 182.546 90.7837 190.971C89.9796 195.108 89.6999 198.878 89.6825 202.118C88.2432 202.581 86.0756 203.24 83.3836 203.892C79.7127 204.784 78.5415 204.635 77.0324 205.83C75.0833 207.377 74.3637 209.635 74.1189 210.401C73.5916 212.056 73.612 213.402 73.6411 214.477C73.6586 215.17 73.7781 218.122 75.4853 221.548C76.3186 223.22 77.28 225.146 79.4039 226.693C80.0944 227.197 82.0522 228.56 84.7675 228.732C85.3415 228.767 86.5593 228.788 90.7342 227.346C95.0898 225.839 95.5472 225.198 97.843 224.686C100.544 224.083 102.633 224.359 104.652 224.595C104.652 224.595 113.316 225.597 122.823 225.833C127.528 225.95 131.668 226.055 137.203 225.35C142.232 224.706 144.487 223.902 148.234 224.866C150.707 225.504 151.584 226.335 155.404 227.319C158.92 228.225 160.677 228.68 162.39 228.374C167.911 227.398 172.313 219.972 171.998 213.469C171.929 212.041 171.789 209.128 169.749 206.841C167.576 204.399 164.121 203.656 160.677 202.916C160.677 202.916 160.56 202.89 156.158 202.045C156.231 199.31 156.117 196.242 155.675 192.92C154.521 184.268 151.587 177.389 149.012 172.652" stroke="#5E5573" stroke-width="1.74806" stroke-linecap="round" stroke-linejoin="round"/>
<path d="M170.782 219.124C172.988 212.958 171.867 206.919 168.279 205.636C164.692 204.353 159.996 208.311 157.79 214.478C155.585 220.644 156.705 226.683 160.293 227.966C163.881 229.249 168.577 225.291 170.782 219.124Z" fill="#DACFF3"/>
<path d="M77.6826 205.585C77.6826 205.544 78.5799 205.454 78.6324 205.451C80.1678 205.305 82.9792 206.447 85.1789 208.857C86.889 210.727 88.1447 212.965 88.9809 215.348C90.2861 218.911 90.8921 223.293 88.4856 226.547C87.6961 227.619 86.5627 228.406 85.3537 228.752C85.3216 228.764 85.2896 228.752 85.2692 228.723C85.2429 228.688 85.2488 228.639 85.2837 228.613C86.2801 227.878 87.0638 226.987 87.5708 225.967C89.0042 223.077 88.6633 218.786 87.8097 215.724C86.487 211.214 83.5357 206.564 78.6032 205.599C78.1954 205.608 77.6826 205.614 77.6797 205.585H77.6826Z" fill="#5E5573"/>
<path d="M82.2299 206.255C83.2584 206.891 84.1178 207.552 84.8171 208.167C85.6678 207.706 86.1747 206.891 86.1048 206.098C86.0028 204.959 84.7471 204.437 84.415 204.301C82.4485 203.488 80.4003 205.023 80.2109 205.169C80.8402 205.46 81.522 205.818 82.2299 206.255Z" fill="white" stroke="#5E5573" stroke-width="1.74806" stroke-linecap="round" stroke-linejoin="round"/>
<path d="M86.639 210.524C87.2771 211.529 87.7665 212.487 88.1424 213.344C88.2385 213.315 89.7127 212.819 89.9924 211.284C90.0099 211.197 90.2459 209.766 89.2786 208.79C88.3376 207.84 86.6157 207.695 85.3047 208.665C85.7417 209.207 86.1933 209.827 86.639 210.526V210.524Z" fill="white" stroke="#5E5573" stroke-width="1.74806" stroke-linecap="round" stroke-linejoin="round"/>
<path d="M85.4161 228.321C89.0038 227.038 90.1243 220.999 87.9189 214.833C85.7135 208.667 81.0173 204.708 77.4296 205.991C73.842 207.274 72.7214 213.313 74.9269 219.479C77.1323 225.646 81.8285 229.604 85.4161 228.321Z" fill="#DACFF3"/>
<path d="M91.5528 168.229C89.9504 169.776 86.4747 173.563 85.2802 179.46C84.7266 182.193 83.8235 186.779 86.3582 190.499C89.391 194.954 96.4852 196.626 103.69 194.217C105.007 193.774 106.857 193.008 108.821 191.656C111.128 190.068 114.639 187.647 115.457 183.449C116.215 179.568 114.26 176.288 113.505 175.16C111.419 172.474 109.584 171.763 108.241 171.646C106.513 171.498 103.708 172.171 103.708 172.171C103.708 172.171 99.5385 171.291 95.5588 169.872C94.5566 169.514 93.1727 168.984 91.5499 168.229H91.5528Z" fill="#BBB3D3"/>
<path d="M91.1589 168.759C90.6053 169.313 89.9731 170.03 89.3642 170.927C88.7233 171.871 88.2746 172.765 87.957 173.511C88.3678 173.797 88.8252 174.076 89.3322 174.336C91.794 175.597 94.2122 175.766 95.8466 175.699C98.0899 174.749 100.336 173.797 102.58 172.847C99.7011 172.049 96.6682 171.043 93.5333 169.767C92.7234 169.438 91.9339 169.1 91.1618 168.759H91.1589Z" fill="#A394C5"/>
<path d="M85.0146 187.263C85.8741 188.221 87.3104 189.573 89.4081 190.479C95.3864 193.058 101.644 189.827 104.584 188.309C110.128 185.448 113.397 181.212 115.087 178.537C115.373 179.749 115.652 181.707 115.087 183.924C114.029 188.079 110.731 190.316 108.421 191.884C103.663 195.112 98.7311 195.785 95.8642 195.916C95.0048 195.907 90.9027 195.77 87.7853 192.51C85.9003 190.538 85.2535 188.344 85.0117 187.263H85.0146Z" fill="#A394C5"/>
<path d="M91.552 168.229C89.6 170.032 87.4295 172.643 86.0049 176.197C85.2182 178.164 82.5117 184.929 85.833 190.304C86.0864 190.712 87.1964 192.445 89.3291 193.829C92.1551 195.662 94.984 195.729 97.0147 195.741C98.8735 195.749 104.429 195.694 109.467 191.656C111.36 190.138 115.78 186.595 115.672 181.258C115.614 178.449 114.326 176.293 113.508 175.16" stroke="#5E5573" stroke-width="1.74806" stroke-linecap="round" stroke-linejoin="round"/>
<path d="M101.833 175.152C101.833 175.152 101.665 178.205 103.36 179.437C103.36 179.437 103.477 180.466 102.326 179.437C102.326 179.437 100.391 177.765 101.394 175.152C101.394 175.152 101.831 174.578 101.833 175.152Z" fill="#A394C5"/>
<path d="M101.105 179.895C101.105 179.895 100.053 178.843 99.8983 176.101C99.8983 176.101 99.6099 175.085 99.2195 176.101C99.2195 176.101 98.8553 178.595 100.446 179.895C100.446 179.895 101.973 181.104 101.105 179.895Z" fill="#A394C5"/>
<path d="M90.0625 178.117C92.7749 176.791 95.767 175.338 98.5289 174.085C101.096 173.013 103.654 171.635 106.497 171.393C108.624 171.358 110.73 171.865 112.604 173.027C117.079 175.775 117.749 182.618 114.483 186.516L114.305 186.417C114.789 184.926 115.048 183.425 114.987 181.971C114.888 179.186 113.725 176.378 111.456 174.691C110.119 173.651 108.295 173.013 106.538 172.957C103.928 173.062 101.393 174.207 98.9135 175.032C97.818 175.416 95.6126 176.235 94.5288 176.657C93.0721 177.214 91.6124 177.764 90.147 178.306L90.0625 178.12V178.117Z" fill="#5E5573"/>
<path d="M114.82 184.987C114.82 184.987 109.256 182.924 114.756 179.92C114.756 179.92 116.411 182.895 114.82 184.987Z" fill="white" stroke="#5E5573" stroke-width="1.74806" stroke-linecap="round" stroke-linejoin="round"/>
<path d="M114.406 179.655C114.406 179.655 108.497 180.203 112.156 175.116C112.156 175.116 114.936 177.083 114.406 179.655Z" fill="white" stroke="#5E5573" stroke-width="1.74806" stroke-linecap="round" stroke-linejoin="round"/>
<path d="M107.742 172.753C107.742 172.753 107.832 178.685 112.497 174.501C112.497 174.501 110.242 171.949 107.742 172.753Z" fill="white" stroke="#5E5573" stroke-width="1.74806" stroke-linecap="round" stroke-linejoin="round"/>
<path d="M154.381 168.559C155.983 170.106 159.459 173.893 160.653 179.79C161.207 182.523 162.11 187.108 159.575 190.829C156.542 195.283 149.448 196.956 142.243 194.546C140.926 194.104 139.076 193.337 137.113 191.985C134.805 190.398 131.295 187.977 130.476 183.778C129.719 179.898 131.673 176.617 132.428 175.49C134.514 172.803 136.35 172.093 137.693 171.976C139.42 171.827 142.226 172.5 142.226 172.5C142.226 172.5 146.395 171.621 150.375 170.202C151.377 169.843 152.761 169.313 154.384 168.559H154.381Z" fill="#BBB3D3"/>
<path d="M154.776 169.086C155.33 169.639 155.962 170.356 156.571 171.254C157.212 172.197 157.66 173.092 157.978 173.838C157.567 174.123 157.11 174.403 156.603 174.662C154.141 175.924 151.723 176.093 150.088 176.026C147.845 175.076 145.599 174.123 143.355 173.173C146.234 172.375 149.267 171.37 152.402 170.094C153.212 169.765 154.001 169.427 154.773 169.086H154.776Z" fill="#A394C5"/>
<path d="M160.919 187.592C160.06 188.55 158.623 189.902 156.526 190.808C150.547 193.387 144.289 190.156 141.35 188.638C135.805 185.777 132.537 181.541 130.847 178.866C130.561 180.078 130.282 182.036 130.847 184.253C131.904 188.408 135.202 190.645 137.513 192.213C142.27 195.441 147.203 196.114 150.07 196.245C150.929 196.236 155.031 196.099 158.148 192.839C160.033 190.867 160.68 188.673 160.922 187.592H160.919Z" fill="#A394C5"/>
<path d="M154.38 168.559C156.332 170.362 158.503 172.972 159.927 176.527C160.714 178.493 163.42 185.258 160.099 190.634C159.846 191.042 158.736 192.775 156.603 194.159C153.777 195.991 150.948 196.058 148.917 196.07C147.059 196.079 141.503 196.023 136.465 191.985C134.572 190.468 130.152 186.925 130.26 181.587C130.318 178.779 131.606 176.623 132.424 175.49" stroke="#5E5573" stroke-width="1.74806" stroke-linecap="round" stroke-linejoin="round"/>
<path d="M144.1 175.481C144.1 175.481 144.269 178.534 142.574 179.766C142.574 179.766 142.457 180.795 143.608 179.766C143.608 179.766 145.542 178.094 144.54 175.481C144.54 175.481 144.103 174.907 144.1 175.481Z" fill="#A394C5"/>
<path d="M144.83 180.224C144.83 180.224 145.881 179.172 146.036 176.43C146.036 176.43 146.324 175.414 146.715 176.43C146.715 176.43 147.079 178.924 145.488 180.224C145.488 180.224 143.961 181.433 144.83 180.224Z" fill="#A394C5"/>
<path d="M155.792 178.633C152.957 177.593 149.883 176.369 147.028 175.358C144.546 174.534 142.011 173.389 139.404 173.284C137.647 173.336 135.823 173.977 134.486 175.017C132.216 176.704 131.054 179.513 130.955 182.298C130.893 183.755 131.153 185.252 131.636 186.744L131.459 186.843C128.196 182.945 128.863 176.104 133.338 173.354C135.211 172.191 137.315 171.685 139.444 171.719C142.288 171.961 144.846 173.339 147.413 174.411C148.476 174.889 150.612 175.891 151.66 176.404C153.07 177.077 154.478 177.759 155.879 178.447L155.795 178.633H155.792Z" fill="#5E5573"/>
<path d="M131.009 180.314C136.78 182.755 131.448 185.36 131.448 185.36C129.657 183.437 131.009 180.314 131.009 180.314Z" fill="white" stroke="#5E5573" stroke-width="1.74806" stroke-linecap="round" stroke-linejoin="round"/>
<path d="M133.777 175.446C137.44 180.533 131.528 179.985 131.528 179.985C130.998 177.413 133.777 175.446 133.777 175.446Z" fill="white" stroke="#5E5573" stroke-width="1.74806" stroke-linecap="round" stroke-linejoin="round"/>
<path d="M133.434 174.831C138.098 179.015 138.188 173.083 138.188 173.083C135.686 172.279 133.434 174.831 133.434 174.831Z" fill="white" stroke="#5E5573" stroke-width="1.74806" stroke-linecap="round" stroke-linejoin="round"/>
<path d="M147.367 202.526C148.436 202.019 149.392 201.13 150.552 200.708C151.734 200.32 152.97 199.816 154.231 199.898C155.094 199.985 155.898 200.198 156.658 200.676V200.851C155.854 201.326 155.062 201.503 154.295 201.646C153.156 201.812 152.005 201.553 150.878 201.827C149.683 201.966 148.655 202.567 147.414 202.695L147.37 202.526H147.367Z" fill="#5E5573"/>
<path d="M151.62 207.72C152.246 206.828 152.986 205.884 153.662 205.028C154.458 204.163 155.122 203.026 156.29 202.595C157.106 202.307 158.114 202.278 158.837 202.831L158.822 203.006C158.073 203.434 157.587 203.79 157.065 204.163C156.541 204.565 155.891 204.783 155.343 205.191C155.055 205.401 154.767 205.628 154.472 205.858C153.601 206.517 152.643 207.236 151.74 207.845L151.617 207.72H151.62Z" fill="#5E5573"/>
<path d="M98.4904 202.514C97.6572 202.447 96.8734 202.091 96.1393 201.887C95.4051 201.684 94.6592 201.561 93.9017 201.509C93.1384 201.45 92.3722 201.617 91.6089 201.465C90.8426 201.322 90.0502 201.142 89.2461 200.67V200.495C90.0065 200.017 90.8106 199.804 91.673 199.717C92.515 199.621 93.3395 199.915 94.1436 200.131C94.9622 200.343 95.7605 200.661 96.4918 201.086C97.2172 201.523 97.8116 202.016 98.5341 202.345L98.4904 202.514Z" fill="#5E5573"/>
<path d="M94.1567 207.665C93.2535 207.056 92.2921 206.339 91.4239 205.678C90.8616 205.232 90.2935 204.775 89.6554 204.478C88.6736 203.965 88.1725 203.426 87.0771 202.823L87.0625 202.648C87.785 202.094 88.7931 202.124 89.6088 202.412C90.78 202.843 91.4414 203.979 92.2367 204.845C92.9127 205.701 93.6527 206.645 94.2791 207.537L94.1567 207.662V207.665Z" fill="#5E5573"/>
<path d="M64.1121 99.2187C62.5505 105.541 62.1019 108.702 61.9154 112.411C61.6532 117.617 62.2941 119.155 61.56 123.84C60.7792 128.828 59.7798 128.837 58.7194 134.308C57.959 138.256 57.1636 142.358 58.2794 147.308C59.3661 152.132 61.7289 155.381 63.1973 157.356C67.0722 162.577 71.5559 165.246 74.2538 166.816C78.3034 169.173 83.1397 170.668 92.8036 173.651C94.237 174.094 95.9238 174.589 97.9545 175.119C98.7266 175.317 101.494 176.028 105.273 176.768C106.261 176.961 108.478 177.383 111.429 177.823C115.901 178.49 121.311 179.297 128.041 179.51C132.313 179.647 137.434 179.781 144.135 178.793C151.224 177.747 156.401 175.988 158.201 175.347C160.864 174.397 162.953 173.421 167.134 171.46C176.999 166.839 180.559 164.095 183.388 161.179C183.566 160.995 183.804 160.747 184.119 160.401C191.143 152.718 192.119 143.459 192.245 142.128C193.005 134.052 190.363 127.843 189.043 125.201C189.063 123.595 189.072 121.262 188.996 118.45C188.842 112.749 188.443 107.781 188.157 105.602C187.408 99.8568 184.926 87.23 175.731 75.2237C170.49 68.3801 165.109 64.4091 163.384 63.1825C152.64 55.5464 141.583 53.4954 139.879 53.4226C138.751 53.3701 138.23 53.2419 137.178 52.9855C136.08 52.7175 135.523 52.5747 135.156 52.1785C134.209 51.1588 134.763 49.2418 134.946 48.6067C135.733 45.8768 137.627 44.9183 137.303 44.356C136.93 43.7034 133.915 44.1783 131.476 45.8564C131.476 45.8564 130.483 46.541 127.106 50.4596C127.741 40.385 126.719 40.0324 126.719 40.0324C126.218 39.8606 125.603 40.3908 124.7 41.1716C123.421 42.27 122.783 43.5373 122.439 44.3414C121.008 47.7006 121.591 50.5091 121.075 50.5849C120.519 50.6694 120.327 47.3248 117.748 45.265C116.65 44.3851 114.826 43.5023 114.089 44.0996C112.909 45.061 116.061 48.6154 114.908 51.389C113.789 54.0868 109.562 53.7314 103.28 55.3367C95.6878 57.277 90.4349 60.7382 87.4895 62.6552C81.514 66.5446 77.712 70.7924 76.2815 72.4822C68.4386 81.7382 65.9971 91.6118 64.1179 99.2129H64.1121V99.2187Z" fill="#C0B4DF"/>
<path d="M157.603 95.3997C152.709 96.2533 148.656 92.4251 147.724 90.2925C147.441 89.6399 146.998 88.626 147.328 87.6005C147.328 87.6005 147.366 87.4839 147.928 86.1787C147.928 86.1787 149.708 88.4832 151.631 89.9603C154.081 91.8424 156.729 92.3523 157.804 92.5445C159.774 92.9029 161.44 92.8126 162.544 92.6757C161.755 93.4972 160.088 94.9627 157.6 95.3968L157.603 95.3997Z" fill="#5E5573"/>
<path d="M87.3939 144.948C88.1338 142.546 84.6447 139.339 79.6009 137.786C74.5571 136.232 69.8685 136.92 69.1287 139.322C68.3888 141.724 71.8779 144.93 76.9217 146.484C81.9655 148.038 86.6541 147.35 87.3939 144.948Z" fill="#FAC0D8"/>
<path d="M173.12 146.458C178.164 144.905 181.653 141.698 180.913 139.296C180.174 136.894 175.485 136.207 170.441 137.76C165.397 139.314 161.908 142.52 162.648 144.922C163.388 147.324 168.077 148.012 173.12 146.458Z" fill="#FAC0D8"/>
<path d="M76.2826 72.4883C74.9745 71.9814 73.005 71.2035 70.6247 70.2071C61.3979 66.338 59.9557 65.0532 55.4225 63.7451C52.2002 62.8157 48.2642 61.6795 43.5065 62.5535C37.2689 63.6985 33.1639 67.6403 31.3488 69.6506C27.4652 73.9537 24.8023 77.4965 22.2473 81.9249C20.4846 84.9752 18.687 88.0955 17.1604 92.5618C15.0977 98.6043 12.2134 107.05 15.8931 113.952C17.3323 116.653 19.733 119.033 22.0142 121.297C24.5314 123.794 26.0609 124.773 28.3276 127.421C30.3145 129.74 31.6314 131.896 32.4326 133.356C33.1872 135.468 33.9301 137.708 34.6293 140.08C35.2674 142.236 35.8209 144.322 36.3045 146.323C36.5638 147.331 36.9979 148.771 37.7292 150.414C38.9645 153.184 41.0622 157.893 45.8169 160.363C49.8899 162.475 54.0328 161.971 56.011 161.569C56.011 161.569 60.2267 160.206 63.2013 157.354C62.4059 156.427 61.2872 154.962 60.285 152.986C56.2936 145.117 58.0941 136.753 58.7234 134.305C59.5974 130.914 60.3665 130.562 61.1357 126.637C61.8903 122.774 61.7592 119.974 61.7388 117.882C61.6339 107.042 64.3521 97.8672 65.4621 94.1263C66.9917 88.9696 68.629 85.389 69.0253 84.5353C71.4376 79.3319 74.1412 75.3056 76.2826 72.4854V72.4883Z" fill="#C0B4DF"/>
<path d="M22.0158 121.29C23.4813 123.248 25.3546 123.942 28.3292 127.414C30.3162 129.734 31.633 131.889 32.4342 133.349C33.1888 135.461 33.9317 137.702 34.631 140.073C35.269 142.229 35.8225 144.315 36.3062 146.317C36.5655 147.325 36.9996 148.764 37.7308 150.407C38.9661 153.178 41.0638 157.886 45.8185 160.357C49.8915 162.469 54.0344 161.965 56.0126 161.563C56.0126 161.563 60.2283 160.199 63.2029 157.347C62.4076 156.421 61.2888 154.955 60.2866 152.98C56.2952 145.111 58.0957 136.746 58.725 134.299C59.599 130.908 60.3682 130.555 61.1373 126.631C61.3325 125.626 61.4695 124.699 61.5627 123.831C61.8832 120.88 61.7521 118.147 61.7404 117.876C61.5627 113.733 62.2386 109.363 62.8125 105.625C63.2612 102.709 64.0391 98.758 65.4638 94.1227C65.4638 94.1227 57.6121 83.5353 46.1798 81.0968C44.6124 80.7618 43.715 80.5724 42.3952 80.6161C31.3388 80.9773 23.5658 96.8002 21.2496 107.393C20.2794 111.831 19.0703 117.36 22.0187 121.29H22.0216H22.0158Z" fill="#ACECC7"/>
<path d="M22.5393 105.086C23.1744 105.485 25.4557 100.699 31.0727 97.6688C35.3001 95.3846 39.3119 95.2302 40.9697 95.1661C52.8244 94.7116 61.4598 104.116 62.8116 105.631C63.1554 103.595 63.5837 101.456 64.111 99.2216C64.5335 97.4386 64.988 95.7401 65.4599 94.1289C62.2435 91.67 59.4787 89.6423 57.349 88.1127C53.6081 85.4265 52.198 84.5175 50.1819 83.6785C47.9269 82.7374 45.8089 81.8518 43.0353 82.0324C40.017 82.2305 37.8989 83.5794 36.0576 84.7827C34.7903 85.6101 31.7545 87.7689 27.8855 93.6191C24.4622 98.7963 21.8401 104.652 22.5393 105.095V105.089V105.086Z" fill="#8EC2A7"/>
<path d="M61.5192 156.689C58.6262 158.664 55.4477 160.893 51.7738 160.706C49.0206 160.567 46.518 159.081 44.4961 157.298C40.2745 153.577 37.6262 148.936 36.2482 143.497C34.873 138.057 34.3748 132.376 30.7535 127.948C29.2501 126.112 27.2399 124.79 25.486 123.211C22.8406 120.83 20.4195 118.156 18.3539 115.254C12.5096 107.041 17.5964 95.7253 21.4072 87.6522C25.4423 79.1071 30.4912 68.8985 39.9045 65.3033C45.1283 63.3076 51.2727 63.6514 56.4499 65.6238C62.8332 68.0565 68.9864 71.1039 75.3639 73.5803C76.9896 74.2126 77.6946 71.5934 76.0835 70.967C69.8837 68.5576 63.885 65.6879 57.7172 63.226C52.8343 61.274 47.3716 60.7962 42.2149 61.8217C31.0856 64.0418 24.5304 74.906 19.9942 84.3455C17.981 88.535 16.0406 92.7769 14.6946 97.2315C13.0952 102.522 11.9822 108.777 14.4179 113.992C15.5949 116.513 17.5644 118.785 19.3794 120.859C21.5383 123.327 23.936 125.492 26.4765 127.549C31.3041 131.456 32.0324 137.282 33.3464 142.984C34.8556 149.519 37.8768 155.328 43.0976 159.652C45.5799 161.706 48.5021 163.259 51.7767 163.413C55.9488 163.608 59.5876 161.283 62.8915 159.025C64.322 158.046 62.9701 155.698 61.5251 156.686H61.5192V156.689Z" fill="#5E5573"/>
<path d="M23.1887 121.241C20.957 111.732 23.4305 103.029 28.4125 94.8689C30.6209 91.2563 33.208 87.5941 36.7682 85.2021C41.185 82.2334 46.0154 82.5626 50.6798 84.8496C55.3442 87.1367 59.7639 91.0407 63.5688 94.8398C64.8041 96.0751 66.7212 94.158 65.4829 92.9256C58.6043 86.0558 47.9936 76.7765 37.5723 81.6274C33.2051 83.6609 29.9449 87.5853 27.3345 91.5155C24.4648 95.8362 21.9855 100.48 20.6628 105.52C19.2527 110.887 19.3139 116.58 20.5754 121.967C20.9716 123.665 23.5849 122.946 23.1887 121.247V121.241Z" fill="#5E5573"/>
<path d="M75.715 73.6187C75.8054 73.2604 73.5475 72.6048 67.6827 70.2275C61.4451 67.6986 60.2069 66.9033 55.863 65.4932C51.6123 64.1151 49.7448 63.8849 48.1715 63.8442C44.7453 63.7538 42.1757 64.5346 41.6571 64.6978C36.9228 66.1895 34.0152 69.2544 31.0202 72.4096C28.6894 74.8657 27.1628 77.0216 26.4985 77.9947C18.7692 89.293 16.2607 102.852 16.2578 102.861C16.2578 102.861 18.2477 95.6559 20.7795 90.0941C24.9981 80.8265 30.9677 75.5561 32.4798 74.2713C36.1099 71.186 39.0816 69.7672 40.7248 69.0854C42.5369 68.3308 45.0483 67.3111 48.4366 67.2237C49.0601 67.2092 50.9946 67.1888 54.8141 68.1735C60.4633 69.6273 61.3781 70.9908 66.2551 72.4126C70.9312 73.7731 75.5927 74.1198 75.718 73.6187V73.6129L75.7121 73.6187H75.715Z" fill="#DACFF3"/>
<path d="M173.205 71.6812C174.513 71.1742 176.483 70.3963 178.863 69.3999C188.09 65.5309 189.532 64.2461 194.065 62.938C197.287 62.0086 201.223 60.8723 205.981 61.7464C212.219 62.8914 216.324 66.8332 218.139 68.8435C222.022 73.1466 224.685 76.6893 227.24 81.1178C229.003 84.1681 230.801 87.2884 232.327 91.7547C234.39 97.7971 237.274 106.243 233.595 113.145C232.155 115.846 229.755 118.226 227.473 120.49C224.956 122.987 223.427 123.966 221.16 126.614C219.173 128.933 217.856 131.089 217.055 132.548C216.3 134.661 215.558 136.901 214.858 139.273C214.22 141.429 213.667 143.515 213.183 145.516C212.924 146.524 212.49 147.963 211.758 149.607C210.523 152.377 208.425 157.085 203.671 159.556C199.598 161.668 195.455 161.164 193.477 160.762C193.477 160.762 189.261 159.399 186.286 156.546C187.082 155.62 188.2 154.154 189.203 152.179C193.194 144.31 191.394 135.946 190.764 133.498C189.89 130.107 189.121 129.755 188.352 125.83C187.597 121.967 187.728 119.167 187.749 117.075C187.854 106.234 185.136 97.06 184.026 93.3192C182.496 88.1624 180.859 84.5818 180.462 83.7282C178.05 78.5248 175.346 74.4984 173.205 71.6782V71.6812Z" fill="#C0B4DF"/>
<path d="M227.471 120.487C226.006 122.445 224.133 123.138 221.158 126.611C219.171 128.93 217.854 131.086 217.053 132.546C216.298 134.658 215.555 136.899 214.856 139.27C214.218 141.426 213.665 143.512 213.181 145.514C212.922 146.522 212.488 147.961 211.756 149.604C210.521 152.375 208.423 157.083 203.669 159.553C199.596 161.666 195.453 161.162 193.475 160.76C193.475 160.76 189.259 159.396 186.284 156.544C187.08 155.617 188.198 154.152 189.201 152.177C193.192 144.307 191.391 135.943 190.762 133.496C189.888 130.104 189.119 129.752 188.35 125.828C188.155 124.822 188.018 123.896 187.925 123.028C187.604 120.076 187.735 117.344 187.747 117.073C187.925 112.93 187.249 108.56 186.675 104.822C186.226 101.905 185.448 97.9548 184.023 93.3195C184.023 93.3195 191.875 82.7321 203.307 80.2936C204.875 79.9585 205.772 79.7692 207.092 79.8129C218.148 80.1741 225.921 95.997 228.238 106.59C229.208 111.027 230.417 116.557 227.468 120.487H227.466H227.471Z" fill="#ACECC7"/>
<path d="M226.94 104.279C226.305 104.678 224.024 99.8916 218.407 96.8616C214.179 94.5775 210.168 94.4231 208.51 94.359C196.655 93.9045 188.02 103.309 186.668 104.824C186.324 102.788 185.896 100.649 185.368 98.4145C184.946 96.6315 184.492 94.9329 184.02 93.3218C187.236 90.8629 190.001 88.8351 192.131 87.3056C195.871 84.6194 197.281 83.7104 199.298 82.8713C201.553 81.9303 203.671 81.0446 206.444 81.2253C209.462 81.4234 211.581 82.7723 213.422 83.9755C214.689 84.803 217.725 86.9618 221.594 92.812C225.017 97.9891 227.639 103.845 226.94 104.288V104.282V104.279Z" fill="#8EC2A7"/>
<path d="M186.598 158.221C189.686 160.331 192.99 162.455 196.847 162.612C199.775 162.728 202.627 161.607 204.984 159.932C209.535 156.698 213.028 151.972 214.87 146.719C216.807 141.192 216.76 134.681 220.152 129.734C221.742 127.412 224.213 125.882 226.261 124.003C228.944 121.544 231.363 118.776 233.472 115.811C239.829 106.878 234.8 94.8048 230.655 85.9713C226.372 76.8523 221.107 66.5212 211.344 62.3026C205.727 59.8728 198.852 59.8961 193.109 61.9064C190.164 62.9348 187.344 64.3362 184.485 65.586C180.823 67.1884 177.126 68.7063 173.403 70.1543C171.795 70.7778 172.494 73.3998 174.122 72.7676C180.042 70.466 185.805 67.841 191.653 65.3704C196.209 63.4447 201.165 62.6784 206.077 63.535C216.554 65.3588 222.631 75.5791 226.893 84.366C228.764 88.2205 230.567 92.1128 231.881 96.1945C233.44 101.034 234.929 107.12 232.656 111.977C231.558 114.319 229.702 116.425 228.006 118.342C225.952 120.664 223.691 122.745 221.276 124.676C216.836 128.236 215.289 133.245 214.144 138.614C213.451 141.845 212.784 145.134 211.385 148.15C210.103 150.917 208.259 153.283 206.109 155.424C204.134 157.391 201.78 159.148 198.997 159.728C194.86 160.587 191.201 158.096 187.955 155.876C186.513 154.888 185.156 157.237 186.589 158.216H186.592L186.598 158.221Z" fill="#5E5573"/>
<path d="M228.912 121.157C230.063 116.251 230.223 111.097 229.171 106.159C228.096 101.113 225.786 96.4949 223.076 92.1451C220.6 88.1712 217.625 84.2556 213.605 81.7384C208.748 78.7026 203.376 79.0172 198.28 81.3072C192.864 83.7428 188.17 87.9556 184.004 92.1131C182.769 93.3484 184.686 95.2625 185.918 94.0272C191.926 88.0285 202.027 78.6268 211.233 83.4981C215.114 85.5521 217.954 89.1676 220.285 92.7978C222.843 96.7833 225.066 100.976 226.252 105.588C227.499 110.433 227.435 115.572 226.299 120.432C225.902 122.127 228.513 122.853 228.912 121.151V121.157Z" fill="#5E5573"/>
<path d="M173.768 72.8145C173.677 72.4562 175.935 71.8006 181.8 69.4233C188.038 66.8944 189.276 66.0991 193.62 64.689C197.87 63.3109 199.738 63.0807 201.311 63.04C204.737 62.9496 207.307 63.7304 207.826 63.8936C212.56 65.3853 215.467 68.4502 218.462 71.6054C220.793 74.0615 222.32 76.2174 222.984 77.1905C230.713 88.4888 233.222 102.048 233.225 102.057C233.225 102.057 231.235 94.8517 228.703 89.2899C224.485 80.0223 218.515 74.7519 217.003 73.4671C213.373 70.3818 210.401 68.963 208.758 68.2812C206.946 67.5266 204.434 66.5069 201.046 66.4195C200.423 66.405 198.488 66.3846 194.668 67.3693C189.019 68.8231 188.105 70.1866 183.227 71.6084C178.551 72.9689 173.89 73.3156 173.765 72.8145V72.8087H173.762L173.768 72.8145Z" fill="#DACFF3"/>
<path d="M82.8731 68.6833C88.8194 64.7473 91.7911 62.7778 94.8357 61.2949C106.105 55.7973 116.299 56.9976 117.345 52.4177C117.54 51.567 117.592 49.7548 117.852 49.7519C118.155 49.7461 118.041 52.2341 119.483 53.0411C120.031 53.3471 120.599 53.3004 120.724 53.2859C121.689 53.181 122.271 52.4148 122.417 52.2108C123.11 51.2319 122.601 50.5065 122.959 49.0264C123.346 47.4211 124.465 46.1218 124.8 46.247C125.412 46.4743 123.25 51.2785 125.051 52.8226C125.654 53.3383 126.563 53.3762 127.16 53.2305C128.25 52.9625 128.48 52.0448 130.042 50.4103C130.819 49.5975 132.139 48.2165 132.652 48.4875C133.348 48.8575 131.536 51.7447 132.562 53.8598C133.427 55.637 135.979 56.1993 138.12 56.3858C140.507 56.7062 144.16 57.3618 148.417 58.8505C149.736 59.3108 153.512 60.6918 163.001 66.3555C165.88 68.0715 169.827 70.5071 174.451 73.6245C172.793 71.5385 170.462 68.9252 167.357 66.2652C165.224 64.4414 161.323 61.3881 155.799 58.7019C155.799 58.7019 149.999 55.8847 143.309 54.4134C141.273 53.9647 140.256 53.7433 139.475 53.72C138.654 53.6996 137.989 53.7666 137.089 53.449C136.364 53.1926 135.545 52.709 135.146 52.1846C134.155 50.8677 134.866 48.0126 137.229 45.4895C137.229 45.4895 131.233 44.8719 127.052 51.4009C127.475 43.59 126.621 41.6904 125.735 41.4515C124.515 41.1252 122.207 43.689 121.394 46.1567C120.972 47.4357 120.576 49.8393 120.576 49.8393C120.576 49.8393 120.008 48.3156 119.183 47.1415C118.971 46.8385 118.437 46.0751 117.639 45.507C116.037 44.362 114.12 44.5135 113.31 44.6272C113.761 44.9913 114.935 46.0373 115.343 47.7999C115.463 48.3156 115.865 50.052 114.9 51.3951C114.324 52.205 113.517 52.4701 111.929 52.9683C109.953 53.5918 109.021 53.5102 106.006 54.0987C106.006 54.0987 105.132 54.2677 103.666 54.6086C99.0631 55.6749 94.7512 57.9211 92.6797 59.0166C88.5339 61.2046 85.7283 63.2789 84.9766 63.8441C83.4034 65.0241 81.6699 66.3351 79.7062 68.4328C77.8795 70.3848 76.5801 72.2319 75.7148 73.6274C77.4396 72.3863 79.8869 70.6645 82.8731 68.6892V68.6833Z" fill="#DACFF3"/>
<path d="M76.2773 72.4882C77.9147 70.274 80.1143 67.7655 83.019 65.362C85.6003 63.2235 87.7941 61.9532 90.2152 60.5519C93.9327 58.396 96.8782 57.1577 99.1274 56.2225C101.091 55.4039 102.35 54.9698 103.675 54.6114C104.995 54.2531 105.391 54.2356 107.876 53.7461C113.846 52.572 114.566 52.0767 115.011 51.3862C115.88 50.0432 115.475 48.3213 115.352 47.7998C114.921 45.9702 113.706 44.9301 113.319 44.6271C113.869 44.5426 115.786 44.3241 117.648 45.5069C120.372 47.2375 120.547 50.4481 120.556 50.7511C120.553 49.6061 120.698 47.1589 122.161 44.5543C123.46 42.241 125.182 40.9037 126.12 40.2773C126.543 41.466 126.971 43.0509 127.149 44.9505C127.364 47.2812 127.125 49.2507 126.843 50.6462C127.452 49.6469 128.92 47.5376 131.667 46.0605C133.989 44.8106 136.142 44.5921 137.287 44.5543C134.316 49.1167 134.418 51.1998 135.111 52.2574C136.035 53.6675 138.106 53.3936 142.278 54.1365C145.588 54.7279 147.825 55.5291 151.278 56.7703C152.376 57.1636 157.842 59.1768 164.033 63.5556C166.646 65.4086 169.906 68.0481 173.219 71.6783" stroke="#5E5573" stroke-width="1.74806" stroke-linecap="round" stroke-linejoin="round"/>
<path d="M73.2915 76.9165C73.6877 76.0367 74.1742 75.0898 74.62 74.2303C74.9055 73.7147 75.2988 72.9921 75.5348 72.459C76.0272 71.5296 76.7468 70.8682 77.7665 70.3904C77.8131 70.373 77.8626 70.3904 77.883 70.4371C77.8422 71.5645 77.4518 72.4998 76.7672 73.301C76.1204 73.9594 75.4124 74.8567 74.786 75.5385C74.3374 76.0279 73.8916 76.5232 73.4196 76.9981C73.3614 77.0593 73.2594 76.9894 73.2973 76.9136H73.2915V76.9165Z" fill="#5E5573"/>
<path d="M175.939 76.0715C175.26 75.3839 174.552 74.5914 173.908 73.8631C173.529 73.4115 172.999 72.7851 172.588 72.3685C171.895 71.5731 171.543 70.6641 171.461 69.5454C171.461 69.4958 171.496 69.4551 171.545 69.4521C172.583 69.8979 173.317 70.5971 173.812 71.5265C174.194 72.3656 174.776 73.3503 175.184 74.1836C175.481 74.7808 175.782 75.3722 176.055 75.9841C176.09 76.0569 175.985 76.1326 175.933 76.0685H175.939V76.0715Z" fill="#5E5573"/>
<path d="M167.925 163.632C169.559 162.481 171.086 161.927 171.252 161.863C172.764 161.307 177.309 158.836 190.338 150.679C189.58 152.095 188.84 153.292 188.205 154.253C187.319 155.594 186.25 157.056 184.968 158.571C184.362 159.285 183.797 159.911 183.284 160.45C176.738 167.37 169.6 170.522 164.021 172.92C160.83 174.292 157.576 175.329 156.746 175.591C156.722 175.6 156.609 175.664 156.588 175.641C156.495 175.524 159.012 173.736 161.579 171.023C163.304 169.202 164.289 168.159 165.049 166.81C165.195 166.551 165.538 165.916 166.171 165.188C166.713 164.561 167.287 164.08 167.919 163.635H167.925V163.632Z" fill="#A394C5"/>
<path d="M59.3477 147.083C63.1264 150.521 68.8629 155.104 76.6447 159.148C82.2443 162.058 86.8329 163.614 89.7172 164.576C91.5381 165.112 93.394 165.613 95.2848 166.076C121.415 172.486 146.459 169.732 167.922 163.629C166.471 167.422 163.643 172.684 158.2 175.344C156.79 176.034 155.325 176.395 152.4 177.115C146.325 178.613 141.428 178.854 137.815 179.015C135.709 179.108 132.83 179.166 129.392 179.015C126.237 179.187 123.664 179.16 121.946 179.105C111.239 178.77 102.947 176.509 97.9506 175.116C97.3795 174.956 94.976 174.28 91.8295 173.231C88.2693 172.046 82.8852 170.073 76.3708 166.909C72.8106 165.182 71.2956 164.235 69.9088 163.218C67.7995 161.668 63.7207 158.594 61.1802 153.091C60.0731 150.69 59.5836 148.54 59.3477 147.078V147.083Z" fill="#A394C5"/>
<path d="M68.5341 86.455C65.4808 94.4465 63.3802 102.875 62.9141 111.435C62.7422 115.117 63.4706 118.811 62.9432 122.491C62.6577 124.95 62.2207 127.403 61.437 129.76C61.0437 130.937 60.6183 132.073 60.3241 133.242C60.0211 134.41 59.8142 135.604 59.6627 136.811C59.182 140.435 58.7916 144.071 59.316 147.686C60.2279 154.329 63.9979 158.221 69.1576 162.099C83.4246 172.526 107.12 177.479 124.62 178.307C129.489 178.519 134.375 178.726 139.228 178.371C148.895 177.654 158.346 174.808 166.979 170.437C171.23 168.214 175.638 166.027 179.323 162.944C182.027 160.602 184.631 158.05 186.735 155.165C188.78 152.322 190.216 149.027 190.473 145.51C190.793 141.061 189.972 136.502 188.786 132.199L188.669 131.759L188.608 131.54L188.579 131.432C188.579 131.412 188.527 131.296 188.605 131.467L188.544 131.307C187.44 127.563 186.414 123.534 186.729 119.572C187.431 111.266 186.307 102.887 184.465 94.7786L184.395 94.496C184.375 94.397 184.346 94.3387 184.314 94.1348L184.331 94.2309C183.687 92.3139 182.403 88.3866 181.773 86.4579C181.756 86.4025 181.785 86.3443 181.84 86.3268C181.896 86.3093 181.951 86.3355 181.971 86.3909C182.711 88.3021 184.159 92.1245 184.882 94.0386L184.899 94.1348C184.917 94.1173 184.94 94.2513 184.972 94.3387L185.054 94.6213C186.481 99.7169 187.481 104.941 187.973 110.208C188.174 112.565 188.317 114.916 188.258 117.294C188.226 118.844 188.066 120.364 188.197 121.897C188.326 123.397 188.573 124.924 188.923 126.386C189.299 127.878 189.972 130.063 190.272 131.062C190.764 132.767 191.248 134.503 191.635 136.234C192.524 140.563 192.958 145.137 191.807 149.467C190.467 154.434 187.116 158.542 183.486 162.047C182.615 162.909 181.657 163.815 180.721 164.596C176.876 167.859 172.395 170.073 167.949 172.346C159.057 176.789 149.294 179.577 139.36 180.203C134.413 180.509 129.468 180.241 124.539 179.973C106.773 178.971 82.8682 173.738 68.47 163.005C63.1268 158.915 59.2432 154.786 58.3692 147.806C57.871 144.103 58.3167 140.333 58.847 136.682C59.0188 135.456 59.2432 134.232 59.5724 133.026C59.8958 131.82 60.3474 130.655 60.7436 129.51C61.539 127.211 61.9964 124.81 62.3023 122.401C62.8646 118.747 62.1857 115.074 62.4013 111.4C62.9724 102.808 65.1837 94.3562 68.3476 86.3676C68.368 86.3122 68.4321 86.286 68.4875 86.3093C68.5428 86.3297 68.5661 86.3909 68.5487 86.4462L68.5254 86.4579H68.5341V86.455Z" fill="#5E5573"/>
<path d="M181.722 86.3763C185.017 94.5281 187.012 103.184 187.837 111.933C188.122 114.841 187.927 117.801 188.052 120.702C188.347 125.038 189.282 129.341 190.791 133.417C191.31 134.798 191.837 136.213 192.064 137.688C192.294 139.182 192.283 140.677 192.192 142.163C191.805 148.144 189.075 153.685 185.602 158.463C182.96 162.047 179.58 165.086 175.819 167.46C172.087 169.866 168.093 171.716 164.104 173.607C157.392 176.696 150.192 178.648 142.886 179.664C137.05 180.512 131.083 180.369 125.23 180.034C119.36 179.749 113.492 179.149 107.691 178.161C97.5177 176.509 87.5421 173.453 78.1667 169.138C74.1141 167.297 70.1023 165.141 66.6907 162.242C64.6571 160.648 62.6177 158.676 61.2601 156.398C57.662 150.513 56.9919 143.223 58.3525 136.569C58.9497 134.069 59.6111 131.555 60.3715 129.108C61.2222 126.372 61.8486 123.569 61.9127 120.729C61.4028 111.918 62.6294 103.064 65.0096 94.5835C65.8196 91.7837 66.5596 88.8644 68.0979 86.353C68.127 86.3035 68.194 86.2889 68.2435 86.321C68.2931 86.353 68.3047 86.4142 68.2756 86.4637C67.9172 87.0901 67.6317 87.7573 67.3753 88.4391C65.7176 93.2462 64.7387 98.2981 63.987 103.324C63.3665 107.633 63.011 111.988 63.1276 116.335C63.1654 117.809 63.3402 119.228 63.381 120.726C63.4043 122.258 63.2295 123.747 63.011 125.224C62.373 128.875 61.1086 132.298 60.3802 135.91C58.8361 142.681 59.5761 150.379 63.6316 156.141C64.8377 157.907 66.344 159.215 68.0513 160.578C70.2538 162.431 72.6486 163.92 75.1979 165.252C88.0694 171.941 102.232 175.95 116.638 177.59C125.28 178.461 134.043 179.248 142.693 178.146C149.863 177.217 156.949 175.364 163.553 172.395C167.501 170.572 171.507 168.754 175.175 166.434C178.843 164.162 182.132 161.257 184.728 157.808C188.134 153.199 190.864 147.879 191.304 142.087C191.409 140.656 191.432 139.211 191.234 137.807C191.024 136.382 190.541 135.034 190.051 133.676C188.562 129.518 187.665 125.134 187.423 120.723C187.33 117.783 187.563 114.887 187.312 111.962C187.085 109.06 186.695 106.164 186.199 103.292C185.209 97.5406 183.647 91.8886 181.529 86.4434C181.509 86.388 181.535 86.3297 181.59 86.3064C181.646 86.2831 181.704 86.3122 181.727 86.3676L181.719 86.3734H181.722V86.3763Z" fill="#5E5573"/>
<path d="M145.456 129.413C140.876 122.43 143.662 113.809 143.851 113.133C144.099 112.256 145.995 105.882 152.14 103.443C159.135 100.667 165.32 105.506 165.801 105.893C167.071 107.239 171.648 112.408 172.076 120.376C172.117 121.107 172.554 131.193 167.68 134.305C166.395 135.124 163.517 135.068 157.806 134.92C155.295 134.853 153.203 134.754 151.732 134.669C150.377 134.098 147.601 132.679 145.456 129.408V129.413Z" fill="#FDFEFD"/>
<path d="M167.512 133.973C167.36 134.2 167.209 134.41 167.054 134.599C167.657 134.757 168.132 134.937 168.132 134.937C168.22 134.969 168.313 135.007 168.403 135.048C168.592 135.127 168.773 135.211 168.942 135.299C171.049 131.43 171.209 131.083 171.209 131.083C172.864 127.514 172.901 123.91 172.904 122.398C172.904 121.419 172.849 118.587 171.786 115.184C171.255 113.495 170.402 110.791 168.249 108.215C166.903 106.607 165.618 105.722 164.875 105.217C163.951 104.594 161.064 102.776 157.294 102.601C156.391 102.558 155.683 102.622 155.406 102.651C153.536 102.84 152.059 103.42 151.089 103.892C149.865 104.542 148.93 105.279 148.277 105.876C147.406 106.671 146.812 107.414 146.55 107.758C146.083 108.37 145.719 108.941 145.445 109.424C145.78 109.168 152.851 103.953 159.762 107.152C162.104 108.236 165.114 110.59 167.136 114.051C167.354 114.424 167.517 114.73 167.625 114.94C167.756 115.187 167.94 115.546 168.15 116.006C170.07 120.21 170.02 124.781 170.02 124.781C169.973 128.193 169.064 130.806 168.435 132.257C168.205 132.787 167.902 133.376 167.503 133.976H167.509L167.512 133.973Z" fill="#5E5573"/>
<path d="M159.063 106.808C156.505 105.835 154.358 106.045 153.184 106.176C152.525 106.246 150.678 106.499 148.473 107.539C147.202 108.14 146.2 108.824 145.472 109.384C145.367 109.556 145.262 109.739 145.16 109.937C145.029 110.185 144.907 110.424 144.802 110.654C144.767 110.727 144.714 110.84 144.647 110.983C144.647 110.983 143.36 113.771 142.818 116.769C141.909 121.774 143.613 129.55 145.582 132.438C146.579 133.897 149.073 136.942 149.073 136.942C151.1 135.945 154.098 134.85 157.81 134.926C159.482 134.961 159.788 135.202 160.598 134.932C164.77 133.533 167.005 123.729 165.146 116.029C164.237 112.262 162.475 109.526 161.114 107.822C160.633 107.525 159.934 107.143 159.063 106.811V106.808Z" fill="#5E5573"/>
<path d="M149.073 111.834C149.749 109.384 151.829 108 153.72 108.743C155.611 109.486 156.592 112.076 155.917 114.526C155.241 116.976 153.16 118.36 151.27 117.617C149.379 116.874 148.397 114.284 149.073 111.834Z" fill="#F9FCFE"/>
<path d="M154.235 125.306C154.559 124.137 155.689 123.529 156.761 123.951C157.833 124.373 158.442 125.664 158.119 126.832C157.795 128.001 156.665 128.61 155.593 128.187C154.521 127.765 153.912 126.474 154.235 125.306Z" fill="#F9FCFE"/>
<path d="M170.689 136.324C168.116 135.998 165.241 135.814 162.12 135.901C156.299 136.062 151.282 137.116 147.273 138.337C147.67 137.982 148.284 137.466 149.074 136.939C149.992 136.327 152.366 134.891 159.399 134.337C165.459 133.862 167.551 134.628 168.757 135.199C169.596 135.599 170.257 136.021 170.694 136.321H170.692V136.324H170.689Z" fill="#5E5573"/>
<path d="M107.576 163.113C104.237 164.82 101.094 164.681 99.8264 162.886C98.2123 160.605 100.097 156.313 100.505 155.375C105.21 144.651 121.383 143.649 124.771 143.439C138.062 142.617 147.65 148.255 151.286 152.797C152.344 154.117 154.73 157.097 154.284 160.616C154.235 161.013 154.013 162.755 152.985 163.815C150.619 166.254 146.092 162.921 139.609 160.864C129.057 157.514 119.734 159.556 116.098 160.354C112.372 161.17 109.426 162.315 107.582 163.116H107.576V163.113Z" fill="#8F1916" stroke="#5E5573" stroke-width="1.74806" stroke-miterlimit="10"/>
<path d="M101.296 164.002C102.499 162.364 104.62 159.774 107.749 157.432C118.75 149.193 133.626 150.381 144.202 156.82C147.841 159.037 150.62 161.662 152.645 163.946C151.689 164.625 150.897 164.782 150.367 164.806C149.073 164.864 148.356 164.386 145.149 162.921C143.503 162.169 142.433 162.271 138.5 162.344C138.5 162.344 134.066 162.428 126.969 162.347C123.307 162.306 117.637 162.111 112.408 162.393C110.29 162.51 109.582 162.74 109.311 162.816C106.686 163.527 105.631 164.768 103.592 164.672C102.569 164.622 101.759 164.258 101.293 164.005L101.296 164.002Z" fill="#F38373" stroke="#5E5573" stroke-width="1.74806" stroke-miterlimit="10"/>
<path d="M105.139 137.07C104.527 137.956 103.621 139.453 103.024 141.47C101.966 145.041 102.462 148.278 103.286 151.471C107.651 168.34 119.884 178.811 121.74 180.128C122.293 180.521 122.859 180.891 122.859 180.891C122.859 180.891 125.07 182.336 127.468 183.432C135.267 186.992 143.64 186.467 143.64 186.467C148.427 186.167 151.882 185.952 153.785 183.257C155.876 180.297 154.732 176.282 154.353 175.114C155.34 171.758 154.749 168.664 152.972 167.542C151.774 166.787 150.05 166.93 149.828 166.953C147.923 167.134 147.442 168.162 145.945 168.095C144.226 168.02 143.011 166.569 142.859 166.382C141.015 164.11 142.029 160.59 142.594 158.627C143.378 155.906 144.118 155.847 145.277 152.532C145.723 151.259 146.507 149.012 146.635 146.422C146.717 144.756 146.612 141.257 144.22 137.076H105.142V137.07H105.139Z" fill="#C0B4DF"/>
<path d="M103.491 145.839C103.957 150.568 105.67 160.986 113.557 170.644C121.432 180.291 130.895 183.586 132.946 184.259C134.068 184.626 149.94 189.684 153.972 183.554C155.309 181.523 154.948 178.866 154.395 176.882C154.042 175.784 153.727 175.524 153.491 175.516C152.874 175.495 152.731 177.211 151.333 178.554C150.569 179.286 149.78 179.574 148.877 179.894C146.994 180.559 145.331 180.553 142.901 180.39C139.49 180.16 137.782 180.046 135.644 179.586C135.644 179.586 130.376 178.452 125.266 175.635C119.046 172.206 109.857 161.79 103.488 145.842H103.491V145.839Z" fill="#A394C5"/>
<path d="M153.413 174.353C153.888 175.341 156.204 180.372 153.97 183.551C151.93 186.452 147.304 186.097 141.987 185.686C137.914 185.372 131.379 184.792 124.2 180.553C116.614 176.075 112.745 170.131 110.857 167.157C108.477 163.41 107.069 159.934 106.219 157.376" stroke="#5E5573" stroke-width="2.33074" stroke-miterlimit="10"/>
<path d="M147.24 172.984C145.687 171.213 146.218 168.002 148.321 166.787C150.02 165.73 152.336 165.931 153.857 167.244C155.357 168.547 155.841 170.776 155.354 172.602C155.089 173.756 154.425 174.717 153.679 175.6C152.496 177.138 151.587 178.91 150.838 180.888C150.611 178.779 151.109 176.57 152.129 174.624C152.35 174.187 152.645 173.771 152.837 173.328C153.629 171.65 153.37 169.109 151.424 168.401C149.877 167.801 148.149 168.509 147.479 170.117C147.109 170.942 147.016 171.947 147.246 172.984H147.24Z" fill="#5E5573"/>
<path d="M146.796 145.839C146.604 147.497 146.26 149.405 145.651 151.477C144.628 154.955 143.198 157.735 141.931 159.777C141.328 160.75 140.73 165.464 143.338 167.745C144.643 168.887 146.336 169.013 147.28 168.998" stroke="#5E5573" stroke-width="2.33074" stroke-miterlimit="10"/>
<path d="M105.148 137.09C103.178 142.052 103.461 146.518 105.171 151.488C106.756 156.205 108.83 160.756 111.135 165.187C112.458 167.731 113.984 170.423 115.432 172.911C115.642 173.281 115.858 173.648 116.062 174.024C114.823 172.844 113.681 171.574 112.592 170.257C108.274 164.916 104.956 158.746 103.059 152.127C101.547 146.952 101.725 141.49 105.145 137.093H105.148V137.09Z" fill="#5E5573"/>
<path d="M144.34 137.091C148.713 141.009 149.194 148.745 145.351 153.182C145.438 151.71 145.578 150.361 145.622 149.024C145.849 144.925 145.217 141.129 144.34 137.094V137.091Z" fill="#5E5573"/>
<path d="M112.823 131.357C115.92 128.74 119.935 127.263 123.979 127.106C125.339 127.077 126.726 127.112 128.075 127.284C130.243 127.552 132.334 128.347 134.217 129.437C135.155 129.984 136.046 130.608 136.842 131.354L136.754 131.505C134.257 130.73 131.784 129.949 129.255 129.346C127.533 128.906 125.768 128.501 123.982 128.449C123.536 128.44 122.898 128.455 122.446 128.455C121.998 128.487 121.365 128.551 120.914 128.583C120.183 128.702 119.355 128.813 118.641 129.026C116.619 129.48 114.705 130.378 112.922 131.502L112.82 131.362V131.357H112.823Z" fill="#5E5573"/>
<path d="M113.285 136.304C116.35 133.787 120.277 132.385 124.231 132.231C125.559 132.202 126.917 132.231 128.237 132.388C130.358 132.636 132.406 133.399 134.256 134.448C135.177 134.975 136.057 135.578 136.84 136.301L136.756 136.452C133.807 135.584 130.926 134.751 127.943 134.092C126.748 133.798 125.469 133.623 124.237 133.568C123.803 133.556 123.176 133.571 122.736 133.568C122.299 133.597 121.679 133.655 121.236 133.685C120.519 133.795 119.709 133.897 119.01 134.095C117.029 134.521 115.144 135.368 113.387 136.441L113.285 136.298V136.304Z" fill="#5E5573"/>
<path d="M114.823 141.696C116.335 140.17 118.188 138.984 120.201 138.212C120.551 138.104 121.244 137.886 121.594 137.781C122.002 137.685 122.611 137.577 123.03 137.492C123.464 137.454 124.065 137.384 124.493 137.355C124.927 137.364 125.536 137.332 125.964 137.355C126.678 137.387 127.462 137.446 128.164 137.553C131.039 138.023 133.758 139.549 135.707 141.693L135.608 141.839C132.578 140.744 129.629 139.628 126.497 138.937C125.883 138.8 125.125 138.742 124.499 138.698C124.108 138.696 123.549 138.707 123.153 138.71C122.529 138.78 121.76 138.832 121.148 138.984L120.481 139.118L119.831 139.322C118.069 139.803 116.437 140.729 114.934 141.833L114.82 141.702V141.696H114.823Z" fill="#5E5573"/>
<path d="M117.66 151.325C119.134 149.393 121.229 147.753 123.647 147.124C125.305 146.69 127.068 146.736 128.743 147.06C130.418 147.398 131.924 148.295 133.18 149.417C133.795 149.982 134.357 150.602 134.803 151.316L134.689 151.447C133.218 150.803 131.843 150.098 130.38 149.527C128.982 148.994 127.615 148.359 126.118 148.202C122.995 147.861 120.04 149.306 117.788 151.439L117.66 151.322V151.325Z" fill="#5E5573"/>
<path d="M123.069 163.061C123.926 161.459 125.281 160.072 126.941 159.294C128.08 158.749 129.362 158.499 130.612 158.403C132.491 158.318 134.388 159.111 135.682 160.48L135.606 160.637C134.974 160.617 134.394 160.55 133.823 160.492C132.858 160.392 131.498 160.264 130.557 160.133C129.77 160.014 128.931 160.011 128.147 160.18C127.76 160.241 127.343 160.378 126.97 160.494C126.615 160.64 126.175 160.809 125.849 161.013C124.847 161.514 123.99 162.295 123.209 163.16L123.066 163.061H123.069Z" fill="#5E5573"/>
<path d="M128.714 166.854C129.428 165.374 130.747 164.168 132.233 163.457C132.985 163.084 133.772 162.662 134.634 162.662C135.482 162.659 136.341 162.813 137.107 163.34L137.099 163.515C136.356 163.929 135.648 164.165 134.879 164.395C134.179 164.625 133.437 164.57 132.731 164.765C131.266 165.156 129.946 165.878 128.854 166.959L128.711 166.857H128.714V166.854Z" fill="#5E5573"/>
<path d="M118.855 125.248C120.577 124.105 122.684 123.537 124.744 123.447C125.787 123.392 126.87 123.301 127.884 123.633C128.886 123.957 129.851 124.435 130.623 125.245L130.562 125.408C129.513 125.504 128.546 125.437 127.535 125.347C126.573 125.285 125.667 124.939 124.711 124.845C122.762 124.644 120.813 124.784 118.934 125.405L118.858 125.248H118.855Z" fill="#5E5573"/>
<path d="M146.757 83.9204C145.408 85.281 144.543 86.9242 144.698 88.8558C144.735 89.4734 144.855 90.1085 145.03 90.7961C142.469 88.8616 143.553 84.3807 146.757 83.9204Z" fill="#5E5573"/>
<path d="M141.876 84.0078C141.168 85.549 140.975 87.0989 141.491 88.6955C141.651 89.2141 141.87 89.7327 142.138 90.3066C139.548 89.3306 139.265 85.1295 141.873 84.0049L141.876 84.0078Z" fill="#5E5573"/>
<path d="M92.4363 95.1253C89.9482 94.6912 88.2817 93.2258 87.4922 92.4042C88.5964 92.5382 90.2629 92.6285 92.2323 92.2731C93.3103 92.0808 95.9557 91.5709 98.4059 89.6889C100.329 88.2118 102.109 85.9072 102.109 85.9072C102.671 87.2124 102.709 87.329 102.709 87.329C103.038 88.3545 102.595 89.3684 102.313 90.021C101.383 92.1507 97.3279 95.9819 92.4334 95.1282L92.4363 95.1253Z" fill="#5E5573"/>
<path d="M103.289 83.6494C106.497 84.1097 107.578 88.5906 105.017 90.5251C105.192 89.8375 105.311 89.2024 105.349 88.5848C105.503 86.6532 104.638 85.0129 103.289 83.6494Z" fill="#5E5573"/>
<path d="M108.164 83.7339C110.774 84.8585 110.488 89.0567 107.898 90.0356C108.166 89.4617 108.388 88.9431 108.545 88.4245C109.064 86.825 108.869 85.278 108.161 83.7368L108.164 83.7339Z" fill="#5E5573"/>
<path d="M104.245 129.413V129.408C102.101 132.676 99.3241 134.095 97.9694 134.669C96.4981 134.754 94.4063 134.856 91.8949 134.92C86.1846 135.068 83.3061 135.127 82.0213 134.305C77.1471 131.191 77.5841 121.107 77.6249 120.376C78.0532 112.408 82.6302 107.239 83.9004 105.893C84.3812 105.506 90.5664 100.667 97.5615 103.443C103.706 105.882 105.603 112.259 105.85 113.133C106.04 113.809 108.825 122.43 104.245 129.413Z" fill="#FDFEFD"/>
<path d="M82.1848 133.973H82.1907C81.7915 133.373 81.4885 132.787 81.2584 132.254C80.629 130.803 79.7201 128.193 79.6734 124.778C79.6734 124.778 79.6239 120.207 81.5439 116.003C81.7536 115.543 81.9372 115.181 82.0683 114.937C82.179 114.727 82.3421 114.424 82.5577 114.048C84.5797 110.587 87.5892 108.233 89.9316 107.149C96.8423 103.953 103.913 109.168 104.248 109.422C103.974 108.941 103.61 108.367 103.144 107.755C102.879 107.414 102.287 106.671 101.416 105.873C100.764 105.276 99.8315 104.539 98.6049 103.889C97.6347 103.417 96.1576 102.837 94.2872 102.648C94.0104 102.619 93.3025 102.555 92.3993 102.598C88.6293 102.776 85.7421 104.591 84.8186 105.215C84.0756 105.716 82.7937 106.601 81.4448 108.212C79.2947 110.785 78.4382 113.492 77.9079 115.181C76.8474 118.584 76.7862 121.416 76.7892 122.395C76.7892 123.91 76.8299 127.511 78.4848 131.08C78.4848 131.08 78.645 131.427 80.7514 135.296C80.9204 135.208 81.101 135.124 81.2904 135.045C81.3807 135.004 81.4739 134.969 81.5613 134.934C81.5613 134.934 82.0362 134.757 82.6393 134.596C82.4849 134.407 82.3334 134.197 82.1819 133.97L82.1848 133.973Z" fill="#5E5573"/>
<path d="M90.632 106.811C89.758 107.143 89.0617 107.525 88.581 107.822C87.2233 109.529 85.4578 112.262 84.5488 116.029C82.6871 123.732 84.9246 133.536 89.0966 134.932C89.9066 135.202 90.2125 134.964 91.8848 134.926C95.5965 134.85 98.5944 135.945 100.622 136.942C100.622 136.942 103.116 133.897 104.112 132.438C106.082 129.55 107.786 121.774 106.877 116.769C106.335 113.771 105.048 110.983 105.048 110.983C104.981 110.84 104.928 110.727 104.893 110.654C104.785 110.427 104.666 110.185 104.535 109.937C104.433 109.739 104.325 109.556 104.223 109.384C103.498 108.824 102.493 108.14 101.222 107.539C99.0198 106.499 97.1698 106.246 96.5113 106.176C95.3372 106.045 93.19 105.835 90.632 106.808V106.811Z" fill="#5E5573"/>
<path d="M98.4265 117.617C96.5357 118.36 94.4555 116.976 93.7796 114.526C93.1037 112.076 94.0884 109.486 95.9763 108.743C97.8672 108 99.9473 109.384 100.623 111.834C101.299 114.284 100.314 116.874 98.4265 117.617Z" fill="#F9FCFE"/>
<path d="M94.1049 128.19C93.0327 128.612 91.9023 128.006 91.5789 126.835C91.2556 125.667 91.8645 124.376 92.9366 123.954C94.0087 123.531 95.1392 124.137 95.4625 125.309C95.7859 126.477 95.177 127.767 94.1049 128.19Z" fill="#F9FCFE"/>
<path d="M79.0107 136.321H79.0078C79.4448 136.021 80.1062 135.599 80.9452 135.199C82.1514 134.628 84.2403 133.862 90.3032 134.337C97.3362 134.891 99.7135 136.327 100.628 136.939C101.418 137.466 102.03 137.982 102.429 138.337C98.42 137.116 93.4001 136.062 87.582 135.901C84.4618 135.814 81.5833 135.998 79.0136 136.324L79.0107 136.321Z" fill="#5E5573"/>
<path d="M96.1671 158.219C96.2021 159.405 96.3448 160.346 96.7877 161.357C97.2363 162.365 97.8598 163.128 98.6319 164.022C95.7418 164.238 93.883 160.118 96.1671 158.219Z" fill="#5E5573"/>
<path d="M155.195 154.956C158.147 155.306 158.831 159.772 156.291 161.167C156.451 159.999 156.559 159.017 156.384 157.928C156.203 156.835 155.81 155.97 155.195 154.956Z" fill="#5E5573"/>
<g filter="url(#filter0_dd_2106_487)">
<rect x="210.504" y="212.5" width="37.2472" height="171.337" rx="18.6236" transform="rotate(90 210.504 212.5)" fill="#5E5573" shape-rendering="crispEdges"/>
<path d="M107.09 222.28C107.09 222.971 106.515 223.569 105.824 223.569H102.165V235.858C102.165 236.571 101.613 237.124 100.9 237.124C100.209 237.124 99.6339 236.571 99.6339 235.858V223.569H95.9979C95.2845 223.569 94.7322 222.971 94.7322 222.28C94.7322 221.567 95.2845 221.015 95.9979 221.015H105.824C106.515 221.015 107.09 221.567 107.09 222.28ZM117.392 226.86V231.393V235.904C117.392 236.571 116.84 237.124 116.172 237.124C115.574 237.124 115.114 236.686 114.976 236.134C114.101 236.755 113.066 237.124 111.915 237.124C110.35 237.124 108.992 236.479 108.003 235.444C107.013 234.385 106.438 232.958 106.438 231.393C106.438 229.806 107.013 228.379 108.003 227.343C108.992 226.285 110.35 225.617 111.915 225.617C113.066 225.617 114.101 226.008 114.976 226.63C115.114 226.054 115.574 225.617 116.172 225.617C116.84 225.617 117.392 226.17 117.392 226.86ZM114.055 233.764C114.607 233.165 114.953 232.337 114.953 231.393C114.953 230.427 114.607 229.598 114.055 229.023C113.503 228.402 112.72 228.08 111.915 228.08C111.087 228.08 110.304 228.402 109.775 229.023C109.223 229.598 108.9 230.427 108.9 231.393C108.9 232.337 109.223 233.165 109.775 233.764C110.304 234.339 111.087 234.661 111.915 234.661C112.72 234.661 113.503 234.339 114.055 233.764ZM123.286 237.124C122.573 237.124 122.021 236.548 122.021 235.858V222.28C122.021 221.59 122.573 221.015 123.286 221.015C124 221.015 124.575 221.59 124.575 222.28V230.243L129.293 225.525C129.776 225.042 130.604 225.042 131.088 225.525C131.594 226.031 131.594 226.837 131.088 227.32L127.636 230.772L131.18 235.029C131.617 235.582 131.548 236.387 130.996 236.824C130.766 237.031 130.466 237.124 130.19 237.124C129.822 237.124 129.454 236.962 129.224 236.663L125.841 232.567L124.575 233.833V235.858C124.575 236.548 124 237.124 123.286 237.124ZM144.2 232.337C144.2 234.96 141.991 237.124 139.345 237.124C136.721 237.124 134.558 234.96 134.558 232.337V226.837C134.558 226.193 135.11 225.617 135.778 225.617C136.468 225.617 136.997 226.193 136.997 226.837V232.337C136.997 233.649 138.033 234.684 139.345 234.684C140.679 234.684 141.738 233.649 141.761 232.337V226.837C141.761 226.193 142.267 225.617 142.958 225.617C143.602 225.617 144.2 226.193 144.2 226.837V232.337ZM152.906 225.617C153.596 225.617 154.194 226.17 154.194 226.883C154.194 227.573 153.596 228.149 152.906 228.149H152.33V234.569C153.044 234.569 153.596 235.144 153.596 235.858C153.596 236.571 153.044 237.124 152.33 237.124C150.927 237.124 149.776 235.973 149.776 234.569V228.149H149.109C148.395 228.149 147.843 227.573 147.843 226.883C147.843 226.17 148.395 225.617 149.109 225.617H149.776V222.28C149.776 221.567 150.351 221.015 151.065 221.015C151.778 221.015 152.33 221.567 152.33 222.28V225.617H152.906Z" fill="white"/>
</g>
<defs>
<filter id="filter0_dd_2106_487" x="36.1862" y="212.5" width="177.297" height="43.2066" filterUnits="userSpaceOnUse" color-interpolation-filters="sRGB">
<feFlood flood-opacity="0" result="BackgroundImageFix"/>
<feColorMatrix in="SourceAlpha" type="matrix" values="0 0 0 0 0 0 0 0 0 0 0 0 0 0 0 0 0 0 127 0" result="hardAlpha"/>
<feOffset dy="2.97977"/>
<feGaussianBlur stdDeviation="1.48989"/>
<feComposite in2="hardAlpha" operator="out"/>
<feColorMatrix type="matrix" values="0 0 0 0 0 0 0 0 0 0 0 0 0 0 0 0 0 0 0.25 0"/>
<feBlend mode="normal" in2="BackgroundImageFix" result="effect1_dropShadow_2106_487"/>
<feColorMatrix in="SourceAlpha" type="matrix" values="0 0 0 0 0 0 0 0 0 0 0 0 0 0 0 0 0 0 127 0" result="hardAlpha"/>
<feOffset dy="2.97977"/>
<feGaussianBlur stdDeviation="1.48989"/>
<feComposite in2="hardAlpha" operator="out"/>
<feColorMatrix type="matrix" values="0 0 0 0 0 0 0 0 0 0 0 0 0 0 0 0 0 0 0.25 0"/>
<feBlend mode="normal" in2="effect1_dropShadow_2106_487" result="effect2_dropShadow_2106_487"/>
<feBlend mode="normal" in="SourceGraphic" in2="effect2_dropShadow_2106_487" result="shape"/>
</filter>
<linearGradient id="paint0_linear_2106_487" x1="125" y1="0" x2="125" y2="250" gradientUnits="userSpaceOnUse">
<stop stop-color="#9B89E8"/>
<stop offset="0.74" stop-color="#B7AEDC"/>
</linearGradient>
</defs>
</svg>
