<svg width="105" height="100" viewBox="0 0 105 100" fill="none" xmlns="http://www.w3.org/2000/svg">
<circle cx="52" cy="50" r="48.5" fill="white" stroke="#5E5573" stroke-width="3"/>
<path d="M23.7953 35.5693C23.0678 38.513 22.8589 39.9848 22.772 41.7104C22.6501 44.134 22.9486 44.8503 22.6066 47.0314C22.2436 49.3542 21.7782 49.357 21.2848 51.9053C20.9301 53.743 20.5601 55.6536 21.0801 57.9581C21.5861 60.2037 22.6865 61.7162 23.3692 62.6358C25.1732 65.0664 27.2604 66.3083 28.5164 67.0401C30.4018 68.1376 32.653 68.8329 37.1526 70.222C37.8198 70.4281 38.6048 70.6594 39.551 70.9061C39.9099 70.9986 41.1995 71.3294 42.9587 71.6743C43.4184 71.764 44.4501 71.9602 45.8252 72.1649C47.9069 72.4761 50.4258 72.8517 53.5587 72.9499C55.5478 73.0129 57.9322 73.076 61.0511 72.6162C64.3508 72.1298 66.7618 71.3098 67.6001 71.0112C68.8392 70.5697 69.812 70.1141 71.7591 69.2016C76.3512 67.0499 78.0095 65.7729 79.3257 64.4146C79.4084 64.3291 79.5192 64.2141 79.6664 64.0529C82.9366 60.4757 83.3908 56.1653 83.4497 55.5457C83.8043 51.7862 82.5736 48.8958 81.9596 47.665C81.9694 46.9179 81.9736 45.8316 81.9386 44.5223C81.8671 41.8674 81.6807 39.5559 81.5475 38.541C81.1985 35.8665 80.0434 29.9875 75.7625 24.3988C73.322 21.2126 70.8171 19.3637 70.0139 18.7931C65.011 15.2383 59.8638 14.2837 59.0704 14.2487C58.5462 14.2248 58.3022 14.1646 57.813 14.0454C57.3014 13.9207 57.0421 13.8548 56.8711 13.6697C56.4309 13.1945 56.6874 12.303 56.7729 12.0073C57.1388 10.7359 58.0205 10.2901 57.8705 10.028C57.6967 9.72381 56.2935 9.94528 55.1581 10.7261C55.1581 10.7261 54.6955 11.0443 53.1242 12.8693C53.4199 8.17907 52.9433 8.01507 52.9433 8.01507C52.7107 7.93517 52.4233 8.18188 52.0028 8.54493C51.407 9.05657 51.1099 9.64671 50.9501 10.021C50.2842 11.5853 50.5548 12.8918 50.3151 12.9282C50.0557 12.9675 49.966 11.4101 48.7661 10.4513C48.2545 10.042 47.405 9.63129 47.063 9.90884C46.5135 10.356 47.9811 12.0115 47.4443 13.3025C46.9228 14.5585 44.9548 14.393 42.0307 15.1402C38.4955 16.0429 36.0508 17.6549 34.6785 18.5478C31.896 20.3589 30.127 22.3368 29.4612 23.1232C25.8096 27.4321 24.6728 32.0285 23.7981 35.5679H23.7953V35.5693Z" fill="#C0B4DF"/>
<path d="M34.1283 36.1735C34.1283 36.1735 34.5769 35.5203 37.8402 35.6843C37.8402 35.6843 39.3499 35.1138 37.8402 34.1339C37.8402 34.1339 35.5161 33.5228 34.1283 35.6843C34.1283 35.6843 33.7737 36.2268 34.1283 36.1735Z" fill="#5E5573"/>
<path d="M35.6897 54.0738C35.6897 54.0738 30.8915 54.1873 28.7468 49.6709C28.7468 49.6709 26.9974 44.3652 33.2058 41.3178C33.4441 41.2435 36.4929 40.3506 39.0188 42.4056C41.2364 44.2111 41.2939 46.859 41.2953 47.2206C41.3149 47.4715 41.5406 51.1063 38.8226 53.0365C37.6227 53.8888 36.3611 54.0457 35.6883 54.0738H35.6897Z" fill="white"/>
<path d="M29.7012 51.2059C29.6213 50.5554 29.568 49.6107 29.7404 48.4977C29.9227 47.3244 30.1694 45.725 31.452 44.4088C33.0317 42.7855 35.126 42.6776 35.5114 42.665C38.8756 42.5528 40.9026 45.3774 41.061 45.6059C40.9152 45.0494 40.5521 43.9714 39.6144 42.9678C39.3817 42.7196 38.7537 42.0889 37.7823 41.6305C36.1072 40.8399 33.8672 40.7754 31.9538 41.8211C29.9801 42.9005 29.226 44.6863 28.9961 45.2554C28.7508 45.861 27.9209 47.9131 28.8489 49.9359C29.1152 50.5176 29.4545 50.9381 29.704 51.2045H29.7012V51.2059Z" fill="#5E5573"/>
<path d="M34.8912 42.7183C34.2408 43.0772 33.1166 43.8229 32.3386 45.1798C31.1093 47.3259 30.9677 50.6214 32.9316 52.56C34.0516 53.6646 35.466 53.945 36.2509 54.0249C37.4971 53.8637 38.3409 53.3801 38.7783 53.0815C40.6805 51.7807 41.1963 49.657 41.3085 48.722C41.4262 47.7492 41.2832 46.5942 41.1991 46.2241C41.1963 46.2101 41.0589 45.6059 41.0589 45.6059C40.6174 44.9976 39.7259 43.9505 38.2905 43.2678C37.8237 43.0449 36.9812 42.6553 35.836 42.6426C35.4477 42.6384 35.1225 42.6791 34.8912 42.7183Z" fill="#5E5573"/>
<path d="M37.778 47.8164C38.6272 47.8164 39.3157 46.998 39.3157 45.9885C39.3157 44.979 38.6272 44.1606 37.778 44.1606C36.9287 44.1606 36.2402 44.979 36.2402 45.9885C36.2402 46.998 36.9287 47.8164 37.778 47.8164Z" fill="white"/>
<path d="M34.844 51.1133C35.3263 51.1133 35.7173 50.7223 35.7173 50.24C35.7173 49.7577 35.3263 49.3667 34.844 49.3667C34.3617 49.3667 33.9707 49.7577 33.9707 50.24C33.9707 50.7223 34.3617 51.1133 34.844 51.1133Z" fill="white"/>
<path d="M69.7988 37.9494C69.7988 37.9494 69.3503 37.2962 66.087 37.4602C66.087 37.4602 64.5773 36.8897 66.087 35.9098C66.087 35.9098 68.4111 35.2987 69.7988 37.4602C69.7988 37.4602 70.1535 38.0026 69.7988 37.9494Z" fill="#5E5573"/>
<path d="M68.5946 54.1705C68.5946 54.1705 73.3928 54.284 75.5374 49.7676C75.5374 49.7676 77.2868 44.4619 71.0785 41.4145C70.8402 41.3402 67.7914 40.4473 65.2654 42.5023C63.0478 44.3077 62.9904 46.9556 62.989 47.3173C62.9693 47.5682 62.7437 51.203 65.4617 53.1332C66.6616 53.9854 67.9231 54.1424 68.596 54.1705H68.5946Z" fill="white"/>
<path d="M74.5825 51.3025C74.6624 50.6521 74.7156 49.7073 74.5432 48.5943C74.361 47.4211 74.1143 45.8217 72.8317 44.5054C71.2519 42.8822 69.1577 42.7743 68.7722 42.7617C65.408 42.6495 63.3811 45.474 63.2227 45.7025C63.3684 45.146 63.7315 44.0681 64.6693 43.0644C64.902 42.8163 65.5299 42.1855 66.5014 41.7272C68.1764 40.9366 70.4164 40.8721 72.3298 41.9178C74.3035 42.9971 75.0577 44.783 75.2875 45.3521C75.5328 45.9577 76.3627 48.0098 75.4347 50.0325C75.1684 50.6143 74.8292 51.0348 74.5797 51.3011H74.5825V51.3025Z" fill="#5E5573"/>
<path d="M69.3916 42.8148C70.042 43.1736 71.1662 43.9193 71.9441 45.2762C73.1735 47.4223 73.3151 50.7178 71.3512 52.6565C70.2312 53.761 68.8168 54.0414 68.0319 54.1213C66.7857 53.9601 65.9418 53.4765 65.5045 53.1779C63.6023 51.8771 63.0865 49.7534 62.9743 48.8185C62.8566 47.8457 62.9996 46.6906 63.0837 46.3205C63.0865 46.3065 63.2238 45.7024 63.2238 45.7024C63.6654 45.094 64.5569 44.0469 65.9923 43.3643C66.4591 43.1414 67.3015 42.7517 68.4468 42.7391C68.8351 42.7349 69.1603 42.7755 69.3916 42.8148Z" fill="#5E5573"/>
<path d="M66.5026 47.9131C67.3518 47.9131 68.0403 47.0947 68.0403 46.0852C68.0403 45.0757 67.3518 44.2573 66.5026 44.2573C65.6533 44.2573 64.9648 45.0757 64.9648 46.0852C64.9648 47.0947 65.6533 47.9131 66.5026 47.9131Z" fill="white"/>
<path d="M69.4397 51.21C69.922 51.21 70.313 50.819 70.313 50.3367C70.313 49.8544 69.922 49.4634 69.4397 49.4634C68.9574 49.4634 68.5664 49.8544 68.5664 50.3367C68.5664 50.819 68.9574 51.21 69.4397 51.21Z" fill="white"/>
<path d="M34.6373 56.8601C34.9817 55.7422 33.3571 54.2496 31.0088 53.5262C28.6605 52.8029 26.4776 53.1228 26.1333 54.2407C25.7889 55.3586 27.4135 56.8513 29.7618 57.5746C32.1101 58.2979 34.293 57.9781 34.6373 56.8601Z" fill="#FAC0D8"/>
<path d="M74.5439 57.5634C76.8923 56.84 78.5168 55.3474 78.1725 54.2295C77.8281 53.1115 75.6453 52.7917 73.2969 53.515C70.9486 54.2383 69.3241 55.731 69.6684 56.8489C70.0128 57.9668 72.1956 58.2867 74.5439 57.5634Z" fill="#FAC0D8"/>
<path d="M29.4614 23.1243C28.853 22.8888 27.9349 22.5257 26.8275 22.0617C22.5325 20.2605 21.8611 19.6619 19.7501 19.0536C18.2502 18.6204 16.4181 18.092 14.2019 18.4985C11.2975 19.0311 9.3869 20.866 8.54164 21.8024C6.73338 23.8055 5.49423 25.4554 4.30415 27.5173C3.48412 28.9373 2.64727 30.3895 1.93659 32.4697C0.976385 35.2831 -0.366494 39.215 1.34645 42.4278C2.01649 43.6852 3.13368 44.7939 4.19621 45.8467C5.36807 47.0087 6.08017 47.4643 7.13568 48.6978C8.06084 49.7772 8.67341 50.7808 9.04627 51.4607C9.39811 52.4447 9.74294 53.4876 10.0696 54.5908C10.3667 55.5944 10.6246 56.5659 10.8489 57.498C10.9695 57.9676 11.1713 58.6377 11.512 59.403C12.0867 60.6926 13.0637 62.885 15.2771 64.0344C17.1736 65.0184 19.1024 64.7829 20.0234 64.5965C20.0234 64.5965 21.9859 63.9615 23.3708 62.6341C23.0007 62.2023 22.4793 61.5211 22.0125 60.6015C20.1538 56.9373 20.992 53.0433 21.285 51.905C21.6915 50.3267 22.0503 50.1627 22.4078 48.3348C22.7596 46.5363 22.6979 45.2327 22.6881 44.2585C22.6391 39.2108 23.9049 34.9396 24.4221 33.1986C25.1342 30.7974 25.8967 29.1308 26.0804 28.7341C27.2032 26.3118 28.4619 24.4377 29.4586 23.1243H29.4614Z" fill="#C0B4DF"/>
<path d="M4.19622 45.8455C4.87888 46.7567 5.75077 47.0805 7.1357 48.6967C8.06085 49.7761 8.67342 50.7797 9.04629 51.4596C9.39813 52.4436 9.74296 53.4865 10.0696 54.5897C10.3667 55.5933 10.6247 56.5647 10.8489 57.4969C10.9695 57.9665 11.1713 58.6365 11.512 59.4019C12.0867 60.6915 13.0637 62.8839 15.2771 64.0333C17.1736 65.0173 19.1025 64.7818 20.0234 64.5954C20.0234 64.5954 21.9859 63.9604 23.3708 62.6329C23.0007 62.2012 22.4793 61.5199 22.0125 60.6004C20.1538 56.9362 20.992 53.0421 21.285 51.9039C21.6915 50.3255 22.0503 50.1615 22.4078 48.3337C22.4989 47.8655 22.562 47.4337 22.6054 47.03C22.754 45.6563 22.6937 44.3835 22.6881 44.2574C22.6054 42.3285 22.9194 40.2946 23.1872 38.5536C23.396 37.1953 23.7577 35.3562 24.4221 33.1989C24.4221 33.1989 20.7663 28.2704 15.4439 27.1349C14.7136 26.9794 14.2958 26.891 13.6819 26.9107C8.53465 27.0789 4.91532 34.4451 3.83737 39.3765C3.38601 41.4426 2.8225 44.0163 4.19482 45.8469L4.19622 45.8455Z" fill="#ACECC7"/>
<path d="M4.44338 38.3011C4.73915 38.4875 5.80168 36.2587 8.41595 34.8472C10.384 33.7833 12.2511 33.7118 13.0235 33.6823C18.5422 33.4707 22.5624 37.8497 23.1918 38.5548C23.3516 37.6072 23.5507 36.6106 23.7974 35.5705C23.9936 34.7406 24.2053 33.9501 24.4254 33.2001C22.9283 32.0549 21.6401 31.1115 20.649 30.3994C18.9081 29.1491 18.2506 28.7257 17.3129 28.3346C16.263 27.8959 15.2775 27.4838 13.9851 27.5679C12.5806 27.6604 11.5937 28.2884 10.7372 28.8477C10.1471 29.2332 8.73414 30.2382 6.93289 32.9618C5.3391 35.3714 4.11817 38.0978 4.44338 38.3039V38.3011Z" fill="#8EC2A7"/>
<path d="M22.589 62.3244C21.2419 63.2439 19.7617 64.2812 18.0515 64.1943C16.7703 64.1298 15.6041 63.4374 14.6635 62.6075C12.6982 60.875 11.4647 58.7149 10.8241 56.1819C10.1835 53.6489 9.95222 51.0052 8.26591 48.9432C7.56643 48.0882 6.63006 47.4728 5.81424 46.7383C4.5821 45.6295 3.45509 44.3847 2.49349 43.0335C-0.227311 39.2095 2.14025 33.9417 3.91487 30.1836C5.79322 26.2054 8.14395 21.4521 12.5258 19.7784C14.9579 18.849 17.8188 19.0088 20.2285 19.927C23.2002 21.0596 26.0654 22.4782 29.0343 23.6318C29.7912 23.9262 30.1192 22.7066 29.3693 22.4151C26.4831 21.2937 23.6908 19.9578 20.8186 18.8112C18.545 17.9028 16.0022 17.68 13.601 18.158C8.4201 19.191 5.36848 24.25 3.25604 28.6445C2.31827 30.5943 1.41554 32.5694 0.78896 34.644C0.044629 37.1068 -0.474019 40.0197 0.659998 42.4475C1.20808 43.6208 2.12483 44.6791 2.97009 45.6449C3.97514 46.7944 5.09094 47.8022 6.27402 48.7596C8.52103 50.5791 8.86025 53.2915 9.47282 55.945C10.1751 58.9868 11.5825 61.6922 14.0131 63.7051C15.1681 64.6611 16.5292 65.3844 18.0543 65.4559C19.9972 65.547 21.6905 64.4648 23.2282 63.4135C23.894 62.958 23.2647 61.8646 22.5918 62.3244H22.589Z" fill="#5E5573"/>
<path d="M4.7447 45.8215C3.706 41.3948 4.85684 37.3423 7.17674 33.5436C8.20422 31.8615 9.40973 30.1569 11.0666 29.0425C13.123 27.6604 15.3714 27.8132 17.5427 28.8785C19.714 29.9439 21.7718 31.7605 23.5436 33.5296C24.1183 34.1043 25.0112 33.2128 24.4351 32.638C21.2321 29.4392 16.2923 25.119 11.4409 27.3787C9.40833 28.3248 7.89023 30.1527 6.67491 31.982C5.33904 33.9935 4.184 36.155 3.56863 38.5016C2.91261 40.9995 2.94064 43.6502 3.52798 46.1579C3.71301 46.9485 4.92973 46.6135 4.7447 45.8229V45.8215Z" fill="#5E5573"/>
<path d="M29.1988 23.6514C29.2409 23.4846 28.1896 23.179 25.459 22.073C22.5545 20.8955 21.9784 20.5255 19.9557 19.8694C17.9764 19.2274 17.1073 19.1209 16.3742 19.1013C14.779 19.0592 13.5833 19.4223 13.3408 19.4994C11.1373 20.1932 9.78316 21.6202 8.38842 23.0893C7.30346 24.2331 6.59277 25.2367 6.28299 25.6895C2.68469 30.9489 1.51703 37.2624 1.51562 37.2666C1.51562 37.2666 2.44218 33.9122 3.62106 31.3232C5.58491 27.0086 8.36459 24.5555 9.06827 23.9569C10.7588 22.5202 12.1423 21.8599 12.9063 21.5431C13.7501 21.1913 14.9192 20.7175 16.4962 20.6768C16.7863 20.6698 17.6876 20.66 19.4651 21.1184C22.0948 21.7954 22.5209 22.4304 24.7917 23.0921C26.9686 23.7257 29.1386 23.8869 29.1974 23.6542V23.6514H29.1988Z" fill="#DACFF3"/>
<path d="M74.584 22.749C75.1923 22.5135 76.1105 22.1505 77.2179 21.6865C81.5128 19.8852 82.1843 19.2867 84.2953 18.6783C85.7952 18.2452 87.6273 17.7167 89.8435 18.1232C92.7479 18.6559 94.6585 20.4908 95.5037 21.4272C97.312 23.4303 98.5512 25.0801 99.7412 27.1421C100.561 28.5621 101.398 30.0143 102.109 32.0945C103.069 34.9078 104.412 38.8397 102.699 42.0525C102.029 43.3099 100.912 44.4187 99.8492 45.4714C98.6773 46.6335 97.9652 47.089 96.9097 48.3226C95.9845 49.4019 95.372 50.4056 94.9991 51.0854C94.6473 52.0695 94.3024 53.1124 93.9758 54.2155C93.6787 55.2192 93.4207 56.1906 93.1965 57.1228C93.0759 57.5924 92.874 58.2624 92.5334 59.0278C91.9587 60.3174 90.9817 62.5097 88.7683 63.6592C86.8717 64.6432 84.9429 64.4077 84.022 64.2213C84.022 64.2213 82.0595 63.5863 80.6746 62.2588C81.0447 61.8271 81.5661 61.1458 82.0329 60.2263C83.8916 56.5621 83.0534 52.668 82.7604 51.5298C82.3539 49.9514 81.9951 49.7874 81.6376 47.9595C81.2858 46.1611 81.3474 44.8575 81.3573 43.8832C81.4063 38.8355 80.1405 34.5644 79.6233 32.8234C78.9112 30.4222 78.1486 28.7555 77.965 28.3588C76.8422 25.9366 75.5834 24.0624 74.5868 22.749H74.584Z" fill="#C0B4DF"/>
<path d="M99.8489 45.4713C99.1663 46.3824 98.2944 46.7062 96.9095 48.3224C95.9843 49.4018 95.3717 50.4054 94.9989 51.0853C94.647 52.0693 94.3022 53.1122 93.9756 54.2154C93.6784 55.2191 93.4205 56.1905 93.1962 57.1226C93.0757 57.5922 92.8738 58.2623 92.5332 59.0276C91.9585 60.3172 90.9814 62.5096 88.7681 63.659C86.8715 64.643 84.9427 64.4076 84.0217 64.2211C84.0217 64.2211 82.0593 63.5861 80.6744 62.2587C81.0444 61.8269 81.5659 61.1457 82.0327 60.2261C83.8914 56.5619 83.0531 52.6679 82.7602 51.5296C82.3537 49.9513 81.9948 49.7873 81.6374 47.9594C81.5463 47.4912 81.4832 47.0595 81.4397 46.6558C81.2911 45.282 81.3514 44.0092 81.357 43.8831C81.4397 41.9543 81.1257 39.9203 80.858 38.1794C80.6491 36.8211 80.2875 34.982 79.623 32.8247C79.623 32.8247 83.2788 27.8961 88.6013 26.7607C89.3316 26.6051 89.7493 26.5168 90.3633 26.5364C95.5105 26.7046 99.1298 34.0708 100.208 39.0022C100.659 41.0684 101.223 43.642 99.8503 45.4727H99.8489V45.4713Z" fill="#ACECC7"/>
<path d="M99.6031 37.9256C99.3073 38.112 98.2448 35.8833 95.6305 34.4717C93.6625 33.4078 91.7953 33.3363 91.023 33.3068C85.5043 33.0952 81.484 37.4742 80.8546 38.1793C80.6948 37.2317 80.4958 36.2351 80.2491 35.195C80.0528 34.3652 79.8412 33.5746 79.6211 32.8246C81.1182 31.6794 82.4064 30.736 83.3974 30.0239C85.1384 28.7736 85.7958 28.3502 86.7336 27.9592C87.7835 27.5204 88.7689 27.1083 90.0614 27.1924C91.4659 27.2849 92.4527 27.9129 93.3092 28.4722C93.8993 28.8577 95.3123 29.8627 97.1136 32.5863C98.7074 34.9959 99.9283 37.7224 99.6031 37.9284V37.9256Z" fill="#8EC2A7"/>
<path d="M80.8203 63.0381C82.2585 64.0207 83.7962 65.0089 85.5919 65.0818C86.9544 65.1365 88.2832 64.6136 89.3808 63.8343C91.4988 62.3288 93.1263 60.128 93.9827 57.6834C94.8841 55.1098 94.863 52.0792 96.4414 49.7761C97.1815 48.6953 98.3324 47.9832 99.2856 47.1086C100.535 45.9633 101.66 44.6751 102.643 43.2944C105.602 39.1354 103.261 33.5144 101.331 29.403C99.3374 25.1571 96.8858 20.3477 92.3413 18.3838C89.7256 17.2526 86.5254 17.2638 83.8523 18.1988C82.4814 18.6782 81.1679 19.33 79.8377 19.9118C78.1331 20.6575 76.4118 21.364 74.6778 22.0382C73.9293 22.3284 74.2545 23.5493 75.0128 23.2549C77.7687 22.184 80.4516 20.9617 83.1738 19.8108C85.2947 18.9137 87.602 18.5577 89.8896 18.9558C94.7677 19.8052 97.5965 24.5628 99.5814 28.6545C100.452 30.4487 101.291 32.2612 101.904 34.162C102.63 36.4146 103.323 39.2489 102.264 41.51C101.753 42.6005 100.889 43.5817 100.1 44.4733C99.144 45.554 98.0913 46.5226 96.9671 47.4226C94.8995 49.0794 94.1804 51.4119 93.6463 53.9113C93.3239 55.4153 93.0127 56.9475 92.3623 58.3506C91.7652 59.6388 90.9073 60.7406 89.9065 61.7372C88.9869 62.6526 87.8907 63.4712 86.5955 63.7403C84.6695 64.1398 82.9664 62.9806 81.4553 61.9475C80.7838 61.4877 80.1517 62.5811 80.8189 63.0367L80.8203 63.0381Z" fill="#5E5573"/>
<path d="M100.52 45.7827C101.056 43.4992 101.13 41.0994 100.641 38.8005C100.141 36.4512 99.0654 34.3009 97.8039 32.2768C96.6516 30.4265 95.2667 28.6042 93.3939 27.4323C91.1329 26.0194 88.6322 26.1651 86.259 27.2319C83.7373 28.3659 81.5519 30.3269 79.6133 32.2628C79.0386 32.8375 79.9301 33.729 80.5048 33.1543C83.3013 30.362 88.0042 25.9843 92.2908 28.2524C94.0976 29.2083 95.4195 30.8918 96.5044 32.5824C97.6959 34.4383 98.7304 36.3895 99.2827 38.537C99.863 40.7924 99.8336 43.1852 99.3037 45.4476C99.1187 46.2368 100.334 46.5747 100.52 45.7827Z" fill="#5E5573"/>
<path d="M74.8489 23.2773C74.8068 23.1105 75.8581 22.805 78.5887 21.699C81.4932 20.5215 82.0693 20.1514 84.092 19.4954C86.0713 18.8534 86.9404 18.7469 87.6735 18.7273C89.2687 18.6852 90.4644 19.0483 90.7069 19.1254C92.9104 19.8192 94.2645 21.2462 95.6593 22.7152C96.7442 23.8591 97.4549 24.8627 97.7647 25.3155C101.363 30.5749 102.531 36.8884 102.532 36.8926C102.532 36.8926 101.606 33.5382 100.427 30.9491C98.4628 26.6345 95.6831 24.1815 94.9794 23.5829C93.2889 22.1461 91.9054 21.4859 91.1414 21.1691C90.2976 20.8173 89.1285 20.3435 87.5515 20.3028C87.2614 20.2958 86.3601 20.286 84.5826 20.7444C81.9529 21.4214 81.5268 22.0564 79.256 22.718C77.0791 23.3516 74.9091 23.5128 74.8503 23.2801V23.2773H74.8489Z" fill="#DACFF3"/>
<path d="M37.1516 70.2207C37.1516 70.2207 34.1869 73.505 33.9696 77.4257C33.9696 77.4257 24.5695 77.8743 25.353 83.8093C25.3685 84.1485 25.6712 89.4528 29.1294 90.9877C30.7091 91.6899 32.4319 91.376 34.128 91.0662C36.3568 90.6597 38.0459 89.8256 39.0734 89.2229C40.2775 89.4752 42.1292 89.8228 44.4099 90.0863C49.7674 90.7045 54.0609 90.4312 58.8269 90.1648C60.6001 90.0653 62.9508 89.8915 65.7193 89.5621C67.4827 90.4802 69.0457 90.9302 70.1488 91.1685C71.9052 91.547 73.143 91.8133 74.5826 91.3297C76.3138 90.7494 77.2866 89.4373 77.6622 88.9187C79.4509 86.4404 80.0032 82.322 78.0351 80.1409C77.0034 78.9985 75.4433 78.5709 73.5733 78.0593C72.4155 77.7425 71.4202 77.6107 70.718 77.5505C70.6563 76.6688 70.5063 75.602 70.1769 74.4232C69.7339 72.8378 69.1101 71.5678 68.5635 70.6426C67.5051 71.0519 66.0179 71.5678 64.1984 72.0093C59.8656 73.0607 56.4327 73.0102 53.5563 72.9485C48.8282 72.8476 45.2481 72.1369 42.9577 71.6715C40.5901 71.1907 38.6136 70.6552 37.153 70.2207H37.1516Z" fill="#A394C5"/>
<path d="M36.7399 70.124C36.168 71.1095 35.554 72.3416 35.034 73.8092C34.5826 75.0792 34.2995 76.2497 34.1173 77.2589C33.3295 77.5127 32.1422 77.8729 30.6689 78.2304C28.5705 78.7392 27.9397 78.7448 27.1926 79.2915C25.7768 80.3274 25.4909 82.1749 25.3633 83.0019C24.926 85.8335 26.1034 89.0463 28.4906 90.713C28.9476 91.0326 29.9877 91.7391 31.4273 91.8288C31.7413 91.8484 32.4085 91.8596 34.6934 91.069C37.0778 90.2448 37.3287 89.8929 38.5846 89.6126C40.0635 89.2818 41.2073 89.4346 42.3119 89.5635C42.3119 89.5635 47.0554 90.1116 52.2601 90.242C54.8352 90.3065 57.1018 90.3625 60.1324 89.977C62.8854 89.6252 64.119 89.1837 66.1711 89.7121C67.5252 90.0611 68.006 90.5167 70.096 91.055C72.0206 91.5512 72.9822 91.7993 73.92 91.6325C76.9422 91.0984 79.3518 87.0334 79.1794 83.4729C79.1415 82.6921 79.0644 81.0969 77.9487 79.8438C76.7586 78.5065 74.8676 78.1 72.9822 77.6949C72.9822 77.6949 72.9192 77.6809 70.5082 77.2183C70.5446 76.4712 70.5124 75.1829 69.9615 73.7139C69.4344 72.308 68.6592 71.3449 68.156 70.8067" stroke="#5E5573" stroke-width="0.981227" stroke-linecap="round" stroke-linejoin="round"/>
<path d="M78.2633 86.3888C79.3005 83.0217 78.4936 79.7846 76.4612 79.1586C74.4288 78.5326 71.9405 80.7547 70.9033 84.1218C69.8662 87.4889 70.673 90.726 72.7054 91.352C74.7378 91.9781 77.2262 89.756 78.2633 86.3888Z" fill="#DACFF3"/>
<path d="M31.6702 91.4852C33.7026 90.8592 34.5094 87.6221 33.4723 84.255C32.4351 80.8878 29.9468 78.6657 27.9144 79.2918C25.882 79.9178 25.0751 83.1549 26.1123 86.522C27.1494 89.8891 29.6378 92.1112 31.6702 91.4852Z" fill="#DACFF3"/>
<path d="M28.2244 78.9746C31.0783 79.3208 32.9525 81.9379 33.7893 84.4975C34.4664 86.4614 34.7537 88.8654 33.4039 90.6232C32.9609 91.2021 32.3329 91.6226 31.6671 91.7992C31.6447 91.8048 31.6208 91.7922 31.6152 91.7698C31.611 91.7516 31.618 91.7334 31.632 91.7236C32.1843 91.3311 32.6231 90.8503 32.9118 90.298C33.5006 89.1696 33.5342 87.8687 33.4627 86.6128C33.3366 84.6657 32.6245 82.7425 31.4526 81.1754C30.6592 80.1212 29.5084 79.3545 28.2118 79.0587C28.1893 79.0531 28.1753 79.0307 28.1809 79.0083C28.1865 78.9872 28.2062 78.9732 28.2272 78.976H28.2244V78.9746Z" fill="#5E5573"/>
<path d="M76.3486 78.9761C73.6488 79.5045 72.034 82.0515 71.3107 84.52C70.8439 86.1965 70.6589 88.5458 71.4438 90.1284C71.7228 90.6863 72.1517 91.1755 72.697 91.5764C72.7166 91.5904 72.7194 91.6171 72.7054 91.6367C72.6942 91.6507 72.676 91.6577 72.6592 91.6521C71.9961 91.4629 71.3752 91.0326 70.9434 90.4452C69.6258 88.6636 69.9566 86.2652 70.6701 84.3139C71.1285 83.0089 71.8153 81.7838 72.7503 80.7591C73.6838 79.7456 74.9594 79.0434 76.3332 78.8934C76.3556 78.8906 76.3766 78.9074 76.3794 78.9298C76.3822 78.9522 76.3668 78.9719 76.3458 78.9761H76.3486Z" fill="#5E5573"/>
<path d="M29.043 78.8163C29.1495 78.7392 30.2933 77.9289 31.3559 78.4041C31.5353 78.484 32.2137 78.7868 32.253 79.4134C32.281 79.8479 31.9895 80.2881 31.5185 80.5264C31.1442 80.1802 30.6844 79.8045 30.1307 79.4414C29.7495 79.1905 29.3822 78.9859 29.043 78.8163Z" fill="white" stroke="#5E5573" stroke-width="0.841052" stroke-miterlimit="10"/>
<path d="M31.875 80.8263C32.5927 80.2951 33.5347 80.375 34.0505 80.8964C34.579 81.4305 34.4486 82.2155 34.4402 82.2631C34.286 83.1042 33.4814 83.3747 33.4267 83.3915C33.2249 82.929 32.9586 82.4033 32.6039 81.8468C32.36 81.4627 32.1119 81.1235 31.875 80.8277V80.8263Z" fill="white" stroke="#5E5573" stroke-width="0.841052" stroke-miterlimit="10"/>
<path d="M75.69 78.5793C75.5849 78.5008 74.448 77.6808 73.3799 78.1448C73.1991 78.2233 72.5178 78.5204 72.473 79.1456C72.4421 79.5802 72.7281 80.0217 73.1977 80.2656C73.5747 79.9236 74.0387 79.5521 74.5952 79.1947C74.9793 78.948 75.3494 78.7461 75.69 78.5793Z" fill="white" stroke="#5E5573" stroke-width="0.841052" stroke-miterlimit="10"/>
<path d="M72.8401 80.5615C72.128 80.0232 71.1846 80.0947 70.6646 80.6106C70.1305 81.1404 70.2539 81.9254 70.2623 81.9731C70.408 82.8155 71.2112 83.0931 71.2645 83.1099C71.4748 82.6431 71.7467 82.1203 72.1014 81.5736C72.3481 81.1937 72.599 80.8573 72.8401 80.5615Z" fill="white" stroke="#5E5573" stroke-width="0.841052" stroke-miterlimit="10"/>
<path d="M32.5298 21.3528C35.2982 19.5207 36.6818 18.6039 38.0989 17.9129C43.3457 15.3533 48.0906 15.9126 48.5784 13.7805C48.6696 13.3838 48.6934 12.5414 48.8139 12.54C48.9555 12.5372 48.9023 13.695 49.5737 14.0707C49.8288 14.2137 50.0937 14.1912 50.1512 14.1842C50.5998 14.1352 50.8717 13.7791 50.939 13.6838C51.2614 13.2282 51.0245 12.8904 51.1913 12.2007C51.3721 11.4536 51.8922 10.8481 52.0492 10.9069C52.3337 11.0121 51.3273 13.2493 52.1655 13.9684C52.4459 14.2081 52.8692 14.2263 53.1482 14.1576C53.6556 14.0328 53.7621 13.6053 54.4896 12.8441C54.8513 12.4657 55.4667 11.8223 55.705 11.9484C56.0288 12.1208 55.1849 13.4651 55.6629 14.4492C56.0652 15.2762 57.2539 15.5383 58.2505 15.6252C59.3607 15.7738 61.0625 16.0794 63.0445 16.7733C63.6585 16.9877 65.4163 17.6311 69.8346 20.2678C71.1747 21.0668 73.0124 22.2008 75.1655 23.6517C74.3931 22.6802 73.3082 21.4635 71.863 20.2258C70.8705 19.3763 69.0539 17.9549 66.4816 16.7046C66.4816 16.7046 63.7805 15.3925 60.6672 14.7085C59.7196 14.4996 59.2458 14.3959 58.8827 14.3861C58.5001 14.3763 58.1917 14.4071 57.7725 14.2599C57.4347 14.1408 57.0534 13.9151 56.8684 13.6712C56.4072 13.0586 56.7381 11.7284 57.8384 10.5537C57.8384 10.5537 55.0475 10.2663 53.1005 13.3053C53.2967 9.66918 52.9001 8.78467 52.4879 8.67393C51.9202 8.52255 50.8451 9.71544 50.4666 10.8649C50.2704 11.4606 50.0853 12.5792 50.0853 12.5792C50.0853 12.5792 49.8204 11.8699 49.4363 11.3232C49.3368 11.1817 49.0887 10.827 48.7172 10.5621C47.9715 10.0294 47.0786 10.0995 46.7015 10.1528C46.9118 10.3224 47.4584 10.8088 47.6477 11.6302C47.7038 11.8699 47.8902 12.6787 47.4416 13.3039C47.1725 13.681 46.7968 13.8043 46.0581 14.037C45.1385 14.3272 44.704 14.2894 43.3009 14.5627C43.3009 14.5627 42.8943 14.6412 42.2117 14.7996C40.0684 15.2958 38.0611 16.3415 37.0967 16.8518C35.1665 17.8708 33.86 18.8366 33.511 19.0988C32.7779 19.6483 31.9719 20.258 31.0579 21.235C30.2071 22.1434 29.6029 23.004 29.1992 23.6531C30.0024 23.0755 31.142 22.2737 32.5312 21.3542H32.5298V21.3528Z" fill="#DACFF3"/>
<path d="M29.459 23.1246C30.2215 22.0943 31.2448 20.9253 32.5975 19.8067C33.7988 18.8114 34.8207 18.2199 35.9477 17.5667C37.6789 16.563 39.0498 15.9869 40.0969 15.5509C41.0108 15.1697 41.5968 14.9678 42.2135 14.801C42.8275 14.6342 43.0125 14.6258 44.169 14.3987C46.9487 13.852 47.2837 13.6221 47.4911 13.2997C47.8948 12.6745 47.707 11.8727 47.6495 11.6302C47.4491 10.778 46.8828 10.2944 46.7033 10.1528C46.9599 10.1135 47.8528 10.0112 48.7191 10.5621C49.9877 11.3681 50.069 12.8624 50.0732 13.004C50.0718 12.4713 50.139 11.3317 50.8203 10.1192C51.4258 9.04261 52.2262 8.42023 52.6636 8.12866C52.8598 8.68235 53.0603 9.41968 53.143 10.3042C53.2439 11.3891 53.1318 12.3059 53 12.9563C53.2832 12.4909 53.9672 11.5097 55.2456 10.8214C56.3264 10.2397 57.3286 10.1374 57.8627 10.1206C56.4792 12.2442 56.5268 13.2142 56.8492 13.7062C57.2796 14.3623 58.244 14.2347 60.1854 14.5809C61.7259 14.8557 62.7674 15.2299 64.3752 15.8075C64.8869 15.9911 67.4311 16.9275 70.3131 18.967C71.5298 19.8291 73.0479 21.0584 74.5898 22.7489" stroke="#5E5573" stroke-width="0.841052" stroke-linecap="round" stroke-linejoin="round"/>
<path d="M28.0705 25.1866C28.2555 24.7773 28.4812 24.3357 28.6886 23.9362C28.8218 23.6965 29.004 23.3601 29.1148 23.112C29.3447 22.6788 29.6797 22.3719 30.1535 22.149C30.1745 22.1406 30.1983 22.149 30.2081 22.17C30.1885 22.6943 30.0077 23.1302 29.6881 23.5031C29.3867 23.8101 29.0573 24.2278 28.7657 24.5446C28.5569 24.7731 28.3494 25.0029 28.1293 25.2244C28.1027 25.2525 28.055 25.2202 28.0719 25.1852H28.0705V25.1866Z" fill="#5E5573"/>
<path d="M75.8584 24.7925C75.543 24.4729 75.2122 24.1028 74.9136 23.765C74.737 23.5547 74.4903 23.2632 74.2997 23.0697C73.9773 22.6997 73.8132 22.2763 73.7754 21.7549C73.7754 21.7325 73.7922 21.7128 73.8146 21.7114C74.2968 21.9189 74.6389 22.2441 74.8702 22.6772C75.0482 23.0683 75.3187 23.5267 75.5094 23.9136C75.6481 24.1911 75.7869 24.4673 75.9145 24.7518C75.9313 24.7855 75.8822 24.8205 75.857 24.7911L75.8584 24.7925Z" fill="#5E5573"/>
<path d="M72.127 65.557C72.8881 65.0215 73.5988 64.7636 73.6759 64.7341C74.3796 64.4748 76.4962 63.3254 82.5616 59.5266C82.2084 60.1854 81.865 60.7433 81.5692 61.1905C81.1571 61.8143 80.6594 62.4955 80.0623 63.2006C79.7805 63.5328 79.517 63.8244 79.2787 64.0753C76.2313 67.2965 72.9078 68.7642 70.3103 69.88C68.8244 70.5192 67.3106 71.0014 66.9237 71.1233C66.9125 71.1275 66.8606 71.1569 66.8508 71.1457C66.8073 71.0911 67.9792 70.2584 69.1749 68.9955C69.9781 68.1474 70.4365 67.6624 70.7897 67.0344C70.857 66.9138 71.0182 66.6181 71.3126 66.2789C71.5649 65.9873 71.8326 65.763 72.127 65.5556V65.557Z" fill="#A394C5"/>
<path d="M21.5781 57.8528C23.3373 59.4536 26.0077 61.5871 29.6312 63.4696C32.2385 64.8251 34.3747 65.5484 35.7176 65.997C35.7176 65.997 38.6108 66.9642 47.7769 68.6883C47.7769 68.6883 48.3754 69.2098 48.3951 69.228C50.2748 70.8624 57.449 73.3646 55.1137 72.4983C55.1137 72.4983 52.2288 72.4661 51.3836 72.4506C49.2403 72.41 44.8066 72.3273 39.55 70.9059C38.3935 70.5933 37.5399 70.3088 36.7002 70.0284C35.0434 69.4761 32.5356 68.558 29.5036 67.0847C27.8468 66.2801 27.1403 65.84 26.4955 65.3662C25.5128 64.6429 23.6149 63.2145 22.4318 60.6521C21.9159 59.5349 21.6889 58.534 21.5781 57.8542V57.8528Z" fill="#A394C5"/>
<path d="M40.2871 60.6048C40.2871 60.6048 42.2734 61.3099 42.9574 59.5913" stroke="#5E5573" stroke-width="0.700876" stroke-miterlimit="10" stroke-linecap="round"/>
<path d="M42.9568 57.9497C42.734 71.1794 63.7476 78.8597 71.3115 66.2803C73.8711 64.437 73.5263 60.5528 69.9952 61.8003C69.0406 61.6896 68.2052 59.7762 67.1651 60.2836C65.8096 60.5317 65.647 62.5166 65.9035 64.0193C62.3459 65.3762 60.7633 60.9186 61.3927 57.9511" stroke="#5E5573" stroke-width="0.841052" stroke-linecap="round" stroke-linejoin="round"/>
<path d="M47.5814 51.1891C49.827 49.5266 53.3328 48.9701 55.8069 50.442C56.1658 50.6536 56.505 50.8975 56.7994 51.1891C56.8106 51.2003 56.8106 51.2185 56.7994 51.2298C56.0354 50.9718 55.3261 50.6424 54.5061 50.456C52.1007 49.7565 49.799 49.9668 47.6109 51.2368C47.5828 51.255 47.5506 51.2101 47.58 51.1905L47.5814 51.1891Z" fill="#5E5573"/>
<path d="M47.4502 54.3122C49.1954 53.01 50.2635 52.6091 52.4573 52.5432C53.824 52.4717 55.2524 52.6287 56.4425 53.3604C56.8392 53.5945 57.2064 53.8777 57.512 54.2183C57.5246 54.2337 57.5246 54.2562 57.5092 54.2688C57.498 54.2786 57.484 54.28 57.4714 54.2744C57.0536 54.1006 56.6485 53.9422 56.2392 53.809C55.8313 53.673 55.4164 53.5721 55.0001 53.4838C53.7385 53.2049 52.4489 53.0226 51.1509 53.1165C50.7149 53.1376 50.2902 53.1782 49.8781 53.2918C49.044 53.5034 48.266 53.9464 47.4895 54.3711C47.4727 54.3809 47.4516 54.3739 47.4418 54.3571C47.4334 54.3417 47.4376 54.3221 47.4516 54.3122H47.4502Z" fill="#5E5573"/>
<path d="M48.7972 58.4095C49.1463 58.2427 49.3958 57.9329 49.7084 57.7002C50.021 57.4521 50.3574 57.2293 50.7106 57.033C51.79 56.4359 53.0249 56.1695 54.2557 56.1387C55.4948 56.1345 56.7578 56.6854 57.5568 57.6372C57.5862 57.6736 57.5512 57.7325 57.5049 57.7199C56.8531 57.5783 55.9111 57.3596 55.2677 57.2713L54.1926 57.1073C52.7179 56.8676 51.1816 57.2405 49.8766 57.9498C49.5318 58.1334 49.2192 58.4025 48.8281 58.5006C48.7734 58.5147 48.7412 58.4306 48.7958 58.4081L48.7972 58.4095Z" fill="#5E5573"/>
<path d="M51.1016 62.7508C51.7563 61.4261 53.0473 60.4407 54.4546 60.0005C54.8149 59.887 55.1821 59.7847 55.5592 59.7174C56.3092 59.5828 57.0871 59.7048 57.7908 59.9767C58.1412 60.1155 58.4749 60.2935 58.772 60.5388C58.8085 60.5683 58.7889 60.6313 58.7412 60.6327C57.6857 60.6678 56.6862 60.6748 55.6461 60.6846C53.9402 60.6622 52.2609 61.4682 51.1843 62.8027C51.1521 62.8475 51.0736 62.8027 51.1016 62.7508Z" fill="#5E5573"/>
<path d="M58.6495 66.0099C58.2248 65.0819 59.7443 63.2961 60.6344 63.104C61.069 63.0115 61.5287 63.0367 61.9184 63.2863C61.9465 63.3045 61.9549 63.3409 61.9367 63.369C61.6157 63.6423 61.3115 63.8231 60.9779 64.0236C60.6905 64.2086 60.3443 64.2549 60.0499 64.4287C59.5621 64.7371 58.7336 65.358 58.7435 65.986C58.7491 66.0393 58.6692 66.0589 58.6495 66.0113V66.0099Z" fill="#5E5573"/>
<path d="M64.1574 66.8663C64.0747 66.471 63.9135 66.1149 63.8687 65.7084C63.8406 65.4771 63.786 65.2136 63.9402 65.0034C64.0916 64.7791 64.3775 64.6039 64.6635 64.6978C64.6929 64.7076 64.7097 64.7356 64.7069 64.7651C64.6803 65.0566 64.7209 65.194 64.7125 65.3342C64.7111 65.4029 64.6901 65.4631 64.6481 65.5276C64.5457 65.6664 64.5121 65.8332 64.4812 66.0056C64.456 66.0911 64.2906 67.0892 64.156 66.8663H64.1574Z" fill="#5E5573"/>
<path d="M25.854 29.6272C24.4326 33.3475 23.4542 37.2724 23.237 41.2562C23.1571 42.9705 23.4963 44.6905 23.251 46.4034C23.1178 47.5487 22.9145 48.6897 22.5501 49.7873C22.3665 50.3353 22.1688 50.8638 22.0314 51.4077C21.8899 51.9516 21.7945 52.5081 21.7231 53.0688C21.4988 54.7565 21.318 56.4484 21.5619 58.1319C21.9866 61.2242 23.7416 63.0366 26.1442 64.8421C32.7857 69.6963 43.8175 72.0022 51.9659 72.3877C54.2325 72.4872 56.5075 72.5826 58.7672 72.4171C63.2682 72.0835 67.6683 70.7589 71.6871 68.7235C73.6664 67.689 75.7186 66.67 77.4343 65.2346C78.6931 64.144 79.9056 62.9553 80.8854 61.6124C81.8372 60.2892 82.5058 58.7543 82.625 57.117C82.7736 55.0452 82.3923 52.923 81.84 50.9199L81.7853 50.7152L81.7573 50.6129L81.7433 50.5624C81.7433 50.5526 81.7195 50.4993 81.7559 50.5792L81.7279 50.5049C81.2134 48.7626 80.7368 46.8856 80.8826 45.0409C81.2092 41.1735 80.6864 37.2724 79.8285 33.4989L79.7963 33.3671C79.7864 33.3209 79.7738 33.2942 79.7584 33.1989L79.7668 33.2438C79.4669 32.3509 78.8683 30.523 78.5753 29.6244C78.5669 29.5992 78.5809 29.5712 78.6062 29.5628C78.6314 29.5544 78.658 29.567 78.6679 29.5922C79.0127 30.4823 79.6869 32.2611 80.0233 33.1527L80.0318 33.1975C80.0402 33.1891 80.0514 33.2522 80.0654 33.2928L80.1032 33.4246C80.7677 35.7964 81.2331 38.2284 81.4629 40.6815C81.5569 41.779 81.6227 42.8738 81.5961 43.9798C81.5807 44.7017 81.5064 45.4096 81.5681 46.1231C81.6284 46.8211 81.7433 47.5318 81.9059 48.2131C82.0811 48.907 82.3937 49.9246 82.5339 50.39C82.7638 51.1834 82.988 51.9922 83.1689 52.7982C83.5824 54.8139 83.7842 56.9432 83.2488 58.9589C82.625 61.2718 81.0648 63.1838 79.3743 64.8154C78.9692 65.2163 78.5221 65.6383 78.0875 66.0027C76.2975 67.5222 74.2117 68.5525 72.1413 69.6108C68.0019 71.6798 63.456 72.9778 58.8316 73.2694C56.5286 73.4124 54.2269 73.2876 51.9322 73.1629C43.6605 72.6961 32.532 70.2598 25.8288 65.264C23.3407 63.359 21.5338 61.4372 21.1259 58.188C20.8946 56.4638 21.1021 54.7088 21.3488 53.0099C21.4287 52.4394 21.5338 51.8689 21.6866 51.3082C21.8366 50.7461 22.0469 50.2036 22.2319 49.6709C22.602 48.6014 22.815 47.4828 22.958 46.3614C23.2201 44.661 22.9033 42.9495 23.0043 41.2394C23.2706 37.2388 24.2995 33.304 25.7727 29.5852C25.7825 29.56 25.812 29.5473 25.8372 29.5586C25.8624 29.5684 25.8736 29.5964 25.8652 29.6216L25.854 29.6272Z" fill="#5E5573"/>
<path d="M78.5506 29.5908C80.0841 33.3854 81.0135 37.4154 81.3976 41.4889C81.5307 42.843 81.4396 44.2209 81.4985 45.5722C81.6359 47.5907 82.0704 49.5938 82.7741 51.4918C83.0152 52.1352 83.2605 52.794 83.367 53.4809C83.4736 54.1762 83.4708 54.8728 83.4273 55.5639C83.2465 58.3492 81.9765 60.9284 80.3589 63.153C79.1281 64.8211 77.5554 66.2354 75.8046 67.3414C74.0664 68.4614 72.2077 69.3235 70.3503 70.2038C67.2258 71.642 63.8743 72.5503 60.4722 73.0241C57.7556 73.4194 54.9773 73.3521 52.2523 73.1965C49.5189 73.0634 46.7869 72.7844 44.0871 72.3246C39.3506 71.5551 34.7066 70.1323 30.3415 68.1236C28.4548 67.2657 26.5876 66.2621 24.9994 64.9136C24.0533 64.1721 23.1029 63.2539 22.4707 62.1928C20.7956 59.4523 20.483 56.0587 21.1166 52.9608C21.3941 51.7974 21.7025 50.6269 22.0572 49.4873C22.4539 48.2131 22.7454 46.9095 22.7749 45.5862C22.538 41.4847 23.1085 37.3621 24.2173 33.4148C24.5943 32.1112 24.9392 30.7529 25.6555 29.5824C25.6695 29.56 25.7003 29.553 25.7227 29.567C25.7452 29.581 25.7508 29.6104 25.7382 29.6329C25.5714 29.9244 25.4382 30.2356 25.319 30.5524C24.5467 32.791 24.0911 35.1418 23.7421 37.4827C23.4533 39.4886 23.2879 41.5169 23.3426 43.5396C23.3608 44.2265 23.4421 44.8867 23.4603 45.5834C23.4715 46.2969 23.3902 46.9894 23.2879 47.6776C22.9907 49.3765 22.402 50.9703 22.0628 52.6524C21.3437 55.805 21.6885 59.3865 23.5767 62.0708C24.1388 62.8908 24.8396 63.502 25.6344 64.137C26.6605 64.9991 27.7749 65.6929 28.9622 66.3125C34.9547 69.4272 41.5485 71.2929 48.2545 72.0569C52.2776 72.462 56.3581 72.8293 60.3839 72.3162C63.7215 71.8831 67.0212 71.021 70.0952 69.6389C71.9329 68.7894 73.7987 67.9428 75.506 66.8634C77.2133 65.8051 78.7454 64.4538 79.9538 62.8474C81.5391 60.7013 82.8105 58.2244 83.0152 55.5288C83.0642 54.863 83.0755 54.1902 82.9829 53.537C82.8848 52.8739 82.6605 52.2459 82.4321 51.6137C81.7396 49.6779 81.3219 47.637 81.2083 45.5834C81.1649 44.2153 81.2728 42.8668 81.1565 41.5043C81.0513 40.153 80.8691 38.8045 80.6378 37.4673C80.1766 34.7899 79.4491 32.1588 78.4637 29.623C78.4539 29.5978 78.4665 29.5698 78.4917 29.56C78.517 29.5502 78.545 29.5628 78.5548 29.588L78.5506 29.5908Z" fill="#5E5573"/>
<path d="M36.6974 74.8575C36.5278 76.7947 36.4619 79.0711 36.6442 81.6097C36.9848 86.3364 37.2736 90.2319 39.8836 91.8327C41.1424 92.6051 42.6521 92.6485 43.7356 92.6807C45.7499 92.7396 47.3437 92.214 48.2591 91.8327C48.4273 91.7219 48.6572 91.5397 48.8492 91.258C49.473 90.3384 49.1113 89.2002 48.8534 87.7129C48.8534 87.7129 48.7343 87.0219 48.5436 84.4497C48.4567 83.275 48.4441 81.5606 48.8422 79.4034C49.1997 79.6977 50.2398 80.4701 51.7789 80.5626C53.6923 80.6775 55.0169 79.6557 55.3281 79.4034C55.5033 80.114 55.6561 80.9579 55.7248 81.9125C55.7711 82.5587 55.7711 83.1558 55.7458 83.6927C55.586 85.3678 55.4599 86.7738 55.3688 87.8209C55.1543 90.2838 55.1179 90.9272 55.5664 91.5313C56.1846 92.3626 57.2513 92.4887 58.9755 92.6906C59.888 92.7971 61.5603 92.9737 63.4765 92.2168C64.2629 91.9056 64.867 91.5257 65.2736 91.2313C65.3983 90.9608 65.5735 90.5697 65.767 90.0945C66.0109 89.4946 67.0412 86.9027 67.5724 83.261C68.0532 79.9627 67.9467 77.019 67.6846 74.7341C66.7524 74.6851 65.6773 74.6949 64.497 74.8266C62.3495 75.0663 60.5735 75.6284 59.2502 76.1723C56.2379 77.4942 53.7063 77.6498 52.177 77.6049C49.9356 77.539 48.1161 76.9923 47.3157 76.7456C44.0931 75.7532 43.3025 74.5743 40.8873 74.3024C39.1253 74.1047 37.6366 74.5112 36.6974 74.8575Z" fill="#C0B4DF"/>
<path d="M60.5759 92.4061C63.0486 92.4537 64.8372 91.7066 65.7288 89.2844C66.0414 88.4587 66.1885 87.5756 66.3904 86.7164C66.9413 84.332 67.0436 81.8789 67.2132 79.4455C67.2384 78.9941 67.3043 77.8937 67.3338 77.4354C67.3912 76.5397 67.4473 75.6383 67.5552 74.7342L67.6534 74.73C68.1328 77.4115 68.3318 80.1674 67.9421 82.8742C67.6267 84.8983 67.1263 86.8972 66.5053 88.847C66.1647 89.8339 65.6447 90.8165 64.8288 91.4893C63.6724 92.4958 62.0225 92.6584 60.5703 92.5014L60.5759 92.4033V92.4061Z" fill="#5E5573"/>
<path d="M55.3274 79.0654C56.0956 82.117 55.776 85.285 55.5811 88.3857C55.5531 89.0081 55.462 89.6459 55.5082 90.2444C55.9484 91.3994 57.552 91.7751 58.679 91.876C59.4205 91.9461 60.1733 91.9447 60.9232 91.9209C62.1357 91.9111 63.3987 91.8018 64.3926 91.1037C65.1845 90.564 65.7873 89.73 66.1686 88.7684L66.2639 88.7922C66.1083 90.4407 64.9532 91.9574 63.3791 92.511C62.6095 92.8026 61.7755 92.8881 60.9667 92.933C60.1649 92.9792 59.3603 92.9624 58.5585 92.8405C57.4637 92.6568 56.3423 92.3386 55.4998 91.5438C55.1718 91.2102 54.8508 90.8303 54.7849 90.3397C54.7499 89.6459 54.8873 88.9912 54.9461 88.3268C55.155 86.2788 55.4648 84.2197 55.483 82.1619C55.476 81.1344 55.3905 80.1041 55.2307 79.0837L55.3274 79.0654Z" fill="#5E5573"/>
<path d="M43.7364 92.5029C40.7647 92.8211 38.7798 91.7347 37.8014 88.8485C37.1804 86.8987 36.6786 84.8998 36.3646 82.8756C35.9749 80.1688 36.174 77.413 36.6534 74.7314L36.7515 74.7357C36.8608 75.6398 36.9155 76.5397 36.973 77.4368C37.001 77.9022 37.0697 79.0026 37.0935 79.4469C37.2435 81.4388 37.308 83.4363 37.6584 85.4058C37.8084 86.2581 38.0201 87.1902 38.2121 88.0271C38.2738 88.3242 38.3747 88.6901 38.4686 88.9789C38.5037 89.0728 38.6004 89.3447 38.634 89.4386C38.7812 89.7736 38.9466 90.1381 39.1541 90.4381C39.6125 91.1712 40.3049 91.7263 41.1151 92.0361C41.9366 92.3319 42.8379 92.423 43.7322 92.4076L43.7378 92.5057V92.5029H43.7364Z" fill="#5E5573"/>
<path d="M49.0762 79.0839C48.9164 80.1044 48.8309 81.1361 48.8238 82.1621C48.8421 84.2199 49.1533 86.2791 49.3607 88.3271C49.4196 88.9915 49.557 89.6461 49.5219 90.34C49.456 90.8306 49.135 91.2105 48.807 91.5441C47.966 92.3389 46.8432 92.6571 45.7484 92.8407C44.9466 92.9627 44.142 92.9809 43.3402 92.9332C42.5314 92.8884 41.6973 92.8029 40.9278 92.5113C39.3536 91.9576 38.1972 90.4409 38.043 88.7924L38.1383 88.7686C38.5196 89.7302 39.1223 90.5643 39.9143 91.1039C40.9082 91.8034 42.1711 91.9113 43.3836 91.9212C44.1336 91.945 44.8863 91.9464 45.6279 91.8763C46.7549 91.7754 48.3599 91.3983 48.7986 90.2447C48.8449 89.6461 48.7538 89.0083 48.7257 88.3859C48.5309 85.2867 48.2127 82.1173 48.9794 79.0657L49.0762 79.0839Z" fill="#5E5573"/>
<path d="M39.1582 90.5163C39.1582 90.5163 42.1047 87.9091 42.1397 92.0639C42.1397 92.0639 39.8829 92.1003 39.1582 90.5163Z" fill="white" stroke="#5E5573" stroke-width="0.841052" stroke-miterlimit="10"/>
<path d="M42.6406 91.9573C42.6406 91.9573 44.0368 88.2777 45.9992 91.9419C45.9992 91.9419 44.0185 93.0241 42.6406 91.9573Z" fill="white" stroke="#5E5573" stroke-width="0.841052" stroke-miterlimit="10"/>
<path d="M48.9815 90.5163C48.9815 90.5163 46.035 87.9091 46 92.0639C46 92.0639 48.2568 92.1003 48.9815 90.5163Z" fill="white" stroke="#5E5573" stroke-width="0.841052" stroke-miterlimit="10"/>
<path d="M65.2335 90.459C65.2335 90.459 62.287 87.8517 62.252 92.0065C62.252 92.0065 64.5088 92.043 65.2335 90.459Z" fill="white" stroke="#5E5573" stroke-width="0.841052" stroke-miterlimit="10"/>
<path d="M61.7531 91.8985C61.7531 91.8985 60.357 88.2189 58.3945 91.8831C58.3945 91.8831 60.3752 92.9652 61.7531 91.8985Z" fill="white" stroke="#5E5573" stroke-width="0.841052" stroke-miterlimit="10"/>
<path d="M55.4121 90.459C55.4121 90.459 58.3586 87.8517 58.3936 92.0065C58.3936 92.0065 56.1368 92.043 55.4121 90.459Z" fill="white" stroke="#5E5573" stroke-width="0.841052" stroke-miterlimit="10"/>
</svg>
