<svg width="92" height="92" viewBox="0 0 92 92" fill="none" xmlns="http://www.w3.org/2000/svg">
<g filter="url(#filter0_di_3407_2241)">
<g filter="url(#filter1_d_3407_2241)">
<mask id="path-1-inside-1_3407_2241" fill="white">
<path d="M5.67969 43.28C5.67969 21.1886 23.5883 3.28003 45.6797 3.28003C67.7711 3.28003 85.6797 21.1886 85.6797 43.28C85.6797 65.3714 67.7711 83.28 45.6797 83.28C23.5883 83.28 5.67969 65.3714 5.67969 43.28Z"/>
</mask>
<path d="M5.67969 43.28C5.67969 21.1886 23.5883 3.28003 45.6797 3.28003C67.7711 3.28003 85.6797 21.1886 85.6797 43.28C85.6797 65.3714 67.7711 83.28 45.6797 83.28C23.5883 83.28 5.67969 65.3714 5.67969 43.28Z" fill="white"/>
<path d="M5.67969 3.28003H85.6797H5.67969ZM85.6797 49.28C85.6797 71.3714 67.7711 89.28 45.6797 89.28C23.5883 89.28 5.67969 71.3714 5.67969 49.28V43.28C5.67969 62.0577 23.5883 77.28 45.6797 77.28C67.7711 77.28 85.6797 62.0577 85.6797 43.28V49.28ZM5.67969 83.28V3.28003V83.28ZM85.6797 3.28003V83.28V3.28003Z" fill="#DB7396" mask="url(#path-1-inside-1_3407_2241)"/>
</g>
<path d="M61.6797 54.28C62.4501 54.2804 63.1909 54.5772 63.7485 55.1088C64.306 55.6405 64.6377 56.3663 64.6747 57.1359C64.7118 57.9054 64.4513 58.6597 63.9473 59.2424C63.4434 59.8252 62.7345 60.1917 61.9677 60.266L61.6797 60.28H29.6797C28.9093 60.2796 28.1685 59.9829 27.6109 59.4512C27.0533 58.9195 26.7217 58.1937 26.6846 57.4242C26.6476 56.6547 26.9081 55.9004 27.412 55.3176C27.916 54.7349 28.6248 54.3684 29.3917 54.294L29.6797 54.28H61.6797ZM61.6797 40.28C62.4753 40.28 63.2384 40.5961 63.801 41.1587C64.3636 41.7213 64.6797 42.4844 64.6797 43.28C64.6797 44.0757 64.3636 44.8387 63.801 45.4014C63.2384 45.964 62.4753 46.28 61.6797 46.28H29.6797C28.884 46.28 28.121 45.964 27.5584 45.4014C26.9958 44.8387 26.6797 44.0757 26.6797 43.28C26.6797 42.4844 26.9958 41.7213 27.5584 41.1587C28.121 40.5961 28.884 40.28 29.6797 40.28H61.6797ZM61.6797 26.28C62.4753 26.28 63.2384 26.5961 63.801 27.1587C64.3636 27.7213 64.6797 28.4844 64.6797 29.28C64.6797 30.0757 64.3636 30.8387 63.801 31.4014C63.2384 31.964 62.4753 32.28 61.6797 32.28H29.6797C28.884 32.28 28.121 31.964 27.5584 31.4014C26.9958 30.8387 26.6797 30.0757 26.6797 29.28C26.6797 28.4844 26.9958 27.7213 27.5584 27.1587C28.121 26.5961 28.884 26.28 29.6797 26.28H61.6797Z" fill="#EBA5CC"/>
</g>
<defs>
<filter id="filter0_di_3407_2241" x="2.47969" y="0.880029" width="86.4" height="88.8" filterUnits="userSpaceOnUse" color-interpolation-filters="sRGB">
<feFlood flood-opacity="0" result="BackgroundImageFix"/>
<feColorMatrix in="SourceAlpha" type="matrix" values="0 0 0 0 0 0 0 0 0 0 0 0 0 0 0 0 0 0 127 0" result="hardAlpha"/>
<feOffset dy="3.2"/>
<feGaussianBlur stdDeviation="1.6"/>
<feComposite in2="hardAlpha" operator="out"/>
<feColorMatrix type="matrix" values="0 0 0 0 0.858824 0 0 0 0 0.45098 0 0 0 0 0.588235 0 0 0 0.5 0"/>
<feBlend mode="normal" in2="BackgroundImageFix" result="effect1_dropShadow_3407_2241"/>
<feBlend mode="normal" in="SourceGraphic" in2="effect1_dropShadow_3407_2241" result="shape"/>
<feColorMatrix in="SourceAlpha" type="matrix" values="0 0 0 0 0 0 0 0 0 0 0 0 0 0 0 0 0 0 127 0" result="hardAlpha"/>
<feOffset dx="2.4" dy="-2.4"/>
<feGaussianBlur stdDeviation="5.96"/>
<feComposite in2="hardAlpha" operator="arithmetic" k2="-1" k3="1"/>
<feColorMatrix type="matrix" values="0 0 0 0 0.858824 0 0 0 0 0.45098 0 0 0 0 0.588235 0 0 0 0.5 0"/>
<feBlend mode="normal" in2="shape" result="effect2_innerShadow_3407_2241"/>
</filter>
<filter id="filter1_d_3407_2241" x="-0.000312328" y="2.95639e-05" width="91.36" height="91.36" filterUnits="userSpaceOnUse" color-interpolation-filters="sRGB">
<feFlood flood-opacity="0" result="BackgroundImageFix"/>
<feColorMatrix in="SourceAlpha" type="matrix" values="0 0 0 0 0 0 0 0 0 0 0 0 0 0 0 0 0 0 127 0" result="hardAlpha"/>
<feOffset dy="2.4"/>
<feGaussianBlur stdDeviation="2.84"/>
<feComposite in2="hardAlpha" operator="out"/>
<feColorMatrix type="matrix" values="0 0 0 0 0.980392 0 0 0 0 0.752941 0 0 0 0 0.847059 0 0 0 0.5 0"/>
<feBlend mode="normal" in2="BackgroundImageFix" result="effect1_dropShadow_3407_2241"/>
<feBlend mode="normal" in="SourceGraphic" in2="effect1_dropShadow_3407_2241" result="shape"/>
</filter>
</defs>
</svg>
