<svg width="169" height="118" viewBox="0 0 169 118" fill="none" xmlns="http://www.w3.org/2000/svg">
<rect width="169" height="117.599" fill="white"/>
<path d="M67.1309 40.3457C68.4495 39.0494 70.5628 39.0568 71.8584 40.3662H71.8594L89.5723 58.0654C91.0626 59.5557 93.6002 58.4933 93.6006 56.3984V50.7607C93.6006 48.2678 95.6145 46.254 98.1074 46.2539C100.6 46.2539 102.614 48.2677 102.614 50.7607V72.7373C102.614 80.6276 98.5984 87.9558 92.0059 92.2188L91.3604 92.6221C82.2316 98.0992 70.5639 96.6583 63.0469 89.1416L48.7959 74.8906C47.4788 73.5735 47.4786 71.4441 48.7949 70.1416C50.1125 68.8381 52.2428 68.8245 53.5449 70.1406V70.1416L61.1279 77.7246C62.0287 78.6253 63.4909 78.6253 64.3916 77.7246C65.2922 76.8239 65.2923 75.3616 64.3916 74.4609L51.085 61.1553C49.7678 59.8381 49.7685 57.7087 51.085 56.4062C52.3613 55.1435 54.399 55.0917 55.709 56.2861L55.834 56.4053L69.1406 69.7119C70.0414 70.6126 71.5036 70.6126 72.4043 69.7119C73.3046 68.8113 73.3045 67.3499 72.4043 66.4492L55.6631 49.708C54.3464 48.3909 54.347 46.2623 55.6631 44.96C56.9806 43.6565 59.1099 43.643 60.4121 44.959H60.4131L77.1533 61.6992C78.054 62.5999 79.5153 62.5999 80.416 61.6992C81.3167 60.7985 81.3167 59.3372 80.416 58.4365L67.1094 45.1299C65.7925 43.8127 65.793 41.6833 67.1094 40.3809L67.1309 40.3604V40.3457ZM116.422 46.2676C118.915 46.2676 120.929 48.2824 120.929 50.7754V72.752C120.929 80.8538 116.693 88.3608 109.783 92.5674V92.543L109.675 92.6074C106.286 94.6376 102.554 95.7165 98.8027 95.8906C105.602 90.2117 109.626 81.7575 109.626 72.7373V58.7686C110.807 58.719 111.915 57.802 111.915 56.4121V50.7754C111.915 48.2824 113.929 46.2676 116.422 46.2676ZM93.5293 21.0713C95.3925 21.0714 96.8914 22.5704 96.8916 24.4336V33.5908C96.8916 35.4542 95.3926 36.953 93.5293 36.9531C91.6658 36.9531 90.167 35.4543 90.167 33.5908V24.4336C90.1672 22.5703 91.666 21.0713 93.5293 21.0713ZM74.4961 23.9209C76.0506 22.8846 78.1237 23.3182 79.1611 24.8594V24.8604L83.7402 31.7275C84.7766 33.2681 84.3573 35.3565 82.8018 36.3936C81.2466 37.4303 79.1727 37.0096 78.1357 35.4541L73.5576 28.5869V28.5859C72.5212 27.0453 72.9405 24.958 74.4961 23.9209ZM107.896 24.8604C108.933 23.319 111.021 22.8988 112.562 23.9209C114.103 24.9579 114.524 27.0461 113.501 28.5869L108.922 35.4541C107.885 36.9954 105.798 37.4151 104.257 36.3926C102.716 35.37 102.296 33.2686 103.318 31.7275L107.896 24.8604Z" fill="#A394C5" stroke="#A394C5" stroke-width="0.14308"/>
</svg>
