<svg width="358" height="348" viewBox="0 0 358 348" fill="none" xmlns="http://www.w3.org/2000/svg">
<g clip-path="url(#clip0_1262_5746)" filter="url(#filter0_d_1262_5746)">
<path d="M216.337 339.579C272.631 339.579 318.266 332.214 318.266 323.128C318.266 314.042 272.631 306.676 216.337 306.676C160.044 306.676 114.409 314.042 114.409 323.128C114.409 332.214 160.044 339.579 216.337 339.579Z" fill="#ECEDF2"/>
<path d="M82.7587 138.424C83.8478 149.036 84.9028 154.161 86.6657 159.974C89.1433 168.142 90.9811 170.163 92.4377 177.794C93.9964 185.914 92.4581 186.479 93.8534 195.504C94.8608 202.011 95.909 208.777 100.367 215.788C104.71 222.622 110.148 226.324 113.504 228.557C122.366 234.465 130.752 236.092 135.782 237.024C143.33 238.42 151.607 238.045 168.161 237.303C170.618 237.194 173.49 237.024 176.914 236.718C178.214 236.595 182.876 236.16 189.111 235.214C190.738 234.962 194.393 234.39 199.185 233.43C206.448 231.987 215.235 230.238 225.724 226.842C232.387 224.684 240.358 222.063 250.139 216.836C260.485 211.302 267.496 205.728 269.919 203.74C273.499 200.807 276.181 198.138 281.537 192.809C294.184 180.23 298.159 174.03 300.909 167.965C301.079 167.584 301.31 167.073 301.61 166.365C308.192 150.635 304.571 135.824 304.033 133.701C300.739 120.83 293.231 112.723 289.733 109.374C288.875 106.89 287.602 103.289 285.928 98.9941C282.538 90.2885 279.176 82.8557 277.528 79.6499C273.193 71.2097 262.384 53.1111 241.569 39.6954C229.706 32.0448 219.21 28.9002 215.875 27.9609C195.087 22.1344 176.907 25.0885 174.239 25.9121C172.476 26.4566 171.598 26.5451 169.835 26.7357C167.99 26.9331 167.058 27.0215 166.268 26.6132C164.247 25.5649 164.036 22.3046 163.968 21.2224C163.668 16.5803 166.057 14.0551 165.247 13.3676C164.308 12.5644 159.925 14.9671 157.093 18.9013C157.093 18.9013 155.943 20.5077 152.907 28.4169C148.313 12.5372 146.543 12.5576 146.543 12.5576C145.679 12.5712 145.018 13.7283 144.059 15.43C142.69 17.8327 142.411 20.1401 142.33 21.5695C141.983 27.5388 144.433 31.5479 143.684 31.9495C142.874 32.3851 140.723 27.3347 135.612 25.5854C133.434 24.8366 130.132 24.4895 129.329 25.81C128.043 27.9404 134.87 31.684 134.625 36.5916C134.393 41.3698 127.675 43.1599 118.881 49.1088C108.249 56.2966 102.069 64.5393 98.584 69.1269C91.5188 78.4315 88.0134 87.0826 86.7406 90.4791C79.7707 109.088 81.4655 125.655 82.7724 138.418H82.7656V138.424H82.7587Z" fill="#C0B4DF"/>
<path d="M117.69 128.147C117.69 128.147 118.398 125.452 129.397 122.117C129.397 122.117 133.719 118.434 127.553 116.984C127.553 116.984 119.133 117.719 117.105 126.527C117.105 126.527 116.574 128.746 117.683 128.147H117.69Z" fill="#5E5573"/>
<path d="M144.127 185.567C144.127 185.567 128.376 191.645 115.907 179.237C115.907 179.237 103.811 163.745 120.746 146.279C121.447 145.748 130.479 139.173 141.288 142.971C150.777 146.313 154.112 155.012 154.547 156.21C154.908 157.02 159.979 168.789 153.268 178.406C150.307 182.654 146.318 184.675 144.12 185.567H144.127Z" fill="#FDFEFD"/>
<path d="M120.889 183.184C119.854 181.129 118.554 178.059 117.799 174.172C117.009 170.068 115.927 164.48 118.609 158.599C121.91 151.35 128.717 148.498 129.983 148.001C140.989 143.631 151.056 150.581 151.852 151.146C150.709 149.478 148.224 146.34 143.929 144.128C142.861 143.584 140.036 142.243 136.272 141.875C129.785 141.249 122.291 143.693 117.2 149.431C111.945 155.352 111.571 162.159 111.489 164.317C111.394 166.61 111.088 174.397 116.56 179.992C118.132 181.605 119.759 182.592 120.896 183.178H120.889V183.184Z" fill="#5E5573"/>
<path d="M127.995 148.913C126.266 150.874 123.428 154.679 122.468 160.097C120.95 168.666 124.394 179.747 133.202 183.831C138.225 186.159 143.242 185.403 145.937 184.736C149.871 182.722 152.09 180.115 153.186 178.61C157.937 172.042 157.127 164.398 156.385 161.172C155.616 157.81 153.772 154.154 153.057 153.031C153.03 152.99 151.859 151.153 151.859 151.153C149.674 149.662 145.481 147.253 139.913 146.701C138.103 146.517 134.849 146.232 131.044 147.545C129.751 147.994 128.723 148.512 128.009 148.92H127.995V148.913Z" fill="#5E5573"/>
<path d="M143.642 162.346C146.455 161.337 147.762 157.808 146.563 154.464C145.363 151.121 142.11 149.228 139.297 150.238C136.484 151.247 135.176 154.776 136.376 158.12C137.576 161.463 140.829 163.356 143.642 162.346Z" fill="#F9FCFE"/>
<path d="M136.775 176.943C138.471 176.943 139.845 175.569 139.845 173.873C139.845 172.178 138.471 170.804 136.775 170.804C135.08 170.804 133.706 172.178 133.706 173.873C133.706 175.569 135.08 176.943 136.775 176.943Z" fill="#F9FCFE"/>
<path d="M237.921 91.6503C237.921 91.6503 235.661 90.0235 225.05 94.441C225.05 94.441 219.373 94.3457 223.205 89.3089C223.205 89.3089 230.175 84.5238 237.336 90.0303C237.336 90.0303 239.153 91.4053 237.914 91.6503H237.921Z" fill="#5E5573"/>
<path d="M253.202 146.797C253.202 146.797 269.224 141.474 270.96 123.967C270.96 123.967 270.45 104.317 246.273 101.608C245.395 101.642 234.239 102.309 228.317 112.117C223.117 120.728 226.078 129.569 226.5 130.767C226.731 131.618 230.305 143.924 241.597 147.089C246.586 148.485 250.949 147.505 253.209 146.803H253.202V146.797Z" fill="#FDFEFD"/>
<path d="M269.626 130.182C269.115 127.936 268.169 124.744 266.277 121.259C264.283 117.59 261.56 112.587 255.754 109.756C248.594 106.257 241.528 108.387 240.242 108.803C228.97 112.431 225.615 124.192 225.363 125.132C225.186 123.117 225.104 119.115 227.017 114.677C227.493 113.581 228.821 110.743 231.496 108.074C236.104 103.466 243.441 100.594 251.024 101.778C258.844 103.01 263.459 108.027 264.895 109.633C266.427 111.348 271.613 117.154 270.946 124.955C270.756 127.194 270.13 128.991 269.619 130.168H269.626V130.182Z" fill="#5E5573"/>
<path d="M242.352 108.244C244.932 108.659 249.54 109.796 253.726 113.363C260.349 119.005 264.732 129.753 260.532 138.506C258.136 143.495 253.787 146.102 251.282 147.3C246.967 148.246 243.598 147.647 241.794 147.178C233.953 145.129 229.719 138.71 228.235 135.749C226.69 132.666 225.792 128.671 225.628 127.35C225.622 127.303 225.356 125.138 225.356 125.138C226.098 122.599 227.806 118.073 231.747 114.105C233.027 112.811 235.355 110.518 239.133 109.115C240.412 108.639 241.535 108.387 242.352 108.244Z" fill="#5E5573"/>
<path d="M238.878 128.528C241.691 127.518 242.999 123.99 241.799 120.646C240.599 117.302 237.346 115.41 234.533 116.419C231.72 117.429 230.413 120.958 231.612 124.301C232.812 127.645 236.065 129.537 238.878 128.528Z" fill="#F9FCFE"/>
<path d="M251.473 136.138C253.168 136.138 254.543 134.764 254.543 133.068C254.543 131.373 253.168 129.999 251.473 129.999C249.777 129.999 248.403 131.373 248.403 133.068C248.403 134.764 249.777 136.138 251.473 136.138Z" fill="#F9FCFE"/>
<path d="M128.705 204.186C137.342 203.791 144.191 200.137 144.003 196.025C143.814 191.913 136.66 188.9 128.023 189.295C119.386 189.69 112.537 193.344 112.725 197.456C112.913 201.568 120.068 204.581 128.705 204.186Z" fill="#FAC0D8"/>
<path d="M276.946 150.921C283.863 145.735 287.47 138.86 285.001 135.567C282.531 132.273 274.922 133.808 268.004 138.994C261.086 144.181 257.48 151.055 259.949 154.349C262.418 157.642 270.028 156.107 276.946 150.921Z" fill="#FAC0D8"/>
<path d="M86.7337 90.4862C84.4398 90.4318 80.9685 90.3161 76.7484 90.0982C60.3855 89.2338 57.4518 88.0495 49.74 88.5463C44.2607 88.8935 37.5631 89.3223 30.7089 93.2973C21.7242 98.5112 17.579 106.856 15.891 110.96C12.2835 119.741 10.1395 126.677 8.64882 134.919C7.62103 140.596 6.57282 146.402 6.69534 154.134C6.8587 164.589 7.08331 179.21 16.5717 187.813C20.2812 191.182 25.3045 193.524 30.0691 195.75C35.3305 198.207 38.2301 198.867 43.1921 201.699C47.5347 204.176 50.761 206.769 52.803 208.58C55.1376 211.418 57.5199 214.461 59.909 217.728C62.0871 220.696 64.095 223.609 65.9464 226.427C66.9062 227.836 68.3696 229.816 70.4047 231.947C73.842 235.534 79.6821 241.633 88.374 242.81C95.8204 243.818 101.933 240.741 104.757 239.033C104.757 239.033 110.502 234.601 113.511 228.557C111.775 227.57 109.236 225.93 106.595 223.439C96.0859 213.515 94.2345 199.623 93.8533 195.505C93.3224 189.794 94.3162 188.827 93.3292 182.348C92.3559 175.977 90.6066 171.729 89.4154 168.517C83.2555 151.861 82.3707 136.213 82.0167 129.835C81.5198 121.041 82.0644 114.615 82.2005 113.084C83.0377 103.732 84.9844 96.0268 86.72 90.493H86.7337V90.4862Z" fill="#C0B4DF"/>
<path d="M30.0692 195.736C33.4112 197.941 36.6852 197.975 43.1922 201.685C47.5348 204.162 50.7611 206.756 52.8031 208.566C55.1377 211.405 57.52 214.447 59.9091 217.714C62.0872 220.682 64.0952 223.595 65.9466 226.413C66.9063 227.822 68.3697 229.803 70.4048 231.933C73.8422 235.52 79.6822 241.619 88.3742 242.796C95.8205 243.804 101.933 240.727 104.758 239.019C104.758 239.019 110.502 234.588 113.511 228.543C111.775 227.557 109.236 225.916 106.595 223.425C96.086 213.501 94.2346 199.609 93.8534 195.491C93.3225 189.78 94.3163 188.814 93.3293 182.334C93.0775 180.673 92.7712 179.169 92.4377 177.78C91.2942 173.056 89.5857 168.911 89.4156 168.503C86.8495 162.214 85.4746 155.108 84.2902 149.022C83.3713 144.278 82.3776 137.758 82.0168 129.821C82.0168 129.821 64.0543 117.842 45.0845 120.408C42.4844 120.762 40.9937 120.966 38.9858 121.755C22.1396 128.426 18.9064 157.122 21.2002 174.731C22.16 182.109 23.3511 191.298 30.0692 195.729V195.736Z" fill="#ACECC7"/>
<path d="M21.9217 170.463C23.1197 170.729 23.9909 162.084 30.9745 154.304C36.2291 148.444 42.3278 145.987 44.8462 144.973C62.87 137.717 81.3838 147.437 84.3038 149.029C83.7049 145.701 83.1808 142.168 82.7656 138.425C82.432 135.443 82.1938 132.571 82.0304 129.828C75.714 127.813 70.3232 126.221 66.1984 125.043C58.9494 122.974 56.2676 122.348 52.701 122.171C48.7055 121.966 44.9483 121.769 40.7691 123.586C36.2291 125.56 33.7039 128.814 31.5326 131.686C30.0352 133.667 26.5502 138.67 23.8208 149.833C21.4044 159.702 20.6013 170.184 21.9217 170.477V170.463Z" fill="#8EC2A7"/>
<path d="M110.55 228.455C107.181 233.097 103.512 238.297 97.7467 240.04C93.4245 241.347 88.7416 240.441 84.644 238.808C76.0746 235.404 69.4246 229.721 64.2992 222.091C59.1671 214.467 55.2601 205.987 47.2284 201.161C43.8932 199.16 40.0679 198.234 36.4877 196.77C31.0901 194.565 25.8762 191.781 21.0912 188.446C7.53937 179.019 9.11849 158.763 10.5274 144.21C12.0181 128.807 14.1553 110.273 26.6794 99.5251C33.6289 93.5558 43.2942 90.6902 52.3605 90.8672C63.5437 91.085 74.7201 92.3783 85.9237 92.6709C88.7824 92.7458 88.4149 88.3215 85.5902 88.2467C74.6997 87.9608 63.8704 86.8581 52.9936 86.4702C44.3833 86.1639 35.6981 88.4441 28.3198 92.8819C12.3924 102.459 8.2949 122.838 6.52519 139.895C5.73563 147.464 5.09581 155.08 5.48379 162.69C5.94663 171.729 7.68911 181.993 14.3255 188.684C17.5314 191.917 21.8263 194.334 25.7741 196.525C30.4707 199.139 35.3578 201.147 40.415 202.917C50.0191 206.272 54.3617 214.849 59.5415 222.908C65.4836 232.144 73.3588 239.434 83.7932 243.212C88.7552 245.002 94.1188 245.784 99.2577 244.205C105.799 242.197 110.121 236.602 113.967 231.293C115.627 228.993 112.245 226.12 110.563 228.441H110.557V228.455H110.55Z" fill="#5E5573"/>
<path d="M31.8524 195.008C23.1536 181.585 22.1462 166.795 25.3181 151.459C26.7202 144.666 28.6873 137.594 32.8529 131.931C38.0191 124.914 45.6493 122.749 54.103 123.695C62.5567 124.642 71.5278 128.215 79.4983 131.965C82.0848 133.184 83.9838 129.175 81.3905 127.956C66.981 121.17 45.4927 112.73 32.111 125.982C26.5024 131.53 23.6505 139.385 21.7991 146.885C19.7639 155.135 18.5115 163.664 19.2602 172.165C20.0566 181.218 23.2965 189.957 28.2245 197.567C29.7764 199.963 33.4043 197.41 31.8524 195.015V195.008Z" fill="#5E5573"/>
<path d="M86.4886 92.5421C86.4274 91.9431 82.5885 92.1746 72.2289 91.7594C61.2091 91.3101 58.8676 90.7724 51.3872 91.0038C44.0702 91.2284 41.0685 91.9091 38.6181 92.7123C33.2886 94.4684 29.756 97.0889 29.0481 97.6334C22.5751 102.548 19.7844 108.885 16.912 115.405C14.6795 120.483 13.5155 124.649 13.0323 126.52C7.36241 148.213 10.9971 170.504 11.0039 170.518C11.0039 170.518 10.085 158.307 10.9154 148.335C12.2904 131.714 18.5796 120.292 20.1996 117.475C24.0929 110.709 27.8842 106.877 30.0419 104.923C32.4173 102.759 35.7253 99.7979 40.8983 97.79C41.8512 97.4224 44.8257 96.3198 51.2511 95.7276C60.7667 94.8427 62.9311 96.4423 71.2351 95.9318C79.1988 95.4417 86.5703 93.3997 86.4886 92.5557V92.5421Z" fill="#DACFF3"/>
<path d="M235.702 35.6254C237.438 34.1212 240.045 31.8274 243.162 28.9754C255.244 17.9079 256.755 15.1309 263.024 10.6045C267.475 7.38501 272.913 3.46444 280.734 2.178C290.985 0.48997 299.493 4.29484 303.4 6.39126C311.765 10.8768 317.83 14.8654 324.221 20.2834C328.625 24.0134 333.117 27.8251 337.943 33.8693C344.464 42.044 353.585 53.4722 351.727 66.146C351.005 71.108 348.623 76.104 346.349 80.855C343.851 86.096 342.034 88.4511 340.006 93.7874C338.222 98.4636 337.392 102.513 336.963 105.209C336.963 108.884 337.065 112.751 337.297 116.787C337.508 120.462 337.807 123.988 338.168 127.337C338.324 129.032 338.454 131.496 338.236 134.429C337.868 139.385 337.235 147.804 331.273 154.236C326.161 159.75 319.498 161.261 316.224 161.737C316.224 161.737 308.968 161.969 302.808 159.219C303.523 157.347 304.435 154.475 304.891 150.874C306.694 136.533 299.289 124.635 296.968 121.211C293.748 116.467 292.367 116.351 289.011 110.722C285.71 105.182 284.362 100.798 283.239 97.5583C277.406 80.7869 268.135 68.1471 264.358 62.9946C259.144 55.8885 254.645 51.2737 253.562 50.1778C246.967 43.4938 240.569 38.7837 235.709 35.6186H235.702V35.6254Z" fill="#C0B4DF"/>
<path d="M346.363 80.8549C345.185 84.6802 342.681 86.7902 340.019 93.7874C338.236 98.4635 337.406 102.513 336.977 105.209C336.977 108.884 337.079 112.75 337.31 116.787C337.521 120.462 337.821 123.988 338.182 127.337C338.338 129.032 338.467 131.496 338.25 134.429C337.882 139.384 337.249 147.804 331.287 154.236C326.175 159.75 319.511 161.261 316.237 161.737C316.237 161.737 308.981 161.969 302.821 159.219C303.536 157.347 304.448 154.475 304.904 150.874C306.708 136.533 299.302 124.635 296.981 121.211C293.762 116.467 292.38 116.351 289.025 110.722C288.167 109.279 287.445 107.925 286.819 106.638C284.696 102.268 283.382 97.9802 283.253 97.5582C281.238 91.0716 277.78 84.7142 274.826 79.2622C272.519 75.0149 269.136 69.3518 264.378 63.0013C264.378 63.0013 270.626 42.3366 286.901 32.2561C289.133 30.8744 290.413 30.0848 292.469 29.4178C309.71 23.8568 330.449 43.9498 339.876 58.9991C343.824 65.3019 348.752 73.1567 346.383 80.8481H346.363V80.8549Z" fill="#ACECC7"/>
<path d="M336.582 56.1603C335.826 57.1269 329.66 51.0146 319.321 49.4423C311.541 48.2579 305.272 50.2386 302.679 51.0622C284.151 56.9159 276.045 76.192 274.799 79.2754C273.145 76.3282 271.3 73.2652 269.245 70.1138C267.611 67.6022 265.971 65.2335 264.351 63.0077C267.945 57.44 271.089 52.7843 273.526 49.2449C277.807 43.0373 279.482 40.8524 282.123 38.4429C285.077 35.7407 287.854 33.2086 292.23 31.9494C296.988 30.5881 301.004 31.4934 304.503 32.3306C306.912 32.9091 312.786 34.5563 321.989 41.4309C330.129 47.516 337.412 55.0917 336.582 56.1603Z" fill="#8EC2A7"/>
<path d="M304.224 161.628C310.152 163.173 316.421 164.616 322.452 162.724C327.026 161.288 330.81 157.973 333.519 154.093C338.747 146.593 341.517 137.37 341.449 128.256C341.374 118.665 337.705 108.653 340.196 99.1509C341.36 94.6926 344.328 90.9694 346.445 86.9399C349.222 81.6649 351.414 76.0631 353.027 70.3183C357.887 53.0297 343.457 37.1976 332.178 25.8783C320.532 14.1846 306.701 1.17732 289.317 0.0678499C279.312 -0.571967 268.727 3.26693 260.988 9.54258C257.02 12.7621 253.447 16.4785 249.73 19.9838C244.973 24.4762 240.113 28.8596 235.171 33.1545C233.034 35.0059 235.566 38.661 237.724 36.7824C245.578 29.9622 253.011 22.7269 260.655 15.6821C266.611 10.1892 273.832 6.26862 281.878 4.87328C299.037 1.89201 314.059 14.2867 325.494 25.4767C330.511 30.3843 335.445 35.3871 339.727 40.9548C344.804 47.5504 350.467 56.113 349.651 64.8595C349.249 69.0795 347.561 73.3541 346.002 77.2406C344.124 81.9575 341.782 86.4158 339.135 90.7312C334.254 98.6744 334.649 107.251 335.847 116.16C336.568 121.524 337.358 126.969 336.868 132.387C336.419 137.363 334.887 142.032 332.757 146.518C330.796 150.643 328.142 154.652 324.174 157.082C318.272 160.696 311.255 158.878 305.02 157.252C302.25 156.53 301.453 160.9 304.21 161.615L304.224 161.628Z" fill="#5E5573"/>
<path d="M348.95 81.0862C348.01 72.8911 345.403 64.8525 341.054 57.8214C336.602 50.6336 330.49 44.7936 323.908 39.5866C317.891 34.8288 311.146 30.4386 303.55 28.7846C294.381 26.7903 286.275 30.248 279.686 36.5985C272.682 43.3506 267.775 52.4374 263.657 61.1566C262.438 63.7431 266.447 65.6353 267.666 63.0488C273.608 50.4771 283.981 30.3977 300.868 32.8141C307.988 33.8351 314.365 37.8373 319.967 42.1459C326.12 46.8764 331.858 52.1107 336.242 58.5633C340.843 65.3426 343.586 73.2995 344.525 81.4197C344.852 84.2512 349.276 83.9245 348.95 81.0862Z" fill="#5E5573"/>
<path d="M237.206 37.068C236.866 36.5643 239.99 34.3046 247.716 27.3959C255.931 20.0448 257.401 18.139 263.323 13.5582C269.115 9.07945 271.865 7.69772 274.268 6.75841C279.502 4.72325 283.892 4.50544 284.784 4.47141C292.904 4.1515 299.085 7.26891 305.449 10.4748C310.397 12.9728 313.943 15.4504 315.509 16.5803C333.676 29.7237 345.042 49.2381 345.049 49.2518C345.049 49.2518 337.998 39.2461 331.014 32.072C319.382 20.1197 307.266 15.3006 304.224 14.1503C296.92 11.4005 291.55 10.856 288.643 10.7198C285.431 10.5565 281 10.3795 275.725 12.1152C274.758 12.4351 271.756 13.4765 266.42 17.1044C258.518 22.4679 257.857 25.0817 251.126 29.9688C244.673 34.6517 237.676 37.7623 237.206 37.0612V37.068Z" fill="#DACFF3"/>
<path d="M94.7927 80.9707C101.783 71.6117 105.275 66.9356 109.148 62.9605C123.482 48.2516 139.859 44.4671 138.94 36.8234C138.77 35.4008 137.851 32.5829 138.246 32.4331C138.709 32.2562 139.913 36.1563 142.582 36.5987C143.596 36.7689 144.447 36.3809 144.63 36.2856C146.06 35.5914 146.536 34.0871 146.645 33.6923C147.169 31.8001 145.985 30.9629 145.719 28.4785C145.433 25.7899 146.434 23.1694 147.026 23.1762C148.095 23.183 147.421 31.7933 151.049 33.175C152.26 33.6379 153.683 33.1955 154.527 32.6373C156.059 31.6231 155.902 30.0781 157.406 26.6952C158.155 25.014 159.428 22.1484 160.367 22.2846C161.647 22.4683 160.449 27.9272 163.199 30.6158C165.513 32.8756 169.76 32.331 173.163 31.4326C177.016 30.6022 183.012 29.5948 190.404 29.5403C192.691 29.5199 199.28 29.5608 217.038 33.0457C222.422 34.1007 229.855 35.673 238.711 37.9192C235.001 35.6186 229.957 32.8824 223.702 30.5001C219.407 28.8665 211.702 26.3208 201.696 25.2318C201.696 25.2318 191.194 24.0951 180.072 25.5313C176.689 25.9669 174.994 26.1847 173.783 26.5863C172.503 27.0083 171.516 27.478 169.958 27.4848C168.698 27.4916 167.167 27.1989 166.262 26.6067C164.009 25.1229 163.518 20.3311 165.771 15.1309C165.771 15.1309 156.188 17.4927 153.349 29.8739C149.681 17.6016 147.312 15.1445 145.821 15.267C143.759 15.4372 141.622 20.6646 141.731 24.9255C141.792 27.1308 142.507 31.0582 142.507 31.0582C142.507 31.0582 140.785 29.023 138.865 27.6685C138.368 27.3146 137.123 26.4366 135.578 26.0009C132.474 25.1229 129.601 26.4161 128.417 27.0423C129.316 27.3554 131.705 28.3152 133.304 30.8132C133.774 31.5415 135.353 33.9986 134.611 36.5987C134.169 38.1642 133.073 39.0219 130.901 40.6691C128.199 42.7246 126.715 43.1126 122.393 45.6855C122.393 45.6855 121.141 46.4274 119.065 47.7615C112.558 51.9543 107.153 57.8012 104.567 60.6327C99.3871 66.3026 96.2084 71.0535 95.3644 72.3332C93.5879 75.0218 91.648 78.003 89.7762 82.3184C88.0406 86.3343 87.0604 89.9077 86.4955 92.535C88.4694 89.6695 91.2873 85.6604 94.7995 80.9639H94.7927V80.9707Z" fill="#DACFF3"/>
<path d="M86.7269 90.486C88.027 86.1706 90.0281 81.0793 93.1795 75.7702C95.977 71.0464 98.6588 67.8746 101.613 64.3692C106.153 58.992 110.005 55.4526 112.959 52.764C115.532 50.4158 117.234 49.0544 119.078 47.768C120.916 46.4884 121.515 46.2365 125.075 44.1129C133.631 39.0012 134.468 37.844 134.768 36.5236C135.36 33.9711 133.787 31.5412 133.311 30.8061C131.637 28.2196 129.186 27.2939 128.424 27.0352C129.227 26.5996 132.059 25.1975 135.584 25.9938C140.744 27.1578 142.786 32.004 142.97 32.4737C142.33 30.7108 141.2 26.8583 142.017 22.0324C142.745 17.7511 144.651 14.7358 145.753 13.252C147.06 14.8515 148.599 17.0568 149.926 19.8883C151.546 23.3597 152.267 26.5315 152.601 28.839C152.989 26.9604 154.085 22.8968 157.502 19.0988C160.387 15.8861 163.587 14.3614 165.336 13.6672C163.28 22.3455 164.587 25.497 166.241 26.7426C168.446 28.4034 171.489 26.8378 178.33 25.6739C183.754 24.755 187.648 24.755 193.658 24.755C195.571 24.755 205.107 24.8299 217.072 28.1651C222.123 29.5741 228.616 31.8407 235.729 35.6047" stroke="#5E5573" stroke-width="4.08393" stroke-linecap="round" stroke-linejoin="round"/>
<path d="M84.5761 98.9667C84.7054 97.3944 84.9232 95.6587 85.1342 94.0932C85.2908 93.1403 85.495 91.813 85.563 90.8601C85.8081 89.1517 86.5568 87.7359 87.8568 86.4359C87.9181 86.3814 88.0066 86.3814 88.061 86.4359C88.6192 88.192 88.5375 89.8528 87.9249 91.4659C87.2919 92.8408 86.6997 94.6173 86.1076 96.0127C85.6855 97.0201 85.2703 98.0274 84.8075 99.0212C84.7531 99.1437 84.5557 99.0961 84.5693 98.9599H84.5761V98.9667Z" fill="#5E5573"/>
<path d="M242.352 40.8795C240.929 40.1989 239.391 39.3617 238.003 38.5993C237.165 38.1161 236.002 37.4422 235.144 37.027C233.64 36.183 232.591 34.9782 231.843 33.297C231.816 33.2222 231.843 33.1405 231.924 33.1064C233.769 33.2222 235.287 33.8892 236.566 35.0531C237.621 36.1354 239.058 37.3333 240.154 38.3883C240.943 39.1439 241.733 39.8926 242.488 40.6821C242.583 40.7706 242.461 40.9476 242.345 40.8795H242.352Z" fill="#5E5573"/>
<path d="M278.427 180.299C280.312 177.624 282.361 175.922 282.579 175.732C284.6 174.037 290.243 167.713 305.816 147.934C305.428 150.534 304.952 152.793 304.509 154.624C303.883 157.177 303.046 160.029 301.909 163.071C301.372 164.508 300.848 165.787 300.351 166.897C294.089 181.184 284.825 189.991 277.549 196.771C273.39 200.65 268.945 204.047 267.809 204.911C267.774 204.939 267.638 205.095 267.591 205.075C267.38 204.945 270.273 200.793 272.73 195.192C274.384 191.427 275.323 189.277 275.745 186.779C275.827 186.302 276.004 185.131 276.575 183.654C277.065 182.388 277.685 181.327 278.413 180.292H278.427V180.299Z" fill="#A394C5"/>
<path d="M101.892 214.849C109.617 218.061 120.998 221.955 135.23 223.881C145.474 225.269 153.411 225.127 158.386 225.018C158.386 225.018 169.113 224.786 201.52 219.6C201.52 219.6 204.12 220.614 204.208 220.655C212.376 223.833 239.105 223.595 230.338 223.5C230.338 223.5 220.748 226.821 217.93 227.774C210.783 230.184 196.006 235.18 176.907 236.718C172.707 237.058 169.542 237.126 166.425 237.201C160.285 237.344 150.886 237.283 139.097 236.003C132.651 235.309 129.792 234.69 127.097 233.887C122.985 232.661 115.001 230.184 108.038 223.105C105.003 220.022 103.063 216.972 101.885 214.855L101.892 214.849Z" fill="#A394C5"/>
<path d="M167.112 201.732C167.112 201.732 174.525 201.705 174.749 195.205" stroke="#5E5573" stroke-width="4.08393" stroke-linecap="round" stroke-linejoin="round"/>
<path d="M172.803 189.766C187.784 233.839 266.495 234.302 276.596 183.661C282.878 174.513 277.127 162.064 266.917 170.388C263.622 171.157 258.586 165.814 255.741 168.727C251.548 171.157 253.365 177.923 255.999 182.599C245.83 191.318 235.294 178.44 233.851 167.863" stroke="#5E5573" stroke-width="4.08393" stroke-linecap="round" stroke-linejoin="round"/>
<path d="M180.079 161.887C185.538 153.712 196.489 147.709 206.427 149.642C207.87 149.914 209.279 150.322 210.599 150.935C210.647 150.955 210.674 151.017 210.647 151.071C207.809 151.125 205.073 150.874 202.132 151.234C193.338 151.779 185.967 155.209 180.229 162.009C180.161 162.104 179.997 161.996 180.072 161.893L180.079 161.887Z" fill="#5E5573"/>
<path d="M183.36 172.382C187.593 165.998 190.649 163.398 197.837 160.573C202.275 158.715 207.196 157.537 212.002 158.545C213.594 158.851 215.146 159.348 216.562 160.117C216.623 160.151 216.65 160.226 216.61 160.287C216.582 160.335 216.542 160.355 216.494 160.348C214.901 160.267 213.377 160.226 211.859 160.274C210.348 160.308 208.85 160.464 207.366 160.668C202.86 161.247 198.368 162.173 194.182 164.024C192.766 164.609 191.405 165.249 190.173 166.114C187.661 167.808 185.613 170.198 183.543 172.525C183.503 172.58 183.421 172.58 183.366 172.539C183.319 172.498 183.312 172.43 183.346 172.376H183.36V172.382Z" fill="#5E5573"/>
<path d="M192.685 184.348C193.644 183.382 194.1 182.061 194.856 180.918C195.598 179.727 196.449 178.59 197.381 177.515C200.247 174.254 204.018 171.906 208.061 170.341C212.158 168.857 216.998 169.177 220.775 171.382C220.918 171.47 220.871 171.702 220.7 171.715C218.373 172.022 214.997 172.417 212.757 172.886L209 173.621C203.834 174.581 199.185 177.637 195.707 181.537C194.781 182.558 194.066 183.818 192.889 184.607C192.726 184.716 192.515 184.478 192.671 184.342H192.685V184.348Z" fill="#5E5573"/>
<path d="M205.467 195.988C206.059 190.821 209.163 186.03 213.302 182.899C214.357 182.095 215.452 181.319 216.623 180.646C218.944 179.311 221.667 178.787 224.321 178.855C225.649 178.896 226.962 179.094 228.235 179.55C228.392 179.604 228.399 179.836 228.242 179.897C224.791 181.265 221.49 182.477 218.053 183.743C212.376 185.696 207.775 190.359 205.794 196.056C205.74 196.239 205.426 196.185 205.46 195.981L205.467 195.988Z" fill="#5E5573"/>
<path d="M234.334 197.812C231.822 195.246 234.736 187.527 237.451 185.832C238.779 185.009 240.331 184.546 241.916 184.913C242.032 184.941 242.1 185.049 242.073 185.165C241.338 186.452 240.542 187.411 239.677 188.473C238.949 189.426 237.853 189.991 237.084 190.917C235.838 192.516 233.83 195.559 234.606 197.628C234.688 197.798 234.45 197.955 234.327 197.825V197.812H234.334Z" fill="#5E5573"/>
<path d="M253.596 194.102C252.855 192.891 251.895 191.904 251.262 190.61C250.894 189.875 250.397 189.072 250.663 188.194C250.901 187.268 251.636 186.349 252.698 186.322C252.807 186.322 252.895 186.39 252.923 186.492C253.181 187.486 253.481 187.895 253.617 188.371C253.692 188.602 253.699 188.827 253.63 189.086C253.454 189.664 253.542 190.256 253.644 190.869C253.665 191.182 254.298 194.681 253.59 194.102H253.596Z" fill="#5E5573"/>
<path d="M82.5136 116.303C82.2277 130.311 83.6503 144.469 87.6661 157.919C89.4358 163.691 92.6077 168.979 93.8261 174.949C94.7449 178.896 95.4256 182.919 95.5277 186.989C95.5685 189.025 95.5413 191.005 95.7387 192.972C95.9157 194.939 96.2628 196.9 96.6916 198.84C97.9508 204.693 99.3666 210.513 102.171 215.795C107.249 225.528 115.219 229.449 125.32 232.573C153.077 240.754 192.351 235.282 219.788 226.883C227.412 224.521 235.062 222.132 242.345 218.899C256.85 212.446 269.85 202.835 280.741 191.318C286.064 185.54 291.652 179.727 295.627 172.934C298.499 167.829 301.099 162.452 302.753 156.836C304.332 151.323 304.72 145.449 303.175 139.881C301.208 132.843 297.424 126.268 293.211 120.292L292.789 119.679L292.571 119.373L292.462 119.223C292.462 119.223 292.305 119.04 292.523 119.264L292.339 119.053C288.568 113.894 284.757 108.244 283.048 101.962C279.536 88.7708 273.172 76.4714 265.841 64.9955L265.576 64.6007C265.487 64.4578 265.413 64.3829 265.249 64.0902L265.331 64.2264C263.275 61.6263 259.123 56.2831 257.088 53.6558C257.034 53.5809 257.04 53.472 257.115 53.4176C257.19 53.3631 257.292 53.3699 257.354 53.4448C259.552 55.9836 263.902 61.0749 266.073 63.6274L266.154 63.7635C266.175 63.7227 266.284 63.9201 266.379 64.0358L266.658 64.4238C271.675 71.489 276.106 78.9898 279.781 86.8378C281.394 90.3636 282.912 93.9098 284.144 97.5989C284.954 100.008 285.546 102.438 286.595 104.732C287.622 106.972 288.848 109.19 290.195 111.253C291.597 113.342 293.844 116.344 294.858 117.712C296.559 120.067 298.268 122.477 299.82 124.934C303.584 131.114 306.783 137.928 307.402 145.238C308.083 153.637 305.19 161.826 301.528 169.231C300.664 171.042 299.684 172.968 298.676 174.69C294.551 181.85 288.868 187.738 283.273 193.701C272.022 205.469 258.511 215.169 243.55 221.628C236.097 224.841 228.324 227.162 220.578 229.469C192.63 237.753 152.887 242.905 124.755 234.329C114.253 230.98 105.989 226.76 100.776 216.482C97.9644 211.051 96.5623 204.993 95.3643 199.071C94.9491 197.09 94.6224 195.076 94.4591 193.034C94.2889 190.992 94.3366 188.95 94.3161 186.962C94.2685 182.98 93.6491 179.026 92.7915 175.139C91.6412 169.197 88.5578 163.908 86.8561 158.123C82.9832 144.557 81.7172 130.304 82.18 116.242C82.18 116.147 82.2617 116.072 82.3638 116.079C82.4591 116.079 82.5272 116.16 82.534 116.256L82.5068 116.29V116.303H82.5136Z" fill="#5E5573"/>
<path d="M256.966 53.5744C266.549 64.3151 274.418 76.5601 280.53 89.5879C282.579 93.9169 283.913 98.5862 285.717 102.99C288.569 109.511 292.387 115.63 296.975 121.075C298.54 122.92 300.133 124.812 301.304 126.956C302.481 129.134 303.298 131.441 303.979 133.783C306.688 143.224 305.551 153.27 302.835 162.561C300.739 169.545 297.213 176.099 292.727 181.844C288.303 187.616 283.171 192.68 278.066 197.805C269.429 206.28 259.409 213.27 248.709 218.878C240.181 223.418 230.903 226.495 221.694 229.218C212.485 232.022 203.105 234.35 193.617 236.031C177.016 239.108 159.952 239.918 143.112 238.454C135.843 237.855 128.472 236.752 121.611 234.173C117.595 232.839 113.361 230.933 110.005 228.169C101.204 221.084 96.1336 210.221 94.5545 199.208C94.0916 195.028 93.7241 190.781 93.5403 186.588C93.3429 181.898 92.7575 177.236 91.2805 172.818C85.6242 159.518 82.6158 145.191 81.5948 130.802C81.2953 126.037 80.8256 121.129 81.8058 116.406C81.8262 116.317 81.9215 116.256 82.01 116.276C82.0985 116.297 82.1529 116.385 82.1393 116.474C81.9351 117.638 81.8602 118.829 81.8466 120.02C81.9487 128.351 83.2352 136.676 84.8619 144.844C86.2913 151.827 88.1495 158.743 90.736 165.372C91.614 167.625 92.669 169.715 93.5539 172.002C94.4387 174.35 94.9901 176.739 95.4733 179.142C96.5079 185.118 96.4535 191.101 97.3247 197.07C98.686 208.362 104.084 219.811 113.531 226.461C116.369 228.51 119.412 229.701 122.802 230.858C127.226 232.492 131.739 233.465 136.408 234.112C159.952 237.304 184.006 235.65 207.114 230.211C220.918 226.774 234.865 223.139 247.586 216.66C258.123 211.262 268.026 204.483 276.562 196.253C281.639 191.257 286.812 186.234 291.182 180.632C295.579 175.099 299.044 168.803 301.14 162.05C303.842 153.059 305.108 143.346 302.583 134.178C301.957 131.918 301.195 129.672 300.112 127.623C299.003 125.547 297.512 123.73 296.001 121.912C291.407 116.324 287.602 110.062 284.784 103.398C283.014 98.9197 281.769 94.3253 279.768 89.9554C277.814 85.6061 275.609 81.3588 273.254 77.2068C268.544 68.8891 263.01 61.0412 256.734 53.8126C256.673 53.7377 256.68 53.6356 256.755 53.5676C256.83 53.4995 256.932 53.5131 257 53.588L256.986 53.6016L256.966 53.5744Z" fill="#5E5573"/>
<path d="M143.439 238.407L123.162 253.388C123.162 253.388 113.626 259.35 118.037 270.915C119.412 274.155 121.896 278.599 126.382 282.438C129.234 284.882 133.685 288.687 139.757 288.653C143.18 288.632 145.644 287.393 149.722 285.345C154.731 282.826 158.345 279.94 160.598 277.919C162.763 290.082 164.927 302.245 167.085 314.409C167.153 315.341 167.623 320.78 172.285 324.448C175.389 326.892 178.718 327.246 180.038 327.321C180.038 327.321 212.709 331.139 211.042 318.261L209.728 304.43C213.662 305.485 218.597 306.377 224.308 306.445C237.206 306.588 247.232 302.395 252.773 299.516C255.339 300.353 258.068 301.401 260.9 302.722C269.612 306.792 276.16 311.992 280.795 316.471C280.795 316.471 293.673 326.729 305.714 312.176C307.559 310.624 310.125 308.092 312.228 304.369C313.896 301.415 317.36 295.296 315.277 289.388C314.304 286.638 312.562 285.154 309.152 282.254C306.742 280.206 303.536 277.946 295.246 274.134C291.604 272.46 286.765 270.391 280.918 268.301C281.619 265.279 282.225 261.882 282.599 258.146C283.225 251.938 283.062 246.411 282.599 241.83C289.487 238.209 295.055 234.881 299.03 232.396C299.03 232.396 317.183 221.05 331.082 204.809C331.872 203.891 333.383 202.06 334.207 199.269C335.5 194.865 334.261 190.788 333.383 188.583C331.409 184.54 329.265 181.551 327.672 179.591C324.548 175.732 322.309 173.043 318.497 171.988C315.761 171.233 313.31 171.621 311.833 171.988C298.179 179.666 290.059 184.233 290.059 184.233C290.059 184.233 286.118 188.515 279.992 195.178C273.989 201.148 264.841 209.084 252.249 216.061C242.182 221.642 234.211 224.222 223.797 227.53C208.83 232.288 187.859 237.318 162.389 238.379C154.622 238.706 148.102 238.59 143.439 238.413V238.407Z" fill="#C0B4DF"/>
<path d="M144.569 238.447C152.601 242.885 177.921 255.525 209.994 249.705C258.647 240.87 280.319 197.281 282.599 192.503C279.366 195.913 274.418 200.766 267.815 205.857C246.048 222.642 224.451 228.04 206.427 232.349C191.997 235.799 170.754 239.373 144.569 238.447Z" fill="#A394C5"/>
<path d="M162.076 286.12C161.899 286.855 160.115 293.825 153.329 296.636C147.857 298.903 141.363 297.542 136.898 293.172C139.607 299.332 145.481 303.313 151.764 303.286C158.924 303.252 163.355 298.025 163.988 297.249L162.069 286.127H162.076V286.12Z" fill="#C0B4DF"/>
<path d="M162.593 275.278C162.593 275.278 172.741 266 173.354 261.413C173.354 261.413 173.837 310.536 179.303 327.225C179.303 327.225 170.223 328.689 168.127 313.905L162.593 275.278Z" fill="#A394C5"/>
<path d="M147.108 236.725C139.342 243.382 132.664 248.119 127.995 251.216C121.665 255.423 119.242 256.471 118.098 259.765C115.212 268.097 124.701 278.551 126.232 280.233C128.472 282.697 130.228 284.63 133.1 285.875C143.732 290.483 156.331 279.831 157.27 279.014" stroke="#5E5573" stroke-width="4.08393" stroke-linecap="round" stroke-linejoin="round"/>
<path d="M176.839 255.647C174.293 262.195 170.625 268.334 165.948 273.603C164.186 275.597 162.416 277.653 160.333 279.341C156.78 282.07 152.662 284.085 148.163 284.772C147.966 284.806 147.829 284.548 147.979 284.405C149.266 283.118 150.579 281.995 151.873 280.865C153.261 279.715 156.304 277.054 157.685 276.005C161.075 273.507 164.39 270.907 167.194 267.742C170.727 263.999 173.769 259.888 176.465 255.47C176.58 255.266 176.927 255.422 176.832 255.654H176.839V255.647Z" fill="#5E5573"/>
<path d="M200.117 300.543C200.117 300.543 191.868 295.581 203.01 296.419C203.01 296.419 249.955 299.91 262.772 287.802C262.772 287.802 266.413 284.705 270.449 289.564C271.634 291.15 273.09 292.866 274.874 294.594C278.263 297.882 281.68 300.094 284.451 301.571C283.498 303.484 283.048 305.145 282.824 306.356C281.939 311.107 283.028 316.233 283.028 316.233C275.03 310.814 271.954 308.738 271.954 308.738C268.115 306.152 268.782 306.608 268.115 306.152C262.023 301.98 259.171 299.727 254.835 299.298C254.447 299.257 254.134 299.243 253.95 299.237C247.811 302.572 242.345 304.246 238.513 305.138C233.558 306.295 220.088 309.249 205.848 303.382C203.364 302.361 201.411 301.292 200.124 300.537H200.117V300.543Z" fill="#A394C5"/>
<path d="M286.676 298.12C287.861 295.649 290.495 290.32 296.594 287.25C301.079 284.99 309.322 282.996 313.168 286.835C318.021 291.674 313.848 303.722 307.77 310.617C301.964 317.206 291.141 322.794 286.139 319.023C281.265 315.347 283.777 304.185 286.67 298.127L286.676 298.12Z" fill="#C0B4DF"/>
<path d="M285.54 302.211C287.806 302.932 290.345 303.593 293.136 304.083C300.29 305.335 306.572 305.042 311.357 304.375C310.438 306.356 308.988 308.841 306.688 311.23C300.82 317.321 293.483 318.622 290.706 318.969C289.957 319.037 286.159 319.309 284.451 316.961C283.777 316.035 283.709 314.823 283.579 312.394C283.505 310.957 283.402 308.786 284.104 306.043C284.526 304.409 285.091 303.109 285.547 302.204H285.54V302.211Z" fill="#A394C5"/>
<path d="M287.296 186.887C290.549 184.818 294.831 182.109 299.915 178.931C301.331 178.046 304.605 176.351 308.838 174.016C311.929 172.315 315.427 170.559 318.837 171.477C320.845 172.022 322.499 173.438 323.854 175.017C325.412 176.834 326.644 178.897 327.849 180.966C329.197 183.28 330.504 185.608 331.817 187.942C333.635 191.169 334.261 192.932 334.39 194.695C334.635 198.05 332.947 200.841 331.531 202.828C319.511 219.715 291.277 236.01 291.277 236.01C287.473 238.202 284.376 239.904 282.599 240.863" stroke="#5E5573" stroke-width="3.40328" stroke-linecap="round" stroke-linejoin="round"/>
<path d="M279.985 233.322C282.81 239.59 284.131 246.622 283.858 253.517C283.729 257.022 283.586 260.636 282.211 263.931C280.87 267.205 278.964 270.274 276.249 272.616C276.099 272.745 275.847 272.602 275.895 272.405C276.249 270.656 276.705 269.036 277.113 267.422C278.209 262.719 279.781 257.893 280.598 253.231C281.068 249.97 281.197 246.669 281.047 243.375C280.918 240.053 280.38 236.738 279.591 233.451C279.529 233.226 279.883 233.09 279.979 233.315H279.985V233.322Z" fill="#5E5573"/>
<path d="M161.715 276.012C163.498 288.203 164.648 297.739 165.343 303.817C166.622 315.007 167.024 320.534 171.55 324.482C175.083 327.558 179.167 327.973 184.523 328.511C193.951 329.457 207.639 327.749 209.796 321.33C210.055 320.554 209.912 320.418 209.721 314.381C209.592 310.379 209.551 307.118 209.538 305.001" stroke="#5E5573" stroke-width="4.08393" stroke-linecap="round" stroke-linejoin="round"/>
<path d="M197.347 297.644C208.319 304.702 223.144 306.199 236.376 303.354C239.67 302.517 245.817 300.387 250.152 298.433C254.57 296.493 258.715 294.104 262.867 291.559L263.146 291.858C260.151 295.901 256.21 299.189 251.902 301.782C246.837 304.899 240.644 306.744 235.314 307.227C225.472 308.214 215.207 307.459 206.1 303.348C202.704 301.809 200.151 300.339 197.116 297.977L197.354 297.644H197.347Z" fill="#5E5573"/>
<path d="M254.182 298.998C255.781 299.529 257.98 300.312 260.519 301.428C262.751 302.408 265.746 303.735 268.911 305.852C271.715 307.724 273.104 309.181 274.901 310.767C277.372 312.945 283.634 318.472 288.548 319.52C299.888 321.929 317.796 303.409 314.508 291.198C313.528 287.563 310.744 284.752 308.723 282.703C305.864 279.817 303.203 278.333 295.232 274.433C290.699 272.214 285.866 269.907 280.755 267.545" stroke="#5E5573" stroke-width="4.08393" stroke-linecap="round" stroke-linejoin="round"/>
<path d="M294.94 319.017C292.339 320.126 289.283 320.344 286.506 319.691C280.326 318.39 281.265 309.392 282.109 304.702C283.341 298.08 287.058 291.831 292.489 287.775C295.831 285.147 300.058 283.18 304.421 283.201C307.055 283.139 310.036 283.595 312.058 285.569C315.904 289.211 315.931 295.248 314.515 299.815C314.672 294.397 313.222 286.699 306.722 286.529C302.379 286.366 298.282 288.149 294.967 290.96C289.059 295.52 285.689 302.579 284.709 309.909C284.457 312.02 284.26 314.225 285.063 316.151C285.56 317.472 286.738 317.921 288.085 318.37C290.284 319.119 292.584 319.282 294.94 319.01V319.017Z" fill="#5E5573"/>
<path d="M162.647 282.567C162.498 284.46 161.939 287.863 159.639 291.225C158.768 292.498 157.256 294.629 154.405 296.126C150.518 298.168 146.829 297.644 145.726 297.474C145.399 297.419 142.132 296.882 139.43 294.989C139.43 294.989 139.049 294.724 136.898 293.165C137.402 294.315 138.259 295.963 139.716 297.63C141.07 299.175 144.61 302.633 149.851 303.28C157.944 304.273 163.573 297.746 163.988 297.242" stroke="#5E5573" stroke-width="2.72262" stroke-linecap="round" stroke-linejoin="round"/>
<path d="M119.412 257.744C119.412 257.744 131.936 261.31 120.413 268.818C120.413 268.818 116.288 262.59 119.412 257.744Z" fill="white" stroke="#5E5573" stroke-width="4.08393" stroke-linecap="round" stroke-linejoin="round"/>
<path d="M121.604 270.023C121.604 270.023 134.352 267.354 127.634 279.361C127.634 279.361 121.086 275.767 121.604 270.023Z" fill="white" stroke="#5E5573" stroke-width="4.08393" stroke-linecap="round" stroke-linejoin="round"/>
<path d="M136.925 285.133C136.925 285.133 138.94 272.269 127.294 279.579C127.294 279.579 131.215 285.936 136.925 285.133Z" fill="white" stroke="#5E5573" stroke-width="4.08393" stroke-linecap="round" stroke-linejoin="round"/>
<path d="M175.655 324.918C175.655 324.918 182.924 314.116 186.497 327.395C186.497 327.395 179.296 329.389 175.655 324.918Z" fill="white" stroke="#5E5573" stroke-width="4.08393" stroke-linecap="round" stroke-linejoin="round"/>
<path d="M187.668 326.184C187.668 326.184 191.909 313.864 198.776 325.789C198.776 325.789 192.337 329.573 187.668 326.184Z" fill="white" stroke="#5E5573" stroke-width="4.08393" stroke-linecap="round" stroke-linejoin="round"/>
<path d="M209.15 321.222C209.15 321.222 199.845 312.108 199.035 325.836C199.035 325.836 206.488 326.333 209.15 321.222Z" fill="white" stroke="#5E5573" stroke-width="4.08393" stroke-linecap="round" stroke-linejoin="round"/>
<path d="M288.453 293.839C285.621 291.164 285.574 287.141 287.343 285.276C289.304 283.214 293.987 283.275 296.641 286.828C295.273 287.658 293.701 288.741 292.081 290.15C290.611 291.429 289.413 292.702 288.453 293.839Z" fill="white" stroke="#5E5573" stroke-width="4.08393" stroke-linecap="round" stroke-linejoin="round"/>
<path d="M298.506 277.959C297.254 278.695 296.689 280.451 296.641 281.689C296.566 283.636 297.594 285.052 297.989 285.549C298.983 285.154 300.514 284.609 302.44 284.235C305.959 283.548 307.464 284.051 307.736 283.411C308.348 281.941 301.78 276.026 298.506 277.959Z" fill="white" stroke="#5E5573" stroke-width="4.08393" stroke-linecap="round" stroke-linejoin="round"/>
<path d="M323.173 177.556C311.67 185.091 313.433 172.192 313.433 172.192C319.123 171.28 323.173 177.556 323.173 177.556Z" fill="white" stroke="#5E5573" stroke-width="4.08393" stroke-linecap="round" stroke-linejoin="round"/>
<path d="M329.932 188.405C316.237 189.733 323.806 179.128 323.806 179.128C329.272 180.959 329.932 188.405 329.932 188.405Z" fill="white" stroke="#5E5573" stroke-width="4.08393" stroke-linecap="round" stroke-linejoin="round"/>
<path d="M330.266 188.181C318.892 195.913 331.484 199.235 331.484 199.235C334.513 194.327 330.266 188.181 330.266 188.181Z" fill="white" stroke="#5E5573" stroke-width="4.08393" stroke-linecap="round" stroke-linejoin="round"/>
<path d="M40.2041 286.025C47.7798 287.645 55.3623 289.259 62.938 290.879L59.3101 267.825C52.9392 273.896 46.575 279.961 40.2041 286.032V286.025Z" fill="#F2E4C5" stroke="#5E5073" stroke-width="2.72262" stroke-linecap="round" stroke-linejoin="round"/>
<path d="M14.0193 257.206C17.7084 252.755 20.9619 249.467 23.2421 247.289C26.5978 244.097 31.7912 239.557 31.7912 239.557C31.7912 239.557 42.4979 250.508 59.1535 267.559C52.769 273.651 46.3776 279.736 39.9931 285.828C31.3351 276.285 22.6704 266.742 14.0125 257.199H14.0193V257.206Z" fill="#F8EEB4" stroke="#5E5073" stroke-width="2.72262" stroke-linecap="round" stroke-linejoin="round"/>
<path d="M9.79919 252.768C11.9705 250.08 14.5161 247.207 17.477 244.287C21.0504 240.762 24.549 237.828 27.7617 235.405L31.655 239.638L13.8763 257.281L9.79919 252.768Z" fill="#CFC8C1" stroke="#5E5073" stroke-width="2.72262" stroke-miterlimit="10"/>
<path d="M9.80604 252.768C9.01648 252.149 5.87866 249.535 5.41581 245.234C4.86448 240.101 8.55363 236.521 9.96259 235.153C11.3443 233.805 14.945 230.307 20.0703 230.885C24.5014 231.389 27.1628 234.615 27.7685 235.398C26.2303 236.555 24.3108 238.073 22.1667 239.938C19.9955 241.83 17.4906 244.172 14.8429 246.99C13.3999 248.528 11.671 250.461 9.80604 252.768Z" fill="#EEC5D3" stroke="#5E5073" stroke-width="2.72262" stroke-miterlimit="10"/>
<path d="M19.3489 251.836C28.4561 261.352 37.5632 270.874 46.6704 280.389" stroke="#5E5073" stroke-width="2.72262" stroke-miterlimit="10"/>
<path d="M26.5433 244.716C35.6505 254.232 44.7577 263.754 53.8649 273.27" stroke="#5E5073" stroke-width="2.72262" stroke-miterlimit="10"/>
<path d="M54.3278 288.979L59.4531 284.405L61.4678 282.608L62.7747 290.769L54.3278 288.979Z" fill="#5E5073" stroke="#5E5073" stroke-width="2.72262" stroke-linecap="round" stroke-linejoin="round"/>
</g>
<defs>
<filter id="filter0_d_1262_5746" x="0" y="0" width="358" height="347.579" filterUnits="userSpaceOnUse" color-interpolation-filters="sRGB">
<feFlood flood-opacity="0" result="BackgroundImageFix"/>
<feColorMatrix in="SourceAlpha" type="matrix" values="0 0 0 0 0 0 0 0 0 0 0 0 0 0 0 0 0 0 127 0" result="hardAlpha"/>
<feOffset dy="4"/>
<feGaussianBlur stdDeviation="2"/>
<feComposite in2="hardAlpha" operator="out"/>
<feColorMatrix type="matrix" values="0 0 0 0 0 0 0 0 0 0 0 0 0 0 0 0 0 0 0.25 0"/>
<feBlend mode="normal" in2="BackgroundImageFix" result="effect1_dropShadow_1262_5746"/>
<feBlend mode="normal" in="SourceGraphic" in2="effect1_dropShadow_1262_5746" result="shape"/>
</filter>
<clipPath id="clip0_1262_5746">
<rect width="350" height="339.579" fill="white" transform="translate(4)"/>
</clipPath>
</defs>
</svg>
