<svg width="149" height="149" viewBox="0 0 149 149" fill="none" xmlns="http://www.w3.org/2000/svg">
<g clip-path="url(#clip0_1345_1319)">
<mask id="mask0_1345_1319" style="mask-type:luminance" maskUnits="userSpaceOnUse" x="14" y="15" width="109" height="115">
<path d="M23.3794 48.2691L79.3462 36.0195L76.0054 20.7559L20.0386 33.0054L23.3794 48.2691Z" fill="#555555" stroke="white" stroke-width="10.4167" stroke-linejoin="round"/>
<path d="M79.3452 36.0133C99.8959 50.503 111.71 58.9216 114.789 61.2691C119.406 64.7904 118.934 70.0122 109.745 72.0233C100.556 74.0345 92.3145 61.7496 85.3135 63.2819C85.2689 63.281 89.0298 80.4761 96.5961 114.867C96.8169 115.869 96.838 116.906 96.6583 117.916C96.4785 118.927 96.1013 119.892 95.5484 120.756C94.9955 121.621 94.2775 122.368 93.4357 122.956C92.5938 123.543 91.6445 123.958 90.642 124.178L90.6344 124.18C89.6307 124.4 88.5934 124.42 87.5819 124.239C86.5705 124.058 85.6045 123.68 84.7393 123.126C83.8741 122.571 83.1265 121.852 82.5393 121.009C81.9522 120.166 81.5369 119.215 81.3172 118.211L76.8572 97.8343C55.9043 99.2 44.5068 99.9174 42.6647 99.9864C39.9016 100.09 34.403 98.633 32.8061 91.337L23.3784 48.2629L79.3452 36.0133Z" stroke="white" stroke-width="10.4167" stroke-linejoin="round"/>
</mask>
<g mask="url(#mask0_1345_1319)">
<path d="M148.838 122.109L26.7285 148.836L0.00215895 26.7263L122.112 0L148.838 122.109Z" fill="#D9D9D9"/>
</g>
</g>
<defs>
<clipPath id="clip0_1345_1319">
<rect width="125" height="125" fill="white" transform="translate(148.836 122.109) rotate(167.654)"/>
</clipPath>
</defs>
</svg>
