<svg width="192" height="194" viewBox="0 0 192 194" fill="none" xmlns="http://www.w3.org/2000/svg">
<g clip-path="url(#clip0_2146_207)">
<path d="M82.1799 150.55C91.0594 151.948 98.6706 151.901 104.352 151.487C112.106 150.924 117.782 149.565 121.816 148.582C129.438 146.725 133.329 145.736 137.374 142.855C140.011 140.975 145.267 137.232 146.305 130.743C146.825 127.492 146.1 124.719 145.489 123.038C146.198 121.464 147.06 119.022 147.238 115.943C147.513 111.145 145.976 107.454 145.095 105.689C145.861 104.271 146.584 102.458 146.882 100.293C148.008 92.1366 142.156 85.8802 141.101 84.7877C144.896 83.0967 149.999 80.2353 154.824 75.3716C158.3 71.8697 160.556 69.528 161.012 65.8828C161.764 59.8636 157.229 53.1542 151.745 51.6931C147.588 50.5852 144.1 52.8202 138.097 56.3608C129.543 61.4086 120.609 65.7979 111.966 70.6926C92.8827 81.4969 86.767 83.2274 82.9437 80.5515C82.2385 80.0584 81.8253 79.5637 81.4473 79.1036C77.0265 73.7325 81.5548 67.1847 81.016 53.7917C80.7829 48.0007 79.7647 45.0018 78.0657 42.5557C76.3697 40.112 74.2666 38.6233 72.7808 37.7561C71.62 37.2947 68.6714 36.3142 65.4204 37.392C63.55 38.0113 61.9479 39.186 60.1625 41.3901C55.9025 46.6547 54.7792 52.6286 54.4711 54.2237C51.0358 72.0118 47.413 71.1064 45.7056 86.8295C45.2622 90.9239 44.8956 96.6306 45.2704 103.522C43.8733 104.863 41.5792 106.922 38.4696 109.065C33.0671 112.789 31.0674 112.728 29.7112 114.69C26.6465 119.124 31.4252 127.3 36.0233 135.156C36.0233 135.156 42.5571 146.328 58.9982 159.247C60.2501 160.229 62.6451 162.021 65.4166 161.621C67.2878 161.347 68.5324 160.193 69.1261 159.656C71.4571 157.56 75.298 154.645 82.1828 150.553L82.1799 150.55Z" fill="#F6D1BB" stroke="#9C7487" stroke-width="2.26584" stroke-miterlimit="10"/>
<path d="M128.722 134.184C132.467 133.175 135.22 131.675 136.943 130.567C139.483 128.937 143.433 126.405 145.629 121.455C146.915 118.56 147.13 115.901 147.135 114.273" stroke="#9C7487" stroke-width="2.26584" stroke-miterlimit="10"/>
<path d="M126.762 118.39C128.461 117.799 130.821 116.867 133.494 115.437C137.973 113.043 142.483 110.63 145.09 105.69C145.814 104.316 146.703 102.158 146.989 99.1683" stroke="#9C7487" stroke-width="2.26584" stroke-miterlimit="10"/>
<path d="M116.891 95.1212C129.864 90.7887 139.628 85.6218 146.215 81.6252C156.249 75.5367 160.438 71.2327 161.008 65.8888C161.282 63.329 160.659 61.1346 160.08 59.668" stroke="#9C7487" stroke-width="2.26584" stroke-miterlimit="10"/>
</g>
<defs>
<clipPath id="clip0_2146_207">
<rect width="127.744" height="145.316" fill="white" transform="translate(97.856 193.431) rotate(-139.999)"/>
</clipPath>
</defs>
</svg>
