<svg width="175" height="118" viewBox="0 0 175 118" fill="none" xmlns="http://www.w3.org/2000/svg">
<rect x="5.4082" width="169" height="117.599" fill="white"/>
<g filter="url(#filter0_d_3313_25045)">
<rect x="5.76939" y="56.4491" width="158.165" height="5.43057" rx="2.71528" fill="#F2F2F2" stroke="#A394C5" stroke-width="0.226274"/>
<rect x="5.65625" y="56.3691" width="158.392" height="5.65684" rx="2.82842" fill="#A394C5"/>
</g>
<g filter="url(#filter1_d_3313_25045)">
<rect x="173.908" y="49" width="20.3646" height="20.3646" rx="10.1823" transform="rotate(90 173.908 49)" fill="white" shape-rendering="crispEdges"/>
<rect x="173.365" y="49.5431" width="19.2785" height="19.2785" rx="9.63926" transform="rotate(90 173.365 49.5431)" stroke="#A394C5" stroke-width="1.08611" shape-rendering="crispEdges"/>
<path d="M159.571 56.6033C159.743 56.2867 160.131 56.1778 160.44 56.3607L164.658 58.8272C165.015 59.0357 165.423 58.6973 165.31 58.2971L165.004 57.2177C164.868 56.7396 165.129 56.2492 165.586 56.1194C166.044 55.9896 166.523 56.2699 166.659 56.7479L167.854 60.9576C168.296 62.5179 167.92 64.1864 166.866 65.3533C165.486 66.8783 163.263 67.2105 161.473 66.1631L158.078 64.1775C157.764 63.9939 157.649 63.5854 157.82 63.2672C157.97 62.9889 158.287 62.867 158.572 62.9643L158.692 63.0198L160.498 64.0765C160.713 64.2022 160.982 64.1257 161.099 63.9059C161.216 63.6864 161.136 63.4066 160.922 63.2811L157.752 61.4266C157.439 61.243 157.323 60.8354 157.494 60.5172C157.665 60.1992 158.055 60.0851 158.366 60.2689L158.366 60.2698L161.536 62.1243C161.75 62.2497 162.02 62.1733 162.137 61.9537C162.253 61.7344 162.174 61.4545 161.96 61.3289L157.972 58.995C157.658 58.8114 157.542 58.4038 157.714 58.0856C157.885 57.7676 158.275 57.6543 158.585 57.8382L162.573 60.1712C162.788 60.2968 163.058 60.2203 163.174 60.0005C163.291 59.7812 163.211 59.5013 162.997 59.3758L159.827 57.5213C159.514 57.3377 159.398 56.9292 159.569 56.611L159.574 56.6137L159.571 56.6033ZM168.954 55.1667C169.411 55.037 169.891 55.3172 170.027 55.7952L171.221 60.0049C171.662 61.5565 171.291 63.2146 170.25 64.3806L170.249 64.3759L170.232 64.3949C169.719 64.9607 169.092 65.3618 168.411 65.5908C169.353 64.1482 169.634 62.3194 169.143 60.5916L168.384 57.9141C168.599 57.8427 168.752 57.6103 168.677 57.3446L168.37 56.2652C168.235 55.7871 168.497 55.2965 168.954 55.1667ZM163.376 51.5351C163.717 51.4381 164.074 51.6461 164.176 52.0035L164.673 53.7574C164.775 54.1149 164.581 54.4801 164.239 54.5771C163.897 54.6741 163.54 54.4652 163.439 54.1078L162.941 52.3538C162.84 51.9964 163.034 51.6321 163.376 51.5351ZM160.032 53.0729C160.261 52.7939 160.665 52.769 160.94 53.0101L162.155 54.0864C162.429 54.3277 162.465 54.7502 162.236 55.0299C162.007 55.3088 161.603 55.3364 161.328 55.0927L160.113 54.0163C159.838 53.775 159.802 53.3525 160.032 53.0729ZM166.223 51.5106C166.33 51.1614 166.691 50.9719 167.029 51.0871C167.368 51.2052 167.559 51.5839 167.455 51.9327L166.987 53.4866C166.88 53.8357 166.52 54.0251 166.181 53.9101C165.885 53.8091 165.701 53.5049 165.729 53.1969L165.755 53.0648L166.223 51.5106Z" fill="#A394C5" stroke="#A394C5" stroke-width="0.0284884"/>
</g>
<defs>
<filter id="filter0_d_3313_25045" x="-0.000591755" y="51.4885" width="169.706" height="17.1965" filterUnits="userSpaceOnUse" color-interpolation-filters="sRGB">
<feFlood flood-opacity="0" result="BackgroundImageFix"/>
<feColorMatrix in="SourceAlpha" type="matrix" values="0 0 0 0 0 0 0 0 0 0 0 0 0 0 0 0 0 0 127 0" result="hardAlpha"/>
<feOffset dy="0.905095"/>
<feGaussianBlur stdDeviation="2.82842"/>
<feComposite in2="hardAlpha" operator="out"/>
<feColorMatrix type="matrix" values="0 0 0 0 0 0 0 0 0 0 0 0 0 0 0 0 0 0 0.25 0"/>
<feBlend mode="normal" in2="BackgroundImageFix" result="effect1_dropShadow_3313_25045"/>
<feBlend mode="normal" in="SourceGraphic" in2="effect1_dropShadow_3313_25045" result="shape"/>
</filter>
<filter id="filter1_d_3313_25045" x="153.271" y="49" width="20.9083" height="20.9083" filterUnits="userSpaceOnUse" color-interpolation-filters="sRGB">
<feFlood flood-opacity="0" result="BackgroundImageFix"/>
<feColorMatrix in="SourceAlpha" type="matrix" values="0 0 0 0 0 0 0 0 0 0 0 0 0 0 0 0 0 0 127 0" result="hardAlpha"/>
<feOffset dy="0.271528"/>
<feGaussianBlur stdDeviation="0.135764"/>
<feComposite in2="hardAlpha" operator="out"/>
<feColorMatrix type="matrix" values="0 0 0 0 0 0 0 0 0 0 0 0 0 0 0 0 0 0 0.25 0"/>
<feBlend mode="normal" in2="BackgroundImageFix" result="effect1_dropShadow_3313_25045"/>
<feBlend mode="normal" in="SourceGraphic" in2="effect1_dropShadow_3313_25045" result="shape"/>
</filter>
</defs>
</svg>
