<svg width="250" height="256" viewBox="0 0 250 256" fill="none" xmlns="http://www.w3.org/2000/svg">
<mask id="path-1-inside-1_2106_805" fill="white">
<path d="M125 0C194.036 0 250 55.9644 250 125C250 194.036 194.036 250 125 250C55.9644 250 0 194.036 0 125C0 55.9644 55.9644 0 125 0Z"/>
</mask>
<path d="M125 0C194.036 0 250 55.9644 250 125C250 194.036 194.036 250 125 250C55.9644 250 0 194.036 0 125C0 55.9644 55.9644 0 125 0Z" fill="url(#paint0_linear_2106_805)"/>
<path d="M250 0V250V0ZM0 250V0V250ZM0 0H250H0ZM250 131.482C250 200.518 194.036 256.482 125 256.482C55.9644 256.482 0 200.518 0 131.482V125C0 190.456 55.9644 243.518 125 243.518C194.036 243.518 250 190.456 250 125V131.482Z" fill="#776C91" mask="url(#path-1-inside-1_2106_805)"/>
<path d="M91.1024 189.085C89.8933 194.154 89.4825 198.708 89.4155 202.422C87.0644 203.279 85.1503 203.626 83.7926 203.783C83.7926 203.783 80.7598 204.133 78.2106 204.969C78.0562 205.018 77.8056 205.106 77.4997 205.251C77.2521 205.371 76.0779 206.143 75.4312 206.903C73.6977 208.943 73.2374 212.107 73.2374 212.107C72.5003 217.167 74.7552 224.739 80.212 227.556C80.9695 227.947 82.6156 228.797 84.7716 228.733C85.2756 228.719 85.8495 228.602 89.7069 227.341C91.3908 226.79 92.7164 226.295 94.2168 225.733C96.096 225.03 97.6459 224.416 98.7414 223.973C103.042 224.497 106.619 224.829 109.174 225.039C110.803 225.173 124.411 226.269 134.824 225.692C136.656 225.59 138.635 225.441 138.635 225.441C141.19 225.249 144.141 224.978 147.416 224.591C150.638 226.269 153.493 227.09 155.506 227.524C158.714 228.215 160.975 228.701 163.605 227.819C166.767 226.758 168.544 224.363 169.231 223.414C172.497 218.886 173.508 211.364 169.913 207.378C168.515 205.828 166.254 205.088 161.764 203.576C159.495 202.813 157.549 202.335 156.165 202.041C156.302 197.49 155.955 191.101 153.776 183.876C152.415 179.366 150.667 175.607 149.018 172.65C146.239 173.618 142.574 174.69 138.192 175.444C136.971 175.654 131.596 176.546 124.583 176.409C113.952 176.202 104.679 173.728 98.2665 171.494C95.8163 175.599 92.9058 181.525 91.1053 189.082L91.1024 189.085Z" fill="#C0B4DF"/>
<path d="M90.218 212.46C90.6929 213.162 91.1911 214.024 91.6281 215.05C92.5109 217.133 92.7614 219.038 92.8196 220.378C93.6704 220.026 94.6581 219.688 95.7797 219.42C97.9531 218.898 99.8847 218.828 101.368 218.895C108.937 220.18 115.466 220.658 120.544 220.812C128.424 221.051 132.363 221.171 135.387 220.431C138.817 219.592 142.015 218.211 146.642 218.805C149.069 219.117 151 219.857 152.268 220.445C152.227 219.484 152.277 218.249 152.594 216.859C153.18 214.301 154.389 212.468 155.205 211.437C155.324 211.784 155.627 212.506 156.358 213.06C156.667 213.296 156.973 213.439 157.221 213.529C156.964 214.106 156.644 214.901 156.344 215.871C156.058 216.792 155.743 217.829 155.612 219.242C155.577 219.606 155.499 220.605 155.612 221.896C155.676 222.63 155.717 223.073 155.883 223.685C156.341 225.36 157.241 226.403 157.515 226.703C157.722 226.93 157.905 227.102 158.028 227.21C156.999 226.96 156.137 226.741 155.49 226.569C154.211 226.234 153.791 226.103 153.494 226.004C152.743 225.756 152.559 225.652 151.507 225.244C149.675 224.533 148.734 224.174 147.478 223.944C146.712 223.804 146.03 223.749 145.876 223.735C145.611 223.714 145.045 223.676 144.323 223.688C143.178 223.708 142.339 223.842 141.06 224.043C139.405 224.303 138.578 224.431 137.963 224.521C137.573 224.576 135.851 224.821 133.765 224.984C132.095 225.115 130.694 225.156 129.197 225.174C127.055 225.2 124.914 225.174 120.366 225.019C112.439 224.751 109.866 224.521 108.575 224.375C105.95 224.084 105.117 223.971 105.117 223.971C103.722 223.784 103.32 223.7 102.492 223.644C101.901 223.603 100.596 223.545 99.2059 223.714C97.7929 223.886 96.4906 224.381 93.8831 225.378C92.2836 225.987 91.663 226.292 89.982 226.858C89.0759 227.164 88.3214 227.391 87.8086 227.537C88.8603 226.284 89.3789 225.118 89.6528 224.329C90.9755 220.515 89.612 216.704 88.9594 214.878C88.8079 214.455 88.671 214.114 88.5719 213.884C88.7701 213.791 88.9915 213.669 89.2216 213.503C89.7082 213.156 90.0286 212.763 90.2297 212.463H90.218V212.46Z" fill="#A394C5"/>
<path d="M90.2227 200.118C90.2227 200.118 110.657 203.439 116.971 185.359C116.971 185.359 123.642 189.461 129.81 187.552C130.83 189.682 132.7 192.773 136.024 195.375C144.31 201.86 154.507 199.733 156.168 199.36C156.121 197.764 156.013 196.083 155.83 194.332C155.751 193.595 155.664 192.872 155.568 192.167C155.168 189.499 154.522 186.416 153.461 183.074C152.144 178.92 150.53 175.433 149.012 172.65C146.393 173.603 142.734 174.742 138.268 175.532C125.813 177.731 115.531 175.721 109.186 174.419C104.562 173.469 100.813 172.341 98.2666 171.494C96.4195 174.8 94.3917 179.124 92.8214 184.388C91.0005 190.507 90.3829 195.949 90.2227 200.115V200.118Z" fill="#A394C5"/>
<path d="M167.12 205.258C162.187 206.222 159.236 210.872 157.913 215.382C157.06 218.444 156.719 222.735 158.152 225.625C158.662 226.645 159.446 227.539 160.439 228.271C160.474 228.297 160.48 228.343 160.454 228.381C160.434 228.408 160.401 228.419 160.369 228.41C159.157 228.064 158.024 227.277 157.237 226.205C154.831 222.951 155.437 218.569 156.742 215.006C157.581 212.623 158.837 210.385 160.544 208.515C162.744 206.108 165.555 204.963 167.091 205.109C167.143 205.115 168.043 205.202 168.04 205.243C168.04 205.275 167.525 205.269 167.117 205.258H167.12Z" fill="#5E5573"/>
<path d="M165.514 204.826C165.324 204.681 163.276 203.145 161.309 203.958C160.977 204.095 159.722 204.617 159.62 205.756C159.55 206.548 160.057 207.364 160.907 207.824C161.61 207.213 162.466 206.548 163.495 205.913C164.205 205.476 164.884 205.118 165.514 204.826Z" fill="white" stroke="#5E5573" stroke-width="1.74805" stroke-linecap="round" stroke-linejoin="round"/>
<path d="M160.419 208.32C159.111 207.347 157.387 207.495 156.446 208.445C155.478 209.421 155.717 210.854 155.732 210.939C156.011 212.474 157.483 212.97 157.582 212.999C157.958 212.142 158.447 211.184 159.085 210.179C159.531 209.479 159.982 208.862 160.419 208.317V208.32Z" fill="white" stroke="#5E5573" stroke-width="1.74805" stroke-linecap="round" stroke-linejoin="round"/>
<path d="M98.2624 171.497C95.5966 175.963 92.4238 182.545 90.7836 190.97C89.9795 195.107 89.6998 198.877 89.6823 202.117C88.2431 202.58 86.0755 203.239 83.3836 203.891C79.7127 204.783 78.5415 204.634 77.0323 205.829C75.0832 207.376 74.3636 209.634 74.1189 210.4C73.5916 212.055 73.612 213.401 73.6411 214.476C73.6586 215.169 73.778 218.12 75.4853 221.547C76.3185 223.219 77.2799 225.145 79.4038 226.692C80.0943 227.196 82.0521 228.559 84.7674 228.731C85.3414 228.766 86.5592 228.786 90.7341 227.344C95.0896 225.838 95.547 225.197 97.8428 224.684C100.544 224.081 102.632 224.358 104.651 224.594C104.651 224.594 113.316 225.596 122.822 225.832C127.528 225.949 131.667 226.054 137.203 225.349C142.232 224.705 144.486 223.901 148.233 224.865C150.707 225.503 151.584 226.333 155.403 227.318C158.92 228.224 160.676 228.679 162.389 228.373C167.91 227.397 172.312 219.97 171.998 213.468C171.928 212.04 171.788 209.127 169.749 206.84C167.575 204.398 164.12 203.655 160.676 202.915C160.676 202.915 160.56 202.889 156.158 202.044C156.23 199.309 156.117 196.241 155.674 192.919C154.52 184.267 151.586 177.388 149.011 172.651" stroke="#5E5573" stroke-width="1.74805" stroke-linecap="round" stroke-linejoin="round"/>
<path d="M170.782 219.127C172.987 212.961 171.867 206.922 168.279 205.638C164.692 204.355 159.996 208.314 157.79 214.48C155.585 220.646 156.705 226.685 160.293 227.968C163.88 229.251 168.577 225.293 170.782 219.127Z" fill="#DACFF3"/>
<path d="M77.6826 205.583C77.6826 205.543 78.5799 205.452 78.6324 205.449C80.1677 205.304 82.9792 206.446 85.1788 208.855C86.889 210.726 88.1447 212.963 88.9808 215.346C90.286 218.909 90.892 223.291 88.4855 226.545C87.696 227.617 86.5627 228.404 85.3536 228.751C85.3216 228.762 85.2895 228.751 85.2691 228.722C85.2429 228.687 85.2488 228.637 85.2837 228.611C86.2801 227.877 87.0638 226.985 87.5707 225.966C89.0041 223.075 88.6632 218.784 87.8096 215.722C86.4869 211.212 83.5356 206.562 78.6032 205.598C78.1953 205.607 77.6826 205.613 77.6797 205.583H77.6826Z" fill="#5E5573"/>
<path d="M82.23 206.254C83.2584 206.889 84.1178 207.55 84.8171 208.165C85.6678 207.705 86.1747 206.889 86.1048 206.097C86.0028 204.957 84.7472 204.436 84.415 204.299C82.4485 203.486 80.4003 205.022 80.2109 205.167C80.8402 205.459 81.522 205.817 82.23 206.254Z" fill="white" stroke="#5E5573" stroke-width="1.74805" stroke-linecap="round" stroke-linejoin="round"/>
<path d="M86.6391 210.522C87.2771 211.527 87.7666 212.486 88.1424 213.342C88.2386 213.313 89.7127 212.818 89.9924 211.283C90.0099 211.195 90.2459 209.765 89.2786 208.789C88.3376 207.839 86.6157 207.693 85.3047 208.663C85.7417 209.205 86.1933 209.826 86.6391 210.525V210.522Z" fill="white" stroke="#5E5573" stroke-width="1.74805" stroke-linecap="round" stroke-linejoin="round"/>
<path d="M85.42 228.32C89.0076 227.037 90.1281 220.998 87.9227 214.832C85.7173 208.665 81.0211 204.707 77.4335 205.99C73.8459 207.273 72.7253 213.312 74.9307 219.478C77.1361 225.645 81.8324 229.603 85.42 228.32Z" fill="#DACFF3"/>
<path d="M91.5489 168.228C89.9465 169.775 86.4708 173.562 85.2763 179.459C84.7227 182.192 83.8196 186.778 86.3542 190.498C89.3871 194.953 96.4812 196.625 103.686 194.216C105.003 193.773 106.853 193.007 108.817 191.655C111.124 190.067 114.635 187.646 115.453 183.448C116.211 179.567 114.256 176.287 113.501 175.159C111.415 172.473 109.58 171.762 108.237 171.645C106.509 171.497 103.704 172.17 103.704 172.17C103.704 172.17 99.5345 171.29 95.5548 169.871C94.5526 169.513 93.1687 168.983 91.546 168.228H91.5489Z" fill="#BBB3D3"/>
<path d="M91.1589 168.758C90.6053 169.312 89.9731 170.029 89.3642 170.926C88.7233 171.87 88.2746 172.764 87.957 173.51C88.3678 173.796 88.8252 174.075 89.3322 174.335C91.794 175.596 94.2121 175.765 95.8466 175.698C98.0899 174.748 100.336 173.796 102.579 172.846C99.701 172.047 96.6682 171.042 93.5333 169.766C92.7234 169.437 91.9338 169.099 91.1618 168.758H91.1589Z" fill="#A394C5"/>
<path d="M85.0146 187.262C85.874 188.22 87.3104 189.572 89.408 190.478C95.3863 193.057 101.644 189.826 104.584 188.308C110.128 185.447 113.397 181.211 115.087 178.536C115.372 179.748 115.652 181.706 115.087 183.923C114.029 188.078 110.731 190.315 108.421 191.882C103.663 195.111 98.731 195.784 95.8642 195.915C95.0047 195.906 90.9026 195.769 87.7852 192.509C85.9002 190.537 85.2535 188.343 85.0117 187.262H85.0146Z" fill="#A394C5"/>
<path d="M91.552 168.228C89.6 170.031 87.4295 172.642 86.0049 176.196C85.2182 178.163 82.5117 184.928 85.8329 190.303C86.0864 190.711 87.1964 192.444 89.329 193.828C92.155 195.661 94.984 195.728 97.0146 195.739C98.8734 195.748 104.429 195.693 109.467 191.655C111.36 190.137 115.78 186.594 115.672 181.257C115.614 178.448 114.326 176.292 113.507 175.159" stroke="#5E5573" stroke-width="1.74805" stroke-linecap="round" stroke-linejoin="round"/>
<path d="M101.83 175.151C101.83 175.151 101.661 178.204 103.356 179.436C103.356 179.436 103.473 180.465 102.322 179.436C102.322 179.436 100.387 177.764 101.39 175.151C101.39 175.151 101.827 174.577 101.83 175.151Z" fill="#A394C5"/>
<path d="M101.105 179.893C101.105 179.893 100.053 178.841 99.8983 176.1C99.8983 176.1 99.6099 175.083 99.2195 176.1C99.2195 176.1 98.8554 178.594 100.446 179.893C100.446 179.893 101.973 181.102 101.105 179.893Z" fill="#A394C5"/>
<path d="M90.0625 178.116C92.7749 176.79 95.767 175.337 98.5289 174.084C101.096 173.012 103.654 171.634 106.497 171.392C108.624 171.357 110.73 171.864 112.604 173.026C117.079 175.774 117.749 182.617 114.483 186.515L114.305 186.416C114.789 184.925 115.048 183.424 114.987 181.97C114.888 179.185 113.725 176.377 111.456 174.69C110.118 173.65 108.295 173.012 106.538 172.956C103.927 173.061 101.393 174.206 98.9135 175.031C97.818 175.415 95.6126 176.234 94.5288 176.656C93.0721 177.213 91.6124 177.764 90.147 178.305L90.0625 178.119V178.116Z" fill="#5E5573"/>
<path d="M114.82 184.986C114.82 184.986 109.256 182.923 114.756 179.919C114.756 179.919 116.411 182.894 114.82 184.986Z" fill="white" stroke="#5E5573" stroke-width="1.74805" stroke-linecap="round" stroke-linejoin="round"/>
<path d="M114.406 179.654C114.406 179.654 108.497 180.202 112.156 175.115C112.156 175.115 114.936 177.082 114.406 179.654Z" fill="white" stroke="#5E5573" stroke-width="1.74805" stroke-linecap="round" stroke-linejoin="round"/>
<path d="M107.742 172.752C107.742 172.752 107.833 178.684 112.497 174.5C112.497 174.5 110.242 171.948 107.742 172.752Z" fill="white" stroke="#5E5573" stroke-width="1.74805" stroke-linecap="round" stroke-linejoin="round"/>
<path d="M154.377 168.558C155.979 170.105 159.455 173.892 160.649 179.789C161.203 182.522 162.106 187.107 159.571 190.828C156.538 195.282 149.444 196.955 142.239 194.545C140.923 194.102 139.073 193.336 137.109 191.984C134.801 190.397 131.291 187.975 130.472 183.777C129.715 179.897 131.67 176.616 132.424 175.489C134.51 172.802 136.346 172.092 137.689 171.975C139.416 171.826 142.222 172.499 142.222 172.499C142.222 172.499 146.391 171.62 150.371 170.201C151.373 169.842 152.757 169.312 154.38 168.558H154.377Z" fill="#BBB3D3"/>
<path d="M154.776 169.085C155.33 169.639 155.962 170.355 156.571 171.253C157.212 172.196 157.66 173.091 157.978 173.837C157.567 174.122 157.11 174.402 156.603 174.661C154.141 175.923 151.723 176.092 150.088 176.025C147.845 175.075 145.599 174.122 143.355 173.172C146.234 172.374 149.267 171.369 152.402 170.093C153.212 169.764 154.001 169.426 154.773 169.085H154.776Z" fill="#A394C5"/>
<path d="M160.915 187.591C160.056 188.55 158.619 189.902 156.522 190.808C150.543 193.386 144.285 190.155 141.346 188.637C135.801 185.776 132.533 181.54 130.843 178.866C130.557 180.078 130.278 182.036 130.843 184.253C131.9 188.407 135.198 190.645 137.509 192.212C142.266 195.44 147.199 196.113 150.066 196.244C150.925 196.235 155.027 196.099 158.144 192.838C160.029 190.866 160.676 188.672 160.918 187.591H160.915Z" fill="#A394C5"/>
<path d="M154.376 168.558C156.328 170.361 158.498 172.971 159.923 176.526C160.71 178.492 163.416 185.257 160.095 190.633C159.842 191.04 158.732 192.774 156.599 194.158C153.773 195.99 150.944 196.057 148.913 196.069C147.055 196.078 141.499 196.022 136.461 191.984C134.568 190.466 130.148 186.924 130.256 181.586C130.314 178.778 131.602 176.622 132.421 175.489" stroke="#5E5573" stroke-width="1.74805" stroke-linecap="round" stroke-linejoin="round"/>
<path d="M144.1 175.48C144.1 175.48 144.269 178.533 142.574 179.766C142.574 179.766 142.457 180.794 143.608 179.766C143.608 179.766 145.542 178.094 144.54 175.48C144.54 175.48 144.103 174.906 144.1 175.48Z" fill="#A394C5"/>
<path d="M144.826 180.223C144.826 180.223 145.877 179.171 146.032 176.43C146.032 176.43 146.32 175.413 146.711 176.43C146.711 176.43 147.075 178.924 145.484 180.223C145.484 180.223 143.957 181.432 144.826 180.223Z" fill="#A394C5"/>
<path d="M155.788 178.632C152.953 177.592 149.879 176.368 147.024 175.357C144.542 174.533 142.007 173.388 139.4 173.283C137.643 173.335 135.819 173.976 134.482 175.016C132.212 176.703 131.05 179.512 130.951 182.297C130.89 183.754 131.149 185.251 131.632 186.743L131.455 186.842C128.192 182.944 128.859 176.103 133.334 173.353C135.207 172.19 137.311 171.684 139.44 171.718C142.284 171.96 144.842 173.338 147.409 174.41C148.472 174.888 150.607 175.891 151.656 176.403C153.066 177.076 154.474 177.758 155.875 178.446L155.79 178.632H155.788Z" fill="#5E5573"/>
<path d="M131.005 180.313C136.776 182.754 131.445 185.359 131.445 185.359C129.653 183.436 131.005 180.313 131.005 180.313Z" fill="white" stroke="#5E5573" stroke-width="1.74805" stroke-linecap="round" stroke-linejoin="round"/>
<path d="M133.773 175.445C137.436 180.532 131.524 179.984 131.524 179.984C130.994 177.411 133.773 175.445 133.773 175.445Z" fill="white" stroke="#5E5573" stroke-width="1.74805" stroke-linecap="round" stroke-linejoin="round"/>
<path d="M133.434 174.83C138.098 179.014 138.188 173.082 138.188 173.082C135.686 172.278 133.434 174.83 133.434 174.83Z" fill="white" stroke="#5E5573" stroke-width="1.74805" stroke-linecap="round" stroke-linejoin="round"/>
<path d="M147.367 202.525C148.436 202.018 149.392 201.129 150.552 200.707C151.734 200.319 152.97 199.815 154.231 199.897C155.094 199.984 155.898 200.197 156.658 200.675V200.85C155.854 201.325 155.062 201.502 154.295 201.645C153.156 201.811 152.005 201.552 150.878 201.826C149.683 201.966 148.655 202.566 147.414 202.694L147.37 202.525H147.367Z" fill="#5E5573"/>
<path d="M151.62 207.719C152.246 206.827 152.986 205.883 153.662 205.027C154.458 204.162 155.122 203.025 156.29 202.594C157.106 202.306 158.114 202.277 158.837 202.83L158.822 203.005C158.073 203.433 157.587 203.789 157.065 204.162C156.541 204.564 155.891 204.782 155.343 205.19C155.055 205.4 154.767 205.627 154.472 205.857C153.601 206.516 152.643 207.235 151.74 207.844L151.617 207.719H151.62Z" fill="#5E5573"/>
<path d="M98.4864 202.513C97.6532 202.446 96.8695 202.09 96.1354 201.886C95.4012 201.683 94.6553 201.56 93.8978 201.508C93.1345 201.449 92.3683 201.616 91.605 201.464C90.8388 201.321 90.0463 201.141 89.2422 200.669V200.494C90.0026 200.016 90.8067 199.803 91.6691 199.716C92.5111 199.62 93.3355 199.914 94.1396 200.13C94.9583 200.342 95.7566 200.66 96.4879 201.085C97.2133 201.522 97.8076 202.015 98.5302 202.344L98.4864 202.513Z" fill="#5E5573"/>
<path d="M94.1528 207.664C93.2496 207.055 92.2882 206.338 91.42 205.677C90.8577 205.231 90.2896 204.774 89.6516 204.477C88.6698 203.964 88.1686 203.425 87.0732 202.822L87.0586 202.647C87.7811 202.093 88.7892 202.123 89.6049 202.411C90.7761 202.842 91.4375 203.978 92.2328 204.844C92.9087 205.7 93.6487 206.644 94.2751 207.536L94.1528 207.661V207.664Z" fill="#5E5573"/>
<path d="M64.1081 99.2183C62.5465 105.54 62.0979 108.701 61.9115 112.41C61.6492 117.617 62.2902 119.155 61.556 123.84C60.7752 128.827 59.7759 128.836 58.7155 134.307C57.9551 138.255 57.1597 142.357 58.2755 147.307C59.3622 152.132 61.725 155.38 63.1933 157.355C67.0682 162.576 71.5519 165.245 74.2497 166.815C78.2993 169.172 83.1356 170.667 92.7994 173.65C94.2328 174.093 95.9197 174.588 97.9503 175.118C98.7224 175.317 101.49 176.027 105.269 176.767C106.256 176.96 108.474 177.382 111.425 177.822C115.897 178.489 121.307 179.296 128.037 179.509C132.308 179.646 137.43 179.78 144.131 178.792C151.219 177.746 156.396 175.987 158.197 175.346C160.86 174.396 162.948 173.42 167.129 171.459C176.994 166.839 180.554 164.094 183.383 161.178C183.561 160.994 183.8 160.747 184.114 160.4C191.139 152.717 192.115 143.458 192.24 142.127C193 134.051 190.358 127.843 189.038 125.2C189.058 123.595 189.067 121.261 188.991 118.45C188.837 112.748 188.438 107.781 188.152 105.602C187.404 99.8564 184.921 87.2297 175.727 75.2235C170.485 68.3799 165.104 64.4089 163.38 63.1824C152.635 55.5463 141.579 53.4953 139.874 53.4225C138.747 53.37 138.225 53.2418 137.174 52.9854C136.075 52.7174 135.519 52.5747 135.152 52.1784C134.205 51.1587 134.758 49.2417 134.942 48.6066C135.728 45.8767 137.622 44.9183 137.299 44.356C136.926 43.7034 133.911 44.1782 131.472 45.8563C131.472 45.8563 130.479 46.541 127.102 50.4595C127.737 40.385 126.714 40.0324 126.714 40.0324C126.213 39.8606 125.599 40.3908 124.695 41.1716C123.416 42.2699 122.778 43.5373 122.435 44.3414C121.004 47.7005 121.587 50.5091 121.071 50.5848C120.515 50.6693 120.322 47.3247 117.744 45.2649C116.646 44.3851 114.822 43.5023 114.085 44.0996C112.905 45.061 116.057 48.6153 114.903 51.3889C113.785 54.0867 109.557 53.7313 103.276 55.3366C95.6837 57.2769 90.4308 60.738 87.4854 62.655C81.51 66.5444 77.7079 70.7922 76.2774 72.482C68.4345 81.7379 65.9931 91.6114 64.1139 99.2125H64.1081V99.2183Z" fill="#C0B4DF"/>
<path d="M155.199 105.334C150.922 106.106 147.379 102.645 146.566 100.719C146.319 100.13 145.931 99.2127 146.22 98.2863C146.22 98.2863 146.252 98.1814 146.744 97.0015C146.744 97.0015 148.3 99.0845 149.981 100.419C152.122 102.12 154.435 102.581 155.376 102.755C157.098 103.079 158.555 102.997 159.519 102.875C158.829 103.618 157.372 104.94 155.199 105.334Z" fill="#5E5573"/>
<path d="M87.3899 144.948C88.1298 142.546 84.6407 139.34 79.597 137.786C74.5532 136.233 69.8646 136.92 69.1248 139.322C68.3849 141.724 71.874 144.931 76.9177 146.484C81.9615 148.038 86.6501 147.35 87.3899 144.948Z" fill="#FAC0D8"/>
<path d="M173.12 146.457C178.164 144.904 181.653 141.697 180.913 139.295C180.173 136.893 175.485 136.206 170.441 137.759C165.397 139.313 161.908 142.519 162.648 144.921C163.388 147.323 168.077 148.011 173.12 146.457Z" fill="#FAC0D8"/>
<path d="M76.2822 72.4877C74.9741 71.9808 73.0046 71.2029 70.6244 70.2066C61.3976 66.3375 59.9555 65.0527 55.4222 63.7446C52.2 62.8152 48.2639 61.679 43.5063 62.553C37.2687 63.698 33.1638 67.6398 31.3487 69.65C27.4651 73.9531 24.8023 77.4959 22.2472 81.9243C20.4846 84.9746 18.687 88.0949 17.1604 92.5611C15.0977 98.6035 12.2134 107.049 15.893 113.951C17.3323 116.652 19.7329 119.032 22.0141 121.296C24.5313 123.793 26.0609 124.772 28.3275 127.42C30.3145 129.739 31.6313 131.895 32.4325 133.355C33.1871 135.467 33.93 137.707 34.6292 140.079C35.2672 142.235 35.8208 144.321 36.3044 146.322C36.5637 147.33 36.9978 148.769 37.7291 150.413C38.9644 153.183 41.0621 157.891 45.8167 160.362C49.8897 162.474 54.0325 161.97 56.0108 161.568C56.0108 161.568 60.2264 160.205 63.201 157.352C62.4057 156.426 61.2869 154.961 60.2847 152.985C56.2933 145.116 58.0938 136.752 58.7231 134.304C59.5971 130.913 60.3663 130.561 61.1354 126.636C61.89 122.773 61.7589 119.973 61.7385 117.882C61.6336 107.041 64.3518 97.8664 65.4618 94.1256C66.9914 88.9689 68.6287 85.3883 69.0249 84.5347C71.4372 79.3313 74.1409 75.305 76.2822 72.4848V72.4877Z" fill="#C0B4DF"/>
<path d="M22.0119 121.29C23.4773 123.248 25.3507 123.941 28.3253 127.414C30.3122 129.733 31.629 131.889 32.4302 133.349C33.1848 135.461 33.9277 137.701 34.627 140.073C35.265 142.229 35.8185 144.315 36.3022 146.316C36.5615 147.324 36.9956 148.764 37.7269 150.407C38.9621 153.177 41.0598 157.886 45.8145 160.356C49.8874 162.468 54.0303 161.964 56.0085 161.562C56.0085 161.562 60.2242 160.199 63.1988 157.347C62.4034 156.42 61.2847 154.955 60.2825 152.979C56.2911 145.11 58.0915 136.746 58.7208 134.299C59.5949 130.907 60.364 130.555 61.1331 126.63C61.3283 125.625 61.4653 124.699 61.5585 123.831C61.879 120.879 61.7479 118.147 61.7362 117.876C61.5585 113.733 62.2344 109.363 62.8084 105.625C63.257 102.708 64.0349 98.7578 65.4596 94.1226C65.4596 94.1226 57.608 83.5353 46.1757 81.0968C44.6083 80.7617 43.711 80.5724 42.3912 80.6161C31.3348 80.9773 23.5618 96.8 21.2457 107.393C20.2755 111.83 19.0664 117.36 22.0148 121.29H22.0177H22.0119Z" fill="#ACECC7"/>
<path d="M22.5393 105.086C23.1744 105.485 25.4556 100.698 31.0727 97.6682C35.3001 95.3841 39.3118 95.2297 40.9695 95.1656C52.8242 94.7111 61.4595 104.116 62.8114 105.631C63.1552 103.594 63.5834 101.456 64.1107 99.221C64.5332 97.438 64.9877 95.7395 65.4597 94.1284C62.2433 91.6695 59.4784 89.6418 57.3487 88.1122C53.6079 85.4261 52.1979 84.5171 50.1818 83.678C47.9268 82.737 45.8087 81.8513 43.0352 82.0319C40.0169 82.23 37.8989 83.579 36.0576 84.7822C34.7902 85.6096 31.7545 87.7684 27.8854 93.6185C24.4622 98.7957 21.8401 104.652 22.5393 105.094V105.089V105.086Z" fill="#8EC2A7"/>
<path d="M61.5189 156.688C58.6259 158.663 55.4474 160.892 51.7736 160.706C49.0204 160.566 46.5178 159.08 44.4959 157.297C40.2744 153.577 37.6261 148.936 36.248 143.496C34.8729 138.057 34.3747 132.376 30.7533 127.947C29.25 126.112 27.2398 124.789 25.4859 123.21C22.8405 120.83 20.4195 118.155 18.3539 115.254C12.5096 107.041 17.5964 95.7251 21.4071 87.652C25.4422 79.107 30.4911 68.8984 39.9044 65.3032C45.1281 63.3076 51.2725 63.6514 56.4496 65.6238C62.8329 68.0564 68.986 71.1038 75.3634 73.5802C76.9891 74.2124 77.6942 71.5933 76.083 70.9669C69.8833 68.5575 63.8846 65.6879 57.7169 63.226C52.834 61.274 47.3714 60.7962 42.2147 61.8217C31.0854 64.0418 24.5303 74.9059 19.9941 84.3453C17.9809 88.5348 16.0406 92.7767 14.6946 97.2313C13.0952 102.522 11.9822 108.777 14.4179 113.992C15.5949 116.512 17.5643 118.785 19.3794 120.859C21.5382 123.327 23.9359 125.491 26.4764 127.548C31.3039 131.455 32.0323 137.282 33.3463 142.983C34.8554 149.518 37.8766 155.328 43.0974 159.651C45.5797 161.705 48.5018 163.258 51.7765 163.412C55.9485 163.608 59.5873 161.283 62.8911 159.025C64.3216 158.046 62.9698 155.698 61.5248 156.685H61.5189V156.688Z" fill="#5E5573"/>
<path d="M23.1848 121.241C20.9531 111.732 23.4266 103.029 28.4086 94.8688C30.6169 91.2562 33.204 87.594 36.7642 85.2021C41.1809 82.2334 46.0114 82.5626 50.6757 84.8496C55.3401 87.1366 59.7597 91.0405 63.5646 94.8396C64.7999 96.0749 66.717 94.1579 65.4788 92.9256C58.6002 86.0558 47.9896 76.7765 37.5683 81.6274C33.2011 83.6609 29.941 87.5853 27.3305 91.5155C24.4608 95.836 21.9816 100.48 20.6589 105.52C19.2488 110.887 19.3099 116.58 20.5714 121.966C20.9677 123.665 23.581 122.945 23.1848 121.247V121.241Z" fill="#5E5573"/>
<path d="M75.7108 73.6182C75.8011 73.2598 73.5432 72.6043 67.6785 70.2269C61.4409 67.6981 60.2027 66.9027 55.8588 65.4926C51.6082 64.1146 49.7406 63.8845 48.1674 63.8437C44.7412 63.7534 42.1716 64.5341 41.6531 64.6973C36.9188 66.1889 34.0112 69.2538 31.0162 72.4091C28.6855 74.8651 27.1588 77.021 26.4946 77.9941C18.7653 89.2923 16.2568 102.851 16.2539 102.86C16.2539 102.86 18.2438 95.6552 20.7755 90.0935C24.9941 80.826 30.9638 75.5556 32.4758 74.2708C36.1059 71.1855 39.0776 69.7666 40.7208 69.0849C42.5329 68.3303 45.0443 67.3107 48.4326 67.2233C49.056 67.2087 50.9905 67.1883 54.81 68.173C60.4591 69.6268 61.3739 70.9902 66.251 72.412C70.927 73.7725 75.5884 74.1193 75.7137 73.6182V73.6123L75.7079 73.6182H75.7108Z" fill="#DACFF3"/>
<path d="M173.201 71.6811C174.509 71.1741 176.479 70.3963 178.859 69.3999C188.086 65.5309 189.528 64.246 194.061 62.9379C197.283 62.0085 201.219 60.8724 205.977 61.7464C212.215 62.8913 216.32 66.8332 218.135 68.8434C222.018 73.1465 224.681 76.6893 227.236 81.1176C228.999 84.168 230.796 87.2882 232.323 91.7545C234.386 97.7969 237.27 106.243 233.59 113.145C232.151 115.845 229.75 118.226 227.469 120.489C224.952 122.986 223.422 123.965 221.156 126.613C219.169 128.932 217.852 131.088 217.051 132.548C216.296 134.66 215.553 136.901 214.854 139.272C214.216 141.428 213.663 143.514 213.179 145.516C212.92 146.524 212.486 147.963 211.754 149.606C210.519 152.377 208.421 157.085 203.667 159.555C199.594 161.668 195.451 161.164 193.473 160.761C193.473 160.761 189.257 159.398 186.282 156.546C187.078 155.619 188.196 154.154 189.199 152.179C193.19 144.309 191.39 135.945 190.76 133.498C189.886 130.107 189.117 129.754 188.348 125.83C187.593 121.967 187.724 119.167 187.745 117.075C187.85 106.234 185.132 97.0598 184.022 93.319C182.492 88.1622 180.855 84.5817 180.458 83.728C178.046 78.5247 175.343 74.4983 173.201 71.6781V71.6811Z" fill="#C0B4DF"/>
<path d="M227.471 120.486C226.006 122.444 224.132 123.138 221.158 126.61C219.171 128.93 217.854 131.085 217.053 132.545C216.298 134.657 215.555 136.898 214.856 139.269C214.218 141.425 213.664 143.511 213.181 145.513C212.922 146.521 212.487 147.96 211.756 149.603C210.521 152.374 208.423 157.082 203.669 159.552C199.596 161.665 195.453 161.161 193.475 160.758C193.475 160.758 189.259 159.395 186.284 156.543C187.08 155.616 188.198 154.151 189.201 152.176C193.192 144.306 191.391 135.942 190.762 133.495C189.888 130.104 189.119 129.751 188.35 125.827C188.155 124.822 188.018 123.895 187.925 123.027C187.604 120.076 187.735 117.343 187.747 117.072C187.925 112.929 187.249 108.559 186.675 104.821C186.226 101.905 185.448 97.9541 184.023 93.3189C184.023 93.3189 191.875 82.7316 203.307 80.2931C204.875 79.958 205.772 79.7687 207.092 79.8124C218.148 80.1736 225.921 95.9963 228.237 106.589C229.208 111.027 230.417 116.556 227.468 120.486H227.465H227.471Z" fill="#ACECC7"/>
<path d="M226.94 104.279C226.305 104.678 224.024 99.8915 218.407 96.8616C214.179 94.5775 210.167 94.423 208.51 94.3589C196.655 93.9044 188.02 103.309 186.668 104.824C186.324 102.787 185.896 100.649 185.368 98.4144C184.946 96.6314 184.492 94.9329 184.02 93.3217C187.236 90.8628 190.001 88.8351 192.13 87.3056C195.871 84.6194 197.281 83.7104 199.297 82.8714C201.552 81.9304 203.67 81.0446 206.444 81.2253C209.462 81.4234 211.58 82.7723 213.422 83.9756C214.689 84.803 217.725 86.9618 221.594 92.8119C225.017 97.989 227.639 103.845 226.94 104.288V104.282V104.279Z" fill="#8EC2A7"/>
<path d="M186.598 158.221C189.686 160.33 192.99 162.454 196.847 162.611C199.775 162.728 202.627 161.606 204.984 159.931C209.535 156.697 213.028 151.971 214.869 146.719C216.807 141.192 216.76 134.68 220.151 129.733C221.742 127.411 224.213 125.882 226.261 124.003C228.944 121.544 231.362 118.776 233.471 115.81C239.829 106.878 234.8 94.8046 230.654 85.9711C226.371 76.8521 221.107 66.5212 211.344 62.3026C205.727 59.8728 198.851 59.8961 193.109 61.9064C190.164 62.9348 187.343 64.3361 184.485 65.586C180.823 67.1884 177.126 68.7062 173.403 70.1542C171.795 70.7777 172.494 73.3998 174.122 72.7676C180.042 70.466 185.805 67.841 191.652 65.3704C196.209 63.4446 201.165 62.6784 206.077 63.5349C216.553 65.3587 222.631 75.579 226.893 84.3658C228.763 88.2203 230.567 92.1126 231.881 96.1943C233.439 101.033 234.928 107.12 232.656 111.976C231.557 114.319 229.701 116.425 228.006 118.342C225.952 120.664 223.691 122.744 221.276 124.676C216.836 128.236 215.289 133.244 214.144 138.613C213.451 141.844 212.783 145.134 211.385 148.149C210.103 150.917 208.259 153.283 206.109 155.424C204.133 157.39 201.779 159.147 198.997 159.727C194.86 160.586 191.201 158.095 187.955 155.875C186.513 154.888 185.155 157.236 186.589 158.215H186.592L186.598 158.221Z" fill="#5E5573"/>
<path d="M228.912 121.156C230.062 116.25 230.223 111.096 229.171 106.158C228.096 101.112 225.786 96.4943 223.076 92.1446C220.6 88.1707 217.625 84.2551 213.605 81.7379C208.748 78.7021 203.376 79.0168 198.28 81.3067C192.864 83.7423 188.17 87.9551 184.004 92.1126C182.769 93.3478 184.686 95.262 185.918 94.0267C191.926 88.028 202.027 78.6264 211.233 83.4976C215.114 85.5515 217.954 89.1671 220.285 92.7972C222.843 96.7828 225.066 100.975 226.252 105.587C227.499 110.432 227.435 115.571 226.298 120.431C225.902 122.126 228.512 122.852 228.912 121.15V121.156Z" fill="#5E5573"/>
<path d="M173.768 72.814C173.677 72.4556 175.935 71.8001 181.8 69.4227C188.037 66.8939 189.276 66.0985 193.619 64.6884C197.87 63.3104 199.738 63.0803 201.311 63.0395C204.737 62.9492 207.307 63.7299 207.825 63.8931C212.56 65.3847 215.467 68.4496 218.462 71.6049C220.793 74.0609 222.319 76.2168 222.984 77.1899C230.713 88.4881 233.222 102.047 233.224 102.056C233.224 102.056 231.235 94.851 228.703 89.2893C224.484 80.0218 218.515 74.7514 217.003 73.4666C213.372 70.3813 210.401 68.9624 208.758 68.2807C206.945 67.5261 204.434 66.5065 201.046 66.4191C200.422 66.4045 198.488 66.3841 194.668 67.3688C189.019 68.8226 188.104 70.186 183.227 71.6078C178.551 72.9683 173.89 73.3151 173.765 72.814V72.8081H173.762L173.768 72.814Z" fill="#DACFF3"/>
<path d="M82.8692 68.6832C88.8155 64.7472 91.7872 62.7777 94.8317 61.2948C106.101 55.7972 116.295 56.9975 117.341 52.4176C117.536 51.5669 117.588 49.7548 117.848 49.7519C118.151 49.7461 118.037 52.2341 119.479 53.0411C120.027 53.347 120.595 53.3004 120.72 53.2858C121.685 53.181 122.267 52.4147 122.413 52.2108C123.106 51.2319 122.596 50.5064 122.955 49.0264C123.342 47.4211 124.461 46.1218 124.796 46.2471C125.408 46.4743 123.246 51.2785 125.047 52.8226C125.65 53.3383 126.559 53.3762 127.156 53.2305C128.246 52.9625 128.476 52.0447 130.037 50.4103C130.815 49.5974 132.135 48.2165 132.648 48.4875C133.344 48.8575 131.532 51.7446 132.557 53.8598C133.423 55.6369 135.975 56.1992 138.116 56.3857C140.502 56.7061 144.156 57.3617 148.412 58.8505C149.732 59.3108 153.508 60.6918 162.997 66.3554C165.875 68.0714 169.823 70.507 174.446 73.6244C172.789 71.5384 170.458 68.925 167.352 66.2651C165.22 64.4413 161.319 61.3881 155.795 58.7019C155.795 58.7019 149.994 55.8846 143.305 54.4134C141.268 53.9647 140.252 53.7432 139.471 53.7199C138.649 53.6995 137.985 53.7666 137.085 53.449C136.359 53.1926 135.541 52.709 135.142 52.1846C134.151 50.8677 134.862 48.0126 137.225 45.4895C137.225 45.4895 131.229 44.8719 127.048 51.4009C127.471 43.59 126.617 41.6904 125.731 41.4515C124.511 41.1252 122.203 43.6891 121.39 46.1567C120.968 47.4357 120.572 49.8392 120.572 49.8392C120.572 49.8392 120.003 48.3155 119.179 47.1414C118.966 46.8384 118.433 46.0752 117.635 45.507C116.033 44.3621 114.116 44.5136 113.306 44.6272C113.757 44.9914 114.931 46.0372 115.339 47.7999C115.459 48.3155 115.861 50.052 114.896 51.395C114.319 52.205 113.512 52.4701 111.925 52.9682C109.949 53.5917 109.017 53.5102 106.002 54.0987C106.002 54.0987 105.128 54.2677 103.662 54.6085C99.059 55.6748 94.7471 57.921 92.6757 59.0165C88.5299 61.2045 85.7243 63.2788 84.9727 63.844C83.3994 65.024 81.6659 66.335 79.7023 68.4326C77.8756 70.3846 76.5762 72.2318 75.7109 73.6273C77.4357 72.3862 79.883 70.6644 82.8692 68.6891V68.6832Z" fill="#DACFF3"/>
<path d="M76.2773 72.4875C77.9147 70.2733 80.1143 67.7648 83.019 65.3613C85.6003 63.2228 87.7941 61.9526 90.2151 60.5512C93.9326 58.3953 96.8781 57.1571 99.1273 56.2219C101.091 55.4033 102.349 54.9692 103.675 54.6108C104.995 54.2525 105.391 54.235 107.876 53.7455C113.846 52.5714 114.565 52.0761 115.011 51.3857C115.879 50.0426 115.474 48.3207 115.352 47.7992C114.921 45.9696 113.706 44.9296 113.318 44.6266C113.869 44.5421 115.786 44.3236 117.648 45.5064C120.372 47.237 120.547 50.4476 120.555 50.7505C120.552 49.6056 120.698 47.1583 122.161 44.5537C123.46 42.2405 125.182 40.9032 126.12 40.2769C126.542 41.4655 126.971 43.0504 127.148 44.9499C127.364 47.2806 127.125 49.2501 126.842 50.6456C127.451 49.6463 128.92 47.537 131.667 46.0599C133.989 44.8101 136.142 44.5916 137.287 44.5537C134.315 49.1161 134.417 51.1992 135.111 52.2568C136.034 53.6668 138.106 53.393 142.278 54.1359C145.587 54.7273 147.825 55.5285 151.277 56.7696C152.376 57.1629 157.841 59.1761 164.032 63.555C166.646 65.4079 169.906 68.0474 173.218 71.6775" stroke="#5E5573" stroke-width="1.74805" stroke-linecap="round" stroke-linejoin="round"/>
<path d="M73.2915 76.9165C73.6877 76.0367 74.1742 75.0897 74.62 74.2303C74.9055 73.7146 75.2988 72.9921 75.5348 72.459C76.0272 71.5296 76.7468 70.8682 77.7665 70.3904C77.8131 70.373 77.8626 70.3905 77.883 70.4371C77.8422 71.5646 77.4519 72.4997 76.7672 73.3009C76.1204 73.9594 75.4124 74.8567 74.7861 75.5384C74.3374 76.0279 73.8917 76.5231 73.4197 76.998C73.3614 77.0592 73.2594 76.9893 73.2973 76.9136H73.2915V76.9165Z" fill="#5E5573"/>
<path d="M175.939 76.0714C175.26 75.3838 174.552 74.5914 173.908 73.863C173.529 73.4114 172.999 72.7851 172.588 72.3685C171.895 71.5731 171.543 70.6641 171.461 69.5454C171.461 69.4959 171.496 69.4551 171.545 69.4521C172.583 69.8979 173.317 70.5972 173.812 71.5265C174.194 72.3656 174.776 73.3503 175.184 74.1835C175.481 74.7808 175.782 75.3722 176.055 75.984C176.09 76.0568 175.985 76.1326 175.933 76.0685H175.939V76.0714Z" fill="#5E5573"/>
<path d="M167.921 163.631C169.555 162.48 171.082 161.926 171.248 161.862C172.76 161.306 177.305 158.835 190.333 150.678C189.576 152.094 188.836 153.291 188.201 154.252C187.315 155.593 186.246 157.055 184.964 158.57C184.358 159.284 183.793 159.91 183.28 160.449C176.734 167.369 169.596 170.521 164.017 172.919C160.826 174.291 157.572 175.328 156.742 175.59C156.719 175.599 156.605 175.663 156.585 175.64C156.491 175.523 159.008 173.734 161.575 171.022C163.3 169.201 164.285 168.158 165.045 166.809C165.191 166.55 165.535 165.915 166.167 165.187C166.709 164.56 167.283 164.079 167.915 163.634H167.921V163.631Z" fill="#A394C5"/>
<path d="M59.3438 147.082C63.1224 150.52 68.8589 155.103 76.6406 159.147C82.2402 162.057 86.8289 163.613 89.7131 164.575C91.534 165.111 93.3898 165.612 95.2806 166.075C121.411 172.484 146.455 169.731 167.918 163.628C166.467 167.421 163.638 172.683 158.196 175.343C156.786 176.033 155.32 176.394 152.395 177.114C146.321 178.611 141.423 178.853 137.811 179.013C135.704 179.107 132.826 179.165 129.388 179.013C126.233 179.185 123.66 179.159 121.941 179.104C111.234 178.769 102.943 176.508 97.9464 175.115C97.3754 174.955 94.9718 174.279 91.8253 173.23C88.2652 172.045 82.8812 170.072 76.3668 166.908C72.8066 165.181 71.2916 164.234 69.9049 163.217C67.7956 161.667 63.7168 158.593 61.1763 153.09C60.0692 150.689 59.5797 148.539 59.3438 147.077V147.082Z" fill="#A394C5"/>
<path d="M68.5302 86.4545C65.4769 94.446 63.3763 102.874 62.9102 111.434C62.7383 115.117 63.4667 118.811 62.9393 122.49C62.6538 124.949 62.2168 127.402 61.4331 129.759C61.0398 130.936 60.6144 132.073 60.3201 133.241C60.0171 134.409 59.8103 135.604 59.6588 136.81C59.1781 140.434 58.7877 144.07 59.3121 147.686C60.224 154.328 63.994 158.22 69.1536 162.098C83.4206 172.525 107.115 177.478 124.616 178.306C129.485 178.518 134.37 178.725 139.224 178.37C148.891 177.653 158.342 174.807 166.974 170.436C171.225 168.213 175.633 166.025 179.318 162.943C182.022 160.601 184.627 158.049 186.73 155.164C188.775 152.321 190.212 149.026 190.468 145.509C190.788 141.06 189.967 136.501 188.781 132.198L188.665 131.758L188.603 131.539L188.574 131.432C188.574 131.411 188.522 131.295 188.6 131.467L188.539 131.306C187.435 127.563 186.41 123.533 186.724 119.571C187.426 111.265 186.302 102.886 184.461 94.778L184.391 94.4954C184.37 94.3964 184.341 94.3381 184.309 94.1342L184.327 94.2304C183.683 92.3133 182.398 88.3861 181.769 86.4574C181.751 86.402 181.78 86.3437 181.836 86.3262C181.891 86.3088 181.946 86.335 181.967 86.3903C182.707 88.3015 184.155 92.1239 184.877 94.038L184.895 94.1342C184.912 94.1167 184.935 94.2507 184.967 94.3381L185.049 94.6207C186.477 99.7163 187.476 104.94 187.968 110.207C188.169 112.564 188.312 114.916 188.254 117.293C188.222 118.843 188.062 120.364 188.193 121.896C188.321 123.396 188.568 124.923 188.918 126.386C189.294 127.877 189.967 130.062 190.267 131.062C190.759 132.766 191.243 134.502 191.63 136.233C192.519 140.562 192.953 145.136 191.802 149.466C190.462 154.433 187.112 158.541 183.482 162.046C182.611 162.908 181.652 163.814 180.717 164.595C176.871 167.858 172.39 170.072 167.944 172.345C159.053 176.788 149.29 179.576 139.355 180.202C134.408 180.508 129.464 180.24 124.535 179.972C106.769 178.97 82.8641 173.737 68.4661 163.004C63.1229 158.914 59.2393 154.786 58.3652 147.805C57.867 144.102 58.3128 140.332 58.8431 136.682C59.015 135.455 59.2393 134.231 59.5685 133.025C59.8919 131.819 60.3435 130.654 60.7397 129.509C61.5351 127.21 61.9924 124.809 62.2983 122.4C62.8606 118.747 62.1818 115.073 62.3974 111.399C62.9684 102.807 65.1797 94.3556 68.3437 86.3671C68.3641 86.3117 68.4281 86.2855 68.4835 86.3088C68.5389 86.3292 68.5622 86.3904 68.5447 86.4457L68.5214 86.4574H68.5302V86.4545Z" fill="#5E5573"/>
<path d="M181.717 86.3763C185.012 94.5281 187.008 103.184 187.832 111.933C188.118 114.84 187.922 117.8 188.048 120.702C188.342 125.037 189.277 129.34 190.786 133.416C191.305 134.797 191.832 136.213 192.059 137.687C192.29 139.182 192.278 140.676 192.188 142.162C191.8 148.144 189.07 153.685 185.597 158.463C182.955 162.046 179.575 165.085 175.814 167.459C172.082 169.866 168.088 171.716 164.099 173.607C157.387 176.695 150.188 178.647 142.881 179.664C137.046 180.511 131.079 180.369 125.226 180.034C119.355 179.748 113.488 179.148 107.687 178.16C97.5135 176.508 87.538 173.452 78.1626 169.138C74.1101 167.296 70.0983 165.14 66.6867 162.241C64.6531 160.648 62.6138 158.675 61.2561 156.397C57.6581 150.512 56.988 143.223 58.3485 136.569C58.9458 134.069 59.6071 131.555 60.3675 129.107C61.2182 126.372 61.8446 123.569 61.9087 120.728C61.3989 111.918 62.6254 103.064 65.0056 94.5834C65.8156 91.7836 66.5556 88.8644 68.0939 86.353C68.123 86.3035 68.19 86.2889 68.2396 86.3209C68.2891 86.353 68.3007 86.4142 68.2716 86.4637C67.9132 87.0901 67.6277 87.7573 67.3714 88.439C65.7136 93.2461 64.7347 98.298 63.983 103.324C63.3625 107.633 63.0071 111.988 63.1236 116.335C63.1615 117.809 63.3363 119.228 63.3771 120.725C63.4004 122.258 63.2256 123.747 63.0071 125.224C62.369 128.874 61.1046 132.298 60.3763 135.91C58.8322 142.681 59.5721 150.378 63.6276 156.141C64.8338 157.906 66.34 159.214 68.0472 160.578C70.2498 162.431 72.6446 163.92 75.1938 165.251C88.0653 171.94 102.227 175.949 116.634 177.589C125.275 178.46 134.039 179.247 142.689 178.146C149.859 177.216 156.944 175.364 163.549 172.395C167.496 170.571 171.502 168.753 175.17 166.434C178.838 164.161 182.128 161.257 184.723 157.807C188.129 153.198 190.859 147.878 191.299 142.087C191.404 140.656 191.427 139.211 191.229 137.807C191.019 136.382 190.536 135.033 190.046 133.676C188.557 129.518 187.66 125.133 187.418 120.722C187.325 117.783 187.558 114.887 187.308 111.962C187.08 109.06 186.69 106.164 186.195 103.292C185.204 97.5405 183.643 91.8885 181.525 86.4433C181.504 86.388 181.53 86.3297 181.586 86.3064C181.641 86.2831 181.699 86.3122 181.723 86.3676L181.714 86.3734H181.717V86.3763Z" fill="#5E5573"/>
<path d="M88.5625 102.476C89.5268 102.598 90.9835 102.679 92.7054 102.356C93.6464 102.178 95.9567 101.718 98.101 100.019C99.782 98.6851 101.338 96.6021 101.338 96.6021C101.83 97.782 101.862 97.8869 101.862 97.8869C102.151 98.8134 101.763 99.734 101.516 100.32C100.703 102.248 97.1599 105.706 92.883 104.934C90.7096 104.541 89.253 103.218 88.5625 102.476Z" fill="#5E5573"/>
<path d="M105.139 137.069C104.527 137.955 103.621 139.452 103.024 141.469C101.966 145.04 102.462 148.277 103.286 151.47C107.651 168.339 119.884 178.81 121.74 180.127C122.293 180.52 122.858 180.89 122.858 180.89C122.858 180.89 125.07 182.335 127.468 183.43C135.267 186.991 143.64 186.466 143.64 186.466C148.427 186.166 151.882 185.951 153.784 183.256C155.876 180.296 154.731 176.281 154.352 175.113C155.34 171.756 154.749 168.662 152.971 167.541C151.774 166.786 150.049 166.929 149.828 166.952C147.923 167.133 147.442 168.161 145.944 168.094C144.225 168.018 143.011 166.568 142.859 166.381C141.015 164.109 142.029 160.589 142.594 158.626C143.378 155.905 144.118 155.846 145.277 152.531C145.723 151.258 146.507 149.011 146.635 146.421C146.716 144.755 146.612 141.256 144.22 137.075H105.142V137.069H105.139Z" fill="#C0B4DF"/>
<path d="M103.487 145.839C103.953 150.567 105.667 160.986 113.553 170.644C121.428 180.29 130.891 183.585 132.942 184.258C134.063 184.625 149.936 189.683 153.968 183.553C155.305 181.522 154.944 178.865 154.39 176.881C154.038 175.783 153.723 175.524 153.487 175.515C152.87 175.494 152.727 177.21 151.328 178.554C150.565 179.285 149.776 179.573 148.872 179.894C146.99 180.558 145.327 180.552 142.897 180.389C139.485 180.159 137.778 180.045 135.64 179.585C135.64 179.585 130.372 178.452 125.262 175.634C119.042 172.205 109.853 161.79 103.484 145.842H103.487V145.839Z" fill="#A394C5"/>
<path d="M153.409 174.352C153.884 175.34 156.2 180.371 153.966 183.55C151.926 186.451 147.3 186.096 141.983 185.685C137.91 185.37 131.375 184.791 124.196 180.552C116.61 176.074 112.741 170.13 110.853 167.156C108.473 163.409 107.066 159.933 106.215 157.375" stroke="#5E5573" stroke-width="2.33073" stroke-miterlimit="10"/>
<path d="M147.236 172.983C145.684 171.212 146.214 168.001 148.317 166.786C150.016 165.729 152.332 165.93 153.853 167.243C155.353 168.546 155.837 170.775 155.35 172.601C155.085 173.755 154.421 174.716 153.675 175.599C152.492 177.137 151.583 178.909 150.835 180.887C150.607 178.778 151.105 176.569 152.125 174.623C152.347 174.186 152.641 173.77 152.833 173.327C153.626 171.649 153.366 169.108 151.42 168.4C149.873 167.8 148.145 168.508 147.475 170.116C147.105 170.941 147.012 171.946 147.242 172.983H147.236Z" fill="#5E5573"/>
<path d="M146.792 145.839C146.6 147.497 146.256 149.405 145.647 151.476C144.624 154.955 143.194 157.734 141.927 159.777C141.324 160.75 140.726 165.464 143.334 167.745C144.639 168.887 146.332 169.012 147.276 168.998" stroke="#5E5573" stroke-width="2.33073" stroke-miterlimit="10"/>
<path d="M105.144 137.09C103.174 142.051 103.457 146.518 105.167 151.488C106.752 156.205 108.826 160.756 111.131 165.187C112.454 167.73 113.98 170.422 115.428 172.91C115.638 173.28 115.854 173.647 116.057 174.023C114.819 172.843 113.677 171.573 112.588 170.256C108.27 164.916 104.952 158.745 103.055 152.126C101.543 146.952 101.721 141.489 105.141 137.093H105.144V137.09Z" fill="#5E5573"/>
<path d="M144.336 137.09C148.709 141.008 149.19 148.743 145.347 153.181C145.434 151.709 145.574 150.36 145.618 149.023C145.845 144.924 145.213 141.128 144.336 137.093V137.09Z" fill="#5E5573"/>
<path d="M112.819 131.356C115.916 128.74 119.931 127.263 123.975 127.105C125.335 127.076 126.722 127.111 128.071 127.283C130.239 127.551 132.33 128.347 134.212 129.436C135.151 129.984 136.042 130.607 136.837 131.353L136.75 131.505C134.253 130.73 131.78 129.949 129.251 129.346C127.529 128.906 125.764 128.501 123.978 128.449C123.532 128.44 122.894 128.454 122.442 128.454C121.994 128.486 121.361 128.55 120.91 128.583C120.179 128.702 119.351 128.813 118.637 129.025C116.615 129.48 114.701 130.377 112.918 131.502L112.816 131.362V131.356H112.819Z" fill="#5E5573"/>
<path d="M113.285 136.303C116.35 133.786 120.277 132.385 124.231 132.23C125.559 132.201 126.917 132.23 128.237 132.388C130.358 132.635 132.406 133.399 134.256 134.447C135.177 134.975 136.056 135.578 136.84 136.3L136.756 136.452C133.807 135.584 130.926 134.75 127.943 134.092C126.748 133.798 125.469 133.623 124.237 133.568C123.803 133.556 123.176 133.57 122.736 133.568C122.299 133.597 121.679 133.655 121.236 133.684C120.519 133.795 119.709 133.897 119.01 134.095C117.029 134.52 115.144 135.368 113.387 136.44L113.285 136.297V136.303Z" fill="#5E5573"/>
<path d="M114.819 141.696C116.331 140.169 118.184 138.983 120.197 138.211C120.547 138.104 121.24 137.885 121.59 137.78C121.998 137.684 122.607 137.576 123.026 137.492C123.461 137.454 124.061 137.384 124.489 137.355C124.923 137.364 125.532 137.332 125.96 137.355C126.674 137.387 127.458 137.445 128.16 137.553C131.035 138.022 133.754 139.549 135.703 141.693L135.604 141.839C132.574 140.743 129.625 139.627 126.493 138.937C125.879 138.8 125.121 138.742 124.495 138.698C124.104 138.695 123.545 138.707 123.149 138.71C122.525 138.779 121.756 138.832 121.144 138.983L120.477 139.117L119.827 139.321C118.065 139.802 116.433 140.729 114.93 141.833L114.816 141.702V141.696H114.819Z" fill="#5E5573"/>
<path d="M117.656 151.324C119.13 149.393 121.225 147.753 123.643 147.123C125.301 146.689 127.064 146.736 128.739 147.059C130.414 147.397 131.92 148.294 133.176 149.416C133.791 149.981 134.353 150.602 134.799 151.316L134.685 151.447C133.214 150.803 131.839 150.098 130.376 149.527C128.978 148.994 127.611 148.359 126.114 148.201C122.991 147.86 120.037 149.305 117.784 151.438L117.656 151.321V151.324Z" fill="#5E5573"/>
<path d="M123.065 163.06C123.922 161.458 125.277 160.071 126.937 159.293C128.076 158.748 129.358 158.498 130.608 158.402C132.487 158.317 134.384 159.11 135.678 160.479L135.602 160.636C134.97 160.616 134.39 160.549 133.819 160.491C132.854 160.391 131.494 160.263 130.553 160.132C129.766 160.013 128.927 160.01 128.143 160.179C127.756 160.24 127.339 160.377 126.966 160.493C126.611 160.639 126.171 160.808 125.845 161.012C124.843 161.513 123.986 162.294 123.205 163.159L123.062 163.06H123.065Z" fill="#5E5573"/>
<path d="M128.71 166.853C129.424 165.373 130.743 164.167 132.229 163.456C132.981 163.083 133.768 162.661 134.63 162.661C135.478 162.658 136.337 162.812 137.103 163.34L137.095 163.514C136.352 163.928 135.644 164.164 134.875 164.394C134.175 164.624 133.433 164.569 132.727 164.764C131.262 165.155 129.942 165.877 128.85 166.958L128.707 166.856H128.71V166.853Z" fill="#5E5573"/>
<path d="M118.852 125.247C120.573 124.104 122.68 123.536 124.74 123.446C125.783 123.391 126.866 123.3 127.88 123.632C128.882 123.956 129.847 124.434 130.619 125.244L130.558 125.407C129.509 125.503 128.542 125.436 127.531 125.346C126.569 125.284 125.663 124.938 124.707 124.845C122.758 124.643 120.809 124.783 118.93 125.404L118.854 125.247H118.852Z" fill="#5E5573"/>
<path d="M143.547 97.4004C143.279 98.8629 143.427 100.189 144.348 101.348C144.631 101.721 144.98 102.062 145.411 102.449C142.757 102.744 141.248 98.9387 143.547 97.4004Z" fill="#5E5573"/>
<path d="M104.919 97.4004C107.221 98.9387 105.709 102.744 103.055 102.449C103.486 102.062 103.835 101.721 104.118 101.348C105.039 100.189 105.187 98.8629 104.919 97.4004Z" fill="#5E5573"/>
<path d="M145.408 117.885C145.408 117.885 155.23 117.879 169.109 125.736C169.109 125.736 168.518 136.545 154.195 133.297C154.195 133.297 142.973 129.195 145.408 117.885Z" fill="white"/>
<path d="M144.545 118.114C144.545 118.114 143.886 128.564 155.956 129.898C155.956 129.898 162.937 130.338 165.541 123.983C162.511 122.413 158.557 120.723 153.768 119.541C150.341 118.696 147.216 118.289 144.545 118.114Z" fill="#5E5573"/>
<path d="M158.086 126.599C158.877 126.599 159.519 125.957 159.519 125.165C159.519 124.374 158.877 123.732 158.086 123.732C157.294 123.732 156.652 124.374 156.652 125.165C156.652 125.957 157.294 126.599 158.086 126.599Z" fill="white"/>
<path d="M150.481 119.606C152.896 120.043 153.391 120.143 153.391 120.143C154.128 120.288 155.151 120.501 156.38 120.798C156.345 121.156 156.211 121.987 155.565 122.663C154.586 123.682 152.721 124.055 151.433 123.038C150.452 122.263 150.061 120.885 150.478 119.609L150.481 119.606Z" fill="white"/>
<path d="M144.542 118.275C144.393 119.415 144.032 123.24 146.386 127.1C148.854 131.147 152.65 132.516 153.812 132.915C154.876 133.279 160.959 135.368 165.597 131.75C167.747 130.072 168.682 127.872 169.082 126.689" stroke="#5E5573" stroke-width="1.74805" stroke-linecap="round" stroke-linejoin="round"/>
<path d="M143.477 117.967C145.778 117.958 148.893 118.112 152.502 118.803C159.25 120.09 163.94 122.488 165.213 123.161C168.086 124.685 170.289 126.279 171.78 127.467" stroke="#5E5573" stroke-width="2.33073" stroke-linecap="round" stroke-linejoin="round"/>
<path d="M144.656 113.101C145.836 110.945 149 110.112 151.083 111.423C148.805 111.805 146.83 112.314 144.656 113.101Z" fill="#5E5573"/>
<path d="M161.085 111.904C165.056 112.023 168.989 114.468 170.865 117.967C169.275 116.822 167.786 115.68 166.137 114.672C164.502 113.64 162.818 112.813 161.082 111.907L161.085 111.904Z" fill="#5E5573"/>
<path d="M149.98 114.896C155.58 114.001 161.943 116.195 166.06 120.041C163.382 119.039 160.824 117.961 158.132 117.092C155.446 116.195 152.763 115.554 149.98 114.899V114.896Z" fill="#5E5573"/>
<path d="M164.91 135.587C165.499 135.476 166.597 135.182 167.689 134.337C169.062 133.271 169.624 131.945 169.831 131.374" stroke="#5E5573" stroke-width="0.874023" stroke-linecap="round" stroke-linejoin="round"/>
<path d="M146.969 128.802C148.65 130.34 150.299 131.727 152.251 132.822C154.188 133.941 156.222 134.661 158.395 135.342C153.737 136.246 148.539 133.285 146.969 128.802Z" fill="#5E5573"/>
<path d="M144.48 129.533C146.747 132.507 149.436 134.969 152.865 136.435C153.981 136.933 155.155 137.335 156.42 137.734C151.141 139.004 145.183 134.917 144.48 129.533Z" fill="#5E5573"/>
<path d="M102.443 117.8C102.443 117.8 92.6217 117.794 78.7422 125.651C78.7422 125.651 79.3336 136.46 93.6559 133.212C93.6559 133.212 104.878 129.11 102.443 117.8Z" fill="white"/>
<path d="M103.265 118.113C103.265 118.113 103.924 128.237 91.8547 129.529C91.8547 129.529 84.8739 129.956 82.2695 123.799C85.2996 122.278 89.2534 120.641 94.0428 119.496C97.4702 118.678 100.595 118.283 103.265 118.113Z" fill="#5E5573"/>
<path d="M89.7615 126.514C90.5531 126.514 91.1949 125.872 91.1949 125.08C91.1949 124.289 90.5531 123.647 89.7615 123.647C88.9699 123.647 88.3281 124.289 88.3281 125.08C88.3281 125.872 88.9699 126.514 89.7615 126.514Z" fill="white"/>
<path d="M97.3645 119.524C94.9493 119.961 94.454 120.06 94.454 120.06C93.7169 120.206 92.6943 120.419 91.4648 120.716C91.4998 121.074 91.6338 121.905 92.2806 122.581C93.2595 123.6 95.1241 123.973 96.4118 122.956C97.3936 122.181 97.784 120.803 97.3674 119.527L97.3645 119.524Z" fill="white"/>
<path d="M103.309 118.19C103.458 119.33 103.819 123.155 101.465 127.015C98.9974 131.062 95.2012 132.431 94.0388 132.83C92.9754 133.194 86.8921 135.283 82.254 131.665C80.1039 129.987 79.1687 127.787 78.7695 126.604" stroke="#5E5573" stroke-width="1.74805" stroke-linecap="round" stroke-linejoin="round"/>
<path d="M104.37 117.882C102.069 117.873 98.9542 118.027 95.3445 118.718C88.597 120.006 83.9064 122.403 82.6332 123.076C79.7606 124.6 77.5581 126.194 76.0664 127.382" stroke="#5E5573" stroke-width="2.33073" stroke-linecap="round" stroke-linejoin="round"/>
<path d="M103.197 113.016C101.023 112.229 99.0478 111.72 96.7695 111.338C98.8526 110.027 102.017 110.86 103.197 113.016Z" fill="#5E5573"/>
<path d="M86.7597 111.818C85.0234 112.724 83.3394 113.552 81.705 114.583C80.056 115.594 78.5673 116.733 76.9766 117.878C78.8557 114.379 82.7888 111.935 86.7569 111.815L86.7597 111.818Z" fill="#5E5573"/>
<path d="M97.8691 114.811C95.0868 115.466 92.4036 116.107 89.7203 117.004C87.0254 117.876 84.4704 118.951 81.793 119.953C85.9096 116.107 92.2696 113.913 97.8721 114.808L97.8691 114.811Z" fill="#5E5573"/>
<path d="M82.9403 135.505C82.3518 135.394 81.2534 135.1 80.1609 134.255C78.7887 133.189 78.2264 131.863 78.0195 131.292" stroke="#5E5573" stroke-width="0.874023" stroke-linecap="round" stroke-linejoin="round"/>
<path d="M100.883 128.717C99.3102 133.201 94.1156 136.161 89.457 135.257C90.5787 134.896 91.6392 134.558 92.6618 134.145C95.8024 132.935 98.4246 131.021 100.883 128.717Z" fill="#5E5573"/>
<path d="M103.365 129.448C102.663 134.832 96.7049 138.919 91.4258 137.649C92.6902 137.25 93.8644 136.848 94.9802 136.35C98.4122 134.881 101.098 132.422 103.365 129.448Z" fill="#5E5573"/>
<path d="M168.275 79.0342C168.275 79.0342 161.947 99.9787 170.676 99.9234C170.676 99.9234 180.019 98.0296 168.275 79.0342Z" fill="#ABE1F7"/>
<path d="M171.46 96.6195C172.456 96.6195 173.263 95.8121 173.263 94.8161C173.263 93.8201 172.456 93.0127 171.46 93.0127C170.464 93.0127 169.656 93.8201 169.656 94.8161C169.656 95.8121 170.464 96.6195 171.46 96.6195Z" fill="white"/>
<path d="M166.564 93.3394C166.564 93.3394 169.095 101.162 174.098 96.043C174.098 96.043 173.926 99.8537 170.331 99.9033C170.331 99.9033 165.76 99.4342 166.564 93.3394Z" fill="#D4F8FC"/>
<path d="M167.877 80.4853C167.705 82.0469 167.484 83.591 167.265 85.1351C167.143 85.9042 167.05 86.6821 166.951 87.4542C166.854 88.2291 166.747 88.9983 166.668 89.7674C166.592 90.5365 166.537 91.297 166.54 92.0457C166.54 92.4244 166.566 92.7828 166.604 93.1702C166.639 93.5548 166.682 93.9336 166.735 94.3123C166.84 95.0669 166.968 95.8127 167.169 96.5265C167.37 97.2403 167.638 97.9278 168.02 98.5018C168.393 99.0845 168.894 99.5098 169.491 99.6642C170.091 99.8245 170.79 99.7196 171.428 99.4691C171.749 99.3438 172.058 99.1748 172.337 98.9767C172.48 98.8806 172.605 98.7669 172.722 98.6445L172.906 98.4669C172.961 98.4028 173.01 98.3299 173.063 98.2629C173.479 97.7181 173.762 97.048 173.937 96.3401C174.118 95.6292 174.152 94.8746 174.141 94.1229C174.138 93.3684 174.03 92.6079 173.89 91.8534C173.602 90.3442 173.101 88.8671 172.492 87.4221C173.331 88.7477 173.989 90.1927 174.447 91.7194C174.659 92.4856 174.834 93.2693 174.904 94.0763C174.983 94.8804 174.98 95.702 174.828 96.5207C174.683 97.3364 174.397 98.158 173.884 98.8718C173.82 98.9592 173.759 99.0524 173.692 99.1369L173.465 99.3787C173.316 99.5419 173.153 99.6963 172.978 99.8274C172.632 100.095 172.256 100.317 171.857 100.489C171.061 100.827 170.138 100.993 169.214 100.766C168.757 100.652 168.32 100.428 167.959 100.139C167.591 99.8507 167.297 99.504 167.055 99.1398C166.58 98.4027 166.292 97.6103 166.079 96.8207C165.87 96.0283 165.73 95.233 165.648 94.4347C165.607 94.0355 165.578 93.6393 165.555 93.2431C165.532 92.8527 165.514 92.4303 165.529 92.0282C165.546 91.2154 165.651 90.42 165.776 89.6392C166.036 88.0776 166.35 86.5539 166.709 85.0273C167.085 83.5036 167.457 81.9828 167.88 80.4766L167.877 80.4853Z" fill="#5E5573"/>
<g filter="url(#filter0_dd_2106_805)">
<rect x="210.504" y="212.5" width="37.2472" height="171.337" rx="18.6236" transform="rotate(90 210.504 212.5)" fill="#5E5573" shape-rendering="crispEdges"/>
<path d="M97.7966 237.124C93.1941 237.124 89.374 233.419 89.351 228.839C89.374 224.283 93.1941 220.578 97.7966 220.554C99.8217 220.554 101.663 221.222 103.113 222.349C103.665 222.81 103.757 223.615 103.343 224.19C102.882 224.766 102.031 224.858 101.502 224.444C100.489 223.615 99.2234 223.178 97.7966 223.178C96.2088 223.178 94.736 223.822 93.6544 224.835C92.6188 225.893 91.9745 227.274 91.9745 228.839C91.9745 230.404 92.6188 231.831 93.6544 232.843C94.736 233.856 96.2088 234.5 97.7966 234.5C99.2234 234.5 100.466 234.063 101.502 233.234C102.031 232.843 102.882 232.935 103.343 233.488C103.757 234.063 103.665 234.891 103.113 235.329C101.663 236.456 99.8217 237.124 97.7966 237.124ZM117.414 226.86V231.393V235.904C117.414 236.571 116.862 237.124 116.195 237.124C115.596 237.124 115.136 236.686 114.998 236.134C114.124 236.755 113.088 237.124 111.937 237.124C110.373 237.124 109.015 236.479 108.025 235.444C107.036 234.385 106.461 232.958 106.461 231.393C106.461 229.806 107.036 228.379 108.025 227.343C109.015 226.285 110.373 225.617 111.937 225.617C113.088 225.617 114.124 226.008 114.998 226.63C115.136 226.054 115.596 225.617 116.195 225.617C116.862 225.617 117.414 226.17 117.414 226.86ZM114.078 233.764C114.63 233.165 114.975 232.337 114.975 231.393C114.975 230.427 114.63 229.598 114.078 229.023C113.525 228.402 112.743 228.08 111.937 228.08C111.109 228.08 110.327 228.402 109.797 229.023C109.245 229.598 108.923 230.427 108.923 231.393C108.923 232.337 109.245 233.165 109.797 233.764C110.327 234.339 111.109 234.661 111.937 234.661C112.743 234.661 113.525 234.339 114.078 233.764ZM123.263 241.45C122.596 241.45 122.043 240.852 122.043 240.207V231.416C122.043 231.416 122.043 231.416 122.043 231.393V226.837C122.043 226.17 122.596 225.617 123.263 225.617C123.907 225.617 124.437 226.054 124.529 226.561C125.38 226.008 126.485 225.617 127.658 225.617C130.719 225.617 133.227 228.241 133.227 231.393C133.227 234.546 130.719 237.101 127.658 237.101C126.508 237.101 125.403 236.755 124.575 236.157V240.207C124.575 240.852 123.999 241.45 123.263 241.45ZM125.472 229.069C124.874 229.667 124.575 230.496 124.575 231.393C124.575 232.291 124.874 233.165 125.472 233.695C126.047 234.339 126.807 234.661 127.658 234.661C128.441 234.661 129.223 234.339 129.821 233.695C130.351 233.165 130.719 232.291 130.719 231.393C130.719 230.496 130.351 229.667 129.821 229.069C129.223 228.448 128.441 228.126 127.658 228.126C126.807 228.126 126.047 228.448 125.472 229.069ZM141.935 237.124C138.782 237.101 136.343 234.5 136.32 231.37C136.343 228.241 138.782 225.617 141.935 225.617C144.927 225.617 147.297 227.849 147.481 230.956C147.481 230.979 147.481 231.025 147.481 231.071C147.481 231.117 147.481 231.232 147.458 231.278C147.389 231.831 146.906 232.199 146.261 232.199H138.943C139.059 232.728 139.312 233.326 139.726 233.718C140.209 234.27 141.13 234.684 141.935 234.753C142.764 234.822 143.753 234.615 144.328 234.178C144.812 233.672 145.755 233.741 146.054 234.109C146.353 234.431 146.584 235.121 146.054 235.605C144.927 236.64 143.569 237.124 141.935 237.124ZM141.935 227.803C139.979 227.896 139.012 229.299 138.828 230.243H145.341C145.111 229.322 143.937 227.965 141.935 227.803ZM152.529 237.124C151.816 237.124 151.264 236.548 151.264 235.858V222.28C151.264 221.59 151.816 221.015 152.529 221.015C153.243 221.015 153.818 221.59 153.818 222.28V230.243L158.536 225.525C159.019 225.042 159.847 225.042 160.331 225.525C160.837 226.031 160.837 226.837 160.331 227.32L156.879 230.772L160.423 235.029C160.86 235.582 160.791 236.387 160.239 236.824C160.009 237.031 159.709 237.124 159.433 237.124C159.065 237.124 158.697 236.962 158.467 236.663L155.084 232.567L153.818 233.833V235.858C153.818 236.548 153.243 237.124 152.529 237.124Z" fill="white"/>
</g>
<defs>
<filter id="filter0_dd_2106_805" x="36.1882" y="212.5" width="177.295" height="43.2066" filterUnits="userSpaceOnUse" color-interpolation-filters="sRGB">
<feFlood flood-opacity="0" result="BackgroundImageFix"/>
<feColorMatrix in="SourceAlpha" type="matrix" values="0 0 0 0 0 0 0 0 0 0 0 0 0 0 0 0 0 0 127 0" result="hardAlpha"/>
<feOffset dy="2.97977"/>
<feGaussianBlur stdDeviation="1.48989"/>
<feComposite in2="hardAlpha" operator="out"/>
<feColorMatrix type="matrix" values="0 0 0 0 0 0 0 0 0 0 0 0 0 0 0 0 0 0 0.25 0"/>
<feBlend mode="normal" in2="BackgroundImageFix" result="effect1_dropShadow_2106_805"/>
<feColorMatrix in="SourceAlpha" type="matrix" values="0 0 0 0 0 0 0 0 0 0 0 0 0 0 0 0 0 0 127 0" result="hardAlpha"/>
<feOffset dy="2.97977"/>
<feGaussianBlur stdDeviation="1.48989"/>
<feComposite in2="hardAlpha" operator="out"/>
<feColorMatrix type="matrix" values="0 0 0 0 0 0 0 0 0 0 0 0 0 0 0 0 0 0 0.25 0"/>
<feBlend mode="normal" in2="effect1_dropShadow_2106_805" result="effect2_dropShadow_2106_805"/>
<feBlend mode="normal" in="SourceGraphic" in2="effect2_dropShadow_2106_805" result="shape"/>
</filter>
<linearGradient id="paint0_linear_2106_805" x1="125" y1="0" x2="125" y2="250" gradientUnits="userSpaceOnUse">
<stop stop-color="#776C91"/>
<stop offset="0.74" stop-color="#DDCEFD"/>
</linearGradient>
</defs>
</svg>
