<svg width="250" height="256" viewBox="0 0 250 256" fill="none" xmlns="http://www.w3.org/2000/svg">
<mask id="path-1-inside-1_2106_716" fill="white">
<path d="M125 0C194.036 0 250 55.9644 250 125C250 194.036 194.036 250 125 250C55.9644 250 0 194.036 0 125C0 55.9644 55.9644 0 125 0Z"/>
</mask>
<path d="M125 0C194.036 0 250 55.9644 250 125C250 194.036 194.036 250 125 250C55.9644 250 0 194.036 0 125C0 55.9644 55.9644 0 125 0Z" fill="url(#paint0_linear_2106_716)"/>
<path d="M250 0V250V0ZM0 250V0V250ZM0 0H250H0ZM250 131.482C250 200.518 194.036 256.482 125 256.482C55.9644 256.482 0 200.518 0 131.482V125C0 190.456 55.9644 243.518 125 243.518C194.036 243.518 250 190.456 250 125V131.482Z" fill="#DB7396" mask="url(#path-1-inside-1_2106_716)"/>
<path d="M64.5329 95.8205C62.974 102.131 62.5248 105.285 62.3408 108.982C62.0785 114.177 62.7207 115.712 61.985 120.385C61.2071 125.363 60.2091 125.369 59.1508 130.833C58.391 134.77 57.598 138.865 58.7136 143.807C59.799 148.619 62.1569 151.86 63.6193 153.832C67.4847 159.042 71.9592 161.705 74.6517 163.273C78.6921 165.625 83.5163 167.114 93.1619 170.093C94.5911 170.533 96.2735 171.031 98.3027 171.558C99.0716 171.757 101.837 172.466 105.605 173.205C106.591 173.398 108.802 173.817 111.75 174.257C116.213 174.923 121.61 175.728 128.325 175.939C132.588 176.075 137.699 176.211 144.384 175.225C151.457 174.182 156.622 172.424 158.419 171.785C161.076 170.838 163.159 169.861 167.332 167.907C177.174 163.294 180.728 160.559 183.551 157.646C183.728 157.462 183.967 157.218 184.28 156.872C191.291 149.204 192.264 139.965 192.388 138.639C193.148 130.582 190.51 124.386 189.195 121.748C189.216 120.147 189.225 117.819 189.15 115.012C188.996 109.322 188.598 104.368 188.312 102.191C187.564 96.4596 185.088 83.8592 175.913 71.88C170.682 65.0506 165.315 61.0887 163.593 59.8646C152.871 52.2452 141.839 50.1979 140.138 50.1256C139.014 50.0743 138.492 49.9446 137.443 49.6913C136.345 49.423 135.79 49.2813 135.422 48.8863C134.479 47.8672 135.027 45.9555 135.211 45.3223C135.995 42.5966 137.886 41.6409 137.563 41.0801C137.189 40.4288 134.183 40.9021 131.75 42.5756C131.75 42.5756 130.758 43.257 127.39 47.1707C128.023 37.1181 127.001 36.7653 127.001 36.7653C126.504 36.5935 125.886 37.1241 124.984 37.9021C123.709 38.9996 123.069 40.2629 122.729 41.065C121.302 44.4178 121.881 47.2189 121.369 47.2973C120.814 47.3817 120.621 44.044 118.049 41.9876C116.952 41.1102 115.13 40.2297 114.398 40.8237C113.219 41.7826 116.367 45.3314 115.215 48.0964C114.096 50.7889 109.878 50.4331 103.612 52.0341C96.0353 53.9698 90.795 57.4253 87.8552 59.3369C81.8912 63.2174 78.1011 67.4567 76.6719 69.1422C68.8446 78.3776 66.4083 88.2283 64.5329 95.8144H64.5268L64.5329 95.8205Z" fill="#C0B4DF"/>
<path d="M83.1602 86.0993C83.1602 86.0993 84.0979 84.1334 93.7374 82.4268C93.7374 82.4268 97.826 79.9816 92.854 78.4619C92.854 78.4619 85.705 78.4137 82.8798 84.848C82.8798 84.848 82.1502 86.4671 83.1602 86.0993Z" fill="#5E5573"/>
<path d="M89.9024 128.731C89.9024 128.731 79.6177 129.008 75.0226 118C75.0226 118 71.2717 105.065 84.5806 97.6383C85.0902 97.4573 91.6271 95.2804 97.0393 100.292C101.791 104.694 101.915 111.146 101.918 112.03C101.96 112.642 102.442 121.503 96.6172 126.207C94.0453 128.284 91.3406 128.667 89.8994 128.737V128.731H89.9024Z" fill="#FDFEFD"/>
<path d="M77.0673 121.739C76.8954 120.153 76.7809 117.852 77.1517 115.138C77.5437 112.277 78.0714 108.378 80.8212 105.17C84.2072 101.214 88.6968 100.949 89.523 100.919C96.7323 100.644 101.077 107.531 101.418 108.086C101.104 106.729 100.326 104.103 98.3182 101.657C97.8207 101.054 96.473 99.5167 94.3925 98.3981C90.8014 96.4714 86.0013 96.3116 81.9006 98.8624C77.6703 101.495 76.0542 105.849 75.5627 107.233C75.0381 108.707 73.2592 113.709 75.2462 118.642C75.816 120.059 76.5427 121.084 77.0794 121.732H77.0733L77.0673 121.739Z" fill="#5E5573"/>
<path d="M88.1878 101.049C86.7948 101.923 84.3856 103.741 82.7182 107.049C80.083 112.28 79.7785 120.313 83.9877 125.04C86.3877 127.733 89.421 128.417 91.1034 128.61C93.7749 128.215 95.584 127.039 96.5217 126.313C100.598 123.144 101.705 117.967 101.946 115.687C102.199 113.317 101.892 110.501 101.711 109.597C101.705 109.563 101.409 108.089 101.409 108.089C100.463 106.606 98.5509 104.055 95.4754 102.39C94.4744 101.848 92.6683 100.898 90.2139 100.868C89.3818 100.859 88.6853 100.958 88.1878 101.052V101.049Z" fill="#5E5573"/>
<path d="M94.3776 113.477C96.1977 113.477 97.6732 111.482 97.6732 109.021C97.6732 106.56 96.1977 104.564 94.3776 104.564C92.5575 104.564 91.082 106.56 91.082 109.021C91.082 111.482 92.5575 113.477 94.3776 113.477Z" fill="#F9FCFE"/>
<path d="M88.0873 121.512C89.1214 121.512 89.9597 120.559 89.9597 119.384C89.9597 118.208 89.1214 117.255 88.0873 117.255C87.0532 117.255 86.2148 118.208 86.2148 119.384C86.2148 120.559 87.0532 121.512 88.0873 121.512Z" fill="#F9FCFE"/>
<path d="M168.702 85.0897C168.702 85.0897 167.743 83.2173 158.61 82.0655C158.61 82.0655 154.666 79.8945 159.292 78.1397C159.292 78.1397 166.015 77.7115 168.916 83.8504C168.916 83.8504 169.664 85.3972 168.702 85.0897Z" fill="#5E5573"/>
<path d="M162.066 128.854C162.066 128.854 172.589 129.135 177.292 118.057C177.292 118.057 181.128 105.044 167.514 97.569C166.993 97.385 160.308 95.196 154.766 100.237C149.903 104.667 149.776 111.158 149.773 112.048C149.731 112.663 149.236 121.579 155.197 126.313C157.829 128.405 160.597 128.788 162.072 128.857L162.066 128.854Z" fill="#FDFEFD"/>
<path d="M175.203 121.817C175.378 120.222 175.496 117.906 175.116 115.174C174.715 112.295 174.175 108.375 171.362 105.146C167.898 101.166 163.306 100.901 162.461 100.87C155.086 100.593 150.639 107.522 150.289 108.083C150.609 106.72 151.405 104.075 153.461 101.612C153.971 101.003 155.349 99.4592 157.477 98.3316C161.153 96.3928 166.064 96.233 170.259 98.7989C174.588 101.446 176.241 105.827 176.744 107.22C177.281 108.704 179.102 113.739 177.067 118.699C176.485 120.125 175.74 121.156 175.191 121.811H175.2L175.203 121.817Z" fill="#5E5573"/>
<path d="M163.819 101C165.245 101.88 167.708 103.711 169.415 107.036C172.11 112.301 172.421 120.381 168.115 125.139C165.661 127.85 162.558 128.537 160.837 128.733C158.102 128.335 156.254 127.153 155.295 126.421C151.125 123.231 149.991 118.023 149.747 115.729C149.488 113.344 149.801 110.51 149.988 109.602C149.994 109.569 150.296 108.086 150.296 108.086C151.264 106.593 153.22 104.027 156.368 102.351C157.393 101.805 159.242 100.849 161.75 100.819C162.601 100.81 163.315 100.909 163.825 101.006L163.819 101Z" fill="#5E5573"/>
<path d="M157.488 113.504C159.35 113.504 160.859 111.497 160.859 109.021C160.859 106.544 159.35 104.537 157.488 104.537C155.626 104.537 154.117 106.544 154.117 109.021C154.117 111.497 155.626 113.504 157.488 113.504Z" fill="#F9FCFE"/>
<path d="M163.922 121.591C164.98 121.591 165.837 120.632 165.837 119.45C165.837 118.268 164.98 117.309 163.922 117.309C162.865 117.309 162.008 118.268 162.008 119.45C162.008 120.632 162.865 121.591 163.922 121.591Z" fill="#F9FCFE"/>
<path d="M88.835 138.806C89.5733 136.409 86.091 133.209 81.0573 131.659C76.0236 130.108 71.3445 130.794 70.6062 133.191C69.868 135.588 73.3502 138.788 78.3839 140.338C83.4176 141.889 88.0968 141.203 88.835 138.806Z" fill="#FAC0D8"/>
<path d="M174.378 140.311C179.411 138.761 182.894 135.561 182.155 133.164C181.417 130.768 176.738 130.082 171.704 131.632C166.67 133.183 163.188 136.382 163.927 138.779C164.665 141.176 169.344 141.862 174.378 140.311Z" fill="#FAC0D8"/>
<path d="M83.2559 65.3493C89.1897 61.4236 92.1536 59.4577 95.1929 57.9772C106.439 52.4927 116.61 53.6896 117.653 49.1217C117.849 48.2714 117.9 46.4653 118.156 46.4623C118.461 46.4562 118.346 48.9378 119.785 49.7428C120.33 50.0504 120.9 50.0021 121.024 49.9871C121.986 49.8815 122.568 49.1187 122.712 48.9136C123.403 47.9367 122.896 47.2131 123.252 45.7356C123.641 44.1346 124.754 42.8351 125.091 42.9617C125.7 43.1878 123.545 47.982 125.342 49.5227C125.942 50.0353 126.849 50.0744 127.446 49.9297C128.535 49.6614 128.761 48.7448 130.323 47.1136C131.098 46.3025 132.418 44.9245 132.928 45.1929C133.621 45.5638 131.812 48.4433 132.837 50.5539C133.7 52.3268 136.247 52.8876 138.382 53.0746C140.761 53.3942 144.41 54.0485 148.658 55.5349C149.973 55.9932 153.741 57.3742 163.212 63.0246C166.086 64.7373 170.023 67.1674 174.637 70.2761C172.981 68.1926 170.657 65.5875 167.557 62.9342C165.431 61.113 161.536 58.0677 156.024 55.3872C156.024 55.3872 150.235 52.5741 143.562 51.1087C141.53 50.6624 140.517 50.4393 139.739 50.4182C138.919 50.3971 138.259 50.4634 137.36 50.1468C136.636 49.8905 135.819 49.4081 135.421 48.8865C134.432 47.5749 135.141 44.7226 137.502 42.2049C137.502 42.2049 131.52 41.5898 127.347 48.1026C127.769 40.3084 126.919 38.4148 126.035 38.1766C124.817 37.851 122.513 40.4078 121.702 42.8712C121.28 44.1466 120.885 46.5467 120.885 46.5467C120.885 46.5467 120.318 45.0271 119.495 43.8542C119.281 43.5496 118.75 42.7898 117.954 42.223C116.356 41.0802 114.442 41.231 113.634 41.3455C114.083 41.7104 115.256 42.7506 115.663 44.5115C115.784 45.024 116.182 46.7578 115.223 48.0996C114.647 48.9076 113.842 49.1729 112.259 49.6704C110.287 50.2916 109.355 50.2102 106.349 50.7981C106.349 50.7981 105.478 50.9669 104.015 51.3046C99.4202 52.369 95.1206 54.6093 93.0522 55.7038C88.9153 57.8868 86.1143 59.9582 85.3665 60.519C83.7956 61.6979 82.0679 63.0035 80.1081 65.099C78.2839 67.0468 76.9904 68.8921 76.125 70.2821C77.8467 69.0429 80.289 67.3273 83.268 65.3554L83.2559 65.3493Z" fill="#DACFF3"/>
<path d="M76.6719 69.1475C78.3061 66.9404 80.4981 64.4348 83.3987 62.0348C85.9736 59.903 88.1627 58.6336 90.5778 57.2346C94.2895 55.0848 97.2263 53.8486 99.4696 52.9139C101.429 52.0968 102.684 51.6626 104.007 51.3068C105.322 50.948 105.72 50.9299 108.198 50.4444C114.156 49.2715 114.874 48.7801 115.32 48.0896C116.186 46.7509 115.782 45.0322 115.661 44.5106C115.233 42.6834 114.018 41.6462 113.632 41.3447C114.181 41.2602 116.095 41.0402 117.953 42.2221C120.672 43.9498 120.847 47.1519 120.856 47.4564C120.856 46.3137 120.998 43.8714 122.457 41.2723C123.754 38.9657 125.469 37.63 126.407 37.0059C126.829 38.1938 127.257 39.7738 127.435 41.6673C127.652 43.992 127.411 45.9579 127.128 47.3509C127.734 46.3529 129.202 44.2513 131.94 42.7738C134.256 41.5256 136.405 41.3085 137.548 41.2723C134.584 45.8252 134.684 47.9026 135.377 48.958C136.3 50.363 138.365 50.0916 142.529 50.8334C145.831 51.4213 148.062 52.2234 151.508 53.4626C152.606 53.8576 158.057 55.8627 164.235 60.2347C166.843 62.083 170.097 64.7182 173.401 68.3395" stroke="#5E5573" stroke-width="1.8091" stroke-linecap="round" stroke-linejoin="round"/>
<path d="M73.6951 73.5685C74.0931 72.6911 74.5755 71.7443 75.0187 70.888C75.3052 70.3754 75.6941 69.6518 75.9323 69.1212C76.4238 68.1925 77.1444 67.5352 78.1575 67.0558C78.2027 67.0377 78.254 67.0558 78.2751 67.101C78.2329 68.2257 77.8469 69.1604 77.1595 69.9594C76.5142 70.6167 75.8087 71.5122 75.1815 72.1906C74.7353 72.6791 74.289 73.1736 73.8186 73.6469C73.7614 73.7072 73.6589 73.6379 73.6951 73.5625V73.5685Z" fill="#5E5573"/>
<path d="M176.118 72.7243C175.442 72.0398 174.734 71.2468 174.092 70.5232C173.712 70.0739 173.184 69.4468 172.777 69.0337C172.087 68.2407 171.734 67.3331 171.652 66.2145C171.652 66.1663 171.688 66.1241 171.737 66.1211C172.771 66.5643 173.504 67.2638 173.998 68.1925C174.381 69.0307 174.96 70.0136 175.367 70.8428C175.666 71.4368 175.961 72.0308 176.235 72.6398C176.272 72.7122 176.166 72.7876 176.112 72.7243H176.118Z" fill="#5E5573"/>
<path d="M109.253 118.907C109.253 118.907 112.886 108.614 118.537 107.809C119.061 105.357 120.053 101.489 121.968 97.0113C125.188 89.4764 128.396 86.3587 132.994 78.5223C134.481 75.9865 138.099 69.8175 140.183 63.7148C142.076 58.1729 144.229 48.2108 140.737 33.946C136.112 31.4133 134.032 27.0715 135.144 24.0714C135.723 22.5065 137.207 21.219 138.82 20.6883C142.04 19.627 143.367 22.3618 147.669 22.5125C152.723 22.6904 154.583 19.0511 158.4 20.4019C158.648 20.4893 160.806 21.2883 161.801 23.3356C163.182 26.182 161.795 30.3851 158.09 33.545C158.919 36.5481 159.896 40.8568 160.333 46.1062C160.529 48.4249 161.286 58.9267 157.028 74.5362C153.534 87.3537 150.712 88.7467 148.703 99.6857C147.359 107.025 147.374 113.227 147.594 117.294C147.594 117.294 148.402 127.588 144.567 129.602L109.25 118.907H109.253Z" fill="#C0B4DF"/>
<path d="M109.426 119.761C109.564 116.884 110.547 113.996 112.215 111.626C113.038 110.432 113.912 109.171 115.112 108.351C116.331 107.489 117.678 106.822 119.195 106.645L119.325 106.85C118.918 107.51 118.48 108.071 118.043 108.613C117.172 109.669 116.279 110.706 115.209 111.52C114.681 111.927 114.169 112.349 113.716 112.829C111.841 114.813 110.514 117.192 109.667 119.806L109.429 119.764L109.426 119.761Z" fill="#5E5573"/>
<path d="M119.254 103.705C120.391 100.37 122.35 95.2234 125.571 89.3167C130.648 79.9998 133.389 78.8178 137.318 69.8175C138.467 67.1913 140.846 61.3057 141.801 54.1749C142.034 52.4411 142.151 50.8793 142.211 50.029C142.528 45.6661 142.742 42.3765 141.934 38.4598C141.708 37.3683 141.301 35.7251 140.523 33.7743C139.543 33.2044 137.444 31.7842 136.287 29.1068C135.843 28.0726 134.484 24.9217 136.121 22.5367C137.544 20.4592 140.324 20.3025 140.779 20.2753C143.96 20.0914 144.44 22.2563 147.536 22.594C151.794 23.0583 153.319 19.2411 157.212 20.1366C157.335 20.1638 160.233 20.8784 161.358 23.384C162.419 25.7479 161.246 28.2474 160.863 29.0676C159.76 31.4194 157.459 33.4848 157.459 33.4818C157.459 33.4818 161.201 46.0882 160.128 59.2313C159.745 63.9018 159.157 67.1371 157.384 72.9232C154.824 81.2722 152.086 84.5587 149.725 93.2756C148.528 97.6898 148.001 101.386 147.744 103.711" stroke="#5E5573" stroke-width="2.41213" stroke-miterlimit="10"/>
<path d="M144.711 129.497C147.247 124.365 147.542 119.016 146.442 113.484C146.128 111.053 146.077 108.59 146.158 106.148C146.291 102.906 147.024 99.7284 148.052 96.662C148.564 95.1363 149.17 93.6378 149.909 92.1875L150.141 92.2508C150.021 95.0067 149.463 98.9445 149.143 101.721C148.712 105.575 147.883 109.41 148.193 113.3C148.956 118.89 148.031 124.872 144.922 129.612L144.711 129.494V129.497Z" fill="#5E5573"/>
<path d="M117.191 115.078C115.925 107.326 118.741 98.0002 124.057 92.2231C123.511 94.2192 122.851 96.0947 122.248 97.9821C120.315 103.654 118.901 109.313 117.191 115.078Z" fill="#5E5573"/>
<path d="M146.679 28.6976C147.089 27.9881 146.113 26.6577 144.499 25.726C142.885 24.7943 141.245 24.6141 140.835 25.3237C140.426 26.0332 141.402 27.3637 143.016 28.2954C144.629 29.2271 146.27 29.4072 146.679 28.6976Z" fill="#5E5573" stroke="#5E5573" stroke-width="0.301517" stroke-miterlimit="10"/>
<path d="M154.405 28.2936C156.019 27.3619 156.995 26.0314 156.586 25.3219C156.176 24.6124 154.536 24.7924 152.922 25.7241C151.308 26.6558 150.332 27.9863 150.742 28.6959C151.151 29.4054 152.792 29.2253 154.405 28.2936Z" fill="#5E5573" stroke="#5E5573" stroke-width="0.301517" stroke-miterlimit="10"/>
<path d="M173.379 68.5874C174.618 68.0838 176.485 67.3059 178.737 66.3109C187.475 62.4515 188.841 61.1671 193.134 59.8645C196.186 58.9358 199.912 57.8021 204.42 58.6735C210.33 59.8162 214.213 63.748 215.932 65.7561C219.61 70.0497 222.131 73.5865 224.552 78.0037C226.515 81.5888 227.896 84.7818 229.368 88.6171C231.62 94.4876 234.083 101 235.724 109.557C236.272 112.434 236.574 114.716 236.405 117.518C236.266 119.83 236.037 123.566 234.249 126.593C230.296 133.275 222.571 129.97 218.474 136.218C215.706 140.439 218.166 143.569 214.162 148.725C212.48 150.886 210.496 152.331 209.054 153.377C206.905 154.939 204.429 156.739 200.772 157.559C199.171 157.921 196.258 158.331 192.576 157.475C192.576 157.475 188.584 156.115 185.768 153.268C186.522 152.343 187.583 150.883 188.533 148.911C192.314 141.057 190.611 132.711 190.014 130.272C189.187 126.889 188.458 126.536 187.731 122.619C187.017 118.766 187.143 115.971 187.161 113.881C187.261 103.063 184.686 93.9087 183.633 90.1759C182.186 85.029 180.636 81.4561 180.26 80.6058C179.376 78.5947 177.814 75.2841 175.345 71.4548C174.89 70.7462 174.226 69.7512 173.382 68.5813L173.379 68.5874Z" fill="#C0B4DF"/>
<path d="M233.292 127.968C233.292 127.968 231.703 129.427 231.567 129.551C230.708 130.332 228.823 131.282 224.382 132.072C222.917 132.632 221.177 133.573 219.751 135.222C216.901 138.524 218.068 141.488 215.122 146.168C213.778 148.305 212.321 149.611 210.868 150.913C209.246 152.367 206.514 154.767 202.232 156.271C198.358 157.628 194.875 157.667 192.575 157.477C192.575 157.477 188.583 156.118 185.767 153.271C186.52 152.346 187.582 150.886 188.532 148.914C192.313 141.06 190.609 132.714 190.012 130.275C189.186 126.892 188.456 126.539 187.73 122.622C187.543 121.618 187.416 120.692 187.326 119.827C187.021 116.881 187.145 114.155 187.157 113.884C187.325 109.75 186.686 105.39 186.141 101.661C185.715 98.748 184.98 94.8071 183.629 90.1849C183.629 90.1849 191.064 79.6228 201.892 77.1865C203.375 76.8518 204.226 76.6649 205.477 76.7071C212.439 76.9423 216.877 85.9395 225.501 103.425C228.85 110.218 229.921 113.278 230.663 115.934C232.04 120.873 233.286 127.971 233.286 127.971L233.292 127.968Z" fill="#ACECC7"/>
<path d="M225.185 101.055C223.762 99.2123 220.883 96.0011 216.188 93.7126C215.374 93.3146 211.436 91.403 206.814 91.2161C195.585 90.7638 187.408 100.147 186.13 101.661C185.804 99.6284 185.4 97.4936 184.897 95.2654C184.495 93.4865 184.067 91.7919 183.621 90.1848C186.666 87.7305 189.287 85.7073 191.304 84.1817C194.847 81.5012 196.182 80.5936 198.091 79.7554C200.226 78.8147 202.231 77.9312 204.86 78.1121C207.718 78.3111 209.723 79.6559 211.466 80.8559C212.85 81.8087 215.404 83.8168 219.206 89.6753C220.943 92.3498 223.15 96.1579 225.188 101.058L225.185 101.055Z" fill="#8EC2A7"/>
<path d="M229.047 107.649C228.296 105.487 227.172 102.454 225.61 98.8988C224.262 95.8384 222.89 92.7509 220.611 89.006C217.885 84.5255 215.666 81.2721 211.64 78.6218C207.039 75.5946 201.956 75.9051 197.126 78.1936C189.262 81.9173 183.615 88.9698 183.605 88.9759C183.605 88.9759 183.982 91.1528 184.721 91.2734C185.047 91.3277 185.345 90.9629 185.421 90.8845C191.107 84.8994 200.677 75.5161 209.397 80.3766C211.897 81.7696 214.071 84.0491 217.969 89.6573C219.794 92.2835 221.06 94.6414 221.883 96.3269C224.693 101.423 227.353 107.266 229.502 113.866C229.931 115.181 230.323 116.483 230.684 117.762C231.553 121.395 232.424 125.028 233.292 128.662L233.591 128.155C233.591 128.155 233.16 120.156 230.6 112.039C230.235 110.881 229.804 109.817 229.053 107.64L229.047 107.649Z" fill="#5E5573"/>
<path d="M173.405 69.1478C176.384 67.9116 178.769 66.8473 180.349 66.1206C183.639 64.613 185.749 63.5336 189.708 61.8481C192.63 60.6028 193.691 60.25 194.741 59.9576C196.471 59.4812 198.573 58.9174 201.353 59.0289C202.336 59.0681 204.082 59.1525 206.168 59.8912C208.342 60.6631 209.693 61.7215 212.018 63.5487C212.515 63.9437 214.264 65.3367 216.305 67.4774C216.754 67.9508 217.813 69.0966 219.073 70.6855C221.301 73.5017 222.887 76.1611 224.383 79.0255C228.29 86.5242 231.179 94.6712 232.343 98.0934C230.094 93.0008 227.901 88.87 226.186 85.8549C220.222 75.3591 216.203 71.575 214.867 70.3689C214.339 69.8925 211.24 67.0312 207.058 65.1949C205.342 64.4411 202.963 63.425 199.755 63.3375C199.167 63.3225 197.331 63.3014 193.716 64.2844C192.359 64.6552 191.288 65.014 190.375 65.3758C186.193 67.0161 184.628 67.8694 182.882 68.5146C180.847 69.2654 177.777 69.8955 173.402 69.1417L173.405 69.1478Z" fill="#DACFF3"/>
<path d="M186.931 153.564C187.975 154.671 190.7 157.252 194.943 157.984C199.074 158.696 202.288 157.252 204.579 156.22C210.064 153.754 213.13 149.696 214.11 148.291C218.555 141.932 215.91 138.947 219.67 135.048C224.087 130.468 229.092 133.164 233.287 128.828C236.612 125.39 236.576 120.482 236.453 114.747C236.392 111.979 236.012 104.646 229.367 88.6234C222.758 72.6792 218.163 67.9514 216.245 66.1272C211.427 61.5502 207.356 60.0999 205.188 59.521C201.905 58.6466 199.185 58.728 198.172 58.7853C193.52 59.0507 190.999 60.706 183.995 63.896C181.561 65.0056 177.943 66.5916 173.402 68.3494" stroke="#5E5573" stroke-width="1.8091" stroke-miterlimit="10"/>
<path d="M181.893 83.0056C185.179 91.1375 187.172 99.7759 187.996 108.508C188.282 111.411 188.086 114.363 188.213 117.261C188.508 121.588 189.44 125.881 190.947 129.949C191.463 131.327 191.991 132.741 192.217 134.212C192.446 135.702 192.437 137.194 192.346 138.678C191.958 144.648 189.238 150.174 185.77 154.944C183.132 158.52 179.761 161.551 176.01 163.921C172.284 166.321 168.3 168.169 164.32 170.056C157.624 173.138 150.439 175.086 143.148 176.102C137.326 176.949 131.371 176.804 125.53 176.473C119.672 176.186 113.816 175.589 108.03 174.603C97.8782 172.954 87.9251 169.906 78.5691 165.6C74.5257 163.761 70.5246 161.611 67.1205 158.719C65.0913 157.13 63.0561 155.161 61.6992 152.888C58.1082 147.014 57.4388 139.742 58.7956 133.1C59.3896 130.606 60.053 128.097 60.8128 125.655C61.6631 122.923 62.2872 120.131 62.3505 117.294C61.844 108.502 63.0651 99.6674 65.4411 91.2068C66.2491 88.4117 66.9878 85.5021 68.5226 82.9935C68.5678 82.9211 68.6673 82.9603 68.6673 82.9603C68.812 82.9663 68.9507 83.0899 68.9507 83.0899C65.04 96.3114 64.7807 97.6984 64.4219 99.9266C63.9697 102.758 63.448 108.544 63.5656 112.91C63.6048 114.381 63.7797 115.799 63.8189 117.291C63.843 118.82 63.6681 120.303 63.448 121.781C62.8118 125.423 61.5485 128.839 60.8218 132.442C59.2811 139.199 60.0198 146.879 64.0661 152.629C65.2722 154.39 66.7737 155.695 68.4773 157.058C70.6754 158.906 73.0664 160.393 75.6112 161.719C88.4558 168.395 102.588 172.393 116.961 174.03C125.585 174.899 134.329 175.686 142.958 174.585C150.113 173.657 157.184 171.808 163.772 168.847C167.71 167.026 171.711 165.211 175.368 162.898C179.028 160.631 182.312 157.733 184.902 154.29C188.3 149.689 191.026 144.382 191.463 138.605C191.569 137.179 191.593 135.735 191.394 134.336C191.183 132.916 190.703 131.568 190.212 130.214C188.728 126.065 187.833 121.69 187.589 117.288C187.495 114.354 187.727 111.466 187.477 108.544C187.154 104.781 186.738 101.977 186.364 99.8905C185.638 95.814 184.338 90.0158 181.89 83.0085L181.893 83.0056Z" fill="#5E5573"/>
<path d="M74.158 72.2776C71.6886 76.1098 70.1238 79.4235 69.2433 81.4285C68.8694 82.2788 67.3166 85.8518 65.8693 90.9987C64.817 94.7315 62.2421 103.886 62.3416 114.704C62.3627 116.793 62.4863 119.586 61.7717 123.442C61.0451 127.359 60.3154 127.711 59.4893 131.094C58.8953 133.534 57.1887 141.88 60.9697 149.734C61.9195 151.706 62.9808 153.165 63.7346 154.091C60.9154 156.937 56.9264 158.297 56.9264 158.297C53.2418 159.154 50.3352 158.741 48.7311 158.382C45.0707 157.562 42.5983 155.762 40.4485 154.2C39.0072 153.15 37.0232 151.709 35.3407 149.547C31.3366 144.394 33.797 141.262 31.0291 137.04C26.9345 130.793 19.2096 134.098 15.2537 127.416C13.4627 124.392 13.2366 120.653 13.0979 118.34C12.929 115.539 13.2275 113.257 13.7793 110.38C15.4165 101.823 17.8829 95.3104 20.1353 89.4399C21.6067 85.6046 22.9906 82.4085 24.9505 78.8265C27.3717 74.4063 29.8923 70.8694 33.5708 66.5788C35.2895 64.5707 39.1761 60.639 45.0828 59.4962C49.5935 58.6248 53.3172 59.7586 56.3685 60.6873C60.6621 61.9898 62.028 63.2742 70.766 67.1337C73.0183 68.1287 74.8847 68.9066 76.1239 69.4101C75.2797 70.58 74.6193 71.572 74.161 72.2836L74.158 72.2776Z" fill="#C0B4DF"/>
<path d="M18.8293 116.755C19.5711 114.098 20.6415 111.038 23.9913 104.245C32.6147 86.7598 37.053 77.7595 44.015 77.5273C45.2663 77.4851 46.1166 77.6751 47.6001 78.0067C58.4275 80.44 65.863 91.0051 65.863 91.0051C64.5122 95.6273 63.7734 99.5712 63.3513 102.481C62.8086 106.214 62.1664 110.571 62.3352 114.704C62.3473 114.976 62.4709 117.701 62.1664 120.647C62.0789 121.513 61.9493 122.438 61.7623 123.442C61.0357 127.359 60.306 127.712 59.4798 131.095C58.8859 133.534 57.1793 141.88 60.9603 149.735C61.9101 151.706 62.9714 153.166 63.7252 154.091C60.906 156.938 56.917 158.298 56.917 158.298C54.6194 158.491 51.1399 158.451 47.2594 157.092C42.9778 155.59 40.2461 153.19 38.6239 151.734C37.1706 150.431 35.7143 149.126 34.3695 146.988C31.4237 142.311 32.5876 139.344 29.7412 136.043C28.3181 134.39 26.5783 133.453 25.113 132.892C20.6686 132.102 18.7871 131.152 17.9278 130.371C17.7921 130.248 16.2031 128.788 16.2031 128.788C16.2031 128.788 17.4484 121.691 18.8263 116.752L18.8293 116.755Z" fill="#ACECC7"/>
<path d="M30.2877 90.4951C34.0868 84.6396 36.6376 82.6285 38.0276 81.6757C39.7704 80.4756 41.7785 79.1309 44.6339 78.9319C47.2631 78.751 49.2651 79.6344 51.4029 80.5752C53.3115 81.4134 54.6472 82.3209 58.19 85.0014C60.2072 86.5271 62.8243 88.5502 65.8727 91.0046C65.4264 92.6117 64.9953 94.3062 64.5973 96.0852C64.0968 98.3134 63.6897 100.451 63.3641 102.48C62.0856 100.97 53.9055 91.5836 42.68 92.0358C38.0608 92.2228 34.1199 94.1374 33.3058 94.5324C28.6112 96.8209 25.7318 100.032 24.3086 101.874C26.3468 96.9746 28.5539 93.1635 30.2907 90.492L30.2877 90.4951Z" fill="#8EC2A7"/>
<path d="M18.8973 112.868C16.3374 120.985 15.9062 128.984 15.9062 128.984L16.2047 129.491C17.0731 125.858 17.9445 122.224 18.8129 118.591C19.1747 117.313 19.5637 116.01 19.9948 114.695C22.1416 108.095 24.804 102.252 27.6141 97.1562C28.4373 95.4707 29.7067 93.1158 31.5279 90.4866C35.2395 85.1437 37.1029 82.4813 40.1 81.2059C49.5706 77.1807 63.4856 89.3288 64.6826 91.7198C64.6826 91.7198 65.2676 92.8958 65.6143 92.7993C65.7741 92.7571 65.9098 92.3138 66.1751 91.4304C66.2204 91.2826 66.2475 91.1922 66.4917 90.3389C66.4827 90.3298 60.7508 82.6381 52.3717 79.0199C46.7665 76.5987 43.1 77.3525 42.0839 77.5968C40.6457 77.9435 39.2286 78.5496 37.8567 79.4511C33.8314 82.1015 31.6093 85.3548 28.8866 89.8354C26.6101 93.5832 25.2352 96.6677 23.8874 99.7281C22.3225 103.28 21.1979 106.313 20.4501 108.478C19.6963 110.652 19.2651 111.719 18.9033 112.877L18.8973 112.868Z" fill="#5E5573"/>
<path d="M66.6132 69.3438C64.8674 68.6986 63.3025 67.8452 59.1205 66.205C58.2069 65.8431 57.1365 65.4844 55.7797 65.1135C52.1645 64.1306 50.3282 64.1516 49.7403 64.1667C46.5321 64.2542 44.1562 65.2703 42.4375 66.0241C38.2555 67.8603 35.1619 70.7187 34.6282 71.1981C33.2955 72.4042 29.2733 76.1852 23.3093 86.684C21.5937 89.6992 19.4047 93.8299 17.1523 98.9226C18.3162 95.5003 21.2017 87.3534 25.1124 79.8546C26.6049 76.9902 28.1909 74.3279 30.4221 71.5147C31.6824 69.9287 32.7347 68.78 33.19 68.3066C35.2313 66.1658 36.9771 64.7698 37.4776 64.3778C39.8053 62.5506 41.1531 61.4893 43.327 60.7204C45.4165 59.9817 47.1623 59.8973 48.1423 59.8581C50.9222 59.7465 53.0238 60.3073 54.7545 60.7867C55.8038 61.0762 56.8651 61.432 59.7868 62.6772C63.7457 64.3627 65.8563 65.4422 69.1459 66.9498C70.7289 67.6764 73.1078 68.7437 76.0898 69.9769C71.7178 70.7307 68.6454 70.1006 66.6102 69.3498L66.6132 69.3438Z" fill="#DACFF3"/>
<path d="M62.5605 154.383C61.5173 155.49 58.7916 158.071 54.5492 158.804C50.4184 159.515 47.2042 158.071 44.9127 157.04C39.4281 154.573 36.3617 150.515 35.3818 149.11C30.9374 142.751 33.5817 139.766 29.8218 135.867C25.4046 131.287 20.3994 133.983 16.2053 129.647C12.8796 126.21 12.9158 121.301 13.0394 115.566C13.0997 112.798 13.4796 105.465 20.125 89.4428C26.7343 73.4985 31.3294 68.7708 33.247 66.9466C38.0653 62.3696 42.1357 60.9193 44.3036 60.3403C47.5872 59.4659 50.3068 59.5474 51.3199 59.6047C55.9724 59.87 58.493 61.5253 65.4973 64.7154C67.9305 65.8249 71.5487 67.4109 76.0896 69.1688" stroke="#5E5573" stroke-width="1.8091" stroke-miterlimit="10"/>
<path d="M68.9466 83.0843C65.9013 91.0594 63.8027 99.4718 63.3384 108.008C63.1665 111.683 63.8932 115.368 63.3686 119.04C63.0821 121.495 62.6479 123.94 61.867 126.292C61.472 127.468 61.0499 128.598 60.7544 129.765C60.4499 130.932 60.2479 132.123 60.0941 133.326C59.6147 136.944 59.2257 140.569 59.7473 144.178C60.6579 150.805 64.4178 154.692 69.5677 158.56C83.8023 168.965 107.447 173.907 124.911 174.733C129.769 174.947 134.644 175.149 139.489 174.797C149.138 174.082 158.566 171.242 167.181 166.879C171.423 164.663 175.822 162.477 179.498 159.401C182.196 157.064 184.795 154.517 186.894 151.637C188.935 148.8 190.367 145.51 190.624 142.001C190.943 137.559 190.126 133.012 188.941 128.719L188.824 128.282L188.763 128.062L188.733 127.953C188.733 127.932 188.682 127.817 188.76 127.989L188.7 127.829C187.714 122.876 187.186 118.826 186.888 116.118C186.131 109.25 186.312 105.988 185.356 99.3331C184.786 95.35 184.096 92.1569 183.629 90.176C183.089 87.9749 181.922 83.2291 181.943 83.0753C181.958 82.9668 182.009 82.9426 182.009 82.9426C182.064 82.9245 182.121 82.9517 182.142 83.006C182.881 84.9146 184.325 88.7257 185.049 90.6373L185.067 90.7338C185.085 90.7157 185.109 90.8514 185.139 90.9388L185.221 91.2223C186.285 95.8506 186.918 99.8547 187.316 102.99C187.898 107.61 188.187 109.916 188.163 112.865C188.154 114.035 188.094 115.871 188.362 118.44C188.601 120.714 188.959 122.417 189.086 122.921C189.463 124.407 190.132 126.59 190.431 127.585C190.922 129.286 191.405 131.019 191.791 132.747C192.677 137.068 193.108 141.63 191.962 145.951C190.627 150.907 187.283 155.005 183.659 158.503C182.79 159.362 181.831 160.267 180.9 161.048C177.064 164.304 172.593 166.514 168.155 168.781C159.284 173.217 149.539 175.997 139.628 176.624C134.692 176.931 129.76 176.663 124.842 176.395C107.113 175.394 83.2596 170.171 68.8923 159.465C63.5585 155.382 59.687 151.263 58.8126 144.298C58.3181 140.602 58.7614 136.842 59.289 133.199C59.4609 131.975 59.687 130.754 60.0127 129.551C60.3353 128.345 60.7846 127.184 61.1826 126.041C61.9755 123.75 62.4338 121.353 62.7384 118.947C63.4107 113.679 62.9494 109.108 62.8379 107.968C62.3886 103.401 63.2299 95.9079 68.9466 83.0813V83.0843Z" fill="#5E5573"/>
<path d="M124.751 166.779C131.348 166.779 136.697 158.801 136.697 148.96C136.697 139.118 131.348 131.14 124.751 131.14C118.153 131.14 112.805 139.118 112.805 148.96C112.805 158.801 118.153 166.779 124.751 166.779Z" fill="#8F1916" stroke="#5E5573" stroke-width="1.8091" stroke-miterlimit="10"/>
<path d="M114.09 156.235C115.57 154.842 119.406 151.64 124.733 151.746C130.115 151.848 133.927 155.261 135.377 156.718C135.097 157.927 134.487 159.835 133.061 161.744C132.238 162.848 129.365 166.701 124.869 166.776C119.466 166.867 116.206 161.433 115.742 160.658C114.732 158.976 114.298 157.366 114.093 156.235H114.09Z" fill="#F38373" stroke="#5E5573" stroke-width="1.8091" stroke-miterlimit="10"/>
<path d="M91.7969 130.606C93.5547 129.723 95.1226 128.906 96.594 127.706C98.0805 126.518 99.1991 125.161 100.423 123.617C100.598 127.911 95.9488 131.634 91.7969 130.606Z" fill="#5E5573"/>
<path d="M151.086 122.806C153.031 125.767 155.609 128.134 158.693 129.84C159.13 130.106 159.595 130.314 160.044 130.606C155.829 130.389 151.725 127.048 151.086 122.806Z" fill="#5E5573"/>
<path d="M89.9609 93.5646C94.6917 93.0972 100.442 95.8109 101.41 100.813C98.8647 96.7305 94.3962 94.8731 89.9609 93.5646Z" fill="#5E5573"/>
<path d="M151.088 100.264C151.042 98.778 151.914 97.4031 152.936 96.3809C154.851 94.5628 157.489 93.7035 160.082 93.5346C162.129 93.5225 162.193 93.4803 160.193 94.1165C156.723 95.3075 152.737 96.6975 151.088 100.264Z" fill="#5E5573"/>
<path d="M161.308 165.399C162.731 164.25 164.064 163.698 164.209 163.635C165.524 163.08 169.488 160.617 180.838 152.473C180.177 153.884 179.535 155.081 178.98 156.04C178.208 157.375 177.277 158.838 176.158 160.348C175.633 161.06 175.136 161.684 174.693 162.224C168.991 169.128 162.771 172.273 157.91 174.664C155.127 176.033 152.299 177.067 151.575 177.33C151.554 177.339 151.458 177.402 151.44 177.378C151.358 177.26 153.55 175.475 155.791 172.768C157.292 170.95 158.151 169.909 158.812 168.565C158.938 168.305 159.237 167.672 159.792 166.945C160.262 166.321 160.766 165.839 161.314 165.396H161.308V165.399Z" fill="#A394C5"/>
<path d="M66.7092 148.884C72.1154 154.206 77.3708 158.102 81.779 160.924C87.5229 164.602 98.5885 171.525 114.4 173.711C117.961 174.203 124.51 174.845 132.648 173.943C137.252 173.434 144.962 172.517 153.371 168.54C153.371 168.54 162.221 164.355 177.854 149.303C177.854 149.303 173.012 156.087 167.853 162.199C159.709 171.854 154.978 174.86 153.064 175.96C150.124 177.649 147.036 178.783 147.033 178.783C143.834 179.916 141.298 180.402 140.575 180.534C137.692 181.059 133.39 181.514 128.053 180.851C125.128 180.652 122.722 180.438 121.061 180.281C112.033 179.419 106.889 178.9 100.337 176.874C98.1996 176.214 96.6377 175.617 95.0035 174.993C91.9039 173.808 87.2093 171.842 81.5348 168.682C78.4352 166.957 77.1115 166.013 75.9054 164.997C74.0662 163.451 70.5143 160.384 68.3012 154.893C67.3363 152.499 66.9112 150.35 66.7031 148.893L66.7092 148.887V148.884Z" fill="#A394C5"/>
<path d="M69.404 179.862C71.4513 181.644 73.3689 182.85 76.1157 184.358C79.6857 186.315 84.7934 188.853 91.4147 191.338C91.4027 191.398 91.0981 192.99 91.0861 193.051C90.869 194.181 90.5464 195.861 90.1242 198.056C87.703 199.066 85.7311 199.473 84.3351 199.66C84.3351 199.66 81.2144 200.073 78.5882 201.056C78.4284 201.113 78.1691 201.219 77.8555 201.39C77.5992 201.532 76.3932 202.443 75.7268 203.338C73.9418 205.741 73.4684 209.474 73.4684 209.474C72.7086 215.441 75.0303 224.369 80.6475 227.692C81.4285 228.15 83.123 229.154 85.3392 229.079C85.8578 229.061 86.4487 228.925 90.4197 227.435C92.1534 226.787 93.5163 226.202 95.0601 225.539C96.9958 224.71 98.5908 223.986 99.7155 223.461C104.145 224.08 107.826 224.472 110.455 224.722C112.132 224.882 126.14 226.172 136.865 225.491C138.753 225.37 140.788 225.195 140.788 225.195C143.42 224.969 146.457 224.65 149.828 224.191C153.144 226.172 156.087 227.14 158.155 227.65C161.457 228.464 163.785 229.037 166.492 227.996C169.746 226.745 171.576 223.923 172.285 222.801C175.646 217.461 176.69 208.594 172.987 203.89C171.549 202.063 169.218 201.188 164.599 199.406C162.262 198.505 160.257 197.944 158.834 197.594C157.941 193.06 157.462 190.602 157.462 190.602C160.338 189.921 164.3 188.76 168.751 186.707C176.461 183.155 184.749 179.334 188.597 170.829C192.809 161.521 190.014 150.332 185.636 146.804C183.48 145.067 181.104 144.742 181.104 144.742C177.881 144.298 175.429 145.899 174.95 146.225C173.207 147.413 172.411 148.89 171.498 150.636C169.375 154.695 170.02 156.374 168.35 160.336C167.05 163.417 165.374 165.45 164.264 166.773C162.714 168.625 159.892 171.504 155.397 173.853C151.821 175.566 148.784 176.337 146.662 176.726C144.4 177.139 144.955 176.793 137.773 177.504C134.571 177.821 132.647 178.074 129.288 178.228C125.549 178.4 120.267 178.466 113.603 177.878C102.64 176.907 97.1586 176.422 92.9917 173.693C87.2538 169.933 84.0909 164.219 83.6295 163.363C82.7371 161.711 81.8958 160.155 81.2958 157.87C80.6566 155.436 80.8556 154.333 79.9329 152.017C79.4746 150.868 78.9138 149.457 77.6565 148.091C74.4876 144.645 69.9075 144.738 69.6723 144.748C68.7527 144.781 66.3768 144.901 64.2661 146.572C62.1676 148.236 61.5193 150.5 60.9072 152.629C60.4339 154.275 60.1836 156.012 60.1836 158.379C60.1836 161.907 60.1806 167.135 63.2621 172.638C65.2762 176.235 67.7607 178.436 69.398 179.862H69.404Z" fill="#C0B4DF"/>
<path d="M86.3597 179.428C87.9065 176.865 87.3939 174.124 87.216 173.343C86.6612 171.498 86.1064 169.653 85.5516 167.808C83.4681 164.382 82.4943 161.397 81.9907 159.26C81.1796 155.807 81.3364 153.455 79.7143 150.115C78.7494 148.128 77.5855 146.677 76.7383 145.752C76.7383 145.752 80.0128 147.154 80.7726 147.531C84.0742 149.171 84.0832 153.437 86.218 157.978C89.7427 165.48 96.8736 169.062 98.8757 170.066C101.788 171.528 104.188 172.026 108.989 173.015C116.885 174.646 123.148 174.724 124.912 174.73C134.093 174.758 142.282 174.782 151.086 170.156C157.138 166.975 163.358 163.707 165.933 157.137C167.16 154.007 168.14 148.655 172.208 146.578C172.94 146.204 174.903 145.36 175.132 145.716C175.304 145.981 174.46 146.834 173.67 147.552C173.215 148.076 172.521 148.942 171.843 150.109C169.69 153.796 170.109 156.308 168.354 160.336C167.368 162.594 167.024 162.296 165.837 164.642C164.501 167.283 160.97 174.26 163.828 178.828C166.81 183.592 175.645 182.712 176.972 182.564C173.399 184.602 169.189 186.677 164.353 188.504C161.727 189.496 159.206 190.304 156.83 190.964C156.076 188.148 155.326 185.335 154.572 182.519C148.719 184.273 141.884 185.775 134.204 186.481C117.66 188 103.703 185.22 93.8282 182.187C93.0232 185.232 92.2211 188.281 91.4161 191.326C86.5255 188.591 81.6349 185.856 76.7413 183.122C80.7062 183.924 84.5627 182.398 86.3627 179.419L86.3597 179.428Z" fill="#A394C5"/>
<path d="M90.9511 209.89C91.4396 210.719 91.9521 211.735 92.4014 212.945C93.312 215.402 93.5683 217.645 93.6286 219.228C94.506 218.815 95.5221 218.414 96.6739 218.097C98.9112 217.482 100.901 217.401 102.427 217.479C110.221 218.993 116.942 219.56 122.17 219.738C130.284 220.021 134.339 220.16 137.454 219.288C140.985 218.3 144.277 216.671 149.041 217.371C151.541 217.739 153.531 218.613 154.833 219.307C154.791 218.173 154.843 216.716 155.171 215.076C155.774 212.061 157.019 209.899 157.861 208.684C157.984 209.094 158.295 209.944 159.049 210.599C159.368 210.879 159.682 211.045 159.938 211.151C159.673 211.829 159.344 212.77 159.034 213.912C158.738 214.998 158.415 216.219 158.28 217.886C158.244 218.315 158.162 219.494 158.28 221.016C158.346 221.882 158.388 222.403 158.56 223.124C159.031 225.099 159.956 226.329 160.24 226.685C160.454 226.953 160.644 227.155 160.767 227.282C159.709 226.986 158.82 226.73 158.153 226.525C156.839 226.127 156.404 225.976 156.097 225.858C155.322 225.566 155.135 225.445 154.05 224.963C152.162 224.125 151.194 223.703 149.901 223.431C149.111 223.265 148.411 223.199 148.251 223.184C147.977 223.16 147.395 223.115 146.653 223.13C145.474 223.154 144.609 223.314 143.294 223.546C141.591 223.853 140.738 224.001 140.107 224.11C139.703 224.176 137.933 224.465 135.784 224.655C134.065 224.809 132.624 224.857 131.083 224.879C128.879 224.909 126.672 224.879 121.992 224.695C113.83 224.378 111.183 224.107 109.853 223.935C107.149 223.591 106.292 223.458 106.292 223.458C104.857 223.238 104.441 223.139 103.588 223.072C102.979 223.024 101.634 222.955 100.205 223.154C98.7513 223.356 97.4096 223.941 94.7261 225.117C93.0798 225.834 92.4406 226.196 90.7099 226.863C89.7782 227.224 89.0003 227.49 88.4727 227.662C89.5551 226.184 90.0888 224.809 90.3722 223.878C91.732 219.379 90.33 214.889 89.6576 212.734C89.5008 212.236 89.3591 211.832 89.2566 211.561C89.4616 211.449 89.6878 211.304 89.926 211.111C90.4265 210.701 90.7582 210.24 90.9632 209.884H90.9511H90.9541L90.9511 209.89Z" fill="#A394C5"/>
<path d="M170.132 201.397C165.054 202.533 162.015 208.015 160.652 213.337C159.771 216.949 159.422 222.008 160.899 225.415C161.424 226.618 162.229 227.671 163.254 228.533C163.29 228.563 163.296 228.621 163.269 228.663C163.248 228.693 163.215 228.708 163.182 228.696C161.933 228.286 160.766 227.36 159.958 226.094C157.48 222.259 158.104 217.091 159.449 212.89C160.314 210.08 161.605 207.439 163.362 205.235C165.627 202.395 168.521 201.047 170.101 201.219C170.156 201.225 171.081 201.33 171.078 201.378C171.078 201.418 170.548 201.409 170.128 201.397H170.132Z" fill="#5E5573"/>
<path d="M168.475 200.888C168.279 200.716 166.171 198.904 164.145 199.862C163.801 200.025 162.511 200.637 162.405 201.982C162.333 202.917 162.854 203.879 163.729 204.421C164.452 203.701 165.333 202.917 166.394 202.169C167.127 201.653 167.823 201.231 168.475 200.888Z" fill="white" stroke="#5E5573" stroke-width="1.8091" stroke-linecap="round" stroke-linejoin="round"/>
<path d="M163.228 205.009C161.883 203.861 160.107 204.035 159.136 205.157C158.141 206.309 158.385 208 158.4 208.1C158.69 209.912 160.204 210.494 160.306 210.527C160.695 209.517 161.199 208.389 161.853 207.201C162.311 206.378 162.775 205.649 163.225 205.006V205.012L163.228 205.009Z" fill="white" stroke="#5E5573" stroke-width="1.8091" stroke-linecap="round" stroke-linejoin="round"/>
<path d="M93.8279 182.196C92.9505 184.865 92.1032 187.919 91.4157 191.335C90.9665 193.578 90.6378 195.707 90.3996 197.691C88.9192 198.237 86.685 199.012 83.917 199.784C80.136 200.836 78.9329 200.661 77.3801 202.066C75.372 203.89 74.6303 206.553 74.383 207.457C73.8403 209.408 73.8614 210.997 73.8916 212.264C73.9097 213.081 74.0333 216.56 75.7911 220.6C76.6504 222.572 77.6394 224.843 79.8254 226.667C80.537 227.261 82.5542 228.868 85.3462 229.07C85.9372 229.112 87.1915 229.136 91.4911 227.436C95.9777 225.66 96.445 224.903 98.8089 224.3C101.589 223.588 103.739 223.914 105.819 224.195C105.819 224.195 114.738 225.376 124.528 225.654C129.371 225.793 133.634 225.916 139.333 225.084C144.51 224.324 146.832 223.377 150.691 224.514C153.239 225.265 154.14 226.245 158.072 227.409C161.693 228.479 163.502 229.013 165.263 228.654C170.947 227.502 175.479 218.746 175.156 211.079C175.084 209.396 174.939 205.959 172.84 203.263C170.603 200.384 167.045 199.506 163.499 198.638C163.499 198.638 163.379 198.608 158.85 197.61C158.307 195.957 157.771 194.254 157.249 192.502C156.227 189.068 155.343 185.736 154.581 182.531" stroke="#5E5573" stroke-width="1.8091" stroke-linecap="round" stroke-linejoin="round"/>
<path d="M160.521 212.273C162.792 205.003 167.628 200.333 171.319 201.846C175.012 203.36 176.164 210.482 173.897 217.751C171.626 225.021 166.79 229.691 163.099 228.178C159.406 226.664 158.254 219.542 160.521 212.273Z" fill="#DACFF3"/>
<path d="M78.046 201.779C78.046 201.731 78.9716 201.626 79.0229 201.62C80.6028 201.448 83.5005 202.795 85.7618 205.636C87.5227 207.84 88.8132 210.478 89.6755 213.291C91.0173 217.491 91.6444 222.659 89.1659 226.495C88.3518 227.758 87.185 228.687 85.9427 229.097C85.9096 229.112 85.8764 229.097 85.8553 229.064C85.8281 229.021 85.8342 228.964 85.8704 228.934C86.8955 228.069 87.7036 227.016 88.2252 225.816C89.6996 222.409 89.3499 217.347 88.4725 213.738C87.1126 208.419 84.0703 202.937 78.9928 201.797C78.5706 201.807 78.046 201.816 78.043 201.779H78.046Z" fill="#5E5573"/>
<path d="M82.725 202.569C83.7833 203.317 84.6698 204.098 85.3904 204.822C86.2678 204.279 86.7864 203.317 86.7141 202.382C86.6085 201.041 85.318 200.423 84.9743 200.263C82.9481 199.304 80.8405 201.116 80.6445 201.288C81.2928 201.632 81.9923 202.054 82.725 202.569Z" fill="white" stroke="#5E5573" stroke-width="1.8091" stroke-linecap="round" stroke-linejoin="round"/>
<path d="M87.2656 207.601C87.9229 208.786 88.4264 209.917 88.8123 210.927C88.9118 210.894 90.4285 210.309 90.7179 208.5C90.736 208.397 90.9802 206.709 89.9822 205.557C89.0144 204.435 87.2384 204.267 85.8906 205.409C86.3399 206.049 86.8073 206.778 87.2625 207.604V207.598L87.2656 207.601Z" fill="white" stroke="#5E5573" stroke-width="1.8091" stroke-linecap="round" stroke-linejoin="round"/>
<path d="M77.7849 202.259C81.4785 200.745 86.3148 205.413 88.5822 212.686C90.8496 219.955 89.7008 227.077 86.0042 228.591C82.3107 230.104 77.4744 225.437 75.2069 218.164C72.9365 210.894 74.0883 203.773 77.7849 202.259Z" fill="#DACFF3"/>
<path d="M149.789 198.173C150.89 197.576 151.876 196.527 153.067 196.03C154.285 195.574 155.557 194.977 156.854 195.074C157.743 195.176 158.569 195.43 159.353 195.99V196.198C158.524 196.756 157.71 196.967 156.92 197.136C155.747 197.332 154.562 197.025 153.401 197.35C152.171 197.516 151.113 198.222 149.834 198.375L149.789 198.176V198.173Z" fill="#5E5573"/>
<path d="M154.164 204.297C154.809 203.245 155.569 202.135 156.269 201.122C157.089 200.1 157.77 198.761 158.976 198.251C159.817 197.911 160.855 197.875 161.599 198.532L161.584 198.74C160.813 199.243 160.315 199.666 159.775 200.103C159.236 200.576 158.566 200.835 158.002 201.318C157.704 201.565 157.408 201.834 157.104 202.105C156.205 202.88 155.219 203.73 154.291 204.448L154.164 204.3V204.297Z" fill="#5E5573"/>
<path d="M99.4642 198.161C98.6049 198.083 97.7998 197.664 97.043 197.423C96.2862 197.181 95.5203 197.037 94.7394 196.976C93.9524 196.907 93.1655 197.103 92.3785 196.925C91.5886 196.756 90.7745 196.542 89.9453 195.987V195.779C90.7293 195.215 91.5554 194.965 92.4449 194.863C93.3132 194.748 94.1605 195.098 94.9897 195.348C95.8339 195.598 96.6541 195.972 97.4079 196.476C98.1556 196.991 98.7647 197.573 99.5124 197.959L99.4672 198.158L99.4642 198.161Z" fill="#5E5573"/>
<path d="M95.005 204.231C94.0763 203.513 93.0843 202.669 92.1918 201.888C91.6129 201.364 91.028 200.824 90.3707 200.474C89.3606 199.871 88.845 199.232 87.7143 198.523L87.6992 198.315C88.444 197.664 89.4812 197.697 90.3224 198.035C91.5285 198.541 92.2099 199.883 93.0301 200.905C93.7266 201.915 94.4864 203.028 95.1346 204.08L95.008 204.228L95.005 204.231Z" fill="#5E5573"/>
<path d="M82.3594 161.009C83.2428 162.938 84.8288 165.776 87.5816 168.544C90.9074 171.884 94.2904 173.464 95.5477 174.004C97.7548 174.951 99.6152 175.361 101.476 175.771C104.153 176.359 106.384 176.585 108.278 176.754C109.809 176.89 111.353 176.959 112.927 177.043L112.948 177.224C111.793 177.529 110.195 177.873 108.269 178.026C106.221 178.189 100.526 178.403 94.8753 175.672C86.1464 171.453 82.9956 162.86 82.3624 161.015L82.3594 161.009Z" fill="#5E5573"/>
<path d="M167.923 162.254C166.567 164.735 162.327 171.733 153.809 175.496C152.043 176.277 146.932 178.463 140.238 177.929C138.296 177.776 136.692 177.429 135.559 177.127L135.58 176.947C137.154 176.865 138.697 176.793 140.229 176.657C142.21 176.482 144.357 176.271 147.031 175.674C148.602 175.324 150.668 174.854 153.134 173.814C156.068 172.575 158.049 171.169 159.583 170.066C161.809 168.468 164.848 165.962 167.923 162.248V162.254Z" fill="#5E5573"/>
<path d="M157.587 190.868C159.692 190.22 162.683 189.222 166.186 187.778C170.999 185.797 174.614 184.307 178.558 181.503C181.766 179.224 186.029 176.187 188.601 170.835C192.506 162.709 191.499 151.354 185.64 146.811C184.992 146.307 182.909 144.736 180.083 144.748C175.705 144.766 172.696 148.574 172.15 149.298C169.386 152.955 170.938 155.244 167.926 161.241C167.573 161.944 166.355 164.298 164.272 166.777C162.532 168.848 159.14 172.253 153.375 174.731" stroke="#5E5573" stroke-width="1.8091" stroke-miterlimit="10"/>
<path d="M178.572 146.071C178.391 154.272 173.371 148.35 173.371 148.35C174.671 145.408 178.572 146.071 178.572 146.071Z" fill="white" stroke="#5E5573" stroke-width="1.8091" stroke-linecap="round" stroke-linejoin="round"/>
<path d="M184.019 147.226C180.292 153.808 178.215 146.131 178.215 146.131C180.693 144.47 184.019 147.226 184.019 147.226Z" fill="white" stroke="#5E5573" stroke-width="1.8091" stroke-linecap="round" stroke-linejoin="round"/>
<path d="M183.834 146.219C183.517 154.396 188.845 150.205 188.845 150.205C187.739 146.861 183.834 146.219 183.834 146.219Z" fill="white" stroke="#5E5573" stroke-width="1.8091" stroke-linecap="round" stroke-linejoin="round"/>
<path d="M90.9193 190.955C88.1212 189.921 84.2015 188.311 79.721 185.923C72.2373 181.931 68.4985 179.938 65.3929 175.912C58.9947 167.621 60.1827 157.882 60.4691 155.533C60.8219 152.632 61.3224 148.984 64.2773 146.572C66.9698 144.377 70.181 144.443 70.5096 144.455C73.4253 144.558 75.4213 146.05 76.1209 146.59C76.8505 147.151 77.6013 147.886 78.3581 148.96C80.5381 152.056 80.5894 154.875 81.307 157.87C81.307 157.87 82.6155 163.342 86.4538 168.118C87.883 169.897 90.5484 172.653 95.1375 174.821" stroke="#5E5573" stroke-width="1.8091" stroke-miterlimit="10"/>
<path d="M77.6598 148.99C77.6598 148.99 71.7772 154.062 72.8748 145.93C72.8748 145.93 76.8337 145.881 77.6598 148.99Z" fill="white" stroke="#5E5573" stroke-width="1.8091" stroke-linecap="round" stroke-linejoin="round"/>
<path d="M73.0951 146.469C73.0951 146.469 69.8508 153.73 67.1914 146.65C67.1914 146.65 70.9061 144.443 73.0951 146.469Z" fill="white" stroke="#5E5573" stroke-width="1.8091" stroke-linecap="round" stroke-linejoin="round"/>
<path d="M62.1602 149.071C62.1602 149.071 66.7734 154.04 67.7292 145.911C67.7292 145.911 63.7733 145.938 62.1602 149.071Z" fill="white" stroke="#5E5573" stroke-width="1.8091" stroke-linecap="round" stroke-linejoin="round"/>
<g filter="url(#filter0_dd_2106_716)">
<rect x="210.504" y="212.5" width="37.2472" height="171.337" rx="18.6236" transform="rotate(90 210.504 212.5)" fill="#5E5573" shape-rendering="crispEdges"/>
<path d="M92.5233 222.28C92.5233 222.971 91.9479 223.569 91.2576 223.569H87.5986V235.858C87.5986 236.571 87.0463 237.124 86.3329 237.124C85.6425 237.124 85.0672 236.571 85.0672 235.858V223.569H81.4312C80.7178 223.569 80.1655 222.971 80.1655 222.28C80.1655 221.567 80.7178 221.015 81.4312 221.015H91.2576C91.9479 221.015 92.5233 221.567 92.5233 222.28ZM97.9006 237.124C94.7479 237.101 92.3086 234.5 92.2856 231.37C92.3086 228.241 94.7479 225.617 97.9006 225.617C100.892 225.617 103.263 227.849 103.447 230.956C103.447 230.979 103.447 231.025 103.447 231.071C103.447 231.117 103.447 231.232 103.424 231.278C103.355 231.831 102.871 232.199 102.227 232.199H94.909C95.0241 232.728 95.2772 233.326 95.6914 233.718C96.1747 234.27 97.0952 234.684 97.9006 234.753C98.7291 234.822 99.7186 234.615 100.294 234.178C100.777 233.672 101.721 233.741 102.02 234.109C102.319 234.431 102.549 235.121 102.02 235.605C100.892 236.64 99.5345 237.124 97.9006 237.124ZM97.9006 227.803C95.9446 227.896 94.978 229.299 94.7939 230.243H101.307C101.076 229.322 99.9027 227.965 97.9006 227.803ZM112.603 225.64C113.294 225.64 113.823 226.17 113.823 226.837C113.823 227.481 113.294 228.057 112.603 228.057C112.074 228.057 111.614 228.195 111.222 228.494C110.785 228.77 110.44 229.161 110.164 229.598C109.612 230.335 109.335 231.209 109.22 231.531V235.904C109.22 236.571 108.645 237.124 107.955 237.124C107.287 237.124 106.735 236.571 106.735 235.904V226.837C106.735 226.17 107.287 225.64 107.955 225.64C108.645 225.64 109.22 226.17 109.22 226.837V226.998C109.358 226.837 109.542 226.653 109.704 226.538C110.463 226.031 111.453 225.617 112.603 225.64ZM118.229 237.124C117.515 237.124 116.963 236.548 116.963 235.858V222.28C116.963 221.59 117.515 221.015 118.229 221.015C118.942 221.015 119.517 221.59 119.517 222.28V230.243L124.235 225.525C124.718 225.042 125.547 225.042 126.03 225.525C126.536 226.031 126.536 226.837 126.03 227.32L122.578 230.772L126.122 235.029C126.559 235.582 126.49 236.387 125.938 236.824C125.708 237.031 125.409 237.124 125.132 237.124C124.764 237.124 124.396 236.962 124.166 236.663L120.783 232.567L119.517 233.833V235.858C119.517 236.548 118.942 237.124 118.229 237.124ZM134.18 237.124C131.028 237.101 128.588 234.5 128.565 231.37C128.588 228.241 131.028 225.617 134.18 225.617C137.172 225.617 139.542 227.849 139.726 230.956C139.726 230.979 139.726 231.025 139.726 231.071C139.726 231.117 139.726 231.232 139.703 231.278C139.634 231.831 139.151 232.199 138.507 232.199H131.189C131.304 232.728 131.557 233.326 131.971 233.718C132.455 234.27 133.375 234.684 134.18 234.753C135.009 234.822 135.998 234.615 136.574 234.178C137.057 233.672 138.001 233.741 138.3 234.109C138.599 234.431 138.829 235.121 138.3 235.605C137.172 236.64 135.814 237.124 134.18 237.124ZM134.18 227.803C132.224 227.896 131.258 229.299 131.074 230.243H137.586C137.356 229.322 136.183 227.965 134.18 227.803ZM143.808 224.029C143.118 224.029 142.543 223.431 142.543 222.764V222.303C142.543 221.567 143.118 221.038 143.808 221.038C144.499 221.038 145.051 221.567 145.051 222.303V222.764C145.051 223.431 144.499 224.029 143.808 224.029ZM142.52 241.197C141.783 241.197 141.254 240.667 141.254 239.931C141.254 239.264 141.783 238.711 142.52 238.711V226.883C142.52 226.17 143.095 225.617 143.762 225.617C144.476 225.617 145.005 226.17 145.005 226.883V238.711C145.005 240.069 143.9 241.197 142.52 241.197ZM158.767 232.337C158.767 234.96 156.558 237.124 153.911 237.124C151.288 237.124 149.125 234.96 149.125 232.337V226.837C149.125 226.193 149.677 225.617 150.344 225.617C151.035 225.617 151.564 226.193 151.564 226.837V232.337C151.564 233.649 152.6 234.684 153.911 234.684C155.246 234.684 156.305 233.649 156.328 232.337V226.837C156.328 226.193 156.834 225.617 157.524 225.617C158.169 225.617 158.767 226.193 158.767 226.837V232.337ZM167.472 225.617C168.163 225.617 168.761 226.17 168.761 226.883C168.761 227.573 168.163 228.149 167.472 228.149H166.897V234.569C167.61 234.569 168.163 235.144 168.163 235.858C168.163 236.571 167.61 237.124 166.897 237.124C165.493 237.124 164.343 235.973 164.343 234.569V228.149H163.675C162.962 228.149 162.41 227.573 162.41 226.883C162.41 226.17 162.962 225.617 163.675 225.617H164.343V222.28C164.343 221.567 164.918 221.015 165.631 221.015C166.345 221.015 166.897 221.567 166.897 222.28V225.617H167.472Z" fill="white"/>
</g>
<defs>
<filter id="filter0_dd_2106_716" x="36.1882" y="212.5" width="177.295" height="43.2066" filterUnits="userSpaceOnUse" color-interpolation-filters="sRGB">
<feFlood flood-opacity="0" result="BackgroundImageFix"/>
<feColorMatrix in="SourceAlpha" type="matrix" values="0 0 0 0 0 0 0 0 0 0 0 0 0 0 0 0 0 0 127 0" result="hardAlpha"/>
<feOffset dy="2.97977"/>
<feGaussianBlur stdDeviation="1.48989"/>
<feComposite in2="hardAlpha" operator="out"/>
<feColorMatrix type="matrix" values="0 0 0 0 0 0 0 0 0 0 0 0 0 0 0 0 0 0 0.25 0"/>
<feBlend mode="normal" in2="BackgroundImageFix" result="effect1_dropShadow_2106_716"/>
<feColorMatrix in="SourceAlpha" type="matrix" values="0 0 0 0 0 0 0 0 0 0 0 0 0 0 0 0 0 0 127 0" result="hardAlpha"/>
<feOffset dy="2.97977"/>
<feGaussianBlur stdDeviation="1.48989"/>
<feComposite in2="hardAlpha" operator="out"/>
<feColorMatrix type="matrix" values="0 0 0 0 0 0 0 0 0 0 0 0 0 0 0 0 0 0 0.25 0"/>
<feBlend mode="normal" in2="effect1_dropShadow_2106_716" result="effect2_dropShadow_2106_716"/>
<feBlend mode="normal" in="SourceGraphic" in2="effect2_dropShadow_2106_716" result="shape"/>
</filter>
<linearGradient id="paint0_linear_2106_716" x1="125" y1="0" x2="125" y2="250" gradientUnits="userSpaceOnUse">
<stop stop-color="#DB7396"/>
<stop offset="0.74" stop-color="#FAC0D8"/>
</linearGradient>
</defs>
</svg>
