<svg width="511" height="497" viewBox="0 0 511 497" fill="none" xmlns="http://www.w3.org/2000/svg">
<path d="M308.734 496.94C391.113 496.94 457.895 486.161 457.895 472.865C457.895 459.569 391.113 448.79 308.734 448.79C226.354 448.79 159.572 459.569 159.572 472.865C159.572 486.161 226.354 496.94 308.734 496.94Z" fill="#EEB5CD"/>
<path d="M113.255 202.571C114.849 218.099 116.392 225.6 118.972 234.106C122.598 246.059 125.287 249.017 127.419 260.183C129.7 272.066 127.449 272.893 129.491 286.101C130.965 295.624 132.499 305.524 139.023 315.784C145.378 325.785 153.337 331.203 158.247 334.47C171.216 343.116 183.488 345.497 190.849 346.861C201.895 348.903 214.007 348.356 238.232 347.27C241.828 347.11 246.031 346.861 251.041 346.413C252.944 346.234 259.767 345.596 268.891 344.212C271.272 343.843 276.621 343.007 283.633 341.602C294.261 339.491 307.12 336.931 322.47 331.96C332.221 328.803 343.885 324.968 358.199 317.318C373.339 309.22 383.599 301.062 387.145 298.154C392.384 293.86 396.308 289.956 404.148 282.157C422.655 263.749 428.472 254.675 432.496 245.8C432.745 245.242 433.083 244.495 433.522 243.459C443.154 220.44 437.855 198.766 437.068 195.658C432.247 176.822 421.26 164.959 416.14 160.058C414.885 156.423 413.023 151.153 410.572 144.868C405.612 132.128 400.691 121.251 398.281 116.56C391.936 104.208 376.118 77.7229 345.658 58.0903C328.297 46.8945 312.937 42.2926 308.057 40.9181C277.636 32.3917 251.031 36.7146 247.127 37.9199C244.547 38.7167 243.262 38.8462 240.682 39.1251C237.983 39.414 236.618 39.5435 235.463 38.9458C232.504 37.4119 232.196 32.6407 232.096 31.0569C231.658 24.2637 235.154 20.5683 233.969 19.5623C232.594 18.3869 226.179 21.903 222.036 27.6603C222.036 27.6603 220.352 30.0111 215.91 41.5854C209.186 18.3471 206.597 18.377 206.597 18.377C205.332 18.3969 204.365 20.0902 202.961 22.5804C200.959 26.0965 200.551 29.4732 200.431 31.5649C199.923 40.3005 203.509 46.1673 202.413 46.755C201.228 47.3925 198.08 40.0017 190.6 37.4418C187.412 36.3461 182.581 35.8381 181.406 37.7705C179.523 40.8882 189.514 46.3666 189.155 53.5482C188.817 60.5407 178.986 63.1603 166.116 71.866C150.558 82.3845 141.513 94.4469 136.413 101.16C126.074 114.777 120.944 127.437 119.082 132.407C108.882 159.64 111.362 183.884 113.275 202.561H113.265V202.571H113.255Z" fill="#C0B4DF"/>
<path d="M164.373 187.531C164.373 187.531 165.409 183.586 181.505 178.706C181.505 178.706 187.83 173.317 178.806 171.195C178.806 171.195 166.485 172.271 163.516 185.16C163.516 185.16 162.739 188.407 164.363 187.531H164.373Z" fill="#5E5573"/>
<path d="M203.061 271.559C203.061 271.559 180.011 280.454 161.763 262.296C161.763 262.296 144.063 239.625 168.845 214.066C169.871 213.289 183.089 203.667 198.907 209.225C212.792 214.116 217.673 226.846 218.31 228.599C218.838 229.784 226.259 247.006 216.438 261.08C212.105 267.296 206.268 270.254 203.051 271.559H203.061Z" fill="#FDFEFD"/>
<path d="M169.055 268.073C167.54 265.065 165.638 260.572 164.532 254.885C163.377 248.879 161.793 240.701 165.718 232.095C170.549 221.487 180.509 217.313 182.362 216.586C198.469 210.191 213.2 220.361 214.366 221.188C212.692 218.747 209.057 214.156 202.772 210.918C201.208 210.121 197.074 208.159 191.566 207.621C182.073 206.705 171.106 210.281 163.656 218.678C155.966 227.344 155.418 237.304 155.299 240.462C155.159 243.819 154.711 255.214 162.72 263.401C165.02 265.762 167.401 267.206 169.064 268.063H169.055V268.073Z" fill="#5E5573"/>
<path d="M179.454 217.921C176.924 220.789 172.77 226.357 171.365 234.286C169.144 246.827 174.184 263.043 187.073 269.019C194.424 272.426 201.766 271.32 205.71 270.344C211.467 267.396 214.714 263.581 216.318 261.379C223.271 251.767 222.085 240.581 221 235.86C219.874 230.939 217.175 225.59 216.129 223.947C216.089 223.887 214.376 221.198 214.376 221.198C211.178 219.016 205.043 215.49 196.895 214.683C194.245 214.414 189.484 213.996 183.916 215.919C182.023 216.576 180.519 217.333 179.473 217.931H179.454V217.921Z" fill="#5E5573"/>
<path d="M202.351 237.578C206.468 236.101 208.381 230.937 206.625 226.044C204.87 221.151 200.109 218.381 195.993 219.859C191.876 221.336 189.963 226.5 191.719 231.393C193.474 236.286 198.235 239.055 202.351 237.578Z" fill="#F9FCFE"/>
<path d="M192.303 258.939C194.784 258.939 196.795 256.928 196.795 254.447C196.795 251.966 194.784 249.955 192.303 249.955C189.822 249.955 187.811 251.966 187.811 254.447C187.811 256.928 189.822 258.939 192.303 258.939Z" fill="#F9FCFE"/>
<path d="M340.319 134.121C340.319 134.121 337.012 131.741 321.483 138.205C321.483 138.205 313.176 138.066 318.784 130.695C318.784 130.695 328.984 123.693 339.462 131.751C339.462 131.751 342.122 133.763 340.309 134.121H340.319Z" fill="#5E5573"/>
<path d="M362.681 214.823C362.681 214.823 386.129 207.033 388.669 181.414C388.669 181.414 387.922 152.658 352.541 148.693C351.256 148.743 334.931 149.719 326.265 164.073C318.655 176.673 322.988 189.612 323.605 191.365C323.944 192.61 329.173 210.619 345.698 215.251C352.999 217.293 359.384 215.858 362.691 214.833H362.681V214.823Z" fill="#FDFEFD"/>
<path d="M386.716 190.509C385.969 187.222 384.584 182.55 381.815 177.45C378.897 172.081 374.913 164.76 366.416 160.616C355.937 155.497 345.598 158.614 343.716 159.222C327.221 164.531 322.31 181.743 321.942 183.118C321.683 180.169 321.563 174.312 324.362 167.818C325.059 166.214 327.002 162.061 330.916 158.156C337.66 151.413 348.397 147.209 359.493 148.943C370.938 150.745 377.692 158.086 379.793 160.437C382.035 162.947 389.625 171.444 388.648 182.859C388.37 186.136 387.453 188.765 386.706 190.489H386.716V190.509Z" fill="#5E5573"/>
<path d="M346.804 158.405C350.579 159.012 357.322 160.676 363.448 165.895C373.14 174.153 379.555 189.881 373.409 202.69C369.903 209.991 363.538 213.806 359.872 215.559C353.557 216.944 348.627 216.067 345.987 215.38C334.512 212.382 328.317 202.989 326.145 198.656C323.884 194.144 322.569 188.297 322.33 186.365C322.32 186.295 321.932 183.127 321.932 183.127C323.018 179.412 325.518 172.788 331.285 166.981C333.158 165.088 336.564 161.732 342.092 159.68C343.965 158.983 345.609 158.614 346.804 158.405Z" fill="#5E5573"/>
<path d="M341.72 188.088C345.837 186.611 347.75 181.447 345.995 176.554C344.239 171.66 339.478 168.891 335.362 170.368C331.245 171.846 329.332 177.01 331.088 181.903C332.844 186.796 337.604 189.565 341.72 188.088Z" fill="#F9FCFE"/>
<path d="M360.151 199.225C362.632 199.225 364.643 197.214 364.643 194.733C364.643 192.251 362.632 190.24 360.151 190.24C357.67 190.24 355.658 192.251 355.658 194.733C355.658 197.214 357.67 199.225 360.151 199.225Z" fill="#F9FCFE"/>
<path d="M180.492 298.806C193.131 298.228 203.154 292.881 202.879 286.863C202.604 280.846 192.134 276.436 179.495 277.015C166.855 277.593 156.832 282.94 157.108 288.958C157.383 294.975 167.853 299.384 180.492 298.806Z" fill="#FAC0D8"/>
<path d="M397.427 220.858C407.551 213.268 412.828 203.208 409.215 198.388C405.601 193.569 394.465 195.815 384.342 203.404C374.219 210.994 368.941 221.054 372.555 225.874C376.168 230.693 387.304 228.448 397.427 220.858Z" fill="#FAC0D8"/>
<path d="M119.072 132.418C115.715 132.338 110.635 132.169 104.459 131.85C80.5137 130.585 76.2206 128.852 64.9351 129.579C56.9167 130.087 47.1154 130.714 37.0849 136.531C23.9368 144.161 17.8707 156.373 15.4005 162.38C10.1213 175.229 6.98365 185.379 4.80226 197.441C3.29819 205.748 1.76424 214.245 1.94353 225.56C2.18259 240.86 2.51129 262.256 16.3965 274.846C21.8251 279.777 29.1761 283.203 36.1486 286.46C43.8483 290.056 48.0915 291.022 55.3529 295.166C61.7078 298.792 66.4292 302.587 69.4174 305.236C72.8339 309.39 76.3202 313.842 79.8164 318.623C83.0038 322.966 85.9423 327.229 88.6516 331.353C90.056 333.415 92.1976 336.314 95.1758 339.431C100.206 344.681 108.752 353.605 121.472 355.329C132.369 356.803 141.314 352.3 145.448 349.8C145.448 349.8 153.854 343.316 158.257 334.471C155.717 333.027 152.002 330.626 148.137 326.98C132.758 312.458 130.048 292.128 129.49 286.102C128.714 277.745 130.168 276.33 128.724 266.848C127.299 257.524 124.739 251.309 122.996 246.607C113.982 222.233 112.687 199.334 112.169 190.001C111.442 177.131 112.239 167.728 112.438 165.487C113.663 151.801 116.512 140.526 119.052 132.428H119.072V132.418Z" fill="#C0B4DF"/>
<path d="M36.1487 286.44C41.0394 289.668 45.8305 289.717 55.353 295.146C61.7079 298.772 66.4293 302.567 69.4175 305.216C72.834 309.37 76.3203 313.822 79.8165 318.603C83.0039 322.946 85.9423 327.21 88.6517 331.333C90.0561 333.395 92.1977 336.294 95.1759 339.411C100.206 344.661 108.752 353.586 121.472 355.309C132.369 356.783 141.314 352.281 145.448 349.781C145.448 349.781 153.855 343.296 158.257 334.451C155.717 333.007 152.002 330.606 148.137 326.961C132.758 312.438 130.048 292.108 129.491 286.082C128.714 277.725 130.168 276.31 128.724 266.828C128.355 264.397 127.907 262.196 127.419 260.164C125.745 253.251 123.245 247.185 122.996 246.588C119.241 237.384 117.229 226.985 115.496 218.08C114.151 211.137 112.697 201.595 112.169 189.981C112.169 189.981 85.8826 172.45 58.1221 176.205C54.3171 176.723 52.1357 177.022 49.1973 178.177C24.5445 187.939 19.8132 229.933 23.1699 255.702C24.5744 266.499 26.3175 279.946 36.1487 286.43V286.44Z" fill="#ACECC7"/>
<path d="M24.2257 249.456C25.9788 249.844 27.2538 237.194 37.4735 225.809C45.1632 217.233 54.088 213.637 57.7734 212.153C84.1494 201.535 111.243 215.759 115.516 218.09C114.639 213.219 113.872 208.049 113.265 202.571C112.777 198.208 112.428 194.005 112.189 189.991C102.945 187.042 95.0564 184.711 89.0202 182.988C78.412 179.96 74.4875 179.044 69.2681 178.785C63.4212 178.486 57.9229 178.197 51.807 180.857C45.1632 183.745 41.4677 188.506 38.2903 192.71C36.0989 195.608 30.999 202.93 27.0048 219.265C23.4687 233.708 22.2934 249.048 24.2257 249.476V249.456Z" fill="#8EC2A7"/>
<path d="M153.924 334.321C148.994 341.114 143.625 348.724 135.188 351.274C128.863 353.187 122.01 351.862 116.014 349.471C103.473 344.491 93.7416 336.174 86.2412 325.008C78.7308 313.852 73.0133 301.441 61.2597 294.378C56.379 291.45 50.781 290.095 45.5417 287.954C37.6428 284.727 30.0129 280.653 23.0106 275.772C3.17877 261.976 5.48966 232.333 7.55152 211.037C9.73292 188.496 12.8606 161.373 31.1883 145.645C41.3582 136.91 55.5024 132.716 68.7701 132.975C85.1355 133.294 101.491 135.186 117.886 135.615C122.07 135.724 121.532 129.25 117.398 129.14C101.461 128.722 85.6137 127.108 69.6964 126.54C57.0961 126.092 44.3862 129.429 33.5888 135.923C10.2808 149.938 4.28441 179.761 1.69462 204.722C0.53918 215.798 -0.397128 226.944 0.170633 238.081C0.847962 251.308 3.39791 266.329 13.1096 276.12C17.8011 280.852 24.0863 284.388 29.8635 287.595C36.7364 291.42 43.8882 294.359 51.289 296.948C65.3436 301.859 71.6985 314.409 79.2786 326.203C87.9743 339.72 99.4989 350.388 114.769 355.916C122.03 358.535 129.879 359.681 137.399 357.37C146.972 354.432 153.297 346.244 158.925 338.475C161.355 335.108 156.404 330.904 153.944 334.301H153.934V334.321H153.924Z" fill="#5E5573"/>
<path d="M38.7586 285.375C26.0288 265.732 24.5546 244.087 29.1963 221.646C31.2482 211.705 34.1268 201.356 40.2228 193.069C47.783 182.799 58.9489 179.632 71.3202 181.016C83.6914 182.401 96.8196 187.63 108.484 193.118C112.269 194.901 115.048 189.035 111.253 187.252C90.1658 177.321 58.7198 164.969 39.1371 184.363C30.9295 192.481 26.7559 203.976 24.0466 214.952C21.0683 227.025 19.2356 239.505 20.3312 251.946C21.4967 265.194 26.238 277.984 33.4495 289.12C35.7206 292.626 41.0296 288.891 38.7586 285.385V285.375Z" fill="#5E5573"/>
<path d="M118.713 135.426C118.624 134.55 113.006 134.888 97.8456 134.281C81.7192 133.623 78.2928 132.836 67.3459 133.175C56.6382 133.504 52.2455 134.5 48.6596 135.675C40.8604 138.245 35.6908 142.08 34.6549 142.877C25.1822 150.068 21.0983 159.342 16.8949 168.884C13.6278 176.315 11.9245 182.411 11.2173 185.15C2.92002 216.895 8.23904 249.516 8.249 249.536C8.249 249.536 6.9043 231.667 8.11951 217.074C10.1316 192.75 19.3353 176.036 21.7059 171.912C27.4035 162.011 32.9516 156.403 36.1091 153.545C39.5854 150.377 44.4263 146.044 51.9965 143.106C53.391 142.568 57.7438 140.954 67.1467 140.088C81.0718 138.793 84.2393 141.134 96.3914 140.387C108.045 139.669 118.833 136.681 118.713 135.446V135.426Z" fill="#DACFF3"/>
<path d="M337.072 52.1346C339.612 49.9333 343.427 46.5765 347.989 42.403C365.669 26.2069 367.88 22.1429 377.054 15.519C383.569 10.8076 391.527 5.07023 402.972 3.18765C417.973 0.717393 430.424 6.28543 436.141 9.35333C448.383 15.9174 457.258 21.7544 466.611 29.6832C473.056 35.1416 479.63 40.7196 486.692 49.5647C496.234 61.5276 509.582 78.2516 506.862 96.7985C505.807 104.06 502.32 111.371 498.993 118.324C495.338 125.993 492.678 129.44 489.71 137.249C487.1 144.092 485.885 150.019 485.258 153.963C485.258 159.342 485.407 164.999 485.746 170.906C486.054 176.285 486.493 181.445 487.021 186.345C487.25 188.826 487.439 192.431 487.12 196.724C486.582 203.976 485.656 216.297 476.93 225.71C469.45 233.778 459.698 235.99 454.907 236.687C454.907 236.687 444.289 237.025 435.275 233.001C436.321 230.262 437.655 226.059 438.323 220.789C440.962 199.802 430.125 182.391 426.728 177.381C422.017 170.438 419.995 170.269 415.084 162.031C410.253 153.923 408.281 147.508 406.638 142.767C398.101 118.224 384.535 99.7269 379.007 92.1866C371.377 81.7877 364.793 75.0343 363.209 73.4306C353.557 63.6492 344.194 56.7564 337.082 52.1246H337.072V52.1346Z" fill="#C0B4DF"/>
<path d="M499.013 118.323C497.289 123.921 493.624 127.009 489.729 137.249C487.12 144.092 485.904 150.018 485.277 153.963C485.277 159.342 485.426 164.999 485.765 170.906C486.074 176.285 486.512 181.444 487.04 186.345C487.269 188.825 487.458 192.431 487.14 196.724C486.602 203.976 485.675 216.297 476.95 225.71C469.469 233.778 459.718 235.989 454.927 236.687C454.927 236.687 444.308 237.025 435.294 233.001C436.34 230.262 437.675 226.058 438.342 220.789C440.982 199.802 430.144 182.391 426.748 177.38C422.036 170.438 420.014 170.268 415.104 162.031C413.849 159.919 412.793 157.937 411.876 156.055C408.769 149.66 406.846 143.385 406.657 142.767C403.709 133.274 398.649 123.971 394.326 115.993C390.949 109.777 385.998 101.49 379.036 92.1964C379.036 92.1964 388.18 61.9557 411.996 47.2038C415.263 45.1818 417.136 44.0264 420.144 43.0502C445.374 34.9123 475.725 64.3163 489.52 86.3395C495.297 95.5631 502.509 107.058 499.043 118.313H499.013V118.323Z" fill="#ACECC7"/>
<path d="M484.7 82.1853C483.594 83.5997 474.57 74.655 459.44 72.354C448.054 70.6209 438.881 73.5194 435.086 74.7247C407.973 83.2909 396.109 111.5 394.287 116.012C391.866 111.699 389.167 107.217 386.159 102.605C383.768 98.9292 381.367 95.4629 378.997 92.2057C384.256 84.0579 388.858 77.2448 392.424 72.0652C398.689 62.981 401.139 59.7836 405.004 56.2575C409.327 52.3031 413.391 48.5977 419.796 46.755C426.758 44.7629 432.635 46.0876 437.755 47.3128C441.281 48.1595 449.877 50.57 463.344 60.6303C475.257 69.5352 485.915 80.6214 484.7 82.1853Z" fill="#8EC2A7"/>
<path d="M437.346 236.527C446.022 238.788 455.196 240.9 464.021 238.131C470.715 236.029 476.253 231.178 480.217 225.501C487.867 214.524 491.921 201.027 491.822 187.69C491.712 173.655 486.343 159.003 489.989 145.098C491.692 138.573 496.035 133.125 499.133 127.228C503.197 119.509 506.404 111.311 508.765 102.904C515.877 77.6038 494.76 54.4352 478.255 37.8705C461.212 20.758 440.972 1.72308 415.532 0.099482C400.89 -0.836825 385.401 4.78102 374.076 13.9648C368.269 18.6762 363.039 24.1148 357.601 29.2445C350.638 35.8186 343.526 42.2333 336.295 48.5185C333.167 51.2278 336.873 56.5767 340.03 53.8276C351.525 43.8469 362.402 33.2587 373.588 22.9494C382.304 14.9111 392.872 9.17369 404.645 7.13175C429.756 2.76895 451.74 20.9074 468.474 37.2828C475.815 44.4645 483.036 51.7856 489.302 59.9335C496.732 69.5854 505.02 82.116 503.824 94.9155C503.237 101.091 500.766 107.347 498.485 113.034C495.736 119.937 492.31 126.461 488.435 132.776C481.293 144.4 481.871 156.951 483.624 169.989C484.68 177.839 485.835 185.807 485.118 193.736C484.461 201.017 482.219 207.85 479.102 214.414C476.233 220.45 472.348 226.317 466.541 229.873C457.905 235.162 447.636 232.503 438.512 230.122C434.458 229.066 433.292 235.461 437.327 236.507L437.346 236.527Z" fill="#5E5573"/>
<path d="M502.798 118.662C501.423 106.669 497.608 94.9054 491.243 84.616C484.729 74.0974 475.784 65.5511 466.152 57.9312C457.347 50.9687 447.476 44.544 436.36 42.1235C422.943 39.2051 411.079 44.2651 401.438 53.5584C391.188 63.4395 384.006 76.737 377.98 89.4967C376.197 93.2818 382.064 96.0509 383.847 92.2658C392.543 73.8683 407.723 44.4842 432.435 48.0203C442.854 49.5144 452.187 55.3713 460.385 61.6764C469.389 68.5991 477.786 76.2589 484.201 85.7017C490.935 95.6225 494.949 107.267 496.323 119.15C496.801 123.293 503.276 122.815 502.798 118.662Z" fill="#5E5573"/>
<path d="M339.273 54.2453C338.775 53.5082 343.347 50.2013 354.652 40.0911C366.675 29.3336 368.826 26.5446 377.492 19.841C385.968 13.2868 389.993 11.2648 393.509 9.89024C401.168 6.91199 407.593 6.59325 408.898 6.54344C420.781 6.07529 429.825 10.6373 439.139 15.3288C446.38 18.9844 451.57 22.6101 453.861 24.2636C480.446 43.4977 497.08 72.0551 497.09 72.075C497.09 72.075 486.771 57.4327 476.551 46.9342C459.528 29.4431 441.798 22.3909 437.346 20.7076C426.658 16.6835 418.799 15.8866 414.546 15.6874C409.844 15.4483 403.36 15.1893 395.64 17.7293C394.226 18.1975 389.833 19.7215 382.024 25.0305C370.46 32.8796 369.493 36.7045 359.642 43.8563C350.2 50.7093 339.96 55.2613 339.273 54.2354V54.2453Z" fill="#DACFF3"/>
<path d="M130.865 118.493C141.095 104.797 146.205 97.9536 151.872 92.1365C172.849 70.6114 196.815 65.0733 195.47 53.8874C195.221 51.8056 193.877 47.6819 194.454 47.4627C195.132 47.2037 196.895 52.9112 200.799 53.5587C202.283 53.8077 203.528 53.2399 203.797 53.1005C205.889 52.0845 206.586 49.8832 206.746 49.3055C207.513 46.5364 205.78 45.3112 205.391 41.6755C204.973 37.7411 206.437 33.9062 207.304 33.9161C208.867 33.9261 207.881 46.5264 213.19 48.5484C214.963 49.2258 217.045 48.5783 218.28 47.7615C220.521 46.2774 220.292 44.0163 222.494 39.0658C223.589 36.6055 225.452 32.4121 226.827 32.6113C228.699 32.8802 226.946 40.8687 230.97 44.8032C234.357 48.1102 240.572 47.3133 245.553 45.9985C251.19 44.7833 259.966 43.3091 270.783 43.2294C274.13 43.1995 283.772 43.2593 309.759 48.3592C317.638 49.9031 328.516 52.204 341.474 55.4911C336.046 52.1243 328.665 48.1201 319.511 44.6339C313.226 42.2433 301.95 38.518 287.308 36.9243C287.308 36.9243 271.939 35.2608 255.663 37.3626C250.712 38 248.232 38.3188 246.459 38.9065C244.587 39.524 243.142 40.2113 240.861 40.2213C239.018 40.2312 236.777 39.8029 235.453 38.9363C232.156 36.7649 231.438 29.7526 234.735 22.1426C234.735 22.1426 220.711 25.5989 216.557 43.7175C211.188 25.7583 207.722 22.1625 205.541 22.3418C202.522 22.5908 199.395 30.2406 199.554 36.476C199.644 39.7033 200.69 45.4507 200.69 45.4507C200.69 45.4507 198.17 42.4724 195.361 40.4902C194.634 39.9723 192.811 38.6873 190.55 38.0498C186.008 36.7649 181.804 38.6574 180.071 39.5738C181.386 40.032 184.882 41.4365 187.223 45.0921C187.91 46.1579 190.221 49.7537 189.135 53.5587C188.488 55.8496 186.884 57.1047 183.707 59.5152C179.752 62.5233 177.581 63.0911 171.256 66.8562C171.256 66.8562 169.423 67.9419 166.385 69.8942C156.862 76.03 148.954 84.5863 145.169 88.73C137.589 97.0272 132.937 103.98 131.702 105.852C129.102 109.787 126.263 114.15 123.524 120.465C120.984 126.342 119.55 131.571 118.723 135.416C121.612 131.222 125.735 125.356 130.875 118.483H130.865V118.493Z" fill="#DACFF3"/>
<path d="M119.062 132.417C120.964 126.102 123.893 118.652 128.505 110.882C132.598 103.97 136.523 99.3278 140.846 94.198C147.49 86.3291 153.127 81.1495 157.45 77.215C161.216 73.7786 163.706 71.7864 166.405 69.9039C169.094 68.0312 169.971 67.6627 175.18 64.5549C187.701 57.0745 188.926 55.3811 189.364 53.4488C190.231 49.7135 187.93 46.1575 187.233 45.0818C184.783 41.2967 181.197 39.942 180.081 39.5635C181.256 38.926 185.4 36.8741 190.56 38.0395C198.11 39.7428 201.098 46.8348 201.367 47.5221C200.431 44.9423 198.777 39.3045 199.973 32.2424C201.038 25.9771 203.827 21.5645 205.441 19.3931C207.354 21.7338 209.605 24.9611 211.547 29.1048C213.918 34.1847 214.974 38.8264 215.462 42.2031C216.029 39.4539 217.633 33.5074 222.633 27.9493C226.857 23.2479 231.538 21.0167 234.098 20.0007C231.09 32.7006 233.002 37.3124 235.423 39.1352C238.65 41.5656 243.103 39.2747 253.113 37.5714C261.052 36.2267 266.749 36.2267 275.545 36.2267C278.344 36.2267 292.299 36.3362 309.809 41.217C317.2 43.2789 326.703 46.5958 337.112 52.1041" stroke="#5E5573" stroke-width="5.97643" stroke-linecap="round" stroke-linejoin="round"/>
<path d="M115.914 144.828C116.104 142.527 116.422 139.987 116.731 137.696C116.96 136.302 117.259 134.359 117.359 132.965C117.717 130.465 118.813 128.393 120.715 126.49C120.805 126.411 120.934 126.411 121.014 126.49C121.831 129.06 121.711 131.491 120.815 133.851C119.889 135.863 119.022 138.463 118.155 140.505C117.538 141.979 116.93 143.454 116.253 144.908C116.173 145.087 115.884 145.017 115.904 144.818H115.914V144.828Z" fill="#5E5573"/>
<path d="M346.804 59.8234C344.722 58.8273 342.471 57.6021 340.439 56.4865C339.214 55.7793 337.51 54.7932 336.255 54.1856C334.054 52.9505 332.52 51.1874 331.424 48.7271C331.385 48.6176 331.424 48.498 331.544 48.4482C334.243 48.6176 336.464 49.5937 338.337 51.297C339.881 52.8808 341.983 54.6338 343.586 56.1778C344.742 57.2834 345.897 58.3791 347.003 59.5345C347.142 59.664 346.963 59.923 346.794 59.8234H346.804Z" fill="#5E5573"/>
<path d="M399.595 263.85C402.354 259.935 405.352 257.445 405.671 257.166C408.629 254.686 416.887 245.432 439.677 216.486C439.109 220.291 438.412 223.598 437.764 226.278C436.848 230.013 435.623 234.187 433.959 238.639C433.172 240.741 432.405 242.613 431.678 244.237C422.514 265.144 408.958 278.034 398.31 287.954C392.224 293.632 385.72 298.602 384.056 299.867C384.006 299.907 383.807 300.136 383.737 300.107C383.429 299.917 387.662 293.841 391.258 285.644C393.678 280.135 395.053 276.988 395.67 273.332C395.79 272.635 396.049 270.922 396.886 268.76C397.603 266.907 398.509 265.354 399.575 263.84H399.595V263.85Z" fill="#A394C5"/>
<path d="M141.254 314.41C152.56 319.111 169.214 324.809 190.042 327.628C205.033 329.66 216.647 329.45 223.928 329.291C223.928 329.291 239.626 328.952 287.049 321.362C287.049 321.362 290.854 322.846 290.984 322.906C302.936 327.558 342.052 327.209 329.223 327.07C329.223 327.07 315.188 331.931 311.064 333.325C300.606 336.851 278.981 344.162 251.031 346.413C244.885 346.911 240.254 347.011 235.692 347.121C226.707 347.33 212.951 347.24 195.699 345.368C186.267 344.352 182.083 343.445 178.139 342.27C172.122 340.477 160.438 336.851 150.249 326.492C145.806 321.98 142.967 317.517 141.244 314.42L141.254 314.41Z" fill="#A394C5"/>
<path d="M236.698 295.215C236.698 295.215 247.545 295.175 247.874 285.663" stroke="#5E5573" stroke-width="5.97643" stroke-linecap="round" stroke-linejoin="round"/>
<path d="M245.025 277.704C266.948 342.2 382.134 342.877 396.916 268.77C406.11 255.382 397.693 237.164 382.752 249.346C377.931 250.472 370.56 242.653 366.396 246.916C360.26 250.472 362.92 260.373 366.775 267.216C351.893 279.975 336.474 261.13 334.363 245.651" stroke="#5E5573" stroke-width="5.97643" stroke-linecap="round" stroke-linejoin="round"/>
<path d="M255.673 236.905C263.661 224.942 279.688 216.157 294.231 218.986C296.342 219.384 298.404 219.982 300.337 220.878C300.406 220.908 300.446 220.998 300.406 221.077C296.253 221.157 292.249 220.789 287.946 221.317C275.076 222.113 264.289 227.134 255.892 237.084C255.792 237.224 255.553 237.064 255.663 236.915L255.673 236.905Z" fill="#5E5573"/>
<path d="M260.474 252.265C266.67 242.922 271.142 239.117 281.661 234.983C288.155 232.264 295.357 230.541 302.389 232.015C304.72 232.463 306.991 233.19 309.063 234.316C309.152 234.365 309.192 234.475 309.132 234.565C309.092 234.634 309.033 234.664 308.963 234.654C306.632 234.535 304.401 234.475 302.18 234.545C299.968 234.595 297.777 234.824 295.606 235.122C289.012 235.969 282.438 237.324 276.312 240.033C274.24 240.89 272.248 241.826 270.445 243.091C266.769 245.571 263.771 249.067 260.743 252.474C260.683 252.554 260.564 252.554 260.484 252.494C260.414 252.434 260.404 252.335 260.454 252.255H260.474V252.265Z" fill="#5E5573"/>
<path d="M274.12 269.776C275.524 268.361 276.192 266.429 277.297 264.755C278.383 263.012 279.628 261.349 280.993 259.775C285.186 255.004 290.705 251.567 296.621 249.276C302.618 247.105 309.7 247.573 315.228 250.8C315.437 250.93 315.367 251.269 315.118 251.288C311.712 251.737 306.771 252.314 303.494 253.002L297.996 254.077C290.436 255.482 283.632 259.954 278.542 265.662C277.188 267.156 276.142 268.999 274.419 270.154C274.18 270.313 273.871 269.965 274.1 269.766H274.12V269.776Z" fill="#5E5573"/>
<path d="M292.827 286.808C293.693 279.248 298.235 272.236 304.291 267.654C305.835 266.478 307.439 265.343 309.152 264.357C312.549 262.404 316.533 261.637 320.418 261.737C322.36 261.797 324.283 262.086 326.145 262.753C326.374 262.833 326.384 263.171 326.155 263.261C321.105 265.263 316.274 267.036 311.244 268.889C302.937 271.748 296.203 278.571 293.305 286.908C293.225 287.177 292.767 287.097 292.817 286.798L292.827 286.808Z" fill="#5E5573"/>
<path d="M335.07 289.478C331.394 285.723 335.657 274.427 339.632 271.947C341.574 270.742 343.845 270.064 346.166 270.602C346.335 270.642 346.435 270.802 346.395 270.971C345.319 272.853 344.154 274.258 342.889 275.812C341.823 277.206 340.219 278.033 339.094 279.388C337.271 281.728 334.333 286.181 335.468 289.209C335.588 289.458 335.239 289.687 335.06 289.498V289.478H335.07Z" fill="#5E5573"/>
<path d="M363.258 284.049C362.173 282.276 360.768 280.832 359.842 278.939C359.304 277.864 358.577 276.688 358.965 275.403C359.314 274.049 360.39 272.704 361.944 272.664C362.103 272.664 362.232 272.764 362.272 272.913C362.651 274.367 363.089 274.965 363.288 275.662C363.398 276.001 363.408 276.33 363.308 276.708C363.049 277.555 363.179 278.421 363.328 279.318C363.358 279.776 364.284 284.896 363.248 284.049H363.258Z" fill="#5E5573"/>
<path d="M112.896 170.198C112.478 190.698 114.559 211.416 120.436 231.098C123.026 239.545 127.668 247.284 129.451 256.02C130.795 261.797 131.792 267.684 131.941 273.641C132.001 276.619 131.961 279.517 132.25 282.396C132.509 285.275 133.017 288.143 133.644 290.982C135.487 299.548 137.559 308.065 141.663 315.794C149.093 330.038 160.757 335.775 175.539 340.347C216.159 352.32 273.632 344.312 313.784 332.02C324.94 328.564 336.136 325.068 346.794 320.336C368.02 310.894 387.045 296.829 402.982 279.975C410.771 271.519 418.949 263.012 424.766 253.072C428.97 245.601 432.775 237.732 435.195 229.515C437.506 221.446 438.074 212.85 435.812 204.702C432.934 194.403 427.396 184.781 421.23 176.035L420.612 175.139L420.294 174.691L420.134 174.472C420.134 174.472 419.905 174.203 420.224 174.531L419.955 174.223C414.437 166.672 408.859 158.405 406.359 149.211C401.219 129.907 391.906 111.908 381.178 95.1146L380.789 94.5369C380.66 94.3277 380.55 94.2181 380.311 93.7898L380.431 93.989C377.423 90.184 371.347 82.3649 368.368 78.52C368.289 78.4105 368.299 78.2511 368.408 78.1714C368.518 78.0917 368.667 78.1017 368.757 78.2113C371.974 81.9266 378.339 89.3772 381.517 93.1125L381.636 93.3117C381.666 93.2519 381.825 93.5408 381.965 93.7101L382.373 94.2779C389.714 104.617 396.199 115.594 401.578 127.079C403.938 132.238 406.159 137.428 407.962 142.826C409.148 146.353 410.014 149.908 411.548 153.265C413.052 156.542 414.845 159.79 416.817 162.808C418.869 165.866 422.156 170.258 423.641 172.26C426.131 175.707 428.631 179.233 430.902 182.829C436.41 191.873 441.092 201.844 441.998 212.541C442.994 224.833 438.761 236.816 433.402 247.653C432.137 250.303 430.703 253.121 429.228 255.641C423.192 266.12 414.875 274.736 406.687 283.462C390.222 300.684 370.45 314.878 348.557 324.331C337.65 329.032 326.275 332.429 314.939 335.805C274.041 347.928 215.88 355.468 174.712 342.917C159.343 338.017 147.251 331.841 139.621 316.8C135.507 308.852 133.455 299.987 131.702 291.321C131.094 288.422 130.616 285.474 130.377 282.486C130.128 279.497 130.198 276.509 130.168 273.601C130.098 267.774 129.192 261.986 127.937 256.299C126.253 247.603 121.741 239.864 119.251 231.397C113.583 211.545 111.731 190.688 112.408 170.109C112.408 169.969 112.527 169.86 112.677 169.87C112.816 169.87 112.916 169.989 112.926 170.129L112.886 170.179V170.198H112.896Z" fill="#5E5573"/>
<path d="M368.189 78.4007C382.214 94.1187 393.728 112.038 402.673 131.103C405.671 137.438 407.624 144.271 410.263 150.716C414.437 160.258 420.025 169.213 426.738 177.181C429.029 179.881 431.36 182.65 433.073 185.787C434.796 188.975 435.992 192.351 436.988 195.778C440.952 209.593 439.289 224.295 435.314 237.892C432.247 248.111 427.087 257.704 420.523 266.11C414.048 274.557 406.538 281.968 399.067 289.468C386.427 301.869 371.765 312.099 356.107 320.307C343.626 326.95 330.05 331.453 316.573 335.437C303.096 339.541 289.37 342.947 275.485 345.408C251.191 349.91 226.219 351.095 201.576 348.954C190.938 348.077 180.151 346.464 170.11 342.688C164.234 340.736 158.038 337.947 153.127 333.903C140.248 323.534 132.827 307.637 130.517 291.52C129.839 285.404 129.301 279.189 129.032 273.053C128.744 266.19 127.887 259.367 125.725 252.903C117.448 233.439 113.045 212.472 111.551 191.415C111.113 184.443 110.426 177.261 111.86 170.348C111.89 170.219 112.029 170.129 112.159 170.159C112.288 170.189 112.368 170.318 112.348 170.448C112.049 172.151 111.94 173.894 111.92 175.637C112.069 187.829 113.952 200.011 116.332 211.964C118.424 222.184 121.143 232.304 124.929 242.005C126.213 245.302 127.757 248.36 129.052 251.707C130.347 255.144 131.154 258.64 131.861 262.156C133.375 270.902 133.296 279.657 134.571 288.393C136.563 304.917 144.462 321.671 158.287 331.403C162.441 334.401 166.893 336.144 171.853 337.838C178.328 340.228 184.932 341.653 191.765 342.599C226.219 347.27 261.42 344.85 295.237 336.891C315.437 331.861 335.847 326.542 354.463 317.059C369.882 309.161 384.375 299.24 396.866 287.197C404.297 279.886 411.867 272.535 418.262 264.337C424.696 256.239 429.766 247.026 432.834 237.145C436.789 223.987 438.641 209.773 434.946 196.356C434.03 193.049 432.914 189.762 431.33 186.763C429.707 183.725 427.525 181.066 425.314 178.406C418.59 170.229 413.022 161.065 408.899 151.313C406.309 144.759 404.486 138.036 401.558 131.641C398.699 125.276 395.472 119.06 392.025 112.984C385.132 100.812 377.034 89.3276 367.85 78.7494C367.761 78.6398 367.771 78.4904 367.88 78.3908C367.99 78.2912 368.139 78.3111 368.239 78.4207L368.219 78.4406L368.189 78.4007Z" fill="#5E5573"/>
<path d="M202.055 348.885L172.382 370.808C172.382 370.808 158.427 379.534 164.881 396.457C166.893 401.198 170.529 407.703 177.093 413.32C181.267 416.896 187.781 422.464 196.666 422.415C201.676 422.385 205.282 420.572 211.248 417.574C218.579 413.888 223.869 409.665 227.166 406.707C230.333 424.506 233.501 442.306 236.658 460.106C236.758 461.471 237.445 469.429 244.268 474.798C248.81 478.374 253.681 478.892 255.613 479.001C255.613 479.001 303.425 484.589 300.984 465.744L299.062 445.504C304.819 447.047 312.041 448.352 320.398 448.452C339.273 448.661 353.945 442.525 362.054 438.312C365.809 439.537 369.803 441.071 373.947 443.003C386.696 448.96 396.279 456.57 403.062 463.124C403.062 463.124 421.907 478.135 439.528 456.839C442.227 454.568 445.983 450.862 449.06 445.414C451.501 441.091 456.571 432.136 453.523 423.49C452.098 419.466 449.548 417.295 444.558 413.052C441.032 410.053 436.341 406.746 424.208 401.168C418.879 398.718 411.797 395.69 403.241 392.632C404.267 388.21 405.154 383.239 405.701 377.771C406.618 368.687 406.379 360.598 405.701 353.895C415.782 348.596 423.93 343.725 429.747 340.089C429.747 340.089 456.312 323.485 476.652 299.719C477.807 298.374 480.018 295.694 481.224 291.611C483.116 285.166 481.303 279.199 480.018 275.972C477.13 270.056 473.992 265.683 471.661 262.814C467.089 257.166 463.812 253.232 458.234 251.688C454.23 250.582 450.644 251.15 448.483 251.688C428.501 262.924 416.618 269.607 416.618 269.607C416.618 269.607 410.851 275.873 401.886 285.624C393.101 294.36 379.714 305.974 361.287 316.184C346.555 324.351 334.891 328.126 319.651 332.967C297.747 339.93 267.058 347.291 229.785 348.845C218.42 349.323 208.878 349.154 202.055 348.895V348.885Z" fill="#C0B4DF"/>
<path d="M203.708 348.944C215.462 355.438 252.516 373.935 299.45 365.419C370.65 352.49 402.365 288.701 405.701 281.709C400.97 286.699 393.729 293.801 384.067 301.252C352.212 325.815 320.607 333.714 294.231 340.019C273.114 345.069 242.027 350.298 203.708 348.944Z" fill="#A394C5"/>
<path d="M229.327 418.708C229.068 419.784 226.458 429.984 216.528 434.098C208.519 437.415 199.017 435.423 192.482 429.028C196.447 438.042 205.043 443.869 214.237 443.829C224.715 443.78 231.2 436.13 232.126 434.994L229.317 418.718H229.327V418.708Z" fill="#C0B4DF"/>
<path d="M230.084 402.841C230.084 402.841 244.936 389.265 245.832 382.551C245.832 382.551 246.539 454.438 254.538 478.861C254.538 478.861 241.25 481.003 238.182 459.368L230.084 402.841Z" fill="#A394C5"/>
<path d="M207.423 346.424C196.058 356.165 186.287 363.098 179.454 367.63C170.19 373.786 166.644 375.32 164.971 380.141C160.748 392.333 174.633 407.632 176.874 410.093C180.151 413.698 182.721 416.527 186.924 418.35C202.483 425.094 220.92 409.505 222.295 408.31" stroke="#5E5573" stroke-width="5.97643" stroke-linecap="round" stroke-linejoin="round"/>
<path d="M250.932 374.114C247.207 383.696 241.838 392.681 234.995 400.391C232.415 403.309 229.825 406.317 226.777 408.787C221.578 412.782 215.551 415.73 208.967 416.736C208.678 416.786 208.479 416.407 208.698 416.198C210.581 414.316 212.503 412.672 214.396 411.019C216.428 409.335 220.88 405.441 222.902 403.907C227.863 400.251 232.714 396.446 236.817 391.814C241.987 386.336 246.44 380.32 250.384 373.855C250.553 373.556 251.061 373.786 250.922 374.124H250.932V374.114Z" fill="#5E5573"/>
<path d="M284.998 439.816C284.998 439.816 272.925 432.554 289.231 433.779C289.231 433.779 357.93 438.889 376.686 421.169C376.686 421.169 382.015 416.637 387.922 423.749C389.655 426.07 391.786 428.58 394.396 431.11C399.356 435.921 404.357 439.158 408.411 441.32C407.016 444.119 406.359 446.549 406.03 448.322C404.735 455.275 406.329 462.775 406.329 462.775C394.625 454.846 390.123 451.808 390.123 451.808C384.505 448.023 385.481 448.691 384.505 448.023C375.59 441.917 371.417 438.62 365.072 437.993C364.504 437.933 364.046 437.913 363.777 437.903C354.792 442.784 346.794 445.234 341.186 446.539C333.935 448.232 314.222 452.555 293.384 443.969C289.749 442.475 286.89 440.911 285.007 439.806H284.998V439.816Z" fill="#A394C5"/>
<path d="M411.668 436.269C413.401 432.653 417.256 424.854 426.18 420.362C432.745 417.055 444.807 414.136 450.435 419.754C457.537 426.836 451.431 444.467 442.536 454.557C434.039 464.199 418.202 472.377 410.881 466.858C403.749 461.48 407.424 445.144 411.658 436.279L411.668 436.269Z" fill="#C0B4DF"/>
<path d="M410.005 442.256C413.322 443.311 417.037 444.278 421.121 444.995C431.59 446.828 440.783 446.399 447.786 445.423C446.441 448.322 444.32 451.957 440.953 455.454C432.367 464.368 421.629 466.271 417.565 466.779C416.469 466.878 410.911 467.277 408.411 463.84C407.425 462.486 407.325 460.713 407.136 457.157C407.027 455.055 406.877 451.878 407.903 447.863C408.521 445.473 409.347 443.57 410.015 442.246H410.005V442.256Z" fill="#A394C5"/>
<path d="M412.574 273.491C417.336 270.463 423.601 266.499 431.041 261.847C433.113 260.552 437.904 258.072 444.1 254.656C448.622 252.165 453.742 249.596 458.732 250.94C461.671 251.737 464.091 253.809 466.073 256.12C468.354 258.779 470.157 261.797 471.92 264.825C473.892 268.212 475.805 271.619 477.727 275.035C480.387 279.757 481.303 282.336 481.492 284.916C481.851 289.827 479.381 293.911 477.309 296.819C459.718 321.532 418.401 345.378 418.401 345.378C412.833 348.585 408.301 351.075 405.701 352.48" stroke="#5E5573" stroke-width="4.98036" stroke-linecap="round" stroke-linejoin="round"/>
<path d="M401.877 341.443C406.011 350.617 407.943 360.906 407.545 370.996C407.356 376.126 407.146 381.415 405.134 386.236C403.172 391.027 400.383 395.52 396.409 398.946C396.19 399.135 395.821 398.926 395.891 398.637C396.409 396.077 397.076 393.707 397.674 391.346C399.277 384.463 401.578 377.401 402.774 370.578C403.461 365.807 403.65 360.976 403.431 356.155C403.242 351.294 402.455 346.443 401.299 341.632C401.21 341.304 401.728 341.104 401.867 341.433H401.877V341.443Z" fill="#5E5573"/>
<path d="M228.799 403.917C231.409 421.756 233.092 435.711 234.108 444.606C235.981 460.981 236.568 469.07 243.192 474.847C248.362 479.349 254.338 479.957 262.177 480.744C275.973 482.128 296.004 479.628 299.162 470.235C299.54 469.099 299.331 468.9 299.052 460.065C298.863 454.208 298.803 449.437 298.783 446.339" stroke="#5E5573" stroke-width="5.97643" stroke-linecap="round" stroke-linejoin="round"/>
<path d="M280.943 435.572C297 445.901 318.695 448.092 338.058 443.929C342.879 442.704 351.874 439.586 358.219 436.727C364.683 433.889 370.749 430.392 376.825 426.667L377.234 427.105C372.851 433.022 367.084 437.833 360.779 441.628C353.368 446.19 344.304 448.889 336.504 449.597C322.101 451.041 307.08 449.935 293.753 443.919C288.782 441.668 285.047 439.516 280.605 436.06L280.953 435.572H280.943Z" fill="#5E5573"/>
<path d="M364.116 437.554C366.457 438.331 369.674 439.476 373.389 441.11C376.657 442.544 381.039 444.487 385.671 447.584C389.775 450.323 391.807 452.455 394.436 454.776C398.052 457.963 407.216 466.051 414.408 467.585C431.002 471.111 457.209 444.008 452.398 426.139C450.963 420.82 446.89 416.706 443.931 413.708C439.748 409.485 435.853 407.313 424.189 401.606C417.555 398.358 410.483 394.982 403.003 391.525" stroke="#5E5573" stroke-width="5.97643" stroke-linecap="round" stroke-linejoin="round"/>
<path d="M423.76 466.849C419.955 468.473 415.483 468.792 411.419 467.835C402.375 465.933 403.749 452.765 404.984 445.902C406.787 436.21 412.226 427.066 420.174 421.13C425.065 417.285 431.251 414.406 437.636 414.436C441.49 414.346 445.853 415.014 448.812 417.902C454.439 423.231 454.479 432.066 452.407 438.75C452.636 430.821 450.515 419.556 441.002 419.307C434.647 419.068 428.651 421.677 423.8 425.791C415.154 432.465 410.224 442.794 408.789 453.522C408.421 456.61 408.132 459.837 409.307 462.656C410.034 464.588 411.758 465.246 413.73 465.903C416.947 466.999 420.314 467.238 423.76 466.839V466.849Z" fill="#5E5573"/>
<path d="M230.164 413.509C229.945 416.278 229.128 421.259 225.761 426.179C224.486 428.042 222.275 431.16 218.101 433.351C212.414 436.339 207.015 435.572 205.401 435.323C204.923 435.244 200.142 434.457 196.188 431.688C196.188 431.688 195.63 431.299 192.482 429.018C193.22 430.701 194.475 433.112 196.606 435.552C198.588 437.813 203.768 442.873 211.438 443.82C223.281 445.274 231.518 435.722 232.126 434.985" stroke="#5E5573" stroke-width="3.98429" stroke-linecap="round" stroke-linejoin="round"/>
<path d="M166.893 377.182C166.893 377.182 185.221 382.402 168.357 393.388C168.357 393.388 162.321 384.274 166.893 377.182Z" fill="white" stroke="#5E5573" stroke-width="5.97643" stroke-linecap="round" stroke-linejoin="round"/>
<path d="M170.101 395.151C170.101 395.151 188.757 391.247 178.926 408.818C178.926 408.818 169.344 403.558 170.101 395.151Z" fill="white" stroke="#5E5573" stroke-width="5.97643" stroke-linecap="round" stroke-linejoin="round"/>
<path d="M192.522 417.264C192.522 417.264 195.471 398.438 178.428 409.136C178.428 409.136 184.165 418.439 192.522 417.264Z" fill="white" stroke="#5E5573" stroke-width="5.97643" stroke-linecap="round" stroke-linejoin="round"/>
<path d="M249.199 475.484C249.199 475.484 259.837 459.677 265.066 479.11C265.066 479.11 254.528 482.029 249.199 475.484Z" fill="white" stroke="#5E5573" stroke-width="5.97643" stroke-linecap="round" stroke-linejoin="round"/>
<path d="M266.78 477.338C266.78 477.338 272.985 459.309 283.036 476.76C283.036 476.76 273.613 482.298 266.78 477.338Z" fill="white" stroke="#5E5573" stroke-width="5.97643" stroke-linecap="round" stroke-linejoin="round"/>
<path d="M298.215 470.076C298.215 470.076 284.599 456.738 283.414 476.829C283.414 476.829 294.321 477.556 298.215 470.076Z" fill="white" stroke="#5E5573" stroke-width="5.97643" stroke-linecap="round" stroke-linejoin="round"/>
<path d="M414.268 430.004C410.124 426.089 410.054 420.203 412.644 417.473C415.513 414.455 422.366 414.545 426.25 419.744C424.248 420.96 421.947 422.543 419.577 424.605C417.425 426.478 415.672 428.34 414.268 430.004Z" fill="white" stroke="#5E5573" stroke-width="5.97643" stroke-linecap="round" stroke-linejoin="round"/>
<path d="M428.979 406.766C427.147 407.842 426.32 410.412 426.25 412.224C426.141 415.073 427.645 417.145 428.222 417.872C429.677 417.294 431.918 416.498 434.737 415.95C439.886 414.944 442.088 415.681 442.486 414.744C443.382 412.593 433.77 403.937 428.979 406.766Z" fill="white" stroke="#5E5573" stroke-width="5.97643" stroke-linecap="round" stroke-linejoin="round"/>
<path d="M465.077 259.835C448.244 270.862 450.823 251.986 450.823 251.986C459.151 250.651 465.077 259.835 465.077 259.835Z" fill="white" stroke="#5E5573" stroke-width="5.97643" stroke-linecap="round" stroke-linejoin="round"/>
<path d="M474.968 275.713C454.927 277.655 466.003 262.136 466.003 262.136C474.002 264.816 474.968 275.713 474.968 275.713Z" fill="white" stroke="#5E5573" stroke-width="5.97643" stroke-linecap="round" stroke-linejoin="round"/>
<path d="M475.456 275.384C458.812 286.699 477.239 291.56 477.239 291.56C481.672 284.378 475.456 275.384 475.456 275.384Z" fill="white" stroke="#5E5573" stroke-width="5.97643" stroke-linecap="round" stroke-linejoin="round"/>
</svg>
