<svg width="280" height="280" viewBox="0 0 280 280" fill="none" xmlns="http://www.w3.org/2000/svg">
<g filter="url(#filter0_d_2225_1164)">
<mask id="path-1-inside-1_2225_1164" fill="white">
<path d="M141.314 10.3545C210.35 10.3545 266.314 66.3189 266.314 135.354C266.314 204.39 210.35 260.354 141.314 260.354C72.2789 260.354 16.3145 204.39 16.3145 135.354C16.3145 66.3189 72.2789 10.3545 141.314 10.3545Z"/>
</mask>
<path d="M141.314 10.3545C210.35 10.3545 266.314 66.3189 266.314 135.354C266.314 204.39 210.35 260.354 141.314 260.354C72.2789 260.354 16.3145 204.39 16.3145 135.354C16.3145 66.3189 72.2789 10.3545 141.314 10.3545Z" fill="url(#paint0_linear_2225_1164)" shape-rendering="crispEdges"/>
<path d="M266.314 10.3545V260.354V10.3545ZM16.3145 260.354V10.3545V260.354ZM16.3145 10.3545H266.314H16.3145ZM266.314 141.837C266.314 210.872 210.35 266.837 141.314 266.837C72.2789 266.837 16.3145 210.872 16.3145 141.837V135.354C16.3145 200.81 72.2789 253.872 141.314 253.872C210.35 253.872 266.314 200.81 266.314 135.354V141.837Z" fill="#45A6D2" mask="url(#path-1-inside-1_2225_1164)"/>
<g clip-path="url(#clip0_2225_1164)">
<path d="M107.417 201.036C106.208 206.106 105.797 210.659 105.73 214.374C103.379 215.231 101.465 215.577 100.107 215.735C100.107 215.735 97.0742 216.084 94.525 216.92C94.3706 216.97 94.12 217.057 93.8141 217.203C93.5665 217.322 92.3924 218.094 91.7456 218.855C90.0121 220.894 89.5518 224.058 89.5518 224.058C88.8147 229.119 91.0697 236.691 96.5265 239.508C97.284 239.898 98.9301 240.749 101.086 240.685C101.59 240.67 102.164 240.554 106.021 239.292C107.705 238.742 109.031 238.246 110.531 237.684C112.41 236.982 113.96 236.367 115.056 235.924C119.356 236.449 122.934 236.781 125.489 236.991C127.117 237.125 140.726 238.22 151.138 237.643C152.971 237.541 154.949 237.393 154.949 237.393C157.504 237.2 160.455 236.93 163.73 236.542C166.952 238.22 169.807 239.042 171.82 239.476C175.028 240.166 177.289 240.653 179.92 239.77C183.081 238.71 184.858 236.315 185.546 235.365C188.811 230.838 189.822 223.315 186.227 219.33C184.829 217.78 182.568 217.04 178.078 215.528C175.809 214.764 173.863 214.287 172.479 213.992C172.616 209.442 172.269 203.053 170.09 195.827C168.729 191.317 166.981 187.559 165.332 184.602C162.553 185.569 158.888 186.641 154.506 187.396C153.285 187.606 147.91 188.497 140.898 188.36C130.267 188.153 120.993 185.68 114.581 183.445C112.131 187.55 109.22 193.476 107.42 201.034H107.417V201.036Z" fill="#C0B4DF"/>
<path d="M106.53 224.41C107.005 225.112 107.504 225.975 107.941 227C108.823 229.083 109.074 230.989 109.132 232.329C109.983 231.976 110.971 231.638 112.092 231.37C114.266 230.849 116.197 230.779 117.68 230.846C125.249 232.131 131.778 232.609 136.856 232.763C144.737 233.002 148.676 233.121 151.7 232.381C155.129 231.542 158.328 230.161 162.954 230.756C165.381 231.067 167.313 231.807 168.58 232.396C168.539 231.435 168.589 230.199 168.906 228.81C169.492 226.252 170.701 224.419 171.517 223.388C171.636 223.734 171.939 224.457 172.671 225.01C172.979 225.246 173.285 225.389 173.533 225.48C173.277 226.056 172.956 226.852 172.656 227.822C172.37 228.743 172.056 229.78 171.925 231.193C171.89 231.557 171.811 232.556 171.925 233.847C171.989 234.581 172.03 235.024 172.196 235.636C172.653 237.311 173.553 238.354 173.827 238.654C174.034 238.881 174.218 239.053 174.34 239.161C173.312 238.91 172.449 238.692 171.802 238.52C170.523 238.185 170.104 238.054 169.807 237.955C169.055 237.707 168.871 237.602 167.82 237.194C165.987 236.483 165.046 236.125 163.79 235.895C163.024 235.755 162.343 235.7 162.188 235.685C161.923 235.665 161.358 235.627 160.635 235.639C159.49 235.659 158.651 235.793 157.372 235.994C155.717 236.253 154.89 236.381 154.275 236.472C153.885 236.527 152.163 236.772 150.077 236.935C148.408 237.066 147.006 237.107 145.509 237.124C143.368 237.151 141.226 237.124 136.678 236.97C128.751 236.702 126.178 236.472 124.888 236.326C122.263 236.035 121.43 235.921 121.43 235.921C120.034 235.735 119.632 235.65 118.805 235.595C118.213 235.554 116.908 235.496 115.518 235.665C114.105 235.837 112.803 236.332 110.196 237.328C108.596 237.937 107.976 238.243 106.294 238.808C105.388 239.114 104.634 239.341 104.121 239.487C105.173 238.234 105.691 237.069 105.965 236.279C107.288 232.466 105.924 228.655 105.272 226.828C105.12 226.406 104.983 226.065 104.884 225.835C105.083 225.742 105.304 225.619 105.534 225.453C106.021 225.107 106.341 224.713 106.542 224.413H106.53V224.41Z" fill="#A394C5"/>
<path d="M106.535 212.069C106.535 212.069 126.97 215.391 133.283 197.31C133.283 197.31 139.955 201.412 146.122 199.504C147.142 201.634 149.013 204.725 152.337 207.326C160.622 213.812 170.819 211.685 172.48 211.312C172.433 209.715 172.326 208.034 172.142 206.283C172.063 205.546 171.976 204.824 171.88 204.119C171.481 201.45 170.834 198.368 169.773 195.026C168.457 190.872 166.843 187.384 165.325 184.602C162.706 185.555 159.046 186.694 154.58 187.483C142.125 189.683 131.844 187.673 125.498 186.37C120.875 185.421 117.125 184.293 114.579 183.445C112.732 186.752 110.704 191.076 109.134 196.34C107.313 202.458 106.695 207.9 106.535 212.067V212.069Z" fill="#A394C5"/>
<path d="M183.432 217.209C178.5 218.173 175.549 222.823 174.226 227.333C173.372 230.395 173.031 234.686 174.465 237.576C174.975 238.596 175.758 239.49 176.752 240.222C176.787 240.248 176.793 240.295 176.766 240.332C176.746 240.359 176.714 240.37 176.682 240.362C175.47 240.015 174.337 239.228 173.55 238.156C171.144 234.902 171.75 230.52 173.055 226.957C173.894 224.574 175.149 222.336 176.857 220.466C179.056 218.059 181.868 216.915 183.403 217.06C183.456 217.066 184.356 217.153 184.353 217.194C184.353 217.226 183.837 217.22 183.429 217.209H183.432Z" fill="#5E5573"/>
<path d="M181.824 216.778C181.635 216.632 179.587 215.097 177.62 215.909C177.288 216.046 176.032 216.568 175.93 217.707C175.86 218.499 176.367 219.315 177.218 219.776C177.92 219.164 178.777 218.499 179.805 217.864C180.516 217.427 181.195 217.069 181.824 216.778Z" fill="white" stroke="#5E5573" stroke-width="1.74804" stroke-linecap="round" stroke-linejoin="round"/>
<path d="M176.73 220.271C175.422 219.298 173.697 219.446 172.756 220.396C171.789 221.372 172.028 222.806 172.042 222.89C172.322 224.425 173.793 224.921 173.892 224.95C174.268 224.093 174.758 223.135 175.396 222.13C175.841 221.43 176.293 220.813 176.73 220.268V220.271Z" fill="white" stroke="#5E5573" stroke-width="1.74804" stroke-linecap="round" stroke-linejoin="round"/>
<path d="M114.577 183.448C111.911 187.914 108.738 194.496 107.098 202.921C106.294 207.058 106.014 210.828 105.997 214.068C104.558 214.531 102.39 215.19 99.698 215.842C96.0271 216.734 94.8559 216.585 93.3468 217.78C91.3977 219.327 90.6781 221.585 90.4334 222.351C89.9061 224.006 89.9264 225.352 89.9556 226.427C89.9731 227.12 90.0925 230.071 91.7998 233.498C92.633 235.17 93.5944 237.096 95.7183 238.643C96.4088 239.147 98.3666 240.51 101.082 240.682C101.656 240.717 102.874 240.737 107.049 239.295C111.404 237.789 111.861 237.148 114.157 236.635C116.858 236.032 118.947 236.309 120.966 236.545C120.966 236.545 129.63 237.547 139.137 237.783C143.842 237.9 147.982 238.005 153.517 237.3C158.546 236.656 160.801 235.852 164.547 236.816C167.021 237.454 167.898 238.284 171.717 239.269C175.234 240.175 176.991 240.63 178.704 240.324C184.225 239.348 188.627 231.921 188.312 225.419C188.242 223.991 188.102 221.078 186.063 218.791C183.89 216.349 180.434 215.606 176.991 214.866C176.991 214.866 176.874 214.84 172.472 213.995C172.545 211.26 172.431 208.192 171.988 204.87C170.835 196.218 167.901 189.339 165.325 184.602" stroke="#5E5573" stroke-width="1.74804" stroke-linecap="round" stroke-linejoin="round"/>
<path d="M187.098 231.078C189.304 224.912 188.183 218.873 184.596 217.59C181.008 216.307 176.312 220.266 174.107 226.432C171.901 232.598 173.022 238.637 176.609 239.92C180.197 241.203 184.893 237.245 187.098 231.078Z" fill="#DACFF3"/>
<path d="M93.9951 217.535C93.9951 217.494 94.8924 217.404 94.9449 217.401C96.4802 217.255 99.2917 218.397 101.491 220.807C103.201 222.677 104.457 224.915 105.293 227.298C106.598 230.861 107.204 235.243 104.798 238.497C104.008 239.569 102.875 240.356 101.666 240.702C101.634 240.714 101.602 240.702 101.582 240.673C101.555 240.638 101.561 240.589 101.596 240.563C102.593 239.828 103.376 238.937 103.883 237.917C105.317 235.027 104.976 230.736 104.122 227.674C102.799 223.164 99.8481 218.514 94.9157 217.55C94.5079 217.558 93.9951 217.564 93.9922 217.535H93.9951Z" fill="#5E5573"/>
<path d="M98.5405 218.205C99.5689 218.84 100.428 219.502 101.128 220.116C101.978 219.656 102.485 218.84 102.415 218.048C102.313 216.909 101.058 216.387 100.726 216.25C98.759 215.437 96.7109 216.973 96.5215 217.118C97.1508 217.41 97.8325 217.768 98.5405 218.205Z" fill="white" stroke="#5E5573" stroke-width="1.74804" stroke-linecap="round" stroke-linejoin="round"/>
<path d="M102.95 222.473C103.588 223.478 104.077 224.437 104.453 225.293C104.549 225.264 106.023 224.769 106.303 223.234C106.32 223.146 106.556 221.716 105.589 220.74C104.648 219.79 102.926 219.644 101.615 220.615C102.052 221.156 102.504 221.777 102.95 222.476V222.473Z" fill="white" stroke="#5E5573" stroke-width="1.74804" stroke-linecap="round" stroke-linejoin="round"/>
<path d="M101.734 240.274C105.322 238.99 106.442 232.952 104.237 226.785C102.032 220.619 97.3355 216.661 93.7479 217.944C90.1603 219.227 89.0398 225.266 91.2452 231.432C93.4506 237.598 98.1467 241.557 101.734 240.274Z" fill="#DACFF3"/>
<path d="M107.863 180.179C106.261 181.726 102.785 185.514 101.591 191.41C101.037 194.143 100.134 198.729 102.669 202.449C105.702 206.904 112.796 208.576 120.001 206.167C121.317 205.724 123.167 204.958 125.131 203.606C127.438 202.018 130.949 199.597 131.768 195.399C132.525 191.518 130.57 188.238 129.816 187.11C127.73 184.424 125.894 183.713 124.551 183.597C122.824 183.448 120.018 184.121 120.018 184.121C120.018 184.121 115.849 183.241 111.869 181.822C110.867 181.464 109.483 180.934 107.86 180.179H107.863Z" fill="#BBB3D3"/>
<path d="M107.467 180.709C106.914 181.263 106.282 181.98 105.673 182.877C105.032 183.821 104.583 184.715 104.266 185.461C104.676 185.747 105.134 186.026 105.641 186.286C108.103 187.547 110.521 187.716 112.155 187.649C114.398 186.699 116.645 185.747 118.888 184.797C116.01 183.999 112.977 182.994 109.842 181.718C109.032 181.388 108.242 181.05 107.47 180.709H107.467Z" fill="#A394C5"/>
<path d="M101.329 199.212C102.189 200.171 103.625 201.523 105.722 202.429C111.701 205.007 117.959 201.776 120.898 200.258C126.443 197.397 129.711 193.161 131.401 190.487C131.687 191.699 131.966 193.657 131.401 195.874C130.344 200.028 127.046 202.266 124.735 203.833C119.978 207.061 115.045 207.734 112.179 207.865C111.319 207.857 107.217 207.72 104.1 204.459C102.215 202.487 101.568 200.293 101.326 199.212H101.329Z" fill="#A394C5"/>
<path d="M107.863 180.179C105.911 181.983 103.74 184.593 102.315 188.147C101.529 190.114 98.8222 196.879 102.143 202.254C102.397 202.662 103.507 204.395 105.64 205.779C108.466 207.612 111.294 207.679 113.325 207.69C115.184 207.699 120.74 207.644 125.777 203.606C127.671 202.088 132.09 198.545 131.983 193.208C131.924 190.399 130.637 188.243 129.818 187.11" stroke="#5E5573" stroke-width="1.74804" stroke-linecap="round" stroke-linejoin="round"/>
<path d="M118.148 187.101C118.148 187.101 117.979 190.155 119.675 191.387C119.675 191.387 119.791 192.415 118.64 191.387C118.64 191.387 116.706 189.715 117.708 187.101C117.708 187.101 118.145 186.527 118.148 187.101Z" fill="#A394C5"/>
<path d="M117.417 191.844C117.417 191.844 116.365 190.793 116.211 188.051C116.211 188.051 115.922 187.034 115.532 188.051C115.532 188.051 115.168 190.545 116.759 191.844C116.759 191.844 118.285 193.053 117.417 191.844Z" fill="#A394C5"/>
<path d="M106.375 190.067C109.087 188.742 112.079 187.288 114.841 186.035C117.408 184.963 119.966 183.585 122.81 183.343C124.936 183.308 127.043 183.815 128.916 184.977C133.391 187.725 134.061 194.568 130.795 198.466L130.617 198.367C131.101 196.876 131.36 195.375 131.299 193.922C131.2 191.136 130.038 188.328 127.768 186.641C126.431 185.601 124.607 184.963 122.85 184.907C120.24 185.012 117.705 186.157 115.226 186.982C114.13 187.366 111.925 188.185 110.841 188.608C109.385 189.164 107.925 189.715 106.459 190.256L106.375 190.07V190.067Z" fill="#5E5573"/>
<path d="M131.137 196.937C131.137 196.937 125.572 194.874 131.073 191.871C131.073 191.871 132.728 194.845 131.137 196.937Z" fill="white" stroke="#5E5573" stroke-width="1.74804" stroke-linecap="round" stroke-linejoin="round"/>
<path d="M130.72 191.605C130.72 191.605 124.812 192.153 128.471 187.066C128.471 187.066 131.25 189.033 130.72 191.605Z" fill="white" stroke="#5E5573" stroke-width="1.74804" stroke-linecap="round" stroke-linejoin="round"/>
<path d="M124.057 184.704C124.057 184.704 124.147 190.635 128.811 186.452C128.811 186.452 126.556 183.899 124.057 184.704Z" fill="white" stroke="#5E5573" stroke-width="1.74804" stroke-linecap="round" stroke-linejoin="round"/>
<path d="M170.691 180.508C172.293 182.055 175.769 185.843 176.964 191.739C177.517 194.472 178.42 199.058 175.886 202.778C172.853 207.233 165.759 208.905 158.554 206.496C157.237 206.053 155.387 205.287 153.423 203.935C151.116 202.347 147.605 199.926 146.787 195.728C146.029 191.847 147.984 188.567 148.739 187.439C150.825 184.753 152.66 184.042 154.003 183.926C155.731 183.777 158.536 184.45 158.536 184.45C158.536 184.45 162.705 183.57 166.685 182.151C167.687 181.793 169.071 181.263 170.694 180.508H170.691Z" fill="#BBB3D3"/>
<path d="M171.085 181.036C171.638 181.589 172.27 182.306 172.879 183.203C173.52 184.147 173.969 185.042 174.286 185.787C173.876 186.073 173.418 186.353 172.911 186.612C170.449 187.873 168.031 188.042 166.397 187.975C164.154 187.026 161.907 186.073 159.664 185.123C162.543 184.325 165.575 183.32 168.71 182.044C169.52 181.714 170.31 181.377 171.082 181.036H171.085Z" fill="#A394C5"/>
<path d="M177.229 199.542C176.37 200.5 174.934 201.852 172.836 202.758C166.858 205.336 160.6 202.105 157.66 200.587C152.116 197.727 148.847 193.49 147.157 190.816C146.872 192.028 146.592 193.986 147.157 196.203C148.215 200.357 151.513 202.595 153.823 204.162C158.581 207.39 163.513 208.063 166.38 208.194C167.239 208.186 171.341 208.049 174.459 204.789C176.344 202.816 176.991 200.622 177.232 199.542H177.229Z" fill="#A394C5"/>
<path d="M170.69 180.508C172.642 182.312 174.813 184.922 176.237 188.476C177.024 190.443 179.731 197.208 176.409 202.583C176.156 202.991 175.046 204.724 172.913 206.108C170.087 207.941 167.258 208.008 165.228 208.02C163.369 208.028 157.813 207.973 152.776 203.935C150.882 202.417 146.463 198.874 146.57 193.537C146.629 190.729 147.916 188.573 148.735 187.439" stroke="#5E5573" stroke-width="1.74804" stroke-linecap="round" stroke-linejoin="round"/>
<path d="M160.413 187.43C160.413 187.43 160.582 190.484 158.886 191.716C158.886 191.716 158.77 192.744 159.92 191.716C159.92 191.716 161.855 190.044 160.853 187.43C160.853 187.43 160.416 186.856 160.413 187.43Z" fill="#A394C5"/>
<path d="M161.14 192.173C161.14 192.173 162.192 191.122 162.346 188.38C162.346 188.38 162.635 187.363 163.025 188.38C163.025 188.38 163.389 190.874 161.799 192.173C161.799 192.173 160.272 193.382 161.14 192.173Z" fill="#A394C5"/>
<path d="M172.102 190.583C169.267 189.543 166.194 188.319 163.338 187.308C160.856 186.484 158.322 185.339 155.714 185.234C153.957 185.286 152.133 185.927 150.796 186.967C148.527 188.654 147.364 191.463 147.265 194.248C147.204 195.704 147.463 197.202 147.947 198.694L147.769 198.793C144.506 194.895 145.173 188.054 149.648 185.304C151.522 184.141 153.625 183.634 155.755 183.669C158.598 183.911 161.156 185.289 163.723 186.361C164.786 186.839 166.922 187.841 167.971 188.354C169.381 189.027 170.788 189.709 172.189 190.396L172.105 190.583H172.102Z" fill="#5E5573"/>
<path d="M147.319 192.264C153.09 194.705 147.759 197.31 147.759 197.31C145.967 195.387 147.319 192.264 147.319 192.264Z" fill="white" stroke="#5E5573" stroke-width="1.74804" stroke-linecap="round" stroke-linejoin="round"/>
<path d="M150.088 187.396C153.75 192.482 147.839 191.935 147.839 191.935C147.308 189.362 150.088 187.396 150.088 187.396Z" fill="white" stroke="#5E5573" stroke-width="1.74804" stroke-linecap="round" stroke-linejoin="round"/>
<path d="M149.748 186.781C154.412 190.964 154.503 185.033 154.503 185.033C152 184.229 149.748 186.781 149.748 186.781Z" fill="white" stroke="#5E5573" stroke-width="1.74804" stroke-linecap="round" stroke-linejoin="round"/>
<path d="M163.678 214.476C164.747 213.969 165.703 213.08 166.862 212.658C168.045 212.271 169.28 211.767 170.542 211.848C171.404 211.936 172.208 212.148 172.969 212.626V212.801C172.164 213.276 171.372 213.453 170.606 213.596C169.467 213.762 168.316 213.503 167.188 213.777C165.994 213.917 164.965 214.517 163.724 214.645L163.681 214.476H163.678Z" fill="#5E5573"/>
<path d="M167.931 219.671C168.557 218.779 169.297 217.835 169.973 216.979C170.768 216.113 171.433 214.977 172.601 214.546C173.417 214.257 174.425 214.228 175.147 214.782L175.133 214.957C174.384 215.385 173.897 215.74 173.376 216.113C172.851 216.515 172.202 216.734 171.654 217.142C171.366 217.351 171.077 217.579 170.783 217.809C169.912 218.467 168.953 219.187 168.05 219.796L167.928 219.671H167.931Z" fill="#5E5573"/>
<path d="M114.801 214.464C113.968 214.397 113.184 214.042 112.45 213.838C111.716 213.634 110.97 213.511 110.212 213.459C109.449 213.401 108.683 213.567 107.919 213.415C107.153 213.272 106.361 213.092 105.557 212.62V212.445C106.317 211.967 107.121 211.755 107.984 211.667C108.825 211.571 109.65 211.865 110.454 212.081C111.273 212.294 112.071 212.611 112.802 213.036C113.528 213.473 114.122 213.966 114.845 214.295L114.801 214.464Z" fill="#5E5573"/>
<path d="M110.473 219.615C109.57 219.006 108.608 218.29 107.74 217.628C107.178 217.182 106.61 216.725 105.972 216.428C104.99 215.915 104.489 215.376 103.393 214.773L103.379 214.598C104.101 214.045 105.109 214.074 105.925 214.362C107.096 214.793 107.758 215.93 108.553 216.795C109.229 217.651 109.969 218.595 110.595 219.487L110.473 219.612V219.615Z" fill="#5E5573"/>
<path d="M80.4246 111.169C78.863 117.491 78.4143 120.653 78.2279 124.361C77.9656 129.568 78.6066 131.106 77.8724 135.791C77.0916 140.778 76.0923 140.787 75.0319 146.258C74.2715 150.206 73.4761 154.308 74.5919 159.258C75.6786 164.083 78.0414 167.331 79.5098 169.306C83.3846 174.527 87.8683 177.196 90.5661 178.766C94.6157 181.123 99.452 182.618 109.116 185.601C110.549 186.044 112.236 186.539 114.267 187.069C115.039 187.267 117.806 187.978 121.585 188.718C122.573 188.911 124.79 189.333 127.741 189.773C132.213 190.44 137.623 191.247 144.353 191.46C148.624 191.597 153.746 191.731 160.447 190.743C167.535 189.697 172.712 187.938 174.513 187.297C177.176 186.347 179.265 185.371 183.445 183.41C193.31 178.789 196.87 176.045 199.699 173.129C199.877 172.945 200.116 172.698 200.431 172.351C207.455 164.668 208.431 155.409 208.556 154.078C209.316 146.002 206.674 139.794 205.354 137.151C205.375 135.546 205.383 133.212 205.308 130.401C205.153 124.699 204.754 119.732 204.468 117.553C203.72 111.807 201.238 99.1807 192.043 87.1746C186.802 80.331 181.421 76.3601 179.696 75.1335C168.951 67.4975 157.895 65.4464 156.19 65.3736C155.063 65.3212 154.542 65.193 153.49 64.9366C152.391 64.6686 151.835 64.5258 151.468 64.1296C150.521 63.1099 151.075 61.1929 151.258 60.5578C152.045 57.8279 153.938 56.8694 153.615 56.3071C153.242 55.6545 150.227 56.1294 147.788 57.8075C147.788 57.8075 146.795 58.4922 143.418 62.4107C144.053 52.3361 143.031 51.9836 143.031 51.9836C142.53 51.8117 141.915 52.342 141.012 53.1228C139.733 54.2211 139.095 55.4884 138.751 56.2925C137.32 59.6517 137.903 62.4602 137.387 62.536C136.831 62.6204 136.639 59.2759 134.06 57.2161C132.962 56.3362 131.138 55.4535 130.401 56.0507C129.221 57.0121 132.373 60.5665 131.22 63.3401C130.101 66.0379 125.874 65.6824 119.592 67.2877C112 69.228 106.747 72.6892 103.802 74.6062C97.8263 78.4956 94.0243 82.7433 92.5938 84.4331C84.751 93.689 82.3095 103.562 80.4304 111.164H80.4246V111.169Z" fill="#C0B4DF"/>
<path d="M176.025 106.161C171.748 106.933 168.205 103.472 167.392 101.547C167.145 100.958 166.757 100.04 167.046 99.1139C167.046 99.1139 167.078 99.009 167.57 97.8291C167.57 97.8291 169.126 99.9122 170.807 101.247C172.948 102.948 175.261 103.408 176.203 103.583C177.924 103.906 179.381 103.825 180.345 103.703C179.655 104.445 178.198 105.768 176.025 106.161Z" fill="#5E5573"/>
<path d="M103.706 156.899C104.446 154.497 100.957 151.29 95.9133 149.737C90.8696 148.183 86.181 148.871 85.4412 151.273C84.7013 153.675 88.1903 156.882 93.2341 158.435C98.2779 159.989 102.966 159.301 103.706 156.899Z" fill="#FAC0D8"/>
<path d="M189.431 158.413C194.475 156.859 197.964 153.653 197.224 151.251C196.484 148.849 191.795 148.161 186.752 149.715C181.708 151.268 178.219 154.475 178.959 156.877C179.699 159.279 184.387 159.967 189.431 158.413Z" fill="#FAC0D8"/>
<path d="M92.5946 84.4389C91.2864 83.932 89.317 83.1541 86.9367 82.1577C77.71 78.2887 76.2678 77.0039 71.7346 75.6958C68.5124 74.7664 64.5764 73.6302 59.8188 74.5042C53.5812 75.6491 49.4762 79.591 47.6611 81.6012C43.7776 85.9043 41.1147 89.447 38.5597 93.8754C36.7971 96.9257 34.9995 100.046 33.4729 104.512C31.4102 110.555 28.5259 119.001 32.2055 125.902C33.6448 128.603 36.0454 130.983 38.3266 133.247C40.8438 135.744 42.3733 136.723 44.64 139.371C46.6269 141.69 47.9437 143.846 48.7449 145.306C49.4995 147.418 50.2424 149.658 50.9416 152.03C51.5797 154.186 52.1332 156.272 52.6168 158.273C52.8761 159.281 53.3102 160.72 54.0415 162.364C55.2768 165.134 57.3744 169.842 62.1291 172.313C66.202 174.425 70.3449 173.921 72.3231 173.519C72.3231 173.519 76.5388 172.156 79.5134 169.303C78.718 168.377 77.5993 166.911 76.5971 164.936C72.6057 157.067 74.4062 148.703 75.0355 146.255C75.9095 142.864 76.6786 142.512 77.4478 138.587C78.2023 134.724 78.0712 131.924 78.0508 129.833C77.946 118.992 80.6642 109.818 81.7742 106.077C83.3037 100.92 84.941 97.3394 85.3373 96.4858C87.7496 91.2825 90.4532 87.2561 92.5946 84.436H92.6004L92.5946 84.4389Z" fill="#C0B4DF"/>
<path d="M38.3244 133.241C39.7898 135.199 41.6631 135.892 44.6377 139.365C46.6247 141.684 47.9415 143.84 48.7427 145.3C49.4973 147.412 50.2402 149.652 50.9394 152.024C51.5775 154.18 52.131 156.266 52.6146 158.267C52.8739 159.275 53.308 160.715 54.0393 162.358C55.2746 165.128 57.3722 169.837 62.1269 172.307C66.1998 174.419 70.3427 173.915 72.3209 173.513C72.3209 173.513 76.5366 172.15 79.5112 169.298C78.7158 168.371 77.5971 166.906 76.5948 164.93C72.6035 157.061 74.404 148.697 75.0333 146.25C75.9073 142.858 76.6764 142.506 77.4456 138.582C77.6408 137.576 77.7777 136.65 77.8709 135.782C78.1914 132.83 78.0603 130.098 78.0486 129.827C77.8709 125.684 78.5468 121.314 79.1208 117.576C79.5694 114.66 80.3473 110.709 81.772 106.074C81.772 106.074 73.9203 95.4865 62.4881 93.048C60.9207 92.7129 60.0234 92.5236 58.7036 92.5673C47.6473 92.9285 39.8743 108.751 37.5582 119.344C36.588 123.781 35.3789 129.311 38.3273 133.241H38.3302H38.3244Z" fill="#ACECC7"/>
<path d="M38.8518 117.037C39.4869 117.436 41.7681 112.649 47.3852 109.619C51.6125 107.335 55.6243 107.181 57.282 107.117C69.1366 106.662 77.772 116.067 79.1238 117.582C79.4676 115.545 79.8958 113.407 80.4232 111.172C80.8456 109.389 81.3001 107.691 81.7721 106.08C78.5557 103.621 75.7908 101.593 73.6611 100.063C69.9203 97.3772 68.5103 96.4682 66.4942 95.6291C64.2392 94.6881 62.1212 93.8024 59.3476 93.9831C56.3293 94.1812 54.2113 95.5301 52.37 96.7333C51.1027 97.5607 48.0669 99.7196 44.1979 105.57C40.7747 110.747 38.1526 116.603 38.8518 117.046V117.04V117.037Z" fill="#8EC2A7"/>
<path d="M77.8274 168.639C74.9344 170.614 71.7559 172.843 68.0821 172.657C65.3289 172.517 62.8263 171.031 60.8044 169.248C56.5829 165.528 53.9346 160.887 52.5566 155.447C51.1814 150.008 50.6832 144.327 47.0619 139.898C45.5586 138.063 43.5483 136.74 41.7945 135.161C39.1491 132.781 36.728 130.106 34.6624 127.205C28.8182 118.992 33.905 107.676 37.7157 99.6031C41.7508 91.0581 46.7997 80.8496 56.2129 77.2544C61.4366 75.2588 67.581 75.6025 72.7581 77.5749C79.1414 80.0076 85.2945 83.055 91.6719 85.5314C93.2976 86.1636 94.0026 83.5445 92.3915 82.9181C86.1918 80.5087 80.1931 77.639 74.0254 75.1772C69.1426 73.2252 63.6799 72.7474 58.5232 73.7729C47.394 75.9929 40.8389 86.857 36.3027 96.2964C34.2895 100.486 32.3492 104.728 31.0032 109.182C29.4038 114.473 28.2908 120.728 30.7264 125.943C31.9035 128.463 33.8729 130.736 35.688 132.81C37.8468 135.278 40.2445 137.442 42.785 139.499C47.6125 143.406 48.3409 149.233 49.6548 154.934C51.164 161.469 54.1852 167.279 59.406 171.602C61.8882 173.656 64.8103 175.209 68.085 175.363C72.257 175.558 75.8958 173.234 79.1996 170.976C80.6301 169.997 79.2783 167.649 77.8332 168.636H77.8274V168.639Z" fill="#5E5573"/>
<path d="M39.4973 133.192C37.2656 123.682 39.7391 114.98 44.721 106.819C46.9294 103.207 49.5165 99.5447 53.0766 97.1528C57.4934 94.184 62.3238 94.5132 66.9881 96.8003C71.6525 99.0873 76.0721 102.991 79.877 106.79C81.1123 108.026 83.0293 106.109 81.7911 104.876C74.9126 98.0064 64.302 88.7272 53.8807 93.578C49.5135 95.6116 46.2535 99.5359 43.643 103.466C40.7733 107.787 38.294 112.431 36.9714 117.471C35.5613 122.837 35.6224 128.53 36.884 133.917C37.2802 135.616 39.8935 134.896 39.4973 133.197V133.192Z" fill="#5E5573"/>
<path d="M92.0251 85.5722C92.1154 85.2139 89.8575 84.5584 83.9928 82.181C77.7552 79.6522 76.517 78.8568 72.1732 77.4468C67.9225 76.0687 66.055 75.8386 64.4818 75.7978C61.0556 75.7075 58.486 76.4882 57.9674 76.6514C53.2331 78.1431 50.3255 81.208 47.3306 84.3632C44.9998 86.8192 43.4732 88.9751 42.809 89.9482C35.0797 101.246 32.5713 114.805 32.5684 114.814C32.5684 114.814 34.5582 107.609 37.09 102.048C41.3086 92.78 47.2781 87.5097 48.7902 86.2248C52.4203 83.1395 55.392 81.7207 57.0351 81.039C58.8472 80.2844 61.3586 79.2647 64.7469 79.1773C65.3704 79.1628 67.3049 79.1424 71.1243 80.1271C76.7734 81.5809 77.6882 82.9443 82.5653 84.3661C87.2413 85.7266 91.9027 86.0733 92.028 85.5722V85.5664H92.0309L92.0251 85.5722Z" fill="#DACFF3"/>
<path d="M189.514 83.6318C190.822 83.1248 192.791 82.3469 195.171 81.3506C204.398 77.4816 205.84 76.1968 210.374 74.8886C213.596 73.9593 217.532 72.823 222.289 73.6971C228.527 74.842 232.632 78.7839 234.447 80.7941C238.331 85.0972 240.993 88.6399 243.549 93.0683C245.311 96.1186 247.109 99.2389 248.635 103.705C250.698 109.747 253.582 118.193 249.903 125.095C248.463 127.796 246.063 130.176 243.782 132.44C241.264 134.937 239.735 135.916 237.468 138.564C235.481 140.883 234.164 143.039 233.363 144.499C232.609 146.611 231.866 148.851 231.167 151.223C230.529 153.379 229.975 155.465 229.491 157.466C229.232 158.474 228.798 159.913 228.067 161.557C226.831 164.327 224.734 169.035 219.979 171.506C215.906 173.618 211.763 173.114 209.785 172.712C209.785 172.712 205.569 171.348 202.595 168.496C203.39 167.57 204.509 166.104 205.511 164.129C209.502 156.26 207.702 147.896 207.073 145.448C206.199 142.057 205.43 141.705 204.66 137.78C203.906 133.917 204.037 131.117 204.057 129.025C204.162 118.185 201.444 109.01 200.334 105.27C198.804 100.113 197.167 96.5323 196.771 95.6787C194.359 90.4753 191.655 86.449 189.514 83.6288H189.508L189.514 83.6318Z" fill="#C0B4DF"/>
<path d="M243.782 132.438C242.316 134.395 240.443 135.089 237.468 138.562C235.481 140.881 234.164 143.037 233.363 144.496C232.609 146.608 231.866 148.849 231.167 151.22C230.528 153.376 229.975 155.462 229.491 157.464C229.232 158.472 228.798 159.911 228.067 161.554C226.831 164.325 224.734 169.033 219.979 171.503C215.906 173.616 211.763 173.112 209.785 172.71C209.785 172.71 205.569 171.346 202.595 168.494C203.39 167.567 204.509 166.102 205.511 164.127C209.502 156.258 207.702 147.893 207.073 145.446C206.199 142.055 205.43 141.702 204.66 137.778C204.465 136.773 204.328 135.846 204.235 134.978C203.915 132.027 204.046 129.294 204.057 129.023C204.235 124.88 203.559 120.51 202.985 116.772C202.537 113.856 201.759 109.905 200.334 105.27C200.334 105.27 208.186 94.6828 219.618 92.2443C221.185 91.9092 222.083 91.7198 223.402 91.7635C234.459 92.1248 242.232 107.947 244.548 118.541C245.518 122.978 246.727 128.507 243.779 132.438H243.776H243.782Z" fill="#ACECC7"/>
<path d="M243.25 116.23C242.615 116.629 240.334 111.843 234.717 108.813C230.49 106.529 226.478 106.374 224.82 106.31C212.966 105.856 204.33 115.26 202.978 116.775C202.635 114.739 202.206 112.6 201.679 110.366C201.257 108.583 200.802 106.884 200.33 105.273C203.546 102.814 206.311 100.786 208.441 99.2567C212.182 96.5705 213.592 95.6616 215.608 94.8225C217.863 93.8815 219.981 92.9958 222.755 93.1764C225.773 93.3745 227.891 94.7235 229.732 95.9267C230.999 96.7541 234.035 98.9129 237.904 104.763C241.327 109.94 243.95 115.796 243.25 116.239V116.233V116.23Z" fill="#8EC2A7"/>
<path d="M202.906 170.172C205.994 172.281 209.298 174.405 213.156 174.562C216.083 174.679 218.936 173.557 221.293 171.882C225.843 168.648 229.337 163.922 231.178 158.67C233.115 153.143 233.069 146.631 236.46 141.684C238.051 139.362 240.521 137.833 242.569 135.954C245.252 133.495 247.671 130.727 249.78 127.761C256.137 118.829 251.108 106.756 246.963 97.9222C242.68 88.8033 237.415 78.4724 227.653 74.2538C222.036 71.824 215.16 71.8473 209.418 73.8575C206.472 74.886 203.652 76.2873 200.794 77.5372C197.132 79.1395 193.435 80.6574 189.711 82.1054C188.103 82.7288 188.802 85.3509 190.431 84.7187C196.351 82.4171 202.114 79.7921 207.961 77.3216C212.518 75.3958 217.473 74.6296 222.385 75.4861C232.862 77.3099 238.939 87.5301 243.201 96.3169C245.072 100.171 246.875 104.064 248.189 108.145C249.748 112.985 251.237 119.071 248.964 123.927C247.866 126.27 246.01 128.376 244.314 130.293C242.26 132.615 240 134.695 237.584 136.627C233.144 140.187 231.597 145.195 230.452 150.564C229.759 153.795 229.092 157.085 227.693 160.1C226.412 162.868 224.567 165.233 222.417 167.375C220.442 169.341 218.088 171.098 215.306 171.678C211.169 172.537 207.509 170.046 204.264 167.826C202.822 166.839 201.464 169.187 202.897 170.166H202.9L202.906 170.172Z" fill="#5E5573"/>
<path d="M245.218 133.107C246.369 128.201 246.529 123.047 245.477 118.109C244.402 113.063 242.092 108.445 239.383 104.096C236.906 100.122 233.932 96.2062 229.911 93.689C225.054 90.6533 219.682 90.9679 214.587 93.2579C209.171 95.6935 204.477 99.9062 200.311 104.064C199.076 105.299 200.993 107.213 202.225 105.978C208.232 99.9791 218.333 90.5775 227.54 95.4487C231.42 97.5027 234.261 101.118 236.592 104.748C239.149 108.734 241.372 112.926 242.558 117.538C243.805 122.383 243.741 127.522 242.605 132.382C242.209 134.078 244.819 134.803 245.218 133.102V133.107Z" fill="#5E5573"/>
<path d="M190.076 84.768C189.986 84.4097 192.244 83.7542 198.108 81.3768C204.346 78.848 205.584 78.0526 209.928 76.6426C214.179 75.2645 216.046 75.0344 217.619 74.9936C221.046 74.9033 223.615 75.684 224.134 75.8472C228.868 77.3389 231.776 80.4038 234.771 83.559C237.101 86.015 238.628 88.1709 239.292 89.144C247.022 100.442 249.53 114.001 249.533 114.01C249.533 114.01 247.543 106.805 245.011 101.243C240.793 91.9758 234.823 86.7055 233.311 85.4206C229.681 82.3353 226.709 80.9165 225.066 80.2348C223.254 79.4802 220.743 78.4605 217.354 78.3731C216.731 78.3586 214.796 78.3382 210.977 79.3229C205.328 80.7767 204.413 82.1402 199.536 83.5619C194.86 84.9225 190.199 85.2691 190.073 84.768V84.7622H190.07L190.076 84.768Z" fill="#DACFF3"/>
<path d="M99.1836 80.6343C105.13 76.6983 108.102 74.7288 111.146 73.2459C122.415 67.7483 132.609 68.9486 133.655 64.3688C133.85 63.518 133.903 61.7059 134.162 61.703C134.465 61.6972 134.351 64.1852 135.793 64.9922C136.341 65.2981 136.909 65.2515 137.035 65.2369C137.999 65.1321 138.582 64.3658 138.727 64.1619C139.421 63.183 138.911 62.4576 139.269 60.9776C139.657 59.3723 140.775 58.0729 141.11 58.1982C141.722 58.4254 139.56 63.2296 141.361 64.7737C141.964 65.2894 142.873 65.3273 143.47 65.1816C144.56 64.9136 144.79 63.9958 146.352 62.3614C147.129 61.5486 148.449 60.1676 148.962 60.4386C149.658 60.8086 147.846 63.6958 148.872 65.8109C149.737 67.5881 152.289 68.1503 154.43 68.3368C156.817 68.6573 160.47 69.3128 164.726 70.8015C166.046 71.2619 169.822 72.6428 179.311 78.3065C182.189 80.0225 186.137 82.4581 190.761 85.5754C189.103 83.4894 186.772 80.8761 183.666 78.2162C181.534 76.3924 177.633 73.3391 172.109 70.653C172.109 70.653 166.308 67.8357 159.619 66.3644C157.583 65.9158 156.566 65.6943 155.785 65.671C154.964 65.6506 154.299 65.7177 153.399 65.4001C152.674 65.1437 151.855 64.6601 151.456 64.1357C150.465 62.8188 151.176 59.9637 153.539 57.4407C153.539 57.4407 147.543 56.823 143.362 63.352C143.785 55.5411 142.931 53.6416 142.046 53.4027C140.825 53.0764 138.517 55.6402 137.705 58.1078C137.282 59.3868 136.886 61.7904 136.886 61.7904C136.886 61.7904 136.318 60.2667 135.493 59.0926C135.281 58.7896 134.748 58.0263 133.949 57.4582C132.347 56.3132 130.43 56.4647 129.62 56.5783C130.072 56.9425 131.246 57.9884 131.653 59.751C131.773 60.2667 132.175 62.0031 131.211 63.3461C130.634 64.1561 129.827 64.4212 128.239 64.9194C126.264 65.5429 125.331 65.4613 122.316 66.0498C122.316 66.0498 121.442 66.2188 119.977 66.5596C115.373 67.6259 111.062 69.8722 108.99 70.9676C104.844 73.1556 102.039 75.2299 101.287 75.7951C99.7139 76.975 97.9804 78.2861 96.0168 80.3837C94.1901 82.3357 92.8907 84.1828 92.0254 85.5783C93.7501 84.3372 96.1974 82.6154 99.1836 80.6401H99.1807L99.1836 80.6343Z" fill="#DACFF3"/>
<path d="M92.5859 84.4391C94.2233 82.2249 96.4229 79.7165 99.3275 77.3129C101.909 75.1745 104.103 73.9042 106.524 72.5029C110.241 70.347 113.187 69.1088 115.436 68.1736C117.399 67.3549 118.658 66.9208 119.984 66.5625C121.303 66.2041 121.7 66.1866 124.185 65.6972C130.154 64.5231 130.874 64.0278 131.32 63.3373C132.188 61.9942 131.783 60.2724 131.66 59.7509C131.229 57.9213 130.014 56.8812 129.627 56.5782C130.178 56.4937 132.095 56.2752 133.956 57.4581C136.68 59.1886 136.855 62.3992 136.864 62.7022C136.861 61.5572 137.007 59.11 138.469 56.5054C139.768 54.1921 141.49 52.8549 142.428 52.2285C142.851 53.4172 143.279 55.0021 143.457 56.9016C143.672 59.2323 143.434 61.2018 143.151 62.5973C143.76 61.598 145.228 59.4887 147.976 58.0116C150.298 56.7618 152.451 56.5433 153.595 56.5054C150.624 61.0678 150.726 63.1509 151.419 64.2084C152.343 65.6185 154.414 65.3447 158.586 66.0876C161.896 66.679 164.133 67.4802 167.586 68.7213C168.684 69.1146 174.15 71.1278 180.341 75.5066C182.954 77.3595 186.214 79.9991 189.526 83.6292" stroke="#5E5573" stroke-width="1.74804" stroke-linecap="round" stroke-linejoin="round"/>
<path d="M89.6059 88.8671C90.0021 87.9873 90.4887 87.0404 90.9344 86.181C91.2199 85.6653 91.6132 84.9428 91.8492 84.4096C92.3416 83.4803 93.0612 82.8189 94.0809 82.3411C94.1275 82.3236 94.177 82.3411 94.1974 82.3877C94.1566 83.5152 93.7663 84.4504 93.0816 85.2516C92.4348 85.91 91.7269 86.8074 91.1005 87.4891C90.6518 87.9786 90.2061 88.4738 89.7341 88.9487C89.6758 89.0099 89.5739 88.94 89.6117 88.8642H89.6088L89.6059 88.8671Z" fill="#5E5573"/>
<path d="M192.251 88.0226C191.573 87.335 190.865 86.5426 190.221 85.8142C189.842 85.3626 189.312 84.7363 188.901 84.3196C188.208 83.5243 187.855 82.6153 187.773 81.4965C187.773 81.447 187.808 81.4062 187.858 81.4033C188.895 81.8491 189.629 82.5483 190.125 83.4777C190.506 84.3167 191.089 85.3015 191.497 86.1347C191.794 86.7319 192.094 87.3234 192.368 87.9352C192.403 88.008 192.298 88.0838 192.246 88.0197H192.248L192.251 88.0226Z" fill="#5E5573"/>
<path d="M184.233 175.582C185.868 174.431 187.394 173.878 187.56 173.813C189.072 173.257 193.617 170.786 206.646 162.629C205.888 164.045 205.148 165.242 204.513 166.204C203.628 167.544 202.558 169.006 201.276 170.521C200.671 171.235 200.105 171.861 199.593 172.4C193.046 179.32 185.908 182.472 180.329 184.87C177.139 186.242 173.885 187.279 173.054 187.541C173.031 187.55 172.917 187.614 172.897 187.591C172.804 187.474 175.321 185.686 177.888 182.973C179.612 181.152 180.597 180.109 181.358 178.76C181.503 178.501 181.847 177.866 182.479 177.138C183.021 176.511 183.595 176.031 184.227 175.585L184.233 175.582Z" fill="#A394C5"/>
<path d="M75.6582 159.034C79.4369 162.471 85.1734 167.054 92.9551 171.098C98.5546 174.009 103.143 175.564 106.028 176.526C107.848 177.062 109.704 177.563 111.595 178.026C137.725 184.436 162.769 181.682 184.232 175.579C182.781 179.372 179.952 184.634 174.51 187.294C173.1 187.984 171.634 188.345 168.709 189.065C162.635 190.563 157.737 190.804 154.125 190.965C152.018 191.058 149.14 191.116 145.702 190.965C142.547 191.136 139.974 191.11 138.256 191.055C127.549 190.72 119.257 188.459 114.261 187.066C113.69 186.906 111.286 186.23 108.14 185.181C104.58 183.996 99.1956 182.023 92.6812 178.859C89.121 177.132 87.6061 176.185 86.2193 175.168C84.11 173.618 80.0312 170.545 77.4907 165.041C76.3836 162.64 75.8942 160.49 75.6582 159.028V159.034Z" fill="#A394C5"/>
<path d="M84.8426 98.4056C81.7894 106.397 79.6888 114.826 79.2227 123.385C79.0508 127.068 79.7791 130.762 79.2518 134.442C78.9663 136.9 78.5293 139.354 77.7456 141.71C77.3522 142.887 76.9269 144.024 76.6326 145.192C76.3296 146.36 76.1228 147.555 75.9713 148.761C75.4906 152.385 75.1002 156.021 75.6246 159.637C76.5365 166.279 80.3064 170.172 85.4661 174.049C99.733 184.476 123.428 189.429 140.929 190.256C145.797 190.469 150.683 190.676 155.536 190.321C165.203 189.604 174.654 186.757 183.286 182.387C187.537 180.164 191.945 177.977 195.631 174.894C198.334 172.552 200.939 170 203.042 167.115C205.087 164.272 206.524 160.977 206.78 157.46C207.101 153.012 206.279 148.452 205.093 144.149L204.977 143.709L204.916 143.491L204.886 143.383C204.886 143.362 204.834 143.246 204.913 143.418L204.852 143.257C203.747 139.514 202.722 135.485 203.036 131.522C203.739 123.216 202.614 114.837 200.773 106.729L200.703 106.447C200.682 106.348 200.653 106.289 200.621 106.085L200.639 106.182C199.995 104.265 198.71 100.337 198.081 98.4086C198.063 98.3532 198.092 98.2949 198.148 98.2775C198.203 98.26 198.258 98.2862 198.279 98.3416C199.019 100.253 200.467 104.075 201.189 105.989L201.207 106.085C201.224 106.068 201.248 106.202 201.28 106.289L201.361 106.572C202.789 111.667 203.788 116.891 204.28 122.159C204.481 124.516 204.624 126.867 204.566 129.244C204.534 130.794 204.374 132.315 204.505 133.847C204.633 135.348 204.881 136.874 205.23 138.337C205.606 139.828 206.279 142.013 206.579 143.013C207.072 144.717 207.555 146.453 207.943 148.184C208.831 152.513 209.265 157.087 208.114 161.417C206.774 166.384 203.424 170.492 199.794 173.997C198.923 174.859 197.964 175.765 197.029 176.546C193.183 179.809 188.703 182.023 184.257 184.296C175.365 188.739 165.602 191.527 155.667 192.153C150.72 192.459 145.776 192.191 140.847 191.923C123.081 190.921 99.1765 185.688 84.7785 174.955C79.4353 170.865 75.5518 166.737 74.6777 159.756C74.1796 156.053 74.6253 152.283 75.1555 148.633C75.3274 147.406 75.5518 146.183 75.881 144.976C76.2044 143.77 76.6559 142.605 77.0522 141.46C77.8475 139.161 78.3049 136.761 78.6108 134.351C79.1731 130.698 78.4943 127.024 78.7099 123.35C79.2809 114.759 81.4922 106.307 84.6561 98.3182C84.6765 98.2629 84.7406 98.2367 84.796 98.26C84.8513 98.2804 84.8747 98.3416 84.8572 98.3969L84.8339 98.4086L84.8426 98.4056Z" fill="#5E5573"/>
<path d="M198.031 98.327C201.326 106.479 203.322 115.134 204.146 123.883C204.432 126.791 204.237 129.751 204.362 132.653C204.656 136.988 205.591 141.291 207.1 145.367C207.619 146.748 208.146 148.164 208.374 149.638C208.604 151.132 208.592 152.627 208.502 154.113C208.114 160.094 205.384 165.635 201.912 170.413C199.269 173.997 195.89 177.036 192.128 179.41C188.396 181.816 184.402 183.666 180.414 185.557C173.701 188.645 166.502 190.597 159.195 191.614C153.36 192.462 147.393 192.319 141.54 191.984C135.67 191.699 129.802 191.098 124.001 190.111C113.828 188.459 103.852 185.403 94.477 181.088C90.4245 179.247 86.4127 177.091 83.0012 174.192C80.9676 172.598 78.9282 170.626 77.5706 168.348C73.9725 162.463 73.3024 155.173 74.663 148.519C75.2602 146.019 75.9216 143.505 76.682 141.058C77.5327 138.322 78.1591 135.52 78.2232 132.679C77.7133 123.869 78.9399 115.015 81.3201 106.534C82.13 103.734 82.87 100.815 84.4083 98.3037C84.4375 98.2542 84.5045 98.2396 84.554 98.2717C84.6035 98.3037 84.6152 98.3649 84.586 98.4144C84.2277 99.0408 83.9422 99.708 83.6858 100.39C82.0281 105.197 81.0492 110.249 80.2975 115.274C79.677 119.583 79.3215 123.939 79.4381 128.286C79.4759 129.76 79.6507 131.179 79.6915 132.676C79.7148 134.208 79.54 135.697 79.3215 137.174C78.6835 140.825 77.4191 144.248 76.6907 147.861C75.1466 154.631 75.8866 162.329 79.9421 168.091C81.1482 169.857 82.6545 171.165 84.3617 172.528C86.5642 174.381 88.9591 175.87 91.5083 177.202C104.38 183.891 118.542 187.9 132.949 189.54C141.59 190.411 150.353 191.198 159.003 190.096C166.173 189.167 173.258 187.314 179.863 184.345C183.811 182.521 187.817 180.703 191.485 178.384C195.153 176.112 198.442 173.207 201.038 169.758C204.443 165.149 207.173 159.829 207.613 154.037C207.718 152.607 207.741 151.162 207.543 149.757C207.333 148.333 206.85 146.984 206.36 145.626C204.872 141.469 203.974 137.084 203.733 132.673C203.639 129.734 203.872 126.838 203.622 123.913C203.395 121.011 203.004 118.115 202.509 115.242C201.518 109.491 199.957 103.839 197.839 98.394C197.818 98.3387 197.845 98.2804 197.9 98.2571C197.955 98.2338 198.014 98.2629 198.037 98.3183L198.028 98.3241L198.031 98.327Z" fill="#5E5573"/>
<path d="M101.852 103.703C102.816 103.825 104.273 103.906 105.994 103.583C106.935 103.405 109.246 102.945 111.39 101.247C113.071 99.9122 114.627 97.8291 114.627 97.8291C115.119 99.009 115.151 99.1139 115.151 99.1139C115.44 100.04 115.052 100.961 114.805 101.547C113.992 103.475 110.449 106.933 106.172 106.161C103.999 105.768 102.542 104.445 101.852 103.703Z" fill="#5E5573"/>
<path d="M111.228 143.744C109.795 143.881 107.755 144.065 105.302 144.237C99.7291 144.624 96.9147 144.808 95.6153 144.181C90.6829 141.801 90.5635 133.338 90.5606 132.723C90.546 126.028 94.7413 121.489 95.9096 120.306C96.3583 119.959 102.141 115.621 109.134 117.62C115.272 119.376 117.478 124.626 117.763 125.349C117.984 125.905 121.178 132.994 117.075 139.054C115.156 141.888 112.519 143.208 111.225 143.75L111.228 143.744Z" fill="#FDFEFD"/>
<path d="M94.757 142.494C94.0665 141.309 93.0322 139.161 92.8021 136.309C92.8021 136.309 92.5049 132.484 94.1539 128.874C94.3345 128.481 94.4948 128.169 94.6084 127.957C94.7045 127.779 94.8444 127.514 95.0396 127.19C96.8284 124.195 99.6456 122.086 101.874 121.072C108.459 118.074 115.658 122.112 115.996 122.31C115.701 121.923 115.314 121.457 114.824 120.967C114.548 120.69 113.93 120.096 113.033 119.473C112.363 119.004 111.41 118.43 110.178 117.943C109.205 117.594 107.727 117.177 105.889 117.104C105.615 117.092 104.922 117.072 104.042 117.151C100.365 117.474 97.6412 119.132 96.773 119.694C96.0738 120.149 94.8677 120.947 93.6382 122.36C91.6746 124.615 90.9841 126.919 90.5587 128.359C89.7051 131.254 89.8013 133.629 89.8566 134.45C89.9411 135.718 90.1742 138.733 91.9863 141.644C91.9863 141.644 92.1611 141.926 94.4307 145.067C94.5909 144.988 94.7628 144.907 94.9434 144.831C95.0308 144.793 95.1182 144.758 95.2027 144.726C95.2027 144.726 95.6572 144.554 96.237 144.394C96.0796 144.24 95.9194 144.071 95.7563 143.89C95.3338 143.406 95.0046 142.928 94.7511 142.494H94.757Z" fill="#5E5573"/>
<path d="M100.595 121.696C99.3593 123.187 97.7861 125.559 97.0985 128.755C95.6972 135.287 98.4154 143.395 102.57 144.371C103.38 144.56 103.662 144.344 105.297 144.237C108.918 144.001 111.913 144.778 113.95 145.518C113.95 145.518 116.222 142.856 117.117 141.585C118.885 139.077 120.129 132.484 118.969 128.338C118.276 125.853 116.866 123.578 116.866 123.578C116.793 123.461 116.735 123.368 116.697 123.31C116.58 123.12 116.449 122.925 116.307 122.727C116.193 122.57 116.082 122.421 115.972 122.278C115.232 121.844 114.212 121.317 112.939 120.874C110.727 120.102 108.904 119.98 108.26 119.95C107.106 119.898 104.994 119.822 102.547 120.752C101.71 121.069 101.049 121.425 100.595 121.693V121.696Z" fill="#5E5573"/>
<path d="M110.75 129.485C112.557 128.775 113.379 126.561 112.585 124.541C111.791 122.521 109.682 121.46 107.874 122.17C106.067 122.881 105.245 125.094 106.039 127.114C106.834 129.134 108.943 130.196 110.75 129.485Z" fill="#F9FCFE"/>
<path d="M107.097 138.535C108.123 138.132 108.647 137.023 108.268 136.059C107.889 135.094 106.75 134.64 105.725 135.043C104.699 135.446 104.175 136.555 104.554 137.519C104.933 138.483 106.072 138.938 107.097 138.535Z" fill="#F9FCFE"/>
<path d="M92.7783 146.011C95.2751 145.617 98.0778 145.332 101.134 145.259C106.833 145.122 111.797 145.772 115.783 146.608C115.375 146.328 114.748 145.926 113.947 145.521C113.018 145.052 110.617 143.96 103.709 143.823C97.7573 143.706 95.7558 144.446 94.6079 144.979C93.8096 145.352 93.1862 145.737 92.7754 146.008L92.7783 146.011Z" fill="#5E5573"/>
<path d="M112.256 144.528C113.931 144.166 115.059 142.934 115.061 141.719C115.064 139.997 112.804 139.135 112.477 139.013C110.004 138.072 106.499 139.184 105.843 141.367C105.718 141.786 105.616 142.509 106.021 143.52C107.029 143.569 108.154 143.677 109.369 143.881C110.423 144.059 111.391 144.283 112.256 144.525V144.528Z" fill="#95D9F2"/>
<path d="M164.582 139.051C160.483 132.991 163.673 125.902 163.895 125.346C164.183 124.624 166.386 119.374 172.524 117.617C179.514 115.618 185.3 119.956 185.748 120.303C186.917 121.489 191.112 126.028 191.097 132.72C191.097 133.335 190.978 141.798 186.043 144.178C184.743 144.805 181.932 144.624 176.356 144.234C173.902 144.062 171.863 143.881 170.43 143.741C169.136 143.199 166.499 141.883 164.58 139.045L164.582 139.051Z" fill="#FDFEFD"/>
<path d="M185.898 143.893C185.737 144.076 185.577 144.245 185.417 144.397C185.997 144.557 186.451 144.729 186.451 144.729C186.536 144.761 186.623 144.796 186.71 144.834C186.891 144.91 187.063 144.988 187.223 145.07C189.493 141.929 189.668 141.647 189.668 141.647C191.48 138.736 191.713 135.721 191.797 134.453C191.853 133.635 191.949 131.26 191.095 128.361C190.67 126.922 189.979 124.618 188.016 122.363C186.786 120.953 185.58 120.152 184.881 119.697C184.013 119.132 181.289 117.477 177.612 117.154C176.732 117.075 176.036 117.095 175.765 117.107C173.926 117.18 172.449 117.596 171.476 117.946C170.244 118.433 169.291 119.007 168.621 119.476C167.727 120.102 167.106 120.696 166.829 120.97C166.34 121.46 165.952 121.923 165.658 122.313C165.999 122.115 173.195 118.077 179.779 121.075C182.011 122.092 184.825 124.201 186.614 127.193C186.807 127.517 186.949 127.779 187.045 127.959C187.159 128.172 187.319 128.481 187.5 128.877C189.149 132.487 188.852 136.312 188.852 136.312C188.622 139.167 187.59 141.312 186.897 142.497C186.643 142.931 186.314 143.409 185.892 143.893H185.898Z" fill="#5E5573"/>
<path d="M179.112 120.757C176.664 119.825 174.552 119.901 173.399 119.956C172.752 119.985 170.931 120.11 168.72 120.88C167.446 121.322 166.427 121.85 165.687 122.284C165.576 122.424 165.462 122.572 165.352 122.733C165.209 122.934 165.078 123.129 164.961 123.315C164.923 123.373 164.865 123.467 164.792 123.583C164.792 123.583 163.382 125.859 162.689 128.344C161.529 132.492 162.773 139.083 164.542 141.591C165.436 142.858 167.709 145.524 167.709 145.524C169.745 144.784 172.737 144.006 176.361 144.242C177.996 144.35 178.281 144.566 179.088 144.376C183.243 143.4 185.961 135.295 184.56 128.76C183.875 125.564 182.299 123.193 181.064 121.701C180.609 121.43 179.948 121.078 179.112 120.76V120.757Z" fill="#5E5573"/>
<path d="M175.618 127.108C176.412 125.088 175.591 122.874 173.783 122.164C171.976 121.453 169.867 122.515 169.073 124.535C168.279 126.555 169.1 128.769 170.907 129.479C172.715 130.19 174.824 129.128 175.618 127.108Z" fill="#F9FCFE"/>
<path d="M177.094 137.51C177.474 136.546 176.949 135.437 175.924 135.034C174.898 134.63 173.759 135.085 173.38 136.05C173.001 137.014 173.525 138.123 174.551 138.526C175.576 138.929 176.715 138.474 177.094 137.51Z" fill="#F9FCFE"/>
<path d="M188.877 146.011C186.38 145.617 183.578 145.332 180.522 145.259C174.823 145.122 169.859 145.772 165.873 146.608C166.281 146.328 166.907 145.926 167.708 145.521C168.638 145.052 171.039 143.96 177.946 143.823C183.898 143.706 185.9 144.446 187.048 144.979C187.846 145.352 188.469 145.737 188.88 146.008L188.877 146.011Z" fill="#5E5573"/>
<path d="M169.399 144.531C167.724 144.169 166.597 142.937 166.594 141.722C166.591 140 168.852 139.138 169.178 139.015C171.651 138.074 175.156 139.187 175.812 141.37C175.937 141.789 176.039 142.512 175.634 143.523C174.626 143.572 173.501 143.68 172.287 143.884C171.232 144.061 170.265 144.286 169.399 144.528V144.531Z" fill="#95D9F2"/>
<path d="M119.604 174.577C115.869 176.243 112.356 176.106 110.937 174.355C109.133 172.129 111.24 167.943 111.697 167.028C116.959 156.566 135.042 155.59 138.833 155.386C153.694 154.585 164.415 160.082 168.482 164.514C169.665 165.801 172.334 168.709 171.836 172.141C171.78 172.529 171.533 174.227 170.382 175.261C167.737 177.639 162.673 174.39 155.424 172.383C143.625 169.114 133.198 171.107 129.134 171.885C124.968 172.68 121.673 173.796 119.61 174.58L119.604 174.577Z" fill="#8F1916" stroke="#5E5573" stroke-width="1.74804" stroke-miterlimit="10"/>
<path d="M112.579 175.445C113.925 173.848 116.297 171.322 119.796 169.035C132.096 160.997 148.731 162.157 160.557 168.438C164.627 170.6 167.736 173.161 169.999 175.389C168.93 176.051 168.044 176.205 167.453 176.228C166.008 176.287 165.204 175.821 161.617 174.39C159.776 173.656 158.582 173.755 154.182 173.828C154.182 173.828 149.224 173.909 141.288 173.831C137.192 173.79 130.852 173.6 125.005 173.877C122.636 173.991 121.844 174.215 121.541 174.288C118.607 174.981 117.427 176.193 115.146 176.097C114.001 176.048 113.098 175.692 112.576 175.448L112.579 175.445Z" fill="#F38373" stroke="#5E5573" stroke-width="1.74804" stroke-miterlimit="10"/>
<path d="M121.454 149.021C120.842 149.906 119.936 151.404 119.338 153.42C118.281 156.992 118.776 160.228 119.601 163.421C123.965 180.29 136.198 190.761 138.054 192.078C138.608 192.471 139.173 192.841 139.173 192.841C139.173 192.841 141.384 194.286 143.782 195.381C151.581 198.942 159.954 198.417 159.954 198.417C164.741 198.117 168.196 197.902 170.099 195.207C172.19 192.247 171.046 188.232 170.667 187.064C171.654 183.707 171.063 180.613 169.286 179.492C168.088 178.737 166.364 178.88 166.142 178.903C164.237 179.084 163.756 180.112 162.259 180.045C160.54 179.97 159.325 178.519 159.173 178.332C157.329 176.06 158.343 172.54 158.908 170.577C159.692 167.856 160.432 167.797 161.592 164.482C162.037 163.209 162.821 160.963 162.949 158.373C163.031 156.706 162.926 153.207 160.534 149.026H121.456L121.454 149.021Z" fill="#C0B4DF"/>
<path d="M119.802 157.79C120.268 162.518 121.981 172.936 129.868 182.594C137.742 192.241 147.205 195.536 149.256 196.209C150.378 196.576 166.25 201.633 170.282 195.504C171.62 193.473 171.258 190.816 170.705 188.832C170.352 187.734 170.038 187.474 169.802 187.465C169.184 187.445 169.041 189.161 167.643 190.504C166.879 191.235 166.09 191.524 165.187 191.844C163.305 192.509 161.641 192.503 159.211 192.34C155.8 192.109 154.092 191.996 151.954 191.535C151.954 191.535 146.687 190.402 141.577 187.585C135.356 184.156 126.168 173.74 119.799 157.792L119.802 157.79Z" fill="#A394C5"/>
<path d="M169.723 186.303C170.198 187.291 172.515 192.322 170.28 195.501C168.241 198.402 163.614 198.047 158.297 197.636C154.224 197.322 147.689 196.742 140.511 192.503C132.924 188.025 129.055 182.082 127.167 179.107C124.787 175.36 123.38 171.885 122.529 169.327" stroke="#5E5573" stroke-width="2.33072" stroke-miterlimit="10"/>
<path d="M163.551 184.937C161.998 183.165 162.528 179.955 164.632 178.74C166.33 177.682 168.646 177.883 170.167 179.197C171.668 180.499 172.151 182.728 171.665 184.555C171.4 185.709 170.735 186.67 169.989 187.553C168.807 189.091 167.898 190.862 167.149 192.841C166.922 190.731 167.42 188.523 168.44 186.577C168.661 186.14 168.955 185.723 169.148 185.28C169.94 183.602 169.681 181.062 167.735 180.354C166.187 179.754 164.46 180.462 163.79 182.07C163.42 182.894 163.327 183.899 163.557 184.937H163.551Z" fill="#5E5573"/>
<path d="M163.107 157.79C162.914 159.447 162.57 161.356 161.962 163.427C160.939 166.906 159.508 169.685 158.241 171.727C157.638 172.7 157.041 177.414 159.648 179.695C160.953 180.837 162.646 180.963 163.59 180.948" stroke="#5E5573" stroke-width="2.33072" stroke-miterlimit="10"/>
<path d="M121.454 149.041C119.485 154.002 119.768 158.468 121.478 163.439C123.063 168.155 125.137 172.706 127.441 177.137C128.764 179.681 130.291 182.373 131.739 184.861C131.948 185.231 132.164 185.598 132.368 185.974C131.13 184.794 129.988 183.524 128.898 182.207C124.581 176.866 121.262 170.696 119.366 164.077C117.853 158.902 118.031 153.44 121.452 149.043L121.454 149.041Z" fill="#5E5573"/>
<path d="M160.652 149.041C165.025 152.959 165.506 160.694 161.663 165.131C161.751 163.66 161.891 162.311 161.934 160.974C162.161 156.875 161.529 153.079 160.652 149.043V149.041Z" fill="#5E5573"/>
<path d="M129.136 143.307C132.233 140.691 136.247 139.214 140.291 139.057C141.652 139.027 143.038 139.062 144.387 139.234C146.555 139.502 148.647 140.298 150.529 141.387C151.467 141.935 152.358 142.558 153.154 143.304L153.066 143.456C150.57 142.681 148.096 141.9 145.567 141.297C143.845 140.857 142.08 140.452 140.294 140.4C139.848 140.391 139.21 140.405 138.759 140.405C138.31 140.438 137.678 140.502 137.226 140.534C136.495 140.653 135.668 140.764 134.954 140.977C132.932 141.431 131.018 142.328 129.235 143.453L129.133 143.313L129.136 143.307Z" fill="#5E5573"/>
<path d="M129.602 148.254C132.666 145.737 136.594 144.335 140.547 144.181C141.876 144.152 143.233 144.181 144.553 144.338C146.674 144.586 148.722 145.349 150.572 146.398C151.493 146.925 152.373 147.528 153.156 148.251L153.072 148.402C150.124 147.534 147.242 146.701 144.259 146.043C143.064 145.748 141.785 145.574 140.553 145.518C140.119 145.507 139.493 145.521 139.053 145.518C138.616 145.547 137.995 145.606 137.552 145.635C136.836 145.745 136.026 145.847 135.326 146.045C133.345 146.471 131.46 147.319 129.704 148.391L129.602 148.248V148.254Z" fill="#5E5573"/>
<path d="M131.134 153.647C132.646 152.12 134.499 150.934 136.512 150.162C136.862 150.054 137.555 149.836 137.905 149.731C138.312 149.635 138.921 149.527 139.341 149.442C139.775 149.405 140.375 149.335 140.803 149.306C141.237 149.314 141.846 149.282 142.275 149.306C142.988 149.338 143.772 149.396 144.474 149.504C147.35 149.973 150.068 151.499 152.017 153.644L151.918 153.789C148.888 152.694 145.94 151.578 142.808 150.888C142.193 150.751 141.436 150.692 140.809 150.649C140.419 150.646 139.859 150.657 139.463 150.66C138.84 150.73 138.071 150.783 137.459 150.934L136.792 151.068L136.142 151.272C134.379 151.753 132.748 152.679 131.244 153.783L131.131 153.652L131.134 153.647Z" fill="#5E5573"/>
<path d="M133.971 163.276C135.445 161.344 137.54 159.704 139.958 159.074C141.615 158.64 143.378 158.687 145.053 159.01C146.728 159.348 148.235 160.246 149.49 161.367C150.105 161.932 150.667 162.553 151.113 163.267L151 163.398C149.528 162.754 148.153 162.049 146.691 161.478C145.292 160.945 143.926 160.31 142.428 160.152C139.305 159.812 136.351 161.257 134.099 163.389L133.971 163.273V163.276Z" fill="#5E5573"/>
<path d="M139.38 175.011C140.236 173.408 141.591 172.022 143.252 171.244C144.391 170.699 145.673 170.448 146.923 170.352C148.802 170.268 150.698 171.06 151.992 172.43L151.916 172.587C151.284 172.567 150.704 172.5 150.133 172.441C149.169 172.342 147.808 172.214 146.867 172.083C146.081 171.963 145.242 171.961 144.458 172.129C144.07 172.191 143.654 172.328 143.281 172.444C142.925 172.59 142.486 172.759 142.159 172.963C141.157 173.464 140.3 174.245 139.52 175.11L139.377 175.011H139.38Z" fill="#5E5573"/>
<path d="M145.022 178.804C145.736 177.324 147.056 176.118 148.542 175.407C149.293 175.034 150.08 174.612 150.942 174.612C151.79 174.609 152.65 174.763 153.416 175.291L153.407 175.465C152.664 175.879 151.956 176.115 151.187 176.345C150.488 176.575 149.745 176.52 149.04 176.715C147.575 177.106 146.255 177.828 145.162 178.909L145.02 178.807L145.022 178.804Z" fill="#5E5573"/>
<path d="M135.164 137.198C136.886 136.056 138.992 135.488 141.052 135.397C142.095 135.342 143.179 135.252 144.193 135.584C145.195 135.907 146.159 136.385 146.931 137.195L146.87 137.358C145.821 137.454 144.854 137.387 143.843 137.297C142.882 137.236 141.976 136.889 141.02 136.796C139.071 136.595 137.122 136.734 135.243 137.355L135.167 137.198H135.164Z" fill="#5E5573"/>
</g>
</g>
<defs>
<filter id="filter0_d_2225_1164" x="0.000186801" y="-0.00022459" width="279.649" height="279.649" filterUnits="userSpaceOnUse" color-interpolation-filters="sRGB">
<feFlood flood-opacity="0" result="BackgroundImageFix"/>
<feColorMatrix in="SourceAlpha" type="matrix" values="0 0 0 0 0 0 0 0 0 0 0 0 0 0 0 0 0 0 127 0" result="hardAlpha"/>
<feOffset dx="-1.48989" dy="4.46966"/>
<feGaussianBlur stdDeviation="7.41219"/>
<feComposite in2="hardAlpha" operator="out"/>
<feColorMatrix type="matrix" values="0 0 0 0 0.270588 0 0 0 0 0.65098 0 0 0 0 0.823529 0 0 0 0.5 0"/>
<feBlend mode="normal" in2="BackgroundImageFix" result="effect1_dropShadow_2225_1164"/>
<feBlend mode="normal" in="SourceGraphic" in2="effect1_dropShadow_2225_1164" result="shape"/>
</filter>
<linearGradient id="paint0_linear_2225_1164" x1="141.314" y1="10.3545" x2="141.314" y2="260.354" gradientUnits="userSpaceOnUse">
<stop stop-color="#45A6D2"/>
<stop offset="0.74" stop-color="#CDF0FF"/>
</linearGradient>
<clipPath id="clip0_2225_1164">
<rect width="223.49" height="190.213" fill="white" transform="translate(29.3145 51.3545)"/>
</clipPath>
</defs>
</svg>
