<svg width="164" height="164" viewBox="0 0 164 164" fill="none" xmlns="http://www.w3.org/2000/svg">
<g clip-path="url(#clip0_1383_2867)">
<mask id="mask0_1383_2867" style="mask-type:luminance" maskUnits="userSpaceOnUse" x="23" y="35" width="111" height="113">
<path d="M64.8935 136.495L42.9834 83.5586L28.5462 89.5341L50.4562 142.471L64.8935 136.495Z" fill="#555555" stroke="white" stroke-width="10.4167" stroke-linejoin="round"/>
<path d="M42.9785 83.5607C53.6244 60.7803 59.8319 47.6683 61.6009 44.2248C64.2543 39.0596 69.4778 38.6056 73.075 47.2969C76.6722 55.9881 66.0299 66.2636 68.7706 72.8855C68.7776 72.9296 85.0422 66.2006 117.564 52.6986C118.512 52.3048 119.528 52.1017 120.555 52.1008C121.581 52.0999 122.598 52.3012 123.546 52.6933C124.495 53.0854 125.357 53.6606 126.083 54.3859C126.809 55.1113 127.385 55.9726 127.778 56.9207L127.781 56.928C128.175 57.8772 128.377 58.8947 128.377 59.9223C128.377 60.9498 128.174 61.9673 127.781 62.9166C127.388 63.8658 126.811 64.7283 126.085 65.4548C125.358 66.1812 124.495 66.7574 123.546 67.1503L104.272 75.1276C109.305 95.5129 112.017 106.606 112.409 108.407C112.998 111.109 112.531 116.778 105.63 119.635L64.8885 136.497L42.9785 83.5607Z" stroke="white" stroke-width="10.4167" stroke-linejoin="round"/>
</mask>
<g mask="url(#mask0_1383_2867)">
<path d="M115.497 -0.00390625L163.301 115.494L47.8028 163.298L-0.000976562 47.7998L115.497 -0.00390625Z" fill="#D9D9D9"/>
</g>
</g>
<defs>
<clipPath id="clip0_1383_2867">
<rect width="125" height="125" fill="white" transform="translate(115.498) rotate(67.5157)"/>
</clipPath>
</defs>
</svg>
