<svg width="252" height="257" viewBox="0 0 252 257" fill="none" xmlns="http://www.w3.org/2000/svg">
<mask id="path-1-inside-1_2037_297" fill="white">
<path d="M125.524 0C194.559 0 251.047 55.9644 251.047 125C251.047 194.036 194.559 250 125.524 250C56.4883 250 0.000854492 194.036 0.000854492 125C0.000854492 55.9644 56.4883 0 125.524 0Z"/>
</mask>
<path d="M125.524 0C194.559 0 251.047 55.9644 251.047 125C251.047 194.036 194.559 250 125.524 250C56.4883 250 0.000854492 194.036 0.000854492 125C0.000854492 55.9644 56.4883 0 125.524 0Z" fill="url(#paint0_linear_2037_297)"/>
<path d="M251.047 0V250V0ZM0.000854492 250V0V250ZM0.000854492 0H251.047H0.000854492ZM251.047 131.477C251.047 200.801 194.848 257 125.524 257C56.1994 257 0.000854492 200.801 0.000854492 131.477V125C0.000854492 190.17 55.9653 243 125.001 243H126.047C195.082 243 251.047 190.17 251.047 125V131.477Z" fill="#C9A925" mask="url(#path-1-inside-1_2037_297)"/>
<g clip-path="url(#clip0_2037_297)">
<path d="M65.8013 110.093C64.2546 116.351 63.8105 119.481 63.6258 123.149C63.3665 128.302 64.0013 129.825 63.2741 134.462C62.5022 139.4 61.5128 139.406 60.4638 144.824C59.7098 148.731 58.923 152.793 60.0287 157.693C61.1045 162.467 63.444 165.683 64.8953 167.638C68.7309 172.805 73.1684 175.446 75.8387 177.002C79.8471 179.335 84.6333 180.813 94.1997 183.767C95.6183 184.205 97.2872 184.696 99.2989 185.221C100.062 185.418 102.804 186.121 106.544 186.854C107.521 187.045 109.715 187.462 112.638 187.897C117.064 188.559 122.419 189.358 129.08 189.566C133.309 189.7 138.378 189.834 145.009 188.857C152.025 187.823 157.151 186.079 158.933 185.445C161.567 184.506 163.636 183.537 167.775 181.597C177.538 177.022 181.064 174.307 183.862 171.42C184.038 171.238 184.274 170.993 184.587 170.651C191.539 163.045 192.505 153.881 192.63 152.564C193.384 144.571 190.767 138.426 189.462 135.809C189.483 134.221 189.492 131.911 189.417 129.127C189.265 123.483 188.869 118.569 188.586 116.411C187.844 110.725 185.388 98.2257 176.287 86.3436C171.098 79.5696 165.772 75.6387 164.065 74.4257C153.428 66.8679 142.485 64.8384 140.798 64.7639C139.684 64.7132 139.165 64.5851 138.125 64.3318C137.037 64.0665 136.486 63.9264 136.122 63.5331C135.187 62.5228 135.732 60.6274 135.914 59.9985C136.692 57.2955 138.566 56.3478 138.247 55.7905C137.878 55.1438 134.895 55.6146 132.481 57.2746C132.481 57.2746 131.497 57.9511 128.156 61.8314C128.785 51.8596 127.772 51.5109 127.772 51.5109C127.277 51.341 126.666 51.8655 125.772 52.6374C124.506 53.7252 123.874 54.9799 123.534 55.7756C122.118 59.1015 122.694 61.879 122.184 61.9565C121.633 62.04 121.442 58.729 118.891 56.6905C117.803 55.8203 115.997 54.9471 115.27 55.5372C114.102 56.4878 117.222 60.0075 116.08 62.7522C114.972 65.4225 110.788 65.0708 104.571 66.6593C97.0548 68.5786 91.8573 72.0058 88.9397 73.9042C83.024 77.7546 79.2629 81.9597 77.8473 83.6316C70.0839 92.7928 67.6669 102.565 65.8073 110.09H65.8013V110.093Z" fill="#C0B4DF"/>
<path d="M83.1099 102.988C83.1099 102.988 84.3169 101.197 94.0234 100.926C94.0234 100.926 98.3924 99.1227 93.7344 96.9055C93.7344 96.9055 86.7279 95.8177 83.0175 101.719C83.0175 101.719 82.0668 103.2 83.1099 102.988Z" fill="#5E5573"/>
<path d="M88.8106 142.705C88.8106 142.705 78.6093 142.979 74.0496 132.06C74.0496 132.06 70.3303 119.23 83.5296 111.863C84.0363 111.684 90.5182 109.524 95.8886 114.495C100.603 118.861 100.725 125.262 100.728 126.138C100.77 126.746 101.25 135.535 95.4713 140.202C92.9203 142.261 90.2381 142.643 88.8076 142.711H88.8106V142.705Z" fill="#FDFEFD"/>
<path d="M76.0756 135.77C75.9057 134.197 75.7925 131.914 76.159 129.223C76.5465 126.386 77.071 122.517 79.7979 119.334C83.1566 115.409 87.609 115.147 88.4286 115.117C95.5811 114.846 99.8904 121.677 100.227 122.228C99.9173 120.881 99.1454 118.276 97.1516 115.851C96.6569 115.252 95.3218 113.726 93.2565 112.617C89.6951 110.707 84.9328 110.549 80.8648 113.079C76.6686 115.69 75.0653 120.008 74.5765 121.382C74.055 122.845 72.2907 127.807 74.2636 132.701C74.8299 134.107 75.5511 135.124 76.0815 135.767H76.0756V135.77Z" fill="#5E5573"/>
<path d="M87.1092 115.249C85.7264 116.116 83.3363 117.919 81.6823 121.2C79.0686 126.389 78.7676 134.358 82.9429 139.046C85.3241 141.716 88.3311 142.395 90 142.586C92.6494 142.196 94.4435 141.027 95.3733 140.306C99.4175 137.162 100.514 132.027 100.753 129.765C101.003 127.414 100.699 124.621 100.52 123.724C100.514 123.692 100.222 122.228 100.222 122.228C99.2834 120.756 97.388 118.226 94.3362 116.575C93.3438 116.035 91.5527 115.094 89.1179 115.064C88.2924 115.055 87.6009 115.153 87.1092 115.246V115.249Z" fill="#5E5573"/>
<path d="M93.2498 127.575C95.0553 127.575 96.519 125.596 96.519 123.155C96.519 120.714 95.0553 118.735 93.2498 118.735C91.4442 118.735 89.9805 120.714 89.9805 123.155C89.9805 125.596 91.4442 127.575 93.2498 127.575Z" fill="#F9FCFE"/>
<path d="M87.0129 135.55C88.0383 135.55 88.8696 134.604 88.8696 133.437C88.8696 132.27 88.0383 131.324 87.0129 131.324C85.9875 131.324 85.1562 132.27 85.1562 133.437C85.1562 134.604 85.9875 135.55 87.0129 135.55Z" fill="#F9FCFE"/>
<path d="M170.501 102.556C170.501 102.556 169.398 100.786 160.275 100.401C160.275 100.401 156.198 98.5804 160.624 96.4644C160.624 96.4644 167.234 95.4839 170.611 101.313C170.611 101.313 171.478 102.779 170.501 102.556Z" fill="#5E5573"/>
<path d="M163.394 142.831C163.394 142.831 173.83 143.108 178.497 132.12C178.497 132.12 182.303 119.212 168.797 111.798C168.278 111.616 161.647 109.443 156.152 114.444C151.327 118.837 151.201 125.277 151.199 126.159C151.157 126.77 150.665 135.612 156.578 140.309C159.188 142.383 161.933 142.765 163.397 142.834H163.394V142.831Z" fill="#FDFEFD"/>
<path d="M176.423 135.848C176.596 134.265 176.712 131.968 176.336 129.259C175.94 126.404 175.404 122.514 172.614 119.311C169.178 115.362 164.621 115.1 163.784 115.07C156.467 114.796 152.057 121.668 151.711 122.225C152.027 120.872 152.817 118.25 154.858 115.806C155.365 115.201 156.73 113.669 158.843 112.552C162.487 110.629 167.36 110.471 171.52 113.017C175.815 115.642 177.454 119.987 177.955 121.37C178.488 122.842 180.294 127.837 178.274 132.757C177.695 134.173 176.956 135.195 176.414 135.845H176.42L176.423 135.848Z" fill="#5E5573"/>
<path d="M165.134 115.201C166.549 116.074 168.993 117.889 170.686 121.188C173.359 126.41 173.669 134.426 169.396 139.144C166.961 141.832 163.882 142.515 162.175 142.708C159.463 142.315 157.63 141.141 156.676 140.414C152.54 137.249 151.416 132.084 151.172 129.807C150.915 127.441 151.225 124.63 151.41 123.73C151.416 123.698 151.714 122.225 151.714 122.225C152.674 120.744 154.614 118.199 157.737 116.536C158.753 115.994 160.586 115.046 163.075 115.016C163.918 115.007 164.627 115.106 165.131 115.201H165.134Z" fill="#5E5573"/>
<path d="M158.848 127.602C160.694 127.602 162.191 125.611 162.191 123.155C162.191 120.699 160.694 118.709 158.848 118.709C157.001 118.709 155.504 120.699 155.504 123.155C155.504 125.611 157.001 127.602 158.848 127.602Z" fill="#F9FCFE"/>
<path d="M165.234 135.624C166.283 135.624 167.133 134.673 167.133 133.5C167.133 132.326 166.283 131.375 165.234 131.375C164.186 131.375 163.336 132.326 163.336 133.5C163.336 134.673 164.186 135.624 165.234 135.624Z" fill="#F9FCFE"/>
<path d="M89.8979 152.733C90.63 150.356 87.1761 147.183 82.1834 145.645C77.1907 144.107 72.5499 144.787 71.8178 147.164C71.0857 149.541 74.5396 152.714 79.5322 154.252C84.5249 155.79 89.1658 155.11 89.8979 152.733Z" fill="#FAC0D8"/>
<path d="M174.754 154.227C179.746 152.689 183.2 149.516 182.468 147.139C181.736 144.762 177.095 144.082 172.103 145.62C167.11 147.158 163.656 150.331 164.388 152.708C165.12 155.085 169.761 155.765 174.754 154.227Z" fill="#FAC0D8"/>
<path d="M84.37 79.8676C90.256 75.9725 93.1974 74.0234 96.2104 72.5542C107.365 67.1123 117.453 68.3014 118.49 63.7685C118.684 62.9251 118.735 61.134 118.991 61.131C119.292 61.125 119.179 63.5867 120.606 64.3854C121.149 64.6894 121.712 64.6417 121.834 64.6268C122.788 64.5225 123.366 63.7655 123.509 63.5629C124.195 62.5943 123.691 61.8761 124.046 60.4098C124.43 58.8213 125.536 57.5339 125.869 57.6591C126.474 57.8826 124.335 62.639 126.117 64.1678C126.713 64.6775 127.613 64.7162 128.206 64.5702C129.285 64.3049 129.511 63.396 131.058 61.7777C131.827 60.9731 133.135 59.6051 133.642 59.8734C134.33 60.2399 132.536 63.0979 133.552 65.1901C134.408 66.9484 136.935 67.5057 139.054 67.6905C141.414 68.0064 145.032 68.656 149.246 70.1312C150.552 70.5872 154.289 71.9551 163.682 77.5609C166.531 79.2596 170.439 81.6706 175.016 84.7551C173.374 82.6898 171.067 80.103 167.995 77.4715C165.885 75.6655 162.022 72.6436 156.554 69.9852C156.554 69.9852 150.811 67.1957 144.192 65.7414C142.177 65.2973 141.17 65.0768 140.398 65.0559C139.584 65.0351 138.929 65.1006 138.038 64.7877C137.319 64.5344 136.509 64.0546 136.115 63.536C135.135 62.2337 135.838 59.4055 138.178 56.908C138.178 56.908 132.244 56.2971 128.105 62.7582C128.522 55.0275 127.678 53.147 126.802 52.9116C125.595 52.5897 123.309 55.1259 122.505 57.5697C122.088 58.8362 121.694 61.2145 121.694 61.2145C121.694 61.2145 121.131 59.7065 120.314 58.5442C120.103 58.2432 119.575 57.4892 118.786 56.9259C117.2 55.7935 115.302 55.9425 114.5 56.0557C114.947 56.4163 116.109 57.4504 116.512 59.1969C116.631 59.7065 117.027 61.426 116.074 62.7552C115.501 63.5569 114.703 63.8192 113.132 64.3139C111.177 64.9308 110.253 64.8503 107.27 65.4315C107.27 65.4315 106.406 65.5983 104.954 65.9351C100.398 66.9901 96.13 69.2133 94.0796 70.2981C89.9758 72.4647 87.1983 74.5181 86.4562 75.0754C84.8975 76.2437 83.1839 77.54 81.2408 79.6173C79.4318 81.5484 78.1474 83.3783 77.2891 84.7581C78.9967 83.5303 81.4196 81.8256 84.373 79.8706H84.37V79.8676Z" fill="#DACFF3"/>
<path d="M77.8398 83.6346C79.4611 81.4441 81.6366 78.9586 84.5125 76.5804C87.0666 74.4645 89.2392 73.2068 91.6352 71.818C95.3158 69.6842 98.2304 68.4593 100.457 67.5325C102.4 66.7219 103.645 66.2927 104.957 65.9381C106.262 65.5834 106.655 65.5656 109.114 65.0828C115.024 63.9205 115.736 63.4317 116.177 62.7463C117.036 61.4171 116.636 59.7124 116.514 59.1969C116.088 57.3849 114.884 56.3567 114.502 56.0557C115.048 55.9723 116.946 55.7547 118.788 56.9259C121.485 58.6396 121.658 61.8165 121.667 62.1175C121.664 60.985 121.807 58.5621 123.255 55.9842C124.543 53.6954 126.244 52.3722 127.174 51.7523C127.591 52.9295 128.018 54.4971 128.193 56.3776C128.408 58.6843 128.17 60.6333 127.889 62.0161C128.491 61.0267 129.946 58.9406 132.664 57.4773C134.962 56.2405 137.092 56.0229 138.228 55.9872C135.286 60.5022 135.388 62.5645 136.073 63.6105C136.988 65.0053 139.038 64.7341 143.166 65.4702C146.441 66.0543 148.656 66.85 152.074 68.0779C153.162 68.4683 158.571 70.4591 164.698 74.7953C167.285 76.6281 170.512 79.2417 173.791 82.8359" stroke="#5E5573" stroke-width="1.78813" stroke-linecap="round" stroke-linejoin="round"/>
<path d="M74.8873 88.0184C75.2807 87.1482 75.7605 86.2094 76.2016 85.3601C76.4847 84.8505 76.8721 84.1352 77.1076 83.6077C77.5963 82.6868 78.3086 82.0342 79.3159 81.5603C79.3606 81.5424 79.4113 81.5603 79.4321 81.605C79.3904 82.7196 79.0059 83.6465 78.3265 84.4392C77.6857 85.0919 76.9854 85.98 76.3655 86.6535C75.9214 87.1393 75.4804 87.628 75.0125 88.0989C74.9558 88.1585 74.8545 88.09 74.8903 88.0155H74.8873V88.0184Z" fill="#5E5573"/>
<path d="M176.487 87.181C175.817 86.5015 175.113 85.7148 174.479 84.9965C174.103 84.5495 173.578 83.9296 173.173 83.5183C172.488 82.7316 172.139 81.8315 172.059 80.7229C172.059 80.6752 172.094 80.6335 172.142 80.6305C173.167 81.0716 173.894 81.763 174.386 82.6839C174.765 83.5154 175.34 84.4899 175.745 85.3124C176.04 85.9025 176.335 86.4896 176.606 87.0946C176.642 87.1661 176.538 87.2406 176.484 87.178L176.487 87.181Z" fill="#5E5573"/>
<path d="M110.016 161.892C110.016 161.892 104.64 150.516 115.711 153.911C115.711 153.911 126.702 156.197 139.237 152.719C139.237 152.719 144.971 151.887 142.125 160.134C142.125 160.134 138.605 172.332 126.684 172.805C126.684 172.805 114.763 174.388 110.019 161.892H110.016Z" fill="#8F1916" stroke="#5E5573" stroke-width="1.78813" stroke-miterlimit="10"/>
<path d="M112.711 166.115C112.711 166.115 126.158 154.695 138.916 166.115C138.916 166.115 126.706 182.408 112.711 166.115Z" fill="#F38373" stroke="#5E5573" stroke-width="1.78813" stroke-miterlimit="10"/>
<path d="M110.16 132.993C110.16 132.993 113.763 122.783 119.369 121.984C119.891 119.552 120.874 115.714 122.772 111.273C125.967 103.799 129.15 100.705 133.71 92.9329C135.185 90.4176 138.773 84.2992 140.841 78.2434C142.719 72.7449 144.856 62.8655 141.393 48.7155C136.806 46.2032 134.741 41.8968 135.844 38.9195C136.419 37.3668 137.888 36.0913 139.488 35.5638C142.683 34.5118 143.997 37.2238 148.268 37.3728C153.281 37.5486 155.126 33.9396 158.913 35.2777C159.158 35.3641 161.301 36.1569 162.287 38.1864C163.658 41.0087 162.281 45.178 158.606 48.3131C159.429 51.2934 160.398 55.567 160.833 60.7734C161.026 63.0741 161.777 73.49 157.554 88.9751C154.088 101.689 151.29 103.072 149.296 113.922C147.961 121.203 147.976 127.354 148.197 131.389C148.197 131.389 148.998 141.6 145.193 143.599L110.16 132.99V132.993Z" fill="#C0B4DF"/>
<path d="M110.328 133.842C110.465 130.99 111.44 128.123 113.094 125.772C113.91 124.589 114.778 123.337 115.967 122.523C117.174 121.668 118.512 121.006 120.017 120.831L120.145 121.033C119.743 121.689 119.307 122.243 118.872 122.783C118.008 123.829 117.123 124.857 116.062 125.664C115.538 126.067 115.031 126.487 114.581 126.964C112.721 128.931 111.404 131.291 110.564 133.884L110.328 133.842Z" fill="#5E5573"/>
<path d="M120.082 117.913C121.209 114.605 123.155 109.5 126.349 103.641C131.386 94.3991 134.104 93.2279 138.002 84.2992C139.14 81.6945 141.501 75.8562 142.449 68.7812C142.678 67.0616 142.794 65.5119 142.854 64.6685C143.167 60.3413 143.381 57.0779 142.58 53.1917C142.356 52.1099 141.951 50.4797 141.179 48.5426C140.207 47.9764 138.124 46.5697 136.977 43.9114C136.536 42.8862 135.189 39.7599 136.813 37.3936C138.226 35.3343 140.982 35.1764 141.435 35.1495C144.591 34.9677 145.065 37.1135 148.138 37.4503C152.361 37.9122 153.875 34.1243 157.734 35.0124C157.856 35.0393 160.732 35.7486 161.847 38.2341C162.899 40.5795 161.736 43.059 161.355 43.8726C160.261 46.2061 157.978 48.2535 157.978 48.2505C157.978 48.2505 161.689 60.7555 160.625 73.7939C160.246 78.4281 159.662 81.6349 157.904 87.3747C155.365 95.6567 152.65 98.9171 150.307 107.563C149.121 111.941 148.597 115.609 148.343 117.913" stroke="#5E5573" stroke-width="2.38417" stroke-miterlimit="10"/>
<path d="M145.328 143.498C147.843 138.408 148.135 133.103 147.045 127.614C146.735 125.203 146.684 122.759 146.765 120.336C146.896 117.12 147.623 113.967 148.642 110.927C149.152 109.413 149.751 107.926 150.484 106.49L150.713 106.552C150.594 109.285 150.04 113.192 149.724 115.946C149.295 119.77 148.472 123.572 148.782 127.432C149.539 132.978 148.621 138.912 145.537 143.611L145.328 143.495V143.498Z" fill="#5E5573"/>
<path d="M118.033 129.196C116.776 121.507 119.571 112.257 124.843 106.526C124.301 108.504 123.648 110.367 123.049 112.239C121.133 117.865 119.729 123.477 118.033 129.196Z" fill="#5E5573"/>
<path d="M147.291 43.5114C147.697 42.8073 146.729 41.4872 145.128 40.5631C143.528 39.6389 141.9 39.4605 141.494 40.1647C141.087 40.8688 142.055 42.1888 143.656 43.113C145.257 44.0372 146.884 44.2156 147.291 43.5114Z" fill="#5E5573" stroke="#5E5573" stroke-width="0.298021" stroke-miterlimit="10"/>
<path d="M154.949 43.1105C156.549 42.1863 157.518 40.8662 157.111 40.1621C156.704 39.4579 155.077 39.6363 153.477 40.5605C151.876 41.4847 150.908 42.8047 151.314 43.5089C151.721 44.213 153.348 44.0347 154.949 43.1105Z" fill="#5E5573" stroke="#5E5573" stroke-width="0.298021" stroke-miterlimit="10"/>
<path d="M173.766 83.0774C174.993 82.5767 176.847 81.8048 179.079 80.8184C187.746 76.9888 189.102 75.7162 193.361 74.4228C196.388 73.5019 200.084 72.3784 204.554 73.2427C210.416 74.3751 214.27 78.2762 215.974 80.267C219.622 84.5257 222.123 88.0334 224.525 92.4173C226.471 95.9727 227.842 99.1407 229.302 102.946C231.537 108.77 233.981 115.231 235.608 123.718C236.153 126.571 236.451 128.835 236.284 131.613C236.147 133.908 235.921 137.612 234.145 140.616C230.223 147.244 222.561 143.966 218.496 150.162C215.751 154.349 218.192 157.454 214.219 162.569C212.55 164.714 210.583 166.145 209.153 167.185C207.019 168.735 204.566 170.52 200.936 171.333C199.348 171.691 196.46 172.099 192.806 171.25C192.806 171.25 188.845 169.9 186.053 167.078C186.801 166.16 187.853 164.711 188.795 162.756C192.544 154.966 190.854 146.687 190.264 144.267C189.445 140.911 188.72 140.563 187.999 136.676C187.29 132.853 187.415 130.081 187.433 128.01C187.531 117.278 184.977 108.198 183.934 104.496C182.498 99.391 180.96 95.8476 180.587 95.0042C179.711 93.0104 178.161 89.7262 175.712 85.9264C175.259 85.2231 174.603 84.2367 173.766 83.0774Z" fill="#C0B4DF"/>
<path d="M233.194 141.981C233.194 141.981 231.618 143.43 231.484 143.552C230.631 144.327 228.763 145.268 224.355 146.052C222.901 146.609 221.175 147.542 219.763 149.178C216.937 152.454 218.094 155.392 215.173 160.035C213.838 162.157 212.396 163.451 210.953 164.744C209.344 166.186 206.635 168.568 202.388 170.058C198.544 171.405 195.089 171.444 192.81 171.253C192.81 171.253 188.849 169.903 186.056 167.081C186.804 166.163 187.856 164.714 188.798 162.759C192.547 154.969 190.858 146.69 190.267 144.27C189.448 140.914 188.724 140.566 188.003 136.679C187.818 135.684 187.693 134.766 187.603 133.908C187.302 130.987 187.424 128.281 187.436 128.013C187.603 123.912 186.968 119.588 186.429 115.886C186.009 112.999 185.279 109.089 183.938 104.502C183.938 104.502 191.314 94.0236 202.054 91.6097C203.526 91.2789 204.37 91.0911 205.61 91.1328C212.515 91.3653 216.919 100.291 225.473 117.636C228.796 124.374 229.857 127.411 230.593 130.045C231.961 134.945 233.194 141.984 233.194 141.984V141.981Z" fill="#ACECC7"/>
<path d="M225.157 115.287C223.744 113.461 220.889 110.275 216.231 108.004C215.424 107.61 211.517 105.712 206.933 105.527C195.796 105.077 187.684 114.387 186.414 115.886C186.092 113.872 185.69 111.753 185.192 109.542C184.796 107.777 184.37 106.096 183.926 104.502C186.948 102.067 189.546 100.062 191.546 98.5476C195.06 95.8893 196.386 94.9892 198.278 94.1578C200.397 93.225 202.385 92.3488 204.993 92.5276C207.827 92.7243 209.818 94.0594 211.546 95.2485C212.92 96.1932 215.453 98.187 219.223 103.995C220.946 106.648 223.136 110.427 225.157 115.287Z" fill="#8EC2A7"/>
<path d="M228.986 121.826C228.241 119.68 227.126 116.673 225.576 113.148C224.238 110.111 222.879 107.05 220.617 103.334C217.914 98.8903 215.712 95.6627 211.718 93.0342C207.156 90.0301 202.11 90.3401 197.321 92.608C189.522 96.3005 183.919 103.298 183.91 103.304C183.91 103.304 184.283 105.465 185.016 105.584C185.338 105.638 185.636 105.277 185.71 105.199C191.352 99.2628 200.844 89.9556 209.492 94.7776C211.972 96.1604 214.129 98.4194 217.995 103.983C219.804 106.588 221.061 108.928 221.878 110.6C224.665 115.654 227.305 121.451 229.436 127.998C229.862 129.303 230.249 130.594 230.607 131.863C231.468 135.466 232.333 139.072 233.194 142.676L233.489 142.172C233.489 142.172 233.06 134.239 230.521 126.186C230.16 125.039 229.731 123.981 228.986 121.823V121.826Z" fill="#5E5573"/>
<path d="M173.792 83.6346C176.748 82.4098 179.112 81.3518 180.679 80.6306C183.943 79.1345 186.035 78.0646 189.963 76.3927C192.859 75.1589 193.914 74.8072 194.955 74.5182C196.671 74.0443 198.757 73.487 201.514 73.5973C202.488 73.636 204.22 73.7195 206.291 74.4526C208.449 75.2185 209.787 76.2675 212.094 78.0795C212.588 78.4699 214.323 79.8527 216.346 81.9776C216.793 82.4485 217.843 83.584 219.091 85.1605C221.303 87.953 222.876 90.5934 224.357 93.4336C228.235 100.872 231.098 108.954 232.252 112.349C230.02 107.297 227.847 103.2 226.145 100.208C220.23 89.7977 216.242 86.0426 214.919 84.8476C214.394 84.3737 211.322 81.5366 207.173 79.7157C205.472 78.9676 203.111 77.9603 199.928 77.8739C199.344 77.859 197.523 77.8381 193.938 78.8126C192.591 79.1792 191.53 79.5368 190.624 79.8945C186.476 81.5217 184.923 82.368 183.192 83.0088C181.174 83.7538 178.128 84.3797 173.789 83.6316L173.792 83.6346Z" fill="#DACFF3"/>
<path d="M187.209 167.37C188.243 168.466 190.946 171.026 195.157 171.753C199.255 172.46 202.444 171.026 204.715 170.004C210.157 167.557 213.196 163.531 214.168 162.139C218.576 155.83 215.953 152.871 219.684 149.003C224.065 144.461 229.03 147.134 233.191 142.834C236.49 139.424 236.454 134.555 236.332 128.865C236.272 126.121 235.894 118.846 229.304 102.952C222.748 87.1364 218.191 82.4455 216.287 80.6366C211.507 76.0977 207.468 74.6582 205.32 74.0831C202.062 73.2158 199.365 73.2963 198.361 73.3529C193.745 73.6152 191.244 75.2573 184.297 78.4223C181.883 79.5219 178.295 81.0955 173.789 82.8389" stroke="#5E5573" stroke-width="1.78813" stroke-miterlimit="10"/>
<path d="M182.208 97.3823C185.468 105.45 187.444 114.018 188.261 122.678C188.544 125.557 188.35 128.487 188.475 131.36C188.767 135.651 189.691 139.91 191.187 143.945C191.7 145.313 192.221 146.714 192.448 148.174C192.674 149.652 192.665 151.133 192.576 152.603C192.191 158.524 189.491 164.008 186.052 168.737C183.436 172.284 180.092 175.291 176.37 177.642C172.674 180.024 168.722 181.856 164.774 183.728C158.131 186.786 151.005 188.717 143.772 189.724C137.996 190.565 132.09 190.421 126.296 190.091C120.485 189.808 114.676 189.214 108.936 188.237C98.8662 186.601 88.9928 183.576 79.7124 179.305C75.701 177.481 71.7314 175.348 68.3548 172.481C66.3432 170.904 64.3226 168.952 62.9785 166.696C59.4172 160.87 58.7526 153.655 60.0996 147.068C60.6897 144.595 61.3454 142.106 62.0994 139.683C62.9428 136.974 63.5626 134.203 63.6252 131.389C63.1216 122.669 64.3345 113.905 66.6919 105.512C67.4935 102.741 68.2267 99.8529 69.7495 97.3644C69.7943 97.2929 69.8926 97.3316 69.8926 97.3316C70.0357 97.3376 70.1727 97.4598 70.1727 97.4598C66.2925 110.576 66.0362 111.95 65.6816 114.161C65.2316 116.968 64.716 122.708 64.8322 127.038C64.8709 128.499 65.0438 129.902 65.0825 131.384C65.1064 132.9 64.9335 134.373 64.716 135.836C64.0842 139.448 62.8325 142.836 62.1113 146.413C60.5824 153.115 61.3156 160.733 65.3299 166.437C66.525 168.183 68.0151 169.48 69.7048 170.83C71.8864 172.662 74.2556 174.138 76.7799 175.455C89.5203 182.077 103.539 186.044 117.797 187.668C126.35 188.529 135.025 189.31 143.584 188.219C150.68 187.298 157.696 185.465 164.231 182.527C168.138 180.721 172.105 178.921 175.735 176.626C179.365 174.376 182.622 171.503 185.191 168.088C188.562 163.525 191.265 158.259 191.7 152.528C191.804 151.113 191.828 149.682 191.631 148.293C191.423 146.884 190.946 145.548 190.46 144.204C188.988 140.089 188.1 135.75 187.858 131.384C187.766 128.475 187.995 125.608 187.748 122.711C187.429 118.98 187.015 116.196 186.645 114.128C185.924 110.084 184.637 104.332 182.208 97.3823Z" fill="#5E5573"/>
<path d="M75.342 86.7429C72.8922 90.5456 71.3395 93.8298 70.4663 95.8206C70.0968 96.664 68.556 100.207 67.1196 105.313C66.0765 109.014 63.5224 118.095 63.6208 128.826C63.6417 130.898 63.7638 133.669 63.0546 137.493C62.3333 141.379 61.6092 141.728 60.7896 145.083C60.1995 147.503 58.5068 155.782 62.2588 163.573C63.2006 165.528 64.2526 166.976 65.0006 167.894C62.2052 170.716 58.2475 172.066 58.2475 172.066C54.5937 172.916 51.7089 172.507 50.1175 172.15C46.4876 171.336 44.0349 169.551 41.901 168.001C40.4705 166.961 38.5036 165.531 36.8347 163.385C32.862 158.274 35.3028 155.166 32.5581 150.978C28.496 144.782 20.8339 148.061 16.909 141.433C15.1328 138.432 14.9093 134.724 14.7692 132.43C14.6023 129.652 14.8973 127.387 15.4457 124.535C17.0699 116.047 19.5167 109.586 21.7518 103.763C23.2121 99.9572 24.583 96.7892 26.5291 93.2338C28.9311 88.8499 31.4315 85.3422 35.0793 81.0835C36.784 79.0927 40.6404 75.1916 46.4995 74.0591C50.9728 73.1949 54.6682 74.3184 57.6932 75.2393C61.9519 76.5327 63.3079 77.8052 71.9743 81.6348C74.2095 82.6213 76.0602 83.3931 77.288 83.8938C76.4506 85.0531 75.795 86.0396 75.342 86.7429Z" fill="#C0B4DF"/>
<path d="M20.4611 130.859C21.1972 128.224 22.2582 125.188 25.5811 118.449C34.1343 101.105 38.5391 92.1788 45.4442 91.9464C46.684 91.9046 47.5274 92.0924 48.9996 92.4232C59.7403 94.8372 67.1163 105.316 67.1163 105.316C65.7752 109.902 65.045 113.812 64.6248 116.7C64.0854 120.401 63.4506 124.726 63.6175 128.826C63.6294 129.095 63.7516 131.801 63.4506 134.721C63.3642 135.58 63.2361 136.498 63.0513 137.493C62.3301 141.379 61.6059 141.728 60.7863 145.084C60.1962 147.503 58.5035 155.782 62.2556 163.573C63.1973 165.528 64.2493 166.976 64.9974 167.894C62.2019 170.716 58.2442 172.066 58.2442 172.066C55.9643 172.257 52.5133 172.218 48.6658 170.871C44.419 169.381 41.71 167 40.1007 165.558C38.6583 164.264 37.2158 162.971 35.8807 160.849C32.9571 156.209 34.1134 153.267 31.2912 149.992C29.8786 148.353 28.153 147.423 26.6987 146.866C22.2909 146.082 20.4224 145.14 19.57 144.365C19.4359 144.243 17.8594 142.795 17.8594 142.795C17.8594 142.795 19.0932 135.755 20.4611 130.856V130.859Z" fill="#ACECC7"/>
<path d="M31.8281 104.809C35.5981 99.0005 38.1283 97.0067 39.5052 96.062C41.2337 94.8729 43.2245 93.5378 46.0586 93.3411C48.6663 93.1623 50.6541 94.0384 52.773 94.9712C54.6655 95.8027 55.9917 96.7027 59.5053 99.3611C61.5051 100.875 64.1038 102.881 67.1257 105.316C66.6817 106.91 66.2555 108.591 65.8591 110.355C65.3615 112.566 64.9591 114.685 64.6373 116.7C63.3677 115.201 55.2556 105.891 44.1185 106.341C39.5379 106.526 35.6279 108.424 34.8203 108.817C30.1622 111.088 27.3072 114.274 25.8945 116.101C27.9151 111.24 30.1056 107.461 31.8281 104.809Z" fill="#8EC2A7"/>
<path d="M20.5308 127.003C17.9916 135.055 17.5625 142.988 17.5625 142.988L17.8575 143.492C18.7188 139.889 19.5831 136.283 20.4444 132.68C20.802 131.41 21.1894 130.12 21.6156 128.815C23.7464 122.267 26.3869 116.47 29.1734 111.416C29.99 109.744 31.2476 107.408 33.0566 104.8C36.7372 99.5012 38.5879 96.8577 41.5592 95.5941C50.9528 91.6006 64.7571 103.653 65.9432 106.022C65.9432 106.022 66.5244 107.187 66.8671 107.092C67.025 107.05 67.1592 106.609 67.4244 105.733C67.4691 105.587 67.4959 105.497 67.7373 104.651C67.7284 104.642 62.0421 97.0127 53.7303 93.4245C48.1693 91.0225 44.5334 91.7705 43.5261 92.0119C42.0986 92.3546 40.6949 92.9566 39.3329 93.8507C35.3395 96.4792 33.1371 99.7068 30.434 104.15C28.175 107.867 26.8131 110.927 25.475 113.964C23.9223 117.487 22.8077 120.497 22.0656 122.643C21.3176 124.8 20.8914 125.858 20.5308 127.006V127.003Z" fill="#5E5573"/>
<path d="M67.861 83.8283C66.1295 83.1875 64.5768 82.3411 60.4284 80.714C59.5224 80.3563 58.4614 79.9987 57.1144 79.6321C53.5292 78.6576 51.7083 78.6785 51.1241 78.6934C47.9413 78.7798 45.5839 79.7871 43.8793 80.5351C39.7308 82.356 36.6612 85.1932 36.1337 85.6671C34.8105 86.8621 30.8229 90.6142 24.9072 101.027C23.2055 104.019 21.033 108.114 18.8008 113.168C19.9541 109.774 22.8181 101.692 26.6954 94.253C28.1765 91.4129 29.7501 88.7695 31.9614 85.98C33.2101 84.4064 34.2561 83.268 34.7062 82.7971C36.7297 80.6722 38.4642 79.2894 38.9589 78.899C41.2686 77.087 42.6037 76.035 44.7614 75.2721C46.8326 74.539 48.5671 74.4555 49.5387 74.4168C52.2954 74.3065 54.3815 74.8638 56.0981 75.3377C57.1382 75.6238 58.1932 75.9784 61.09 77.2122C65.0179 78.8841 67.11 79.954 70.3733 81.4501C71.9439 82.1713 74.3042 83.2292 77.2606 84.4541C72.9244 85.2021 69.8756 84.5763 67.858 83.8313L67.861 83.8283Z" fill="#DACFF3"/>
<path d="M63.8453 168.186C62.8111 169.283 60.1081 171.843 55.897 172.57C51.7993 173.276 48.6104 171.843 46.3395 170.821C40.8976 168.374 37.8578 164.348 36.8863 162.956C32.4786 156.647 35.1011 153.687 31.3699 149.819C26.989 145.277 22.024 147.95 17.8636 143.65C14.5645 140.241 14.6003 135.371 14.7225 129.682C14.7821 126.937 15.1605 119.662 21.7498 103.769C28.3063 87.9529 32.863 83.262 34.7674 81.453C39.5476 76.9142 43.5858 75.4747 45.7345 74.8995C48.9919 74.0323 51.689 74.1128 52.6933 74.1694C57.3097 74.4316 59.8101 76.0737 66.7569 79.2387C69.1709 80.3384 72.7591 81.912 77.2651 83.6554" stroke="#5E5573" stroke-width="1.78813" stroke-miterlimit="10"/>
<path d="M70.1722 97.4597C67.1503 105.369 65.0701 113.714 64.6082 122.184C64.4383 125.828 65.1595 129.485 64.638 133.127C64.3548 135.562 63.9227 137.988 63.1479 140.321C62.7575 141.486 62.3372 142.61 62.0452 143.766C61.7442 144.923 61.5415 146.106 61.3895 147.298C60.9127 150.886 60.5283 154.483 61.0468 158.062C61.9498 164.637 65.681 168.49 70.7891 172.329C84.9094 182.649 108.364 187.551 125.688 188.371C130.507 188.583 135.343 188.785 140.148 188.434C149.717 187.724 159.072 184.908 167.616 180.581C171.824 178.381 176.187 176.215 179.835 173.163C182.511 170.844 185.089 168.317 187.172 165.462C189.196 162.649 190.617 159.386 190.871 155.905C191.187 151.5 190.376 146.988 189.202 142.729L189.086 142.294L189.026 142.076L188.996 141.969C188.996 141.948 188.946 141.835 189.023 142.005L188.963 141.847C187.986 136.933 187.461 132.915 187.166 130.23C186.415 123.417 186.594 120.181 185.646 113.58C185.08 109.628 184.395 106.46 183.933 104.496C183.396 102.312 182.24 97.6058 182.261 97.4538C182.276 97.3465 182.326 97.3227 182.326 97.3227C182.38 97.3048 182.437 97.3316 182.458 97.3852C183.191 99.2777 184.624 103.06 185.339 104.955L185.357 105.05C185.375 105.032 185.399 105.167 185.429 105.253L185.509 105.533C186.564 110.126 187.193 114.095 187.587 117.207C188.165 121.787 188.451 124.076 188.427 127.003C188.418 128.162 188.358 129.986 188.624 132.534C188.859 134.79 189.217 136.48 189.342 136.977C189.714 138.453 190.379 140.616 190.677 141.606C191.166 143.292 191.643 145.012 192.027 146.726C192.906 151.011 193.335 155.538 192.197 159.824C190.871 164.741 187.554 168.806 183.96 172.275C183.098 173.127 182.148 174.024 181.224 174.799C177.418 178.03 172.984 180.22 168.582 182.47C159.781 186.869 150.116 189.629 140.285 190.249C135.388 190.553 130.495 190.287 125.616 190.022C108.03 189.03 84.3699 183.85 70.1186 173.229C64.8287 169.179 60.9872 165.093 60.12 158.185C59.6282 154.519 60.0693 150.788 60.5938 147.176C60.7637 145.963 60.9872 144.75 61.312 143.558C61.6309 142.363 62.078 141.209 62.4714 140.077C63.2581 137.803 63.7111 135.425 64.0151 133.04C64.6827 127.816 64.2237 123.28 64.1134 122.151C63.6664 117.621 64.5009 110.188 70.1722 97.4627V97.4597Z" fill="#5E5573"/>
<path d="M168.556 173.848C170.174 172.71 171.685 172.162 171.849 172.099C173.345 171.548 177.845 169.104 190.741 161.028C189.99 162.428 189.259 163.614 188.631 164.565C187.754 165.891 186.696 167.34 185.427 168.839C184.828 169.545 184.268 170.165 183.761 170.698C177.282 177.547 170.216 180.667 164.694 183.039C161.535 184.398 158.316 185.424 157.493 185.683C157.47 185.692 157.359 185.754 157.338 185.731C157.246 185.614 159.738 183.844 162.28 181.159C163.987 179.356 164.962 178.325 165.713 176.99C165.856 176.733 166.199 176.104 166.824 175.383C167.361 174.763 167.93 174.287 168.556 173.845V173.848Z" fill="#A394C5"/>
<path d="M61.0859 157.469C67.8987 163.307 74.0618 167.11 78.2072 169.411C89.3711 176.519 99.5843 179.642 106.209 181.135C123.59 185.048 137.859 182.586 145.435 181.201C152.194 179.967 157.692 178.304 161.498 176.99C164.541 175.818 166.967 174.656 168.555 173.848C168.555 173.848 166.538 177.15 164.291 179.743C163.194 181.01 161.65 182.765 159.194 184.321C157.102 185.647 155.362 186.186 152.346 187.119C148.713 188.243 145.831 188.726 145.009 188.857C141.736 189.378 136.843 189.828 130.784 189.17C127.461 188.973 124.728 188.758 122.842 188.603C112.584 187.748 106.743 187.233 99.2952 185.224C96.8634 184.568 95.0931 183.978 93.2364 183.358C89.7138 182.184 84.3822 180.232 77.936 177.1C74.4134 175.389 72.9114 174.453 71.5405 173.446C69.4514 171.911 65.4162 168.871 62.9009 163.424C61.8042 161.048 61.3214 158.918 61.0859 157.472V157.469Z" fill="#A394C5"/>
<path d="M56.5202 181.508C56.5202 181.508 62.9366 187.82 89.1506 199.583C89.1506 199.583 88.6439 201.889 87.6843 206.246C84.9336 207.248 82.6954 207.653 81.107 207.838C81.107 207.838 77.5605 208.246 74.5773 209.224C74.3955 209.28 74.1035 209.385 73.7459 209.554C73.4568 209.694 72.0829 210.597 71.3259 211.486C69.2994 213.87 68.76 217.571 68.76 217.571C67.8987 223.49 70.5362 232.347 76.9168 235.643C77.8019 236.099 79.7271 237.094 82.2514 237.02C82.8415 237.002 83.512 236.868 88.0241 235.39C89.994 234.746 91.5437 234.168 93.299 233.509C95.4984 232.687 97.3104 231.969 98.5919 231.45C103.622 232.064 107.807 232.451 110.796 232.699C112.7 232.857 128.617 234.138 140.798 233.462C142.94 233.342 145.256 233.17 145.256 233.17C148.245 232.946 151.696 232.627 155.526 232.174C159.296 234.138 162.634 235.098 164.988 235.604C168.74 236.412 171.384 236.981 174.462 235.947C178.161 234.707 180.238 231.906 181.042 230.794C184.863 225.499 186.046 216.701 181.841 212.037C180.205 210.225 177.561 209.358 172.31 207.59C169.655 206.696 167.378 206.139 165.76 205.793C164.747 201.296 164.198 198.858 164.198 198.858C164.198 198.858 176.053 194.784 186.565 188.207C191.64 185.033 197.183 181.49 201.901 174.787C204.926 170.493 209.465 164.044 207.012 158.599C205.328 154.862 200.625 152.212 196.268 152.43C189.885 152.749 187.027 159.088 177.934 168.505C171.944 174.713 166.198 179.195 161.856 182.244C156.631 183.576 149.846 184.994 141.835 185.865C129.729 187.182 120.52 186.631 114.375 186.234C101.736 185.421 95.4179 185.003 90.7122 182.67C84.3763 179.526 79.6824 174.346 70.2918 163.984C63.2019 156.158 60.7045 152.161 56.0732 152.153C51.8383 152.144 47.4604 155.47 45.9822 159.451C42.8023 168.007 53.4178 178.447 56.5202 181.499V181.508Z" fill="#C0B4DF"/>
<path d="M81.8936 196.605C82.9814 196.194 84.3106 195.488 85.4669 194.254C89.4484 190.004 87.6424 183.501 87.4845 182.962C86.9242 181.552 86.3639 180.143 85.8036 178.733C102.639 184.288 116.968 185.587 126.591 185.754C147.348 186.118 158.589 181.445 161.245 180.292C165.313 178.524 168.525 176.644 170.737 175.222C169.819 175.994 168.561 177.228 167.458 179.01C166.475 180.602 164.353 184.032 165.211 187.981C166.353 193.229 171.89 195.401 172.394 195.592C169.419 196.802 166.442 198.012 163.468 199.222C162.613 196.429 161.757 193.637 160.902 190.845C154.253 192.585 146.487 194.075 137.764 194.775C118.967 196.283 103.113 193.524 91.8922 190.517C90.9773 193.539 90.0653 196.561 89.1504 199.583L81.8906 196.608L81.8936 196.605Z" fill="#A394C5"/>
<path d="M88.6191 217.982C89.1735 218.805 89.7576 219.812 90.2672 221.013C91.2983 223.451 91.5934 225.677 91.6619 227.245C92.6573 226.834 93.8136 226.437 95.1249 226.124C97.667 225.513 99.926 225.433 101.661 225.51C110.515 227.012 118.15 227.573 124.09 227.751C133.307 228.032 137.915 228.172 141.452 227.304C145.464 226.324 149.204 224.709 154.616 225.403C157.456 225.767 159.715 226.634 161.196 227.322C161.149 226.199 161.205 224.753 161.578 223.126C162.263 220.134 163.676 217.991 164.632 216.784C164.772 217.19 165.127 218.036 165.982 218.683C166.343 218.96 166.701 219.127 166.99 219.231C166.689 219.905 166.316 220.837 165.965 221.97C165.631 223.046 165.261 224.259 165.109 225.913C165.067 226.339 164.975 227.507 165.109 229.018C165.184 229.876 165.231 230.395 165.425 231.11C165.962 233.068 167.014 234.29 167.332 234.642C167.574 234.907 167.788 235.11 167.931 235.235C166.727 234.943 165.72 234.686 164.963 234.484C163.467 234.09 162.975 233.938 162.63 233.822C161.751 233.533 161.536 233.411 160.305 232.934C158.162 232.103 157.06 231.682 155.593 231.414C154.696 231.25 153.901 231.185 153.719 231.17C153.409 231.146 152.747 231.101 151.904 231.116C150.566 231.14 149.582 231.298 148.086 231.53C146.152 231.834 145.184 231.983 144.462 232.091C144.006 232.156 141.992 232.442 139.551 232.633C137.599 232.785 135.96 232.833 134.207 232.854C131.704 232.883 129.198 232.854 123.878 232.672C114.607 232.359 111.597 232.088 110.086 231.918C107.016 231.578 106.041 231.444 106.041 231.444C104.408 231.226 103.937 231.128 102.972 231.062C102.28 231.015 100.755 230.946 99.1273 231.143C97.4733 231.343 95.9504 231.924 92.9017 233.089C91.0301 233.801 90.3059 234.159 88.339 234.821C87.278 235.178 86.3959 235.443 85.7969 235.613C87.0277 234.147 87.6327 232.785 87.9545 231.861C89.5013 227.4 87.9069 222.944 87.1439 220.808C86.9681 220.313 86.8072 219.914 86.6909 219.645C86.9234 219.535 87.1827 219.392 87.4509 219.198C88.0201 218.793 88.3956 218.334 88.6311 217.982H88.6162H88.6191Z" fill="#A394C5"/>
<path d="M178.575 209.56C172.805 210.687 169.354 216.126 167.807 221.404C166.809 224.986 166.41 230.005 168.087 233.384C168.683 234.576 169.601 235.622 170.764 236.478C170.805 236.507 170.811 236.564 170.781 236.606C170.758 236.636 170.719 236.65 170.683 236.638C169.265 236.233 167.941 235.312 167.02 234.058C164.204 230.252 164.913 225.126 166.442 220.96C167.423 218.173 168.892 215.553 170.889 213.366C173.461 210.55 176.751 209.212 178.545 209.381C178.608 209.387 179.66 209.492 179.657 209.539C179.657 209.578 179.055 209.569 178.578 209.557H178.581L178.575 209.56Z" fill="#5E5573"/>
<path d="M176.693 209.054C176.473 208.884 174.077 207.087 171.776 208.037C171.389 208.198 169.919 208.806 169.8 210.141C169.72 211.068 170.313 212.022 171.305 212.561C172.128 211.846 173.129 211.068 174.33 210.326C175.162 209.814 175.954 209.396 176.69 209.054H176.693Z" fill="white" stroke="#5E5573" stroke-width="1.78813" stroke-linecap="round" stroke-linejoin="round"/>
<path d="M170.734 213.143C169.205 212.004 167.188 212.177 166.085 213.289C164.952 214.43 165.233 216.108 165.25 216.206C165.578 218.003 167.298 218.581 167.414 218.614C167.855 217.613 168.427 216.492 169.172 215.315C169.694 214.499 170.221 213.774 170.734 213.137V213.143Z" fill="white" stroke="#5E5573" stroke-width="1.78813" stroke-linecap="round" stroke-linejoin="round"/>
<path d="M91.8909 190.514C90.8925 193.16 89.9299 196.191 89.1491 199.58C88.6365 201.806 88.264 203.916 87.9958 205.886C86.312 206.428 83.7758 207.197 80.6287 207.96C76.3342 209.003 74.9663 208.83 73.199 210.225C70.9192 212.034 70.0788 214.674 69.7927 215.571C69.1757 217.506 69.1996 219.082 69.2324 220.34C69.2532 221.15 69.3933 224.601 71.39 228.61C72.3646 230.565 73.4881 232.818 75.9736 234.627C76.7812 235.217 79.07 236.811 82.247 237.011C82.9175 237.053 84.342 237.077 89.2266 235.39C94.3198 233.628 94.8562 232.877 97.5414 232.278C100.7 231.572 103.144 231.897 105.505 232.174C105.505 232.174 115.64 233.345 126.759 233.623C132.264 233.76 137.107 233.882 143.58 233.056C149.463 232.302 152.1 231.364 156.481 232.49C159.375 233.235 160.4 234.207 164.867 235.36C168.98 236.421 171.036 236.951 173.039 236.594C179.497 235.452 184.647 226.765 184.277 219.16C184.197 217.491 184.033 214.081 181.646 211.408C179.104 208.553 175.063 207.683 171.033 206.819C171.033 206.819 170.896 206.789 165.746 205.799C165.127 204.16 164.519 202.47 163.929 200.733C162.766 197.327 161.765 194.022 160.898 190.842" stroke="#5E5573" stroke-width="1.78813" stroke-linecap="round" stroke-linejoin="round"/>
<path d="M182.861 225.782C185.441 218.569 184.13 211.505 179.933 210.004C175.736 208.503 170.243 213.133 167.663 220.346C165.083 227.559 166.394 234.623 170.591 236.124C174.788 237.625 180.281 232.994 182.861 225.782Z" fill="#DACFF3"/>
<path d="M73.9609 209.942C73.9609 209.894 75.01 209.79 75.0726 209.784C76.8696 209.614 80.1568 210.949 82.7287 213.768C84.7284 215.956 86.1977 218.572 87.1752 221.362C88.7011 225.528 89.4103 230.654 86.597 234.46C85.6732 235.715 84.347 236.635 82.9344 237.041C82.8956 237.056 82.8598 237.041 82.836 237.008C82.8062 236.966 82.8122 236.91 82.8539 236.88C84.0191 236.022 84.937 234.978 85.5301 233.786C87.208 230.407 86.8086 225.385 85.8103 221.806C84.2635 216.531 80.8124 211.092 75.0428 209.963C74.5659 209.972 73.9669 209.98 73.9639 209.945H73.9669L73.9609 209.942Z" fill="#5E5573"/>
<path d="M79.2813 210.726C80.4853 211.468 81.4896 212.242 82.3062 212.961C83.3016 212.421 83.8946 211.468 83.8112 210.541C83.692 209.209 82.2227 208.598 81.8353 208.437C79.5346 207.486 77.1385 209.283 76.918 209.453C77.6541 209.793 78.4528 210.213 79.2783 210.726H79.2813Z" fill="white" stroke="#5E5573" stroke-width="1.78813" stroke-linecap="round" stroke-linejoin="round"/>
<path d="M84.4366 215.717C85.1817 216.892 85.7569 218.015 86.195 219.017C86.3082 218.984 88.0308 218.403 88.3586 216.608C88.3794 216.507 88.6536 214.832 87.5241 213.691C86.4244 212.579 84.4098 212.409 82.875 213.545C83.3876 214.18 83.9151 214.904 84.4366 215.723V215.717Z" fill="white" stroke="#5E5573" stroke-width="1.78813" stroke-linecap="round" stroke-linejoin="round"/>
<path d="M83.0112 236.536C87.208 235.035 88.5189 227.971 85.9392 220.758C83.3596 213.546 77.8661 208.915 73.6693 210.416C69.4725 211.917 68.1616 218.981 70.7412 226.194C73.3209 233.407 78.8143 238.037 83.0112 236.536Z" fill="#DACFF3"/>
<path d="M155.469 206.363C156.72 205.769 157.838 204.729 159.194 204.235C160.577 203.782 162.022 203.192 163.497 203.287C164.505 203.388 165.446 203.639 166.338 204.196V204.402C165.396 204.956 164.469 205.165 163.575 205.331C162.243 205.525 160.896 205.221 159.578 205.543C158.181 205.707 156.98 206.407 155.525 206.559L155.475 206.363H155.472H155.469Z" fill="#5E5573"/>
<path d="M160.443 212.439C161.176 211.396 162.04 210.293 162.833 209.289C163.762 208.276 164.54 206.947 165.905 206.443C166.859 206.106 168.039 206.07 168.882 206.72L168.865 206.926C167.988 207.426 167.419 207.844 166.808 208.279C166.194 208.75 165.434 209.006 164.794 209.483C164.457 209.727 164.12 209.995 163.774 210.264C162.755 211.033 161.635 211.876 160.577 212.588L160.434 212.442H160.437L160.443 212.439Z" fill="#5E5573"/>
<path d="M98.2966 206.351C97.3221 206.273 96.4041 205.856 95.5458 205.617C94.6875 205.379 93.8143 205.236 92.9292 205.173C92.0352 205.105 91.1411 205.299 90.247 205.123C89.35 204.956 88.4231 204.744 87.4844 204.193V203.987C88.3725 203.427 89.3142 203.18 90.3245 203.078C91.308 202.965 92.2736 203.311 93.2153 203.561C94.172 203.809 95.1078 204.181 95.9631 204.679C96.8124 205.191 97.5068 205.766 98.3532 206.151L98.3025 206.348L98.2966 206.351Z" fill="#5E5573"/>
<path d="M93.2257 212.374C92.1707 211.661 91.0442 210.824 90.0279 210.049C89.3693 209.528 88.7047 208.994 87.9596 208.645C86.8123 208.046 86.2252 207.415 84.9437 206.711L84.9258 206.506C85.7722 205.859 86.9493 205.892 87.903 206.228C89.2739 206.732 90.0458 208.061 90.9756 209.075C91.7654 210.076 92.6326 211.182 93.3657 212.225L93.2227 212.371L93.2257 212.374Z" fill="#5E5573"/>
<path d="M76.9806 170.692C79.5645 172.96 82.2228 175.118 84.9885 177.159C87.7392 179.216 90.4542 181.317 93.5685 182.506C95.9169 183.466 98.3994 183.823 100.897 184.193C103.412 184.601 105.904 184.926 108.455 185.114C110.153 185.245 111.861 185.31 113.593 185.4L113.61 185.579C111.924 186.002 110.192 186.255 108.452 186.374C101.496 186.833 94.1079 185.394 88.4604 181.135C84.3537 177.958 80.4764 174.534 76.8555 170.826L76.9777 170.698L76.9806 170.692Z" fill="#5E5573"/>
<path d="M176.06 170.74C172.439 174.447 168.561 177.875 164.455 181.049C158.81 185.304 151.419 186.747 144.463 186.288C142.723 186.169 140.994 185.915 139.305 185.492L139.323 185.313C141.054 185.227 142.762 185.158 144.46 185.027C147.009 184.842 149.503 184.515 152.018 184.106C154.516 183.74 157.001 183.379 159.347 182.42C162.461 181.23 165.173 179.129 167.924 177.073C169.303 176.048 170.662 175.011 171.998 173.929C173.33 172.847 174.641 171.738 175.934 170.606L176.057 170.734L176.06 170.74Z" fill="#5E5573"/>
<path d="M164.329 199.118C166.242 198.241 169.103 196.915 172.546 195.234C184.341 189.48 190.239 186.604 195.133 182.494C196.054 181.722 203.862 174.99 206.785 165.557C207.128 164.455 207.539 162.878 207.173 160.989C206.231 156.11 200.613 151.792 195.753 152.039C192.805 152.188 191.327 153.523 182.079 164.157C178.998 167.7 174.998 172.06 169.407 176.462C165.438 179.588 161.909 181.779 159.543 183.111" stroke="#5E5573" stroke-width="1.78813" stroke-miterlimit="10"/>
<path d="M200.796 154.432C194.678 160.569 194.598 152.868 194.598 152.868C197.87 151.449 200.796 154.432 200.796 154.432Z" fill="white" stroke="#5E5573" stroke-width="1.78813" stroke-linecap="round" stroke-linejoin="round"/>
<path d="M204.715 158.768C196.677 161.421 200.444 154.25 200.444 154.25C203.815 154.557 204.715 158.768 204.715 158.768Z" fill="white" stroke="#5E5573" stroke-width="1.78813" stroke-linecap="round" stroke-linejoin="round"/>
<path d="M205.284 157.883C199.061 163.915 206.762 164.103 206.762 164.103C208.225 160.852 205.284 157.883 205.284 157.883Z" fill="white" stroke="#5E5573" stroke-width="1.78813" stroke-linecap="round" stroke-linejoin="round"/>
<path d="M88.5852 199.204C86.6719 198.328 83.8109 197.002 80.3687 195.321C68.573 189.566 62.6752 186.69 57.7817 182.581C53.4306 178.927 47.0112 173.55 46.1291 165.644C45.7208 161.993 46.6983 159.69 47.0827 158.891C48.9007 155.085 53.1504 151.992 57.1618 152.129C60.5145 152.242 62.1 154.203 70.835 164.246C73.9166 167.79 77.916 172.15 83.5069 176.552C87.4765 179.678 91.0051 181.868 93.3714 183.2" stroke="#5E5573" stroke-width="1.78813" stroke-miterlimit="10"/>
<path d="M58.316 152.608C58.316 152.608 58.2356 160.312 52.1172 154.173C52.1172 154.173 55.0438 151.19 58.316 152.608Z" fill="white" stroke="#5E5573" stroke-width="1.78813" stroke-linecap="round" stroke-linejoin="round"/>
<path d="M52.4699 154.727C52.4699 154.727 56.2368 161.898 48.1992 159.245C48.1992 159.245 49.0992 155.031 52.4699 154.727Z" fill="white" stroke="#5E5573" stroke-width="1.78813" stroke-linecap="round" stroke-linejoin="round"/>
<path d="M46.498 164.58C46.498 164.58 54.1989 164.392 47.9762 158.36C47.9762 158.36 45.0347 161.329 46.498 164.58Z" fill="white" stroke="#5E5573" stroke-width="1.78813" stroke-linecap="round" stroke-linejoin="round"/>
</g>
<path d="M223.097 208.211C223.097 214.509 212.842 220.55 194.588 225.004C176.334 229.458 151.577 231.961 125.762 231.961C99.9466 231.961 75.1888 229.458 56.9348 225.004C38.6808 220.55 28.4258 214.509 28.4258 208.211L29.0951 208.211C29.0951 214.466 39.2796 220.466 57.4081 224.889C75.5366 229.312 100.124 231.797 125.762 231.797C151.399 231.797 175.987 229.312 194.115 224.889C212.244 220.465 222.428 214.466 222.428 208.211H223.097Z" fill="#C7C6C6"/>
<g filter="url(#filter0_dd_2037_297)">
<rect x="211.191" y="213.035" width="37.2472" height="171.337" rx="18.6236" transform="rotate(90 211.191 213.035)" fill="#5E5573" shape-rendering="crispEdges"/>
<path d="M83.8999 235.335C83.3937 234.921 83.3246 234.161 83.7158 233.655C84.1301 233.149 84.8895 233.08 85.3957 233.494C86.4083 234.322 88.1573 235.289 89.7911 235.266C90.9418 235.266 91.9773 234.921 92.6677 234.414C93.3581 233.908 93.6573 233.333 93.6573 232.757C93.6573 232.458 93.5882 232.251 93.4501 232.021C93.3121 231.791 93.105 231.561 92.7598 231.331C92.0924 230.893 90.9648 230.502 89.607 230.249H89.561C88.4794 230.042 87.4669 229.766 86.5924 229.352C85.7179 228.937 84.9585 228.362 84.4522 227.557C84.107 227.004 83.9229 226.36 83.9229 225.67C83.9229 224.289 84.7054 223.092 85.7639 222.31C86.8455 221.527 88.2493 221.09 89.7451 221.09C91.9543 221.09 93.5882 222.172 94.7619 222.931C95.2911 223.299 95.4522 224.036 95.084 224.565C94.7388 225.117 94.0024 225.278 93.4501 224.91C92.2765 224.128 91.1489 223.437 89.7451 223.437C88.7096 223.437 87.7891 223.759 87.1677 224.22C86.5464 224.68 86.2932 225.186 86.2932 225.67C86.2932 225.946 86.3393 226.13 86.4543 226.314C86.5694 226.498 86.7765 226.705 87.0757 226.912C87.674 227.326 88.7096 227.695 89.9522 227.925H89.9983C91.1719 228.155 92.2535 228.454 93.174 228.891C94.1175 229.352 94.946 229.95 95.4752 230.801C95.8204 231.354 96.0275 232.044 96.0275 232.757C96.0275 234.23 95.1991 235.496 94.0485 236.324C92.9209 237.153 91.425 237.636 89.7911 237.636C87.3058 237.613 85.2116 236.37 83.8999 235.335ZM104.243 237.659C101.09 237.636 98.6508 235.036 98.6278 231.906C98.6508 228.776 101.09 226.153 104.243 226.153C107.234 226.153 109.605 228.385 109.789 231.492C109.789 231.515 109.789 231.561 109.789 231.607C109.789 231.653 109.789 231.768 109.766 231.814C109.697 232.366 109.214 232.734 108.569 232.734H101.251C101.366 233.264 101.619 233.862 102.034 234.253C102.517 234.806 103.437 235.22 104.243 235.289C105.071 235.358 106.061 235.151 106.636 234.713C107.119 234.207 108.063 234.276 108.362 234.644C108.661 234.967 108.891 235.657 108.362 236.14C107.234 237.176 105.877 237.659 104.243 237.659ZM104.243 228.339C102.287 228.431 101.32 229.835 101.136 230.778H107.649C107.419 229.858 106.245 228.5 104.243 228.339ZM118.358 226.153C121.028 226.153 123.168 228.339 123.168 230.939V236.439C123.168 237.107 122.639 237.659 121.971 237.659C121.327 237.659 120.751 237.107 120.751 236.439V230.939C120.751 229.651 119.67 228.615 118.358 228.615C117.069 228.615 116.057 229.651 116.057 230.939V236.439C116.057 236.508 116.057 236.577 116.011 236.67C115.896 237.222 115.39 237.659 114.791 237.659C114.101 237.659 113.572 237.107 113.572 236.439V230.939V227.372C113.572 226.705 114.101 226.153 114.791 226.153C115.274 226.153 115.712 226.429 115.919 226.866C116.609 226.429 117.461 226.153 118.358 226.153ZM137.534 227.395V231.929V236.439C137.534 237.107 136.982 237.659 136.314 237.659C135.716 237.659 135.256 237.222 135.118 236.67C134.243 237.291 133.208 237.659 132.057 237.659C130.492 237.659 129.135 237.015 128.145 235.979C127.155 234.921 126.58 233.494 126.58 231.929C126.58 230.341 127.155 228.914 128.145 227.879C129.135 226.82 130.492 226.153 132.057 226.153C133.208 226.153 134.243 226.544 135.118 227.165C135.256 226.59 135.716 226.153 136.314 226.153C136.982 226.153 137.534 226.705 137.534 227.395ZM134.197 234.299C134.75 233.701 135.095 232.872 135.095 231.929C135.095 230.962 134.75 230.134 134.197 229.559C133.645 228.937 132.863 228.615 132.057 228.615C131.229 228.615 130.446 228.937 129.917 229.559C129.365 230.134 129.042 230.962 129.042 231.929C129.042 232.872 129.365 233.701 129.917 234.299C130.446 234.875 131.229 235.197 132.057 235.197C132.863 235.197 133.645 234.875 134.197 234.299ZM146.725 226.153C149.394 226.153 151.534 228.339 151.534 230.939V236.439C151.534 237.107 151.005 237.659 150.338 237.659C149.693 237.659 149.118 237.107 149.118 236.439V230.939C149.118 229.651 148.036 228.615 146.725 228.615C145.436 228.615 144.423 229.651 144.423 230.939V236.439C144.423 236.508 144.423 236.577 144.377 236.67C144.262 237.222 143.756 237.659 143.158 237.659C142.467 237.659 141.938 237.107 141.938 236.439V230.939V227.372C141.938 226.705 142.467 226.153 143.158 226.153C143.641 226.153 144.078 226.429 144.285 226.866C144.976 226.429 145.827 226.153 146.725 226.153ZM166.453 231.952V231.975V236.255C166.453 239.27 163.991 241.778 160.93 241.778C160.079 241.778 159.227 241.571 158.514 241.203C157.915 240.927 157.639 240.167 157.961 239.546C158.261 238.925 158.974 238.695 159.618 238.971C160.009 239.178 160.447 239.293 160.93 239.293C162.426 239.293 163.645 238.234 163.945 236.831C163.116 237.406 162.058 237.751 160.93 237.751C159.411 237.751 158.007 237.084 157.018 236.002C156.028 234.99 155.407 233.563 155.407 231.952C155.407 230.364 156.028 228.937 157.018 227.856C158.007 226.82 159.411 226.153 160.93 226.153C162.127 226.153 163.185 226.521 164.014 227.119C164.129 226.567 164.635 226.153 165.233 226.153C165.924 226.153 166.453 226.705 166.453 227.372V231.952ZM163.116 234.322C163.622 233.793 163.991 232.918 163.991 231.952C163.991 231.031 163.622 230.157 163.116 229.605C162.518 228.96 161.804 228.615 160.93 228.615C160.125 228.615 159.365 228.96 158.813 229.605C158.261 230.157 157.892 231.031 157.892 231.952C157.892 232.918 158.261 233.793 158.813 234.322C159.365 234.944 160.125 235.266 160.93 235.266C161.804 235.266 162.518 234.944 163.116 234.322Z" fill="white"/>
</g>
<defs>
<filter id="filter0_dd_2037_297" x="36.8757" y="213.035" width="177.295" height="43.2067" filterUnits="userSpaceOnUse" color-interpolation-filters="sRGB">
<feFlood flood-opacity="0" result="BackgroundImageFix"/>
<feColorMatrix in="SourceAlpha" type="matrix" values="0 0 0 0 0 0 0 0 0 0 0 0 0 0 0 0 0 0 127 0" result="hardAlpha"/>
<feOffset dy="2.97977"/>
<feGaussianBlur stdDeviation="1.48989"/>
<feComposite in2="hardAlpha" operator="out"/>
<feColorMatrix type="matrix" values="0 0 0 0 0 0 0 0 0 0 0 0 0 0 0 0 0 0 0.25 0"/>
<feBlend mode="normal" in2="BackgroundImageFix" result="effect1_dropShadow_2037_297"/>
<feColorMatrix in="SourceAlpha" type="matrix" values="0 0 0 0 0 0 0 0 0 0 0 0 0 0 0 0 0 0 127 0" result="hardAlpha"/>
<feOffset dy="2.97977"/>
<feGaussianBlur stdDeviation="1.48989"/>
<feComposite in2="hardAlpha" operator="out"/>
<feColorMatrix type="matrix" values="0 0 0 0 0 0 0 0 0 0 0 0 0 0 0 0 0 0 0.25 0"/>
<feBlend mode="normal" in2="effect1_dropShadow_2037_297" result="effect2_dropShadow_2037_297"/>
<feBlend mode="normal" in="SourceGraphic" in2="effect2_dropShadow_2037_297" result="shape"/>
</filter>
<linearGradient id="paint0_linear_2037_297" x1="125.524" y1="0" x2="125.524" y2="250" gradientUnits="userSpaceOnUse">
<stop stop-color="#FADB5C"/>
<stop offset="0.735577" stop-color="#FFEDA4"/>
</linearGradient>
<clipPath id="clip0_2037_297">
<rect width="223.48" height="204.237" fill="white" transform="translate(13.7852 33.6833)"/>
</clipPath>
</defs>
</svg>
