<svg width="25" height="59" viewBox="0 0 25 59" fill="none" xmlns="http://www.w3.org/2000/svg">
<mask id="path-1-outside-1_1836_284" maskUnits="userSpaceOnUse" x="-1.51983" y="-1.58775" width="27.4758" height="61.8195" fill="black">
<rect fill="white" x="-1.51983" y="-1.58775" width="27.4758" height="61.8195"/>
<path d="M9.38595 41.7021C7.13267 41.2092 5.64929 38.9958 6.15864 36.6674L12.7967 6.32337C13.2896 4.0701 15.5781 2.60314 17.8313 3.09606C20.0846 3.58898 21.4765 5.86105 20.9835 8.11432L14.3455 38.4584C13.8362 40.7867 11.6392 42.195 9.38595 41.7021ZM11.2894 52.4286C10.7801 54.757 8.5831 56.1653 6.32983 55.6724C4.07656 55.1795 2.59317 52.9661 3.10252 50.6377L3.43114 49.1355C3.92406 46.8822 6.21255 45.4153 8.46582 45.9082C10.7191 46.4011 12.1109 48.6732 11.618 50.9265L11.2894 52.4286Z"/>
</mask>
<path d="M9.38595 41.7021C7.13267 41.2092 5.64929 38.9958 6.15864 36.6674L12.7967 6.32337C13.2896 4.0701 15.5781 2.60314 17.8313 3.09606C20.0846 3.58898 21.4765 5.86105 20.9835 8.11432L14.3455 38.4584C13.8362 40.7867 11.6392 42.195 9.38595 41.7021ZM11.2894 52.4286C10.7801 54.757 8.5831 56.1653 6.32983 55.6724C4.07656 55.1795 2.59317 52.9661 3.10252 50.6377L3.43114 49.1355C3.92406 46.8822 6.21255 45.4153 8.46582 45.9082C10.7191 46.4011 12.1109 48.6732 11.618 50.9265L11.2894 52.4286Z" fill="#C0B4DF"/>
<path d="M9.38595 41.7021L10.0271 38.7714C9.3575 38.6249 8.94164 37.9837 9.08933 37.3085L6.15864 36.6674L3.22794 36.0263C2.35693 40.0079 4.90785 43.7934 8.74483 44.6328L9.38595 41.7021ZM6.15864 36.6674L9.08933 37.3085L15.7273 6.96448L12.7967 6.32337L9.86596 5.68225L3.22794 36.0263L6.15864 36.6674ZM12.7967 6.32337L15.7273 6.96448C15.8662 6.32979 16.5555 5.88791 17.1902 6.02676L17.8313 3.09606L18.4725 0.165366C14.6006 -0.681634 10.713 1.81041 9.86596 5.68225L12.7967 6.32337ZM17.8313 3.09606L17.1902 6.02676C17.7554 6.1504 18.2071 6.76812 18.0528 7.4732L20.9835 8.11432L23.9142 8.75543C24.7458 4.95397 22.4138 1.02757 18.4725 0.165366L17.8313 3.09606ZM20.9835 8.11432L18.0528 7.4732L11.4148 37.8173L14.3455 38.4584L17.2762 39.0995L23.9142 8.75543L20.9835 8.11432ZM14.3455 38.4584L11.4148 37.8173C11.2518 38.5624 10.6267 38.9026 10.0271 38.7714L9.38595 41.7021L8.74483 44.6328C12.6518 45.4875 16.4205 43.0111 17.2762 39.0995L14.3455 38.4584ZM11.2894 52.4286L8.35871 51.7875C8.19571 52.5326 7.57055 52.8729 6.97094 52.7417L6.32983 55.6724L5.68872 58.6031C9.59565 59.4578 13.3644 56.9814 14.2201 53.0698L11.2894 52.4286ZM6.32983 55.6724L6.97094 52.7417C6.30139 52.5952 5.88552 51.954 6.03322 51.2788L3.10252 50.6377L0.171829 49.9966C-0.69918 53.9782 1.85173 57.7637 5.68872 58.6031L6.32983 55.6724ZM3.10252 50.6377L6.03322 51.2788L6.36183 49.7766L3.43114 49.1355L0.500443 48.4944L0.171829 49.9966L3.10252 50.6377ZM3.43114 49.1355L6.36183 49.7766C6.50068 49.1419 7.19002 48.7001 7.82471 48.8389L8.46582 45.9082L9.10694 42.9775C5.23509 42.1305 1.34744 44.6226 0.500443 48.4944L3.43114 49.1355ZM8.46582 45.9082L7.82471 48.8389C8.3899 48.9625 8.84157 49.5803 8.68733 50.2854L11.618 50.9265L14.5487 51.5676C15.3803 47.7661 13.0483 43.8397 9.10694 42.9775L8.46582 45.9082ZM11.618 50.9265L8.68733 50.2854L8.35871 51.7875L11.2894 52.4286L14.2201 53.0698L14.5487 51.5676L11.618 50.9265Z" fill="#5E5573" mask="url(#path-1-outside-1_1836_284)"/>
</svg>
